<svg width="24" height="24" version="1.1" xmlns="http://www.w3.org/2000/svg">
<g transform="matrix(.63891 0 0 .63891 .28764 13.704)">
<path d="m17.992-19-17.992 14.05 2.304 2.9474 1.0709-0.83541v17.838h29.244v-17.877l1.0943 0.85102 2.2864-2.9317zm0.007816 4.218 12.618 9.9058v17.877h-9.2726v-9.7185h-6.697v9.7185h-9.2726v-17.838z" fill="#1a1a1a" fill-opacity=".57778" opacity=".96"/>
<path d="m26.257-16.956c-0.19482 0-0.35175 0.15674-0.35175 0.35134v1.2395l5.3212 4.1497v-5.3892c0-0.1946-0.15693-0.35134-0.35175-0.35134z" fill="#1a1a1a" fill-opacity=".42222" opacity=".908"/>
<path d="m18-14.781-12.623 9.9434v17.84h9.2734v-9.7188h6.6953v9.7188h9.2734v-17.879zm-3.375 6.7324h6.75v6.748h-6.75z" fill="#1a1a1a" opacity=".099558"/>
<path d="m14.625-8.0488v6.748h6.75v-6.748zm1.375 1.375h4v4h-4z" opacity=".55"/>
</g>
</svg>
