<svg width="22" height="22" version="1.1" viewBox="0 0 5.8208 5.8208" xmlns="http://www.w3.org/2000/svg">
<g transform="translate(0 -291.18)">
<path d="m2.3378 292.07c-0.81795 0-1.4849 0.66692-1.4849 1.4849s0.66692 1.4854 1.4849 1.4854c0.26846 0 0.51998-0.0732 0.73767-0.19859l1.5034 1.5125a0.23101 0.23101 0 1 0 0.32764-0.32574l-1.4706-1.4777c0.23942-0.2638 0.38669-0.61285 0.38669-0.99578 0-0.81795-0.66692-1.4849-1.4849-1.4849zm0 0.36908c0.61812 0 1.1144 0.49767 1.1144 1.1158s-0.49624 1.1144-1.1144 1.1144c-0.61812 0-1.1158-0.49625-1.1158-1.1144s0.49767-1.1158 1.1158-1.1158z" color="#000000" color-rendering="auto" dominant-baseline="auto" fill="#fff" image-rendering="auto" shape-rendering="auto" solid-color="#000000" style="font-feature-settings:normal;font-variant-alternates:normal;font-variant-caps:normal;font-variant-ligatures:normal;font-variant-numeric:normal;font-variant-position:normal;isolation:auto;mix-blend-mode:normal;shape-padding:0;text-decoration-color:#000000;text-decoration-line:none;text-decoration-style:solid;text-indent:0;text-orientation:mixed;text-transform:none;white-space:normal"/>
</g>
</svg>
