<svg width="22" height="22" enable-background="new" version="1.1" xmlns="http://www.w3.org/2000/svg">
<rect x="1.1667" y="2" width="20" height="20" opacity="0" stroke-width=".083333" style="paint-order:fill markers stroke"/>
<path d="m11 4.965c-3.4432 0-6.8864 1.076-9.8992 3.228l0.8608 0.8608c6.0256-3.9274 12.131-3.9941 18.077 0l0.8608-0.8608c-3.0128-2.152-6.456-3.228-9.8992-3.228zm0 4.035c-2.5824 0-5.1648 0.8608-7.3168 2.5824l0.8608 0.8608c4.304-3.0128 8.608-3.0397 12.912 0l0.8608-0.8608c-2.152-1.7216-4.7344-2.5824-7.3168-2.5824zm0 3.6584c-1.7216 0-3.4432 0.6456-4.7344 1.9368l0.8608 0.8608c2.5824-2.3542 5.1648-2.152 7.7472 5e-6l0.8608-0.86081c-1.2912-1.2912-3.0128-1.9368-4.7344-1.9368zm0 3.8736c-0.6456 0-1.2912 0.2152-1.7216 0.6456l1.7216 2.152 1.7216-2.152c-0.4304-0.4304-1.076-0.6456-1.7216-0.6456z" fill="#1c1c1c" fill-opacity=".43137" stroke-width="1.2155"/>
<path d="m11 16.532c-0.6456 0-1.2912 0.2152-1.7216 0.6456l1.7216 2.152 1.7216-2.152c-0.4304-0.4304-1.076-0.6456-1.7216-0.6456z" fill="#1c1c1c" stroke-width="1.2155"/>
</svg>
