<?xml version="1.0" encoding="UTF-8" standalone="no"?>
<svg
   width="16px"
   height="16px"
   version="1.1"
   viewBox="0 0 16 16"
   id="svg1"
   sodipodi:docname="org.gnome.Loupe-symbolic.svg"
   inkscape:version="1.4.2 (ebf0e94, 2025-05-08)"
   xmlns:inkscape="http://www.inkscape.org/namespaces/inkscape"
   xmlns:sodipodi="http://sodipodi.sourceforge.net/DTD/sodipodi-0.dtd"
   xmlns="http://www.w3.org/2000/svg"
   xmlns:svg="http://www.w3.org/2000/svg">
  <defs
     id="defs1" />
  <sodipodi:namedview
     id="namedview1"
     pagecolor="#ffffff"
     bordercolor="#000000"
     borderopacity="0.25"
     inkscape:showpageshadow="2"
     inkscape:pageopacity="0.0"
     inkscape:pagecheckerboard="0"
     inkscape:deskcolor="#d1d1d1"
     inkscape:zoom="47.5625"
     inkscape:cx="8"
     inkscape:cy="8"
     inkscape:window-width="1920"
     inkscape:window-height="972"
     inkscape:window-x="0"
     inkscape:window-y="0"
     inkscape:window-maximized="1"
     inkscape:current-layer="svg1" />
  <path
     d="m 4.9074362,0.59258375 c -1.662,0 -3,1.33800005 -3,2.99999995 v 2.3574 c 0.28274,-0.40665 0.61912,-0.77325 1,-1.0898 v -1.2676 c 0,-1.108 0.892,-2 2,-2 h 7.9999998 c 1.108,0 2,0.892 2,2 v 8.0000003 c 0,1.108 -0.892,2 -2,2 H 9.5500362 c -0.92058,0.64693 -2.0174,0.99596 -3.1426,1 h 6.4999998 c 1.662,0 3,-1.338 3,-3 V 3.5925837 c 0,-1.6619999 -1.338,-2.99999995 -3,-2.99999995 z m 1.5,3.99999995 c -2.4853,0 -4.5,2.0147001 -4.5,4.5 0.003,1.0194003 0.3522101,2.0076003 0.99023,2.8027003 l -2.65819995,2.6582 c -0.19587,0.19587 -0.19587,0.51116 0,0.70703 0.19587,0.19587 0.51116,0.19587 0.70703,0 l 2.65819995,-2.6582 c 0.79511,0.63802 1.7833,0.98715 2.8027,0.99023 2.4853,0 4.4999998,-2.0147 4.4999998,-4.5000002 0,-2.4853 -2.0146998,-4.5 -4.4999998,-4.5 z m 0,1 c 1.933,0 3.5,1.567 3.5,3.5 0,1.9330003 -1.567,3.5000003 -3.5,3.5000003 -1.933,0 -3.5,-1.567 -3.5,-3.5000003 0,-1.933 1.567,-3.5 3.5,-3.5 z"
     fill="#dedede"
     id="path1" />
</svg>
