<svg width="16" height="16" viewBox="0 0 16 16" xmlns="http://www.w3.org/2000/svg">
<defs>
<style id="current-color-scheme" type="text/css">.ColorScheme-Text { color:#5c616c; } .ColorScheme-Highlight { color:#5294e2; }</style>
</defs>
<path class="ColorScheme-Text" d="m4 1v2.1738a3 3 0 0 0-2 2.8262 3 3 0 0 0 2 2.8242v6.1758h2v-6.1738a3 3 0 0 0 2-2.8262 3 3 0 0 0-2-2.8242v-2.1758h-2zm6 0v7.1738a3 3 0 0 0-2 2.8262 3 3 0 0 0 2 2.8242v1.1758h2v-1.1738a3 3 0 0 0 2-2.8262 3 3 0 0 0-2-2.8242v-7.1758h-2z" fill="#363636"/>
</svg>
