<svg width="24" height="24" viewBox="0 0 24 24" xmlns="http://www.w3.org/2000/svg">
<defs>
<style id="current-color-scheme" type="text/css">.ColorScheme-Text { color:#5c616c; } .ColorScheme-Highlight { color:#5294e2; }</style>
</defs>
<path class="ColorScheme-Text" d="m0.96289-0.0039062a0.49999 0.49998 0 0 0-0.37695 0.78125c1.3179 1.9764 1.8562 5.5166 2.2188 9.2207h-1.8066v1.9922h-0.49609-0.5v0.5 0.5h0.99609v2.0059h2.252c0.2106 2.3041 0.47257 4.4318 1.0098 6.0508 0.2912 0.8777 0.66197 1.617 1.1973 2.1523 0.5352 0.5354 1.2611 0.8372 2.0762 0.7832 2.0528-0.1368 3.4511-1.3902 4.3359-3.0684 0.8848-1.6782 1.3372-3.7968 1.6836-5.9062 0-0.001999-7e-4 -0.011718 0-0.011718h1.4395v-2.0059h3v2.0059h2.4453c0.2282 1.5082 0.45349 3.0223 0.74609 4.3887 0.4132 1.9285 0.92442 3.5719 1.9824 4.4785a0.49977 0.49975 0 0 0 0.83008-0.36328h0.001953a0.49977 0.49975 0 0 0-0.17969-0.39648c-0.6913-0.5923-1.2555-2.066-1.6543-3.9277-0.2728-1.2735-0.49129-2.7204-0.71289-4.1797h1.541v-2.0059h0.5 0.5v-1h-0.5-0.5v-1.9922h-2.459c-0.2451-0.951-0.54313-1.8189-0.92773-2.5469-0.3806-0.7203-0.85533-1.3175-1.4863-1.6836-0.6309-0.366-1.4068-0.46701-2.2441-0.25781-0.6589 0.1647-1.1565 0.6451-1.5137 1.25-0.3573 0.6048-0.60525 1.3539-0.81055 2.2031-0.079 0.3271-0.14684 0.68076-0.21484 1.0352h-3.3398v1.9922h-4v-1.9922h-2.1641c-0.3374-3.759-0.86246-7.4487-2.4141-9.7754a0.49999 0.49998 0 0 0-0.45508-0.22656zm15.598 6.4082c0.41593-0.03502 0.74884 0.051066 1.0547 0.22852 0.4078 0.2366 0.77812 0.66926 1.1035 1.2852 0.2972 0.5625 0.54467 1.2813 0.76367 2.0801h-1.4902v1.9922h-3v-1.9922h-0.63867c0.0538-0.2714 0.10602-0.55218 0.16602-0.80078 0.1929-0.798 0.42592-1.4669 0.69922-1.9297 0.2733-0.4627 0.55588-0.70211 0.89648-0.78711 0.15935-0.039825 0.30667-0.064498 0.44531-0.076172zm-10.566 6.5859h4v2.0059h2.543c-0.338 2.0224-0.78553 3.9961-1.5527 5.4512-0.7863 1.4914-1.824 2.4241-3.5195 2.5371-0.5563 0.0371-0.93573-0.12303-1.3027-0.49023-0.367-0.3671-0.69433-0.97022-0.95703-1.7617-0.478-1.4405-0.74207-3.488-0.95117-5.7363h1.7402v-2.0059z" fill="#363636"/>
</svg>
