<svg xmlns="http://www.w3.org/2000/svg" width="16" height="16" version="1.1" viewBox="0 0 4.2333 4.2333">
<g>
<path transform="matrix(0.26458 0 0 0.26458 0 0)" d="m3 3c-1.108 0-2 0.89199-2 2v7c0 1.108 0.89199 2 2 2h10c1.108 0 2-0.89199 2-2v-7c0-1.108-0.89199-2-2-2zm11 9c0 0.554-0.44601 1-1 1h-10c-0.55399 0-1-0.446-1-1v-7c0-0.554 0.446-1 1-1h10c0.554 0 1 0.446 1 1z" fill="#363636" />
<g>
<path d="m1.4552 2.25 0.39688-0.52917 0.39688 0.52917" fill="none" stroke="#000" stroke-width=".3" />
<path d="m1.7198 2.25v0.52917h0.26458v-0.52917z" color="#000000" style="-inkscape-stroke:none" />
</g>
</g>
</svg>
