<svg xmlns="http://www.w3.org/2000/svg" width="16" height="16" version="1.1">
<g fill="#000007" fill-opacity=".56471">
<path transform="translate(0 0)" d="m8 1a7 7 0 0 0-7 7 7 7 0 0 0 7 7 7 7 0 0 0 7-7 7 7 0 0 0-7-7zm-0.03125 1.0039a5.9643 5.9643 0 0 1 5.9648 5.9648 5.9643 5.9643 0 0 1-5.9648 5.9648 5.9643 5.9643 0 0 1-5.9648-5.9648 5.9643 5.9643 0 0 1 5.9648-5.9648z" />
<path d="m7.25 4c0-1 1.5-1 1.5 0v4h-1.5z" />
<path d="m5 9.5c-1 0-1-1.5 0-1.5h3.75v1c0 0.23828-0.25 0.5-0.5 0.5z" />
</g>
</svg>
