<svg width="16" height="16" viewBox="0 0 16 16" xmlns="http://www.w3.org/2000/svg">
<defs>
<style id="current-color-scheme" type="text/css">.ColorScheme-Text { color:#5c616c; } .ColorScheme-Highlight { color:#5294e2; }</style>
</defs>
<path class="ColorScheme-Text" d="m8 0a1 1 0 0 0-1 1 1 1 0 0 0 1 1 1 1 0 0 0 1-1 1 1 0 0 0-1-1zm0 2h-5.5996c-0.7756 0-1.4004 0.89411-1.4004 1.6328v6.668c0 0.738 0.62479 1.6992 1.4004 1.6992h4.1992v1h-2.7988v2h8.3984v-2h-2.7988v-1h4.1992c0.775 0 1.4004-0.96122 1.4004-1.6992v-6.668c0-0.7387-0.62539-1.6328-1.4004-1.6328h-5.5996zm-4.5 2h9c0.831 0 1.5 0.446 1.5 1s-0.669 1-1.5 1h-9c-0.831 0-1.5-0.446-1.5-1s0.669-1 1.5-1z" fill="currentColor"/>
</svg>
