<svg width="16" height="16" viewBox="0 0 16 16" xmlns="http://www.w3.org/2000/svg">
<defs>
<style id="current-color-scheme" type="text/css">.ColorScheme-Text { color:#5c616c; } .ColorScheme-Highlight { color:#5294e2; }</style>
</defs>
<path class="ColorScheme-Highlight" d="m14.002 1.9961c-6.6168 0-11.983 5.3559-12 11.969v0.0625c0 0.54176 0.43472 0.96875 0.96875 0.96875h3.0312c0.55401 0 1-0.44599 1-1v-2c0-0.55401-0.44599-1-1-1h-0.46875c0.9039-2.5569 2.9118-4.5649 5.4687-5.4688v0.46875c0 0.554 0.446 1 1 1h2c0.554 0 1-0.446 1-1v-3c0-0.554-0.42392-1-0.96875-1h-0.03125z" fill="#363636"/>
</svg>
