<svg width="16" height="16" viewBox="0 0 16 16" xmlns="http://www.w3.org/2000/svg">
<defs>
<style id="current-color-scheme" type="text/css">.ColorScheme-Text { color:#5c616c; } .ColorScheme-Highlight { color:#5294e2; }</style>
</defs>
<path class="ColorScheme-Text" d="m3 1.0039a2 2 0 0 0-2 2 2 2 0 0 0 2 2 2 2 0 0 0 1-0.26953v2.2695h-3v7h3v1h11v-4h-11v1h-1v-3h1v1h11v-6h-10.271a2 2 0 0 0 0.27148-1 2 2 0 0 0-2-2zm0 1a0.99998 0.99998 0 0 1 1 1 0.99998 0.99998 0 0 1-1 1 0.99998 0.99998 0 0 1-1-1 0.99998 0.99998 0 0 1 1-1z" fill="#363636"/>
</svg>
