<svg width="16" height="16" viewBox="0 0 16 16" xmlns="http://www.w3.org/2000/svg">
<defs>
<style id="current-color-scheme" type="text/css">.ColorScheme-Text { color:#5c616c; } .ColorScheme-Highlight { color:#5294e2; }</style>
</defs>
<path class="ColorScheme-Text" d="m7 1v1.0898a6 6 0 0 0-4.9141 4.9102h-1.0859v2h1.0898a6 6 0 0 0 4.9102 4.9141v1.0859h2v-1.0898a6 6 0 0 0 4.9141-4.9102h1.0859v-2h-1.0898a6 6 0 0 0-4.9102-4.9141v-1.0859h-2zm0 3.1309v2.8691h-2.8672a4 4 0 0 1 2.8672-2.8691zm2 0.0019531a4 4 0 0 1 2.8691 2.8672h-2.8691v-2.8672zm-4.8691 4.8672h2.8691v2.8672a4 4 0 0 1-2.8691-2.8672zm4.8691 0h2.8672a4 4 0 0 1-2.8672 2.8691v-2.8691z" fill="currentColor"/>
</svg>
