<svg width="16" height="16" viewBox="0 0 16 16" xmlns="http://www.w3.org/2000/svg">
<defs>
<style id="current-color-scheme" type="text/css">.ColorScheme-Text { color:#5c616c; } .ColorScheme-Highlight { color:#5294e2; }</style>
</defs>
<path class="ColorScheme-Text" d="m14.996 1.0059c-0.18361-0.21656-6.636 5.2432-8.4648 7.502-0.26634 0.33015-0.33257 0.56837-0.68164 1.1895 0.2257 0.17733 0.65854 0.58576 0.95898 1.291 0.60017-0.38818 0.88135-0.4465 1.1992-0.74805 2.077-1.9695 7.1632-9.0301 6.9883-9.2344zm-10.082 9.2109c-0.78288 0.024446-1.5307 0.69133-2.0508 2.0957-0.59509 1.605-1.6572 2.2482-1.8633 2.209 1.1089 0.45192 4.4916 1.6061 5.332-2.793-0.35705-1.055-1.082-1.4844-1.082-1.4844-0.11276-0.022474-0.2241-0.030836-0.33594-0.027344z" fill="#363636"/>
</svg>
