<svg width="16" height="16" viewBox="0 0 16 16" xmlns="http://www.w3.org/2000/svg">
<defs>
<style id="current-color-scheme" type="text/css">.ColorScheme-Text { color:#5c616c; } .ColorScheme-Highlight { color:#5294e2; }</style>
</defs>
<path class="ColorScheme-Text" d="m1 2v12h2v-12h-2zm4 1v2h5.9961c0.42786 0 0.99805 0.61414 0.99805 1v1h-4.9961c-0.91862 0-1.734 0.38396-2.248 0.96875-0.51404 0.58479-0.75639 1.3106-0.75 2.0312 6e-3 0.72062 0.26929 1.4528 0.78125 2.0312 0.51196 0.57854 1.3091 0.96875 2.2168 0.96875h6.9961v-0.84375c0.0156-0.09375 0-0.15625 0-0.15625v-6c0-1.6343-1.319-3-2.998-3h-5.9961zm1.998 6h4.9961v2h-4.9961c-0.39759 0-0.56507-0.10979-0.7168-0.28125s-0.27877-0.43937-0.28125-0.71875c-2e-3 -0.27938 0.10478-0.55354 0.25-0.71875 0.14523-0.16521 0.32599-0.28125 0.74805-0.28125z" fill="#363636"/>
</svg>
