<svg width="16" height="16" viewBox="0 0 16 16" xmlns="http://www.w3.org/2000/svg">
<defs>
<style id="current-color-scheme" type="text/css">.ColorScheme-Text { color:#5c616c; } .ColorScheme-Highlight { color:#5294e2; }</style>
</defs>
<path class="ColorScheme-Text" d="m7.4922-0.0039062 0.0078125 0.0039062a1.5 1.5 0 0 0-1.5 1.5 1.5 1.5 0 0 0 0.11328 0.57031l-3.8926 3.1152a1.5 1.5 0 0 0-0.7207-0.18555 1.5 1.5 0 0 0-1.5 1.5 1.5 1.5 0 0 0 1 1.4121v5.1758a1.5 1.5 0 0 0-1 1.4121 1.5 1.5 0 0 0 1.5 1.5 1.5 1.5 0 0 0 1.4121-1h4.1758a1.5 1.5 0 0 0 1.4121 1 1.5 1.5 0 0 0 1.5-1.5 1.5 1.5 0 0 0-0.18555-0.7168l3.1172-3.8965a1.5 1.5 0 0 0 0.56836 0.11328 1.5 1.5 0 0 0 1.5-1.5 1.5 1.5 0 0 0-1.5-1.5 1.5 1.5 0 0 0-0.58398 0.11914l-4.0938-4.9121a1.5 1.5 0 0 0 0.16992-0.71094 1.5 1.5 0 0 0-1.5-1.5zm-0.71094 2.8203a1.5 1.5 0 0 0 0.71875 0.18359 1.5 1.5 0 0 0 0.58203-0.11914l4.0957 4.9141a1.5 1.5 0 0 0-0.17969 0.71094 1.5 1.5 0 0 0 0.18555 0.71875l-3.1152 3.8945a1.5 1.5 0 0 0-0.57031-0.11133 1.5 1.5 0 0 0-1.4121 1h-4.1758a1.5 1.5 0 0 0-0.91016-0.91016v-5.1758a1.5 1.5 0 0 0 1-1.4121 1.5 1.5 0 0 0-0.11328-0.56836l3.8945-3.1152v-0.0097657z" fill="currentColor"/>
</svg>
