<svg width="16" height="16" viewBox="0 0 16 16" xmlns="http://www.w3.org/2000/svg">
<defs>
<style id="current-color-scheme" type="text/css">.ColorScheme-Text { color:#5c616c; } .ColorScheme-Highlight { color:#5294e2; }</style>
</defs>
<path class="ColorScheme-Text" d="m2.8301 0c-3.4671 3.2319-3.8554 8.8658-0.56445 12.398 2.9816 3.2007 8.157 3.5517 11.389 0.47461 2.901-2.7622 3.2097-7.5357 0.37695-10.5-2.5145-2.6308-6.835-2.9023-9.5-0.2832-2.333 2.2929-2.5603 6.2108-0.17969 8.6035 2.0481 2.0585 5.5187 2.2439 7.6133 0.074219 1.7616-1.8248 1.9064-4.891-0.035156-6.707-1.5836-1.4812-4.2177-1.58-5.7324 0.16211-1.1829 1.3605-1.2373 3.602 0.30469 4.8223 0.5642 0.44649 1.2572 0.65383 1.9629 0.60352 0.70562-0.050305 1.4622-0.41375 1.9063-1.1133 0.29688-0.46774 0.40081-0.9852 0.31055-1.5391-0.0902-0.55386-0.51161-1.2108-1.1934-1.4297-0.58215-0.18689-0.90947-0.15684-1.2754 0.046875-0.27208 0.15147-0.50487 0.41785-0.56055 0.83984-0.0442 0.33539 0.039591 0.67492 0.087891 1.0098-0.54983-0.43512-0.52415-1.3579-0.037109-1.918 0.71104-0.8178 2.0577-0.76515 2.8633-0.011719 1.065 0.99607 0.98051 2.7817-0.037109 3.8359-1.2714 1.3171-3.4745 1.1981-4.7637-0.097656-1.5523-1.5602-1.3988-4.2082 0.16406-5.7441 1.833-1.8015 4.8944-1.6093 6.6602 0.23828 2.0308 2.1248 1.8039 5.6332-0.31055 7.6465-2.3948 2.2802-6.3153 2.0153-8.5547-0.38867-2.5055-2.6895-2.2026-7.0625 0.4668-9.5508l-1.3613-1.4727z" fill="#363636"/>
</svg>
