<svg width="16" height="16" viewBox="0 0 16 16" xmlns="http://www.w3.org/2000/svg">
<defs>
<style id="current-color-scheme" type="text/css">.ColorScheme-Text { color:#5c616c; } .ColorScheme-Highlight { color:#5294e2; }</style>
</defs>
<path class="ColorScheme-Text" d="m1 1v14h14v-14h-14zm2 2h2v2h-2v-2zm3 0h1.2812l-1.2812 1.2812v-1.2812zm2.7188 0h1.2812v1.2812l-4 4v-2.5625l2.7188-2.7188zm2.2812 0h2v2h-2v-2zm-1 2.7188v2.5625l-4 4v-2.5625l4-4zm-7 1.2812h2v2h-2v-2zm8 0h2v2h-2v-2zm-1 2.7188v3.2812h-3.2812l3.2812-3.2812zm-7 1.2812h2v2h-2v-2zm8 0h2v2h-2v-2z" fill="#363636"/>
</svg>
