<svg width="16" height="16" viewBox="0 0 16 16" xmlns="http://www.w3.org/2000/svg">
<defs>
<style id="current-color-scheme" type="text/css">.ColorScheme-Text { color:#5c616c; } .ColorScheme-Highlight { color:#5294e2; }</style>
</defs>
<path class="ColorScheme-Text" d="m0 0v7h8v-7h-8zm9 1.0781v3.9219h1v-2.6445c2.393 0.84605 3.9948 3.1064 4 5.6445h1c-3e-3 -3.4773-2.5584-6.4251-6-6.9219zm-8 6.9219c3e-3 3.4773 2.5584 6.4251 6 6.9219v-3.9219h-1v2.6445c-2.393-0.84605-3.9948-3.1064-4-5.6445h-1zm11.5 1a3.5 3.5 0 0 0-3.5 3.5 3.5 3.5 0 0 0 0.69922 2.0938l0.7168-0.7168a2.5 2.5 0 0 1-0.41992-1.3691 2.5 2.5 0 0 1 2.5-2.5 2.5 2.5 0 0 1 1.377 0.41602l0.7168-0.7168a3.5 3.5 0 0 0-2.0996-0.70117l0.009766-0.0058594zm2.8047 1.3984-0.003907 0.007812-0.7168 0.7168a2.5 2.5 0 0 1 0.41992 1.3691 2.5 2.5 0 0 1-2.5 2.5 2.5 2.5 0 0 1-1.377-0.41602l-0.7168 0.7168a3.5 3.5 0 0 0 2.0938 0.69922 3.5 3.5 0 0 0 3.5-3.5 3.5 3.5 0 0 0-0.69922-2.0938z" fill="#363636"/>
</svg>
