<svg width="16" height="16" version="1.1" xmlns="http://www.w3.org/2000/svg">
<defs>
<style id="current-color-scheme" type="text/css">.ColorScheme-Text { color:#5c616c; } .ColorScheme-Highlight { color:#5294e2; }</style>
</defs>
<path class="ColorScheme-Text" d="m1.6035 1.0059c-0.20089 0.042595-0.60352 0.22675-0.60352 0.9082v8.1777s5.58e-4 0.9082 0.71484 0.9082h8.5703s0.71484 4.07e-4 0.71484-0.9082v-6.1602c0-0.90861-0.71484-0.93164-0.71484-0.93164h-3.2852l-2-1.9941h-3.2852s-0.044364-0.014175-0.11133 0zm10.396 5.9941v4.0918c0 0.90861-0.71484 0.9082-0.71484 0.9082h-6.2852v2.0918s5.58e-4 0.9082 0.71484 0.9082h8.5703s0.71484 4.07e-4 0.71484-0.9082v-6.1602c0-0.90861-0.71484-0.93164-0.71484-0.93164h-2.2852z" fill="#363636"/>
</svg>
