<svg width="16" height="16" viewBox="0 0 16 16" xmlns="http://www.w3.org/2000/svg">
<defs>
<style id="current-color-scheme" type="text/css">.ColorScheme-Text { color:#5c616c; } .ColorScheme-Highlight { color:#5294e2; }</style>
</defs>
<path class="ColorScheme-Text" d="m4.5 2-2.5 3h5l-2.5-3zm4.5 3v9h1v-0.76953a3 3 0 0 0 2 0.76953 3 3 0 0 0 3-3 3 3 0 0 0-3-3 3 3 0 0 0-2 0.76758v-3.7676h-1zm-5.1133 1-2.8867 8h1.166l0.99414-2.2852h2.7793l0.89453 2.2852h1.166l-2.6445-8h-1.4688zm0.73438 1.2402 1.0938 3.332h-2.3027l1.209-3.332zm7.3789 1.7598a2 2 0 0 1 2 2 2 2 0 0 1-2 2 2 2 0 0 1-2-2 2 2 0 0 1 2-2z" fill="#363636"/>
</svg>
