<svg version="1.1" viewBox="0 0 16 16" xmlns="http://www.w3.org/2000/svg">
<defs>
<style id="current-color-scheme" type="text/css">.ColorScheme-Text {
        color:#bebebe;
      }</style>
</defs>
<path class="ColorScheme-Text" d="m6.8 2v1.6h4.8c0.34253 0 0.8 0.49131 0.8 0.8v0.8h-4c-0.73542 0-1.3885 0.30717-1.8 0.775s-0.60511 1.0485-0.6 1.625c0.0048 0.5765 0.21514 1.1622 0.625 1.625 0.40986 0.46283 1.0484 0.775 1.775 0.775h5.6v-5.6c7.2e-5 -1.3074-1.0558-2.4-2.4-2.4h-4.8zm1.6 4.8h4v1.6h-4c-0.3183 0-0.45353-0.087832-0.575-0.225s-0.22302-0.3515-0.225-0.575c-0.0016-0.2235 0.083736-0.44283 0.2-0.575s0.26211-0.225 0.6-0.225zm-3.2 2.4-3.2 2.4 3.2 2.4v-1.6109h8.75v-1.6h-8.75v-1.5891z" color="#bebebe" fill="currentColor"/>
</svg>
