<svg xmlns="http://www.w3.org/2000/svg" viewBox="0 0 16 16">
<defs>
<style id="current-color-scheme" type="text/css">.ColorScheme-Text {
        color:#363636;
      }
      .ColorScheme-ViewBackground {
        color:#fcfcfc;
      }</style>
</defs>
<g fill="#363636">
<path class="ColorScheme-ViewBackground" d="m-419.71 -530.79v1 5h1v-5h5v5h1v-5h5v5h1v-5-1h-1-5-1-5-1zm0 7v5 1h1 5 1 5 1v-1-5h-1v5h-5v-5h-1v5h-5v-5h-1z" />
<path class="ColorScheme-Text" d="m2 7h13v1h-13z" />
<path class="ColorScheme-Text" d="m14 2v5h-5v-5h5zm-6 0v5h-5v-5h5zm6 6v5h-5v-5h5zm-6 0v5h-5v-5h5z" fill-opacity=".5" />
</g>
</svg>
