<svg width="16" height="16" viewBox="0 0 16 16" xmlns="http://www.w3.org/2000/svg">
<defs>
<style id="current-color-scheme" type="text/css">.ColorScheme-Text { color:#5c616c; } .ColorScheme-Highlight { color:#5294e2; }</style>
</defs>
<path class="ColorScheme-Text" d="m8.7793 1c-0.49361 0-1.0271 0.062924-1.6035 0.18359-0.56518 0.12304-1.1076 0.39815-1.623 0.82617-0.38684 0.34639-0.67293 0.73801-0.86523 1.1777-0.19231 0.42803-0.29102 0.85909-0.29102 1.2871 0 0.35513 0.066199 0.70929 0.19922 1.0645 0.1308 0.34406 0.32294 0.64876 0.57617 0.91992 0.25324 0.26883 0.56602 0.4893 0.93945 0.66016 0.37118 0.15919 0.79913 0.24023 1.2793 0.24023h0.28906c0.0961-0.014 0.19291-0.027362 0.28906-0.039062-0.0481 0.10905-0.090113 0.22065-0.12695 0.33203-0.0352 0.098-0.052734 0.22557-0.052734 0.38477 0 0.28282 0.053129 0.51891 0.16211 0.71484 0.12019 0.18427 0.24614 0.36234 0.37695 0.5332-0.20293 0.014-0.44343 0.031988-0.7207 0.054688-0.27728 0.0251-0.57005 0.069619-0.88477 0.13086-0.3125 0.0612-0.63002 0.14031-0.95312 0.23828-0.3125 0.10963-0.60751 0.25102-0.88477 0.42187-0.52884 0.31898-0.88944 0.68658-1.084 1.1035-0.20293 0.42802-0.30469 0.80865-0.30469 1.1387 0 0.34172 0.077562 0.66768 0.23242 0.97266 0.15708 0.31898 0.3973 0.6 0.72266 0.84375 0.3231 0.24725 0.72875 0.44406 1.209 0.58984 0.49306 0.14812 1.0622 0.2207 1.7129 0.2207 0.76864 0 1.4493-0.10549 2.0391-0.3125 0.60094-0.19535 1.1005-0.46096 1.498-0.79102 0.39523-0.31898 0.69523-0.68462 0.90039-1.1016 0.20292-0.41461 0.30664-0.8376 0.30664-1.2656 0-0.31897-0.041994-0.59962-0.12695-0.8457-0.0827-0.24376-0.19952-0.46423-0.34375-0.66016-0.13081-0.19594-0.29402-0.38188-0.48633-0.55273-0.17888-0.17086-0.36628-0.34281-0.55859-0.51367l-0.64844-0.51562c-0.0961-0.0845-0.19958-0.18159-0.30859-0.29297-0.10677-0.12071-0.16211-0.28712-0.16211-0.49414 0-0.20993 0.055319-0.3815 0.16211-0.51562 0.10901-0.13413 0.22356-0.26406 0.34375-0.38477 0.1923-0.14812 0.37971-0.30175 0.55859-0.46094 0.18112-0.17086 0.3421-0.35485 0.48633-0.55078 0.14423-0.20702 0.26102-0.4401 0.34375-0.69727 0.0855-0.25716 0.12695-0.55672 0.12695-0.89844 0-0.34406-0.048311-0.65072-0.14453-0.92188-0.0962-0.26883-0.2107-0.49937-0.34375-0.69531-0.1308-0.2076-0.26984-0.3815-0.41406-0.51562-0.14422-0.14579-0.27213-0.26136-0.37891-0.34766v-0.0058594h1.1191l1.1543-0.66016h-3.7168zm-1.1348 0.60742h0.0019532c0.3712 0 0.69539 0.11557 0.97266 0.34766 0.28845 0.22101 0.5284 0.50165 0.7207 0.8457 0.19175 0.34172 0.33549 0.70969 0.43164 1.1016 0.0962 0.39128 0.14453 0.75197 0.14453 1.082 0 0.17261-0.024166 0.38737-0.072266 0.64453-0.048 0.25717-0.17598 0.49025-0.37891 0.69727-0.14423 0.14812-0.33163 0.26922-0.55859 0.36719-0.21475 0.0975-0.43602 0.14796-0.66406 0.14844h-0.0039063c-0.38321-5.9e-4 -0.71824-0.11204-1.0059-0.33008-0.27727-0.23209-0.51082-0.51564-0.70312-0.8457-0.18112-0.33006-0.31987-0.68626-0.41602-1.0664-0.0855-0.38079-0.12695-0.72239-0.12695-1.0273 0-0.24551 0.024266-0.48471 0.072266-0.7168 0.0587-0.23267 0.16742-0.44665 0.32227-0.64258 0.14423-0.18486 0.33135-0.33003 0.56055-0.44141 0.22697-0.10905 0.46274-0.16406 0.70312-0.16406zm0.63477 8.1895h0.4668c0.061 0 0.12516 0.0083313 0.19727 0.019531 0.33653 0.24608 0.63154 0.46422 0.88477 0.66016 0.25324 0.19593 0.45815 0.38779 0.61523 0.57031 0.15486 0.18428 0.26969 0.36826 0.3418 0.55078 0.0833 0.19594 0.12695 0.41049 0.12695 0.64258h0.001953c0 0.57614-0.22939 1.0473-0.68555 1.4141-0.44553 0.38079-1.1017 0.57031-1.9688 0.57031-0.97381 0-1.7499-0.20805-2.3262-0.625-0.56573-0.41694-0.84766-0.95449-0.84766-1.6152 0-0.33239 0.059518-0.60516 0.17969-0.82617 0.1336-0.22101 0.2829-0.40499 0.45117-0.55078 0.16771-0.14812 0.33759-0.26506 0.50586-0.34961 0.18111-0.075199 0.3179-0.12928 0.41406-0.16602 0.19173-0.0612 0.39054-0.11624 0.5957-0.16406 0.20293-0.0385 0.39505-0.06865 0.57617-0.09375 0.18113-0.0117 0.33765-0.025409 0.4707-0.037109z" fill="#363636"/>
</svg>
