<svg width="16" height="16" viewBox="0 0 16 16" xmlns="http://www.w3.org/2000/svg">
<defs>
<style id="current-color-scheme" type="text/css">.ColorScheme-Text { color:#5c616c; } .ColorScheme-Highlight { color:#5294e2; }</style>
</defs>
<path class="ColorScheme-Text" d="m7 0.039062c-3.324 0-6 2.676-6 6v4l-1 4 4-2h3c0.8186 0 1.597-0.16498 2.3066-0.45898-0.1289-0.31-0.20445-0.64428-0.25195-0.98828-0.6277 0.282-1.3193 0.44726-2.0547 0.44726h-5v-5c0-2.77 2.23-5 5-5s5 2.23 5 5c0 0.048-0.006812 0.093025-0.007812 0.14062 0.324-0.084 0.65781-0.14062 1.0078-0.14062 0-3.324-2.676-6-6-6zm6 7c-1.662 0-3 1.338-3 3 0 0.978 0.47141 1.8358 1.1914 2.3828l1.8086 3.6172 1.8086-3.6172c0.72-0.547 1.1914-1.4048 1.1914-2.3828 0-1.662-1.338-3-3-3z" fill="#363636"/>
</svg>
