<svg version="1.1" viewBox="0 0 16 16" xmlns="http://www.w3.org/2000/svg">
<defs>
<style id="current-color-scheme" type="text/css">.ColorScheme-Text {
        color:#363636;
      }</style>
</defs>
<path class="ColorScheme-Text" d="m2 2v1.7143h1.7143 1.7143v1.7143h1.7143v-1.7143-1.7143h-1.7143-1.7143-1.7143zm5.1429 3.4286v1.7143h1.7143 1.7143v-1.7143h-1.7143-1.7143zm3.4286 0h1.7143v-1.7143h-1.7143v1.7143zm0-1.7143v-1.7143h-1.7143v1.7143h1.7143zm-3.4286 3.4286h-1.7143v1.7143h1.7143v-1.7143zm-1.7143 1.7143h-1.7143v1.7143h1.7143v-1.7143zm-1.7143 0v-1.7143h-1.7143v1.7143h1.7143zm0-1.7143h1.7143v-1.7143h-1.7143v1.7143zm6.8571 1.7143v1.7143h1.7143v-1.7143h-1.7143zm1.7143 1.7143v1.7143 1.7143h1.7143v-1.7143-1.7143h-1.7143zm-5.1429 0v1.7143h1.7143v-1.7143h-1.7143zm1.7143 1.7143v1.7143h1.7143v-1.7143h-1.7143zm-5.1429 0v1.7143h1.7143v-1.7143h-1.7143z" color="#363636" fill="#363636"/>
</svg>
