<svg width="16" height="16" viewBox="0 0 16 16" xmlns="http://www.w3.org/2000/svg">
<defs>
<style id="current-color-scheme" type="text/css">.ColorScheme-Text { color:#5c616c; } .ColorScheme-Highlight { color:#5294e2; }</style>
</defs>
<path class="ColorScheme-Text" d="m8 1.9805c-0.91677 9.999e-4 -1.8102 0.29301-2.3555 0.96875-0.54527 0.67574-0.69905 1.5035-0.76758 2.4629-0.0338 0.47264-0.043662 0.99442-0.039062 1.5684h-0.83789c-0.554 0-1 0.446-1 1 0 0.554 0.446 1 1 1h0.88867c0.0477 1.3981 0.11128 3.0426 0.11133 5a1.0001 1.0001 0 1 0 2 0c-5e-5 -1.9617-0.056292-3.6195-0.10156-5h1.1016c0.554 0 1-0.446 1-1 0-0.554-0.446-1-1-1h-1.1543c-7e-3 -0.5528-9.562e-4 -1.028 0.027344-1.4258 0.0565-0.79061 0.2171-1.212 0.32812-1.3496s0.21745-0.22395 0.80078-0.22461a1.0001 1.0001 0 1 0-0.0019531-2zm0.70703 8.7578-0.70703 0.70703 1.4141 1.4141-1.4141 1.4141 0.70703 0.70703 1.4141-1.4141 1.4141 1.4141 0.70703-0.70703-1.4141-1.4141 1.4141-1.4141-0.70703-0.70703-1.4141 1.4141-1.4141-1.4141z" fill="currentColor"/>
</svg>
