<svg width="16" height="16" viewBox="0 0 16 16" xmlns="http://www.w3.org/2000/svg">
<defs>
<style id="current-color-scheme" type="text/css">.ColorScheme-Text { color:#5c616c; } .ColorScheme-Highlight { color:#5294e2; }</style>
</defs>
<path class="ColorScheme-Text" d="m8-0.095703v0.095703a7 6 0 0 0-0.91992 0.058594 7 6 0 0 0-0.16211 0.017578h-0.0039063a7 6 0 0 0-5.9141 5.9004v8a7 2 0 0 0 7 2 7 2 0 0 0 7-2v-8a7 6 0 0 0-4.3145-5.5352h-0.001953a7 6 0 0 0-0.052735-0.017578 7 6 0 0 0-0.39062-0.11914 7 6 0 0 0-0.28125-0.080078 7 6 0 0 0-0.38086-0.082031 7 6 0 0 0-0.30273-0.058594 7 6 0 0 0-0.37109-0.044922 7 6 0 0 0-0.32812-0.035156 7 6 0 0 0-0.57617-0.099609zm2.1152 1.4219a6 5 0 0 1 3.8848 4.6992 6 2 0 0 1-6 2 6 2 0 0 1-6-2 6 5 0 0 1 3.752-4.6328c-1.0237 1.4859-1.5613 3.4269-1.7109 5.1328a6 2 0 0 0 3.959 0.5c0.29858-2.4953 1.1928-4.2446 2.1152-5.6738v-0.025391zm-8.1152 6.1992a7 3 0 0 0 6 1.4629 7 3 0 0 0 6-1.4609v6.4609a6 1 0 0 1-6 1 6 1 0 0 1-6-1v-6.4629z" fill="currentColor"/>
</svg>
