<svg width="16" height="16" viewBox="0 0 16 16" xmlns="http://www.w3.org/2000/svg">
<defs>
<style id="current-color-scheme" type="text/css">.ColorScheme-Text { color:#5c616c; } .ColorScheme-Highlight { color:#5294e2; }</style>
</defs>
<path class="ColorScheme-Text" d="m4.0293 0-0.70312 1.8086c-1.1429-0.3439-2.2591-0.80367-3.3262-1.3848v1.3887c0.9327 0.465 1.8919 0.8576 2.875 1.1582l-1.4941 3.8457c-0.4693-0.214-0.92776-0.4589-1.3809-0.7168v1.4082c0.30873 0.15908 0.61679 0.32102 0.93164 0.46289l-0.93164 2.3984v3.418l0.054688-0.14062c2.3068 1.1254 4.7957 1.7446 7.3066 1.8672l0.0019531 0.48633h1.2363v-0.46484c2.53-0.041 5.0514-0.58753 7.4004-1.6445v-3.7031l-0.68945-1.7812c0.234-0.089 0.45745-0.20473 0.68945-0.30273v-1.3457c-0.377 0.173-0.75362 0.34619-1.1406 0.49219l-1.5957-4.1074c0.93-0.2496 1.8453-0.57224 2.7363-0.96484v-1.373c-1.03 0.4952-2.0945 0.89373-3.1855 1.1777l-0.77148-1.9824h-1.3379l0.87891 2.2559c-0.994 0.1837-1.9998 0.28012-3.0078 0.29102l-0.0058594-2.5469h-1.248l0.0078125 2.5176c-0.9368-0.0564-1.8712-0.18247-2.791-0.38867l0.82812-2.1289h-1.3379zm0.054688 3.2949c1.0695 0.25028 2.1564 0.40027 3.248 0.46094l0.011719 4.5859c-1.6363-0.122-3.2582-0.47078-4.8145-1.0508l1.5547-3.9961zm7.957 0.13477 1.6426 4.2188c-1.6607 0.49689-3.3784 0.74864-5.0977 0.74219l-0.0078125-4.6055c1.161-0.012105 2.3199-0.12949 3.4629-0.35547zm-9.9609 5.0156c1.7021 0.63417 3.477 1.0115 5.2676 1.1348l0.011719 4.6953c-2.3574-0.124-4.6888-0.72488-6.8496-1.7969l1.5703-4.0332zm12.055 0.35938 1.5117 3.8789c-2.2333 1.0345-4.637 1.5731-7.0508 1.6152l-0.0078125-4.6719c1.8714 0.0056 3.7416-0.27224 5.5469-0.82227z" fill="#363636"/>
</svg>
