<svg width="16" height="16" viewBox="0 0 16 16" xmlns="http://www.w3.org/2000/svg">
<defs>
<style id="current-color-scheme" type="text/css">.ColorScheme-Text { color:#5c616c; } .ColorScheme-Highlight { color:#5294e2; }</style>
</defs>
<path class="ColorScheme-Text" d="m8.7793 1.998c-0.051556-0.0055494-0.10281 0.0098601-0.14258 0.044922-0.039765 0.03509-0.063392 0.085636-0.068359 0.14062l-0.22656 2.4863c-0.010353 0.11441 0.069035 0.21744 0.17578 0.22852 0.61836 0.06421 1.2136 0.24299 1.7715 0.53125 0.026537 0.013733 0.056997 0.019531 0.085938 0.019531 0.021595 0 0.041689-0.0039553 0.0625-0.011719 0.048602-0.01819 0.088975-0.055749 0.11133-0.10547l1.0117-2.25c0.046615-0.10353 0.006784-0.22746-0.089844-0.27734-0.84733-0.43778-1.7534-0.70916-2.6914-0.80664zm-1.8633 0.037109c-0.93355 0.13573-1.8282 0.4449-2.6602 0.91797-0.09472 0.053868-0.13027 0.17965-0.080078 0.28125l1.0918 2.207c0.034876 0.070488 0.10231 0.10938 0.17188 0.10938 0.030693 0 0.060876-0.0069576 0.089844-0.023437 0.54803-0.31158 1.1372-0.51411 1.752-0.60352 0.10625-0.015443 0.18042-0.12045 0.16602-0.23438l-0.3125-2.4766c-0.014405-0.1139-0.11276-0.19307-0.21875-0.17773zm5.9863 1.7969c-0.051216 0.0056895-0.098389 0.033347-0.13086 0.076172l-1.4707 1.9375c-0.032471 0.042853-0.046323 0.097439-0.041015 0.15234 0.005255 0.054905 0.030338 0.10576 0.070312 0.14062 0.48288 0.42094 0.88834 0.92256 1.207 1.4941 0.036393 0.065191 0.10188 0.10156 0.16797 0.10156 0.033909 0 0.06842-0.0092856 0.09961-0.029297l2-1.2812c0.044157-0.028335 0.075289-0.073394 0.08789-0.12695 0.012549-0.05356 0.004973-0.11078-0.021484-0.1582-0.48189-0.86421-1.0964-1.6254-1.8262-2.2617-0.039974-0.03481-0.091153-0.050443-0.14258-0.044922zm-10.041 0.20703c-0.051634-0.0035314-0.10196 0.014346-0.14062 0.050781-0.70686 0.66609-1.2938 1.4508-1.7441 2.334-0.02468 0.048459-0.030109 0.10721-0.015625 0.16016 0.014484 0.052971 0.046594 0.096589 0.091797 0.12305l2.0449 1.1992c0.029569 0.017349 0.062246 0.025391 0.09375 0.025391 0.06868 0 0.13465-0.040204 0.16992-0.10938 0.29768-0.58375 0.68671-1.1024 1.1543-1.543 0.038745-0.036379 0.061185-0.087449 0.064453-0.14258 0.0033203-0.055073-0.012888-0.11089-0.046875-0.15234l-1.5391-1.875c-0.033987-0.041452-0.081387-0.066753-0.13281-0.070312zm12.531 3.791-2.2246 0.74609c-0.10235 0.034361-0.15901 0.15205-0.12695 0.26172 0.15958 0.54613 0.24023 1.1164 0.24023 1.6953 0 0.08523-0.001833 0.17202-0.005859 0.26562-0.002406 0.055129 0.016062 0.10961 0.050781 0.15039 0.034693 0.040807 0.08334 0.065837 0.13477 0.068359l2.3281 0.11523c0.003085 1.41e-4 0.00478 0 0.007813 0 0.10311 0 0.1885-0.087671 0.19336-0.19922 0.005987-0.13887 0.009766-0.26987 0.009766-0.40039-5.2e-5 -0.87483-0.12309-1.7381-0.36523-2.5664-0.032105-0.10973-0.13994-0.17116-0.24219-0.13672zm-10.779 0.24023c-0.042239 0.0052621-0.082894 0.02534-0.11523 0.058594-0.064733 0.066452-0.079306 0.17116-0.037109 0.25586l1.7207 3.457c-0.0063268 0.066592-0.0097656 0.1353-0.0097656 0.20312 0 0.52153 0.18923 1.0102 0.5332 1.3789 0.344 0.36878 0.80062 0.57227 1.2871 0.57227s0.94509-0.20354 1.2891-0.57227c0.344-0.36875 0.5332-0.85738 0.5332-1.3789 0-0.52153-0.18923-1.0121-0.5332-1.3809-0.34351-0.36826-0.80138-0.57172-1.2871-0.57226h-0.0019531c-0.03284 4.4e-5 -0.06707 8.4e-5 -0.099609 0.001953l-3.1543-1.9941c-0.038602-0.024454-0.082761-0.034559-0.125-0.029297zm-4.0957 0.066406c-0.0497-0.014406-0.10376-0.0079353-0.14844 0.019531-0.04468 0.027466-0.076327 0.073674-0.089844 0.12695-0.18481 0.73066-0.2793 1.4874-0.2793 2.25 0 0.13052 0.0037264 0.26152 0.0097656 0.40039 0.0048366 0.11158 0.090195 0.19922 0.19336 0.19922 0.0030327 0 0.0067329 1.69e-4 0.0097656 0l2.3262-0.11523c0.051425-0.002522 0.10012-0.02758 0.13477-0.068359 0.034693-0.04078 0.053186-0.095262 0.050781-0.15039-0.0040523-0.093638-0.0058594-0.18042-0.0058594-0.26562 0-0.50505 0.061658-1.0045 0.18359-1.4863 0.028-0.11093-0.033241-0.22573-0.13672-0.25586l-2.248-0.6543z" fill="#363636"/>
</svg>
