<svg width="16" height="16" viewBox="0 0 16 16" xmlns="http://www.w3.org/2000/svg">
<defs>
<style id="current-color-scheme" type="text/css">.ColorScheme-Text { color:#5c616c; } .ColorScheme-Highlight { color:#5294e2; }</style>
</defs>
<path class="ColorScheme-Text" d="m8 1.0039c-0.93056 0-1.7296 0.49544-2.4453 1.1445-0.71569 0.6491-1.3778 1.4764-2.0605 2.2832-0.84454 1.167-2.9986 2.7375-3.4941 3.002v1.0703c1.272 0 1.3661 0.79182 2.3984 1.8516 0.0397 0.11742 0.076303 0.23816 0.12695 0.3418 0.0753 0.15404 0.13895 0.3316 0.42383 0.45312l0.11914 0.050781 0.080078-0.009766c0.11398 0.13108 0.23038 0.2508 0.34375 0.38477 0.68268 0.80678 1.3468 1.6341 2.0625 2.2832 0.71569 0.6491 1.5148 1.1445 2.4453 1.1445 0.93055 0 1.7296-0.49535 2.4453-1.1445 0.71569-0.64909 1.3778-1.4764 2.0605-2.2832 1.3654-1.6136 1.765-3.0723 3.4941-3.0723v-1c-0.78416 0-0.49771-0.3107-1.1738-0.78906-0.0989-0.0875-0.20044-0.1734-0.29492-0.26562-0.2881-0.2812-0.55342-0.56271-0.78906-0.78711-0.11781-0.11219-0.22543-0.21022-0.3457-0.29492-0.0327-0.0231-0.075904-0.044106-0.11523-0.066406-0.26004-0.28276-0.51969-0.56694-0.77539-0.86914-0.68268-0.80679-1.3448-1.6341-2.0605-2.2832-0.71569-0.6491-1.5148-1.1445-2.4453-1.1445zm0 1c0.56944 0 1.1454 0.3171 1.7734 0.88672 0.62806 0.56965 1.2784 1.3693 1.9707 2.1875 0.12133 0.14338 0.25591 0.28328 0.38086 0.42773-0.0592 0.0497-0.11612 0.10376-0.16602 0.16016-0.23429 0.26477-0.41435 0.5914-0.58008 0.96875-0.33145 0.75472-0.59715 1.7101-0.83594 2.6641-0.23878 0.95401-0.44806 1.9043-0.63867 2.5996-0.0418 0.15233-0.075694 0.22764-0.11523 0.35156-0.0935-0.24922-0.18738-0.49639-0.29297-0.86719-0.28929-1.0158-0.60344-2.3978-0.91016-3.7793-0.30671-1.3815-0.60635-2.7635-0.875-3.8125-0.13432-0.5245-0.25868-0.96259-0.38281-1.2949-0.0407-0.10878-0.087492-0.19449-0.13281-0.28516 0.2724-0.13082 0.53971-0.20703 0.80469-0.20703zm-1.5645 0.99219c0.0914 0.26477 0.19285 0.60056 0.30664 1.0449 0.26045 1.0169 0.55973 2.3945 0.86719 3.7793 0.30745 1.3849 0.62358 2.7748 0.92578 3.8359 0.1511 0.53058 0.29567 0.97579 0.44922 1.3203 0.0768 0.17227 0.1523 0.31939 0.25781 0.45508 0.0169 0.0217 0.048159 0.043306 0.068359 0.066406-0.45279 0.32842-0.88415 0.50586-1.3105 0.50586-0.56945 0-1.1454-0.31709-1.7734-0.88672-0.62806-0.56965-1.2784-1.3672-1.9707-2.1855-0.0629-0.0743-0.13348-0.14792-0.19727-0.22266 0.0423-0.0461 0.085397-0.091395 0.12305-0.14062 0.23728-0.31073 0.41346-0.68921 0.57227-1.1191 0.31763-0.85991 0.54954-1.93 0.76758-2.9824s0.42146-2.0879 0.64648-2.8223c0.0894-0.29175 0.18207-0.48204 0.26758-0.64844zm-1.4395 1.2109c-0.1562 0.64684-0.30416 1.3376-0.45312 2.0566-0.21639 1.0444-0.44872 2.0857-0.72656 2.8379-0.13747 0.37216-0.28812 0.67108-0.42578 0.85352-0.0415-0.0452-0.079094-0.091899-0.12109-0.13672-0.0929-0.31393-0.18998-0.71182-0.29688-1.125-0.11434-0.44195-0.23417-0.88507-0.39258-1.2539-0.0587-0.1368-0.12674-0.26121-0.20898-0.38086 0.68684-0.59577 1.3064-1.2988 1.8848-1.9824 0.25377-0.29993 0.49678-0.58495 0.74023-0.86914zm7.7969 2.0547c0.43884 0.46267 0.90763 0.89138 1.4121 1.2539 0.21311 0.1967 0.43639 0.38546 0.67969 0.55273-1.2245 0.65712-2.2334 1.7888-3.1426 2.8633-0.27556 0.32567-0.5396 0.63728-0.80274 0.94336 0.1814-0.69548 0.36589-1.4997 0.57422-2.332 0.23414-0.93546 0.49757-1.8599 0.78125-2.5059 0.14184-0.32296 0.29161-0.57476 0.41211-0.71094 0.058-0.0656 0.064338-0.053553 0.085938-0.064453zm-11.209 1.4316c0.0263 0.0445 0.046125 0.066095 0.078125 0.14062 0.0737 0.17156 0.14815 0.45797 0.22266 0.71875-0.28648-0.21251-0.58904-0.39177-0.90234-0.54883 0.14433-0.0724 0.28933-0.14332 0.42773-0.22852 0.0587-0.0298 0.11497-0.049531 0.17383-0.082031z" fill="#363636"/>
</svg>
