<svg width="16" height="16" viewBox="0 0 16 16" xmlns="http://www.w3.org/2000/svg">
<defs>
<style id="current-color-scheme" type="text/css">.ColorScheme-Text { color:#5c616c; } .ColorScheme-Highlight { color:#5294e2; }</style>
</defs>
<path class="ColorScheme-Text" d="m2 2c-1.108 0-2 0.892-2 2v8c0 1.108 0.892 2 2 2h7v-2c5e-5 -0.2652 0.10543-0.51952 0.29297-0.70703l4-4c0.184-0.1843 0.43336-0.28897 0.69336-0.29297 0.26993-0.00361 0.52985 0.10205 0.7207 0.29297l1.293 1.293v-4.5859c0-1.108-0.892-2-2-2h-12zm0 2 6 3 6-3v2l-6 3-6-3v-2zm12 4-4 4v2h2l4-4-2-2z" fill="#363636"/>
</svg>
