<svg width="16" height="16" viewBox="0 0 16 16" xmlns="http://www.w3.org/2000/svg">
<defs>
<style id="current-color-scheme" type="text/css">.ColorScheme-Text { color:#5c616c; } .ColorScheme-Highlight { color:#5294e2; }</style>
</defs>
<path class="ColorScheme-Text" d="m2.0059 2.0039c-1.108 0-2 0.892-2 2v8c0 1.108 0.892 2 2 2h7.9316c-0.0013-0.02081-0.0019531-0.04165-0.0019531-0.0625v-3c5.53e-5 -0.55226 0.44774-0.99994 1-1v-0.5c0-1.3689 1.1311-2.5 2.5-2.5s2.5 1.1311 2.5 2.5v0.5c0.02345-1.736e-4 0.046902 4.843e-4 0.070312 0.0019532v-5.9395c0-1.108-0.892-2-2-2h-12zm0 2 6 3 6-3v2l-6 3-6-3v-2zm11.43 3.9375a1.5 1.5 0 0 0-1.5 1.5v1.5h-1v3h5v-3h-1v-1.5a1.5 1.5 0 0 0-1.5-1.5zm0 1a0.5 0.5 0 0 1 0.5 0.5v1.5h-1v-1.5a0.5 0.5 0 0 1 0.5-0.5z" fill="#363636"/>
</svg>
