<svg width="16" height="16" viewBox="0 0 16 16" xmlns="http://www.w3.org/2000/svg">
<defs>
<style id="current-color-scheme" type="text/css">.ColorScheme-Text { color:#5c616c; } .ColorScheme-Highlight { color:#5294e2; }</style>
</defs>
<path class="ColorScheme-Text" d="m8 0.0019531c-1.6621 0-3 1.3381-3 3v5.002c0 1.6619 1.3379 2.998 3 2.998s3-1.3362 3-2.998v-5.002c0-1.6619-1.3379-3-3-3zm-6 7.0039v0.99805c1e-5 2.9652 2.168 5.4276 5 5.9062v2.0918h2v-2.0918c2.832-0.47866 5-2.9412 5-5.9062v-0.99805h-2v0.99805c0 2.2331-1.7666 3.998-4 3.998s-4-1.7649-4-3.998v-0.99805h-2z" fill="#363636"/>
</svg>
