<svg xmlns="http://www.w3.org/2000/svg" width="36" height="36" version="1.1">
<g>
<path d="m18 2.67c-8.4684 0-15.333 6.865-15.333 15.333 1e-5 8.4684 6.865 15.333 15.333 15.333s15.333-6.865 15.333-15.333c-1e-5 -8.4684-6.865-15.333-15.333-15.333z" fill-opacity=".21875" />
<path transform="translate(0 0)" d="m15.141 2.9473a15.333 15.333 0 0 0-3.5781 1.1562c-2.0343 2.4664-3.2499 5.3173-3.8672 8.3223a1.9887 1.9887 0 0 0-1.1836 1.125c-1.0171-0.047762-2.0488-0.15078-3.0879-0.2793a15.333 15.333 0 0 0-0.44336 1.6504c1.216 0.15581 2.427 0.277 3.625 0.32422a1.9887 1.9887 0 0 0 0.60352 0.67969c-0.0078613 0.08528-0.018591 0.1702-0.023438 0.25586-0.13457 2.3783 0.024866 4.7894 0.33984 7.1523a1.9887 1.9887 0 0 0-0.17383 0.12891c-1.5901-0.85173-3.0969-1.8778-4.4883-3.0781a15.333 15.333 0 0 0 0.69336 2.7109c0.9872 0.7048 2.0133 1.3403 3.0723 1.9043a1.9887 1.9887 0 0 0 1.498 1.9219c0.23083 1.1616 0.49152 2.2876 0.76172 3.3887a15.333 15.333 0 0 0 2.0898 1.3066c-0.42795-1.5989-0.84077-3.2782-1.1875-5.0176a1.9887 1.9887 0 0 0 0.125-0.10156c2.2252 0.83772 4.538 1.3749 6.8711 1.6406a1.9887 1.9887 0 0 0 0.78125 0.89258c-0.058128 1.4049-0.02264 2.8372 0.10742 4.2871a15.333 15.333 0 0 0 0.32422 0.015625 15.333 15.333 0 0 0 1.3945-0.076172c-0.12854-1.3714-0.1896-2.7242-0.14648-4.041a1.9887 1.9887 0 0 0 1.0762-0.88086c1.5475-0.013729 3.0826-0.15366 4.5898-0.41406a1.9887 1.9887 0 0 0 1.4707 0.6543 1.9887 1.9887 0 0 0 0.38086-0.039063c0.36155 0.3929 0.75014 0.77279 1.127 1.1582a15.333 15.333 0 0 0 1.2305-1.168c-0.32815-0.33575-0.66874-0.66838-0.98438-1.0078a1.9887 1.9887 0 0 0 0.1582-0.39453c0.90911-0.27831 1.8-0.60344 2.668-0.97266a15.333 15.333 0 0 0 1.2754-2.5039c-1.3331 0.73442-2.7553 1.3297-4.2344 1.793a1.9887 1.9887 0 0 0-1.6211-0.84375 1.9887 1.9887 0 0 0-0.60742 0.097656c-1.2082-1.6201-2.2219-3.3155-2.9453-5.1504a1.9887 1.9887 0 0 0 0.72266-1.5312 1.9887 1.9887 0 0 0-0.42383-1.2285c1.9278-2.7215 4.6005-4.968 8.0547-6.5762a15.333 15.333 0 0 0-0.95117-1.4297c-3.5901 1.7215-6.3897 4.1283-8.4316 7.0195-0.14321-0.83984-0.21079-1.7233-0.24219-2.6289a1.9887 1.9887 0 0 0 1.332-1.875 1.9887 1.9887 0 0 0-0.001953-0.027344c1.9358-1.1782 3.803-2.6439 5.5918-4.4336a15.333 15.333 0 0 0-1.3047-1.0938c-1.619 1.6075-3.2929 2.9369-5.0195 4.0137a1.9887 1.9887 0 0 0-0.42578-0.26367c0.23164-1.8331 0.6766-3.7984 1.377-5.9277a15.333 15.333 0 0 0-1.6289-0.47852c-0.74881 2.2878-1.2262 4.4257-1.4609 6.4316a1.9887 1.9887 0 0 0-1.1035 1.7793 1.9887 1.9887 0 0 0 0.007812 0.16797c-2.7934 1.2183-5.7112 1.8698-8.7402 2.0645a1.9887 1.9887 0 0 0-0.79297-0.92188c0.77684-3.697 2.5035-7.0411 5.75-9.6582zm4.6211 9.9746a1.9887 1.9887 0 0 0 0.076172 0.050781c0.027687 1.2469 0.15947 2.4372 0.38086 3.5801a1.9887 1.9887 0 0 0-0.64062 1.4609 1.9887 1.9887 0 0 0 0.32422 1.0898c-0.93307 1.9844-1.5892 4.1198-1.9668 6.3633a1.9887 1.9887 0 0 0-1.0859 0.93945c-2.1213-0.25126-4.2215-0.74527-6.2461-1.4941a1.9887 1.9887 0 0 0-1.3945-1.8145c-0.30338-2.2777-0.45285-4.5813-0.32617-6.8203 0.0011925-0.021077 0.0044901-0.041482 0.0058594-0.0625a1.9887 1.9887 0 0 0 1.2266-0.99805c3.3299-0.20746 6.5595-0.93255 9.6465-2.2949zm1.4824 7.1992c0.8114 2.0753 1.9397 3.9721 3.2852 5.7539a1.9887 1.9887 0 0 0-0.10742 0.4082c-1.3015 0.20915-2.6271 0.31954-3.9629 0.33398a1.9887 1.9887 0 0 0-0.84766-0.99414c0.32737-1.9385 0.86299-3.7848 1.6328-5.502zm-20.223 0.83008-0.041016 0.042969c0.017933 0.016839 0.036712 0.032053 0.054687 0.048828a17.25 17.25 0 0 1-0.013672-0.091797z" color="#000000" color-rendering="auto" fill-opacity=".36458" image-rendering="auto" shape-rendering="auto" solid-color="#000000" style="block-progression:tb;isolation:auto;mix-blend-mode:normal;text-decoration-color:#000000;text-decoration-line:none;text-decoration-style:solid;text-indent:0;text-transform:none;white-space:normal" />
<path d="m18 0.75a17.25 17.25 0 0 0-17.25 17.25 17.25 17.25 0 0 0 17.25 17.25 17.25 17.25 0 0 0 17.25-17.25 17.25 17.25 0 0 0-17.25-17.25zm0 1.9167a15.333 15.333 0 0 1 15.333 15.333 15.333 15.333 0 0 1-15.333 15.333 15.333 15.333 0 0 1-15.333-15.333 15.333 15.333 0 0 1 15.333-15.333z" fill-opacity=".75665" />
</g>
</svg>
