<svg width="16" height="16" viewBox="0 0 16 16" xmlns="http://www.w3.org/2000/svg">
<defs>
<style id="current-color-scheme" type="text/css">.ColorScheme-Text { color:#5c616c; } .ColorScheme-Highlight { color:#5294e2; }</style>
</defs>
<path class="ColorScheme-Text" d="m0 1v14c3.4739-1e-3 6.9478-4.7e-5 10.422 0.001953l-0.12891-0.12891c-0.3904-0.39-0.3904-1.0231 0-1.4141l0.45898-0.45898h-9.752v-1h9.752l-0.45898-0.45898c-0.3904-0.391-0.3904-1.0241 0-1.4141l0.12695-0.12695h-1.4199v-1h6v0.015625c0.319-0.0541 0.64405 0.049144 0.87305 0.27734l0.12695 0.12695v-8.416c-5.333 0.0020001-10.667-0.0059062-16-0.0039062zm6 2v6.9961l-5 0.0039062v-6.9961l5-0.0039062zm3 0h6v1h-6v-1zm0 3h6v1h-6v-1zm2.834 4-0.83398 0.83398 1.666 1.666-1.666 1.666 0.83398 0.83398 1.666-1.666 1.666 1.666 0.83398-0.83398-1.666-1.666 1.666-1.666-0.83398-0.83398-1.666 1.666-1.666-1.666z" fill="currentColor"/>
</svg>
