<svg width="16" height="16" viewBox="0 0 16 16" xmlns="http://www.w3.org/2000/svg">
<defs>
<style id="current-color-scheme" type="text/css">.ColorScheme-Text { color:#5c616c; } .ColorScheme-Highlight { color:#5294e2; }</style>
</defs>
<path class="ColorScheme-Text" d="m5 0v1.9727h-4.4785a0.50005 0.50005 0 1 0 0 1h4.4785v2.0273h5v-2.0273h4.498a0.50005 0.50005 0 1 0 0-1h-4.498v-1.9727h-5zm2 5.0273v2h-2l2.5 3 2.5-3h-2v-2h-1zm-6 5.9727v2h-0.49609a0.49902 0.49902 0 1 0 0 0.99805h0.49609v2.002h4v-5h-4zm9 0v5h4v-2h0.50781a0.50005 0.50005 0 1 0 0-1h-0.50781v-2h-4z" fill="#363636"/>
</svg>
