<svg width="16" height="16" viewBox="0 0 16 16" xmlns="http://www.w3.org/2000/svg">
<defs>
<style id="current-color-scheme" type="text/css">.ColorScheme-Text { color:#5c616c; } .ColorScheme-Highlight { color:#5294e2; }</style>
</defs>
<path class="ColorScheme-Text" d="m15.42 2a0.49828 0.50178 0 0 0-0.48047 0.58789c0.21765 1.6002-0.14314 3.8695-1.2559 5.6758-0.57302 0.93016-1.3344 1.7396-2.3184 2.3105a3.4876 3.5121 0 0 0-3.3672-2.5996 3.4876 3.5121 0 0 0-3.375 2.6465c-1.0173-0.572-1.7949-1.3958-2.3711-2.3516-1.0876-1.8042-1.4184-4.0736-1.1758-5.6738a0.49828 0.50178 0 0 0-0.52344-0.58398 0.49828 0.50178 0 0 0-0.46094 0.43359c-0.28263 1.8642 0.077261 4.3044 1.3066 6.3438 0.7158 1.1873 1.7593 2.2188 3.1191 2.8828a3.4876 3.5121 0 0 0 3.4805 3.3281 3.4876 3.5121 0 0 0 3.4824-3.377c1.3176-0.66534 2.3383-1.6734 3.0508-2.8301 1.255-2.0371 1.6501-4.4756 1.3965-6.3398a0.49828 0.50178 0 0 0-0.50781-0.45312z" fill="#363636"/>
</svg>
