<svg width="16" height="16" viewBox="0 0 16 16" xmlns="http://www.w3.org/2000/svg">
<defs>
<style id="current-color-scheme" type="text/css">.ColorScheme-Text { color:#5c616c; } .ColorScheme-Highlight { color:#5294e2; }</style>
</defs>
<path class="ColorScheme-Text" d="m15.391 2.3438a0.49918 0.49918 0 0 0-0.48047 0.58789c0.218 1.5948-0.14281 3.8988-1.2578 5.7363-0.636 1.0489-1.5063 1.9434-2.6523 2.5254v-2.1934h-6v2.2754c-1.2181-0.577-2.1226-1.5071-2.7734-2.6035-1.0896-1.8354-1.4202-4.1378-1.1777-5.7324a0.49918 0.49918 0 0 0-0.52344-0.58008 0.49918 0.49918 0 0 0-0.46289 0.42969c-0.28265 1.8583 0.077508 4.3233 1.3047 6.3906 0.6862 1.1563 1.6987 2.1433 2.9805 2.8223h-1.4336a1.5 1.5 0 0 0-1.4141-1.002 1.5 1.5 0 0 0-1.5 1.5 1.5 1.5 0 0 0 1.5 1.5 1.5 1.5 0 0 0 1.4121-1h2.0879v2h6v-2h2.0879a1.5 1.5 0 0 0 1.4121 1 1.5 1.5 0 0 0 1.5-1.5 1.5 1.5 0 0 0-1.5-1.5 1.5 1.5 0 0 0-1.4141 1.002h-1.5918c1.289-0.678 2.3107-1.6619 3.0117-2.8164 1.253-2.0651 1.6466-4.5305 1.3926-6.3887a0.49918 0.49918 0 0 0-0.50781-0.45312z" fill="#363636"/>
</svg>
