<svg width="16" height="16" viewBox="0 0 16 16" xmlns="http://www.w3.org/2000/svg">
<defs>
<style id="current-color-scheme" type="text/css">.ColorScheme-Text { color:#5c616c; } .ColorScheme-Highlight { color:#5294e2; }</style>
</defs>
<path class="ColorScheme-Text" d="m8.0293 0.0019531-4 3 4 3v-2c2.2091 0 4 1.7909 4 4 0 2.2091-1.7909 4-4 4-2.2091 0-4-1.7909-4-4a1 1 0 0 0-1-1 1 1 0 0 0-1 1 1 1 0 0 0 0.0058593 0.099609c0.0538 3.2672 2.714 5.9004 5.9941 5.9004 3.3137 0 6-2.6863 6-6 0-3.3137-2.6863-6-6-6v-2z" fill="#363636"/>
</svg>
