<svg width="24" height="24" viewBox="0 0 24 24" xmlns="http://www.w3.org/2000/svg">
<defs>
<style id="current-color-scheme" type="text/css">.ColorScheme-Text { color:#5c616c; } .ColorScheme-Highlight { color:#5294e2; }</style>
</defs>
<path class="ColorScheme-Text" d="m12.281 3c-2.0166 1.66e-5 -3.3051 0.54886-4.5312 1.3652-0.74211 0.48672-1.2989 1.0845-1.6699 1.791-0.3872 0.69081-0.58008 1.9311-0.58008 2.873h4.9844l-0.023437-0.77734c0.024146-1.5778 0.88459-1.7656 1.3848-1.7656 0.45164 1.67e-5 0.83747 0.12381 1.1602 0.375 0.33875 0.25121 0.50977 0.58205 0.50977 0.99023 0 0.58091-0.47353 0.86037-1.0664 1.3652-0.95103 0.80996-1.7654 1.4327-1.959 1.6211-0.70981 0.6751-1.6242 1.2707-1.3477 3.4238h5.041c0-0.8792 0.001508-1.4059 0.75976-1.8926l2.2988-1.8574c0.83885-0.70649 1.2578-1.6719 1.2578-2.8965 0-1.4601-0.68532-2.6209-2.0566-3.4844-1.2099-0.75358-2.5973-1.1308-4.1621-1.1309zm-3.0703 13.094v4.9062h4.9375v-4.9062h-4.9375z" fill="currentColor"/>
</svg>
