<svg width="16" height="16" viewBox="0 0 16 16" xmlns="http://www.w3.org/2000/svg">
<defs>
<style id="current-color-scheme" type="text/css">.ColorScheme-Text { color:#5c616c; } .ColorScheme-Highlight { color:#5294e2; }</style>
</defs>
<path class="ColorScheme-Highlight" d="m8 3c-1.5508 0.0151-3.1121 0.36921-4.4629 1.1348-0.5384 0.3507-1.1848 0.80343-1.6719 1.2598-0.76649 0.75059-1.4225 1.6277-1.8652 2.6074 1.2149 2.6801 3.8859 4.6435 6.8242 4.9336 1.9274 0.21816 3.9444-0.1147 5.6387-1.0684 0.5384-0.3507 1.1848-0.80343 1.6719-1.2598 0.76649-0.75058 1.4225-1.6258 1.8652-2.6055-1.215-2.68-3.8858-4.6456-6.8242-4.9355-0.38988-0.04548-0.78327-0.066416-1.1758-0.066406zm0 2c1.607-0.03561 3.0303 1.4034 3 3.002 0.0515 1.7668-1.709 3.2909-3.4492 2.9609-1.7576-0.20638-2.9921-2.1793-2.4141-3.8496 0.36916-1.2296 1.5758-2.1286 2.8633-2.1133zm0 2a1 1.0002 0 0 0-1 1.002 1 1.0002 0 0 0 1 1 1 1.0002 0 0 0 1-1 1 1.0002 0 0 0-1-1.002z" fill="#363636"/>
</svg>
