<svg width="16" height="16" viewBox="0 0 16 16" xmlns="http://www.w3.org/2000/svg">
<defs>
<style id="current-color-scheme" type="text/css">.ColorScheme-Text { color:#5c616c; } .ColorScheme-Highlight { color:#5294e2; }</style>
</defs>
<path class="ColorScheme-Text" d="m3 1c-2.25 0-2 2-2 2v4h2v-4h10v4h2v-4c0-2-2-2-2-2h-10zm1 3v2h2v-2h-2zm3 0v2h2v-2h-2zm3 0v2h2v-2h-2zm-7 5v2h-2v2h2v2h2v-2h2v-2h-2v-2h-2zm6 0c-0.554 0-1 0.53462-1 1.1992v3.6016c0 0.665 0.446 1.1992 1 1.1992h5c0.554 0 1-0.53422 1-1.1992v-3.6016c0-0.6646-0.446-1.1992-1-1.1992h-5z" fill="#363636"/>
</svg>
