<svg width="16" height="16" viewBox="0 0 16 16" xmlns="http://www.w3.org/2000/svg">
<defs>
<style id="current-color-scheme" type="text/css">.ColorScheme-Text { color:#5c616c; } .ColorScheme-Highlight { color:#5294e2; }</style>
</defs>
<path class="ColorScheme-Text" d="m9 1.0039 1.2188 1.9062-4.4062 2.75c-0.51544-0.41091-1.1508-0.65629-1.8125-0.65625-1.5709 9.01e-5 -3 1.4293-3 3 0 1.5707 1.4291 2.9999 3 3 0.66168 4e-5 1.2971-0.27659 1.8125-0.6875l4.4062 2.7793-1.2188 1.9062h6l-2.5-5.5-1.2188 1.9375-4.375-2.7812c0.0545-0.21463 0.09375-0.43211 0.09375-0.65625s-0.03935-0.44162-0.09375-0.65625l4.375-2.7793 1.2188 1.9375 2.5-5.5h-6z" fill="#363636"/>
</svg>
