<svg width="16" height="16" viewBox="0 0 16 16" xmlns="http://www.w3.org/2000/svg">
<defs>
<style id="current-color-scheme" type="text/css">.ColorScheme-Text { color:#5c616c; } .ColorScheme-Highlight { color:#5294e2; }</style>
</defs>
<path class="ColorScheme-Text" d="m4.5078 2a1.5049 1.5 0 0 0-1.5039 1.5 1.5049 1.5 0 0 0 0.95898 1.3965v4.1035h-1.9629v5h5.0156v-5h-1.2695c0.43104-1.2431 1.3369-2.4214 2.4922-3.4023 1.6223-1.3774 3.6992-2.3425 5.3262-2.5742a0.50168 0.50005 0 0 0-0.10547-0.99414 0.50168 0.50005 0 0 0-0.035156 0.0058593c-1.8848 0.26838-4.0721 1.3031-5.8359 2.8008-1.1193 0.95034-2.0715 2.0989-2.6211 3.375v-3.2852a1.5049 1.5 0 0 0 1.0469-1.4258 1.5049 1.5 0 0 0-1.5059-1.5z" fill="#363636"/>
</svg>
