<svg width="16" height="16" viewBox="0 0 16 16" xmlns="http://www.w3.org/2000/svg">
<defs>
<style id="current-color-scheme" type="text/css">.ColorScheme-Text { color:#5c616c; } .ColorScheme-Highlight { color:#5294e2; }</style>
</defs>
<path class="ColorScheme-Text" d="m6 1-5 14h2.5l1.0625-3h3.4629a3.5 3.5 0 0 1 2.9707-3.0605l-2.9961-7.9395h-2zm1 4 1.75 5h-3.5l1.75-5zm4.5 4v0.85742c-1.381 0-2.5 1.1503-2.5 2.5703s1.119 2.5723 2.5 2.5723c1.367 0 2.476-1.1293 2.498-2.5293a0.41663 0.42857 0 0 0 0.001953-0.042969 0.41663 0.42857 0 0 0-0.41602-0.42773 0.41663 0.42857 0 0 0-0.41797 0.42773c0 0.947-0.74602 1.7148-1.666 1.7148s-1.666-0.76784-1.666-1.7148 0.74602-1.7129 1.666-1.7129v0.85742l1.666-1.2871-1.666-1.2852z" fill="#363636"/>
</svg>
