<svg width="16" height="16" viewBox="0 0 16 16" xmlns="http://www.w3.org/2000/svg">
<defs>
<style id="current-color-scheme" type="text/css">.ColorScheme-Text { color:#5c616c; } .ColorScheme-Highlight { color:#5294e2; }</style>
</defs>
<path class="ColorScheme-Text" d="m9.5488 1c-4.0896 1.7504-6.543 5.8509-6.543 8.75 0 2.8654 2.1475 5.1898 4.8145 5.2441-1.3328-0.028-2.4082-1.1869-2.4082-2.6191 0-1.4498 1.2281-3.5 3.2734-4.375 0 3.0625 2.1965 3.5052 1.6367 5.25-0.31738 0.98934-1.0916 1.7399-2.4336 1.748 8e-3 4e-5 0.016791 0.001953 0.025391 0.001953 2.711 0 4.27-1.5106 4.9082-3.5 1.1195-3.4896-3.2734-4.375-3.2734-10.5z" fill="#363636"/>
</svg>
