<svg width="16" height="16" viewBox="0 0 16 16" xmlns="http://www.w3.org/2000/svg">
<defs>
<style id="current-color-scheme" type="text/css">.ColorScheme-Text { color:#5c616c; } .ColorScheme-Highlight { color:#5294e2; }</style>
</defs>
<path class="ColorScheme-Text" d="m2.0586 3.002 2.1445 1.6309-2.2031 1.6758v0.033203l2.1797 1.6602h0.046875l2.1797-1.6602-2.2031-1.6758 2.1914-1.6641h-4.3359zm4.4062 0 2.1465 1.6309 2.1426-1.6309h-4.2891zm4.4531 0 2.082 1.584v-1.584h-2.082zm-2.2617 1.6641-2.2031 1.6758 2.1797 1.6602 2.2031-1.6758-2.1797-1.6602zm2.1797 1.6602 2.1641 1.6445v-3.291l-2.1641 1.6465zm0.17187 2.6875v1.9941h-2.002v0.99609h2.002v1.9961l3.0039-2.4941-3.0039-2.4922zm-7.0078 1.9785v1.0293h1v-1.0293h-1zm2.0176 0v1.0293h0.48438 1.002 0.48438v-1.0293h-0.48438-1.002-0.48438z" fill="#363636"/>
</svg>
