<svg width="24" height="24" viewBox="0 0 24 24" xmlns="http://www.w3.org/2000/svg">
<defs>
<style id="current-color-scheme" type="text/css">.ColorScheme-Text { color:#5c616c; } .ColorScheme-Highlight { color:#5294e2; }</style>
</defs>
<path class="ColorScheme-Text" d="m0.54883 2.0078a0.50005 0.50005 0 0 0-0.5 0.5v7.9922a0.50005 0.50005 0 0 0 0.5 0.5h8.9746a0.50005 0.50005 0 0 0 0.5-0.5v-7.9922a0.50005 0.50005 0 0 0-0.5-0.5h-8.9746zm13.975 0a0.50005 0.50005 0 0 0-0.5 0.5v7.9922a0.50005 0.50005 0 0 0 0.5 0.5h8.9766a0.50005 0.50005 0 0 0 0.5-0.5v-7.9922a0.50005 0.50005 0 0 0-0.5-0.5h-8.9766zm-12.984 0.99609h6.998c0.2761 0 0.5 0.2239 0.5 0.5v5.9941c0 0.2762-0.2239 0.5-0.5 0.5h-6.998c-0.2761 0-0.5-0.2238-0.5-0.5v-5.9941c0-0.2761 0.2239-0.5 0.5-0.5zm13.977 0h6.998c0.276 0 0.5 0.2239 0.5 0.5v5.9941c0 0.2762-0.224 0.5-0.5 0.5h-6.998c-0.277 0-0.5-0.2238-0.5-0.5v-5.9941c0-0.2761 0.223-0.5 0.5-0.5zm1.5078 8.9961v2h-12v1h12v2l3-2.5-3-2.5z" fill="#363636"/>
<path class="ColorScheme-Text" d="m1.0488 3.0078v6.9922h7.9746v-6.9922h-7.9746zm13.975 0v6.9922h7.9766v-6.9922h-7.9766z" fill="#363636" opacity=".3"/>
</svg>
