<svg width="24" height="24" viewBox="0 0 24 24" xmlns="http://www.w3.org/2000/svg">
<defs>
<style id="current-color-scheme" type="text/css">.ColorScheme-Text { color:#5c616c; } .ColorScheme-Highlight { color:#5294e2; }</style>
</defs>
<path class="ColorScheme-Text" d="m18.77 0a0.34804 0.71625 34.651 0 0-0.26953 0.12109l-13.002 9.6172a0.34804 0.71625 34.651 0 0-0.49805 0.86914v13.139a0.34804 0.71625 34.651 0 0 0.49805 0.13281l13.002-9.6172a0.34804 0.71625 34.651 0 0 0.49805-0.86914v-13.139a0.34804 0.71625 34.651 0 0-0.1875-0.25391 0.34804 0.71625 34.651 0 0-0.041016 0zm-13.77 21h-2v-3h-1v3h-2l2.5 3 2.5-3zm16.5-21-2.5 3h2v3h1v-3h2l-2.5-3zm-3.4961 1.4902v12.137l-12.008 8.8828v-12.139l12.008-8.8809z" fill="currentColor"/>
<path class="ColorScheme-Text" d="m17.855 1.7461c-0.090122-0.023956-0.21599 0.013633-0.35352 0.11523l-11.004 8.1387c-0.27506 0.20335-0.49814 0.59252-0.49805 0.86914v11.139c-9e-5 0.27676 0.22299 0.33602 0.49805 0.13281l11.004-8.1406c0.27506-0.20335 0.49814-0.59252 0.49805-0.86914v-11.137c4.5e-5 -0.13838-0.05441-0.22409-0.14453-0.24805z" fill="currentColor" opacity=".3"/>
</svg>
