<svg version="1.1" viewBox="0 0 16 16" xmlns="http://www.w3.org/2000/svg">
<style id="current-color-scheme" type="text/css">.ColorScheme-Text {
            color:#363636;
        }</style>
<path class="ColorScheme-Text" d="M 3.5,3 A 1.5,1.5 0 0 0 2,4.5 1.5,1.5 0 0 0 3.5,6 1.5,1.5 0 0 0 5,4.5 1.5,1.5 0 0 0 3.5,3 Z M 3.4882812,4 A 0.5,0.5 0 0 1 3.5,4 0.5,0.5 0 0 1 4,4.5 0.5,0.5 0 0 1 3.5,5 0.5,0.5 0 0 1 3,4.5 0.5,0.5 0 0 1 3.4882812,4 Z" fill="#363636" stroke-linecap="square"/>
<path class="ColorScheme-Text" d="m3 5v5a2 2 0 0 0 1.9512 2 2 2 0 0 0 0.048828 0h3v-1h-3a1 1 0 0 1-1-1v-5z" fill="#363636" stroke-linecap="square" stroke-width=".84515"/>
<path class="ColorScheme-Text" d="m6.5 8.793-0.70703 0.70703 2 2-2 2 0.70703 0.70703 2.707-2.707-2.707-2.707z" fill="#363636"/>
<path class="ColorScheme-Text" d="m11.5 13a1.5 1.5 0 0 0 1.5-1.5 1.5 1.5 0 0 0-1.5-1.5 1.5 1.5 0 0 0-1.5 1.5 1.5 1.5 0 0 0 1.5 1.5zm0.01172-1a0.5 0.5 0 0 1-0.01172 0 0.5 0.5 0 0 1-0.5-0.5 0.5 0.5 0 0 1 0.5-0.5 0.5 0.5 0 0 1 0.5 0.5 0.5 0.5 0 0 1-0.48828 0.5z" fill="#363636" stroke-linecap="square"/>
<path class="ColorScheme-Text" d="m12 11v-5a2 2 0 0 0-1.9512-2 2 2 0 0 0-0.04883 0h-3v1h3a1 1 0 0 1 1 1v5z" fill="#363636" stroke-linecap="square" stroke-width=".84515"/>
<path class="ColorScheme-Text" d="m8.5 1.793-2.707 2.707 2.707 2.707 0.70703-0.70703-2-2 2-2-0.70703-0.70703z" fill="#363636"/>
</svg>
