<svg width="16" height="16" viewBox="0 0 16 16" xmlns="http://www.w3.org/2000/svg">
<defs>
<style id="current-color-scheme" type="text/css">.ColorScheme-Text { color:#5c616c; } .ColorScheme-Highlight { color:#5294e2; }</style>
</defs>
<path class="ColorScheme-Text" d="m3.5 7c-0.82235 0-1.5 0.67765-1.5 1.5s0.67765 1.5 1.5 1.5 1.5-0.67765 1.5-1.5-0.67765-1.5-1.5-1.5zm4 0c-0.82235 0-1.5 0.67765-1.5 1.5s0.67765 1.5 1.5 1.5 1.5-0.67765 1.5-1.5-0.67765-1.5-1.5-1.5zm4 0c-0.82235 0-1.5 0.67765-1.5 1.5s0.67765 1.5 1.5 1.5 1.5-0.67765 1.5-1.5-0.67765-1.5-1.5-1.5z" fill="currentColor"/>
</svg>
