<svg viewBox="0 0 16 16" xmlns="http://www.w3.org/2000/svg">
<defs>
<style id="current-color-scheme" type="text/css">.ColorScheme-Text {
        color:#363636;
      }</style>
</defs>
<path class="ColorScheme-Text" d="m2.25 3c-0.068 0-0.12606 0.024533-0.17578 0.073998-0.0495 0.049465-0.0742 0.10759-0.0742 0.1753v9.5014c0 0.06782 0.0247 0.12573 0.0742 0.1753 0.0497 0.04947 0.10779 0.074 0.17578 0.074h1.5059c0.0678 0 0.12625-0.02463 0.17578-0.074 0.0495-0.04967 0.0742-0.1075 0.0742-0.1753v-9.5014c0-0.067715-0.0246-0.12582-0.0742-0.1753-0.0496-0.049465-0.10798-0.073998-0.17578-0.073998h-1.5059zm4.957 0c-0.0678 0-0.12811 0.024533-0.17773 0.073998-0.0497 0.049464-0.0742 0.10759-0.0742 0.1753v9.5014c0 0.06782 0.0245 0.12573 0.0742 0.1753 0.0496 0.04947 0.10993 0.074 0.17773 0.074h1.5039c0.0679 0 0.12625-0.02463 0.17578-0.074 0.0496-0.04967 0.0742-0.1075 0.0742-0.1753v-9.5014c0-0.067715-0.0245-0.12582-0.0742-0.1753-0.0496-0.049465-0.10789-0.073998-0.17578-0.073998h-1.5039zm5.0371 0c-0.0679 0-0.12606 0.024533-0.17578 0.073998-0.0495 0.049464-0.0742 0.10759-0.0742 0.1753v9.5014c0 0.06782 0.0246 0.12573 0.0742 0.1753 0.0497 0.04947 0.10788 0.074 0.17578 0.074h1.5059c0.0679 0 0.12616-0.02463 0.17578-0.074 0.0495-0.049664 0.0742-0.1075 0.0742-0.1753v-9.5014c0-0.067715-0.0246-0.12582-0.0742-0.1753-0.0497-0.049465-0.10788-0.073998-0.17578-0.073998h-1.5059z" fill="#363636"/>
</svg>
