<svg xmlns="http://www.w3.org/2000/svg" width="22" height="22" version="1.1" viewBox="0 0 5.8208 5.8208">
<g>
<g transform="matrix(0.22671 0 0 0.22671 2.1621 1.93)" />
<path transform="matrix(0.26458 0 0 0.26458 0 0)" d="m3 2c-1.108 0-2 0.89199-2 2v14c0 1.108 0.89199 2 2 2h16c1.108 0 2-0.89199 2-2v-14c0-1.108-0.89199-2-2-2h-16zm0 1h15.883c0.554 0 1 0.446 1 1v14c0 0.554-0.446 1-1 1h-15.883c-0.554 0-1-0.446-1-1v-14c0-0.554 0.446-1 1-1z" fill-opacity=".47451" />
<path transform="matrix(0.26458 0 0 0.26458 0 0)" d="m2 5v1h17.883v-1h-17.883z" fill-opacity=".47451" />
<path d="m1.1914 2.02a0.10001 0.10001 0 0 0-0.10156 0.0996v0.5293a0.10001 0.10001 0 0 0 0.10156 0.10156h0.79297a0.10001 0.10001 0 0 0 0.099609-0.10156v-0.5293a0.10001 0.10001 0 0 0-0.099609-0.0996zm0.099609 0.20117h0.59375v0.32813h-0.59375z" color="#000000" color-rendering="auto" dominant-baseline="auto" fill-opacity=".47451" image-rendering="auto" opacity=".494" shape-rendering="auto" solid-color="#000000" style="font-feature-settings:normal;font-variant-alternates:normal;font-variant-caps:normal;font-variant-ligatures:normal;font-variant-numeric:normal;font-variant-position:normal;isolation:auto;mix-blend-mode:normal;shape-padding:0;text-decoration-color:#000000;text-decoration-line:none;text-decoration-style:solid;text-indent:0;text-orientation:mixed;text-transform:none;white-space:normal" />
<path d="m2.5137 2.02a0.10001 0.10001 0 0 0-0.099609 0.0996v0.5293a0.10001 0.10001 0 0 0 0.099609 0.10156h0.79297a0.10001 0.10001 0 0 0 0.10156-0.10156v-0.5293a0.10001 0.10001 0 0 0-0.10156-0.0996zm0.099609 0.20117h0.59375v0.32813h-0.59375z" color="#000000" color-rendering="auto" dominant-baseline="auto" fill-opacity=".47451" image-rendering="auto" shape-rendering="auto" solid-color="#000000" style="font-feature-settings:normal;font-variant-alternates:normal;font-variant-caps:normal;font-variant-ligatures:normal;font-variant-numeric:normal;font-variant-position:normal;isolation:auto;mix-blend-mode:normal;shape-padding:0;text-decoration-color:#000000;text-decoration-line:none;text-decoration-style:solid;text-indent:0;text-orientation:mixed;text-transform:none;white-space:normal" />
<path d="m3.8359 2.02a0.10001 0.10001 0 0 0-0.099609 0.0996v0.5293a0.10001 0.10001 0 0 0 0.099609 0.10156h0.79492a0.10001 0.10001 0 0 0 0.099609-0.10156v-0.5293a0.10001 0.10001 0 0 0-0.099609-0.0996zm0.099609 0.20117h0.59375v0.32813h-0.59375z" color="#000000" color-rendering="auto" dominant-baseline="auto" fill-opacity=".47451" image-rendering="auto" shape-rendering="auto" solid-color="#000000" style="font-feature-settings:normal;font-variant-alternates:normal;font-variant-caps:normal;font-variant-ligatures:normal;font-variant-numeric:normal;font-variant-position:normal;isolation:auto;mix-blend-mode:normal;shape-padding:0;text-decoration-color:#000000;text-decoration-line:none;text-decoration-style:solid;text-indent:0;text-orientation:mixed;text-transform:none;white-space:normal" />
<path d="m3.8262 3.07a0.10001 0.10001 0 0 0-0.089844 0.0996v0.52929a0.10001 0.10001 0 0 0 0.099609 0.0996h0.79492a0.10001 0.10001 0 0 0 0.099609-0.0996v-0.52929a0.10001 0.10001 0 0 0-0.099609-0.0996h-0.79492a0.10001 0.10001 0 0 0-0.00977 0zm0.10938 0.20117h0.59375v0.32812h-0.59375z" color="#000000" color-rendering="auto" dominant-baseline="auto" fill-opacity=".47451" image-rendering="auto" shape-rendering="auto" solid-color="#000000" style="font-feature-settings:normal;font-variant-alternates:normal;font-variant-caps:normal;font-variant-ligatures:normal;font-variant-numeric:normal;font-variant-position:normal;isolation:auto;mix-blend-mode:normal;shape-padding:0;text-decoration-color:#000000;text-decoration-line:none;text-decoration-style:solid;text-indent:0;text-orientation:mixed;text-transform:none;white-space:normal" />
<path d="m3.8262 4.13a0.10001 0.10001 0 0 0-0.089844 0.0996v0.5293a0.10001 0.10001 0 0 0 0.099609 0.0996h0.79492a0.10001 0.10001 0 0 0 0.099609-0.0996v-0.5293a0.10001 0.10001 0 0 0-0.099609-0.0996h-0.79492a0.10001 0.10001 0 0 0-0.00977 0zm0.10938 0.19922h0.59375v0.33008h-0.59375z" color="#000000" color-rendering="auto" dominant-baseline="auto" fill-opacity=".47451" image-rendering="auto" shape-rendering="auto" solid-color="#000000" style="font-feature-settings:normal;font-variant-alternates:normal;font-variant-caps:normal;font-variant-ligatures:normal;font-variant-numeric:normal;font-variant-position:normal;isolation:auto;mix-blend-mode:normal;shape-padding:0;text-decoration-color:#000000;text-decoration-line:none;text-decoration-style:solid;text-indent:0;text-orientation:mixed;text-transform:none;white-space:normal" />
<path d="m2.5039 3.07a0.10001 0.10001 0 0 0-0.089844 0.0996v0.52929a0.10001 0.10001 0 0 0 0.099609 0.0996h0.79297a0.10001 0.10001 0 0 0 0.10156-0.0996v-0.52929a0.10001 0.10001 0 0 0-0.10156-0.0996h-0.79297a0.10001 0.10001 0 0 0-0.00977 0zm0.10938 0.20117h0.59375v0.32812h-0.59375z" color="#000000" color-rendering="auto" dominant-baseline="auto" fill-opacity=".47451" image-rendering="auto" opacity=".361" shape-rendering="auto" solid-color="#000000" style="font-feature-settings:normal;font-variant-alternates:normal;font-variant-caps:normal;font-variant-ligatures:normal;font-variant-numeric:normal;font-variant-position:normal;isolation:auto;mix-blend-mode:normal;shape-padding:0;text-decoration-color:#000000;text-decoration-line:none;text-decoration-style:solid;text-indent:0;text-orientation:mixed;text-transform:none;white-space:normal" />
<path d="m2.5039 4.13a0.10001 0.10001 0 0 0-0.089844 0.0996v0.5293a0.10001 0.10001 0 0 0 0.099609 0.0996h0.79297a0.10001 0.10001 0 0 0 0.10156-0.0996v-0.5293a0.10001 0.10001 0 0 0-0.10156-0.0996h-0.79297a0.10001 0.10001 0 0 0-0.00977 0zm0.10938 0.19922h0.59375v0.33008h-0.59375z" color="#000000" color-rendering="auto" dominant-baseline="auto" fill-opacity=".47451" image-rendering="auto" shape-rendering="auto" solid-color="#000000" style="font-feature-settings:normal;font-variant-alternates:normal;font-variant-caps:normal;font-variant-ligatures:normal;font-variant-numeric:normal;font-variant-position:normal;isolation:auto;mix-blend-mode:normal;shape-padding:0;text-decoration-color:#000000;text-decoration-line:none;text-decoration-style:solid;text-indent:0;text-orientation:mixed;text-transform:none;white-space:normal" />
<path d="m1.1797 3.07a0.10001 0.10001 0 0 0-0.089844 0.0996v0.52929a0.10001 0.10001 0 0 0 0.10156 0.0996h0.79297a0.10001 0.10001 0 0 0 0.099609-0.0996v-0.52929a0.10001 0.10001 0 0 0-0.099609-0.0996h-0.79297a0.10001 0.10001 0 0 0-0.011719 0zm0.11133 0.20117h0.59375v0.32812h-0.59375z" color="#000000" color-rendering="auto" dominant-baseline="auto" fill-opacity=".47451" image-rendering="auto" shape-rendering="auto" solid-color="#000000" style="font-feature-settings:normal;font-variant-alternates:normal;font-variant-caps:normal;font-variant-ligatures:normal;font-variant-numeric:normal;font-variant-position:normal;isolation:auto;mix-blend-mode:normal;shape-padding:0;text-decoration-color:#000000;text-decoration-line:none;text-decoration-style:solid;text-indent:0;text-orientation:mixed;text-transform:none;white-space:normal" />
<path d="m1.1797 4.13a0.10001 0.10001 0 0 0-0.089844 0.0996v0.5293a0.10001 0.10001 0 0 0 0.10156 0.0996h0.79297a0.10001 0.10001 0 0 0 0.099609-0.0996v-0.5293a0.10001 0.10001 0 0 0-0.099609-0.0996h-0.79297a0.10001 0.10001 0 0 0-0.011719 0zm0.11133 0.19922h0.59375v0.33008h-0.59375z" color="#000000" color-rendering="auto" dominant-baseline="auto" fill-opacity=".47451" image-rendering="auto" shape-rendering="auto" solid-color="#000000" style="font-feature-settings:normal;font-variant-alternates:normal;font-variant-caps:normal;font-variant-ligatures:normal;font-variant-numeric:normal;font-variant-position:normal;isolation:auto;mix-blend-mode:normal;shape-padding:0;text-decoration-color:#000000;text-decoration-line:none;text-decoration-style:solid;text-indent:0;text-orientation:mixed;text-transform:none;white-space:normal" />
</g>
</svg>
