<svg xmlns="http://www.w3.org/2000/svg" width="16" height="16" enable-background="new" version="1.1">
<defs>
<filter color-interpolation-filters="sRGB">
<feBlend in2="BackgroundImage" mode="darken" />
</filter>
</defs>
<g fill="#555">
<path d="m7 0-0.5 1.0312c0.16191-0.0133 0.3348-0.0312 0.5-0.0312h0.5l-0.5-1zm0 2c-2.7614 0-5 2.2386-5 5 0 2.254 1.5126 4.1258 3.5625 4.75 0.46885-0.67743 1.1798-1.2053 1.9688-1.4375 0.61973-1.322 1.9747-2.3383 3.4688-2.3125 0.30449-5e-3 0.58708 0.056 0.875 0.125 0.0845-0.36435 0.125-0.73495 0.125-1.125 0-2.7614-2.2386-5-5-5zm-4.9375 0.0625 0.34375 1.0625c0.21905-0.25922 0.45953-0.4997 0.71875-0.71875l-1.0625-0.34375zm9.875 0-1.0938 0.375h-0.0625c0.13917 0.11095 0.27498 0.22511 0.40625 0.34375s0.25799 0.24175 0.375 0.375l0.375-1.0938zm-10.938 4.4375-1 0.5 1.0312 0.5c-0.0148-0.16931-0.0312-0.3264-0.0312-0.5 0-0.0275-2e-3 -0.0836 0-0.15625 6e-3 -0.11583 0.0223-0.23224 0.0312-0.34375h-0.0312zm11.969 0c0.0148 0.16931 0.0312 0.3264 0.0312 0.5 0 0.0275 2e-3 0.0836 0 0.15625-6e-3 0.11583-0.0223 0.23224-0.0312 0.34375h0.0312l1-0.5-1.0312-0.5zm-10.531 4.3438-0.375 1.0938 1.0938-0.375h0.0625c-0.13917-0.11095-0.27498-0.22511-0.40625-0.34375s-0.25799-0.24175-0.375-0.375z" color="#555555" enable-background="accumulate" />
<path d="m11 9c-1.3117 0-2.4048 0.85843-2.8125 2.0312-1.2308 0.15597-2.1875 1.1956-2.1875 2.4688 0 1.3807 1.1193 2.5 2.5 2.5h5.5c1.1046 0 2-0.89543 2-2s-0.89543-2-2-2c0-1.6568-1.3432-3-3-3z" />
</g>
</svg>
