<svg width="16" height="16" viewBox="0 0 16 16" xmlns="http://www.w3.org/2000/svg">
<defs>
<style id="current-color-scheme" type="text/css">.ColorScheme-Text { color:#5c616c; } .ColorScheme-Highlight { color:#5294e2; }</style>
</defs>
<path class="ColorScheme-Text" d="m2 1s-0.076241 0.0041375-0.18164 0.023438c-0.2042 0.0302-0.35866 0.10342-0.47266 0.20312-0.022 0.0169-0.043453 0.035088-0.064453 0.054688-0.0196 0.021-0.037788 0.042353-0.054688 0.064453-0.0997 0.114-0.17302 0.26846-0.20312 0.47266-0.0194 0.1054-0.023438 0.18164-0.023438 0.18164v12c0 1 1 1 1 1h12s1 0 1-1v-12s-0.004437-0.076241-0.023438-0.18164c-0.031-0.2042-0.10312-0.35866-0.20312-0.47266-0.017-0.0221-0.035688-0.043453-0.054688-0.064453-0.021-0.0196-0.042453-0.037788-0.064453-0.054688-0.114-0.0997-0.26866-0.17292-0.47266-0.20312-0.106-0.0193-0.18164-0.023438-0.18164-0.023438h-12zm1 5h10v7h-10v-7z" fill="currentColor"/>
</svg>
