<svg width="16" height="16" viewBox="0 0 16 16" xmlns="http://www.w3.org/2000/svg">
<defs>
<style id="current-color-scheme" type="text/css">.ColorScheme-Text { color:#5c616c; } .ColorScheme-Highlight { color:#5294e2; }</style>
</defs>
<path class="ColorScheme-Text" d="m2 1s-0.076241 0.0041375-0.18164 0.023438c-0.2042 0.0302-0.35866 0.10342-0.47266 0.20312-0.0221 0.0169-0.043453 0.035088-0.064453 0.054688-0.0196 0.021-0.037788 0.042353-0.054688 0.064453-0.0997 0.114-0.17292 0.26846-0.20312 0.47266-0.0193 0.1054-0.023438 0.18164-0.023438 0.18164v12c0 1 1 1 1 1h6v-2h-5v-7h10v2h2v-6s-0.004437-0.076241-0.023438-0.18164c-0.031-0.2042-0.10312-0.35866-0.20312-0.47266-0.017-0.0221-0.035688-0.043453-0.054688-0.064453-0.021-0.0196-0.042453-0.037788-0.064453-0.054688-0.114-0.0997-0.26866-0.17292-0.47266-0.20312-0.106-0.0193-0.18164-0.023438-0.18164-0.023438h-12zm7.5 8s-0.037144 0.0020187-0.089844 0.011719c-0.1021 0.0151-0.17933 0.051762-0.23633 0.10156-0.0111 0.0085-0.022703 0.017544-0.033203 0.027344-0.01 0.0105-0.018844 0.022203-0.027344 0.033203-0.0498 0.057-0.086462 0.13423-0.10156 0.23633-0.01 0.0527-0.011719 0.089844-0.011719 0.089844v6c0 0.5 0.5 0.5 0.5 0.5h6s0.5 0 0.5-0.5v-6s-0.001719-0.037144-0.011719-0.089844c-0.015-0.1021-0.051562-0.17933-0.10156-0.23633-8e-3 -0.011-0.017344-0.022703-0.027344-0.033203-0.01-0.0098-0.022203-0.018844-0.033203-0.027344-0.057-0.0498-0.13433-0.086462-0.23633-0.10156-0.053-0.0097001-0.089844-0.011719-0.089844-0.011719h-6zm0.5 3h5v3h-5v-3z" fill="#363636"/>
</svg>
