<svg width="16" height="16" version="1.1" xmlns="http://www.w3.org/2000/svg">
<g transform="matrix(.31033 0 0 .31033 10.38 -310.14)" fill="#dedede">
<path d="m15.927 1040.2v-1.9983c0-2.7121-2.2065-4.9187-4.9186-4.9187-2.7121 0-4.9186 2.2066-4.9186 4.9187v1.9983c-0.38761 0.081-0.67966 0.4259-0.67966 0.8373v7.4883c0 0.4717 0.38381 0.8555 0.85557 0.8555h9.4854c0.47176 0 0.85557-0.3838 0.85557-0.8555v-7.4883c0-0.4114-0.292-0.7559-0.67962-0.8373zm-1.7111-0.018h-6.415v-1.9801c0-1.7686 1.4388-3.2074 3.2075-3.2074 1.7686 0 3.2075 1.4389 3.2075 3.2074z" fill="#dedede"/>
</g>
<path d="m8 2.6452c-2.6512 0-5.3024 0.82849-7.6221 2.4855l0.66279 0.66279c4.6396-3.024 9.3408-3.0753 13.919 0l0.66279-0.66279c-2.3198-1.657-4.971-2.4855-7.6221-2.4855zm0 3.1068c-1.9884 0-3.9768 0.66279-5.6338 1.9884l0.6628 0.66279c3.314-2.3198 6.6279-2.3405 9.9419 0l0.66279-0.66279c-1.657-1.3256-3.6454-1.9884-5.6338-1.9884zm0 2.8169c-1.3256 0-2.6512 0.4971-3.6454 1.4913l0.66279 0.66279c1.9884-1.8126 3.9768-1.657 5.9652 4e-6l0.66279-0.6628c-0.99419-0.99419-2.3198-1.4913-3.6454-1.4913zm0 2.9826c-0.4971 0-0.99419 0.1657-1.3256 0.4971l1.3256 1.657 1.3256-1.657c-0.3314-0.3314-0.82849-0.4971-1.3256-0.4971z" fill="#dedede" fill-opacity=".39216" stroke-width=".93589"/>
<path d="m8 8.5689c-1.3256 0-2.6512 0.4971-3.6454 1.4913l0.66279 0.66279c1.9884-1.8126 3.9768-1.657 5.9652 4e-6l0.66279-0.6628c-0.99419-0.99419-2.3198-1.4913-3.6454-1.4913zm0 2.9826c-0.4971 0-0.99419 0.1657-1.3256 0.4971l1.3256 1.657 1.3256-1.657c-0.3314-0.3314-0.82849-0.4971-1.3256-0.4971z" fill="#dedede" stroke-width=".93589"/>
</svg>
