<svg width="16" height="16" version="1.1" xmlns="http://www.w3.org/2000/svg">
<g fill="#bebebe">
<path d="m1 5c-0.55291 0-0.99804 0.5231-0.99804 1.1562v4.5625c0 0.63314 0.41568 1.2812 0.96859 1.2812h1c0 0.63315 0.47458 1 1.0275 1h0.99607c0.55291 0 0.97644-0.36685 0.97644-1h5.9882c0 0.63315 0.46672 1 1.0196 1h0.99411c0.55291 0 0.99804-0.36685 0.99804-1h1.002c0.55292 0 0.99804-0.64811 0.99804-1.2812v-4.5625c0-0.63315-0.44512-1.1562-0.99804-1.1562zm0.49902 1.1921c0.2756 0 0.49902 0.92718 0.49902 2.3079s-0.22342 2.238-0.49902 2.238-0.49902-0.85732-0.49902-2.238 0.22342-2.3079 0.49902-2.3079zm1.9961-1.8e-4c0.2756 0 0.49902 1.1193 0.49902 2.5s-0.25828 2.0408-0.53388 2.0408-0.46416-0.85204-0.46416-2.2328 0.22342-2.3081 0.49902-2.3081zm1.9612 0c0.2756 0 0.53388 0.92736 0.53388 2.3081s-0.22342 2.2328-0.49902 2.2328c-0.27559 0-0.49901-0.85204-0.49901-2.2328s0.18856-2.3081 0.46415-2.3081zm7.0211-0.19193c1.378 0 2.4951 1.1193 2.4951 2.5s-1.1171 2.5-2.4951 2.5-2.4951-1.1193-2.4951-2.5 1.1171-2.5 2.4951-2.5z"/>
<path transform="matrix(.75 0 0 .75 107.72 -185)" d="m-125 258a2 2 0 1 1-4 0 2 2 0 1 1 4 0z"/>
</g>
</svg>
