<?xml version="1.0" encoding="UTF-8" standalone="no"?>
<!-- Created with Inkscape (http://www.inkscape.org/) -->

<svg
   width="16"
   height="16"
   viewBox="0 0 16 16"
   version="1.1"
   id="svg4942"
   inkscape:version="1.4.3 (0d15f75, 2025-12-25)"
   sodipodi:docname="drive-optical-symbolic.svg"
   inkscape:export-filename="drive-optical-symbolic.svg"
   inkscape:export-xdpi="96"
   inkscape:export-ydpi="96"
   xmlns:inkscape="http://www.inkscape.org/namespaces/inkscape"
   xmlns:sodipodi="http://sodipodi.sourceforge.net/DTD/sodipodi-0.dtd"
   xmlns:xlink="http://www.w3.org/1999/xlink"
   xmlns="http://www.w3.org/2000/svg"
   xmlns:svg="http://www.w3.org/2000/svg"
   xmlns:rdf="http://www.w3.org/1999/02/22-rdf-syntax-ns#"
   xmlns:cc="http://creativecommons.org/ns#"
   xmlns:dc="http://purl.org/dc/elements/1.1/">
  <defs
     id="defs4936">
    <linearGradient
       id="linearGradient1070"
       inkscape:collect="always">
      <stop
         id="stop1066"
         offset="0"
         style="stop-color:#d7e1e5;stop-opacity:1" />
      <stop
         id="stop1068"
         offset="1"
         style="stop-color:#a1a1a2;stop-opacity:1" />
    </linearGradient>
    <linearGradient
       id="linearGradient1059"
       inkscape:collect="always">
      <stop
         id="stop1055"
         offset="0"
         style="stop-color:#ffffff;stop-opacity:1" />
      <stop
         id="stop1057"
         offset="1"
         style="stop-color:#e5e5e6;stop-opacity:1" />
    </linearGradient>
    <linearGradient
       inkscape:collect="always"
       id="linearGradient913">
      <stop
         style="stop-color:#4c4c4c;stop-opacity:1"
         offset="0"
         id="stop909" />
      <stop
         style="stop-color:#828282;stop-opacity:1"
         offset="1"
         id="stop911" />
    </linearGradient>
    <linearGradient
       inkscape:collect="always"
       id="linearGradient5408-9">
      <stop
         style="stop-color:#dfe5e8;stop-opacity:1"
         offset="0"
         id="stop5404" />
      <stop
         style="stop-color:#c3cacc;stop-opacity:1"
         offset="1"
         id="stop5406" />
    </linearGradient>
    <linearGradient
       id="linearGradient6987"
       inkscape:swatch="solid">
      <stop
         style="stop-color:#77d2fb;stop-opacity:1;"
         offset="0"
         id="stop6985" />
    </linearGradient>
    <radialGradient
       inkscape:collect="always"
       xlink:href="#linearGradient5408-9"
       id="radialGradient5414"
       cx="502.62054"
       cy="372.05499"
       fx="502.62054"
       fy="372.05499"
       r="74.884071"
       gradientTransform="matrix(0.19223905,0,0,0.04791732,-79.689964,275.86294)"
       gradientUnits="userSpaceOnUse" />
    <linearGradient
       inkscape:collect="always"
       xlink:href="#linearGradient1070"
       id="linearGradient5422"
       x1="500.55182"
       y1="216.14406"
       x2="504.37988"
       y2="349.10312"
       gradientUnits="userSpaceOnUse"
       gradientTransform="matrix(0.2039759,0,0,0.2039759,-85.589151,219.90977)" />
    <linearGradient
       inkscape:collect="always"
       xlink:href="#linearGradient1059"
       id="linearGradient1080"
       gradientUnits="userSpaceOnUse"
       gradientTransform="matrix(0.27191715,0,0,0.27191715,-1.4467778,218.35689)"
       x1="63.720749"
       y1="168.65146"
       x2="64.93927"
       y2="249.60991" />
    <linearGradient
       inkscape:collect="always"
       xlink:href="#linearGradient913"
       id="linearGradient1082"
       gradientUnits="userSpaceOnUse"
       gradientTransform="matrix(0.18196709,0,0,0.08510778,19.12851,264.03257)"
       x1="-17.939594"
       y1="351.09601"
       x2="-17.939604"
       y2="361.97751" />
    <linearGradient
       inkscape:collect="always"
       xlink:href="#linearGradient3902"
       id="linearGradient3908-3"
       x1="-82.241356"
       y1="32.69405"
       x2="-50.209465"
       y2="-0.51548463"
       gradientUnits="userSpaceOnUse"
       gradientTransform="matrix(1.0481137,0,0,1.0481261,118.147,54.985513)" />
    <linearGradient
       inkscape:collect="always"
       id="linearGradient3902">
      <stop
         style="stop-color:#dde1ed;stop-opacity:1"
         offset="0"
         id="stop3904" />
      <stop
         id="stop3910"
         offset="0.48509273"
         style="stop-color:#bbbbb6;stop-opacity:1" />
      <stop
         style="stop-color:#d9d7d6;stop-opacity:1"
         offset="1"
         id="stop3906" />
    </linearGradient>
    <linearGradient
       inkscape:collect="always"
       xlink:href="#linearGradient3197"
       id="linearGradient3142-4"
       gradientUnits="userSpaceOnUse"
       x1="-53.607376"
       y1="-8.0132647"
       x2="-12.256078"
       y2="24.827251"
       gradientTransform="matrix(-1.0743165,0,0,-1.0743292,11.264537,124.18549)" />
    <linearGradient
       inkscape:collect="always"
       id="linearGradient3197">
      <stop
         style="stop-color:#ffffff;stop-opacity:0"
         offset="0"
         id="stop3199" />
      <stop
         id="stop3205"
         offset="0.5311414"
         style="stop-color:#ffffff;stop-opacity:0.7" />
      <stop
         style="stop-color:#ffffff;stop-opacity:0"
         offset="1"
         id="stop3201" />
    </linearGradient>
  </defs>
  <sodipodi:namedview
     id="base"
     pagecolor="#ffffff"
     bordercolor="#666666"
     borderopacity="1.0"
     inkscape:pageopacity="0.0"
     inkscape:pageshadow="2"
     inkscape:zoom="25.72"
     inkscape:cx="8.592535"
     inkscape:cy="12.247278"
     inkscape:document-units="mm"
     inkscape:current-layer="svg4942"
     showgrid="false"
     units="px"
     width="128px"
     inkscape:window-width="1920"
     inkscape:window-height="1088"
     inkscape:window-x="0"
     inkscape:window-y="32"
     inkscape:window-maximized="1"
     inkscape:showpageshadow="2"
     inkscape:pagecheckerboard="0"
     inkscape:deskcolor="#d1d1d1" />
  <metadata
     id="metadata4939">
    <rdf:RDF>
      <cc:Work
         rdf:about="">
        <dc:format>image/svg+xml</dc:format>
        <dc:type
           rdf:resource="http://purl.org/dc/dcmitype/StillImage" />
      </cc:Work>
    </rdf:RDF>
  </metadata>
  <g
     id="g2"
     transform="matrix(0.45977767,0,0,0.45977767,0.21443138,-0.12164837)">
    <g
       id="g849"
       transform="matrix(0.98743773,0,0,0.9874822,0.21271802,-259.83873)"
       style="stroke-width:1.0127">
      <path
         style="opacity:0.25;fill:#000000;fill-opacity:1;stroke:none;stroke-width:0.20254;stroke-miterlimit:4;stroke-dasharray:none;stroke-opacity:1"
         d="m 2.1494014,289.98413 c -0.5337479,0.0924 -0.5213646,0.9588 -0.4635048,1.82431 0.020882,1.12292 0.080718,2.42597 0.1805778,3.59487 0.054723,0.97142 0.6511197,1.7573 1.4599087,1.7573 h 0.086566 2.0550632 22.8440777 0.08656 2.055068 0.08656 c 0.808787,0 1.40519,-0.78588 1.459913,-1.7573 0.09986,-1.1689 0.159687,-2.47195 0.180575,-3.59487 0.05787,-0.86551 0.07025,-1.73185 -0.4635,-1.82431 H 29.575737 18.004102 15.862565 4.2909321 Z"
         id="path841"
         inkscape:connector-curvature="0" />
      <path
         inkscape:connector-curvature="0"
         id="rect5373"
         d="m 2.1494014,289.45496 c -0.5337479,0.0924 -0.5213646,0.9588 -0.4635048,1.82431 0.020882,1.12292 0.080718,2.42597 0.1805778,3.59487 0.054723,0.97142 0.6511197,1.7573 1.4599087,1.7573 h 0.086566 2.0550632 22.8440777 0.08656 2.055068 0.08656 c 0.808787,0 1.40519,-0.78588 1.459913,-1.7573 0.09986,-1.1689 0.159687,-2.47195 0.180575,-3.59487 0.05787,-0.86551 0.07025,-1.73185 -0.4635,-1.82431 H 29.575737 18.004102 15.862565 4.2909321 Z"
         style="opacity:1;fill:url(#radialGradient5414);fill-opacity:1;stroke:#808080;stroke-width:0.20254;stroke-miterlimit:4;stroke-dasharray:none;stroke-opacity:1" />
      <path
         style="opacity:1;fill:#f3fdff;fill-opacity:1;stroke:none;stroke-width:0.971255;stroke-miterlimit:4;stroke-dasharray:none;stroke-opacity:1"
         d="m 5.4578344,263.82574 c -0.3076383,-5.3e-4 -0.573725,0.0504 -0.789923,0.1578 -0.3517463,0.13042 -0.5007386,0.37488 -0.6021941,0.77306 l -2.4271135,25.71647 c -0.011912,0.12627 -0.00412,0.2488 0.020558,0.36576 0.00988,0.0468 0.022419,0.0927 0.037524,0.13755 0.00755,0.0225 0.015768,0.0446 0.02456,0.0665 0.026387,0.0657 0.058299,0.129 0.095077,0.18941 0.061297,0.10074 0.1361416,0.19349 0.2218807,0.27639 0.017155,0.0165 0.034712,0.0328 0.052706,0.0485 0.089978,0.0789 0.1902893,0.1475 0.2980904,0.20396 0.021557,0.0113 0.043321,0.0221 0.06546,0.0324 0.1992418,0.0927 0.421084,0.14463 0.6494145,0.14463 H 30.762795 c 0.532692,0 1.030097,-0.28298 1.287551,-0.70593 0.03678,-0.0604 0.06869,-0.1237 0.09508,-0.18941 0.0087,-0.0219 0.017,-0.0441 0.02456,-0.0665 0.0151,-0.0448 0.02766,-0.0908 0.03752,-0.13755 0.02468,-0.11696 0.03248,-0.23949 0.02056,-0.36576 l -2.427114,-25.71647 c -0.101458,-0.39818 -0.250447,-0.64264 -0.602192,-0.77307 -0.216199,-0.10737 -0.482392,-0.15833 -0.790025,-0.15779 l -11.475398,0.0189 z"
         id="path5490"
         inkscape:connector-curvature="0" />
      <path
         inkscape:connector-curvature="0"
         id="rect5346"
         d="m 5.4578344,263.50193 c -0.3076383,-5.4e-4 -0.573725,0.0504 -0.789923,0.1578 -0.3517463,0.13041 -0.5007386,0.37487 -0.6021941,0.77305 l -2.4271135,25.71648 c -0.011912,0.12626 -0.00412,0.24879 0.020558,0.36576 0.00988,0.0468 0.022419,0.0926 0.037524,0.13756 0.00755,0.0225 0.015768,0.0446 0.02456,0.0665 0.026387,0.0657 0.058299,0.12899 0.095077,0.18942 0.061297,0.10074 0.1361416,0.19347 0.2218807,0.27638 0.017155,0.0165 0.034712,0.0327 0.052706,0.0484 0.089978,0.0789 0.1902893,0.14751 0.2980904,0.20397 0.021557,0.0112 0.043321,0.0221 0.06546,0.0324 0.1992418,0.0927 0.421084,0.14462 0.6494145,0.14462 H 30.762795 c 0.532692,0 1.030097,-0.28297 1.287551,-0.70591 0.03678,-0.0604 0.06869,-0.12371 0.09508,-0.18943 0.0087,-0.0219 0.017,-0.0441 0.02456,-0.0665 0.0151,-0.0449 0.02766,-0.0908 0.03752,-0.13756 0.02468,-0.11697 0.03248,-0.2395 0.02056,-0.36576 l -2.427114,-25.71648 c -0.101458,-0.39818 -0.250447,-0.64264 -0.602192,-0.77305 -0.216199,-0.10738 -0.482392,-0.15834 -0.790025,-0.1578 l -11.475398,0.0188 z"
         style="opacity:1;fill:url(#linearGradient5422);fill-opacity:1;stroke:#808080;stroke-width:0.20254;stroke-miterlimit:4;stroke-dasharray:none;stroke-opacity:1" />
      <path
         inkscape:connector-curvature="0"
         id="path5365"
         d="m 6.0408369,264.0336 c -0.6007427,0.004 -1.306132,0.0918 -1.457806,0.72213 L 2.747697,284.7982 c -0.011039,0.0983 -0.00386,0.19384 0.019035,0.28498 0.00916,0.0365 0.020801,0.0721 0.034808,0.10716 0.00699,0.0175 0.014657,0.0347 0.022815,0.0519 0.024472,0.0512 0.054008,0.10043 0.08812,0.14754 0.014603,0.0202 0.030147,0.04 0.046375,0.0594 0.00492,0.006 0.010303,0.0114 0.015364,0.0172 0.011556,0.0132 0.023141,0.0263 0.035436,0.0391 0.00658,0.007 0.013596,0.0134 0.020395,0.0201 0.011746,0.0117 0.023439,0.0232 0.035757,0.0344 0.00641,0.006 0.013187,0.0114 0.019768,0.0172 0.01085,0.009 0.021455,0.019 0.032703,0.0282 0.00288,0.002 0.00593,0.004 0.00884,0.007 0.00384,0.003 0.00778,0.006 0.011693,0.009 0.00944,0.007 0.018707,0.0148 0.028394,0.0218 0.00492,0.004 0.01023,0.007 0.015254,0.0105 0.010168,0.007 0.020475,0.0143 0.030917,0.0214 0.011639,0.008 0.023386,0.0156 0.035335,0.0231 0.011095,0.007 0.022378,0.0138 0.033753,0.0206 0.011992,0.007 0.024092,0.0141 0.036387,0.0209 0.011693,0.006 0.023495,0.0128 0.035439,0.019 0.0124,0.006 0.024989,0.0127 0.037644,0.0188 0.012126,0.006 0.024256,0.0118 0.036594,0.0174 0.00512,0.002 0.010001,0.005 0.015146,0.007 0.014113,0.006 0.028454,0.012 0.042802,0.0178 0.00288,10e-4 0.00571,0.002 0.00865,0.003 0.00313,0.001 0.00611,0.003 0.00924,0.004 0.023085,0.009 0.04652,0.0176 0.070247,0.0256 0,0 1.006e-4,0 1.006e-4,0 0.02575,0.008 0.05202,0.0167 0.078451,0.0242 0.00857,0.002 0.01724,0.004 0.025864,0.007 0.018603,0.005 0.037269,0.009 0.056157,0.0139 0.0096,0.002 0.019243,0.004 0.028919,0.006 0.018148,0.004 0.036401,0.007 0.05479,0.0105 0.00939,0.002 0.018745,0.003 0.028178,0.005 0.019803,0.003 0.039726,0.006 0.059733,0.008 0.00866,0.001 0.017278,0.002 0.025974,0.003 0.021556,0.002 0.04323,0.004 0.064992,0.005 0.00713,5.4e-4 0.01421,10e-4 0.021343,10e-4 0.029082,0.002 0.058253,0.002 0.0876,0.002 H 29.75992 c 0.02935,0 0.05851,-0.001 0.0876,-0.002 0.0072,-5.4e-4 0.01422,-10e-4 0.02134,-10e-4 0.02174,-0.001 0.04343,-0.003 0.06499,-0.005 0.0086,-8.1e-4 0.01732,-0.002 0.02597,-0.003 0.02,-0.002 0.03994,-0.005 0.05973,-0.008 0.0095,-10e-4 0.01882,-0.003 0.02819,-0.005 0.01839,-0.003 0.03663,-0.006 0.05479,-0.0105 0.0097,-0.002 0.01934,-0.004 0.02892,-0.006 0.01927,-0.004 0.03841,-0.009 0.05742,-0.0142 0.008,-0.002 0.01611,-0.004 0.0241,-0.006 0.02665,-0.007 0.05301,-0.0156 0.07897,-0.0244 0,0 1.04e-4,0 1.04e-4,0 0.02374,-0.008 0.04715,-0.0165 0.07024,-0.0256 0.0029,-10e-4 0.0056,-0.002 0.0085,-0.003 0.0041,-0.002 0.008,-0.003 0.012,-0.005 0.01344,-0.005 0.02695,-0.0109 0.04017,-0.0167 0.0051,-0.002 0.01,-0.005 0.01504,-0.007 0.01256,-0.005 0.0249,-0.0118 0.03723,-0.0177 0.01221,-0.006 0.02439,-0.012 0.03639,-0.0182 0.01224,-0.006 0.02432,-0.0129 0.03628,-0.0195 0.01256,-0.007 0.02495,-0.014 0.03723,-0.0213 0.0109,-0.006 0.02169,-0.0131 0.03239,-0.0199 0.0121,-0.007 0.02398,-0.0154 0.03575,-0.0233 0.01044,-0.007 0.02075,-0.0141 0.03091,-0.0214 0.005,-0.003 0.01029,-0.007 0.01526,-0.0105 0.0097,-0.007 0.01898,-0.0146 0.02839,-0.0218 0.0038,-0.003 0.0078,-0.006 0.0117,-0.009 0.0029,-0.002 0.0059,-0.004 0.0088,-0.007 0.01127,-0.009 0.02184,-0.0187 0.03271,-0.0282 0.0066,-0.006 0.01336,-0.0113 0.01976,-0.0172 0.01232,-0.0112 0.02402,-0.0228 0.03575,-0.0344 0.0068,-0.006 0.01382,-0.0133 0.02041,-0.0201 0.01564,-0.0162 0.03066,-0.0328 0.04511,-0.0498 0.0014,-0.002 0.0032,-0.003 0.0048,-0.005 8.3e-5,-1.1e-4 1.29e-4,-2.1e-4 2.06e-4,-5.5e-4 0.0165,-0.0196 0.03227,-0.0397 0.04712,-0.0602 0.03411,-0.0471 0.06376,-0.0964 0.08822,-0.14755 0.0082,-0.017 0.01569,-0.0344 0.02271,-0.0519 0.01403,-0.0349 0.02568,-0.0707 0.03482,-0.10716 0.01717,-0.0683 0.02554,-0.13917 0.02398,-0.21179 -5.36e-4,-0.0242 -0.0022,-0.0486 -0.0049,-0.0732 L 29.283648,264.756 c -0.173348,-0.72041 -1.069855,-0.73126 -1.70693,-0.72034 l -10.643304,0.0146 -10.6433046,-0.0146 c -0.079637,-0.001 -0.1633014,-0.002 -0.2491242,-0.002 z"
         style="opacity:1;fill:url(#linearGradient1080);fill-opacity:1;stroke:#808080;stroke-width:0.20254;stroke-miterlimit:4;stroke-dasharray:none;stroke-opacity:1" />
      <rect
         ry="0.50009465"
         y="293.78391"
         x="5.2508821"
         height="1.0001893"
         width="23.364906"
         id="rect907"
         style="opacity:1;fill:url(#linearGradient1082);fill-opacity:1;stroke:none;stroke-width:0.225333;stroke-linecap:round;stroke-linejoin:round;stroke-miterlimit:4;stroke-dasharray:none;stroke-opacity:1" />
    </g>
    <g
       id="g1">
      <path
         style="opacity:0.05;fill:#000000;fill-opacity:1;stroke-width:3.9754"
         d="m 31.130859,114.42969 c 7.461916,10.92381 20.010897,18.0957 34.238282,18.0957 14.227425,0 26.778327,-7.17183 34.240234,-18.0957 z"
         id="path3179-3"
         transform="scale(0.26458333)" />
      <path
         style="opacity:0.05;fill:#000000;fill-opacity:1;stroke-width:3.9754"
         d="m 31.474609,114.42969 c 7.499514,10.64947 19.879631,17.61328 33.894532,17.61328 14.015062,0 26.396998,-6.9636 33.896484,-17.61328 z"
         id="path3177-7"
         transform="scale(0.26458333)" />
      <path
         style="opacity:0.05;fill:#000000;fill-opacity:1;stroke-width:3.9754"
         d="m 31.837891,114.42969 c 7.532812,10.36078 19.741522,17.10156 33.53125,17.10156 13.790016,0 26.00043,-6.74041 33.533203,-17.10156 z"
         id="path3175-9"
         transform="scale(0.26458333)" />
      <path
         style="opacity:0.05;fill:#000000;fill-opacity:1;stroke-width:3.9754"
         d="m 32.181641,114.42969 c 7.558139,10.09034 19.610342,16.61914 33.1875,16.61914 13.577155,0 25.629361,-6.5288 33.1875,-16.61914 z"
         id="path3173-0"
         transform="scale(0.26458333)" />
      <path
         style="opacity:0.05;fill:#000000;fill-opacity:1;stroke-width:3.9754"
         d="m 32.583984,114.42969 c 7.579238,9.79503 19.441903,16.10742 32.785157,16.10742 13.343251,0 25.205919,-6.31239 32.785156,-16.10742 z"
         id="path3171-2"
         transform="scale(0.26458333)" />
      <path
         style="fill:#e6e6e6;fill-opacity:1;stroke-width:3.9754"
         d="m 33.763672,114.42969 c 7.417343,9.26449 18.814522,15.20508 31.605469,15.20508 12.790809,0 24.188119,-5.94076 31.605468,-15.20508 z"
         id="path3095-3"
         transform="scale(0.26458333)" />
      <path
         style="fill:url(#linearGradient3908-3);fill-opacity:1;stroke-width:3.9754"
         d="m 35.037109,114.42969 c 7.241703,8.68303 18.13881,14.21093 30.332032,14.21093 12.193219,0 23.090329,-5.5279 30.332031,-14.21093 z"
         id="path3093-9"
         transform="scale(0.26458333)" />
      <path
         style="opacity:0.7;fill:url(#linearGradient3142-4);fill-opacity:1;stroke-width:3.9754"
         d="m 33.751953,114.42969 c 7.505737,9.3882 19.019203,15.20508 31.617188,15.20508 v -15.20508 z"
         id="path3207-7"
         transform="scale(0.26458333)" />
    </g>
  </g>
</svg>
