<svg width="16" height="16" version="1.1" xmlns="http://www.w3.org/2000/svg">
<g fill="#bebebe">
<path d="m3.03 1c-1.6692 0-3.0312 1.3621-3.0312 3.0312v7.9375c0 1.6692 1.3621 3.0312 3.0312 3.0312h8.9375c1.6692 0 3.0312-1.3621 3.0312-3.0312v-7.9375c0-1.6692-1.3621-3.0312-3.0312-3.0312h-8.9375zm0 2h8.9375c0.59578 0 1.0312 0.43547 1.0312 1.0312v5.9688h-11v-5.9688c0-0.59578 0.43547-1.0312 1.0312-1.0312zm-1.0312 8h5v2h-3.9688c-0.59578 0-1.0312-0.43547-1.0312-1.0312v-0.96875zm6 0h5v0.96875c0 0.59578-0.43547 1.0312-1.0312 1.0312h-3.9688v-2z" color="#bebebe" style="block-progression:tb;text-indent:0;text-transform:none"/>
<rect x="2" y="3" width="11" height="7" rx="0" ry="0" color="#bebebe" opacity=".35"/>
</g>
</svg>
