<svg width="16" height="16" version="1.1" xmlns="http://www.w3.org/2000/svg">
<g fill="#bebebe">
<path d="m4.18 0c-1.7978 1e-5 -3.1514 1.338-3.1514 3v10c0 1.662 1.3536 3 3.1514 3h7.5721c1.7978-1e-5 3.2452-1.338 3.2452-3v-6.5893l-1.976 2.8772v3.7121c1e-5 0.554-0.48245 1-1.0817 1h-7.9159c-0.59928-1e-5 -1.0192-0.44601-1.0192-1v-10c-1e-5 -0.554 0.41995-0.99999 1.0192-1h7.6608l1.3184-1.75c-0.38069-0.14431-0.81253-0.25-1.2508-0.25z"/>
<path d="m14.04 1.03s-2.5192 3.5064-4.0403 5.969l-1.4057 1.1673 0.0373 1.5739-0.76313 1.2452 0.69536-1e-3 0.74028-0.58334 1.675-0.4626 0.5949-1.481 4.185-6.3646z" color="#000000" enable-background="new" style="block-progression:tb;text-indent:0;text-transform:none"/>
</g>
</svg>
