<svg width="18" height="18" version="1.1" xmlns="http://www.w3.org/2000/svg">
<defs>
<linearGradient id="linearGradient4240" x1="537.2" x2="537.2" y1="986.67" y2="-2.6226" gradientUnits="userSpaceOnUse"/>
</defs>
<g transform="translate(-1.7079 -1031.6)">
<ellipse cx="10.708" cy="1040.6" rx="7.6575" ry="7.6575" fill="#dedede" fill-rule="evenodd" stroke="#dedede" stroke-linecap="round" stroke-width=".68491"/>
</g>
<g transform="translate(-22.836 -1040.4)">
<g transform="matrix(.31548 0 0 .31548 -231.48 981.62)" fill-opacity=".8">
<g transform="matrix(.052563 0 0 .052563 743.12 162.57)" fill-opacity=".8" stroke="url(#linearGradient4240)" stroke-width="9.5124">
<g transform="matrix(3.5847 0 0 3.5847 1515.9 819.92)" fill="#fff" fill-opacity="1" stroke="none">
<path d="m123.86 12.966-11.08-11.08c-1.52-1.521-3.368-2.281-5.54-2.281-2.173 0-4.021 0.76-5.541 2.281l-53.446 53.528-23.953-24.035c-1.521-1.521-3.368-2.281-5.54-2.281-2.173 0-4.02 0.76-5.541 2.281l-11.08 11.08c-1.521 1.521-2.281 3.368-2.281 5.541 0 2.172 0.76 4.02 2.281 5.54l29.493 29.493 11.081 11.08c1.52 1.521 3.367 2.281 5.54 2.281 2.172 0 4.019-0.761 5.54-2.281l11.081-11.08 58.986-58.986c1.52-1.521 2.281-3.368 2.281-5.541 1e-3 -2.172-0.761-4.019-2.281-5.54z" fill="#fff" fill-opacity="1"/>
</g>
</g>
</g>
</g>
</svg>
