<svg width="16" height="16" version="1.1" xmlns="http://www.w3.org/2000/svg">
<g transform="matrix(.66667 0 0 .66667 -258.05 -347.53)">
<g transform="matrix(1.5 0 0 1.5 388.57 -1034.7)">
<g transform="matrix(1.3333 0 0 1.3333 -525.96 334.97)">
<g transform="translate(-.75 .75)">
<g transform="matrix(.75 0 0 .75 394.47 -251.24)" fill="#dedede">
<g fill="#dedede">
<g transform="matrix(1.3296 0 0 1.3296 -524.51 336.67)" fill="#dedede">
<g fill="#dedede">
<g fill="#dedede">
<g fill="#dedede" stroke="#1f2a47">
<g fill="#dedede">
<g transform="translate(17.015 -6.692)" fill="#dedede">
<g fill="#dedede"></g>
</g>
<g transform="matrix(1.0812 0 0 1.0812 392.1 -596.92)">
<g fill="#dedede">
<g fill="#dedede">
<g fill="#dedede" stroke="#000" stroke-opacity=".8">
<g transform="matrix(.78637 0 0 .78395 -313.94 623.61)" fill="#dedede" stroke="none">
<path d="m409 531-5.244 6.7328c-0.98326 1.2624-0.708 3.5111 0.5505 4.4974 1.2585 0.98629 3.5003 0.71019 4.4835-0.55221l5.8995-7.5744c0.65551-0.8416 0.47201-2.3407-0.36699-2.9983-0.83901-0.65753-2.3335-0.47347-2.989 0.36814l-5.244 6.7328c-0.32776 0.4208-0.236 1.1704 0.1835 1.4991 0.4195 0.32875 1.1668 0.23673 1.4945-0.18407l4.5885-5.8912 0.83901 0.65753-4.5885 5.8912c-0.65551 0.84161-2.15 1.0257-2.989 0.36814-0.83901-0.65753-1.0225-2.1567-0.36702-2.9983l5.244-6.7328c0.98325-1.2624 3.225-1.5385 4.4835-0.55221s1.5338 3.235 0.55051 4.4974l-0.6555 0.84161-5.244 6.7328c-1.311 1.6832-4.3 2.0514-5.978 0.73629-1.678-1.3151-2.045-4.3133-0.73401-5.9965l5.244-6.7328 0.83901 0.65753z" fill="#dedede"/>
</g>
</g>
</g>
</g>
</g>
</g>
</g>
</g>
</g>
</g>
</g>
</g>
</g>
</g>
</g>
</g>
</svg>
