<svg width="16" height="16" enable-background="new" version="1.1" xmlns="http://www.w3.org/2000/svg">
<path d="m1 6v6c0 0.5 0 0.5 0.5 0.5h4v1h-4c-1.2459 0-1.5-0.25-1.5-1.5v-6c0-1.2266 0.27344-1.5 1.5-1.5h4.5v1h-4.5c-0.5 0-0.5 0-0.5 0.5z" fill="#0e0e0e"/>
<path d="m13 12v-6c0-0.5 0-0.5-0.5-0.5h-3.5v-1h3.5c1.2459 0 1.5 0.27344 1.5 1.5v6.5c0 0.74742-0.25412 1-1 1h-4.5v-1h4c0.5 0 0.5 0 0.5-0.5z" fill="#0e0e0e"/>
<path d="m15 7.5c1.4047 0.3053 1.1021 2.9272 0 3z" fill="#0e0e0e"/>
<path d="m15 7.5h-0.5v3h0.5z" fill="#0e0e0e"/>
<path d="m5.5 6.5h-3.5v5h4l0.5-1h-3.2407zm3.5 5h3v-5h-3.5l-0.5 1h3.2806z" fill="#0e0e0e"/>
<path d="m6.5 13.5 1-3.5h-3l3-5.5h0.5l-1 3.5h3l-3 5.5z" fill="#0e0e0e"/>
</svg>
