<svg width="16" height="16" version="1.1" viewBox="0 0 12 12" xmlns="http://www.w3.org/2000/svg">
<path d="m10.37 4.8588a4.5 4.5 0 0 0-5.5114-3.182 4.5 4.5 0 0 0-3.182 5.5114 4.5 4.5 0 0 0 5.5114 3.182 4.5 4.5 0 0 0 3.182-5.5114zm-0.86806-0.041894c0.41619 1.3935-0.1801 3.4043-1.9184 4.6465l-0.58234-2.1733 1.117 0.66521c2.1383-2.6504-0.11199-4.9969-2.2817-5.0119l-0.19411-0.72444c1.7704-0.1414 3.47 1.2937 3.8596 2.5979zm-5.1571-2.2502 0.58234 2.1733-1.117-0.66521c-2.1383 2.6504 0.11199 4.9969 2.2817 5.0119l0.19411 0.72444c-1.7704 0.1414-3.4714-1.2933-3.861-2.5975-0.41619-1.3935 0.18152-3.4047 1.9198-4.6469z" fill="#1a1a1a" stroke-width=".75"/>
</svg>
