<svg width="16" height="16" version="1.1" viewBox="0 0 12 12" xmlns="http://www.w3.org/2000/svg">
<path d="m9.2054 2.8415a4.5 4.5 0 0 0-6.364 0 4.5 4.5 0 0 0 0 6.364 4.5 4.5 0 0 0 6.364 0 4.5 4.5 0 0 0 0-6.364zm-0.77271 0.39775c1.0572 0.99869 1.5462 3.0383 0.66188 4.9832l-1.591-1.591 1.2999 0.017609c0.52665-3.3644-2.5955-4.2715-4.4819-3.1996l-0.53033-0.53033c1.4625-1.0076 3.652-0.61465 4.6414 0.32006zm-5.5913 0.62977 1.591 1.591-1.2999-0.017609c-0.52665 3.3644 2.5955 4.2715 4.4819 3.1996l0.53033 0.53033c-1.4625 1.0076-3.653 0.61568-4.6425-0.31903-1.0572-0.99869-1.5451-3.0393-0.66084-4.9843z" fill="#dedede" stroke-width=".75"/>
</svg>
