<svg width="16" height="16" version="1.1" viewBox="1.523 1.524 9 9" xmlns="http://www.w3.org/2000/svg">
<path d="m8.2734 9.9206a4.5 4.5 0 0 0 1.6471-6.1471 4.5 4.5 0 0 0-6.1471-1.6471 4.5 4.5 0 0 0-1.6471 6.1471 4.5 4.5 0 0 0 6.1471 1.6471zm-0.1842-0.84932c-1.2383 0.76267-3.3349 0.70713-4.9847-0.65043l1.9486-1.125-0.35346 1.2511c3.1135 1.3795 4.7977-1.4015 4.2506-3.5011l0.64952-0.375c0.59479 1.6735-0.3515 3.6866-1.5104 4.4004zm0.83881-5.5637-1.9486 1.125 0.35346-1.2511c-3.1135-1.3795-4.7977 1.4015-4.2506 3.5011l-0.64952 0.375c-0.59479-1.6735 0.35076-3.6879 1.5097-4.4017 1.2383-0.76267 3.3357-0.70586 4.9855 0.6517z" fill="#dedede" stroke-width=".75"/>
</svg>
