<svg width="16" height="16" version="1.1" viewBox="1.523 1.523 9 9" xmlns="http://www.w3.org/2000/svg">
<path transform="scale(.75)" d="m8.0312 2.0312a6 6 0 0 0-6 6 6 6 0 0 0 6 6 6 6 0 0 0 6-6 6 6 0 0 0-6-6zm0.24023 1.0977c0.24726 0.0084843 0.48242 0.039337 0.70312 0.091797 1.8865 0.44841 3.8124 2.4771 4.0879 5.3125l-2.8984-0.77539 1.5117-0.84766c-1.6348-4.236-5.8429-3.2004-7.3066-0.70508l-0.9668-0.25977c0.88986-1.8712 3.1383-2.8758 4.8691-2.8164zm-5.332 4.5469 2.8965 0.77539-1.5117 0.84766c1.6348 4.236 5.8449 3.2004 7.3086 0.70508l0.96484 0.25977c-1.017 2.1385-3.8066 3.1462-5.5723 2.7266-1.8865-0.44841-3.8104-2.4791-4.0859-5.3145z" fill="#dedede"/>
</svg>
