<svg width="16" height="16" version="1.1" viewBox="1.523 1.523 9 9" xmlns="http://www.w3.org/2000/svg">
<path d="m9.2054 9.2054a4.5 4.5 0 0 0 0-6.364 4.5 4.5 0 0 0-6.364 0 4.5 4.5 0 0 0-4e-7 6.364 4.5 4.5 0 0 0 6.364 0zm-0.39775-0.77271c-0.99869 1.0572-3.0383 1.5462-4.9832 0.66188l1.591-1.591-0.017609 1.2999c3.3644 0.52665 4.2715-2.5955 3.1996-4.4819l0.53033-0.53033c1.0076 1.4625 0.61465 3.652-0.32006 4.6414zm-0.62977-5.5913-1.591 1.591 0.017609-1.2999c-3.3644-0.52665-4.2715 2.5955-3.1996 4.4819l-0.53033 0.53033c-1.0076-1.4625-0.61568-3.653 0.31903-4.6425 0.99869-1.0572 3.0393-1.5451 4.9843-0.66084z" fill="#dedede" stroke-width=".75"/>
</svg>
