<svg width="16" height="16" version="1.1" viewBox="1.523 1.523 9 9" xmlns="http://www.w3.org/2000/svg">
<path transform="scale(.75)" d="m8.0312 2.0312a6 6 0 0 0-6 6 6 6 0 0 0 6 6 6 6 0 0 0 6-6 6 6 0 0 0-6-6zm-0.35352 1.1035c1.9383-0.055135 4.3223 1.4068 5.3223 4.0742h-3l1.2422-1.209c-2.6755-3.6685-6.4742-1.5802-7.2422 1.209h-1c0.42884-2.3289 2.8636-4.0226 4.6777-4.0742zm-4.6777 5.8652h3l-1.2422 1.209c2.6755 3.6685 6.4742 1.5802 7.2422-1.209h1c-0.42884 2.3289-2.8636 4.0246-4.6777 4.0762-1.9383 0.055135-4.3223-1.4087-5.3223-4.0762z" fill="#dedede"/>
</svg>
