<svg xmlns="http://www.w3.org/2000/svg" width="16" height="16" enable-background="new" version="1.1">
<g>
<g transform="matrix(0.75 0 0 0.75 -244.75 -401.02)" fill="#bebebe">
<g transform="matrix(1.3333 0 0 1.3333 -197.1 -163.7)" fill="#bebebe">
<g transform="matrix(1.5 0 0 1.5 405 -1038.3)">
<g fill="#bebebe">
<g fill="#bebebe">
<g fill="#bebebe">
<g fill="#bebebe">
<g fill="#bebebe">
<g fill="#bebebe">
<g>
<g />
</g>
<g transform="matrix(0.56277 0 0 0.55302 -311.05 750.34)">
<g transform="matrix(2.3627 0 0 2.4044 528.64 -1975)">
<g transform="matrix(.76566 0 0 .76566 -71.225 1017.9)" fill="#bebebe">
<g fill="#bebebe">
<g fill="#bebebe">
<g transform="matrix(0.60498 0 0 0.60498 -176.98 -284.385)" fill="#bebebe" />
</g>
</g>
</g>
</g>
<g transform="matrix(1.4808 0 0 1.5069 -45.117 -265.56)">
<g fill="#bebebe">
<g fill="#bebebe" />
</g>
</g>
</g>
</g>
</g>
</g>
</g>
</g>
</g>
</g>
<g transform="matrix(.75183 0 0 .75183 392.28 -251.07)">
<g transform="translate(-.0051474 3.5754e-6)" fill="#bebebe">
<g transform="matrix(1.2511 0 0 1.2511 1.123 -264.95)" fill="#bebebe">
<g transform="matrix(.033901 0 0 .033901 1.5421 1037.7)" fill="#bebebe">
<path d="m299.02 161.26h-185.84v-46.285c0-41.344 33.635-74.979 74.979-74.979 33.758 0 63.513 22.716 72.359 55.241 2.898 10.657 13.888 16.946 24.547 14.05 10.659-2.898 16.949-13.889 14.05-24.548-13.57-49.896-59.196-84.744-110.96-84.744-63.4 0-114.98 51.58-114.98 114.98v46.715c-9.061 1.902-15.888 9.952-15.888 19.571v175.05c0 11.028 8.972 20 20 20h221.73c11.028 0 20-8.972 20-20v-175.05c0-11.029-8.972-20-20-20z" />
<path d="m215.02 310.91c0.408 2.162-1.058 3.931-3.258 3.931h-46.677c-2.2 0-3.666-1.769-3.258-3.931l7.432-39.387c-5.626-5.131-9.157-12.52-9.157-20.734 0-15.495 12.561-28.056 28.056-28.056s28.056 12.561 28.056 28.056c0 7.991-3.346 15.195-8.707 20.305z" />
</g>
</g>
</g>
</g>
<g>
<g fill="#bebebe">
<g transform="matrix(1.2025 0 0 1.2025 300.42 -720.688)" fill="#bebebe">
<g fill="#bebebe">
<g transform="matrix(0.78637 0 0 0.78395 -307.684 623.28)" fill="#bebebe">
<g transform="matrix(.66776 0 0 .66983 94.696 188.8)" fill="#bebebe">
<g fill="#bebebe" />
</g>
</g>
</g>
</g>
</g>
</g>
</g>
</g>
</g>
</svg>
