<svg width="16" height="16" enable-background="new" version="1.1" xmlns="http://www.w3.org/2000/svg">
<path d="m8-5.2e-6a8 8 0 0 0-8 8 8 8 0 0 0 8 8 8 8 0 0 0 8-8 8 8 0 0 0-8-8zm-0.19922 3.5a1 1 0 0 1 1 1 1 1 0 0 1-1 1 1 1 0 0 1-1-1 1 1 0 0 1 1-1zm-0.10742 3h0.21289c0.35615 0 0.64454 0.28644 0.64454 0.64258v4.7148c0 0.35615-0.28839 0.64259-0.64454 0.64259h-0.21289c-0.35614 0-0.64258-0.28644-0.64258-0.64259v-4.7148c0-0.35614 0.28644-0.64258 0.64258-0.64258z" fill="#bebebe" fill-rule="evenodd"/>
</svg>
