<svg width="16" height="16" version="1.1" xmlns="http://www.w3.org/2000/svg">
<g transform="matrix(.66846 .38593 -.38593 .66846 -271.69 27.687)" color="#bebebe" fill="#1a1a1a">
<path transform="matrix(1.122 -.64778 .64778 1.122 286.89 -207.06)" d="m10.057 3.377a0.77187 0.77187 0 0 0-0.54102 0.375l-0.0039062 0.0078125c-1.3551-0.37597-2.8404 0.29261-3.5449 1.5098 0 0-1.9296 3.3421-3.2793 3.1172-0.014555 5.096e-4 -0.026588 0.011543-0.042969 0.013672a0.56038 0.56038 0 0 0-0.17578 0.054688c-0.022452 0.011102-0.043903 0.015315-0.064453 0.029297a0.56964 0.56964 45 0 0-0.1875 0.19141c-0.16016 0.27741-0.06452 0.63085 0.21289 0.79102l7.0176 4.0508c0.27808 0.16055 0.63085 0.066473 0.79102-0.21094a0.56964 0.56964 45 0 0 0.072266-0.25586c0.002219-0.025457-0.004916-0.047656-0.005859-0.072265a0.55961 0.55961 0 0 0-0.041016-0.17969c-0.006064-0.014196-0.002261-0.029723-0.009766-0.042969-0.86959-1.0564 1.0605-4.4004 1.0605-4.4004 0.33065-0.57416 0.46102-1.2368 0.41016-1.8809-1.039-0.2397-1.8242-1.1714-1.8242-2.2793 0-0.28815 0.059505-0.56246 0.15625-0.81836zm-5.7969 8.0371a1.5437 1.5437 0 0 0 0.71484 1.748 1.5437 1.5437 0 0 0 1.873-0.25391l-2.5879-1.4941z" fill="#1d1d1d" style="isolation:auto;mix-blend-mode:normal"/>
</g>
<circle cx="12.246" cy="4.1949" r="1.6949" fill="#1d1d1d"/>
</svg>
