<svg width="16" height="16" enable-background="new" version="1.1" viewBox="2 2 12 12" xmlns="http://www.w3.org/2000/svg">
<defs>
<style id="current-color-scheme" type="text/css">.ColorScheme-Text {
        color:#bebebe;
      }</style>
<style id="current-color-scheme-7" type="text/css">.ColorScheme-Text {
        color:#dedede
      }</style>
</defs>
<g transform="matrix(.52112 0 0 .52112 7.285 1.6836)" fill="#fff"></g>
<circle transform="matrix(-.064329 -.99793 .99793 -.064329 0 0)" cx="-11.077" cy="-.89368" r="0" fill="#bebebe"/>
<text x="-3.3407464" y="18.859184" fill="#bebebe" font-family="sans-serif" font-size="20.899px" letter-spacing="0px" stroke-width="1px" word-spacing="0px" style="line-height:125%" xml:space="preserve"><tspan x="-3.3407464" y="18.859184" fill="#bebebe" font-family="'DejaVu Sans'"/></text>
<path d="m8 14a6 6 0 0 1-6-6 6 6 0 0 1 6-6 6 6 0 0 1 6 6 6 6 0 0 1-6 6zm-0.14948-2.625a0.75 0.75 0 0 0 0.75-0.74998 0.75 0.75 0 0 0-0.75-0.75 0.75 0.75 0 0 0-0.75 0.75 0.75 0.75 0 0 0 0.75 0.74998zm-0.080574-2.25h0.15977c0.2671 0 0.4834-0.21486 0.4834-0.48192v-3.5361c0-0.26712-0.21629-0.48192-0.4834-0.48192h-0.15977c-0.2671 0-0.48194 0.2148-0.48194 0.48192v3.5361c0 0.26712 0.21484 0.48192 0.48194 0.48192z" fill="#e74c3c" fill-rule="evenodd"/>
</svg>
