<svg width="16" height="16" version="1.1" viewBox="0 0 16 16" xmlns="http://www.w3.org/2000/svg">
<path d="m10 2c-0.55889 0.018162-0.89051 0.73357-0.55124 1.1554l2.9802 2.9802c0.4781 0.43445 1.2021 0.062027 1.201-0.57769l-0.012943-2.9473c0.00262-0.25515-0.31357-0.60301-0.61065-0.61062zm-7.2027 0.018668c-0.38757-0.0045135-0.69955 0.31196-0.69955 0.69955v2.2592c0.00237 0.3008 0.10901 0.40271 0.36819 0.67103 2.2263 2.2248 5.0156 4.9358 7.4775 7.4218 0.26832 0.25918 0.37023 0.36581 0.67103 0.36818h2.2592c0.3876 0 0.70407-0.31198 0.69955-0.69955l-0.02774-2.3883c-0.021472-0.34375-0.18776-0.42239-0.43586-0.6884-2.1549-2.1564-4.8538-4.7795-7.2356-7.1799-0.26602-0.24811-0.34466-0.41439-0.6884-0.43586zm0.021261 7.1856c-0.36923 0.011772-0.71117 0.32509-0.71044 0.76489l0.012971 2.9473c-0.00265 0.25515 0.31354 0.60301 0.61062 0.61062h3.0064c0.55889-0.01816 0.89051-0.73357 0.55124-1.1554l-2.98-2.98c-0.1494-0.13576-0.323-0.19282-0.49083-0.18746z" fill="#dedede"/>
</svg>
