<svg width="16" height="16" enable-background="new" version="1.1" xmlns="http://www.w3.org/2000/svg">
<path d="m7.9999 0c-0.84377 0.83262-1.6488 1.7893-2.5064 2.6073h-2.8862v2.8862c-0.81811 0.85766-1.7745 1.6627-2.6073 2.5064 0.83269 0.84383 1.7892 1.6831 2.6073 2.5408v2.8541h2.8862c0.85766 0.81811 1.6627 1.7724 2.5064 2.6052 0.84383-0.83269 1.6831-1.7871 2.5408-2.6052l2.852-0.0027v-2.8518c0.81811-0.85767 1.7745-1.6969 2.6073-2.5408-0.83269-0.84385-1.7892-1.6487-2.6073-2.5064v-2.8884l-2.852 0.00267c-0.85767-0.81812-1.6969-1.7745-2.5408-2.6073zm0 3.7725 2.8154 4.2232h-1.7168v4.4634l-2.1974-0.034266v-4.4292h-1.7168c1.2812-1.8704 2.4668-3.687 2.8154-4.2232z" enable-background="new" fill="#bebebe" stroke-width="1.3333"/>
</svg>
