<svg xmlns="http://www.w3.org/2000/svg" width="16" height="16" enable-background="new" version="1.1">
<defs>
<filter color-interpolation-filters="sRGB">
<feBlend in2="BackgroundImage" mode="darken" />
</filter>
<filter color-interpolation-filters="sRGB">
<feBlend in2="BackgroundImage" mode="darken" />
</filter>
</defs>
<g>
<path d="m8 2c-0.63283 0.62447-1.2366 1.342-1.8798 1.9555h-2.1647v2.1647c-0.61359 0.64325-1.3309 1.247-1.9555 1.8798 0.62452 0.63288 1.3419 1.2623 1.9555 1.9056v2.1406h2.1647c0.64325 0.6136 1.247 1.3293 1.8798 1.9539 0.63288-0.62452 1.2623-1.3403 1.9056-1.9539l2.139-2e-3v-2.1389c0.61359-0.64326 1.3309-1.2727 1.9555-1.9056-0.62452-0.63289-1.3419-1.2365-1.9555-1.8798v-2.1663l-2.139 2e-3c-0.64326-0.61359-1.2727-1.3309-1.9056-1.9555zm-0.066 3.2189h0.13037c0.2201 0 0.39914 0.17582 0.39914 0.39592v2.9147c0 0.2201-0.17904 0.39753-0.39914 0.39753h-0.13037c-0.2201 0-0.39753-0.17743-0.39753-0.39753v-2.9147c0-0.2201 0.17743-0.39592 0.39753-0.39592zm0.066 4.3262c0.34132 0 0.61803 0.2767 0.61803 0.61803 0 0.34132-0.27671 0.61802-0.61803 0.61802s-0.61803-0.2767-0.61803-0.61802c0-0.34133 0.27671-0.61803 0.61803-0.61803z" fill="#f67d42" />
</g>
</svg>
