<svg width="16" height="16" enable-background="new" version="1.1" xmlns="http://www.w3.org/2000/svg">
<path d="m7.9999 0c-0.84377 0.83262-1.6488 1.7893-2.5064 2.6073h-2.8862v2.8862c-0.81811 0.85766-1.7745 1.6627-2.6073 2.5064 0.83269 0.84383 1.7892 1.6831 2.6073 2.5408v2.8541h2.8862c0.85766 0.81813 1.6627 1.7724 2.5064 2.6052 0.84383-0.83269 1.6831-1.7871 2.5408-2.6052l2.852-0.0027v-2.8518c0.81811-0.85767 1.7745-1.6969 2.6073-2.5408-0.83269-0.84385-1.7892-1.6487-2.6073-2.5064v-2.8884l-2.852 0.00267c-0.85767-0.81812-1.6969-1.7745-2.5408-2.6073zm-0.087999 4.2918h0.17382c0.29346 0 0.53218 0.23442 0.53218 0.52789v3.8862c0 0.29346-0.23872 0.53004-0.53218 0.53004h-0.17382c-0.29346 0-0.53004-0.23657-0.53004-0.53004v-3.8862c0-0.29346 0.23657-0.52789 0.53004-0.52789zm0.087999 5.7682c0.45509 0 0.82403 0.36893 0.82403 0.82403 0 0.45509-0.36894 0.82402-0.82403 0.82402-0.45509 0-0.82403-0.36893-0.82403-0.82402 0-0.4551 0.36894-0.82403 0.82403-0.82403z" fill="#f67d42" stroke-width="1.3333"/>
</svg>
