<svg id="prefix__prefix__prefix__svg2" viewBox="0 0 16 16" version="1.1" xmlns:xlink="http://www.w3.org/1999/xlink" xmlns="http://www.w3.org/2000/svg"><defs id="prefix__prefix__prefix__defs3051"><linearGradient gradientTransform="translate(-159.674 -213.414) scale(.42857)" xlink:href="#prefix__prefix__prefix__linearGradient8467-7-3" id="prefix__prefix__prefix__linearGradient4181" gradientUnits="userSpaceOnUse" x1="399.994" y1="545.139" x2="399.994" y2="518.139"/><linearGradient id="prefix__prefix__prefix__linearGradient8467-7-3"><stop offset="0" id="prefix__prefix__prefix__stop8469-4-0" stop-color="#5eb220" stop-opacity="1"/><stop offset="1" id="prefix__prefix__prefix__stop8471-7-5" stop-color="#5db220" stop-opacity="1"/></linearGradient><style type="text/css" id="current-color-scheme"/></defs><g id="prefix__prefix__prefix__g1" transform="matrix(1.33333 0 0 1.33333 -8 -11.333)"><circle r="6" cy="14.5" cx="12" id="prefix__prefix__prefix__path3377" style="mix-blend-mode:normal" opacity="1" fill="url(#prefix__prefix__prefix__linearGradient4181)" fill-opacity="1" stroke="none" stroke-width="1.3" stroke-miterlimit="4" stroke-dasharray="none" stroke-dashoffset="0" stroke-opacity="1"/><path d="M15.468 12.874l-.64-.641a.436.436 0 00-.321-.132.436.436 0 00-.32.132l-3.092 3.096-1.386-1.39a.436.436 0 00-.32-.132.436.436 0 00-.32.132l-.641.64a.436.436 0 00-.132.321c0 .126.044.232.132.32l1.706 1.706.64.641a.436.436 0 00.32.132.437.437 0 00.321-.132l.641-.64 3.412-3.413a.437.437 0 00.132-.32.436.436 0 00-.132-.32z" id="prefix__prefix__prefix__path4469" fill="#fff" fill-opacity=".851"/></g></svg>