<svg version="1.1" viewBox="0 0 16 16" xmlns="http://www.w3.org/2000/svg">
<defs>
<linearGradient id="prefix__prefix__prefix__linearGradient4160-4" x1="2" x2="46.54" y1="1028.4" y2="1031.1" gradientTransform="translate(-21.787 -269.42) scale(.27273)" gradientUnits="userSpaceOnUse"/>
<style id="current-color-scheme" type="text/css"/>
</defs>
<g transform="matrix(1.3333 0 0 1.3333 -8 -11.334)">
<circle transform="rotate(266.31)" cx="-15.242" cy="11.042" r="6" fill="url(#prefix__prefix__prefix__linearGradient4160-4)"/>
<path d="M12.008 10.326c.879.002 1.77.276 2.465.817.489.564-.443 1.167-.863.618-1.263-.765-3.045-.496-3.995.647a3.14 3.14 0 00-.788 2.084h.835l-1.336 2.004-1.336-2.004h.835c-.026-1.814 1.278-3.54 3.03-4.01a4.24 4.24 0 011.153-.156zm3.666 2.17l1.336 2.005h-.835c.023 1.835-1.315 3.58-3.097 4.026-1.203.335-2.563.09-3.551-.678-.504-.573.44-1.17.864-.616 1.224.743 2.938.507 3.905-.554a3.14 3.14 0 00.877-2.178h-.835l1.335-2.004z" fill="#fff" fill-opacity=".859" stroke-width="1.317"/>
</g>
</svg>
