<svg id="prefix__prefix__prefix__svg2" viewBox="0 0 16 16" version="1.1" xmlns:xlink="http://www.w3.org/1999/xlink" xmlns="http://www.w3.org/2000/svg"><defs id="prefix__prefix__prefix__defs3051"><linearGradient gradientTransform="translate(-159.674 -213.414) scale(.42857)" xlink:href="#prefix__prefix__prefix__linearGradient8467-7-3" id="prefix__prefix__prefix__linearGradient4181" gradientUnits="userSpaceOnUse" x1="399.994" y1="545.139" x2="399.994" y2="518.139"/><linearGradient id="prefix__prefix__prefix__linearGradient8467-7-3"><stop offset="0" id="prefix__prefix__prefix__stop8469-4-0" stop-color="#0bac83" stop-opacity="1"/><stop offset="1" id="prefix__prefix__prefix__stop8471-7-5" stop-color="#10da96" stop-opacity="1"/></linearGradient><style type="text/css" id="current-color-scheme"/></defs><g id="prefix__prefix__prefix__g1" transform="matrix(1.33333 0 0 1.33333 -8 -11.333)" stroke="none"><circle r="6" cy="14.5" cx="12" id="prefix__prefix__prefix__path3377" opacity="1" fill="url(#prefix__prefix__prefix__linearGradient4181)" fill-opacity="1" stroke-width="1.3" stroke-miterlimit="4" stroke-dasharray="none" stroke-dashoffset="0" stroke-opacity="1"/><path d="M412.39 537.333a1.023 1.023 0 00-1.454 0l-4.057 4.496-4.057-4.496a1.023 1.023 0 00-1.453 0 1.037 1.037 0 000 1.461l4.72 5.231c.216.219.506.315.79.297.284.018.574-.078.791-.297l4.72-5.231a1.038 1.038 0 000-1.461zm-5.517-4.352c.935 0 1.693-.761 1.693-1.7 0-.94-.758-1.7-1.693-1.7s-1.693.76-1.693 1.7c0 .939.758 1.7 1.693 1.7zm0 4.859c.935 0 1.693-.762 1.693-1.7 0-.94-.758-1.701-1.693-1.701s-1.693.761-1.693 1.7c0 .94.758 1.7 1.693 1.7z" id="prefix__prefix__prefix__Download" transform="matrix(.51707 0 0 .51548 -198.454 -262.028)" fill="#fff" fill-opacity=".851" stroke-opacity=".8"/></g></svg>