<svg width="16" height="16" version="1.1" viewBox="0 0 16 16" xmlns="http://www.w3.org/2000/svg">
<defs>
<linearGradient id="prefix__prefix__prefix__linearGradient4160-4" x1="2" x2="46.54" y1="1028.4" y2="1031.1" gradientTransform="translate(-21.787 -269.42) scale(.27273)" gradientUnits="userSpaceOnUse"/>
<style id="current-color-scheme" type="text/css"/>
</defs>
<g transform="matrix(1.3333 0 0 1.3333 -8 -11.334)">
<circle transform="rotate(266.31)" cx="-15.242" cy="11.042" r="6" fill="url(#prefix__prefix__prefix__linearGradient4160-4)"/>
<path d="M11.998 18.317a.541.541 0 01-.543-.543v-3.822c0-.301.242-.543.543-.543h.004c.301 0 .543.242.543.543v3.822a.541.541 0 01-.543.543zm.002-6a.543.543 0 01-.545-.545c0-.302.243-.544.545-.544a.545.545 0 110 1.09z" fill="#fff" fill-opacity=".859"/>
</g>
</svg>
