<svg width="16" height="16" version="1.1" viewBox="2.501 2 11 12" xmlns="http://www.w3.org/2000/svg">
<defs>
<style id="current-color-scheme" type="text/css">.ColorScheme-Text {
        color:#bebebe;
      }</style>
<style id="current-color-scheme-1" type="text/css">.ColorScheme-NegativeText {
        color:#da4453;
      }</style>
</defs>
<g transform="matrix(.91667 0 0 .92308 -308.25 -21.077)">
<path d="m345 25c-0.554 0-1 0.446-1 1v4c0 0.554 0.446 1 1 1s1-0.446 1-1v-4c0-0.554-0.446-1-1-1zm-3 2c-0.23384 0-0.45573 0.084-0.625 0.21875-0.16288 0.13731-0.21487 0.18641-0.28125 0.25-1.2788 1.0966-2.0938 2.712-2.0938 4.5312 0 3.3137 2.6863 6 6 6s6-2.6863 6-6c0-1.8192-0.81497-3.4346-2.0938-4.5312-0.0664-0.0636-0.11837-0.11269-0.28125-0.25-0.16927-0.13471-0.39116-0.21875-0.625-0.21875-0.55229 0-1 0.44772-1 1 0 0.31104 0.14829 0.57085 0.375 0.75 0.0403 0.0378 0.0534 0.0594 0.125 0.125 0.9241 0.72905 1.5 1.8535 1.5 3.125 0 2.2091-1.7909 4-4 4s-4-1.7909-4-4c0-1.2715 0.5759-2.396 1.5-3.125 0.0716-0.0656 0.0847-0.0872 0.125-0.125 0.22671-0.17915 0.375-0.43896 0.375-0.75 0-0.55228-0.44772-1-1-1z" color="#000000" fill="#bebebe"/>
</g>
</svg>
