<svg xmlns="http://www.w3.org/2000/svg" width="16" height="16" enable-background="new" version="1.1">
<g>
<path d="m8 5c1.6568 0 3 1.3432 3 3s-1.3432 3-3 3-3-1.3432-3-3 1.3432-3 3-3m0-3 1.434 2.052c-0.444-0.162-0.93-0.252-1.434-0.252s-0.99 0.09-1.434 0.252l1.434-2.052m-5.196 3 2.496-0.21c-0.36 0.306-0.684 0.678-0.936 1.11-0.264 0.444-0.414 0.9-0.498 1.374l-1.062-2.274m0.012 6 1.056-2.262c0.084 0.462 0.246 0.93 0.498 1.362 0.252 0.444 0.576 0.816 0.93 1.122l-2.484-0.222m10.374-6-1.062 2.274c-0.084-0.474-0.246-0.936-0.498-1.374-0.252-0.432-0.57-0.81-0.93-1.116l2.49 0.216m-6e-3 6-2.484 0.216c0.354-0.306 0.672-0.684 0.924-1.116 0.252-0.438 0.414-0.9 0.498-1.374l1.062 2.274m-5.184 3-1.446-2.064c0.444 0.162 0.93 0.264 1.446 0.264 0.492 0 0.978-0.102 1.422-0.264z" fill="#bebebe" />
</g>
</svg>
