<svg width="36" height="36" version="1.1" xmlns="http://www.w3.org/2000/svg">
<path d="m30.527 0.0078125-16.584 4.2871c-1.2459 0.33383-2.25 1.6614-2.25 2.9512v20.451c-1.2633-0.66151-2.8862-0.92926-4.5684-0.49219-3.0354 0.7887-4.9378 3.3386-4.2871 5.6934 0.65067 2.3548 3.6423 3.6696 6.6777 2.8809 2.4216-0.62922 4.0912-2.4098 4.3574-4.2871l0.07031-19.326 15.74-4.2168v15.25c-1.2633-0.66151-2.8843-0.92926-4.5664-0.49219-3.0354 0.7887-4.9378 3.3386-4.2871 5.6934 0.65067 2.3548 3.6404 3.6696 6.6758 2.8809 2.4216-0.62922 4.0912-2.4098 4.3574-4.2871l0.07031-25.158c0-0.96736-0.59856-1.692-1.4062-1.8281z" color="#bebebe" fill="#525252" fill-opacity=".76744" opacity=".813"/>
</svg>
