<svg width="36" height="36" version="1.1" xmlns="http://www.w3.org/2000/svg">
<path d="m5.0751 2.4107c-0.872 0-1.574 0.702-1.574 1.574v28.332c0 0.872 0.702 1.574 1.574 1.574h26.233c0.872 0 1.574-0.702 1.574-1.574v-28.332c0-0.872-0.702-1.574-1.574-1.574zm0.52467 2.0987h2.0987v2.0987h-2.0987zm5.2467 0h14.691c0.58133 0 1.0493 0.468 1.0493 1.0493v10.493c0 0.58133-0.468 1.0493-1.0493 1.0493h-14.691c-0.58133 0-1.0493-0.468-1.0493-1.0493v-10.493c0-0.58133 0.468-1.0493 1.0493-1.0493zm17.839 0h2.0987v2.0987h-2.0987zm-23.085 4.1973h2.0987v2.0987h-2.0987zm23.085 0h2.0987v2.0987h-2.0987zm-23.085 4.1973h2.0987v2.0987h-2.0987zm23.085 0h2.0987v2.0987h-2.0987zm-23.085 4.1973h2.0987v2.0987h-2.0987zm23.085 0h2.0987v2.0987h-2.0987zm-17.839 2.0987h14.691c0.58133 0 1.0493 0.468 1.0493 1.0493v10.493c0 0.58133-0.468 1.0493-1.0493 1.0493h-14.691c-0.58133 0-1.0493-0.468-1.0493-1.0493v-10.493c0-0.58133 0.468-1.0493 1.0493-1.0493zm-5.2467 2.0987h2.0987v2.0987h-2.0987zm23.085 0h2.0987v2.0987h-2.0987zm-23.085 4.1973h2.0987v2.0987h-2.0987zm23.085 0h2.0987v2.0987h-2.0987zm-23.085 4.1973h2.0987v2.0987h-2.0987zm23.085 0h2.0987v2.0987h-2.0987z" color="#bebebe" fill="#434343" fill-opacity=".68067"/>
<path d="m10.846 4.5097c-0.58133 0-1.0487 0.46732-1.0487 1.0487v10.493c0 0.58133 0.46732 1.0504 1.0487 1.0504h14.691c0.58133 0 1.0486-0.46903 1.0486-1.0504v-10.493c0-0.58133-0.46732-1.0487-1.0486-1.0487z" fill-opacity=".079832"/>
<path d="m10.846 19.199c-0.58133 0-1.0487 0.46903-1.0487 1.0504v10.493c0 0.58133 0.46732 1.0486 1.0487 1.0486h14.691c0.58133 0 1.0486-0.46732 1.0486-1.0486v-10.493c0-0.58133-0.46732-1.0504-1.0486-1.0504z" fill-opacity=".26891"/>
</svg>
