<svg xmlns="http://www.w3.org/2000/svg" width="36" height="36" version="1.1">
<g>
<path d="m18 0.75a17.25 17.25 0 0 0-17.25 17.25 17.25 17.25 0 0 0 17.25 17.25 17.25 17.25 0 0 0 17.25-17.25 17.25 17.25 0 0 0-17.25-17.25zm0 1.9167a15.333 15.333 0 0 1 15.333 15.333 15.333 15.333 0 0 1-15.333 15.333 15.333 15.333 0 0 1-15.333-15.333 15.333 15.333 0 0 1 15.333-15.333z" fill-opacity=".63866" />
<path transform="translate(0 0)" d="m18 2.666c-8.4684 0-15.334 6.8656-15.334 15.334 1e-5 8.4684 6.8656 15.334 15.334 15.334s15.334-6.8656 15.334-15.334c-1e-5 -8.4684-6.8656-15.334-15.334-15.334zm-3.9219 3.1973c0.19272 0 0.38919 0.020094 0.58594 0.058594 1.5783 0.3124 2.6133 1.8494 2.2969 3.4277-0.31243 1.5783-1.8551 2.6054-3.4375 2.293-1.5783-0.31242-2.6054-1.8494-2.293-3.4277 0.23534-1.1848 1.1637-2.0617 2.2754-2.293h0.003907c0.18461-0.0378 0.37553-0.058594 0.56836-0.058594zm3.707 5.6992c0.18815 0.0044 0.37225 0.029366 0.55078 0.072266l4.0176 0.73438c0.11759 0.02076 0.22833 0.060481 0.33789 0.11328l2.9238 1.4141c0.66139 0.32054 0.94161 1.1179 0.62109 1.7793-0.23128 0.47472-0.70812 0.75195-1.2031 0.75195-0.19467 0-0.39347-0.045465-0.58008-0.13476l-2.7578-1.334-1.2285-0.22852 0.94531 4.4375c0.0165 0.08936 0.03376 0.17632 0.00586 0.26562l1.7012 4.3926 3.5918 3.0078c0.66937 0.56398 0.75718 1.5628 0.19726 2.2363-0.31242 0.3733-0.76236 0.5625-1.2168 0.5625-0.3611 0-0.72139-0.11757-1.0176-0.36914l-3.9004-3.2754c-0.20275-0.17045-0.36364-0.39312-0.46094-0.64062l-1.2148-3.1309c-0.0245 3.9e-4 -0.057537 0-0.085937 0l-2.3926 2.0957-0.67578 4.4727c-0.11764 0.78308-0.7916 1.3516-1.5625 1.3516-0.08126 0-0.16685-0.006078-0.24805-0.017578-0.86423-0.13378-1.4502-0.93852-1.3203-1.8027l0.76172-5.0508c0.05674-0.36922 0.24153-0.70578 0.52148-0.94922l2.3242-2.041c0-0.0162-0.008672-0.033888-0.013672-0.054688l-0.9043-4.248-1.2031 0.94141c-0.12571 0.097341-0.26975 0.172-0.42383 0.2207l-3.4238 1.0723c-0.13379 0.0046-0.27053 0.06836-0.40039 0.06836-0.56804 0-1.0871-0.36946-1.2656-0.9375-0.21913-0.70194 0.16717-1.4567 0.86914-1.6758l3.1992-0.99609 3.1934-2.4961c0.0245-0.0208 0.057538-0.037794 0.085937-0.058594 0.29619-0.23531 0.64744-0.40513 1.041-0.49023l0.039063-0.00586c0.19274-0.0402 0.38404-0.057734 0.57226-0.052734z" fill-opacity=".425" />
<path transform="translate(0 0)" d="m14.078 4.8633c-0.19872 0-0.38737 0.029294-0.57617 0.058594h-0.099609l-0.091797 0.019531-0.009766 0.0019532c-1.4967 0.31133-2.7359 1.4912-3.0508 3.0762-0.4175 2.1092 0.96975 4.1858 3.0801 4.6035 0.17601 0.0348 0.34293-0.012253 0.51758-0.001953l-1.4668 1.1445-3.0254 0.94141c-1.2258 0.38265-1.905 1.7137-1.5254 2.9297 0.30771 0.97907 1.2196 1.6387 2.2207 1.6387 0.45329 0 0.59164-0.07366 0.43555-0.06836l0.13477-0.005859 3.5547-1.1113v-0.001953c0.24366-0.077 0.46948-0.20133 0.67774-0.35352l0.46484 2.1777-1.8789 1.6484c-0.46031 0.40027-0.76088 0.95191-0.85352 1.5547l-0.76172 5.0527c-0.20905 1.3912 0.75898 2.7235 2.1543 2.9395h0.007812l0.00586 0.001953c0.12173 0.0172 0.24998 0.027344 0.38867 0.027344 1.2619 0 2.3595-0.93383 2.5508-2.2012v-0.001953l0.62109-4.1113 1.1055-0.96875 0.72266 1.8594 0.001953 0.001953c0.159 0.40444 0.414 0.75988 0.74609 1.0391l3.8984 3.2715c0.4842 0.41125 1.0854 0.60742 1.6641 0.60742 0.73292 0 1.476-0.31449 1.9844-0.92187v-0.001954h0.001953c0.9032-1.0865 0.75792-2.7286-0.32226-3.6387l-0.001953-0.001953-3.3945-2.8438-1.5703-4.0508c-8e-3 -0.0454 0.009859-0.16553 0.005859-0.1875l-0.001953-0.013672-0.60938-2.8613 2.2363 1.082 0.001953 0.001953c0.31718 0.15178 0.66 0.23242 1.0117 0.23242 0.8689 0 1.7026-0.49149 2.1035-1.3145v-0.001953c0.55809-1.1516 0.061302-2.5592-1.0859-3.1152l-2.9238-1.4141-0.001953-0.001953c-0.17344-0.0836-0.37474-0.15596-0.59766-0.19531l-3.6074-0.66016 0.019531-0.13281-1.127-0.029297c-1e-3 -3e-5 -0.002906 3e-5 -0.003906 0-0.10419-3e-3 -0.20376 0.022197-0.30664 0.029297 0.17778-0.33084 0.36284-0.65888 0.43945-1.0449v-0.0019531c0.42247-2.1128-0.97497-4.1861-3.084-4.6035l-0.001953-0.0019531c-0.25532-0.05-0.51508-0.076172-0.77734-0.076172zm0 1c0.19272 0 0.38919 0.020094 0.58594 0.058594 1.5783 0.3124 2.6133 1.8494 2.2969 3.4277-0.31243 1.5783-1.8551 2.6054-3.4375 2.293-1.5783-0.31242-2.6054-1.8494-2.293-3.4277 0.23534-1.1848 1.1637-2.0617 2.2754-2.293h0.003907c0.18461-0.0378 0.37553-0.058594 0.56836-0.058594zm3.707 5.6992c0.18815 0.0044 0.37225 0.029366 0.55078 0.072266l4.0176 0.73438c0.11759 0.02076 0.22833 0.060481 0.33789 0.11328l2.9238 1.4141c0.66139 0.32054 0.94161 1.1179 0.62109 1.7793-0.23128 0.47472-0.70812 0.75195-1.2031 0.75195-0.19467 0-0.39347-0.045465-0.58008-0.13476l-2.7578-1.334-1.2285-0.22852 0.94531 4.4375c0.0165 0.08936 0.03376 0.17632 0.00586 0.26562l1.7012 4.3926 3.5918 3.0078c0.66937 0.56398 0.75718 1.5628 0.19726 2.2363-0.31242 0.3733-0.76236 0.5625-1.2168 0.5625-0.3611 0-0.72139-0.11757-1.0176-0.36914l-3.9004-3.2754c-0.20275-0.17045-0.36364-0.39312-0.46094-0.64062l-1.2148-3.1309c-0.0245 3.9e-4 -0.057537 0-0.085937 0l-2.3926 2.0957-0.67578 4.4727c-0.11764 0.78308-0.7916 1.3516-1.5625 1.3516-0.08126 0-0.16684-0.006078-0.24805-0.017578-0.86423-0.13378-1.4502-0.93852-1.3203-1.8027l0.76172-5.0508c0.05674-0.36922 0.24153-0.70578 0.52148-0.94922l2.3242-2.041c0-0.0162-0.008672-0.033888-0.013672-0.054688l-0.9043-4.248-1.2031 0.94141c-0.12571 0.097342-0.26975 0.172-0.42383 0.2207l-3.4238 1.0723c-0.13379 0.0046-0.27053 0.06836-0.40039 0.06836-0.56804 0-1.0871-0.36946-1.2656-0.9375-0.21913-0.70194 0.16717-1.4567 0.86914-1.6758l3.1992-0.99609 3.1934-2.4961c0.0245-0.0208 0.057538-0.037794 0.085937-0.058594 0.29619-0.23531 0.64744-0.40513 1.041-0.49023l0.039063-0.00586c0.19274-0.0402 0.38404-0.057734 0.57226-0.052734z" color="#000000" color-rendering="auto" dominant-baseline="auto" fill-opacity=".225" image-rendering="auto" shape-rendering="auto" solid-color="#000000" style="font-feature-settings:normal;font-variant-alternates:normal;font-variant-caps:normal;font-variant-ligatures:normal;font-variant-numeric:normal;font-variant-position:normal;isolation:auto;mix-blend-mode:normal;shape-padding:0;text-decoration-color:#000000;text-decoration-line:none;text-decoration-style:solid;text-indent:0;text-orientation:mixed;text-transform:none;white-space:normal" />
</g>
</svg>
