<svg xmlns="http://www.w3.org/2000/svg" width="36" height="36" version="1.1">
<g>
<path d="m0 6 1 7h2.1543l2.8457 18h23.998l2.8418-18h2.1602l1-7h-36zm2.4844 2h31.125l-0.60937 3h-30l-0.51563-3zm2.3242 5h26.012l-2.6348 16h-20.467l-2.9102-16z" opacity=".75" />
<path d="m2.44 8 0.51562 3h30l0.60938-3h-31.125z" opacity=".2" />
<path transform="translate(0 0)" d="m4.8086 13 2.9102 16h20.652l2.6348-16h-26.197z" opacity=".2" />
<path d="m14.17 15.95c-0.16945 0-0.33891 0.0635-0.46875 0.19336l-0.12305 0.12305c-0.25969 0.25969-0.25969 0.67781 0 0.9375l3.3594 3.3594-3.3594 3.3613c-0.25969 0.25969-0.25969 0.67781 0 0.9375l0.12305 0.12305c0.25969 0.25969 0.67781 0.25969 0.9375 0l3.3613-3.3594 3.3594 3.3594c0.25969 0.25969 0.67781 0.25969 0.9375 0l0.12305-0.12305c0.25969-0.25969 0.25969-0.67781 0-0.9375l-3.3613-3.3613 3.3613-3.3594c0.25969-0.25969 0.25969-0.67781 0-0.9375l-0.12305-0.12305c-0.25969-0.25969-0.67781-0.25969-0.9375 0l-3.3594 3.3613-3.3613-3.3613c-0.12985-0.12984-0.2993-0.19336-0.46875-0.19336z" opacity=".7" />
</g>
</svg>
