<svg width="36" height="36" version="1.1" xmlns="http://www.w3.org/2000/svg">
<g transform="translate(-442,-156)">
<path d="m459.98 157.6h2e-3c5e-3 -1.5e-4 9e-3 -1.5e-4 0.0137 0 0.1141 5.8e-4 0.20645 0.0929 0.20703 0.20703 4.5e-4 0.11486-0.0922 0.20839-0.20703 0.20898-0.11562 4.9e-4 -0.20947-0.0934-0.20898-0.20898 2.8e-4 -0.109 0.0846-0.19931 0.19336-0.20703z" opacity=".5"/>
<path d="m458.76 158.77h2.4766c0.2009 0 0.36132 0.16044 0.36132 0.36133 0 0.2009-0.16042 0.36328-0.36132 0.36328h-2.4766c-0.2009 0-0.36132-0.16238-0.36132-0.36328 0-0.20089 0.16042-0.36133 0.36132-0.36133z" opacity=".5"/>
<path d="m457.51 158.79c8e-3 -2.7e-4 0.0156-2.7e-4 0.0234 0 0.18376-1.4e-4 0.33305 0.14828 0.33399 0.33203 1.4e-4 0.18452-0.14947 0.33413-0.33399 0.33399-0.18451 1.4e-4 -0.33412-0.14947-0.33398-0.33399 4.7e-4 -0.17497 0.13599-0.31987 0.31054-0.33203z" opacity=".5"/>
<path d="m453.95 156c-1.3921 0-2.5137 1.1215-2.5137 2.5137v2.3418l2.0009 1e-5 5e-4 -1.043c4.8e-4 -1.0038 0.7663-1.8125 1.7701-1.8125h4.7637c-0.0975-0.0175-0.17622-0.0926-0.17578-0.19531 2.8e-4 -0.109 0.0846-0.19931 0.19335-0.20703h2e-3c5e-3 -1.5e-4 9e-3 -1.5e-4 0.0137 0 0.1141 5.8e-4 0.20645 0.0929 0.20704 0.20703 3.5e-4 0.10256-0.0783 0.17774-0.17583 0.19531h4.7656c1.0038 0 1.7708 0.80867 1.7711 1.8125l3.6e-4 1.043 2-1e-5v-2.3418c-5e-5 -1.3921-1.1215-2.5137-2.5137-2.5137zm-2.5137 31v2.4863c0 1.3921 1.1215 2.5137 2.5137 2.5137h12.109c1.3921 0 2.5137-1.1215 2.5137-2.5137v-2.4863h-2v1.1875c0 1.0038-0.76766 1.8125-1.7715 1.8125h-9.5938c-1.0038 0-1.7706-0.80867-1.7706-1.8125v-1.1875z" opacity=".81"/>
<circle cx="460" cy="188.44" r="1" fill-opacity=".74902"/>
<path transform="translate(442,156)" d="m9.4316 4.8555v26.145h2 13.137 2v-26.145h-2-13.137-2zm2 1.9258h13.137v22.293h-13.137v-22.293z" opacity=".81"/>
<path d="m466.57 162.79v22.281h-13.136v-22.281z" fill-opacity=".29804" opacity=".75"/>
</g>
</svg>
