<svg width="16" height="16" viewBox="0 0 16 16" xmlns="http://www.w3.org/2000/svg">
<defs>
<style id="current-color-scheme" type="text/css">.ColorScheme-Text { color:#5c616c; } .ColorScheme-Highlight { color:#5294e2; }</style>
</defs>
<path class="ColorScheme-Text" d="m2 1c-1.108 0-2 0.892-2 2v10c0 1.108 0.892 2 2 2h10c1.108 0 2-0.892 2-2v-3.0059l-2 0.0058594v3h-10v-10h10v3l2-0.0058594v-2.9941c0-1.108-0.892-2-2-2h-10zm5.7891 3-4 4 4 4.041 1.3867-1.3867-1.6348-1.6328 7.4609-0.021484v-2l-7.4609 0.021484 1.6348-1.6348-1.3867-1.3867z" fill="currentColor"/>
</svg>
