<svg width="16" height="16" viewBox="0 0 16 16" xmlns="http://www.w3.org/2000/svg">
<defs>
<style id="current-color-scheme" type="text/css">.ColorScheme-Text { color:#5c616c; } .ColorScheme-Highlight { color:#5294e2; }</style>
</defs>
<path class="ColorScheme-Text" d="m0.50195 0-0.41211 0.21875-0.052734 0.46484 0.35352 0.30469 0.10938 0.011719h1l0.41406-0.21875 0.050781-0.46484-0.35352-0.30469-0.10938-0.011719h-1zm3 0-0.41211 0.21875-0.052734 0.46484 0.35352 0.30469 0.10938 0.011719h1l0.41406-0.21875 0.050781-0.46484-0.35352-0.30469-0.10938-0.011719h-1zm3 0-0.41211 0.21875-0.052734 0.46484 0.35352 0.30469 0.10938 0.011719h1l0.41406-0.21875 0.050781-0.46484-0.35352-0.30469-0.10938-0.011719h-1zm3 0-0.41211 0.21875-0.052734 0.46484 0.35352 0.30469 0.10938 0.011719h1l0.41406-0.21875 0.050782-0.46484-0.35352-0.30469-0.10938-0.011719h-1zm3 0-0.41211 0.21875-0.052735 0.46484 0.35352 0.30469 0.10938 0.011719h1l0.41406-0.21875 0.050782-0.46484-0.35352-0.30469-0.10938-0.011719h-1zm2.9961 0.5-0.49805 1 0.21875 0.41406 0.46484 0.050781 0.30469-0.35352 0.009766-0.11133-0.5-1zm-15.182 1.5352-0.30664 0.35352-0.0097656 0.11133v1l0.21875 0.41406 0.46484 0.050781 0.30469-0.35352 0.0097656-0.11133v-1l-0.21875-0.41406-0.46289-0.050781zm2.6836 0.96484v2h6v-2h-6zm12.316 0.035156-0.30664 0.35352-0.009766 0.11133v1l0.21875 0.41406 0.46484 0.050781 0.30469-0.35352 0.009766-0.11133v-1l-0.21875-0.41406-0.46289-0.050781zm-15 2-0.30664 0.35352-0.0097656 0.11133v1l0.21875 0.41406 0.46484 0.050781 0.30469-0.35352 0.0097656-0.11133v-1l-0.21875-0.41406-0.46289-0.050781zm15 1-0.30664 0.35352-0.009766 0.11133v1l0.21875 0.41406 0.46484 0.050781 0.30469-0.35352 0.009766-0.11133v-1l-0.21875-0.41406-0.46289-0.050781zm-10.316 0.96484v2h6v-2h-6zm-4.6836 1.0352-0.30664 0.35352-0.0097656 0.11133v1l0.21875 0.41406 0.46484 0.050781 0.30469-0.35352 0.0097656-0.11133v-1l-0.21875-0.41406-0.46289-0.050781zm15 1-0.30664 0.35352-0.009766 0.11133v1l0.21875 0.41406 0.46484 0.050782 0.30469-0.35352 0.009766-0.11133v-1l-0.21875-0.41406-0.46289-0.050781zm-8.3164 1.9648v2h6v-2h-6zm-6.6836 0.035156-0.30664 0.35352-0.0097656 0.11133v1l0.21875 0.41406 0.46484 0.050782 0.30469-0.35352 0.0097656-0.11133v-1l-0.21875-0.41406-0.46289-0.050782zm15 1-0.30664 0.35352-0.009766 0.11133v1l0.21875 0.41406 0.46484 0.050782 0.30469-0.35352 0.009766-0.11133v-1l-0.21875-0.41406-0.46289-0.050782zm-14.998 2-0.30859 0.35352-0.0097656 0.11133 0.5 1 0.5-1-0.21875-0.41406-0.46289-0.050782zm2.1875 0.96484-0.42188 0.21875-0.052734 0.46484 0.35352 0.30469 0.12109 0.011719h1l0.41406-0.21875 0.050781-0.46484-0.35352-0.30469-0.11133-0.011719h-1zm3 0-0.42188 0.21875-0.052734 0.46484 0.35352 0.30469 0.12109 0.011719h1l0.41406-0.21875 0.050781-0.46484-0.35352-0.30469-0.11133-0.011719h-1zm3 0-0.42188 0.21875-0.052734 0.46484 0.35352 0.30469 0.12109 0.011719h1l0.41406-0.21875 0.050781-0.46484-0.35352-0.30469-0.11133-0.011719h-1zm3 0-0.42188 0.21875-0.052734 0.46484 0.35352 0.30469 0.12109 0.011719h1l0.41406-0.21875 0.050781-0.46484-0.35352-0.30469-0.11133-0.011719h-1zm3 0-0.42188 0.21875-0.052734 0.46484 0.35352 0.30469 0.12109 0.011719 1-0.5-1-0.5z" fill="currentColor"/>
</svg>
