<svg width="16" height="16" viewBox="0 0 16 16" xmlns="http://www.w3.org/2000/svg">
<defs>
<style id="current-color-scheme" type="text/css">.ColorScheme-Text { color:#5c616c; } .ColorScheme-Highlight { color:#5294e2; }</style>
</defs>
<path class="ColorScheme-Text" d="m6 0.039062v1.1328c-0.9772 0.1418-1.8093 0.39713-2.4629 0.79883-1.0105 0.6149-1.5156 1.5581-1.5156 2.8301-0.0046 2.1953 1.5575 2.9199 3.9785 3.5859v4.9902c-1.1727-0.099-2.2449-0.32069-3.377-0.80469l-0.62305 1.3574c0.56451 0.3013 1.3273 0.56216 2.2891 0.78516 0.5442 0.122 1.1112 0.19991 1.7109 0.25391v1.0723h1v-1.0234c0.17 4e-3 0.31414 0.021484 0.49414 0.021484 0.164-1e-3 0.33586-0.013484 0.50586-0.021484v1.0215h1v-1.1191c1.9967-0.28485 3.98-1.2023 3.959-3.6875-0.07-1.83-1.203-2.5076-3.959-3.4766v-4.9531c0.90326 0.12074 2.0021 0.37228 3.2246 0.98242l0.77539-1.543c-0.551-0.2955-1.8315-0.76641-2.6465-0.94141-0.434-0.0926-0.88652-0.15562-1.3535-0.19922v-1.0625h-1v1.0137c-0.092-0.0018-0.17848-0.013672-0.27148-0.013672-0.257 0-0.48752 0.020303-0.72852 0.033203v-1.0332h-1zm1.4375 2.6484c0.15102 8.281e-4 0.36234 0.0094501 0.5625 0.017578v4.7012c-0.157-0.053-0.25488-0.091484-0.42188-0.14648-0.179-0.044-0.38512-0.10816-0.57812-0.16016v-4.3965c0.14588-0.00637 0.29158-0.013656 0.4375-0.013672v-0.0019531zm-1.4375 0.11133v3.998c-1.227-0.4344-2.357-1.0931-2.3242-2.1914-0.0596-1.0413 1.0044-1.5908 2.3242-1.8066zm1 5.8535c0.18387 0.04679 0.32982 0.092115 0.52148 0.14062 0.16101 0.04582 0.3174 0.097351 0.47852 0.14453v4.4922c-0.14946 0.003099-0.31139 0.018788-0.45117 0.017578-0.19148-0.0018-0.36467-0.013992-0.54883-0.019532v-4.7754zm2 0.59766c1.2815 0.44854 2.3197 1.0372 2.2969 2.0664-0.039 1.395-1.1319 1.8809-2.2969 2.0469v-4.1133z" fill="currentColor"/>
</svg>
