<svg width="16" height="16" viewBox="0 0 16 16" xmlns="http://www.w3.org/2000/svg">
<defs>
<style id="current-color-scheme" type="text/css">.ColorScheme-Text { color:#5c616c; } .ColorScheme-Highlight { color:#5294e2; }</style>
</defs>
<path class="ColorScheme-Text" d="m6 1-5 14h2.5l1.0625-3h3.5723a1.0001 1.0001 0 0 1 0.1582-0.20703l0.70703-0.70703a1.0001 1.0001 0 0 1 1.4141 0l0.58594 0.58594v-1.8789a1.0001 1.0001 0 0 1 0.13086-0.49219l-3.1309-8.3008h-2zm1 4 1.75 5h-3.5l1.75-5zm5 4.793v4.293l-2.293-2.293-0.70703 0.70703 3.5 3.5 3.5-3.5-0.70703-0.70703-2.293 2.293v-4.293h-1z" fill="currentColor"/>
</svg>
