<svg width="16" height="16" viewBox="0 0 16 16" xmlns="http://www.w3.org/2000/svg">
<defs>
<style id="current-color-scheme" type="text/css">.ColorScheme-Text { color:#5c616c; } .ColorScheme-Highlight { color:#5294e2; }</style>
</defs>
<path class="ColorScheme-Text" d="m6 0v2h6c0.42816 0 1 0.61414 1 1v1h-5c-0.91927 0-1.7356 0.38396-2.25 0.96875s-0.75639 1.3106-0.75 2.0312c6e-3 0.72062 0.26893 1.4528 0.78125 2.0312 0.51232 0.57854 1.3104 0.96875 2.2188 0.96875h7v-7c9e-5 -1.6343-1.3198-3-3-3h-6zm2 6h5v2h-5c-0.39787 0-0.56691-0.10979-0.71875-0.28125s-0.27877-0.43937-0.28125-0.71875c-2e-3 -0.27938 0.10467-0.55354 0.25-0.71875s0.32764-0.28125 0.75-0.28125zm-4 2.998-4 3 4 3v-2.0117h10.938v-2h-10.938v-1.9883z" fill="currentColor"/>
</svg>
