<svg width="16" height="16" viewBox="0 0 16 16" xmlns="http://www.w3.org/2000/svg">
<defs>
<style id="current-color-scheme" type="text/css">.ColorScheme-Text { color:#5c616c; } .ColorScheme-Highlight { color:#5294e2; }</style>
</defs>
<path class="ColorScheme-Text" d="m1.8438 1.0098c-0.2813 0.0468-0.84375 0.25-0.84375 1v11s0 1 1 1h8.6719v-1.6816c-0.398 0.316-0.96902 0.28283-1.3281-0.076172l-0.70703-0.70703c-0.3903-0.391-0.3903-1.0241 0-1.4141l2.8281-2.8281c0.184-0.1842 0.43336-0.28937 0.69336-0.29297 0.27-0.0036 0.5297 0.10207 0.7207 0.29297l2.1211 2.1211v-5.4141c0-1-1-1-1-1h-5l-2-2h-5s-0.06255-0.01563-0.15625 0zm10.328 7-2.8281 2.8281 0.70703 0.70703 1.6211-1.6211v4.0859h1v-4.0859l1.6211 1.6211 0.70703-0.70703-2.8281-2.8281z" fill="currentColor"/>
</svg>
