<svg width="16" height="16" viewBox="0 0 16 16" xmlns="http://www.w3.org/2000/svg">
<defs>
<style id="current-color-scheme" type="text/css">.ColorScheme-Text { color:#5c616c; } .ColorScheme-Highlight { color:#5294e2; }</style>
</defs>
<path class="ColorScheme-Text" d="m2 0 2.8125 16h5.4375l3.75-16h-12zm1.5 2c0.27614 0 0.5 0.2239 0.5 0.5s-0.22386 0.5-0.5 0.5-0.5-0.2239-0.5-0.5 0.22386-0.5 0.5-0.5zm7 0c0.27614 0 0.5 0.2239 0.5 0.5s-0.22386 0.5-0.5 0.5-0.5-0.2239-0.5-0.5 0.22386-0.5 0.5-0.5zm-2.5957 2.002c1.5402-0.05 2.8674 1.0759 3.0703 2.6035 0.21827 1.6429-0.93703 3.1516-2.5801 3.3691-1.6429 0.2183-3.1516-0.93698-3.3691-2.5801-0.21827-1.6429 0.93703-3.1516 2.5801-3.3691 0.09916-0.013 0.19889-0.021438 0.29883-0.023438zm1.5957 7c0.27614 0 0.5 0.2239 0.5 0.5s-0.22386 0.5-0.5 0.5-0.5-0.2239-0.5-0.5 0.22386-0.5 0.5-0.5zm-3 2c0.27614 0 0.5 0.2239 0.5 0.5s-0.22386 0.5-0.5 0.5-0.5-0.2239-0.5-0.5 0.22386-0.5 0.5-0.5z" fill="currentColor"/>
</svg>
