<svg width="16" height="16" viewBox="0 0 16 16" xmlns="http://www.w3.org/2000/svg">
<defs>
<style id="current-color-scheme" type="text/css">.ColorScheme-Text { color:#5c616c; } .ColorScheme-Highlight { color:#5294e2; }</style>
</defs>
<path class="ColorScheme-Text" d="m5.2207 1-0.3125 0.28125-3.625 3.625-0.28125 0.3125v5.5625l0.28125 0.3125 3.625 3.625 0.3125 0.28125h5.5625l0.3125-0.28125 3.625-3.625 0.28125-0.3125v-5.5625l-0.28125-0.3125-3.625-3.625-0.3125-0.28125h-5.5625zm1.7812 3h2v3l-0.25 2h-1.4688l-0.28125-2v-3zm1 5.75c0.69036 0 1.25 0.55964 1.25 1.25s-0.55964 1.25-1.25 1.25-1.25-0.55964-1.25-1.25 0.55964-1.25 1.25-1.25z" fill="currentColor" opacity=".3"/>
</svg>
