<svg width="16" height="16" viewBox="0 0 16 16" xmlns="http://www.w3.org/2000/svg">
<defs>
<style id="current-color-scheme" type="text/css">.ColorScheme-Text { color:#5c616c; } .ColorScheme-Highlight { color:#5294e2; }</style>
</defs>
<path class="ColorScheme-Text" d="m3.0039 1c-2.25 0-2 2-2 2v12h5.9961v-2h-3.9961v-10h10v4h1.9961l0.003906-4c0-2-2-2-2-2h-10zm1 3v2h2v-2h-2zm3 0v2h2v-2h-2zm3 0v2h2v-2h-2zm-6 3v2h2v-2h-2zm6.9961 2v2h-2v2h2v2h2v-2h2v-2h-2v-2h-2zm-6.9961 1v2h2v-2h-2z" fill="currentColor"/>
</svg>
