<svg width="16" height="16" viewBox="0 0 16 16" xmlns="http://www.w3.org/2000/svg">
<defs>
<style id="current-color-scheme" type="text/css">.ColorScheme-Text { color:#5c616c; } .ColorScheme-Highlight { color:#5294e2; }</style>
</defs>
<path class="ColorScheme-Text" d="m7 1v1.0859c-0.89056 0.15268-1.7351 0.50454-2.4707 1.0293l-0.77148-0.77148-1.4141 1.4141 0.76953 0.76953c-0.52295 0.73666-0.87283 1.5819-1.0234 2.4727h-1.0898v2h1.0859c0.15268 0.89056 0.50454 1.7351 1.0293 2.4707l-0.77148 0.77148 1.4141 1.4141 0.76953-0.76953c0.73666 0.52295 1.5819 0.87283 2.4727 1.0234v1.0898h2v-1.0859c0.89056-0.15268 1.7351-0.50454 2.4707-1.0293l0.77148 0.77148 1.4141-1.4141-0.76953-0.76953c0.52295-0.73666 0.87283-1.5819 1.0234-2.4727h1.0898v-2h-1.0859c-0.15268-0.89056-0.50454-1.7351-1.0293-2.4707l0.77148-0.77148-1.4141-1.4141-0.76953 0.76953c-0.73666-0.52295-1.5819-0.87283-2.4727-1.0234v-1.0898h-2zm0 3.3359h2v3.5l0.41406-0.41406 1.4141 1.4141-2.8281 2.8281-2.8281-2.8281 1.4141-1.4141 0.41406 0.41406v-3.5z" fill="currentColor"/>
</svg>
