<svg width="16" height="16" viewBox="0 0 16 16" xmlns="http://www.w3.org/2000/svg">
<defs>
<style id="current-color-scheme" type="text/css">.ColorScheme-Text { color:#5c616c; } .ColorScheme-Highlight { color:#5294e2; }</style>
</defs>
<path class="ColorScheme-Text" d="m6.4902 0.99609c-3.0289 0-5.5 2.4746-5.5 5.5 0 3.0254 2.4711 5.5 5.5 5.5 1.152 0 2.2377-0.35784 3.125-0.96875l3.6875 3.6875a1.0055 1.0055 0 1 0 1.4062-1.4375l-3.6875-3.6875c0.61079-0.886 1-1.9438 1-3.0938 0-3.0254-2.5024-5.5-5.5312-5.5zm0 2c1.9474 0 3.5 1.5548 3.5 3.5 0 1.9451-1.5526 3.5-3.5 3.5s-3.5-1.5549-3.5-3.5c0-1.9452 1.5526-3.5 3.5-3.5z" fill="currentColor"/>
</svg>
