<svg width="16" height="16" viewBox="0 0 16 16" xmlns="http://www.w3.org/2000/svg">
<defs>
<style id="current-color-scheme" type="text/css">.ColorScheme-Text { color:#5c616c; } .ColorScheme-Highlight { color:#5294e2; }</style>
</defs>
<path class="ColorScheme-Text" d="m1.0195 1.5a0.50005 0.50005 0 0 0-0.050781 0.0019531 0.50005 0.50005 0 0 0-0.033203 0.99609s3.6861 0.51314 6.2988 2.1758c1.3064 0.83132 2.3077 1.9094 2.5566 3.3203 0.22485 1.2741-0.15792 2.9106-1.666 5.0078h-1.123v3h3v-1.668c2.3593-0.3912 3.7676-1.4484 4.5352-2.5449 0.9648-1.3783 0.96484-2.7871 0.96484-2.7871a0.50005 0.50005 0 1 0-1 0s4.4e-5 1.0912-0.78516 2.2129c-0.58758 0.8394-1.7764 1.6045-3.7148 1.959v-0.17188h-0.82227c1.282-1.9752 1.8515-3.7303 1.5957-5.1797-0.31352-1.7766-1.5622-3.0735-3.0059-3.9922-2.8873-1.8374-6.7012-2.3242-6.7012-2.3242a0.50005 0.50005 0 0 0-0.048828-0.0058594z" fill="currentColor"/>
</svg>
