<svg width="24" height="24" viewBox="0 0 24 24" xmlns="http://www.w3.org/2000/svg">
<defs>
<style id="current-color-scheme" type="text/css">.ColorScheme-Text { color:#5c616c; } .ColorScheme-Highlight { color:#5294e2; }</style>
</defs>
<path class="ColorScheme-Text" d="m0.49219-0.0019531v0.0019531a0.49975 0.49977 0 0 0-0.36328 0.83008c0.90657 1.058 2.55 1.5692 4.4785 1.9824 1.3663 0.2926 2.8805 0.51789 4.3887 0.74609v2.4453h2.0059v3h-2.0059v1.4395c-4e-3 7e-4 -0.0077198 0-0.011719 0-2.1094 0.3464-4.228 0.79879-5.9062 1.6836-1.6783 0.8848-2.9315 2.2831-3.0684 4.3359-0.05399 0.8151 0.24784 1.541 0.7832 2.0762 0.53537 0.5353 1.2747 0.90607 2.1523 1.1973 1.619 0.5372 3.7467 0.79917 6.0508 1.0098v2.252h2.0059v0.99609h1v-0.99609h1.9922v-1.8066c3.7041 0.3626 7.2444 0.90085 9.2207 2.2188a0.49998 0.49999 0 1 0 0.55469-0.83203c-2.3268-1.5516-6.0164-2.0767-9.7754-2.4141v-2.1641h-1.9922v-4h1.9922v-3.3398c0.3544-0.068 0.70803-0.13584 1.0352-0.21484 0.84919-0.2053 1.5983-0.45325 2.2031-0.81055 0.60485-0.3572 1.0852-0.85477 1.25-1.5137 0.20915-0.8373 0.1082-1.6132-0.25781-2.2441-0.36611-0.631-0.96326-1.1057-1.6836-1.4863-0.72804-0.3846-1.5958-0.68263-2.5469-0.92773v-2.459h-1.9922v-1h-1v1h-2.0059v1.541c-1.4593-0.2216-2.9062-0.44009-4.1797-0.71289-1.8617-0.3988-3.3354-0.963-3.9277-1.6543a0.49975 0.49977 0 0 0-0.39648-0.17969zm13.502 4.5156c0.79883 0.219 1.5175 0.46647 2.0801 0.76367 0.61585 0.3254 1.0486 0.69572 1.2852 1.1035 0.23664 0.4078 0.3116 0.8626 0.15234 1.5-0.08498 0.3406-0.32442 0.62318-0.78711 0.89648-0.46278 0.2733-1.1317 0.50632-1.9297 0.69922-0.24866 0.06-0.5293 0.11222-0.80078 0.16602v-0.63867h-1.9922v-3h1.9922v-1.4902zm-4.998 6.9453v2.543h2.0059v4h-2.0059v1.7402c-2.2483-0.2091-4.2958-0.47317-5.7363-0.95117-0.7915-0.2627-1.3946-0.59003-1.7617-0.95703-0.36711-0.367-0.52733-0.74643-0.49023-1.3027 0.11297-1.6955 1.0457-2.7332 2.5371-3.5195 1.455-0.7672 3.4288-1.2147 5.4512-1.5527z" fill="#363636"/>
</svg>
