<svg width="16" height="16" viewBox="0 0 16 16" xmlns="http://www.w3.org/2000/svg">
<defs>
<style id="current-color-scheme" type="text/css">.ColorScheme-Text { color:#5c616c; } .ColorScheme-Highlight { color:#5294e2; }</style>
</defs>
<path class="ColorScheme-Text" d="m10 0v6.1016c-0.2234 0.0474-0.4433 0.11-0.6582 0.1875-0.0367 0.0129-0.073075 0.025362-0.10938 0.039062-0.4201 0.159-0.81689 0.37377-1.1797 0.63867-0.03 0.0219-0.058391 0.045759-0.087891 0.068359-0.1753 0.1328-0.34175 0.27694-0.49805 0.43164-0.1607 0.1621-0.31017 0.33498-0.44727 0.51758-0.01895 0.02503-0.036207 0.050772-0.054687 0.076172-0.12274 0.16734-0.23493 0.34216-0.33594 0.52344-0.01004 0.01818-0.019497 0.036378-0.029297 0.054688-0.11193 0.20644-0.20918 0.42052-0.29102 0.64062-8.001e-4 2e-3 -0.0012472 0.0039594-0.0019532 0.0058593l-0.0039062 0.011719c-0.08178 0.22676-0.14705 0.45913-0.19531 0.69531-6e-4 0.0026-0.0014111 0.0051125-0.0019531 0.0078125h-6.1055v2h6.1016c0.0564 0.268 0.13488 0.53211 0.23438 0.78711 0.01017 0.02658 0.018697 0.053728 0.029297 0.080079 0.0939 0.231 0.20483 0.45397 0.33203 0.66797 0.0285 0.049 0.057791 0.095578 0.087891 0.14258 0.1288 0.205 0.27239 0.40094 0.42969 0.58594 0.02235 0.02591 0.047452 0.048789 0.070312 0.074219 0.15521 0.17288 0.32228 0.33472 0.5 0.48438 0.02658 0.02236 0.051095 0.046559 0.078125 0.068359 0.18966 0.15108 0.39006 0.28816 0.59961 0.41016 0.04609 0.02723 0.091682 0.054318 0.13867 0.080078 0.20995 0.11577 0.42796 0.21629 0.65234 0.30078 0.043813 0.01636 0.088456 0.029762 0.13281 0.044921 0.23136 0.080431 0.46833 0.14375 0.70898 0.18945 0.01382 0.0025 0.027166 0.005412 0.041016 0.007812 0.28501 0.05033 0.57386 0.075815 0.86328 0.076172 0.167 0 0.334-0.009391 0.5-0.025391 0.16741-0.01661 0.332-0.041508 0.49414-0.074218 0.01392-0.0028 0.027135-0.006866 0.041015-0.009766 0.3042-0.06461 0.60172-0.15746 0.88867-0.27734 0.00762-0.0032 0.015838-0.004612 0.023438-0.007812l0.015625-0.007813c0.27747-0.11957 0.54353-0.26404 0.79492-0.43164 0.01628-0.0108 0.034642-0.018307 0.050782-0.029297 0.24792-0.17017 0.47998-0.36235 0.69336-0.57422 0.01485-0.01461 0.030242-0.028179 0.044922-0.042969 0.20171-0.20515 0.38533-0.42733 0.54883-0.66406 0.02328-0.03331 0.049786-0.063767 0.072266-0.097657 0.15239-0.23331 0.28502-0.47896 0.39648-0.73437 0.01927-0.04337 0.040524-0.084897 0.058594-0.12891 0.10779-0.26439 0.19274-0.53752 0.25391-0.81641 0.01167-0.05293 0.025156-0.10465 0.035156-0.1582 0.01348-0.0759 0.025157-0.15209 0.035157-0.22852 0.01186-0.08558 0.02375-0.1709 0.03125-0.25781 0.01338-0.14415 0.020604-0.28882 0.021484-0.43359-2e-3 -0.264-0.025359-0.52806-0.068359-0.78906-0.00689-0.04297-0.011532-0.086277-0.019532-0.12891-0.04712-0.24878-0.11306-0.49363-0.19726-0.73242-0.0118-0.03358-0.02462-0.066339-0.03711-0.099609-0.08974-0.24239-0.19814-0.4775-0.32422-0.70312-0.00866-0.01532-0.018544-0.029692-0.027344-0.044922-0.13172-0.22824-0.28127-0.44572-0.44727-0.65039-0.00412-0.00506-0.007619-0.010525-0.011718-0.015625-0.16775-0.20296-0.35126-0.39235-0.54883-0.56641-0.02216-0.0197-0.043896-0.039274-0.066406-0.058594-0.19898-0.17206-0.41123-0.32814-0.63476-0.4668-0.011911-0.00732-0.02513-0.012331-0.03711-0.019531-0.4859-0.29361-1.0182-0.50232-1.5742-0.61719-0.0021-5e-4 -0.003759-0.0015352-0.005859-0.0019531v-6.1055h-2z" fill="currentColor"/>
</svg>
