<svg width="24" height="24" viewBox="0 0 24 24" xmlns="http://www.w3.org/2000/svg">
<defs>
<style id="current-color-scheme" type="text/css">.ColorScheme-Text { color:#5c616c; } .ColorScheme-Highlight { color:#5294e2; }</style>
</defs>
<path class="ColorScheme-Text" d="m0.49414 0a0.49975 0.49977 0 0 0-0.36328 0.83008c0.90656 1.058 2.5499 1.5693 4.4785 1.9824 1.3663 0.2927 2.8805 0.51799 4.3887 0.74609v2.4453h2.0059v3h-2.0059v1.4395c-4e-3 6.56e-4 -0.0077198 0.001253-0.011719 0.001953-2.1094 0.34641-4.2282 0.79878-5.9062 1.6836-1.6783 0.88481-2.9315 2.2831-3.0684 4.3359-0.053987 0.81504 0.24784 1.5409 0.7832 2.0762 0.53537 0.53523 1.2747 0.906 2.1523 1.1973 1.619 0.53723 3.7467 0.79916 6.0508 1.0098v2.252h2.0059v0.99609h1v-0.99609h1.9922v-1.7969c3.7035 0.36184 7.2435 0.89049 9.2207 2.209a0.49998 0.49999 0 0 0 0.55469-0.83203c-1.0899-0.72685-2.4941-1.2169-4.0488-1.5801h4.2715v-1h-9.998v-1.998h-1.9922v-4h1.9922v-2h9.998v-1h-9.998v-0.33984c0.3544-0.06792 0.70803-0.13577 1.0352-0.21484 0.84919-0.20532 1.5983-0.4533 2.2031-0.81055 0.60485-0.35724 1.0852-0.85467 1.25-1.5137 0.21-0.837 0.10819-1.6131-0.25781-2.2441-0.367-0.631-0.96359-1.1057-1.6836-1.4863-0.273-0.1445-0.58258-0.26707-0.89258-0.38867h8.3438v-1h-9.998v-1.998h-1.9922v-1h-1v1h-2.0059v1.541c-1.4589-0.2216-2.9062-0.44009-4.1797-0.71289-1.8617-0.3988-3.3353-0.96307-3.9277-1.6543a0.49975 0.49977 0 0 0-0.39648-0.17969zm21 4.0039-1.5312 2h1.0312v3h-1l1.5 1.998 1.5-1.998h-1v-3h0.96875l-1.4688-2zm0 7.998-1.5312 2h1.0312v4h-1l1.5 1.998 1.5-1.998h-1v-4h0.96875l-1.4688-2zm-7.498-7.4883c0.79883 0.219 1.5175 0.46646 2.0801 0.76367 0.61585 0.3254 1.0486 0.69574 1.2852 1.1035 0.23664 0.40779 0.3116 0.86254 0.15234 1.5-0.08498 0.34059-0.32442 0.62315-0.78711 0.89648-0.46278 0.27332-1.1317 0.50627-1.9297 0.69922-0.24866 0.06012-0.5293 0.11218-0.80078 0.16602v-0.63867h-1.9922v-3h1.9922v-1.4902zm-4.998 6.9453v2.543h2.0059v4h-2.0059v1.7402c-2.2483-0.209-4.2958-0.47317-5.7363-0.95117-0.7915-0.263-1.3946-0.59003-1.7617-0.95703s-0.52737-0.74573-0.49023-1.3027c0.1129-1.695 1.0456-2.7335 2.5371-3.5195 1.455-0.767 3.4289-1.2147 5.4512-1.5527z" fill="#363636"/>
</svg>
