<svg width="24" height="24" viewBox="0 0 24 24" xmlns="http://www.w3.org/2000/svg">
<defs>
<style id="current-color-scheme" type="text/css">.ColorScheme-Text { color:#5c616c; } .ColorScheme-Highlight { color:#5294e2; }</style>
</defs>
<path class="ColorScheme-Text" d="m3.0039 0v10h-1.998v1.9941h-1v1h1v2.0059h1.541c-0.22153 1.4595-0.44013 2.906-0.71289 4.1797-0.39883 1.8622-0.96306 3.3372-1.6543 3.9297a0.49977 0.49988 0 0 0-0.17969 0.39648 0.49977 0.49988 0 0 0 0.83008 0.36328c1.058-0.907 1.5693-2.5515 1.9824-4.4805 0.2927-1.367 0.51789-2.8797 0.74609-4.3887h2.4453v-2.0059h3v2.0059h1.4395c6.56e-4 4e-3 0.001253 0.007699 0.001953 0.011719 0.34641 2.1099 0.79878 4.2276 1.6836 5.9062s2.2831 2.9334 4.3359 3.0703c0.81496 0.054 1.5409-0.2478 2.0762-0.7832 0.53523-0.5354 0.906-1.2744 1.1973-2.1523 0.538-1.62 0.79877-3.7477 1.0098-6.0527h2.252v-2.0059h0.99609v-1h-0.99609v-1.9941h-1.8164c0.10374-1.1091 0.21885-2.206 0.375-3.252a0.49977 0.49988 0 0 0-0.55859-0.58398v-6.1641h-1v10h-1.998v1.9941h-4v-1.9941h-2v-10h-1v10h-0.33984c-0.068-0.3545-0.13584-0.70796-0.21484-1.0352-0.205-0.8494-0.45325-1.5981-0.81055-2.2031-0.3572-0.605-0.85467-1.0852-1.5137-1.25-0.8371-0.2092-1.6131-0.10829-2.2441 0.25781-0.631 0.3662-1.1057 0.96309-1.4863 1.6836-0.1445 0.2735-0.26707 0.58288-0.38867 0.89258v-8.3457h-1zm1 2.5 2 1.5312v-1.0312h3v1l1.998-1.5-1.998-1.5v1h-3v-0.96875l-2 1.4688zm7.998 0 2 1.5312v-1.0312h4v1l1.998-1.5-1.998-1.5v1h-4v-0.96875l-2 1.4688zm-4.5664 3.9062c0.1388 0.011672 0.28595 0.036347 0.44531 0.076172 0.34059 0.085 0.62315 0.32431 0.89648 0.78711 0.27332 0.4629 0.50627 1.1315 0.69922 1.9297 0.0602 0.2487 0.11212 0.52918 0.16602 0.80078h-0.63867v1.9941h-3v-1.9941h-1.4883c0.2181-0.8002 0.46492-1.518 0.76172-2.0801 0.3254-0.616 0.69572-1.0486 1.1035-1.2852 0.3058-0.1776 0.63829-0.26352 1.0547-0.22852zm6.5664 6.5879h4v2.0059h1.7402c-0.20916 2.2488-0.4732 4.2974-0.95117 5.7383-0.26264 0.7917-0.59003 1.3927-0.95703 1.7598-0.367 0.3672-0.7464 0.52919-1.3027 0.49219-1.6955-0.113-2.7332-1.0453-3.5195-2.5371-0.767-1.455-1.2147-3.4301-1.5527-5.4531h2.543v-2.0059z" fill="#363636"/>
</svg>
