<svg width="16" height="16" viewBox="0 0 16 16" xmlns="http://www.w3.org/2000/svg">
<defs>
<style id="current-color-scheme" type="text/css">.ColorScheme-Text { color:#5c616c; } .ColorScheme-Highlight { color:#5294e2; }</style>
</defs>
<path class="ColorScheme-Text" d="m14.574 1.0059c-1.0541-0.13287-3.8037 1.7519-6.5137 4.4629-1.2085 1.2092-2.2573 2.4042-3.0605 3.5312 0.94146 0.29995 1.7002 1.0582 2 2 1.1267-0.80351 2.3243-1.8477 3.5332-3.0566 3.0745-3.0758 5.0131-6.1228 4.3301-6.8066-0.070198-0.0707-0.16598-0.11507-0.28906-0.13086zm-10.074 9.3242v0.001953c-3.4998 0.93824-0.87515 3.1545-3.5 4.668 3.4998 0 5.25-1.7518 5.25-2.9199 0-0.58228 0.059354-1.6531-1.75-1.75z" fill="#363636"/>
</svg>
