<svg width="16" height="16" viewBox="0 0 16 16" xmlns="http://www.w3.org/2000/svg">
<defs>
<style id="current-color-scheme" type="text/css">.ColorScheme-Text { color:#5c616c; } .ColorScheme-Highlight { color:#5294e2; }</style>
</defs>
<path class="ColorScheme-Text" d="m1 1v14h14v-14h-14zm2 2h2v2h-2v-2zm4 0h2v2h-2v-2zm4 0h2v2h-2v-2zm-7.2812 3h2.5625l4 4h-2.5625l-4-4zm4 0h2.5625l2.7188 2.7188v1.2812h-1.2812l-4-4zm4 0h1.2812v1.2812l-1.2812-1.2812zm-8.7188 0.71875 3.2812 3.2812h-3.2812v-3.2812zm0 4.2812h2v2h-2v-2zm4 0h2v2h-2v-2zm4 0h2v2h-2v-2z" fill="#363636"/>
</svg>
