<svg width="16" height="16" viewBox="0 0 16 16" xmlns="http://www.w3.org/2000/svg">
<defs>
<style id="current-color-scheme" type="text/css">.ColorScheme-Text { color:#5c616c; } .ColorScheme-Highlight { color:#5294e2; }</style>
</defs>
<path class="ColorScheme-Text" d="m6 3-0.0078125 2 2.9219 0.011719h0.0019531c-0.0552 0 0.083984 0.15935 0.083984 0.082031v0.92383h-1.0039c-1.7159 0-3.0301 1.1255-3.0547 2.4844-0.0123 0.67945 0.30583 1.363 0.86133 1.8223 0.5555 0.45927 1.3154 0.69922 2.1934 0.69922h3.0039v-5.9297c0-1.1712-0.88713-2.082-2.084-2.082l-2.9102-0.011719h-0.0058594zm-6.0039 2v6l4-3-4-3zm16 0-4 3 4 3v-6zm-8 3.0176h1.0039v1.0059h-1.0039c-0.51941 0-0.79379-0.1379-0.91992-0.24219-0.12614-0.10429-0.13607-0.17218-0.13477-0.24414 0.0030001-0.14393 0.084888-0.51953 1.0547-0.51953z" fill="#363636"/>
</svg>
