<svg width="16" height="16" viewBox="0 0 16 16" xmlns="http://www.w3.org/2000/svg">
<defs>
<style id="current-color-scheme" type="text/css">.ColorScheme-Text { color:#5c616c; } .ColorScheme-Highlight { color:#5294e2; }</style>
</defs>
<path class="ColorScheme-Text" d="m3.5 1a2.5 2.5 0 0 0-2.5 2.5 2.5 2.5 0 0 0 2 2.4492v4.0508h-2v5h5v-2h2v-1h-2v-2h-2v-4.0547a2.5 2.5 0 0 0 1.9492-1.9453h4.0508v2h2v2h1v-2h2v-5h-5v2h-4.0547a2.5 2.5 0 0 0-2.4453-2zm7.5 8v2h-2v2h2v2h2v-2h2v-2h-2v-2h-2z" fill="currentColor"/>
</svg>
