<svg width="16" height="16" viewBox="0 0 16 16" xmlns="http://www.w3.org/2000/svg">
<defs>
<style id="current-color-scheme" type="text/css">.ColorScheme-Text { color:#5c616c; } .ColorScheme-Highlight { color:#5294e2; }</style>
</defs>
<path class="ColorScheme-Text" d="m6 0v2c-3.3137 0-6 2.6863-6 6 0 2.622 1.6837 4.8461 4.0273 5.6621v-2.2031c-1.2051-0.689-2.0273-1.9713-2.0273-3.459 0-2.2091 1.7909-4 4-4v2l4-3-4-3zm5 2.3477v2.207c1.191 0.6929 2 1.9685 2 3.4453 0 2.209-1.791 4-4 4v-2l-4 3 4 3v-2c3.314 0 6-2.686 6-6 0-2.6116-1.671-4.8281-4-5.6523z" fill="#363636"/>
</svg>
