<svg width="16" height="16" viewBox="0 0 16 16" xmlns="http://www.w3.org/2000/svg">
<defs>
<style id="current-color-scheme" type="text/css">.ColorScheme-Text { color:#5c616c; } .ColorScheme-Highlight { color:#5294e2; }</style>
</defs>
<path class="ColorScheme-Text" d="m1 1v14h0.39062a0.50009 0.50009 0 0 0 0.22852 0h13.381v-2h-12v-1.6113c0.12-0.23253 0.23956-0.46553 0.39258-0.68359 0.81654-1.1636 2.1464-2.1462 4.6836-2.6562 2.6739-0.53756 4.213-1.4839 5.0449-2.6797 0.83193-1.1958 0.91082-2.5589 0.89258-3.7969a0.50005 0.50005 0 0 0-0.51367-0.49805 0.50005 0.50005 0 0 0-0.48633 0.51367c0.0174 1.1818-0.070004 2.2841-0.71484 3.2109-0.64481 0.92683-1.8932 1.7616-4.4199 2.2695-2.354 0.47324-3.8843 1.3922-4.8789 2.5215v-8.5898h-2z" fill="#363636"/>
<path class="ColorScheme-Text" d="m14 2.4004c-0.0434 0.99924-0.2288 2.0342-0.87891 2.9688-0.83192 1.1958-2.371 2.1421-5.0449 2.6797-2.5372 0.51006-3.867 1.4926-4.6836 2.6562-0.15302 0.21806-0.27258 0.45106-0.39258 0.68359v1.6113h11v-10.6z" fill="#363636" opacity=".3"/>
</svg>
