<svg version="1.1" viewBox="0 0 16 16" xmlns="http://www.w3.org/2000/svg">
<defs>
<style id="current-color-scheme" type="text/css">.ColorScheme-Text {
        color:#363636;
      }</style>
</defs>
<path class="ColorScheme-Text" d="m5.75 2c-2.0775 0-3.75 1.6715-3.75 3.7477s1.6725 3.7477 3.75 3.7477h1.5v-1.4991h-1.5c-1.2465 0-2.25-1.0029-2.25-2.2486s1.0035-2.2486 2.25-2.2486h1.5v-1.4991h-1.5zm3 0v1.4991h1.5c1.2465 0 2.25 1.0029 2.25 2.2486s-1.0035 2.2486-2.25 2.2486h-1.5v1.4991h1.5c2.0775 0 3.75-1.6715 3.75-3.7477s-1.6725-3.7477-3.75-3.7477h-1.5zm-3 2.9982v1.4991h4.5v-1.4991h-4.5zm0 6.0037 2.25 2.9982 2.25-2.9982h-4.5z" color="#363636" fill="#363636"/>
</svg>
