<svg width="16" height="16" viewBox="0 0 16 16" xmlns="http://www.w3.org/2000/svg">
<defs>
<style id="current-color-scheme" type="text/css">.ColorScheme-Text { color:#5c616c; } .ColorScheme-Highlight { color:#5294e2; }</style>
</defs>
<path class="ColorScheme-Text" d="m4.3008 2-2.8574 8h1.4277l0.60742-1.7148h2.7852l0.60742 1.7148h1.5898l-3.0176-8h-1.1426zm0.57031 2.2852 1 2.8574h-2l1-2.8574zm5.1289 0.71484v1h2.5c0.21408 0 0.5 0.30707 0.5 0.5v0.5h-2.5c-0.45964 0-0.8678 0.19198-1.125 0.48438-0.2572 0.29239-0.3782 0.65534-0.375 1.0156 3e-3 0.36031 0.13446 0.72638 0.39062 1.0156 0.26 0.289 0.65938 0.48438 1.1094 0.48438h3.5v-0.42188c8e-3 -0.0469 0-0.078125 0-0.078125v-3c0-0.81717-0.6599-1.5-1.5-1.5h-2.5zm0.5 3h2.5v1h-2.5c-0.19894 0-0.28346-0.054905-0.35938-0.14062-0.0759-0.0857-0.13938-0.21968-0.14062-0.35938-1e-3 -0.13969 0.0523-0.27678 0.125-0.35938 0.07905-0.082014 0.1703-0.13927 0.375-0.14062zm-5.5 3.9961 3 4 3-4h-6z" fill="#363636"/>
</svg>
