<svg width="16" height="16" viewBox="0 0 16 16" xmlns="http://www.w3.org/2000/svg">
<defs>
<style id="current-color-scheme" type="text/css">.ColorScheme-Text { color:#5c616c; } .ColorScheme-Highlight { color:#5294e2; }</style>
</defs>
<path class="ColorScheme-Text" d="m5.4062 6s-1.4062 3.906e-4 -1.4062 1.4004v4.1992c0 0.775 0.63633 1.4004 1.4277 1.4004h3.5723l1.5 2 1.5-2h0.57227s1.4277-3.91e-4 1.4277-1.4004v-4.1992c0-1.4-1.4277-1.4004-1.4277-1.4004h-7.166zm3.5938 1h1v2h2v1h-2v2h-1v-2h-2v-1h2v-2z" fill="#363636"/>
<path class="ColorScheme-Text" d="m3.4062 2s-1.4062 3.906e-4 -1.4062 1.4004v4.1992c0 0.6282 0.4207 1.1517 1 1.3301v-2.5293c0-1.4 1.4062-1.4004 1.4062-1.4004h7.166s0.19573 0.023538 0.42773 0.085938v-1.6855c0-1.4-1.4277-1.4004-1.4277-1.4004h-7.166z" fill="#363636" opacity=".3"/>
</svg>
