<svg width="16" height="16" viewBox="0 0 16 16" xmlns="http://www.w3.org/2000/svg">
<defs>
<style id="current-color-scheme" type="text/css">.ColorScheme-Text { color:#5c616c; } .ColorScheme-Highlight { color:#5294e2; }</style>
</defs>
<path class="ColorScheme-Text" d="m13.779 2.9746-0.03125 0.056641c-0.0743-0.0124-0.14905-0.025391-0.22656-0.025391-0.8178 0-1.5254 0.72326-1.5234 1.5234-9e-4 0.35866 0.14663 0.68805 0.37695 0.94727l-3.1211 5.5547c-0.0761-0.0131-0.15293-0.025391-0.23242-0.025391-0.0133 0-0.025862 0.003907-0.039062 0.003907l-1.543-4.334c0.3393-0.27333 0.55969-0.68753 0.55859-1.1465 2e-3 -0.80022-0.65873-1.5234-1.4766-1.5234-0.8178 0-1.5254 0.72326-1.5234 1.5234-1.5e-4 0.058 0.010478 0.11343 0.017578 0.16992l-2.4805 1.2402c-0.26449-0.26356-0.61949-0.43359-1.0137-0.43359-0.8178 0-1.5254 0.72326-1.5234 1.5234-2e-3 0.80023 0.70568 1.4766 1.5234 1.4766 0.81779 0 1.4785-0.67629 1.4766-1.4766 1.8e-4 -0.0735-0.010884-0.14508-0.021484-0.2168l2.4824-1.2402c0.27487 0.26288 0.64646 0.42733 1.0469 0.43164l1.5625 4.3672c-0.34226 0.2863-0.57139 0.70736-0.57031 1.1582-2e-3 0.80023 0.70568 1.4766 1.5234 1.4766 0.81779 0 1.4785-0.67629 1.4766-1.4766 9.2e-4 -0.36959-0.14504-0.7192-0.37695-0.99219l3.0957-5.5 0.58984 4.1699c-0.4729 0.26781-0.80991 0.77342-0.80859 1.3223-2e-3 0.80023 0.70568 1.4766 1.5234 1.4766 0.81779 0 1.4785-0.67629 1.4766-1.4766 2e-3 -0.70802-0.51561-1.3524-1.2012-1.4922l-0.59961-4.2031c0.47546-0.24905 0.80213-0.74383 0.80078-1.3047 2e-3 -0.71067-0.5196-1.3576-1.209-1.4941l-0.009765-0.060547z" fill="#363636"/>
</svg>
