<svg width="16" height="16" version="1.1" viewBox="0 0 16 16" xmlns="http://www.w3.org/2000/svg">
<defs>
<style id="current-color-scheme" type="text/css">.ColorScheme-Text { color:#5c616c; } .ColorScheme-Highlight { color:#5294e2; }</style>
</defs>
<path class="ColorScheme-Text" d="m3 1v2h10v-2h-10zm-1 2c-1.108 0-2 0.892-2 2v8c0 1.108 0.892 2 2 2h6v-5l-6-3v-4zm12 0v4l-2 1h3c0.36397 0 0.70348 0.10774 1 0.2832v-3.2832c0-1.108-0.892-2-2-2zm-11 2v2h10v-2h-10zm7 4c-0.554 0-1 0.446-1 1v5c0 0.554 0.446 1 1 1h5c0.554 0 1-0.446 1-1v-5c0-0.554-0.446-1-1-1h-5zm0 1h1v1h1v1h1v-1h1v-1h1v5h-1v-3h-1v1h-1v-1h-1v3h-1v-5z" fill="#363636"/>
</svg>
