<svg width="16" height="16" viewBox="0 0 16 16" xmlns="http://www.w3.org/2000/svg">
<defs>
<style id="current-color-scheme" type="text/css">.ColorScheme-Text { color:#5c616c; } .ColorScheme-Highlight { color:#5294e2; }</style>
</defs>
<path class="ColorScheme-Text" d="m11 1v2h-1.6172l-4 8h-4.3828v2h5.6191l4-8h0.38086v2l4-3-4-3zm-10 2v2h4.3828l0.94141 1.8828 1.1172-2.2363-0.82227-1.6465h-5.6191zm1 3v4h1v-1h1v1h1v-4h-3zm1 1h1v1h-1v-1zm8 2v2h-0.38086l-0.94141-1.8828-1.1191 2.2363 0.82422 1.6465h1.6172v2l4-3-4-3z" fill="#363636"/>
</svg>
