<svg width="16" height="16" viewBox="0 0 16 16" xmlns="http://www.w3.org/2000/svg">
<defs>
<style id="current-color-scheme" type="text/css">.ColorScheme-Text { color:#5c616c; } .ColorScheme-Highlight { color:#5294e2; }</style>
</defs>
<path class="ColorScheme-Text" d="m1 1a1.0001 1.0001 0 0 0-1 1v4a1.0001 1.0001 0 0 0 1 1h5v2h-5a1.0001 1.0001 0 0 0-1 1v4a1.0001 1.0001 0 0 0 1 1h7a1.0001 1.0001 0 0 0 1-1v-3h5a1.0001 1.0001 0 0 0 1-1v-4a1.0001 1.0001 0 0 0-1-1h-5v-3a1.0001 1.0001 0 0 0-1-1h-7z" fill="#363636"/>
</svg>
