<svg width="16" height="16" viewBox="0 0 16 16" xmlns="http://www.w3.org/2000/svg">
<defs>
<style id="current-color-scheme" type="text/css">.ColorScheme-Text { color:#5c616c; } .ColorScheme-Highlight { color:#5294e2; }</style>
</defs>
<path class="ColorScheme-Text" d="m14.533 2.0059a0.50005 0.50005 0 0 0-0.46875 0.57422c0.22151 1.6172-0.043581 3.7823-1.0508 5.4824-0.65127 1.0993-1.5924 2.0126-2.9414 2.5254v-1.5938h-5v1.6641c-1.4311-0.485-2.4013-1.4029-3.0488-2.5254-0.9594-1.663-1.1735-3.7937-0.92578-5.416a0.50005 0.50005 0 1 0-0.98828-0.15234c-0.27943 1.8301-0.059072 4.1458 1.0488 6.0664 0.79494 1.378 2.0882 2.5196 3.9141 3.0605v2.3027h5v-2.373c1.7413-0.57352 3.0032-1.6993 3.8027-3.0488 1.154-1.948 1.4311-4.2937 1.1797-6.1289a0.50005 0.50005 0 0 0-0.52148-0.4375z" fill="#363636"/>
</svg>
