<svg width="16" height="16" viewBox="0 0 16 16" xmlns="http://www.w3.org/2000/svg">
<defs>
<style id="current-color-scheme" type="text/css">.ColorScheme-Text { color:#5c616c; } .ColorScheme-Highlight { color:#5294e2; }</style>
</defs>
<path class="ColorScheme-Text" d="m1.0195 0v2h-0.50781c-0.67616-0.0096-0.67616 1.0096 0 1h0.50781v2h4v-2h5v2h4v-2.002h0.49609c0.66536 0 0.66536-0.99805 0-0.99805h-0.49609v-2h-4v2h-5v-2h-4zm5.9805 5.0273v2h-2l2.5 3 2.5-3h-2v-2h-1zm-5.9805 5.9727v2h-0.50781c-0.67616-0.0096-0.67616 1.0096 0 1h0.50781v2h4v-5h-4zm9 0v5h4v-2.002h0.49609c0.66536 0 0.66536-0.99805 0-0.99805h-0.49609v-2h-4z" fill="#363636"/>
</svg>
