<svg width="16" height="16" viewBox="0 0 16 16" xmlns="http://www.w3.org/2000/svg">
<defs>
<style id="current-color-scheme" type="text/css">.ColorScheme-Text { color:#5c616c; } .ColorScheme-Highlight { color:#5294e2; }</style>
</defs>
<path class="ColorScheme-Text" d="m7.9805 0.0019531v2c-3.3137 0-6 2.6863-6 6s2.6863 6 6 6c3.2801 0 5.9403-2.6332 5.9941-5.9004a1 1 0 0 0 0.00586-0.099609 1 1 0 0 0-1-1 1 1 0 0 0-1 1c0 2.2091-1.7909 4-4 4s-4-1.7909-4-4 1.7909-4 4-4v2l4-3-4-3z" fill="#363636"/>
</svg>
