<svg width="16" height="16" viewBox="0 0 16 16" xmlns="http://www.w3.org/2000/svg">
<defs>
<style id="current-color-scheme" type="text/css">.ColorScheme-Text { color:#5c616c; } .ColorScheme-Highlight { color:#5294e2; }</style>
</defs>
<path class="ColorScheme-Text" d="m1.998 0.99414 0.0019531 0.0058594c-1.0312 0.0625-1 1-1 1v12s-0.0312 0.9375 1 1h12c1 0 1-1 1-1v-12s0-1-1-1h-5.5312l0.3125 0.375 1.3125 1.625h2.9062v7h-3c0 1.108-0.892 2-2 2s-2-0.892-2-2h-3v-7h2.9062l1.3125-1.625 0.31055-0.38086h-5.5312zm6.002 1.0059-4 5h2v2h4v-2h2l-4-5z" fill="#363636"/>
</svg>
