<svg width="24" height="24" viewBox="0 0 24 24" xmlns="http://www.w3.org/2000/svg">
<defs>
<style id="current-color-scheme" type="text/css">.ColorScheme-Text { color:#5c616c; } .ColorScheme-Highlight { color:#5294e2; }</style>
</defs>
<path class="ColorScheme-Text" d="m7.9863 6.8066a1.1836 1.1836 0 0 0-0.82422 2.0332l3.1641 3.1621-3.1641 3.1621a1.1843 1.1843 0 1 0 1.6738 1.6758l3.1641-3.1641 3.166 3.1641a1.1836 1.1836 0 1 0 1.6719-1.6758l-3.1621-3.1621 3.1621-3.1621a1.1836 1.1836 0 0 0-0.85938-2.0332 1.1836 1.1836 0 0 0-0.8125 0.35742l-3.166 3.1641-3.1641-3.1641a1.1836 1.1836 0 0 0-0.84961-0.35742z" fill="#363636"/>
</svg>
