<svg width="16" height="16" viewBox="0 0 16 16" xmlns="http://www.w3.org/2000/svg">
<defs>
<style id="current-color-scheme" type="text/css">.ColorScheme-Text { color:#5c616c; } .ColorScheme-Highlight { color:#5294e2; }</style>
</defs>
<path class="ColorScheme-Text" d="m14.5 1a1.5 1.5 0 0 0-1.4395 1.084c-5.3311 1.1017-10.043 4.6582-10.994 10.982a1.5 1.5 0 0 0-1.0664 1.4336 1.5 1.5 0 0 0 1.5 1.5 1.5 1.5 0 0 0 1.5-1.5 1.5 1.5 0 0 0-0.92969-1.3867c0.9099-5.7886 5.1128-8.9609 10.055-10.02a1.5 1.5 0 0 0 1.375 0.90625 1.5 1.5 0 0 0 1.5-1.5 1.5 1.5 0 0 0-1.5-1.5zm-5.5 6v9l3.5-2.25 2.5-1.6074v3.8574h1v-9h-1v3.8574l-2.5-1.6074-3.5-2.25z" fill="currentColor"/>
</svg>
