<svg width="16" height="16" viewBox="0 0 16 16" xmlns="http://www.w3.org/2000/svg">
<defs>
<style id="current-color-scheme" type="text/css">.ColorScheme-Text { color:#5c616c; } .ColorScheme-Highlight { color:#5294e2; }</style>
</defs>
<path class="ColorScheme-Text" d="m14.502 0.94727c-0.682 0-1.2496 0.45816-1.4316 1.082-5.326 1.1005-10.036 4.658-10.984 10.988-0.6139 0.187-1.0645 0.75369-1.0645 1.4297 0 0.829 0.67085 1.5 1.498 1.5 0.8272 0 1.498-0.671 1.498-1.5 0-0.626-0.38323-1.1627-0.92773-1.3867 0.3728-2.376 1.2989-4.3092 2.6035-5.8379 1.3998 1.4257 2.2839 2.9257 2.5039 4.1367 0.2244 1.236-0.088875 2.2846-0.98438 3.1816l0.70508 0.70703c1.1014-1.103 1.5366-2.5544 1.2617-4.0684-0.2702-1.4887-1.3081-3.1558-2.8125-4.6836 0.1711-0.1676 0.3524-0.32427 0.5332-0.48047 1.4696 1.4099 2.9585 2.2876 4.3926 2.5488 1.512 0.2752 2.9585-0.16057 4.0605-1.2637l-0.70508-0.70703c-0.895 0.8968-1.9437 1.211-3.1777 0.98633-1.141-0.2078-2.4445-0.94116-3.7793-2.1934 1.5823-1.1458 3.4475-1.9188 5.4355-2.3457 0.23 0.5332 0.758 0.90625 1.375 0.90625 0.827 0 1.498-0.6716 1.498-1.5 0-0.8285-0.67105-1.5-1.498-1.5z" fill="#363636"/>
</svg>
