<svg width="16" height="16" viewBox="0 0 16 16" xmlns="http://www.w3.org/2000/svg">
<defs>
<style id="current-color-scheme" type="text/css">.ColorScheme-Text { color:#5c616c; } .ColorScheme-Highlight { color:#5294e2; }</style>
</defs>
<path class="ColorScheme-Text" d="m3 1a2 2 0 0 0-2 2 2 2 0 0 0 2 2 2 2 0 0 0 2-2 2 2 0 0 0-2-2zm8.1094 0c-0.259 4e-3 -0.50741 0.10917-0.69141 0.29297l-9.125 9.125c-0.3904 0.39-0.3904 1.0241 0 1.4141l2.875 2.875c0.3905 0.39 1.0236 0.39 1.4141 0l9.125-9.125c0.39-0.3905 0.39-1.0236 0-1.4141l-2.875-2.875c-0.191-0.1914-0.45166-0.29712-0.72266-0.29297zm-3.4844 5.9141 1.4609 1.4609-4.2109 4.2109-1.4609-1.4609 4.2109-4.2109z" fill="#363636"/>
</svg>
