<svg width="16" height="16" viewBox="0 0 16 16" xmlns="http://www.w3.org/2000/svg">
<defs>
<style id="current-color-scheme" type="text/css">.ColorScheme-Text { color:#5c616c; } .ColorScheme-Highlight { color:#5294e2; }</style>
</defs>
<path class="ColorScheme-Text" d="m6.5 1c-0.8023 0-1.5 0.64682-1.5 1.4492v1.5508h-3.0352c-0.5349 0-0.96484 0.32643-0.96484 0.86133v3.1387h1.4492c0.8023 0 1.5508 0.6977 1.5508 1.5 0 0.802-0.74848 1.5-1.5508 1.5h-1.4492v3.0332c0 0.535 0.42994 0.9668 0.96484 0.9668h3.0352v-0.9668c0-0.802 0.0175-1.9922 1.5-2.0332s1.5 1.2912 1.5 2.0332v0.9668h3.1387c0.535 0 0.86133-0.4318 0.86133-0.9668v-3.0332h1.5527c0.802 0 1.4473-0.698 1.4473-1.5 0-0.8023-0.65427-1.3767-1.4473-1.5h-1.5527v-3.1387c0-0.5349-0.32633-0.86133-0.86133-0.86133h-3.1387v-1.5508c0-0.8024-0.6977-1.4492-1.5-1.4492z" fill="#363636"/>
</svg>
