<svg width="16" height="16" viewBox="0 0 16 16" xmlns="http://www.w3.org/2000/svg">
<defs>
<style id="current-color-scheme" type="text/css">.ColorScheme-Text { color:#5c616c; } .ColorScheme-Highlight { color:#5294e2; }</style>
</defs>
<path class="ColorScheme-Text" d="m8.7148 1.2891c-1.6102 0-3.0783 0.65097-4.1602 1.6973a6.5 6.5 0 0 1 2.4453-0.48242 6.5 6.5 0 0 1 6.5 6.5 6.5 6.5 0 0 1-0.48242 2.4434c1.046-1.082 1.6973-2.5481 1.6973-4.1582 0-3.2934-2.7068-6-6-6zm-1.7148 1.7109c-3.2934 0-6 2.7066-6 6s2.7066 6 6 6 6-2.7066 6-6-2.7066-6-6-6zm0 4.2852c0.9417 0 1.7148 0.77313 1.7148 1.7148 0 0.94169-0.77313 1.7148-1.7148 1.7148-0.9417 0-1.7148-0.77314-1.7148-1.7148 0-0.9417 0.77313-1.7148 1.7148-1.7148z" fill="#363636"/>
</svg>
