<svg width="16" height="16" viewBox="0 0 16 16" xmlns="http://www.w3.org/2000/svg">
<defs>
<style id="current-color-scheme" type="text/css">.ColorScheme-Text { color:#5c616c; } .ColorScheme-Highlight { color:#5294e2; }</style>
</defs>
<path class="ColorScheme-Text" d="m0 1v13.996c3-1e-3 6-4.7e-5 9 0.001953v-6h6v0.0019531h1v-7.9961c-5.333 0.0020001-10.667-0.0059062-16-0.0039062zm9 2h6v1h-6v-1zm-5.5 1c0.831 0 1.5 0.66735 1.5 1.498v1.5h1v3h-5v-3h1v-1.5c0-0.8307 0.669-1.498 1.5-1.498zm0 0.99805c-0.277 0-0.5 0.2231-0.5 0.5v1.5h1v-1.5c0-0.2769-0.223-0.5-0.5-0.5zm5.5 1h6v1h-6v-1zm3 4.002v0.58594l-0.41406-0.41406-1.4141 1.4141 0.41406 0.41406h-0.58594v2h0.58594l-0.41406 0.41406 1.4141 1.4141 0.41406-0.41406v0.58594h2v-0.58594l0.41406 0.41406 1.4141-1.4141-0.41406-0.41406h0.58594v-2h-0.58594l0.41406-0.41406-1.4141-1.4141-0.41406 0.41406v-0.58594h-2zm1 2a1 1 0 0 1 1 1 1 1 0 0 1-1 1 1 1 0 0 1-1-1 1 1 0 0 1 1-1z" fill="#363636"/>
</svg>
