<svg width="16" height="16" viewBox="0 0 16 16" xmlns="http://www.w3.org/2000/svg">
<defs>
<style id="current-color-scheme" type="text/css">.ColorScheme-Text { color:#5c616c; } .ColorScheme-Highlight { color:#5294e2; }</style>
</defs>
<path class="ColorScheme-Text" d="m3 1c-2.25 0-2 2-2 2v12h8.0039v-2h-6.004v-10h10v0.16406l-6.0293 6.8984-2.25-2.25c-0.3763-0.3764-1.0611-0.3763-1.4375 0-0.1882 0.1882-0.2832 0.45345-0.2832 0.71875 0 0.2654 0.095003 0.53055 0.2832 0.71875l3 3 0.78125 0.75 0.6875-0.8125 5.248-5.998v2.8105h2v-6c0-2-2-2-2-2h-10zm7.8594 9c-0.9633 0-0.85547 0.85742-0.85547 0.85742v5.1426h5.9961v-5.1426c0-0.857-0.85742-0.85742-0.85742-0.85742h-4.2832z" fill="#363636"/>
</svg>
