<svg width="16" height="16" viewBox="0 0 16 16" xmlns="http://www.w3.org/2000/svg">
<defs>
<style id="current-color-scheme" type="text/css">.ColorScheme-Text { color:#5c616c; } .ColorScheme-Highlight { color:#5294e2; }</style>
</defs>
<path class="ColorScheme-Text" d="m0 1v14c5.3333-2e-3 10.667 0.005906 16 0.003906v-14c-5.333 0.0019001-10.667-0.0059062-16-0.0039062zm9 2h6v1h-6v-1zm-5.5 1c0.831 0 1.5 0.669 1.5 1.5v1.5h1v3h-5v-3h1v-1.5c0-0.831 0.669-1.5 1.5-1.5zm0 1c-0.277 0-0.5 0.223-0.5 0.5v1.5h1v-1.5c0-0.277-0.223-0.5-0.5-0.5zm5.5 1h6v1h-6v-1zm0 3h6v1h-6v-1z" fill="currentColor"/>
</svg>
