<svg width="16" height="16" viewBox="0 0 16 16" xmlns="http://www.w3.org/2000/svg">
<defs>
<style id="current-color-scheme" type="text/css">.ColorScheme-Text { color:#5c616c; } .ColorScheme-Highlight { color:#5294e2; }</style>
</defs>
<path class="ColorScheme-Text" d="m3.2188 2c-0.66981 0-1.2188 0.5248-1.2188 1.1875v3.8125h2v-3h3v-2h-3.7812zm5.7812 0v2h3v3h2v-3.8125c0-0.6627-0.54894-1.1875-1.2188-1.1875h-3.7812zm-1 2-2 2h4l-2-2zm-3 3v2h6v-2h-6zm-3 2v3.8125c0 0.6627 0.54894 1.1875 1.2188 1.1875h3.7812v-2h-3v-3h-2zm10 0v3h-3v2h3.7812c0.66981 0 1.2188-0.5248 1.2188-1.1875v-3.8125h-2zm-6 1 2 2 2-2h-4z" fill="currentColor"/>
</svg>
