<svg xmlns="http://www.w3.org/2000/svg" width="22" height="22" version="1.1">
<g>
<path d="m11 0.56a10.443 10.443 0 0 0-10.443 10.439 10.443 10.443 0 0 0 10.443 10.445 10.443 10.443 0 0 0 10.443-10.445 10.443 10.443 0 0 0-10.443-10.439zm0 1.3691a9.0742 9.0742 0 0 1 9.0742 9.0703 9.0742 9.0742 0 0 1-9.0742 9.0742 9.0742 9.0742 0 0 1-9.0742-9.0742 9.0742 9.0742 0 0 1 9.0742-9.0703z" fill-opacity=".60392" opacity=".885" />
<path d="m15 5.26-5.6406 4.6016-2.3594 6.8867 5.6406-4.6016z" fill-opacity=".60392" />
<path transform="translate(0 0)" d="m11 1.9258a9.0742 9.0742 0 0 0-9.0742 9.0703 9.0742 9.0742 0 0 0 9.0742 9.0742 9.0742 9.0742 0 0 0 9.0742-9.0742 9.0742 9.0742 0 0 0-9.0742-9.0703z" fill-opacity=".11765" opacity=".885" />
</g>
</svg>
