<?xml version="1.0" encoding="UTF-8" standalone="no"?>
<svg
   width="16"
   height="16"
   version="1.1"
   id="svg3"
   sodipodi:docname="computer-symbolic.svg"
   inkscape:version="1.4.2 (ebf0e94, 2025-05-08)"
   xmlns:inkscape="http://www.inkscape.org/namespaces/inkscape"
   xmlns:sodipodi="http://sodipodi.sourceforge.net/DTD/sodipodi-0.dtd"
   xmlns="http://www.w3.org/2000/svg"
   xmlns:svg="http://www.w3.org/2000/svg">
  <defs
     id="defs3" />
  <sodipodi:namedview
     id="namedview3"
     pagecolor="#ffffff"
     bordercolor="#000000"
     borderopacity="0.25"
     inkscape:showpageshadow="2"
     inkscape:pageopacity="0.0"
     inkscape:pagecheckerboard="0"
     inkscape:deskcolor="#d1d1d1"
     inkscape:zoom="21.138889"
     inkscape:cx="18"
     inkscape:cy="18"
     inkscape:window-width="1920"
     inkscape:window-height="972"
     inkscape:window-x="0"
     inkscape:window-y="0"
     inkscape:window-maximized="1"
     inkscape:current-layer="svg3" />
  <g
     id="g3"
     transform="translate(0,-0.55516444)">
    <path
       d="M 1.8237773,0.99972222 C 0.81337758,0.99972222 0,1.8130998 0,2.8234996 V 11.22172 H 0.88888867 15.111108 15.970485 v 0.689244 C 15.98576,11.815613 16,11.719955 16,11.620164 V 2.8232773 C 16,1.8128776 15.186623,0.9995 14.176223,0.9995 H 1.8237818 Z M 1.333333,2.3330552 h 13.33333 V 9.8886089 H 1.333333 Z"
       fill="#e8f1f5"
       fill-opacity="0.93156"
       opacity="0.81"
       id="path1"
       style="stroke-width:0.444442" />
    <rect
       x="1.333333"
       y="2.3330553"
       width="13.33333"
       height="7.5555539"
       rx="0"
       ry="0"
       fill="#e8f1f5"
       fill-opacity="0.68235"
       opacity="0.2"
       id="rect1"
       style="stroke-width:0.444442" />
    <path
       d="m 0,11.221942 v 0.398435 c 0,1.0104 0.81337758,1.823778 1.8237773,1.823778 H 14.176219 c 0.910622,0 1.654888,-0.662889 1.794266,-1.532978 v -0.689244 h -0.859377 v 0.450533 c 0,0.489022 -0.393796,0.8828 -0.8828,0.8828 H 1.7718662 c -0.4890221,0 -0.88279975,-0.393795 -0.88279975,-0.8828 V 11.221933 H 1.7777773e-4 Z"
       fill="#e8f1f5"
       fill-opacity="0.8403"
       opacity="0.707"
       id="path2"
       style="stroke-width:0.444442" />
    <circle
       cx="7.9999981"
       cy="11.888609"
       r="0.33333325"
       opacity="0.2"
       id="circle2"
       style="stroke-width:0.444442" />
    <rect
       x="4.8888879"
       y="15.444162"
       width="6.2222209"
       height="0.66666651"
       fill="#e8f1f5"
       fill-opacity="0.88593"
       opacity="0.844"
       id="rect2"
       style="stroke-width:0.444442" />
    <path
       d="m 6.333332,13.444164 v 0.666666 c 1.245e-4,0.924622 -0.9808,1.221511 -1.4444442,1.333333 H 11.111109 C 10.647464,15.332359 9.6665311,15.03547 9.6666644,14.11083 V 13.444164 H 9.5555532 6.4444428 Z"
       fill="#e8f1f5"
       fill-opacity="0.77567"
       opacity="0.3"
       id="path3"
       style="stroke-width:0.444442" />
    <rect
       x="6.3333321"
       y="13.444163"
       width="3.3333325"
       height="0.66666651"
       fill="#e8f1f5"
       fill-opacity="0.68235"
       opacity="0.3"
       id="rect3"
       style="stroke-width:0.444442" />
  </g>
</svg>
