<?xml version="1.0" encoding="UTF-8" standalone="no"?>
<svg
   width="16"
   height="16"
   version="1.1"
   id="svg1"
   sodipodi:docname="document-open-recent-symbolic.svg"
   inkscape:version="1.4.2 (ebf0e94, 2025-05-08)"
   xmlns:inkscape="http://www.inkscape.org/namespaces/inkscape"
   xmlns:sodipodi="http://sodipodi.sourceforge.net/DTD/sodipodi-0.dtd"
   xmlns="http://www.w3.org/2000/svg"
   xmlns:svg="http://www.w3.org/2000/svg">
  <defs
     id="defs1" />
  <sodipodi:namedview
     id="namedview1"
     pagecolor="#ffffff"
     bordercolor="#000000"
     borderopacity="0.25"
     inkscape:showpageshadow="2"
     inkscape:pageopacity="0.0"
     inkscape:pagecheckerboard="0"
     inkscape:deskcolor="#d1d1d1"
     inkscape:zoom="21.138889"
     inkscape:cx="18"
     inkscape:cy="18"
     inkscape:window-width="1920"
     inkscape:window-height="972"
     inkscape:window-x="0"
     inkscape:window-y="0"
     inkscape:window-maximized="1"
     inkscape:current-layer="svg1" />
  <g
     id="g1"
     transform="matrix(0.44444272,0,0,0.44444272,1.1055512e-4,-2.7638781e-5)">
    <path
       d="m 18,0 v 4.1293 c 1.2386,0 2.4424,0.16463 3.585,0.46924 l 1.0699,-3.9792 C 21.1683,0.21943 19.6131,-5e-5 18.0001,-5e-5 Z m -4.6736,0.61939 c -1.5382,0.41235 -2.9893,1.0214 -4.3358,1.8019 l 2.0646,3.5662 c 1.0383,-0.602 2.1547,-1.0711 3.341,-1.389 l -1.0699,-3.9792 z m 13.664,1.8019 -2.0646,3.5662 c 1.0536,0.60924 2.0356,1.3411 2.8905,2.196 l 2.9093,-2.9093 c -1.1087,-1.1088 -2.3689,-2.0626 -3.7351,-2.853 z m -21.716,2.8718 c -3.2517,3.2566 -5.2742,7.7411 -5.2742,12.707 0,9.9415 8.0585,18 18,18 9.9415,0 18,-8.0585 18,-18 h -4.1293 c 0,7.661 -6.2097,13.871 -13.871,13.871 -7.6613,0 -13.871,-6.2097 -13.871,-13.871 0,-3.8305 1.5442,-7.3064 4.0542,-9.8165 L 5.2738,5.29309 Z m 28.304,3.7164 -3.5662,2.0646 c 0.60108,1.0395 1.0725,2.1535 1.389,3.341 l 3.9792,-1.0699 c -0.41494,-1.5336 -1.0239,-2.9909 -1.8019,-4.3358 z m 1.8019,4.3358 c 0.0879,0.32794 0.17303,0.66302 0.244,0.99477 -0.0705,-0.3382 -0.15455,-0.66397 -0.244,-0.99477 z m -24.363,-3.9416 -1.7268,1.7268 8.1272,8.1272 h 10.774 v -2.44 h -9.7602 l -7.414,-7.414 z"
       fill="#e8f1f5"
       fill-opacity="0.68235"
       id="path1" />
  </g>
</svg>
