<?xml version="1.0" encoding="UTF-8" standalone="no"?>
<svg
   width="16"
   height="16"
   version="1.1"
   id="svg7"
   sodipodi:docname="drive-harddisk-symbolic.svg"
   inkscape:version="1.4.2 (ebf0e94, 2025-05-08)"
   xmlns:inkscape="http://www.inkscape.org/namespaces/inkscape"
   xmlns:sodipodi="http://sodipodi.sourceforge.net/DTD/sodipodi-0.dtd"
   xmlns="http://www.w3.org/2000/svg"
   xmlns:svg="http://www.w3.org/2000/svg">
  <defs
     id="defs7" />
  <sodipodi:namedview
     id="namedview7"
     pagecolor="#ffffff"
     bordercolor="#000000"
     borderopacity="0.25"
     inkscape:showpageshadow="2"
     inkscape:pageopacity="0.0"
     inkscape:pagecheckerboard="0"
     inkscape:deskcolor="#d1d1d1"
     inkscape:zoom="21.138889"
     inkscape:cx="18"
     inkscape:cy="18"
     inkscape:window-width="1920"
     inkscape:window-height="972"
     inkscape:window-x="0"
     inkscape:window-y="0"
     inkscape:window-maximized="1"
     inkscape:current-layer="svg7" />
  <g
     id="g7"
     transform="matrix(0.44444444,0,0,0.44444444,4.4681682e-5,0)">
    <path
       d="m 3.9824,27.422 v 4.5918 c 0,1.1003 0.88604,1.9863 1.9863,1.9863 h 0.03125 v -6 h 0.10352 c -0.18998,0 -0.3776,-0.01287 -0.5625,-0.03906 -0.5547,-0.07858 -1.0827,-0.27021 -1.5586,-0.53906 z m 28,0.01953 c -0.6265,0.34634 -1.34,0.55859 -2.0859,0.55859 H 26 v 6 h 3.9961 c 1.1003,0 1.9863,-0.88604 1.9863,-1.9863 v -4.5723 z m -22.982,0.55859 v 6 h 7 v -6 z m 9,0 v 6 h 2 v -6 z m 4,0 v 6 h 2 v -6 z"
       fill="#e8e8e8"
       fill-opacity="0.76863"
       opacity="0.3"
       id="path1" />
    <path
       d="M 7.99,2 C 6.8897,2 6.113,2.89148 6.0037,3.9863 l -2,20.027 c -0.10933,1.0948 0.88604,1.9863 1.9863,1.9863 h 5.2715 16.742 2 0.0137 c 1.1003,0 2.0957,-0.89148 1.9863,-1.9863 l -2,-20.027 C 29.89414,2.8915 29.11744,2 28.0171,2 h -0.0137 -2 -12.742 -5.2715 z m 19.004,1.9805 1.0098,12.02 c 0,4.4183 -4.4772,8 -10,8 -5.5228,0 -10,-3.5817 -10,-8 0,-4.4183 4.4772,-8 10,-8 0.85672,0 1.6888,0.0859 2.4824,0.24805 l 6.5078,-4.2676 z"
       fill="#e8f1f5"
       fill-opacity="0.40659"
       id="path2" />
    <path
       d="m 25.6,6.41 -5.2109,3.3652 c -0.75696,-0.18031 -1.559,-0.27734 -2.3906,-0.27734 -4.5564,0 -8.25,2.9102 -8.25,6.5 0,3.5898 3.6936,6.5 8.25,6.5 4.5564,0 8.25,-2.9102 8.25,-6.5 l -0.64844,-9.5879 z m -7.6016,6.6113 a 4,2.9785 0 0 1 4,2.9785 4,2.9785 0 0 1 -4,2.9785 4,2.9785 0 0 1 -4,-2.9785 4,2.9785 0 0 1 4,-2.9785 z"
       fill="#ffffff"
       fill-opacity="0.11787"
       opacity="0.1"
       id="path3" />
    <path
       d="M 26.99,3.98 20.4822,8.2476 C 19.68862,8.08548 18.8565,7.99955 17.9998,7.99955 c -5.5228,0 -10,3.5817 -10,8 0,4.4183 4.4772,8 10,8 5.5228,0 10,-3.5817 10,-8 L 26.99,3.97955 Z m -1.3887,2.4316 0.64844,9.5879 c 0,3.5898 -3.6936,6.5 -8.25,6.5 -4.5564,0 -8.25,-2.9102 -8.25,-6.5 0,-3.5898 3.6936,-6.5 8.25,-6.5 0.83167,0 1.6337,0.097 2.3906,0.27734 l 5.2109,-3.3652 z"
       fill="#e8f1f5"
       fill-opacity="0.80769"
       id="path4" />
    <path
       d="m 18,13.02 a 4,2.9785 0 0 0 -4,2.9785 4,2.9785 0 0 0 4,2.9785 4,2.9785 0 0 0 4,-2.9785 4,2.9785 0 0 0 -4,-2.9785 z m 0,1.1875 a 2.4052,1.791 0 0 1 2.4043,1.791 A 2.4052,1.791 0 0 1 18,17.7895 2.4052,1.791 0 0 1 15.5957,15.9985 2.4052,1.791 0 0 1 18,14.2075 Z"
       fill="#e8f1f5"
       fill-opacity="0.78571"
       id="path5" />
    <path
       d="M 8.1035,0 C 5.8301,0 4.2285,1.8416 4,4.1035 L 2,23.8965 C 1.994,23.9533 1.99714,24.00822 1.99414,24.06447 1.99214,24.00807 1.982421,23.95349 1.982421,23.8965 v 8 c 0,2.2734 1.8301,4.1035 4.1035,4.1035 h 23.793001 c 2.2734,0 4.1035,-1.8301 4.1035,-4.1035 V 24.7227 C 34.021322,24.45587 34.0286,24.17927 34,23.89653 L 32,4.10353 C 31.77155,1.84163 30.1699,3e-5 27.8965,3e-5 H 8.1034996 Z M 7.98631,2 h 5.2715 12.742 2 0.01367 c 1.1003,0 1.877,0.89148 1.9863,1.9863 l 2,20.027 c 0.1093,1.0948 -0.88604,1.9863 -1.9863,1.9863 h -0.01367 -2 -16.742 -5.2715 c -1.1003,0 -2.0957,-0.89148 -1.9863,-1.9863 l 2,-20.027 C 6.10937,2.8915 6.88605,2 7.98631,2 Z m -4.0039,25.422 c 0.63454,0.35847 1.3612,0.57812 2.1211,0.57812 H 5.99999 v 6 H 5.96874 c -1.1003,0 -1.9863,-0.88604 -1.9863,-1.9863 v -4.5918 z m 28,0.01953 v 4.5723 c 0,1.1003 -0.88604,1.9863 -1.9863,1.9863 h -0.01367 -2 -1.9824 v -6 h 3.8965 c 0.74595,0 1.4594,-0.21225 2.0859,-0.55859 z m -22.982,0.55859 h 7 v 6 h -4.7598 -2.2402 z m 9,0 h 2 v 6 h -2 z m 4,0 h 2 v 6 h -2 z"
       fill="#e8f1f5"
       fill-opacity="0.82967"
       id="path6" />
    <rect
       x="10"
       y="4"
       width="12"
       height="2"
       fill="#e8f1f5"
       fill-opacity="0.5"
       id="rect6" />
  </g>
</svg>
