<?xml version="1.0" encoding="UTF-8" standalone="no"?>
<svg
   width="16"
   height="16"
   version="1.1"
   id="svg3"
   sodipodi:docname="drive-removable-media-symbolic.svg"
   inkscape:version="1.4.2 (ebf0e94, 2025-05-08)"
   xmlns:inkscape="http://www.inkscape.org/namespaces/inkscape"
   xmlns:sodipodi="http://sodipodi.sourceforge.net/DTD/sodipodi-0.dtd"
   xmlns="http://www.w3.org/2000/svg"
   xmlns:svg="http://www.w3.org/2000/svg">
  <defs
     id="defs3" />
  <sodipodi:namedview
     id="namedview3"
     pagecolor="#ffffff"
     bordercolor="#000000"
     borderopacity="0.25"
     inkscape:showpageshadow="2"
     inkscape:pageopacity="0.0"
     inkscape:pagecheckerboard="0"
     inkscape:deskcolor="#d1d1d1"
     inkscape:zoom="21.138889"
     inkscape:cx="18"
     inkscape:cy="18"
     inkscape:window-width="1920"
     inkscape:window-height="972"
     inkscape:window-x="0"
     inkscape:window-y="0"
     inkscape:window-maximized="1"
     inkscape:current-layer="svg3" />
  <g
     id="g3"
     transform="translate(-1.0976777)">
    <path
       d="m 4.6488,0.88888889 c -0.4890222,0 -0.8342222,0.39621331 -0.8828,0.88280001 L 2.8771111,10.672578 c -0.048591,0.486578 0.3937956,0.8828 0.8828,0.8828 H 6.1028 h 7.440889 0.888889 0.0061 c 0.489023,0 0.931423,-0.396214 0.8828,-0.8828 L 14.432564,1.7716889 C 14.383961,1.2851111 14.038774,0.88888889 13.549765,0.88888889 H 13.54369 12.654801 6.9916898 Z M 9.2745778,1.5295111 c 0.01784,-6.667e-4 0.035707,0.00141 0.052951,0.00608 0.052218,0.014369 0.095031,0.05176 0.11632,0.1015644 8.889e-4,0.00164 0.00173,0.00343 0.00262,0.00521 l 0.00173,0.00434 0.5503556,1.2743111 c 0.050662,0.11736 -0.035369,0.2482355 -0.1631956,0.2482622 h -0.29948 V 6.3628344 C 9.5752918,6.3277674 9.6068118,6.2797854 9.64699,6.2473855 9.9682255,5.9884299 10.297078,5.777341 10.501167,5.5156077 c 0.0031,-0.024564 0.0069,-0.057538 0.0095,-0.1006933 0.0052,-0.1042712 0.0074,-0.2409556 0.0061,-0.3758667 -0.0011,-0.1084845 -0.0051,-0.2095511 -0.0078,-0.3038178 H 10.290231 C 10.191916,4.7353116 10.112196,4.6555916 10.11228,4.557276 V 3.4643852 c -8.4e-5,-0.098316 0.07964,-0.1780356 0.177951,-0.1779512 h 1.091156 c 0.09831,-8.44e-5 0.178035,0.079636 0.177951,0.1779512 v 1.092889 c 8.4e-5,0.098316 -0.07964,0.1780356 -0.177951,0.1779511 h -0.31684 c 0.0025,0.09308 0.0052,0.1900178 0.0061,0.2986134 0.0014,0.1416755 0.0023,0.2849777 -0.0044,0.4097244 -0.0033,0.061244 -0.0075,0.1181645 -0.01563,0.1718756 -0.0054,0.036142 -0.01622,0.1181289 -0.06684,0.1944444 -0.0021,0.00293 -0.0039,0.00601 -0.0061,0.00868 l -8.88e-4,0.00173 c -0.005,0.00676 -0.01054,0.013142 -0.01649,0.019098 l 0.01563,-0.019098 C 10.685018,6.2153898 10.282502,6.4479853 9.99508,6.6796742 9.7049333,6.9135587 9.5393467,7.0941631 9.5393467,7.4487853 c 0,0.011378 -0.00124,0.022698 -0.00347,0.033853 v 0.9132 c 4.444e-4,0.00302 4.236e-4,0.00164 8.889e-4,0.00868 8.889e-4,0.011867 4.444e-4,0.023769 -8.889e-4,0.035591 v 0.5225778 c 0.3538933,0.1210666 0.6319563,0.4156577 0.6319563,0.8090222 0,0.4947107 -0.4046007,0.8992897 -0.8992896,0.8992897 -0.4947111,0 -0.9001778,-0.404147 -0.9001778,-0.8992897 0,-0.38628 0.2681733,-0.6772445 0.612,-0.8038222 V 8.442732 C 8.9377689,8.1182298 8.6572267,7.8225987 8.3258356,7.5399764 8.15688,7.3958742 7.9806889,7.2569587 7.8336578,7.104212 7.6871911,6.952052 7.5455067,6.7634564 7.5437289,6.5182564 7.5422178,6.2961764 7.5479956,6.1463498 7.5515422,5.9679009 7.2596089,5.8365498 7.0350533,5.5760698 7.0350533,5.237012 c 0,-0.4609778 0.3780578,-0.8368002 0.8385334,-0.8368002 0.4604889,0 0.8376889,0.3763202 0.8376889,0.8368002 0,0.3717111 -0.2680223,0.6467111 -0.6050223,0.7552 -0.00338,0.1726622 -0.00828,0.3169422 -0.00695,0.5216889 8.89e-5,0.012755 0.028111,0.095187 0.13368,0.2048622 0.1067955,0.1109378 0.2751022,0.2457333 0.4531111,0.3975689 0.10088,0.08604 0.1922755,0.2112089 0.2942711,0.3133689 V 3.1693043 h -0.28212 C 8.5694578,3.1688509 8.4838533,3.0358554 8.5367911,2.9184376 l 0.5764,-1.2699556 c 0.00164,-0.00502 0.00387,-0.00991 0.00608,-0.014757 0.027867,-0.061365 0.088031,-0.1014978 0.1553822,-0.1041689 z"
       fill="#e8f1f5"
       fill-opacity="0.50588"
       id="path1"
       style="stroke-width:0.444444" />
    <path
       d="M 4.6993333,0 C 3.6889333,0 2.9771111,0.81848889 2.8755556,1.8237778 L 1.9866667,10.620667 c -0.00267,0.02524 -0.00133,0.04965 -0.00267,0.07465 -8.889e-4,-0.02507 -0.0052,-0.04932 -0.0052,-0.07465 v 3.555555 C 1.9788,15.186622 2.7921778,16 3.8025778,16 H 14.377244 c 1.0104,0 1.823778,-0.813378 1.823778,-1.823778 v -3.188355 c 0.01729,-0.118591 0.02053,-0.241529 0.0078,-0.367191 L 15.319956,1.8237867 C 15.218422,0.81849778 14.506622,8.8888889e-6 13.496222,8.8888889e-6 H 4.6993333 Z m -0.052084,0.88888889 h 2.3428889 5.6631108 0.888889 0.0061 c 0.489022,0 0.834222,0.39621331 0.8828,0.88280001 l 0.888889,8.9008891 c 0.04858,0.486578 -0.393809,0.8828 -0.882845,0.8828 H 14.430982 13.542093 6.1012048 3.758316 c -0.4890223,0 -0.9314223,-0.396214 -0.8828,-0.8828 L 3.7644044,1.7716889 C 3.8130089,1.2851111 4.1582133,0.88888889 4.6472493,0.88888889 Z M 2.8677378,12.187556 c 0.2820178,0.15932 0.6049778,0.256946 0.9427111,0.256946 H 14.385116 c 0.331533,0 0.648622,-0.09433 0.927066,-0.248262 v 2.032133 c 0,0.489023 -0.393795,0.8828 -0.8828,0.8828 h -0.0061 -0.888889 -7.4408884 -2.3428889 c -0.4890223,0 -0.8828,-0.393795 -0.8828,-0.8828 v -2.0408 z"
       fill="#e8f1f5"
       fill-opacity="0.83137"
       opacity="0.813"
       id="path2"
       style="stroke-width:0.444444" />
    <path
       d="m 3.7964,13.337778 c -0.3315333,0 -0.6486222,0.09433 -0.9270667,0.248262 v 0.642356 c 0,0.489022 0.3937956,0.8828 0.8828,0.8828 H 14.4308 c 0.489022,0 0.8828,-0.393796 0.8828,-0.8828 v -0.633689 c -0.282018,-0.15932 -0.604978,-0.256943 -0.942711,-0.256943 H 3.7962222 Z"
       fill="#e8f1f5"
       fill-opacity="0.9171"
       opacity="0.2"
       id="path3"
       style="stroke-width:0.444444" />
  </g>
</svg>
