<?xml version="1.0" encoding="UTF-8" standalone="no"?>
<svg
   width="16"
   height="16"
   version="1.1"
   id="svg1"
   sodipodi:docname="folder-templates-symbolic.svg"
   inkscape:version="1.4.2 (ebf0e94, 2025-05-08)"
   xmlns:inkscape="http://www.inkscape.org/namespaces/inkscape"
   xmlns:sodipodi="http://sodipodi.sourceforge.net/DTD/sodipodi-0.dtd"
   xmlns="http://www.w3.org/2000/svg"
   xmlns:svg="http://www.w3.org/2000/svg">
  <defs
     id="defs1" />
  <sodipodi:namedview
     id="namedview1"
     pagecolor="#ffffff"
     bordercolor="#000000"
     borderopacity="0.25"
     inkscape:showpageshadow="2"
     inkscape:pageopacity="0.0"
     inkscape:pagecheckerboard="0"
     inkscape:deskcolor="#d1d1d1"
     inkscape:zoom="21.138889"
     inkscape:cx="18"
     inkscape:cy="18"
     inkscape:window-width="1920"
     inkscape:window-height="972"
     inkscape:window-x="0"
     inkscape:window-y="0"
     inkscape:window-maximized="1"
     inkscape:current-layer="svg1" />
  <path
     d="m 8.0609307,1.0568628 c -0.095587,0.0074 -0.1909516,0.036311 -0.279161,0.087236 L 7.2932581,1.4232599 C 6.9796232,1.6043363 6.8766411,1.9994565 7.0577175,2.3130869 L 11.29744,9.6585378 12.85026,8.6204064 8.6716012,1.3882837 C 8.5584285,1.1922612 8.3660682,1.0714045 8.1569131,1.0567828 c -0.031376,-0.00224 -0.0641,-0.00251 -0.09596,0 z M 6.560464,3.5605737 C 6.3512955,3.5751997 6.1502156,3.687328 6.0370206,3.8833504 L 5.6095597,4.6161622 7.2234434,5.5495874 7.6509045,4.8167755 C 7.8319808,4.5031406 7.7289987,4.1080515 7.4153638,3.9269485 L 6.9355629,3.6477876 C 6.8179504,3.5798839 6.6859429,3.5517741 6.5604419,3.5605515 Z M 5.3391406,5.0959276 1.6839254,11.437867 3.2978091,12.362583 6.9530243,6.0290861 Z M 2.67e-4,7.9398455 v 1.8668953 h 2.1635926 l 1.073019,-1.8668953 z m 6.3161635,0 -1.073019,1.8668953 H 10.92227 L 9.8405404,7.9398455 Z m 6.6037065,0 1.08173,1.8668953 h 1.997866 V 7.9398455 Z m 0.209511,1.1602593 -1.55282,1.0380882 0.77641,1.343451 1.552819,-1.038087 z m 1.055553,1.8319632 -1.552821,1.038088 c 0.04626,1.856139 1.463758,1.624993 2.006444,2.782898 1.033377,-1.100129 0.720902,-2.791832 -0.453623,-3.820986 z M 1.40488,11.917846 0.55869549,14.945 3.0187639,12.851316 Z"
     fill="#e8f1f5"
     fill-opacity="0.68235"
     id="path1"
     style="stroke-width:0.444425" />
</svg>
