<?xml version="1.0" encoding="UTF-8" standalone="no"?>
<svg
   width="16"
   height="16"
   version="1.1"
   id="svg4"
   sodipodi:docname="folder-remote-symbolic.svg"
   inkscape:version="1.4.2 (ebf0e94, 2025-05-08)"
   xmlns:inkscape="http://www.inkscape.org/namespaces/inkscape"
   xmlns:sodipodi="http://sodipodi.sourceforge.net/DTD/sodipodi-0.dtd"
   xmlns="http://www.w3.org/2000/svg"
   xmlns:svg="http://www.w3.org/2000/svg">
  <defs
     id="defs4" />
  <sodipodi:namedview
     id="namedview4"
     pagecolor="#ffffff"
     bordercolor="#000000"
     borderopacity="0.25"
     inkscape:showpageshadow="2"
     inkscape:pageopacity="0.0"
     inkscape:pagecheckerboard="0"
     inkscape:deskcolor="#d1d1d1"
     inkscape:zoom="21.138889"
     inkscape:cx="18"
     inkscape:cy="18"
     inkscape:window-width="1920"
     inkscape:window-height="972"
     inkscape:window-x="0"
     inkscape:window-y="0"
     inkscape:window-maximized="1"
     inkscape:current-layer="svg4" />
  <g
     fill="#e8f1f5"
     id="g4"
     transform="matrix(0.44443086,0,0,0.44443086,4.8895697e-4,2.4452e-4)">
    <path
       d="M 2.12,1 C 0.9448,1 -0.0011,1.94505 -0.0011,3.1192 v 24.762 c 0,1.1742 0.94588,2.1192 2.1211,2.1192 h 31.758 c 1.1752,0 2.1211,-0.94505 2.1211,-2.1192 V 6.1422 C 35.9991,4.968 35.05322,4.023 33.878,4.023 H 14.341 C 13.0363,3.9719 12.7113,3.37626 11.9997,2.435 11.28809,1.49379 10.8323,1.0002 9.8781,1.0002 Z m 1.166,1.9982 h 5.4258 c 1.3355,0 1.7571,1.0142 2.2718,1.5285 0.5147,0.5143 1.9584,1.4942 2.7711,1.4942 h 18.957 c 0.71285,0 1.2871,0.57376 1.2871,1.286 v 0.72397 c -0.041,-0.002 -0.0795,-0.0117 -0.12109,-0.0117 h -31.758 c -0.0416,0 -0.0801,0.009 -0.12109,0.0117 v -3.7467 c 0,-0.71222 0.57426,-1.286 1.2871,-1.286 z m 0,7.0192 h 29.426 c 0.71285,0 1.2871,0.57375 1.2871,1.286 v 15.412 c 0,0.71222 -0.57426,1.286 -1.2871,1.286 H 3.286 c -0.71285,0 -1.2871,-0.57376 -1.2871,-1.286 v -15.412 c 0,-0.71223 0.57426,-1.286 1.2871,-1.286 z"
       fill-opacity="0.88593"
       opacity="0.75"
       id="path1" />
    <path
       d="m 3.29,10.02 h 29.426 c 0.71285,0 1.2871,0.57375 1.2871,1.286 v 15.412 c 0,0.71222 -0.57426,1.286 -1.2871,1.286 H 3.29 c -0.71285,0 -1.2871,-0.57376 -1.2871,-1.286 V 11.306 c 0,-0.71223 0.57426,-1.286 1.2871,-1.286 z"
       fill-opacity="0.68235"
       id="path2" />
    <path
       d="m 2,26 v 0.71227 c 0,0.71222 0.57426,1.286 1.2871,1.286 h 29.426 c 0.71285,0 1.2871,-0.57376 1.2871,-1.286 V 26 Z"
       fill-opacity="0.68235"
       opacity="0.3"
       id="path3" />
    <rect
       x="0"
       y="32.5"
       width="36"
       height="2.5"
       rx="1.25"
       ry="1.25"
       fill-opacity="0.78707"
       opacity="0.75"
       id="rect3" />
  </g>
</svg>
