<?xml version="1.0" encoding="UTF-8" standalone="no"?>
<svg
   width="16"
   height="16"
   version="1.1"
   id="svg3"
   sodipodi:docname="folder-pictures-symbolic.svg"
   inkscape:version="1.4.2 (ebf0e94, 2025-05-08)"
   xmlns:inkscape="http://www.inkscape.org/namespaces/inkscape"
   xmlns:sodipodi="http://sodipodi.sourceforge.net/DTD/sodipodi-0.dtd"
   xmlns="http://www.w3.org/2000/svg"
   xmlns:svg="http://www.w3.org/2000/svg">
  <defs
     id="defs3" />
  <sodipodi:namedview
     id="namedview3"
     pagecolor="#ffffff"
     bordercolor="#000000"
     borderopacity="0.25"
     inkscape:showpageshadow="2"
     inkscape:pageopacity="0.0"
     inkscape:pagecheckerboard="0"
     inkscape:deskcolor="#d1d1d1"
     inkscape:zoom="21.138889"
     inkscape:cx="18"
     inkscape:cy="18"
     inkscape:window-width="1920"
     inkscape:window-height="972"
     inkscape:window-x="0"
     inkscape:window-y="0"
     inkscape:window-maximized="1"
     inkscape:current-layer="svg3" />
  <g
     id="g1"
     transform="matrix(0.44444444,0,0,0.44444444,8e-8,0.05555564)">
    <path
       d="M 13.461,3.25 C 11.4596,3.25 10.2887,3.46727 9.1094,4.6465 7.9302,5.8257 7.2501,7.75 5.6074,7.75 H 4.2715 C 1.9053,7.75 0,9.6552 0,12.0215 v 16.207 C 0,30.5947 1.9052,32.5 4.2715,32.5 h 27.457 C 34.0947,32.5 36,30.5948 36,28.2285 V 12.0215 C 36,9.6553 34.0947,7.75 31.7285,7.75 H 30.3926 C 28.7499,7.75 28.0699,5.8257 26.8906,4.6465 25.7114,3.4673 24.5405,3.25 22.539,3.25 h -9.0781 z m 0.10547,2.25 h 8.8672 c 1.283,0 2.6929,0.53862 3.7969,1.6426 1.104,1.104 1.646,2.8574 3.4414,2.8574 h 1.877 c 1.2189,0 2.2012,0.98224 2.2012,2.2012 v 15.848 c 0,1.2189 -0.98223,2.2012 -2.2012,2.2012 h -27.098 c -1.2189,0 -2.2012,-0.98224 -2.2012,-2.2012 V 12.2012 C 2.24977,10.9823 3.23201,10 4.45097,10 h 1.877 c 1.7954,0 2.3375,-1.7535 3.4414,-2.8574 1.104,-1.104 2.5139,-1.6426 3.7969,-1.6426 z m 4.4336,7.7754 a 5.625,5.625 0 0 0 -5.625,5.625 5.625,5.625 0 0 0 5.625,5.625 5.625,5.625 0 0 0 5.625,-5.625 5.625,5.625 0 0 0 -5.625,-5.625 z m 0,2.25 a 3.375,3.375 0 0 1 3.375,3.375 3.375,3.375 0 0 1 -3.375,3.375 3.375,3.375 0 0 1 -3.375,-3.375 3.375,3.375 0 0 1 3.375,-3.375 z"
       fill="#e8f1f5"
       fill-opacity="0.85932"
       id="path1" />
    <path
       d="M 13.566,5.5 C 12.283,5.5 10.8731,6.03862 9.7691,7.1426 8.6651,8.2466 8.123,10 6.3277,10 h -1.877 c -1.2189,0 -2.2012,0.98224 -2.2012,2.2012 v 15.848 c 0,1.2189 0.98224,2.2012 2.2012,2.2012 h 27.098 c 1.2189,0 2.2012,-0.98224 2.2012,-2.2012 V 12.2012 C 33.7499,10.9823 32.76767,10 31.5487,10 h -1.877 C 27.8763,10 27.3343,8.2465 26.2303,7.1426 25.1263,6.0386 23.7164,5.5 22.4334,5.5 h -8.8672 z m 4.4336,2.1504 a 11.25,11.25 0 0 1 11.25,11.25 11.25,11.25 0 0 1 -11.25,11.25 11.25,11.25 0 0 1 -11.25,-11.25 11.25,11.25 0 0 1 11.25,-11.25 z m 0,7.875 a 3.375,3.375 0 0 0 -3.375,3.375 3.375,3.375 0 0 0 3.375,3.375 3.375,3.375 0 0 0 3.375,-3.375 3.375,3.375 0 0 0 -3.375,-3.375 z"
       fill="#e8f1f5"
       fill-opacity="0.60076"
       id="path2" />
    <path
       d="M 18,7.6504 A 11.25,11.25 0 0 0 6.75,18.9004 11.25,11.25 0 0 0 18,30.1504 11.25,11.25 0 0 0 29.25,18.9004 11.25,11.25 0 0 0 18,7.6504 Z m 0,2.25 a 9,9 0 0 1 9,9 9,9 0 0 1 -9,9 9,9 0 0 1 -9,-9 9,9 0 0 1 9,-9 z"
       fill="#e8f1f5"
       fill-opacity="0.85932"
       id="path3" />
  </g>
</svg>
