<?xml version='1.0' encoding='UTF-8'?>
<svg xmlns="http://www.w3.org/2000/svg" width="16" height="16" version="1.1" viewBox="0 0 36 36">
<path d="m3 0c-0.9972 0-1.8 0.8028-1.8 1.8v32.4c0 0.9972 0.8028 1.8 1.8 1.8h30c0.9972 0 1.8-0.8028 1.8-1.8v-32.4c0-0.9972-0.8028-1.8-1.8-1.8h-30zm0.6 2.4h2.4v2.4h-2.4v-2.4zm6 0h16.8c0.6648 0 1.2 0.5352 1.2 1.2v12c0 0.6648-0.5352 1.2-1.2 1.2h-16.8c-0.6648 0-1.2-0.5352-1.2-1.2v-12c0-0.6648 0.5352-1.2 1.2-1.2zm20.4 0h2.4v2.4h-2.4v-2.4zm-26.4 4.8h2.4v2.4h-2.4v-2.4zm26.4 0h2.4v2.4h-2.4v-2.4zm-26.4 4.8h2.4v2.4h-2.4v-2.4zm26.4 0h2.4v2.4h-2.4v-2.4zm-26.4 4.8h2.4v2.4h-2.4v-2.4zm26.4 0h2.4v2.4h-2.4v-2.4zm-20.4 2.4h16.8c0.6648 0 1.2 0.5352 1.2 1.2v12c0 0.6648-0.5352 1.2-1.2 1.2h-16.8c-0.6648 0-1.2-0.5352-1.2-1.2v-12c0-0.6648 0.5352-1.2 1.2-1.2zm-6 2.4h2.4v2.4h-2.4v-2.4zm26.4 0h2.4v2.4h-2.4v-2.4zm-26.4 4.8h2.4v2.4h-2.4v-2.4zm26.4 0h2.4v2.4h-2.4v-2.4zm-26.4 4.8h2.4v2.4h-2.4v-2.4zm26.4 0h2.4v2.4h-2.4v-2.4z" color="#bebebe" fill="#e8f1f5" fill-opacity=".80989"/>
<path d="m9.5996 2.4004c-0.6648 0-1.1992 0.53442-1.1992 1.1992v12c0 0.6648 0.53442 1.2012 1.1992 1.2012h16.801c0.6648 0 1.1992-0.53637 1.1992-1.2012v-12c0-0.6648-0.53442-1.1992-1.1992-1.1992h-16.801z" fill="#fff" fill-opacity=".37262"/>
<path d="m9.5996 19.199c-0.6648 0-1.1992 0.53637-1.1992 1.2012v12c0 0.6648 0.53442 1.1992 1.1992 1.1992h16.801c0.6648 0 1.1992-0.53442 1.1992-1.1992v-12c0-0.6648-0.53442-1.2012-1.1992-1.2012h-16.801z" fill="#fff" fill-opacity=".37262"/>
</svg>