<?xml version="1.0" encoding="UTF-8" standalone="no"?>
<svg
   width="16"
   height="16"
   version="1.1"
   id="svg2"
   sodipodi:docname="folder-root-symbolic.svg"
   inkscape:version="1.4.2 (ebf0e94, 2025-05-08)"
   xmlns:inkscape="http://www.inkscape.org/namespaces/inkscape"
   xmlns:sodipodi="http://sodipodi.sourceforge.net/DTD/sodipodi-0.dtd"
   xmlns="http://www.w3.org/2000/svg"
   xmlns:svg="http://www.w3.org/2000/svg">
  <defs
     id="defs2" />
  <sodipodi:namedview
     id="namedview2"
     pagecolor="#ffffff"
     bordercolor="#000000"
     borderopacity="0.25"
     inkscape:showpageshadow="2"
     inkscape:pageopacity="0.0"
     inkscape:pagecheckerboard="0"
     inkscape:deskcolor="#d1d1d1"
     inkscape:zoom="21.138889"
     inkscape:cx="18"
     inkscape:cy="18"
     inkscape:window-width="1920"
     inkscape:window-height="972"
     inkscape:window-x="0"
     inkscape:window-y="0"
     inkscape:window-maximized="1"
     inkscape:current-layer="svg2" />
  <g
     fill="#e8f1f5"
     id="g2"
     transform="matrix(0.47126733,0,0,0.47126733,-0.69054658,-0.49482777)">
    <path
       d="M 7.5,15.875 V 32 H 29.375 V 15.875 Z m 10.938,1.8105 a 3.8125,3.8125 0 0 1 3.8125,3.8125 3.8125,3.8125 0 0 1 -2.2871,3.4883 l 1.6738,5.2031 h -6.3984 l 1.6719,-5.1992 A 3.8125,3.8125 0 0 1 14.6255,21.498 3.8125,3.8125 0 0 1 18.438,17.6855 Z"
       fill-opacity="0.56863"
       id="path1" />
    <path
       d="M 18.63,1.05 C 13.3921,1.044 8.325,5.3114 7.601,12.876 H 7.5033 c -1.636,0 -3,1.364 -3,3 v 16.125 c 0,1.636 1.364,3 3,3 h 21.875 c 1.636,0 3,-1.364 3,-3 V 15.876 c 0,-1.5398 -1.2126,-2.8232 -2.7188,-2.9707 C 28.94458,5.3398 23.874,1.0563 18.6305,1.0503 Z m -0.004,3 c 3.6183,0.005 7.3866,2.6499 8.0234,8.8262 H 10.6064 C 11.241,6.6802 15.0066,4.0459 18.6259,4.05 Z M 7.503,15.876 H 29.378 V 32.001 H 7.503 Z"
       color="#000000"
       color-rendering="auto"
       dominant-baseline="auto"
       fill-opacity="0.89412"
       image-rendering="auto"
       shape-rendering="auto"
       solid-color="#000000"
       style="font-variant-ligatures:normal;font-variant-position:normal;font-variant-caps:normal;font-variant-numeric:normal;font-variant-alternates:normal;font-feature-settings:normal;text-indent:0;text-decoration-line:none;text-decoration-style:solid;text-decoration-color:#000000;text-transform:none;text-orientation:mixed;white-space:normal;shape-padding:0;isolation:auto;mix-blend-mode:normal"
       id="path2" />
  </g>
</svg>
