<?xml version="1.0" encoding="UTF-8" standalone="no"?>
<svg
   width="16"
   height="16"
   enable-background="new"
   version="1.1"
   id="svg7"
   sodipodi:docname="battery-level-80-symbolic.svg"
   inkscape:version="1.4.3 (0d15f75, 2025-12-25)"
   xmlns:inkscape="http://www.inkscape.org/namespaces/inkscape"
   xmlns:sodipodi="http://sodipodi.sourceforge.net/DTD/sodipodi-0.dtd"
   xmlns="http://www.w3.org/2000/svg"
   xmlns:svg="http://www.w3.org/2000/svg">
  <defs
     id="defs7" />
  <sodipodi:namedview
     id="namedview7"
     pagecolor="#ffffff"
     bordercolor="#000000"
     borderopacity="0.25"
     inkscape:showpageshadow="2"
     inkscape:pageopacity="0.0"
     inkscape:pagecheckerboard="0"
     inkscape:deskcolor="#d1d1d1"
     inkscape:zoom="53.625"
     inkscape:cx="7.990676"
     inkscape:cy="8"
     inkscape:window-width="1920"
     inkscape:window-height="1088"
     inkscape:window-x="0"
     inkscape:window-y="32"
     inkscape:window-maximized="1"
     inkscape:current-layer="svg7" />
  <g
     id="g7"
     transform="matrix(1.0035469,0,0,1.1111111,1.4378227e-7,-1.9999999)">
    <path
       d="m 1,6 v 6 c 0,0.5 0,0.5 0.5,0.5 H 6 v 1 H 1.5 C 0.2541,13.5 0,13.25 0,12 V 5.5 c 0,-0.74742 0.75412,-1 1.5,-1 h 5 v 1 h -5 C 1,5.5 1,5.5 1,6 Z"
       fill="#363636"
       id="path1" />
    <path
       d="M 13,12 V 6 C 13,5.5 13,5.5 12.5,5.5 h -4 v -1 h 4 C 13.7459,4.5 14,4.75 14,6 v 6.5 c 0,0.74742 -0.25412,1 -1,1 H 8 v -1 h 4.5 c 0.5,0 0.5,0 0.5,-0.5 z"
       fill="#363636"
       id="path2" />
    <path
       d="m 15,7.5 c 1.4047,0.3053 1.1021,2.9272 0,3 z"
       fill="#363636"
       id="path3" />
    <path
       d="m 15,7.5 h -0.5 v 3 H 15 Z"
       fill="#363636"
       id="path4" />
    <path
       d="m 2,6.5 v 5 h 9 v -5 z"
       fill="#363636"
       id="path5" />
    <path
       d="m 6.5,4.5 h 2 v 1 h -2 z"
       fill="#363636"
       id="path6" />
    <path
       d="m 5.5,12.5 h 3 v 1 h -3 z"
       fill="#363636"
       id="path7" />
  </g>
</svg>
