<svg width="16" height="16" enable-background="new" version="1.1" viewBox="2 2 12.85 12.56" xmlns="http://www.w3.org/2000/svg">
<g transform="matrix(.52112 0 0 .52112 20.858 3.4076)" fill="#363636"></g>
<circle transform="matrix(-.064329 -.99793 .99793 -.064329 0 0)" cx="-13.67" cy="12.54" r="0" enable-background="new" fill="#363636"/>
<text x="10.232381" y="20.583155" enable-background="new" fill="#363636" font-family="sans-serif" font-size="20.899px" letter-spacing="0px" stroke-width="1px" word-spacing="0px" style="line-height:125%" xml:space="preserve"><tspan x="10.232381" y="20.583155" fill="#363636" font-family="'DejaVu Sans'"/></text>
<path d="m2.75 4.9997c-0.41378 0-0.75 0.33617-0.75 0.75v3.75c0 0.4146 0.33619 0.75 0.75 0.75h1.5v3c0 0.4146 0.33619 0.75 0.75 0.75h6c0.41462 0 0.75-0.3354 0.75-0.75v-3h1.5c0.41447 0 0.75-0.3354 0.75-0.75v-3.75c0-0.41383-0.33555-0.75-0.75-0.75zm9.75 0.75c0.41462 0 0.75 0.33619 0.75 0.75 2e-5 0.41455-0.33538 0.75-0.75 0.75-0.4146 0-0.75-0.33543-0.75-0.75 0-0.41378 0.3354-0.75 0.75-0.75zm-7.5 3.75h5.8026v3.75h-5.8026zm0-7.5c-0.41378 0-0.75 0.33619-0.75 0.75v1.5h0.75v-1.5h6v1.5h0.75v-1.5c0-0.41381-0.33538-0.75-0.75-0.75h-6z" enable-background="new" fill="#363636"/>
<path d="m11.352 14.559a3.5 3.5 0 0 1-3.5-3.5 3.5 3.5 0 0 1 3.5-3.5 3.5 3.5 0 0 1 3.5 3.5 3.5 3.5 0 0 1-3.5 3.5zm-0.0872-1.5313a0.4375 0.4375 0 0 0 0.4375-0.43749 0.4375 0.4375 0 0 0-0.4375-0.4375 0.4375 0.4375 0 0 0-0.4375 0.4375 0.4375 0.4375 0 0 0 0.4375 0.43749zm-0.047-1.3125h0.0932c0.15581 0 0.28198-0.12532 0.28198-0.28113v-2.0628c0-0.15581-0.12617-0.28112-0.28198-0.28112h-0.0932c-0.15581 0-0.28113 0.12531-0.28113 0.28112v2.0628c0 0.15581 0.12532 0.28113 0.28113 0.28113z" enable-background="new" fill="#f67d42" fill-rule="evenodd"/>
</svg>
