<svg width="16" height="16" version="1.1" viewBox="0 0 16 16" xmlns="http://www.w3.org/2000/svg">
<defs>
<linearGradient id="prefix__prefix__prefix__linearGradient4181" x1="399.99" x2="399.99" y1="545.14" y2="518.14" gradientTransform="translate(-159.67 -213.41) scale(.42857)" gradientUnits="userSpaceOnUse"/>
<style id="current-color-scheme" type="text/css"/>
</defs>
<g transform="matrix(1.3333 0 0 1.3333 -8 -11.333)">
<circle cx="12" cy="14.5" r="6" fill="url(#prefix__prefix__prefix__linearGradient4181)" stroke-width="1.3" style="mix-blend-mode:normal"/>
<path d="M15.468 12.874l-.64-.641a.436.436 0 00-.321-.132.436.436 0 00-.32.132l-3.092 3.096-1.386-1.39a.436.436 0 00-.32-.132.436.436 0 00-.32.132l-.641.64a.436.436 0 00-.132.321c0 .126.044.232.132.32l1.706 1.706.64.641a.436.436 0 00.32.132.437.437 0 00.321-.132l.641-.64 3.412-3.413a.437.437 0 00.132-.32.436.436 0 00-.132-.32z" fill="#363636" fill-opacity=".851"/>
</g>
</svg>
