<svg width="16" height="16" version="1.1" xmlns="http://www.w3.org/2000/svg">
<path d="m11 11v1c0 0.27 0.1 0.53 0.28 0.72l0.78 0.78-0.78 0.78c-0.18 0.18-0.28 0.44-0.28 0.72v1h1c0.28 0 0.54-0.1 0.72-0.28l0.78-0.79 0.78 0.79c0.18 0.18 0.44 0.28 0.72 0.28h1v-1c0-0.28-0.1-0.54-0.28-0.72l-0.78-0.78 0.78-0.78c0.18-0.19 0.28-0.45 0.28-0.72v-1h-1c-0.28 0-0.54 0.1-0.72 0.28l-0.78 0.78-0.78-0.78c-0.18-0.18-0.44-0.28-0.72-0.28z" fill="#5c616c"/>
<path d="m1 1c-1 0-1 1-1 1v11s0 1 1 1h9v-2h-1v-2h7v-8c0-1-1-1-1-1zm1 2h12v6h-12zm0 7h5v2h-5z" fill="#5c616c" opacity=".3"/>
</svg>
