<svg width="24" height="24" version="1.1" viewBox="0 0 6.35 6.35" xmlns="http://www.w3.org/2000/svg" xmlns:xlink="http://www.w3.org/1999/xlink">
<defs>
<linearGradient id="linearGradient880" x1="23.019" x2="24.077" y1="1.3229" y2="2.3813" gradientTransform="translate(-19.381 .19844)" gradientUnits="userSpaceOnUse">
<stop stop-color="#07466e" offset="0"/>
<stop stop-color="#9cc1dc" offset=".375"/>
<stop stop-color="#1872a9" offset=".75"/>
<stop stop-color="#005e9c" offset="1"/>
</linearGradient>
<linearGradient id="linearGradient908" x1="19.579" x2="20.373" y1="2.9104" y2="3.7042" gradientTransform="translate(-17.529 .59531)" gradientUnits="userSpaceOnUse">
<stop stop-color="#07466e" offset="0"/>
<stop stop-color="#9cc1dc" offset=".375"/>
<stop stop-color="#166698" offset=".75"/>
<stop stop-color="#005e9c" offset="1"/>
</linearGradient>
<linearGradient id="linearGradient961" x1="21.167" x2="22.225" y1="5.2917" y2="6.35" gradientTransform="translate(-20.174 -.46302)" gradientUnits="userSpaceOnUse">
<stop stop-color="#fff" offset="0"/>
<stop stop-color="#c7c7c7" offset="1"/>
</linearGradient>
<linearGradient id="linearGradient969" x1="22.49" x2="20.902" y1="4.4979" y2="6.0854" gradientTransform="translate(-20.174 -.46302)" gradientUnits="userSpaceOnUse">
<stop stop-color="#090909" offset="0"/>
<stop stop-color="#737373" stop-opacity="0" offset="1"/>
</linearGradient>
<radialGradient id="radialGradient973" cx="21.431" cy="5.5122" r=".66146" gradientTransform="matrix(.83205 .5547 -.8 1.2 -12.165 -13.409)" gradientUnits="userSpaceOnUse">
<stop stop-opacity=".34137" offset="0"/>
<stop stop-color="#737373" stop-opacity="0" offset="1"/>
</radialGradient>
<linearGradient id="linearGradient993" x1="24.077" x2="24.871" y1="2.3813" y2="3.175" gradientTransform="translate(-20.373 -.52917)" gradientUnits="userSpaceOnUse">
<stop offset="0"/>
<stop stop-opacity="0" offset="1"/>
</linearGradient>
<linearGradient id="linearGradient1014" x1="23.548" x2="23.019" y1="3.175" y2="3.7042" gradientTransform="translate(-20.174 -.46302)" gradientUnits="userSpaceOnUse">
<stop stop-color="#032134" offset="0"/>
<stop stop-color="#032134" stop-opacity="0" offset="1"/>
</linearGradient>
<linearGradient id="linearGradient870" x1=".66125" x2="4.6304" y1="5.5428" y2="5.5428" gradientUnits="userSpaceOnUse">
<stop stop-color="#e3e3e3" offset="0"/>
<stop stop-color="#bdc4ca" offset="1"/>
</linearGradient>
<linearGradient id="linearGradient884" x1=".63711" x2="4.6552" y1="5.543" y2="5.543" gradientUnits="userSpaceOnUse">
<stop stop-color="#86939d" offset="0"/>
<stop stop-color="#bdc4ca" offset="1"/>
</linearGradient>
</defs>
<g stroke-linecap="round">
<path d="m0.79375 5.8208s1.5875 0 2.1167-0.26458c0.32525-0.16262 0.70789-0.36165 1.0583-0.26458 0.2404 0.066587 0.52917 0.52917 0.52917 0.52917" color="#000000" fill="none" stroke-width=".265"/>
<path d="m4.0039 5.1641c-0.41925-0.11613-0.8286 0.11156-1.1523 0.27344-0.21718 0.10859-0.74938 0.18606-1.207 0.21875-0.45765 0.03269-0.85156 0.03125-0.85156 0.03125a0.1325 0.1325 0 0 0-0.13086 0.13281 0.1325 0.1325 0 0 0 0.13086 0.13281s0.40271 2.531e-4 0.87109-0.033203c0.46839-0.033456 0.9927-0.0901 1.3047-0.24609 0.32674-0.16337 0.68322-0.33191 0.96484-0.25391 0.057286 0.015867 0.19112 0.12971 0.28711 0.24609 0.095986 0.11638 0.16406 0.22461 0.16406 0.22461a0.1325 0.1325 0 0 0 0.18359 0.042969 0.1325 0.1325 0 0 0 0.041016-0.18359s-0.075096-0.12235-0.18359-0.25391c-0.1085-0.13155-0.23876-0.28131-0.42188-0.33203z" color="#000000" fill="url(#linearGradient870)" stroke="url(#linearGradient884)" stroke-width=".05"/>
</g>
<path d="m1.5214 4.2995-0.79375 0.52917-0.26458 1.0583 1.0583-0.26458 0.52917-1.0583" fill="url(#linearGradient961)" stroke="#9aa6ad" stroke-width=".05"/>
<path d="m0.7276 5.6224 0.26458-0.52917 1.0583-1.0583-0.79375 1.3229z" fill="url(#linearGradient969)"/>
<path d="m3.1089 2.4474-1.8521 1.8521c1e-6 0.26458 0.26458 0.52917 0.66146 0.66146l1.5875-1.5875" fill="url(#linearGradient908)"/>
<path d="m3.7042 2.9104 0.52917 0.26458 0.99219-0.99219-0.46302-0.59531 0.26458-0.26458 0.52917 0.79375-1.3229 1.3229-0.79375-0.26458z" fill="#cbcbcb" stroke="#b9c6d2" stroke-width=".05"/>
<path d="m3.7042 2.9104 0.52917 0.26458 0.99219-0.99219-0.46302-0.59531 0.26458-0.26458 0.52917 0.79375-1.3229 1.3229-0.79375-0.26458z" fill="url(#linearGradient993)"/>
<path d="m3.1089 2.4474-1.8521 1.8521c1e-6 0.26458 0.26458 0.52917 0.66146 0.66146l1.5875-1.5875" fill="url(#linearGradient1014)"/>
<path d="m2.8443 2.5797 1.5875-1.5875c0.52917-0.52917 1.5875 0.13229 0.79375 0.92604l-1.5875 1.5875c-0.26458-0.13229-0.79375-0.52917-0.79375-0.92604z" fill="url(#linearGradient880)"/>
<path d="m0.7276 5.6224 0.26458-0.52917 1.0583-1.0583-0.79375 1.3229z" fill="url(#radialGradient973)"/>
</svg>
