<?xml version="1.0" encoding="UTF-8" standalone="no"?>
<svg
   width="15.999999"
   height="15.999999"
   version="1.1"
   viewBox="0 0 4.233333 4.233333"
   id="svg3"
   xmlns="http://www.w3.org/2000/svg"
   xmlns:svg="http://www.w3.org/2000/svg">
  <defs
     id="defs3" />
  <g
     id="g3"
     transform="matrix(0.45438803,0,0,0.45438803,-0.03355203,-0.46712748)">
    <path
       d="M 0.57048,2.3 C 0.40469,2.3 0.27066,2.43413 0.27066,2.59982 v 1.7438 c 0,-0.1658 0.13403,-0.29982 0.29982,-0.29982 h 8.3233 c 0.16579,0 0.2989,0.13402 0.2989,0.29982 V 3.41287 c 0,-0.16576 -0.13312,-0.29889 -0.2989,-0.29889 H 4.33298 L 3.35626,2.30004 Z"
       fill="none"
       id="path1" />
    <path
       d="M 0.56956,2.1 C 0.29811,2.1 0.07384,2.32426 0.07384,2.59571 v 6.1813 c 0,0.27143 0.22427,0.49571 0.49572,0.49571 h 8.3242 c 0.27145,0 0.49664,-0.22428 0.49664,-0.49571 V 3.40871 C 9.3904,3.13728 9.16521,2.913 8.89376,2.913 h -4.489 L 3.4823,2.14413 A 0.19689,0.19689 0 0 0 3.35538,2.09993 Z m 0,0.39363 h 2.7149 L 4.20692,3.26066 A 0.19689,0.19689 0 0 0 4.332,3.30756 h 4.5617 c 0.060137,0 0.10209,0.041 0.10209,0.10111 V 3.86393 C 8.961835,3.85693 8.929726,3.84363 8.8937,3.84363 H 0.5695 c -0.036023,0 -0.06813,0.0128 -0.10209,0.0203 v -1.2683 c 0,-0.0601 0.041956,-0.10215 0.10209,-0.10215 z m 0,1.7438 h 8.3242 c 0.060138,0 0.10209,0.0419 0.10209,0.10215 v 4.4376 c 0,0.0602 -0.041946,0.10112 -0.10209,0.10112 h -8.3242 c -0.060133,0 -0.10209,-0.041 -0.10209,-0.10112 v -4.4376 c 0,-0.0602 0.041956,-0.10215 0.10209,-0.10215 z"
       color="#000000"
       color-rendering="auto"
       dominant-baseline="auto"
       fill="#bebebe"
       fill-opacity="0.87452"
       image-rendering="auto"
       shape-rendering="auto"
       solid-color="#000000"
       style="font-variant-ligatures:normal;font-variant-position:normal;font-variant-caps:normal;font-variant-numeric:normal;font-variant-alternates:normal;font-feature-settings:normal;text-indent:0;text-decoration-line:none;text-decoration-style:solid;text-decoration-color:#000000;text-transform:none;text-orientation:mixed;white-space:normal;shape-padding:0;isolation:auto;mix-blend-mode:normal"
       id="path2" />
    <path
       d="m 0.56956,4.24 c -0.060131,0 -0.10209,0.0419 -0.10209,0.10215 v 4.4376 c 0,0.0602 0.041954,0.10112 0.10209,0.10112 h 8.3242 c 0.060138,0 0.10209,-0.041 0.10209,-0.10112 V 4.34215 C 8.99585,4.28195 8.953904,4.24 8.89376,4.24 Z"
       fill="#bebebe"
       fill-opacity="0.68235"
       id="path3" />
  </g>
</svg>
