<svg width="24" height="24" enable-background="new" version="1.1" xmlns="http://www.w3.org/2000/svg">
<rect width="24.281" height="24" fill-opacity="0"/>
<rect width="24" height="24" opacity="0" stroke-width=".1" style="paint-order:fill markers stroke"/>
<path d="m0 10v3c0 1-0.00369 1 1 1h3l4 3v-11l-4 3h-3c-1 0-1 0-1 1z" fill="#dedede"/>
<ellipse cx="-14.5" cy="4.2812" rx="4.5" ry="7.2812" fill-opacity="0"/>
<path d="m10.846 8.5242a0.49199 0.49199 0 0 0-0.34315 0.84552c0.54649 0.54649 0.88395 1.297 0.88395 2.133s-0.33746 1.5865-0.88395 2.133a0.49208 0.49208 0 1 0 0.69591 0.6959c0.72342-0.72342 1.1708-1.7271 1.1708-2.8289s-0.4474-2.1055-1.1708-2.8289a0.49199 0.49199 0 0 0-0.35276-0.14961z" color="#000000" color-rendering="auto" dominant-baseline="auto" enable-background="accumulate" fill="#dedede" image-rendering="auto" shape-rendering="auto" solid-color="#000000" style="font-feature-settings:normal;font-variant-alternates:normal;font-variant-caps:normal;font-variant-ligatures:normal;font-variant-numeric:normal;font-variant-position:normal;isolation:auto;mix-blend-mode:normal;shape-padding:0;text-decoration-color:#000000;text-decoration-line:none;text-decoration-style:solid;text-indent:0;text-orientation:mixed;text-transform:none;white-space:normal"/>
<path d="m13.385 5.9849a0.49199 0.49199 0 0 0-0.34315 0.84415c1.1965 1.1965 1.9367 2.8458 1.9367 4.6737s-0.7402 3.4772-1.9367 4.6737a0.49199 0.49199 0 1 0 0.69591 0.69453c1.3735-1.3735 2.2236-3.2745 2.2236-5.3682 0-2.0938-0.85014-3.9961-2.2236-5.3696a0.49199 0.49199 0 0 0-0.35276-0.14824z" color="#000000" color-rendering="auto" dominant-baseline="auto" enable-background="accumulate" fill="#dedede" fill-opacity=".43137" image-rendering="auto" shape-rendering="auto" solid-color="#000000" style="font-feature-settings:normal;font-variant-alternates:normal;font-variant-caps:normal;font-variant-ligatures:normal;font-variant-numeric:normal;font-variant-position:normal;isolation:auto;mix-blend-mode:normal;shape-padding:0;text-decoration-color:#000000;text-decoration-line:none;text-decoration-style:solid;text-indent:0;text-orientation:mixed;text-transform:none;white-space:normal"/>
<path d="m16 3.3701a0.49199 0.49199 0 0 0-0.34315 0.84415c0.93284 0.93284 1.6885 2.0437 2.2099 3.2764s0.80983 2.5876 0.80983 4.0121c0 1.4245-0.28844 2.7794-0.80983 4.0121-0.52139 1.2327-1.277 2.3422-2.2099 3.275a0.49208 0.49208 0 1 0 0.69591 0.69591c1.0213-1.0213 1.8484-2.2368 2.4199-3.588s0.8867-2.8376 0.8867-4.3951-0.31521-3.0439-0.8867-4.3951c-0.57148-1.3511-1.3986-2.568-2.4199-3.5893a0.49199 0.49199 0 0 0-0.35276-0.14824z" color="#000000" color-rendering="auto" dominant-baseline="auto" enable-background="accumulate" fill="#dedede" fill-opacity=".43137" image-rendering="auto" shape-rendering="auto" solid-color="#000000" style="font-feature-settings:normal;font-variant-alternates:normal;font-variant-caps:normal;font-variant-ligatures:normal;font-variant-numeric:normal;font-variant-position:normal;isolation:auto;mix-blend-mode:normal;shape-padding:0;text-decoration-color:#000000;text-decoration-line:none;text-decoration-style:solid;text-indent:0;text-orientation:mixed;text-transform:none;white-space:normal"/>
</svg>
