<svg width="24" height="24" enable-background="new" version="1.1" xmlns="http://www.w3.org/2000/svg">
<path d="m2.5 5c-2 0-2.5 0.5-2.5 2.5v8c0 2 0.5 2.5 2.5 2.5h5.5v-1h-5.5c-1.5 0-1.5 0-1.5-1.5v-8c0-1.5 0-1.5 1.5-1.5h6l0.5-1zm8 0-3.5 7.5h4l-1 5.5h0.5l3.5-7.5h-4l1-5.5zm2 0v1h6c1.5 0 1.5 0 1.5 1.5v8c0 1.5 0 1.5-1.5 1.5h-6l-0.5 1h7c1.5 0 2-0.5 2-2.5v-8c0-2-0.5-2.5-2-2.5zm-10 2.5v8h6l0.5-1.5h-4.5l3-6.5zm10 0-0.5 1.5h4.5l-3 6.5h5v-8zm9.5 1.5v5c2.5 0 2.5-5 0-5z" clip-rule="evenodd" fill="#dedede" fill-rule="evenodd" stroke-linejoin="round" stroke-miterlimit="1.4142" stroke-width="1.1667"/>
</svg>
