<svg width="24" height="24" version="1.1" viewBox="0 0 24 24" xmlns="http://www.w3.org/2000/svg">
<rect x="5.5" y="10.5" width="13" height="3" ry="1.7736" fill="#4d4d4d"/>
<g transform="matrix(.011496 0 0 .011496 -3.3255 13.433)" fill="#fff"></g>
<g transform="matrix(-.023232 -9.6019e-5 -8.3994e-5 .026558 8.2595 6.0124)" fill="#4d4d4d">
<path d="m345.44 248.29-194.29 194.28c-12.359 12.365-32.397 12.365-44.75 0-12.354-12.354-12.354-32.391 0-44.744l171.91-171.91-171.91-171.9c-12.354-12.359-12.354-32.394 0-44.748 12.354-12.359 32.391-12.359 44.75 0l194.29 194.28c6.177 6.18 9.262 14.271 9.262 22.366 0 8.099-3.091 16.196-9.267 22.373z" fill="#4d4d4d"/>
</g>
<g transform="matrix(.023232 9.6019e-5 8.3994e-5 -.026558 15.741 17.988)" fill="#4d4d4d">
<path d="m345.44 248.29-194.29 194.28c-12.359 12.365-32.397 12.365-44.75 0-12.354-12.354-12.354-32.391 0-44.744l171.91-171.91-171.91-171.9c-12.354-12.359-12.354-32.394 0-44.748 12.354-12.359 32.391-12.359 44.75 0l194.29 194.28c6.177 6.18 9.262 14.271 9.262 22.366 0 8.099-3.091 16.196-9.267 22.373z" fill="#4d4d4d"/>
</g>
</svg>
