<svg width="24" height="24" enable-background="new" version="1.1" xmlns="http://www.w3.org/2000/svg">
<rect width="24" height="24" fill-opacity="0" style="paint-order:fill markers stroke"/>
<path d="m11.992 2.002c-3.9929 0.011556-9.0156 2.998-9.0156 9.0293 0 4.8117 4.2117 8.9688 9.0234 8.9688v2c2.4293-0.0049 9-3.7622 9-10 0-5-3.0007-10.015-9.0078-9.998zm-6.0234 6.998a2 2 0 0 1 2 2 2 2 0 0 1-2 2 2 2 0 0 1-2-2 2 2 0 0 1 2-2zm5.9688 0a2 2 0 0 1 2 2 2 2 0 0 1-2 2 2 2 0 0 1-2-2 2 2 0 0 1 2-2zm6.0938 0a2 2 0 0 1 2 2 2 2 0 0 1-2 2 2 2 0 0 1-2-2 2 2 0 0 1 2-2z" color="#dedede" fill="#dedede"/>
</svg>
