<svg width="24" height="24" version="1.0" xmlns="http://www.w3.org/2000/svg">
<path d="m12 4c-0.68185 0-1.2308 0.54892-1.2308 1.2308v4.9231c0 0.68185 0.54892 1.2308 1.2308 1.2308 0.68185 0 1.2308-0.54892 1.2308-1.2308v-4.9231c0-0.68185-0.54892-1.2308-1.2308-1.2308zm-3.6923 2.4615c-0.28781 0-0.5609 0.10344-0.76923 0.26923-0.20047 0.16899-0.26446 0.22943-0.34615 0.30769-1.5739 1.3497-2.5769 3.3379-2.5769 5.5769 0 4.0784 3.3062 7.3846 7.3846 7.3846 4.0784 0 7.3846-3.3062 7.3846-7.3846 0-2.239-1.003-4.2273-2.5769-5.5769-0.081694-0.078262-0.14568-0.1387-0.34616-0.30769-0.20833-0.16579-0.48142-0.26923-0.76923-0.26923-0.67974 0-1.2308 0.55103-1.2308 1.2308 0 0.38281 0.1825 0.70259 0.46154 0.92308 0.04961 0.046495 0.06577 0.073086 0.15385 0.15385 1.1374 0.89729 1.8462 2.2812 1.8462 3.8462 0 2.7189-2.2041 4.9231-4.9231 4.9231-2.7189 0-4.9231-2.2041-4.9231-4.9231 0-1.5649 0.7088-2.9489 1.8462-3.8462 0.08807-0.080761 0.10423-0.10735 0.15385-0.15385 0.27903-0.22049 0.46154-0.54026 0.46154-0.92308 0-0.67974-0.55103-1.2308-1.2308-1.2308z" color="#000000" fill="#555"/>
</svg>
