<svg width="24" height="24" enable-background="new" version="1.1" xmlns="http://www.w3.org/2000/svg">
<rect width="24" height="24" fill-opacity="0" style="paint-order:fill markers stroke"/>
<path d="m11.992 2.002c-3.9929 0.011556-9.0156 2.998-9.0156 9.0293 0 4.8117 4.2117 8.9688 9.0234 8.9688v2c2.4293-0.0049 9-3.7622 9-10 0-5-3.0007-10.015-9.0078-9.998zm-0.31836 5.3574 1.2383 0.93164 1.543 0.16016 0.044922 1.5488 0.83398 1.3047-1.1816 1.002-0.5 1.4668-1.5195-0.30078-1.459 0.52344-0.71289-1.375-1.3184-0.81445 0.63086-1.4141-0.18555-1.5391 1.5-0.38867 1.0859-1.1055z" color="#dedede" fill="#dedede"/>
</svg>
