<svg xmlns="http://www.w3.org/2000/svg" width="16" height="16" enable-background="new" version="1.1">
<g>
<g transform="matrix(0.85672 0 0 0.85714 1.15 1.14)" enable-background="new">
<g transform="matrix(.875 0 0 .875 -286.88 -469.19)">
<g transform="matrix(1.3427 0 0 1.3427 337.77 -854.81)">
<g>
<g>
<g>
<g>
<g>
<g>
<g>
<g>
<g transform="matrix(0.78637 0 0 0.78395 -313.688 620.458)">
<g transform="matrix(1.2717 0 0 1.2756 -114.26 -140.42)">
<g transform="matrix(.78637 0 0 .78395 93.326 112.35)">
<g transform="matrix(1.2717 0 0 1.2756 -124.34 -145.65)">
<g transform="translate(2.9673 4.7351)">
<g transform="translate(.031567 -1.894)">
<g transform="translate(-1.3574 -.63135)">
<g transform="matrix(.78637 0 0 .78395 92.826 112.35)" fill="#dedede">
<g transform="matrix(-.012286 0 0 .012324 428.13 559.84)" fill="#dedede">
<g transform="matrix(-7.0733 0 0 7.0018 2712.2 -7878.3)" fill="#dedede">
<g transform="matrix(-.14222 0 0 .14367 646.52 1157)" fill="#dedede">
<g transform="matrix(-7.0733 0 0 7.0018 2712.2 -7878.3)" fill="#dedede">
<g transform="matrix(.1177 0 0 .1177 -131.57 724.01)" fill="#dedede">
<g transform="matrix(2.4074 0 0 2.432 -456.62 197.92)" fill="#dedede" opacity=".99">
<g fill="#dedede">
<g fill="#dedede">
<path transform="matrix(51.337 0 0 51.337 1903.7 -278.31)" d="m-39.693 3.7988c-0.80815 0-1.5768 0.16008-2.3145 0.47656-1.4653 0.6285-2.5383 1.6944-3.168 3.1621-0.3155 0.7353-0.46875 1.5043-0.46875 2.3125 0 0.80831 0.15324 1.5849 0.46875 2.3203 0.62963 1.4677 1.7028 2.5393 3.168 3.168 0.73781 0.31648 1.5063 0.47656 2.3145 0.47656 0.80817 0 1.5819-0.16176 2.3203-0.47656 1.4776-0.63019 2.5452-1.7028 3.1738-3.168 0.31646-0.73781 0.47656-1.512 0.47656-2.3203 0-0.80815-0.15995-1.5747-0.47656-2.3125-0.62852-1.4653-1.6963-2.5319-3.1738-3.1621-0.7385-0.31496-1.512-0.47656-2.3203-0.47656zm-0.36914 2.1855c0.30395 0 0.55273 0.24879 0.55273 0.55273v3.7852l2.1465 1.6777c0.24868 0.18422 0.28578 0.53395 0.10156 0.77344-0.10133 0.13816-0.2678 0.21094-0.43359 0.21094-0.11973 0-0.23852-0.04545-0.33984-0.11914l-2.3672-1.8418c-0.12896-0.10133-0.21289-0.25861-0.21289-0.43359v-4.0527c0-0.30395 0.24879-0.55273 0.55273-0.55273z" fill="#f67d42" />
</g>
</g>
</g>
</g>
</g>
</g>
</g>
</g>
</g>
</g>
</g>
</g>
</g>
</g>
</g>
</g>
</g>
</g>
</g>
</g>
</g>
</g>
</g>
</g>
</g>
<g transform="matrix(.032508 0 0 .032508 279.46 537.49)" />
</g>
</g>
</g>
</svg>
