<svg xmlns="http://www.w3.org/2000/svg" width="16" height="16" enable-background="new" version="1.1">
<g transform="matrix(.85714 0 0 .85714 1.1429 1.1429)" enable-background="new" fill="#dedede">
<g transform="matrix(.875 0 0 .875 -287.75 -468.32)" fill="#dedede">
<g transform="matrix(1.2261 0 0 1.2261 -51.236 -123.83)" fill="#dedede">
<g fill="#dedede">
<g transform="matrix(0.89463 0 0 0.89463 173.907 76.366)" fill="#dedede">
<g transform="matrix(.31093 0 0 .31093 156.12 519.5)" fill="#dedede">
<g fill="#dedede">
<path d="m17.466 16.914c-0.159-0.052-1.164-0.505-0.536-2.414h-9e-3c1.637-1.686 2.888-4.399 2.888-7.07 0-4.107-2.731-6.26-5.905-6.26-3.176 0-5.892 2.152-5.892 6.26 0 2.682 1.244 5.406 2.891 7.088 0.642 1.684-0.506 2.309-0.746 2.396-2.2378 0.72365-8.3254 4.3315-8.229 9.5857h24.051c0.10734-5.0193-4.7078-8.2786-8.5125-9.5857zm19.943-3.0791a23.456 23.456 0 0 1-23.456 23.456 23.456 23.456 0 0 1-23.456-23.456 23.456 23.456 0 0 1 23.456-23.456 23.456 23.456 0 0 1 23.456 23.456z" fill="#dedede" />
</g>
</g>
</g>
</g>
</g>
</g>
</g>
</svg>
