<svg width="16" height="16" version="1.1" viewBox="0 0 12 12" xmlns="http://www.w3.org/2000/svg">
<path transform="scale(.75)" d="m8.0312 2.0312a6 6 0 0 0-6 6 6 6 0 0 0 6 6 6 6 0 0 0 6-6 6 6 0 0 0-6-6zm-0.46484 1.1211c1.4473-0.064958 2.8962 0.43201 3.7207 1.2109 1.4096 1.3316 2.0619 4.0512 0.88281 6.6445l-2.1211-2.123 1.7324 0.023438c0.7022-4.4859-3.4613-5.6948-5.9766-4.2656l-0.70703-0.70703c0.73125-0.50382 1.6004-0.74423 2.4688-0.7832zm-3.7344 2.0508 2.1211 2.1211-1.7324-0.023438c-0.70221 4.4859 3.4593 5.6948 5.9746 4.2656l0.70703 0.70703c-1.95 1.3435-4.8702 0.8205-6.1895-0.42578-1.4096-1.3316-2.0599-4.0512-0.88086-6.6445z" fill="#dedede"/>
</svg>
