<svg xmlns="http://www.w3.org/2000/svg" width="16" height="16" enable-background="new" version="1.1">
<defs>
<filter color-interpolation-filters="sRGB">
<feBlend in2="BackgroundImage" mode="darken" />
</filter>
</defs>
<g>
<g transform="matrix(0.75 0 0 0.75 -244.75 -401.02)" fill="#dedede">
<g transform="matrix(1.3333 0 0 1.3333 -197.1 -163.7)" fill="#dedede">
<g fill="#dedede">
<g transform="matrix(0.97603 0 0 -0.97603 36.6201 1042.23)" fill="#dedede">
<g transform="translate(0 2.193e-5)" fill="#dedede">
<g transform="matrix(1.0246 0 0 -1.0246 -9.1576 1067.7)">
<g transform="matrix(1.5 0 0 1.5 360.89 -1034.9)" fill="#dedede">
<g fill="#dedede">
<g fill="#dedede">
<g fill="#dedede">
<g transform="matrix(1.3333 0 0 1.3333 -525.96 334.97)" fill="#dedede">
<g fill="#dedede">
<g fill="#dedede">
<g fill="#dedede" stroke="#1f2a47">
<g fill="#dedede">
<g transform="matrix(0.52109 0 0 0.52109 388.82 517.988)" fill="#dedede" stroke="#1f2a47">
<g fill="#dedede">
<g transform="matrix(1.0037 0 0 1.0037 -389.233 -491.304)" fill="#dedede">
<g transform="matrix(1.5263 0 0 1.5263 376.5 -1040.2)" fill="#dedede">
<g transform="matrix(1.1526 0 0 1.1526 -4.8344 -156.43)" fill="#dedede">
<g fill="#dedede">
<g transform="matrix(.81509 0 0 .81509 -323.2 584.91)" fill="#dedede">
<g fill="#dedede">
<g fill="#dedede">
<g fill="#dedede" stroke="#1f2a47">
<g fill="#dedede">
<g transform="matrix(0.52109 0 0 0.52109 388.82 517.988)" fill="#dedede" stroke="#1f2a47">
<g fill="#dedede">
<g transform="matrix(0.76762 0 0 0.76762 -244.03 -370.64)" fill="#dedede" stroke="none" />
</g>
</g>
</g>
</g>
</g>
</g>
</g>
</g>
</g>
</g>
</g>
</g>
</g>
</g>
</g>
</g>
</g>
</g>
</g>
</g>
</g>
</g>
</g>
<g transform="matrix(.76374 0 0 -.76374 364.44 1318.3)">
<g transform="translate(.056745 .080917)" fill="#dedede">
<path d="m12.157 1046.6c0.01745 0.093-0.04526 0.1682-0.13937 0.1682h-1.9968c-0.094111 0-0.15683-0.076-0.13937-0.1682l0.31793-1.6849c-0.24067-0.2195-0.39172-0.5357-0.39172-0.887 0-0.6628 0.53734-1.2002 1.2002-1.2002 0.66285 0 1.2002 0.5374 1.2002 1.2002 0 0.3418-0.14314 0.6499-0.37247 0.8686z" />
<path d="m14.216 1040.2h-6.415v-1.9801c0-1.7686 1.4388-3.2074 3.2075-3.2074 1.7686 0 3.2075 1.4389 3.2075 3.2074zm1.7111 0.018v-1.9983c0-2.7121-2.2065-4.9187-4.9186-4.9187-2.7121 0-4.9186 2.2066-4.9186 4.9187v1.9983c-0.38761 0.081-0.67966 0.4259-0.67966 0.8373v7.4883c0 0.4717 0.38381 0.8555 0.85557 0.8555h9.4854c0.47176 0 0.85557-0.3838 0.85557-0.8555v-7.4883c0-0.4114-0.292-0.7559-0.67962-0.8373z" />
</g>
</g>
</g>
</g>
</g>
</g>
</g>
</g>
</svg>
