<svg width="16" height="16" version="1.1" viewBox="0 0 16 16" xmlns="http://www.w3.org/2000/svg">
<g transform="matrix(.0067059 0 0 .0067059 -.93986 8.8362)" fill="#fff"></g>
<g transform="matrix(.38271 0 0 .4375 -126.22 -230.6)">
<g transform="matrix(0 -1.0825 -1.0825 0 1464.7 557.15)">
<g transform="matrix(.00011827 .032712 -.032712 .00011827 18.269 1034.4)" fill="#dedede">
<path d="m345.44 248.29-194.29 194.28c-12.359 12.365-32.397 12.365-44.75 0-12.354-12.354-12.354-32.391 0-44.744l171.91-171.91-171.91-171.9c-12.354-12.359-12.354-32.394 0-44.748 12.354-12.359 32.391-12.359 44.75 0l194.29 194.28c6.177 6.18 9.262 14.271 9.262 22.366 0 8.099-3.091 16.196-9.267 22.373z" fill="#dedede"/>
</g>
</g>
</g>
<g transform="matrix(-.38271 0 0 -.4375 142.22 246.6)">
<g transform="matrix(0 -1.0825 -1.0825 0 1464.7 557.15)">
<g transform="matrix(.00011827 .032712 -.032712 .00011827 18.269 1034.4)" fill="#dedede">
<path d="m345.44 248.29-194.29 194.28c-12.359 12.365-32.397 12.365-44.75 0-12.354-12.354-12.354-32.391 0-44.744l171.91-171.91-171.91-171.9c-12.354-12.359-12.354-32.394 0-44.748 12.354-12.359 32.391-12.359 44.75 0l194.29 194.28c6.177 6.18 9.262 14.271 9.262 22.366 0 8.099-3.091 16.196-9.267 22.373z" fill="#dedede"/>
</g>
</g>
</g>
<circle cx="5.0833" cy="8" r=".875" fill="#dedede"/>
<circle cx="8" cy="8" r=".875" fill="#dedede"/>
<circle cx="10.917" cy="8" r=".875" fill="#dedede"/>
</svg>
