<svg width="16" height="16" version="1.1" viewBox="0 0 16 16" xmlns="http://www.w3.org/2000/svg">
<g transform="matrix(.011496 0 0 .011496 -3.6274 5.4613)" fill="#dedede"></g>
<circle transform="matrix(-.064329 -.99793 .99793 -.064329 0 0)" cx="-21.385" cy="-12.871" r="0" fill="#dedede"/>
<text x="-16.888233" y="35.451305" fill="#dedede" font-family="sans-serif" font-size="35.826px" letter-spacing="0px" stroke-width="1px" word-spacing="0px" style="line-height:125%" xml:space="preserve"><tspan x="-16.888233" y="35.451305" fill="#dedede" font-family="'DejaVu Sans'"/></text>
<g transform="matrix(.024381 0 0 .024381 -52.687 5.02)" fill="#dedede"></g>
<g transform="translate(12.066 -45.127)" enable-background="new" fill="#dedede">
<g transform="matrix(.52112 0 0 .52112 20.768 5.3453)" fill="#dedede">
<g transform="matrix(.02206 0 0 .02206 -29.9 -.39149)" fill="#dedede"></g>
</g>
</g>
<g transform="translate(-10.141 -40.968)" fill="#dedede"></g>
<g transform="matrix(.011496 0 0 .011496 -57.558 1.5649)" fill="#fff"></g>
<circle transform="matrix(-.064329 -.99793 .99793 -.064329 0 0)" cx="-7.9928" cy="-50.058" r="0" fill="#dedede"/>
<text x="-52.602039" y="18.944498" fill="#dedede" font-family="sans-serif" font-size="20.899px" letter-spacing="0px" stroke-width="1px" word-spacing="0px" style="line-height:125%" xml:space="preserve"><tspan x="-52.602039" y="18.944498" fill="#dedede" font-family="'DejaVu Sans'"/></text>
<path d="m1.1245 8.3344 2.6234 3.0207c0.16688 0.19225 0.43843 0.19337 0.60644 0.0025 0.16802-0.1907 0.16901-0.50111 0.0022-0.69317l-2.3213-2.6728 2.3381-2.6535c0.16802-0.19077 0.16901-0.50115 0.0022-0.69323-0.16681-0.19216-0.43835-0.19328-0.60644-0.00251l-2.6425 2.999c-0.08401 0.095394-0.12622 0.22057-0.12661 0.34597-3.9698e-4 0.12547 0.04109 0.25108 0.12449 0.34712z" fill="#dedede"/>
<path d="m14.875 7.6656-2.6234-3.0207c-0.16688-0.19225-0.43843-0.19337-0.60644-0.00251-0.16802 0.1907-0.16901 0.50111-0.0022 0.69317l2.3213 2.6728-2.3381 2.6535c-0.16802 0.19077-0.16901 0.50116-0.0022 0.69323 0.16681 0.19216 0.43835 0.19328 0.60644 0.0025l2.6425-2.999c0.08401-0.095394 0.12622-0.22057 0.12661-0.34597 3.97e-4 -0.12547-0.04109-0.25108-0.12449-0.34712z" fill="#dedede"/>
<path d="m8 4.5a3.5 3.5 0 0 0-3.5 3.5 3.5 3.5 0 0 0 3.5 3.5 3.5 3.5 0 0 0 3.5-3.5 3.5 3.5 0 0 0-3.5-3.5zm-0.0026 1.5312c0.33428 0 0.6058 0.095891 0.81519 0.28796 0.20939 0.18852 0.31445 0.43024 0.31445 0.72546 0 0.12805-0.03531 0.25804-0.1051 0.38965-0.0698 0.13161-0.13203 0.22593-0.18714 0.28284-0.05143 0.053353-0.12495 0.12313-0.22046 0.2085l-0.02734 0.02649c-0.22409 0.19563-0.33668 0.39141-0.33668 0.58704v0.21277h-0.51782v-0.25037c0-0.16006 0.0353-0.29719 0.1051-0.41101 0.0698-0.11738 0.19282-0.25451 0.36914-0.41101 0.09918-0.088923 0.16894-0.1547 0.20935-0.19739 0.04408-0.04624 0.08606-0.10803 0.12646-0.18628 0.04408-0.081809 0.06665-0.16585 0.06665-0.25122 0-0.16362-0.05557-0.29518-0.16577-0.39478-0.10653-0.099593-0.25503-0.14954-0.44604-0.14954-0.31592 0-0.53272 0.17123-0.65027 0.5127l-0.4742-0.19226c0.077142-0.20274 0.20999-0.38425 0.39734-0.54431 0.19102-0.16362 0.4333-0.24524 0.72717-0.24524zm-6e-3 3.212c0.10653 0 0.1951 0.03567 0.26489 0.10681 0.07347 0.07114 0.11023 0.1559 0.11023 0.25549 0 0.09959-0.03676 0.18521-0.11023 0.25635-0.06978 0.07114-0.15834 0.10681-0.26488 0.10681s-0.19655-0.03567-0.27002-0.10681c-0.0698-0.07114-0.10425-0.15675-0.10425-0.25635 0-0.09959 0.03445-0.18436 0.10425-0.25549 0.07347-0.07114 0.16349-0.10681 0.27002-0.10681z" fill="#dedede" fill-rule="evenodd"/>
</svg>
