<svg width="16" height="16" enable-background="new" version="1.1" xmlns="http://www.w3.org/2000/svg">
<defs>
<filter color-interpolation-filters="sRGB">
<feBlend in2="BackgroundImage" mode="darken"/>
</filter>
</defs>
<g transform="translate(-365 251)">
<g transform="translate(346.18 -247.19)" enable-background="new">
<g transform="matrix(.52112 0 0 .52112 20.768 5.3453)" fill="#fff">
<g transform="matrix(.02206 0 0 .02206 -29.9 -.39149)" fill="#fff"></g>
</g>
</g>
<g transform="translate(323.97 -243.03)"></g>
<g transform="matrix(0 -.47358 -.41427 0 799.32 -237.84)" fill="#bebebe">
<g transform="matrix(.00011827 .032712 -.032712 .00011827 18.269 1034.4)" fill="#bebebe">
<path d="m345.44 248.29-194.29 194.28c-12.359 12.365-32.397 12.365-44.75 0-12.354-12.354-12.354-32.391 0-44.744l171.91-171.91-171.91-171.9c-12.354-12.359-12.354-32.394 0-44.748 12.354-12.359 32.391-12.359 44.75 0l194.29 194.28c6.177 6.18 9.262 14.271 9.262 22.366 0 8.099-3.091 16.196-9.267 22.373z" fill="#bebebe"/>
</g>
</g>
<g transform="matrix(0 .47358 .41427 0 -53.325 -248.16)" fill="#bebebe">
<g transform="matrix(.00011827 .032712 -.032712 .00011827 18.269 1034.4)" fill="#bebebe">
<path d="m345.44 248.29-194.29 194.28c-12.359 12.365-32.397 12.365-44.75 0-12.354-12.354-12.354-32.391 0-44.744l171.91-171.91-171.91-171.9c-12.354-12.359-12.354-32.394 0-44.748 12.354-12.359 32.391-12.359 44.75 0l194.29 194.28c6.177 6.18 9.262 14.271 9.262 22.366 0 8.099-3.091 16.196-9.267 22.373z" fill="#bebebe"/>
</g>
</g>
<circle transform="matrix(-.064329 -.99793 .99793 -.064329 0 0)" cx="208.81" cy="373.69" r="0" fill="#bebebe"/>
<text x="356.32224" y="-224.6696" fill="#bebebe" font-family="sans-serif" font-size="20.899px" letter-spacing="0px" stroke-width="1px" word-spacing="0px" style="line-height:125%" xml:space="preserve"><tspan x="356.32224" y="-224.6696" fill="#bebebe" font-family="'DejaVu Sans'"/></text>
<g transform="matrix(.30399 0 0 .30399 385.33 -268.56)" fill="#bebebe">
<g transform="matrix(.02206 0 0 .02206 -29.9 -.39149)" fill="#bebebe"></g>
</g>
<path d="m373-239.5a3.5 3.5 0 0 1-3.5-3.5 3.5 3.5 0 0 1 3.5-3.5 3.5 3.5 0 0 1 3.5 3.5 3.5 3.5 0 0 1-3.5 3.5zm-0.0872-1.5313a0.4375 0.4375 0 0 0 0.4375-0.43749 0.4375 0.4375 0 0 0-0.4375-0.4375 0.4375 0.4375 0 0 0-0.4375 0.4375 0.4375 0.4375 0 0 0 0.4375 0.43749zm-0.047-1.3125h0.0932c0.15581 0 0.28198-0.12532 0.28198-0.28113v-2.0628c0-0.15581-0.12617-0.28112-0.28198-0.28112h-0.0932c-0.15581 0-0.28113 0.12531-0.28113 0.28112v2.0628c0 0.15581 0.12532 0.28113 0.28113 0.28113z" fill="#e74c3c" fill-rule="evenodd"/>
</g>
</svg>
