<svg width="16" height="16" version="1.1" viewBox="0 0 16 16" xmlns="http://www.w3.org/2000/svg">
<g transform="matrix(.0067059 0 0 .0067059 -.93987 8.8362)" fill="#fff"></g>
<g transform="matrix(-.013552 -5.6011e-5 -4.8996e-5 .015492 5.818 4.5072)" fill="#bebebe">
<path d="m345.44 248.29-194.29 194.28c-12.359 12.365-32.397 12.365-44.75 0-12.354-12.354-12.354-32.391 0-44.744l171.91-171.91-171.91-171.9c-12.354-12.359-12.354-32.394 0-44.748 12.354-12.359 32.391-12.359 44.75 0l194.29 194.28c6.177 6.18 9.262 14.271 9.262 22.366 0 8.099-3.091 16.196-9.267 22.373z" fill="#bebebe"/>
</g>
<g transform="matrix(.013552 5.6011e-5 4.8996e-5 -.015492 10.182 11.493)" fill="#bebebe">
<path d="m345.44 248.29-194.29 194.28c-12.359 12.365-32.397 12.365-44.75 0-12.354-12.354-12.354-32.391 0-44.744l171.91-171.91-171.91-171.9c-12.354-12.359-12.354-32.394 0-44.748 12.354-12.359 32.391-12.359 44.75 0l194.29 194.28c6.177 6.18 9.262 14.271 9.262 22.366 0 8.099-3.091 16.196-9.267 22.373z" fill="#bebebe"/>
</g>
<g transform="matrix(.65615 0 0 .65615 7.8526 7.2148)" fill="#bebebe">
<g transform="matrix(.4418 0 0 .4418 -4.7535 -458.86)" fill="#bebebe">
<path d="m15.927 1040.2v-1.9983c0-2.7121-2.2065-4.9187-4.9186-4.9187-2.7121 0-4.9186 2.2066-4.9186 4.9187v1.9983c-0.38761 0.081-0.67966 0.4259-0.67966 0.8373v7.4883c0 0.4717 0.38381 0.8555 0.85557 0.8555h9.4854c0.47176 0 0.85557-0.3838 0.85557-0.8555v-7.4883c0-0.4114-0.292-0.7559-0.67962-0.8373zm-1.7111-0.018h-6.415v-1.9801c0-1.7686 1.4388-3.2074 3.2075-3.2074 1.7686 0 3.2075 1.4389 3.2075 3.2074z" fill="#bebebe"/>
</g>
</g>
<g transform="matrix(.0067059 0 0 .0067059 -.93987 8.8362)" fill="#fff"></g>
</svg>
