<svg xmlns="http://www.w3.org/2000/svg" width="16" height="16" enable-background="new" version="1.1">
<g fill="#dedede">
<path d="m8 5.43c-1.419 0-2.5714 1.1524-2.5714 2.5714 0 1.419 1.1524 2.5714 2.5714 2.5714s2.5714-1.1524 2.5714-2.5714c0-1.419-1.1524-2.5714-2.5714-2.5714z" color="#dedede" stroke-width="1.781" />
<path d="m8 2c-3.3066 0-6 2.6934-6 6s2.6934 6 6 6 6-2.6934 6-6-2.6934-6-6-6zm0 0.85714c2.8426 0 5.1429 2.3003 5.1429 5.1429s-2.3003 5.1429-5.1429 5.1429c-2.8426 0-5.1429-2.3003-5.1429-5.1429s2.3003-5.1429 5.1429-5.1429z" color="#dedede" />
</g>
</svg>
