<svg width="16" height="16" version="1.1" xmlns="http://www.w3.org/2000/svg">
<defs>
<style id="current-color-scheme" type="text/css">.ColorScheme-Text { color:#565656; }</style>
<style id="current-color-scheme-3" type="text/css">.ColorScheme-Text { color:#565656; }</style>
<style id="current-color-scheme-36" type="text/css">.ColorScheme-Text {
        color:#666666;
      }</style>
</defs>
<path d="m8.002 0.72656a0.50005 0.50005 0 0 0-0.46875 0.32031l-1.8711 4.8555-5.1895 0.27344a0.50005 0.50005 0 0 0-0.28906 0.88672l4.0352 3.2852-1.334 5.0234a0.50005 0.50005 0 0 0 0.75586 0.54883l4.3594-2.8242 4.3594 2.8242a0.50005 0.50005 0 0 0 0.75586-0.54883l-1.334-5.0234 4.0352-3.2852a0.50005 0.50005 0 0 0-0.28906-0.88672l-5.1895-0.27344-1.8711-4.8555a0.50005 0.50005 0 0 0-0.46484-0.32031zm-0.0019531 1.8906 1.5215 3.9473a0.50005 0.50005 0 0 0 0.43945 0.31836l4.2188 0.22266-3.2793 2.6699a0.50005 0.50005 0 0 0-0.16797 0.51563l1.084 4.0859-3.5449-2.2969a0.50005 0.50005 0 0 0-0.54297 0l-3.5449 2.2969 1.084-4.0859a0.50005 0.50005 0 0 0-0.16797-0.51563l-3.2793-2.6699 4.2188-0.22266a0.50005 0.50005 0 0 0 0.43945-0.31836z" color="#565656" color-rendering="auto" dominant-baseline="auto" fill="#565656" fill-opacity=".8" image-rendering="auto" shape-rendering="auto" solid-color="#000000" style="font-feature-settings:normal;font-variant-alternates:normal;font-variant-caps:normal;font-variant-ligatures:normal;font-variant-numeric:normal;font-variant-position:normal;isolation:auto;mix-blend-mode:normal;shape-padding:0;text-decoration-color:#000000;text-decoration-line:none;text-decoration-style:solid;text-indent:0;text-orientation:mixed;text-transform:none;white-space:normal"/>
<path d="m8.0002 2.5644 1.6484 4.2789 4.5721 0.24024-3.5532 2.8938 1.1735 4.4263-3.8407-2.488-3.8407 2.488 1.1735-4.4263-3.5532-2.8938 4.5721-0.24024z" fill="#dedede" fill-opacity=".098039"/>
</svg>
