<svg width="22" height="22" version="1.1" viewBox="0 0 22 22" xmlns="http://www.w3.org/2000/svg">
<path d="m8.1976 2.375c-3.263 0-5.9257 2.7096-5.9257 6.0279 1e-7 3.3183 2.6627 6.0261 5.9257 6.0261 1.4052 0 2.6972-0.5049 3.7154-1.3417l6.4881 6.7632a0.86865 0.88336 0 1 0 1.2444-1.2328l-6.5506-6.8304c0.64878-0.96607 1.0302-2.1311 1.0302-3.3843 0-3.3183-2.6645-6.0279-5.9275-6.0279zm0 1.7666c2.3244 0 4.1903 1.8975 4.1903 4.2613 0 2.3637-1.8659 4.2613-4.1903 4.2613-2.3244 0-4.1903-1.8975-4.1903-4.2613-2e-7 -2.3637 1.8659-4.2613 4.1903-4.2613z" color="#000000" color-rendering="auto" dominant-baseline="auto" fill="#363636" image-rendering="auto" shape-rendering="auto" solid-color="#000000" style="font-feature-settings:normal;font-variant-alternates:normal;font-variant-caps:normal;font-variant-ligatures:normal;font-variant-numeric:normal;font-variant-position:normal;isolation:auto;mix-blend-mode:normal;shape-padding:0;text-decoration-color:#000000;text-decoration-line:none;text-decoration-style:solid;text-indent:0;text-orientation:mixed;text-transform:none;white-space:normal"/>
</svg>
