<svg width="22" height="22" version="1.0" xmlns="http://www.w3.org/2000/svg">
<path d="m11.241 3.7288c-0.62117 0-1.1213 0.50008-1.1213 1.1213v4.485c0 0.62117 0.50008 1.1213 1.1213 1.1213s1.1213-0.50008 1.1213-1.1213v-4.485c0-0.62117-0.50008-1.1213-1.1213-1.1213zm-3.3638 2.2425c-0.2622 0-0.51099 0.094234-0.70078 0.24527-0.18263 0.15395-0.24093 0.20902-0.31535 0.28031-1.4338 1.2296-2.3476 3.0409-2.3476 5.0807 0 3.7155 3.012 6.7275 6.7275 6.7275 3.7155 0 6.7275-3.012 6.7275-6.7275 0-2.0398-0.91379-3.8511-2.3476-5.0807-0.074424-0.071298-0.13272-0.12636-0.31535-0.28031-0.18979-0.15104-0.43858-0.24527-0.70078-0.24527-0.61925 0-1.1213 0.502-1.1213 1.1213 0 0.34875 0.16626 0.64007 0.42047 0.84094 0.0452 0.042358 0.05992 0.066583 0.14016 0.14016 1.0362 0.81745 1.6819 2.0782 1.6819 3.5039 0 2.477-2.008 4.485-4.485 4.485-2.477 0-4.485-2.008-4.485-4.485 0-1.4257 0.64573-2.6865 1.6819-3.5039 0.080233-0.073575 0.094955-0.097799 0.14016-0.14016 0.2542-0.20087 0.42047-0.49219 0.42047-0.84094 0-0.61925-0.502-1.1213-1.1213-1.1213z" color="#000000" fill="#363636"/>
</svg>
