<svg width="16" height="16" version="1.1" viewBox="0 0 16 16" xmlns="http://www.w3.org/2000/svg">
<defs>
<style id="current-color-scheme" type="text/css">.ColorScheme-Text { color:#5c616c; } .ColorScheme-Highlight { color:#5294e2; }</style>
</defs>
<path class="ColorScheme-Text" d="m8 1c-3.863 0-7 3.137-7 7s3.137 7 7 7 7-3.137 7-7-3.137-7-7-7zm0 2c1.0194 0 1.959 0.28763 2.75 0.8125l-6.9375 6.9375c-0.52487-0.79102-0.8125-1.7306-0.8125-2.75 0-2.7593 2.2408-5 5-5zm4.1875 2.25c0.52487 0.79102 0.8125 1.7306 0.8125 2.75 0 2.7592-2.2408 5-5 5-1.0194 0-1.959-0.28763-2.75-0.8125l6.9375-6.9375z" fill="currentColor" fill-opacity=".85098"/>
</svg>
