<svg width="16" height="16" version="1.1" viewBox="0 0 16 16" xmlns="http://www.w3.org/2000/svg">
<defs>
<style id="current-color-scheme" type="text/css">.ColorScheme-Text { color:#5c616c; } .ColorScheme-Highlight { color:#5294e2; }</style>
</defs>
<path class="ColorScheme-Text" d="m11 2a3 3 0 0 0-2.8242 2h-7.1758v2h7.1738a3 3 0 0 0 2.8262 2 3 3 0 0 0 2.8242-2h1.1758v-2h-1.1738a3 3 0 0 0-2.8262-2zm-5 6a3 3 0 0 0-2.8242 2h-2.1758v2h2.1738a3 3 0 0 0 2.8262 2 3 3 0 0 0 2.8242-2h6.1758v-2h-6.1738a3 3 0 0 0-2.8262-2z" fill="#f1f6f8" fill-opacity=".85098"/>
</svg>
