<svg width="16" height="16" version="1.1" viewBox="0 0 16 16" xmlns="http://www.w3.org/2000/svg">
<defs>
<style id="current-color-scheme" type="text/css">.ColorScheme-Text { color:#5c616c; } .ColorScheme-Highlight { color:#5294e2; }</style>
</defs>
<path class="ColorScheme-Text" d="m11 0c-0.28942 3.57e-4 -0.57827 0.025842-0.86328 0.076172-0.01385 0.0024-0.027196 0.0053125-0.041016 0.0078125-0.24065 0.0457-0.47762 0.10902-0.70898 0.18945-0.044356 0.01516-0.089 0.028562-0.13281 0.044922-0.22438 0.08449-0.44239 0.18501-0.65234 0.30078-0.04699 0.02576-0.092582 0.052848-0.13867 0.080078-0.20955 0.122-0.40995 0.25908-0.59961 0.41016-0.02703 0.0218-0.051545 0.045999-0.078125 0.068359-0.17772 0.14965-0.34479 0.3115-0.5 0.48438-0.02286 0.02543-0.047962 0.048309-0.070312 0.074219-0.1573 0.1846-0.30089 0.38044-0.42969 0.58594-0.0301 0.0472-0.059391 0.094278-0.087891 0.14258-0.1272 0.2141-0.23813 0.43737-0.33203 0.66797-0.0106 0.02635-0.019127 0.053498-0.029297 0.080078-0.0995 0.2555-0.17798 0.51871-0.23438 0.78711h-6.1016v2h6.1055c5.42e-4 0.0027 0.0013531 0.0052125 0.0019531 0.0078125 0.04826 0.23618 0.11353 0.46855 0.19531 0.69531l0.0039062 0.011719c7.06e-4 0.0019 0.0011532 0.0038593 0.0019532 0.0058593 0.08184 0.22011 0.17909 0.43418 0.29102 0.64062 0.0098 0.01831 0.019257 0.036508 0.029297 0.054688 0.10101 0.18128 0.2132 0.3561 0.33594 0.52344 0.01848 0.0254 0.035738 0.051142 0.054687 0.076172 0.1371 0.18253 0.28654 0.35546 0.44727 0.51758 0.15634 0.15468 0.32272 0.29887 0.49805 0.43164 0.02948 0.02262 0.057901 0.046389 0.087891 0.068359 0.36273 0.2649 0.75959 0.47974 1.1797 0.63867 0.036255 0.01374 0.072711 0.026142 0.10938 0.039062 0.2149 0.0775 0.4348 0.1401 0.6582 0.1875v6.1016h2v-6.1055c0.0021-4.179e-4 0.003759-0.0014531 0.005859-0.0019531 0.55597-0.11487 1.0883-0.32358 1.5742-0.61719 0.01198-0.0072 0.025199-0.012211 0.03711-0.019531 0.22354-0.13866 0.43578-0.29474 0.63476-0.4668 0.02251-0.01932 0.044246-0.038894 0.066406-0.058594 0.19757-0.17406 0.38108-0.36345 0.54883-0.56641 0.004099-0.0051 0.007598-0.010565 0.011718-0.015625 0.166-0.20467 0.31555-0.42215 0.44727-0.65039 0.0088-0.01523 0.018684-0.029602 0.027344-0.044922 0.12608-0.22563 0.23448-0.46074 0.32422-0.70312 0.01249-0.03327 0.02531-0.066029 0.03711-0.099609 0.08421-0.23879 0.15014-0.48364 0.19726-0.73242 8e-3 -0.04263 0.012642-0.085936 0.019532-0.12891 0.043-0.2608 0.066359-0.52466 0.068359-0.78906-1e-3 -0.1448-0.008484-0.28939-0.021484-0.43359-8e-3 -0.0869-0.01925-0.17221-0.03125-0.25781-0.01-0.0764-0.021157-0.15262-0.035157-0.22852-0.01-0.0536-0.023156-0.1053-0.035156-0.1582-0.061-0.2789-0.14591-0.55201-0.25391-0.81641-0.018-0.044-0.038594-0.085606-0.058594-0.12891-0.111-0.2555-0.24448-0.50108-0.39648-0.73438-0.023-0.0339-0.049266-0.064356-0.072266-0.097656-0.164-0.2367-0.34683-0.45896-0.54883-0.66406-0.015-0.0148-0.029922-0.028369-0.044922-0.042969-0.213-0.2119-0.44536-0.4041-0.69336-0.57422-0.01614-0.01099-0.034501-0.018497-0.050782-0.029297-0.25139-0.1676-0.51745-0.31207-0.79492-0.43164l-0.015625-0.0078125c-0.0076-0.0032-0.015818-0.0046125-0.023438-0.0078125-0.28695-0.11988-0.58447-0.21273-0.88867-0.27734-0.01388-0.0029-0.027095-0.0069656-0.041015-0.0097656-0.16214-0.03271-0.32673-0.057609-0.49414-0.074219-0.166-0.016809-0.333-0.025288-0.5-0.025391z" fill="#f1f6f8" fill-opacity=".85098"/>
</svg>
