<svg width="16" height="16" version="1.1" viewBox="0 0 16 16" xmlns="http://www.w3.org/2000/svg">
<defs>
<style id="current-color-scheme" type="text/css">.ColorScheme-Text { color:#5c616c; } .ColorScheme-Highlight { color:#5294e2; }</style>
</defs>
<path class="ColorScheme-Text" d="m4 0v6.1055c-0.00205 4.179e-4 -0.0038094 0.0014531-0.0058594 0.0019531-0.55597 0.11487-1.0883 0.32358-1.5742 0.61719-0.011981 0.0072-0.025197 0.012211-0.037109 0.019531-0.22354 0.13866-0.43579 0.29474-0.63477 0.4668-0.022514 0.01932-0.044253 0.038894-0.066406 0.058594-0.19757 0.17406-0.38108 0.36345-0.54883 0.56641-0.00414 0.0051-0.0075997 0.010565-0.011719 0.015625-0.166 0.20467-0.31555 0.42215-0.44727 0.65039-0.00882 0.01523-0.018681 0.029602-0.027344 0.044922-0.1261 0.2256-0.23449 0.46072-0.32422 0.70312-0.0125 0.0333-0.025319 0.066009-0.037109 0.099609-0.08421 0.2388-0.15015 0.48362-0.19727 0.73242-0.007989 0.043-0.012639 0.085907-0.019531 0.12891-0.043615 0.261-0.066473 0.52506-0.068359 0.78906 8.805e-4 0.14477 0.0080504 0.28944 0.021484 0.43359 0.00747 0.08691 0.019386 0.17223 0.03125 0.25781 0.00996 0.07643 0.021678 0.15262 0.035156 0.22852 0.00997 0.05355 0.023494 0.10527 0.035156 0.1582 0.06117 0.27889 0.14612 0.55202 0.25391 0.81641 0.018067 0.04401 0.039318 0.085536 0.058594 0.12891 0.11147 0.25541 0.24409 0.50106 0.39648 0.73437 0.02248 0.03389 0.048988 0.064347 0.072266 0.097657 0.1635 0.23673 0.34712 0.45891 0.54883 0.66406 0.014675 0.01479 0.030065 0.028359 0.044922 0.042969 0.21338 0.21187 0.44544 0.40405 0.69336 0.57422 0.016145 0.01099 0.034502 0.018497 0.050781 0.029297 0.25139 0.1676 0.51745 0.31207 0.79492 0.43164l0.015625 0.007813c0.0076 0.0032 0.01582 0.004612 0.023438 0.007812 0.28695 0.11988 0.58447 0.21273 0.88867 0.27734 0.013876 0.0029 0.027097 0.006966 0.041016 0.009766 0.16214 0.03271 0.32673 0.057608 0.49414 0.074218 0.1661 0.016 0.333 0.025391 0.5 0.025391 0.28942-3.57e-4 0.57827-0.025842 0.86328-0.076172 0.013848-0.0024 0.027204-0.005312 0.041016-0.007812 0.24065-0.0457 0.47762-0.10902 0.70898-0.18945 0.044356-0.015159 0.089-0.028561 0.13281-0.044921 0.22438-0.08449 0.44239-0.18501 0.65234-0.30078 0.04699-0.02576 0.092582-0.052848 0.13867-0.080078 0.20955-0.122 0.40995-0.25908 0.59961-0.41016 0.02703-0.0218 0.051545-0.045999 0.078125-0.068359 0.17772-0.14965 0.34479-0.3115 0.5-0.48438 0.02286-0.02543 0.047962-0.048309 0.070312-0.074219 0.15725-0.18463 0.30086-0.38046 0.42969-0.58594 0.03004-0.04724 0.059391-0.094218 0.087891-0.14258 0.12716-0.21408 0.23814-0.43736 0.33203-0.66797 0.0106-0.026351 0.019127-0.053499 0.029297-0.080079 0.0996-0.255 0.17798-0.51911 0.23438-0.78711h6.1016v-2h-6.1055c-5e-4 -0.0027-0.0013531-0.0052125-0.0019531-0.0078125-0.0482-0.2362-0.11351-0.46861-0.19531-0.69531l-0.0039062-0.011719c-7.06e-4 -0.0018999-0.0011532-0.0038593-0.0019532-0.0058593-0.0818-0.2201-0.17912-0.43412-0.29102-0.64062-0.0098-0.0183-0.019297-0.036588-0.029297-0.054688-0.101-0.1813-0.21324-0.35604-0.33594-0.52344-0.0185-0.0254-0.035788-0.051072-0.054687-0.076172-0.1371-0.1825-0.28657-0.35548-0.44727-0.51758-0.1563-0.1547-0.32275-0.29884-0.49805-0.43164-0.0295-0.0226-0.057891-0.046459-0.087891-0.068359-0.3628-0.2649-0.75959-0.47967-1.1797-0.63867-0.0363-0.0137-0.072675-0.026162-0.10938-0.039062-0.2149-0.0775-0.4348-0.1401-0.6582-0.1875v-6.1016h-2z" fill="currentColor" fill-opacity=".85098"/>
</svg>
