<svg width="16" height="16" version="1.1" viewBox="0 0 16 16" xmlns="http://www.w3.org/2000/svg">
<defs>
<style id="current-color-scheme" type="text/css">.ColorScheme-Text { color:#5c616c; } .ColorScheme-Highlight { color:#5294e2; }</style>
</defs>
<path class="ColorScheme-Text" d="m9.998 1.0039c-0.55401 0-1 0.44599-1 1v2c0 0.55401 0.44599 1 1 1h0.46875c-0.9039 2.5569-2.9119 4.5649-5.4688 5.4687v-0.46875c0-0.554-0.446-1-1-1h-2c-0.554 0-1 0.446-1 1v3c0 0.554 0.42392 1 0.96875 1h0.03125c6.6168 0 11.983-5.3559 12-11.969v-0.0625c0-0.54176-0.43472-0.96875-0.96875-0.96875h-3.0313z" fill="#dedede" fill-opacity=".85098"/>
</svg>
