<svg width="16" height="16" version="1.1" viewBox="0 0 16 16" xmlns="http://www.w3.org/2000/svg">
<defs>
<style id="current-color-scheme" type="text/css">.ColorScheme-Text { color:#5c616c; } .ColorScheme-Highlight { color:#5294e2; }</style>
</defs>
<path class="ColorScheme-Text" d="m8 1c-0.20703 0.66364-0.48677 1.3111-0.78906 1.9473-1.5405 3.1502-3.951 5.3068-4.1836 7.2949-6e-3 0.0297-0.022144 0.062196-0.027344 0.091796l0.019531 0.00586c-0.0049999 0.0684-0.019531 0.13688-0.019531 0.20508 0 2.4602 2.2386 4.4551 5 4.4551s5-1.9949 5-4.4551c0-0.0682-0.014531-0.13671-0.019531-0.20508l0.019531-0.00586c-5e-3 -0.0295-0.021044-0.062097-0.027344-0.091796-0.23255-1.9882-2.643-4.1448-4.1836-7.2949-0.30228-0.63622-0.58204-1.2837-0.78906-1.9473z" fill="currentColor" fill-opacity=".85098"/>
</svg>
