<svg width="16" height="16" version="1.1" viewBox="0 0 16 16" xmlns="http://www.w3.org/2000/svg">
<defs>
<style id="current-color-scheme" type="text/css">.ColorScheme-Text { color:#5c616c; } .ColorScheme-Highlight { color:#5294e2; }</style>
</defs>
<path class="ColorScheme-Text" d="m8 1c-3.866 0-7 3.134-7 7s3.134 7 7 7 7-3.134 7-7-3.134-7-7-7zm0 2c2.7614 0 5 2.2386 5 5s-2.2386 5-5 5-5-2.2386-5-5 2.2386-5 5-5zm3.5 1.5-3.5 1.166c-1.2217 0-2.334 1.1122-2.334 2.334l-1.166 3.5 3.5-1.166c1.2217 0 2.334-1.1123 2.334-2.334l1.166-3.5zm-3.5 2.334c0.61088 0 1.166 0.55512 1.166 1.166-2e-5 0.6108-0.55519 1.166-1.166 1.166-0.61085 0-1.166-0.55522-1.166-1.166-3e-5 -0.6109 0.55515-1.166 1.166-1.166z" fill="#f1f6f8" fill-opacity=".85098"/>
</svg>
