<svg width="16" height="16" version="1.1" viewBox="0 0 16 16" xmlns="http://www.w3.org/2000/svg">
<defs>
<style id="current-color-scheme" type="text/css">.ColorScheme-Text { color:#5c616c; } .ColorScheme-Highlight { color:#5294e2; }</style>
</defs>
<path class="ColorScheme-Text" d="m11.018 0c-0.346 0.13322-0.68856 0.30433-0.97656 0.53711-1.3773 1.1141-1.3944 2.9485-0.039063 4.0977 0.283 0.2401 0.6238 0.41845 0.9668 0.56055 0.028 0.0113 0.027344 2.0547 0.027344 2.0547 1.49 0.75 2.35 1.75 2.998 2.75v-4.748c0.346-0.1333 0.66708-0.32199 0.95508-0.55469 1.377-1.1142 1.3951-2.9485 0.039062-4.0977-0.283-0.24008-0.6238-0.41849-0.9668-0.56055l-0.021484 2.2324c-5e-3 0.4587-0.45186 0.72852-1.0059 0.72852h-0.99805c-0.554-7e-3 -1.004-0.30888-1-0.76758l0.021484-2.2324zm-3.0215 8c-3.9984 0-5.9961 3-5.9961 6h-1.75c-0.2499 0-0.25 0.157-0.25 0.25v1.5c0 0.25 0.13824 0.25 0.25 0.25h15.494c0.195 6e-3 0.25-0.129 0.25-0.25v-1.5c0.021-0.146 0-0.25-0.25-0.25h-1.75c0-3-1.9991-6-5.998-6zm0 3c2.3499 0 3 1.762 3 3h-5.998c0-1.198 0.70175-3 2.998-3z" fill="#f1f6f8" fill-opacity=".85098"/>
</svg>
