<svg width="16" height="16" version="1.1" viewBox="0 0 16 16" xmlns="http://www.w3.org/2000/svg">
<defs>
<style id="current-color-scheme" type="text/css">.ColorScheme-Text { color:#5c616c; } .ColorScheme-Highlight { color:#5294e2; }</style>
</defs>
<path class="ColorScheme-Text" d="m12.5 1a2.4999 2.4999 0 0 0-2.4492 2h-5.5508c-1.3807 0-2.5 1.6193-2.5 3s1.1193 3 2.5 3h7c0.82798 0 1.5 1.172 1.5 2s-0.67202 2-1.5 2h-5.5547a2.4999 2.4999 0 0 0-2.4453-2 2.4999 2.4999 0 0 0-2.5 2.5 2.4999 2.4999 0 0 0 2.5 2.5 2.4999 2.4999 0 0 0 2.4492-2h5.5508c1.381 0 2.5-1.619 2.5-3 0-1.3807-1.119-3-2.5-3h-7c-0.82838 0-1.5-1.1716-1.5-2s0.67162-2 1.5-2h5.5547a2.4999 2.4999 0 0 0 2.4453 2 2.4999 2.4999 0 0 0 2.5-2.5 2.4999 2.4999 0 0 0-2.5-2.5z" fill="#dedede" fill-opacity=".85098"/>
</svg>
