<svg width="16" height="16" version="1.1" viewBox="0 0 16 16" xmlns="http://www.w3.org/2000/svg">
<defs>
<style id="current-color-scheme" type="text/css">.ColorScheme-Text { color:#5c616c; } .ColorScheme-Highlight { color:#5294e2; }</style>
</defs>
<path class="ColorScheme-Text" d="m3 1s-1 0-1 1v12c0 1 1 1 1 1h4v-2h-3v-9.9961h8v4.9863h2v-5.9902c0-1-1-1-1-1h-10zm8 7.9902c-2 0-2 1-2 1v2h-1v3h6v-3h-1v-2s0-1-2-1zm0 1c0.37268 0 1 0.22386 1 0.5v1.5h-2v-1.5c0-0.27614 0.62732-0.5 1-0.5z" fill="currentColor" fill-opacity=".85098"/>
</svg>
