<svg width="16" height="16" version="1.1" viewBox="0 0 4.2333 4.2333" xmlns="http://www.w3.org/2000/svg">
<g transform="translate(0 -292.77)" fill="#f1f8f8">
<rect x="1.9844" y="294.49" width=".26458" height="1.0583"/>
<rect transform="rotate(90)" x="294.88" y="-2.6458" width=".26459" height="1.0583"/>
<path transform="matrix(.26458 0 0 .26458 0 292.77)" d="m7.5625 1.5v0c-0.48089 0.021617-0.95739 0.22106-1.3262 0.58984l-2.6504 2.6523c-0.41885 0.41885-0.61492 0.97352-0.58594 1.5195v6.7383c0 1.108 0.89198 2 2 2h6c1.108 0 2-0.89198 2-2v-9.5c0-1.108-0.89198-2-2-2zm0.20692 0.9707h2.9513c0.53534 0 0.99021 0.32613 1.1816 0.79102 0.03046 0.073967 0.05596 0.15218 0.07226 0.23242 0.017094 0.082662 0.025396 0.16799 0.025396 0.25586v9c0 0.52522-0.3203 0.97262-0.77734 1.1582-5.06e-4 2.14e-4 -0.0014-2.13e-4 -2e-3 0-0.06973 0.0282-0.14334 0.05105-0.21875 0.06641-0.09094 0.02035-0.18396 0.0332-0.28125 0.0332h-5.4453c-0.17925 0-0.34938-0.03762-0.50391-0.10352-0.30652-0.12638-0.5494-0.36925-0.67578-0.67578-0.030217-0.07173-0.053459-0.14876-0.070312-0.22656-2.547e-4 -0.0013 2.51e-4 -0.0027 0-0.0039-0.018625-0.08722-0.029297-0.17656-0.029297-0.26953v-6.5189c0-0.23417 0.082187-0.53674 0.22561-0.67346l2.8145-2.8145c0.23006-0.23006 0.51098-0.25086 0.73318-0.25086z" stroke-linecap="round" stroke-linejoin="round" stroke-width=".19654"/>
</g>
</svg>
