<svg width="16" height="16" version="1.1" viewBox="2 2 12 12" xmlns="http://www.w3.org/2000/svg">
<defs>
<style id="current-color-scheme" type="text/css">.ColorScheme-Text {
        color:#bebebe;
      }</style>
</defs>
<path d="m3.6426 3.1055c-0.27685-4.661e-4 -0.50269 0.22318-0.50195 0.5l0.025391 9.0684c7.413e-4 0.27685 0.22315 0.5 0.5 0.5h8.7891c0.27685 0 0.5-0.22315 0.5-0.5v-7.5273s-0.05246-0.26146-0.14648-0.35547l-1.5996-1.5273c-0.096164-0.091788-0.22249-0.14626-0.35547-0.14648l-7.2109-0.011719zm0.33594 0.039062h6.8848v3.6758h-6.8848v-3.6758zm4.1777 0.35547c-0.086305 0-0.15625 0.080058-0.15625 0.17969v2.6406c0 0.09966 0.069945 0.17969 0.15625 0.17969h1.1875c0.086305 0 0.15625-0.080028 0.15625-0.17969v-2.6406c0-0.09963-0.069945-0.17969-0.15625-0.17969h-1.1875z" color="#bebebe" fill-opacity=".3125"/>
<path d="m2.502 2c-0.27685 0-0.50195 0.22513-0.50195 0.50195v10.996c0 0.27685 0.2251 0.50195 0.50195 0.50195h10.996c0.27685 0 0.50195-0.2251 0.50195-0.50195v-8.668c0-0.13291-0.05246-0.26146-0.14648-0.35547l-2.3301-2.3281c-0.094004-0.094-0.22054-0.14648-0.35352-0.14648h-8.668zm1.1406 1.1055 7.2109 0.011719c0.13298 2.238e-4 0.2593 0.054696 0.35547 0.14648l1.5996 1.5273c0.094024 0.094006 0.14648 0.35547 0.14648 0.35547v7.5273c0 0.27685-0.22315 0.5-0.5 0.5h-8.7891c-0.27685 0-0.49926-0.22315-0.5-0.5l-0.025391-9.0684c-7.412e-4 -0.27682 0.2251-0.50047 0.50195-0.5z" color="#bebebe" fill-opacity=".68208"/>
</svg>
