<svg width="16" height="16" version="1.1" viewBox="0 0 16 16" xmlns="http://www.w3.org/2000/svg">
<defs>
<style id="current-color-scheme" type="text/css">.ColorScheme-Text { color:#5c616c; } .ColorScheme-Highlight { color:#5294e2; }</style>
</defs>
<path class="ColorScheme-Text" d="m2.8438 0.0039062v0.0019531c-0.2811 0.043699-0.84375 0.23391-0.84375 0.93359v12.125c0 0.93298 1 0.93359 1 0.93359h7.5c-1.933 0-3.5-1.567-3.5-3.5 0-1.933 1.567-3.5 3.5-3.5 1.8308-9.41e-5 3.3523 1.4108 3.4902 3.2363 2e-3 -2.2014 0.0035-4.8429 0-6.498l-3.9961-3.7324h-6.9941s-0.062575-0.014553-0.15625 0zm7.6758 7.7852c-1.4956 0-2.7187 1.2251-2.7187 2.7207 0 1.4956 1.2232 2.7188 2.7187 2.7188 0.4871 0 0.94724-0.14835 1.3438-0.375a0.75008 0.75008 0 0 0 0.15625 0.21875l1.8438 1.8125a0.7513 0.7513 0 1 0 1.0625-1.0625l-1.8438-1.8125a0.75008 0.75008 0 0 0-0.21875-0.15625c0.22665-0.39646 0.375-0.85659 0.375-1.3438 0-1.4956-1.2232-2.7207-2.7188-2.7207zm0 1c0.95516 0 1.7188 0.76549 1.7188 1.7207 0 0.95516-0.76354 1.7188-1.7188 1.7188-0.95516 0-1.7187-0.76354-1.7187-1.7188 0-0.95516 0.76354-1.7207 1.7187-1.7207z" fill="currentColor" fill-opacity=".85098"/>
</svg>
