<svg width="16" height="16" version="1.1" viewBox="0 0 16 16" xmlns="http://www.w3.org/2000/svg">
<defs>
<style id="current-color-scheme" type="text/css">.ColorScheme-Text { color:#5c616c; } .ColorScheme-Highlight { color:#5294e2; }</style>
</defs>
<path class="ColorScheme-Text" d="m5.9902 1.0195 0.0097656 6h-2.3418l3.3398 4.8613v-1.9863c0-1.0106 0.90116-1.8438 1.875-1.8438h2.7832l0.7168-1.0312h-2.375l-0.0097657-6h-3.998zm2.8828 8.0312c-0.4924 0-0.875 0.35565-0.875 0.84375v5.2187c0 0.488 0.3826 0.84375 0.875 0.84375h6.25c0.492 0 0.875-0.35575 0.875-0.84375v-5.2187c0-0.4881-0.383-0.84375-0.875-0.84375h-6.25zm1.127 0.94922h4v5h-1v-2h-2v2h-1v-5zm1 1v1h2v-1h-2zm-10 3.0312v1.9688h6.2578c-0.15641-0.26492-0.25586-0.56446-0.25586-0.88672v-1.082h-6.002z" fill="#f1f6f8" fill-opacity=".85098"/>
</svg>
