<svg width="16" height="16" version="1.1" viewBox="0 0 16 16" xmlns="http://www.w3.org/2000/svg">
<defs>
<style id="current-color-scheme" type="text/css">.ColorScheme-Text { color:#5c616c; } .ColorScheme-Highlight { color:#5294e2; }</style>
</defs>
<path class="ColorScheme-Text" d="m8.1309 1c0.60456 1.5973 3.1415 8.2953 3.1406 8.2949l3.502-1.75 0.22461 0.44727c0-3.8211-3.0632-6.9205-6.8672-6.9922zm-0.48633 0.0097656c-3.5302 0.17697-6.3652 2.9633-6.6191 6.4727l3.1602-2.2344 2.4863 4.9746 0.97266-9.2129zm0.63867 3.168-0.95898 9.584-3.5137-7.0254-2.5547 1.8066-0.24805-0.34961c0.10756 3.772 3.1922 6.7988 6.9902 6.7988 3.6719 0 6.6776-2.8294 6.9707-6.4258l-4.2441 2.1211-2.4414-6.5098z" fill="#f1f6f8" fill-opacity=".85098"/>
</svg>
