<svg width="16" height="16" version="1.1" viewBox="0 0 16 16" xmlns="http://www.w3.org/2000/svg">
<defs>
<style id="current-color-scheme" type="text/css">.ColorScheme-Text { color:#5c616c; } .ColorScheme-Highlight { color:#5294e2; }</style>
</defs>
<path class="ColorScheme-Text" d="m2 2v8h4v4h8v-8h-4v-4h-8zm8 5c0.739 0 1.334 0.78023 1.334 1.7402v0.83203h0.33203c0.185 0 0.33398 0.19033 0.33398 0.42773v2.5723c0 0.238-0.14898 0.42773-0.33398 0.42773h-3.332c-0.1847 0-0.33398-0.18973-0.33398-0.42773v-2.5723c0-0.2374 0.14928-0.42773 0.33398-0.42773h0.33203v-0.83203c0-0.9603 0.59528-1.7402 1.334-1.7402zm0 0.85742c-0.3693 0-0.66602 0.38262-0.66602 0.85742v0.85742h1.332v-0.85742c0-0.4748-0.29702-0.85742-0.66602-0.85742z" fill="currentColor" fill-opacity=".85098"/>
</svg>
