<svg width="16" height="16" version="1.1" viewBox="0 0 16 16" xmlns="http://www.w3.org/2000/svg">
<defs>
<style id="current-color-scheme" type="text/css">.ColorScheme-Text { color:#5c616c; } .ColorScheme-Highlight { color:#5294e2; }</style>
</defs>
<path class="ColorScheme-Text" d="m2 1v1h2.2812l3 3h-2.5625l-2.7188-2.7188v1.4375l1.2812 1.2812h-1.2812v1h7v-1h-0.28125l-3-3h2.5625l0.71875 0.71875v-1.7188h-7zm10 0-2 4h4l-2-4zm-11 6v8h14v-8h-2v2h-2v-2h-2v2h-2v-2h-2v2h-2v-2h-2zm2 4h2v2h-2v-2zm4 0h2v2h-2v-2zm4 0h2v2h-2v-2z" fill="#f1f6f8" fill-opacity=".85098"/>
</svg>
