<svg width="16" height="16" version="1.1" viewBox="0 0 16 16" xmlns="http://www.w3.org/2000/svg">
<defs>
<style id="current-color-scheme" type="text/css">.ColorScheme-Text { color:#5c616c; } .ColorScheme-Highlight { color:#5294e2; }</style>
</defs>
<path class="ColorScheme-Text" d="m5 2.0039-5 6 5 6h11v-12h-11zm2 3h1c0.277 0 0.52628 0.11222 0.70703 0.29297l1.293 1.293 1.293-1.293c0.17-0.181 0.41922-0.29297 0.69922-0.29297h1v1c0 0.277-0.11222 0.52628-0.29297 0.70703l-1.2988 1.293 1.293 1.293c0.18075 0.18075 0.29297 0.43003 0.29297 0.70703v1h-1c-0.277 0-0.52628-0.11222-0.70703-0.29297l-1.293-1.293-1.293 1.293c-0.16 0.181-0.40945 0.29297-0.68945 0.29297h-1v-1c0-0.277 0.11222-0.52628 0.29297-0.70703l1.2988-1.293-1.2988-1.293c-0.18-0.181-0.29102-0.43003-0.29102-0.70703l-0.0058594-1z" fill="#dedede" fill-opacity=".85098"/>
</svg>
