<svg width="16" height="16" version="1.1" viewBox="0 0 16 16" xmlns="http://www.w3.org/2000/svg">
<defs>
<style id="current-color-scheme" type="text/css">.ColorScheme-Text { color:#5c616c; } .ColorScheme-Highlight { color:#5294e2; }</style>
</defs>
<path class="ColorScheme-Text" d="m0 2.0039v12h11l5-6-5-6h-11zm3.0078 3h1c0.28 0 0.52922 0.11197 0.69922 0.29297l1.293 1.293 1.293-1.293c0.18075-0.18075 0.43003-0.29297 0.70703-0.29297h1l0.0039062 1c0 0.277-0.11078 0.52603-0.30078 0.70703l-1.293 1.293 1.3008 1.293c0.18075 0.18075 0.29297 0.43003 0.29297 0.70703v1h-1c-0.28 0-0.53117-0.11197-0.70117-0.29297l-1.293-1.293-1.293 1.293c-0.18075 0.18075-0.43003 0.29297-0.70703 0.29297h-1v-1c0-0.277 0.11102-0.52603 0.29102-0.70703l1.293-1.293-1.293-1.293c-0.18075-0.18075-0.29297-0.43003-0.29297-0.70703v-1z" fill="#dedede" fill-opacity=".85098"/>
</svg>
