<svg width="16" height="16" version="1.1" viewBox="0 0 16 16" xmlns="http://www.w3.org/2000/svg">
<defs>
<style id="current-color-scheme" type="text/css">.ColorScheme-Text { color:#5c616c; } .ColorScheme-Highlight { color:#5294e2; }</style>
</defs>
<path class="ColorScheme-Text" d="m2 2v8h4v4h8v-8h-4v-4h-8zm8 5c0.739 0 1.334 0.68344 1.334 1.5234v1.4766h0.33203c0.185 0 0.33398 0.167 0.33398 0.375v2.25c0 0.208-0.14898 0.375-0.33398 0.375h-3.332c-0.1847 0-0.33398-0.167-0.33398-0.375v-2.25c0-0.208 0.14928-0.375 0.33398-0.375h2.332v-1.5c0-0.4155-0.29702-0.75-0.66602-0.75-0.3693 0-0.66602 0.3345-0.66602 0.75v0.375h-0.66797v-0.375c0.0112-0.8294 0.60228-1.5 1.334-1.5z" fill="#dedede" fill-opacity=".85098"/>
</svg>
