<svg xmlns="http://www.w3.org/2000/svg" width="16" height="16" version="1.1" viewBox="0 0 16 16">
<g>
<g fill="#dedede">
<path d="m0 0h1v1h-1z" />
<path d="m2 0h1v1h-1z" />
<path d="m4 0h1v1h-1z" />
<path d="m6 0h1v1h-1z" />
<path d="m8 0h1v1h-1z" />
<path d="m10 0h1v1h-1z" />
<path d="m12 0h1v1h-1z" />
<path d="m14 0h1v1h-1z" />
<path d="m0 2h1v1h-1z" />
<path d="m0 4h1v1h-1z" />
<path d="m0 6h1v1h-1z" />
<path d="m0 8h1v1h-1z" />
<path d="m0 10h1v1h-1z" />
<path d="m0 12h1v1h-1z" />
<path d="m0 14h1v1h-1z" />
<path d="m14 2h1v1h-1z" />
<path d="m14 4h1v1h-1z" />
<path d="m14 6h1v1h-1z" />
<path d="m14 8h1v1h-1z" />
<path d="m14 10h1v1h-1z" />
<path d="m14 12h1v1h-1z" />
<path d="m14 14h1v1h-1z" />
<path d="m2 14h1v1h-1z" />
<path d="m4 14h1v1h-1z" />
<path d="m6 14h1v1h-1z" />
<path d="m8 14h1v1h-1z" />
<path d="m10 14h1v1h-1z" />
<path d="m12 14h1v1h-1z" />
<path transform="translate(0 0)" d="m2 2v11h11v-11zm2 2h7v7h-7z" opacity=".5" style="paint-order:stroke fill markers" />
<rect x="2" y="6" width="2" height="3" opacity=".999" style="paint-order:stroke fill markers" />
<rect x="11" y="6" width="2" height="3" opacity=".999" style="paint-order:stroke fill markers" />
<rect x="6" y="2" width="3" height="2" opacity=".999" style="paint-order:stroke fill markers" />
<rect x="6" y="11" width="3" height="2" opacity=".999" style="paint-order:stroke fill markers" />
<rect x="2" y="11" width="2" height="2" opacity=".999" style="paint-order:stroke fill markers" />
<rect x="2" y="2" width="2" height="2" opacity=".999" style="paint-order:stroke fill markers" />
<rect x="11" y="2" width="2" height="2" opacity=".999" style="paint-order:stroke fill markers" />
<rect x="11" y="11" width="2" height="2" opacity=".999" style="paint-order:stroke fill markers" />
</g>
</g>
</svg>
