<svg width="16" height="16" version="1.1" viewBox="0 0 16 16" xmlns="http://www.w3.org/2000/svg">
<defs>
<style id="current-color-scheme" type="text/css">.ColorScheme-Text { color:#5c616c; } .ColorScheme-Highlight { color:#5294e2; }</style>
</defs>
<path class="ColorScheme-Text" d="m6.5 1.0039c-3.0289 0-5.5 2.4746-5.5 5.5 0 1.0622 0.28612 2.0632 0.8125 2.9062l1.4688-1.4707c-0.19332-0.43602-0.28125-0.9265-0.28125-1.4375 0-1.9452 1.5526-3.5 3.5-3.5 0.51218 0 0.96979 0.11857 1.4062 0.3125l0.75-0.75 0.09375-0.091797 0.625-0.65625c-0.84-0.518-1.8191-0.8125-2.8691-0.8125h-0.0058594zm5.1113 0.99805c-0.18205 0-0.36255 0.071541-0.50391 0.21289l-1.3965 1.4043 2.6719 2.6738 1.4043-1.3965c0.28271-0.28271 0.28271-0.729 0-1.0117l-1.6699-1.6699c-0.14136-0.14135-0.32381-0.21289-0.50586-0.21289zm-2.8613 2.5781-6.75 6.75v2.6719h2.6719l6.752-6.75-2.6738-2.6719zm2.375 5.1113-1.4375 1.4062 3.625 3.625c0.95834 0.93804 2.3652-0.50001 1.4062-1.4375l-3.5938-3.5937z" fill="#dedede" fill-opacity=".85098"/>
</svg>
