<svg width="16" height="16" version="1.1" viewBox="0 0 16 16" xmlns="http://www.w3.org/2000/svg">
<defs>
<style id="current-color-scheme" type="text/css">.ColorScheme-Text { color:#5c616c; } .ColorScheme-Highlight { color:#5294e2; }</style>
</defs>
<path class="ColorScheme-Text" d="m1 1.0039v14h14v-14h-14zm2 2h10v4h-3.2773c-0.1704-0.2931-0.40859-0.53679-0.69922-0.71094-0.015-0.0090001-0.031875-0.016391-0.046875-0.025391-0.11932-0.0675-0.24601-0.12221-0.37891-0.16406-0.03825-0.012-0.075934-0.023453-0.11523-0.033203-0.15548-0.039-0.31495-0.066406-0.48242-0.066406s-0.32695 0.027406-0.48242 0.066406c-0.039 0.00975-0.076909 0.021203-0.11523 0.033203-0.1329 0.042-0.25958 0.096788-0.37891 0.16406-0.01575 9e-3 -0.031875 0.016391-0.046875 0.025391-0.29062 0.17415-0.52882 0.41784-0.69922 0.71094h-3.2773v-4zm0 6h3.2773c0.1704 0.2931 0.40859 0.53679 0.69922 0.71094 0.015 0.0089999 0.031875 0.018344 0.046875 0.027344 0.11932 0.0675 0.24601 0.12221 0.37891 0.16406 0.03825 0.012 0.075934 0.0215 0.11523 0.03125 0.15548 0.039 0.31495 0.068359 0.48242 0.068359s0.32695-0.029359 0.48242-0.068359c0.039-0.00975 0.076909-0.01925 0.11523-0.03125 0.1329-0.042 0.25958-0.096788 0.37891-0.16406 0.01575-9e-3 0.031875-0.018344 0.046875-0.027344 0.29062-0.17415 0.52882-0.41784 0.69922-0.71094h3.2773v4h-10v-4z" fill="#f1f6f8" fill-opacity=".85098"/>
</svg>
