<svg width="16" height="16" version="1.1" viewBox="0 0 16 16" xmlns="http://www.w3.org/2000/svg">
<defs>
<style id="current-color-scheme" type="text/css">.ColorScheme-Text { color:#5c616c; } .ColorScheme-Highlight { color:#5294e2; }</style>
</defs>
<path class="ColorScheme-Text" d="m3.8906 2a1.0001 1.0001 0 0 0-0.96094 0.72266l-2.8867 10a1.0001 1.0001 0 0 0 0.96094 1.2773h1.166a1.0001 1.0001 0 0 0 0.96289-0.73242l0.63086-2.2676h1.4805l0.63086 2.2676a1.0001 1.0001 0 0 0 0.96289 0.73242h1.166a1.0001 1.0001 0 0 0 0.5-0.13477 1.0001 1.0001 0 0 0 0.5 0.13477h1a1.0001 1.0001 0 0 0 0.66016-0.24805c0.42721 0.15285 0.87676 0.24742 1.3379 0.24805a1.0001 1.0001 0 0 0 0.001953 0c2.1973 0 4-1.8027 4-4s-1.8027-4-4-4a1.0001 1.0001 0 0 0-0.001953 0c-0.34402 4.7e-4 -0.67024 0.099297-0.99805 0.18555v-3.1855a1.0001 1.0001 0 0 0-1-1h-1a1.0001 1.0001 0 0 0-1 1v6.0879l-1.6777-6.3438a1.0001 1.0001 0 0 0-0.9668-0.74414h-1.4688zm0.66406 3 0.94922 4h-2l1.0508-4zm7.4492 3a2 2 0 0 1 2 2 2 2 0 0 1-2 2 2 2 0 0 1-2-2 2 2 0 0 1 2-2z" fill="currentColor" fill-opacity=".85098"/>
</svg>
