<svg width="16" height="16" version="1.1" viewBox="0 0 16 16" xmlns="http://www.w3.org/2000/svg">
<defs>
<style id="current-color-scheme" type="text/css">.ColorScheme-Text { color:#5c616c; } .ColorScheme-Highlight { color:#5294e2; }</style>
</defs>
<path class="ColorScheme-Text" d="m6.5 1c-0.5 0-0.5 0.5-0.5 0.5v8c0 0.5 0.5 0.5 0.5 0.5h9s0.5 0 0.5-0.5v-8c0-0.5-0.5-0.5-0.5-0.5h-9zm1.5 3h6v3.9961h-6v-3.9961zm-6.4805 2s-0.51953 0-0.51953 0.5v8c0 0.5 0.5 0.5 0.5 0.5h9s0.5-0.02328 0.5-0.5v-3.498h-2v2h-6v-4.002h2v-3h-3.4805z" fill="#f1f6f8" fill-opacity=".85098"/>
</svg>
