<svg xmlns="http://www.w3.org/2000/svg" viewBox="0 0 16 16">
<defs>
<style id="current-color-scheme" type="text/css">.ColorScheme-Text {
        color:#dedede;
      }
      .ColorScheme-ViewBackground {
        color:#fcfcfc;
      }</style>
</defs>
<g fill="currentColor">
<path class="ColorScheme-ViewBackground" d="m2 14v-1-5h1v5h5v-5h1v5h5v-5h1v5 1h-1-5-1-5-1zm0-7v-5h1v5h-1zm6 0v-5h1v5h-1zm6 0v-5h1v5h-1z" />
<path class="ColorScheme-Text" d="m2 2h13v-1h-13z" />
<path class="ColorScheme-Text" d="m14 13v-5h-5v5h5zm-6 0v-5h-5v5h5zm6-6v-5h-5v5h5zm-6 0v-5h-5v5h5z" fill-opacity=".5" />
</g>
</svg>
