<svg xmlns="http://www.w3.org/2000/svg" viewBox="0 0 16 16">
<defs>
<style id="current-color-scheme" type="text/css">.ColorScheme-Text {
        color:#dedede;
      }
      .ColorScheme-ViewBackground {
        color:#fcfcfc;
      }</style>
</defs>
<g fill="currentColor">
<path class="ColorScheme-ViewBackground" d="m15 1v1 5 1 5 1h-1-5-1-5-1v-1-5-1-5-1h1 5 1 5 1zm-1 1h-5v5h5v-5zm-6 0h-5v5h5v-5zm6 6h-5v5h5v-5zm-6 0h-5v5h5v-5z" />
<path class="ColorScheme-Text" d="m14.3 1-12.293 12.293v0.70703h0.70703l12.293-12.293v-0.70703h-0.70703z" />
<path class="ColorScheme-Text" d="m14 2v5h-5v-5h5zm-6 0v5h-5v-5h5zm6 6v5h-5v-5h5zm-6 0v5h-5v-5h5z" fill-opacity=".5" />
</g>
</svg>
