<svg width="16" height="16" version="1.1" viewBox="0 0 16 16" xmlns="http://www.w3.org/2000/svg">
<defs>
<style id="current-color-scheme" type="text/css">.ColorScheme-Text { color:#5c616c; } .ColorScheme-Highlight { color:#5294e2; }</style>
</defs>
<path class="ColorScheme-Text" d="m2.3398 0.9375-1.4063 1.4062 4.6934 4.6934c-0.76451 0.0884-1.4375 0.42763-1.8809 0.93164-0.5144 0.58479-0.75639 1.3106-0.75 2.0312 0.0059999 0.72062 0.26893 1.4528 0.78125 2.0312 0.51232 0.57854 1.3104 0.96875 2.2188 0.96875h5.5938l2.0625 2.0625 1.4062-1.4062-12.719-12.719zm4.0625 2.0625 2 2h1.5938c0.42816 0 1 0.61414 1 1v1h-0.59375l2.5938 2.5938v-3.5938c9e-5 -1.6343-1.3198-3-3-3h-3.5938zm-0.40625 6h1.5938l2 2h-3.5938c-0.39787 0-0.56691-0.10979-0.71875-0.28125-0.15184-0.17146-0.27877-0.43937-0.28125-0.71875-0.0020001-0.27938 0.10467-0.55354 0.25-0.71875 0.14533-0.16521 0.32764-0.28125 0.75-0.28125z" fill="#dedede" fill-opacity=".85098"/>
</svg>
