<svg width="16" height="16" version="1.1" viewBox="0 0 16 16" xmlns="http://www.w3.org/2000/svg">
<defs>
<style id="current-color-scheme" type="text/css">.ColorScheme-Text { color:#5c616c; } .ColorScheme-Highlight { color:#5294e2; }</style>
</defs>
<path class="ColorScheme-Text" d="m11.215 2-2.5 3h5l-2.5-3zm-7.3867 4-2.8281 8h1.1426l0.97461-2.2852h2.7227l0.875 2.2852h1.1426l-2.5918-8h-1.4375zm4.8867 0v8h4a2.2857 2.2857 0 0 0 2.2852-2.2852 2.2857 2.2857 0 0 0-1.5332-2.1543 2.2857 2.2857 0 0 0 0.39062-1.2754 2.2857 2.2857 0 0 0-2.2852-2.2852h-2.8574zm1.1426 1.1426h1.7148a1.1429 1.1429 0 0 1 1.1426 1.1426 1.1429 1.1429 0 0 1-1.1426 1.1426h-1.7148v-2.2852zm-5.3105 0.097656 1.0723 3.332h-2.2559l1.1836-3.332zm5.3105 3.332h2.8574a1.1429 1.1429 0 0 1 1.1426 1.1426 1.1429 1.1429 0 0 1-1.1426 1.1426h-2.8574v-2.2852z" fill="currentColor" fill-opacity=".85098"/>
</svg>
