<svg xmlns="http://www.w3.org/2000/svg" viewBox="0 0 16 16">
<defs>
<style id="current-color-scheme" type="text/css">.ColorScheme-Text {
        color:#dedede;
      }
      .ColorScheme-ViewBackground {
        color:#fcfcfc;
      }</style>
</defs>
<g fill="currentColor">
<path class="ColorScheme-ViewBackground" d="m-419.71 -530.79v1 5h1v-5h5v-1h-5-1zm7 0v1h5v5h1v-5-1h-1-5zm-7 7v5 1h1 5v-1h-5v-5h-1zm12 0v5h-5v1h5 1v-1-5h-1z" />
<path class="ColorScheme-Text" transform="translate(0 0)" d="m8 1v6h-6v1h6v6h1v-6h6v-1h-6v-6h-1z" />
<path class="ColorScheme-Text" d="m14 2v5h-5v-5h5zm-6 0v5h-5v-5h5zm6 6v5h-5v-5h5zm-6 0v5h-5v-5h5z" fill-opacity=".5" />
</g>
</svg>
