<svg xmlns="http://www.w3.org/2000/svg" viewBox="0 0 16 16">
<defs>
<style id="current-color-scheme" type="text/css">.ColorScheme-Text {
        color:#dedede;
      }
      .ColorScheme-ViewBackground {
        color:#fcfcfc;
      }</style>
</defs>
<g fill="currentColor">
<path class="ColorScheme-ViewBackground" d="m2 14h1 5v-1h-5v-5h5v-1h-5v-5h5v-1h-5-1v1 5 1 5 1zm7 0h5v-1h-5v1zm0-6h5v-1h-5v1zm0-6h5v-1h-5v1z" />
<path class="ColorScheme-Text" d="m14 14v-13h1v13z" />
<path class="ColorScheme-Text" d="m3 2h5v5h-5v-5zm0 6h5v5h-5v-5zm6-6h5v5h-5v-5zm0 6h5v5h-5v-5z" fill-opacity=".5" />
</g>
</svg>
