<svg width="16" height="16" version="1.1" viewBox="0 0 16 16" xmlns="http://www.w3.org/2000/svg">
<defs>
<style id="current-color-scheme" type="text/css">.ColorScheme-Text { color:#5c616c; } .ColorScheme-Highlight { color:#5294e2; }</style>
</defs>
<path class="ColorScheme-Text" d="m11 0v6h3c1.108 0 2-0.892 2-2 0-0.8109-0.48088-1.5019-1.1719-1.8164 0.106-0.2059 0.17188-0.43529 0.17188-0.68359 0-0.831-0.669-1.5-1.5-1.5h-2.5zm-4 1-5 14h2.5l1.0625-3h4.875l1.0625 3h2.7812l-5.2812-14h-2zm5 0h1.5c0.277 0 0.5 0.223 0.5 0.5s-0.223 0.5-0.5 0.5h-1.5v-1zm0 2h2c0.554 0 1 0.446 1 1s-0.446 1-1 1h-2v-2zm-4 2 1.75 5h-3.5l1.75-5z" fill="#dedede" fill-opacity=".85098"/>
</svg>
