<svg xmlns="http://www.w3.org/2000/svg" viewBox="0 0 16 16">
<defs>
<style id="current-color-scheme" type="text/css">.ColorScheme-Text {
        color:#dedede;
      }
      .ColorScheme-ViewBackground {
        color:#fcfcfc;
      }</style>
</defs>
<g fill="currentColor">
<path class="ColorScheme-ViewBackground" d="m15 1h-1-5v1h5v5h-5v1h5v5h-5v1h5 1v-1-5-1-5-1zm-7 0h-5v1h5v-1zm0 6h-5v1h5v-1zm0 6h-5v1h5v-1z" />
<path class="ColorScheme-Text" d="m3 1v13h-1v-13z" />
<path class="ColorScheme-Text" d="m14 13h-5v-5h5v5zm0-6h-5v-5h5v5zm-6 6h-5v-5h5v5zm0-6h-5v-5h5v5z" fill-opacity=".5" />
</g>
</svg>
