<svg width="16" height="16" version="1.1" viewBox="0 0 16 16" xmlns="http://www.w3.org/2000/svg">
<defs>
<style id="current-color-scheme" type="text/css">.ColorScheme-Text { color:#5c616c; } .ColorScheme-Highlight { color:#5294e2; }</style>
</defs>
<path d="m4.5 1a2.5 2.5 0 0 0-2.5 2.5 2.5 2.5 0 0 0 2 2.4492v4.1055a2.5 2.5 0 0 0-2 2.4453 2.5 2.5 0 0 0 2.5 2.5 2.5 2.5 0 0 0 2.5-2.5 2.5 2.5 0 0 0-2-2.4492v-4.1055a2.5 2.5 0 0 0 0.87695-0.36133l3.5391 3.5391a2.5 2.5 0 0 0-0.41602 1.377 2.5 2.5 0 0 0 2.5 2.5 2.5 2.5 0 0 0 2.5-2.5 2.5 2.5 0 0 0-2.5-2.5 2.5 2.5 0 0 0-1.377 0.41602l-3.5391-3.5391a2.5 2.5 0 0 0 0.41602-1.377 2.5 2.5 0 0 0-2.5-2.5z" fill="#dedede" fill-opacity=".85098"/>
</svg>
