<svg width="16" height="16" enable-background="new" version="1.1" xmlns="http://www.w3.org/2000/svg" xmlns:osb="http://www.openswatchbook.org/uri/2009/osb">
<defs>
<style id="current-color-scheme" type="text/css">.ColorScheme-Text {
        color:#bebebe;
      }</style>
</defs>
<g transform="translate(-361 -29)">
<g transform="matrix(.75 0 0 -.75 116.25 446.02)">
<g transform="matrix(-1.0825 0 0 -1.0825 348.79 1673)">
<g transform="matrix(.00011827 .032712 -.032712 .00011827 18.269 1034.4)">
<path d="m345.44 248.29-194.29 194.28c-12.359 12.365-32.397 12.365-44.75 0-12.354-12.354-12.354-32.391 0-44.744l171.91-171.91-171.91-171.9c-12.354-12.359-12.354-32.394 0-44.748 12.354-12.359 32.391-12.359 44.75 0l194.29 194.28c6.177 6.18 9.262 14.271 9.262 22.366 0 8.099-3.091 16.196-9.267 22.373z" class="ColorScheme-Text" fill="currentColor"/>
</g>
</g>
</g>
</g>
</svg>
