<svg width="16" height="16" version="1.1" viewBox="0 0 16 16" xmlns="http://www.w3.org/2000/svg">
<defs>
<style id="current-color-scheme" type="text/css">.ColorScheme-Text { color:#5c616c; } .ColorScheme-Highlight { color:#5294e2; }</style>
</defs>
<path class="ColorScheme-Text" d="m5 2.0293-4 1 5 1 4-1-5-1zm8 0-2 2 2 2v-1.2852c0.62441 0.94312 1 2.0638 1 3.2852 0 3.324-2.676 5-6 5v1c3.878 0 7-2.122 7-6 0-1.9091-0.76768-3.6239-2-4.8828v-1.1172zm-12 2v5l4 1v-5l-4-1zm9 0-4 1v5l4-1v-5z" fill="currentColor" fill-opacity=".85098"/>
</svg>
