<svg width="16" height="16" version="1.1" viewBox="0 0 16 16" xmlns="http://www.w3.org/2000/svg">
<defs>
<style id="current-color-scheme" type="text/css">.ColorScheme-Text { color:#5c616c; } .ColorScheme-Highlight { color:#5294e2; }</style>
</defs>
<path class="ColorScheme-Text" d="m12.949 1.6367-1.875 1.875c-0.612-0.2185-1.2467-0.37711-1.8984-0.44141-0.3899-0.0455-0.78328-0.066406-1.1758-0.066406-1.5508 0.0151-3.1121 0.36937-4.4629 1.1348-0.5384 0.3506-1.1847 0.80357-1.6719 1.2598-0.7665 0.7505-1.4225 1.626-1.8652 2.6055 0.65287 1.4399 1.7336 2.6611 3.043 3.5391l-1.4062 1.4062 1.4141 1.4141 1.8691-1.8691c0.6141 0.22 1.2507 0.37836 1.9043 0.44336 1.9274 0.218 3.9447-0.11436 5.6387-1.0684 0.538-0.35 1.1849-0.80277 1.6719-1.2598 0.766-0.75 1.4222-1.626 1.8652-2.6055-0.654-1.4414-1.7359-2.6648-3.0469-3.543l1.4102-1.4102-1.4141-1.4141zm-4.9492 3.3672c0.4529-0.0099999 0.88595 0.10618 1.2812 0.30078l-3.9688 3.9688c-0.3217-0.6667-0.42518-1.4358-0.17578-2.1562 0.3692-1.2294 1.5758-2.1286 2.8633-2.1133zm2.6953 1.7148c0.196 0.397 0.31369 0.83256 0.30469 1.2852 0.052 1.7664-1.709 3.2909-3.4492 2.9609-0.2993-0.035-0.57539-0.13667-0.83789-0.26367l1.9316-1.9336a1 1 0 0 0 0.035156-0.033203l0.037109-0.035156a1 1 0 0 0 0.017578-0.019531l1.9609-1.9609z" fill="currentColor" fill-opacity=".85098"/>
</svg>
