<svg width="16" height="16" version="1.1" viewBox="0 0 16 16" xmlns="http://www.w3.org/2000/svg">
<defs>
<style id="current-color-scheme" type="text/css">.ColorScheme-Text { color:#5c616c; } .ColorScheme-Highlight { color:#5294e2; }</style>
</defs>
<path class="ColorScheme-Text" d="m8 0c-2.2091-5.5e-6 -4 1.7909-4 4 1.66e-5 2.2091 1.7909 4 4 4 2.2091 6e-6 4-1.7909 4-4s-1.791-4-4-4zm0 8.9863c-4.028 0.0048-7.4965 3.0177-8 7.0137h9.7129c-1.0343-0.827-1.7129-2.082-1.7129-3.5 0-1.403 0.66534-2.6592 1.6816-3.4863-0.7385-0.0145-1.4943-0.025944-1.6816-0.027344z" fill="#f1f6f8" fill-opacity=".85098"/>
<path class="ColorScheme-Highlight" d="m12.5 9a3.5 3.5 0 0 0-3.5 3.5 3.5 3.5 0 0 0 3.5 3.5 3.5 3.5 0 0 0 3.5-3.5 3.5 3.5 0 0 0-3.5-3.5zm-1.4141 1.3789 1.4141 1.4141 1.4141-1.4141 0.70703 0.70703-1.4141 1.4141 1.4141 1.4141-0.70703 0.70703-1.4141-1.4141-1.4141 1.4141-0.70703-0.70703 1.4141-1.4141-1.4141-1.4141 0.70703-0.70703z" fill="currentColor"/>
</svg>
