<svg width="16" height="16" version="1.1" viewBox="0 0 16 16" xmlns="http://www.w3.org/2000/svg">
<defs>
<style id="current-color-scheme" type="text/css">.ColorScheme-Text { color:#5c616c; } .ColorScheme-Highlight { color:#5294e2; }</style>
</defs>
<path class="ColorScheme-Text" d="m9 2c-0.9168 1e-3 -1.8102 0.29295-2.3555 0.96875-0.5452 0.6757-0.69908 1.5036-0.76758 2.4629-0.0338 0.4727-0.043662 0.99446-0.039062 1.5684h-0.83789c-0.554 0-1 0.446-1 1s0.446 1 1 1h0.88867c0.0477 1.398 0.11133 3.043 0.11133 5a1.0001 1.0001 0 1 0 2 0c0-1.962-0.056262-3.619-0.10156-5h1.1016c0.554 0 1-0.446 1-1s-0.446-1-1-1h-1.1543c-0.0068-0.5528-0.0010562-1.028 0.027344-1.4258 0.0565-0.7906 0.21702-1.212 0.32812-1.3496 0.111-0.1376 0.21738-0.22391 0.80078-0.22461a1.0001 1.0001 0 1 0-0.0019531-2z" fill="currentColor" fill-opacity=".85098"/>
</svg>
