<svg width="16" height="16" version="1.1" viewBox="0 0 16 16" xmlns="http://www.w3.org/2000/svg">
<defs>
<style id="current-color-scheme" type="text/css">.ColorScheme-Text { color:#5c616c; } .ColorScheme-Highlight { color:#5294e2; }</style>
</defs>
<path class="ColorScheme-Text" d="m11.078 1c-1.8128 0-3.2832 1.5814-3.2832 3.5332 0 0.277 0.029936 0.54799 0.085938 0.80664-2.7282-0.14745-5.1485-1.5552-6.7676-3.6934-0.28256 0.52197-0.44336 1.1296-0.44336 1.7773 0 1.2262 0.57817 2.3077 1.459 2.9414-0.53809-0.018353-1.0438-0.17673-1.4863-0.44141-3.8095e-4 0.014737 0 0.028066 0 0.042969 0 1.7123 1.1312 3.1417 2.6328 3.4668-0.27545 0.080791-0.56588 0.12305-0.86523 0.12305-0.21153 0-0.41671-0.021328-0.61719-0.0625 0.41776 1.4041 1.6299 2.4246 3.0664 2.4531-1.1235 0.94798-2.5382 1.5137-4.0762 1.5137-0.26496 0-0.5264-0.016184-0.7832-0.048829 1.4528 1.0029 3.1773 1.5879 5.0312 1.5879 6.038 0 9.3398-5.3861 9.3398-10.057 0-0.15323-0.001477-0.30535-0.007813-0.45703 0.64129-0.4982 1.1966-1.1213 1.6367-1.8301-0.58866 0.28114-1.2208 0.4712-1.8848 0.55664 0.67769-0.43739 1.1983-1.1298 1.4434-1.9551-0.63434 0.40509-1.3362 0.69894-2.084 0.85742-0.59874-0.68692-1.4523-1.1152-2.3965-1.1152z" fill="#f1f6f8" fill-opacity=".85098"/>
</svg>
