<svg width="16" height="16" version="1.1" viewBox="0 0 16 16" xmlns="http://www.w3.org/2000/svg">
<defs>
<style id="current-color-scheme" type="text/css">.ColorScheme-Text { color:#5c616c; } .ColorScheme-Highlight { color:#5294e2; }</style>
</defs>
<path class="ColorScheme-Text" d="m2.8438 1.0059c-0.2811 0.0437-0.84375 0.23389-0.84375 0.93359v4.5605h11.99c-1e-3 -0.6953 1e-3 -1.313 0-1.7617l-3.9961-3.7324h-6.9941s-0.06255-0.01459-0.15625 0zm-1.8438 5.9941v1h1v-1h-1zm2 0v1h1v-1h-1zm2 0v1h1v-1h-1zm2 0v1h1v-1h-1zm2 0v1h1v-1h-1zm2 0v1h1v-1h-1zm2 0v1h1v-1h-1zm2 0v1h1v-1h-1zm-13 2.5v4.5664c0 0.933 1 0.93359 1 0.93359h9.9902c0.999 0 1-0.93359 1-0.93359 9e-3 -0.021 2e-3 -2.5924 0-4.5664h-11.99z" fill="currentColor" fill-opacity=".85098"/>
</svg>
