<svg width="16" height="16" version="1.1" viewBox="0 0 16 16" xmlns="http://www.w3.org/2000/svg">
<defs>
<style id="current-color-scheme" type="text/css">.ColorScheme-Text { color:#5c616c; } .ColorScheme-Highlight { color:#5294e2; }</style>
</defs>
<path class="ColorScheme-Text" d="m8 0.99805c-3.866 0-7 3.134-7 7 0 3.866 3.134 7 7 7s7-3.134 7-7c0-3.866-3.134-7-7-7zm-3 4.0039c0.55407 0 1 0.44945 1 1 0 0.55064-0.44593 1-1 1-0.55424 0-1-0.44936-1-1 0-0.55055 0.44576-1 1-1zm6 0c0.55415 0 1 0.44945 1 1 0 0.55064-0.44585 1-1 1-0.55407 0-1-0.44936-1-1 0-0.55055 0.44593-1 1-1zm-6.9922 5h7.9844c-0.94262 1.2568-2.4212 1.9975-3.9922 2-1.571-2e-3 -3.0496-0.74317-3.9922-2z" fill="currentColor" fill-opacity=".85098"/>
</svg>
