<svg width="16" height="16" version="1.1" viewBox="0 0 16 16" xmlns="http://www.w3.org/2000/svg">
<defs>
<style id="current-color-scheme" type="text/css">.ColorScheme-Text { color:#5c616c; } .ColorScheme-Highlight { color:#5294e2; }</style>
</defs>
<path class="ColorScheme-Text" d="m2 0c-1.108 0-2 0.892-2 2v12c0 1.108 0.892 2 2 2h12c1.108 0 2-0.892 2-2v-12c0-1.108-0.892-2-2-2h-12zm1.7148 2h8.5703c0.95 0 1.7148 0.76514 1.7148 1.7148v8.5703c0 0.95-0.76484 1.7148-1.7148 1.7148h-8.5703c-0.9497 0-1.7148-0.76484-1.7148-1.7148v-8.5703c0-0.9497 0.76514-1.7148 1.7148-1.7148zm3.0254 1-0.11133 1.3164a3.964 3.9286 0 0 0-1.1582 0.66406l-1.209-0.5625-1.2598 2.1641 1.0957 0.75586a3.964 3.9286 0 0 0-0.060547 0.66211 3.964 3.9286 0 0 0 0.058594 0.66602l-1.0938 0.75195 1.2598 2.1641 1.2051-0.5625a3.964 3.9286 0 0 0 1.1621 0.66016l0.11133 1.3203h2.5215l0.11133-1.3164a3.964 3.9286 0 0 0 1.1582-0.66406l1.209 0.5625 1.2617-2.1641-1.0977-0.75586a3.964 3.9286 0 0 0 0.060547-0.66211 3.964 3.9286 0 0 0-0.056641-0.66602l1.0938-0.75195-1.2617-2.1641-1.2051 0.5625a3.964 3.9286 0 0 0-1.1621-0.66016l-0.11133-1.3203h-2.5215zm1.2617 3.5723a1.4414 1.4286 0 0 1 1.4414 1.4277 1.4414 1.4286 0 0 1-1.4414 1.4277 1.4414 1.4286 0 0 1-1.4414-1.4277 1.4414 1.4286 0 0 1 1.4414-1.4277z" fill="#f1f6f8" fill-opacity=".85098"/>
</svg>
