<svg width="16" height="16" version="1.1" viewBox="0 0 16 16" xmlns="http://www.w3.org/2000/svg">
<defs>
<style id="current-color-scheme" type="text/css">.ColorScheme-Text { color:#5c616c; } .ColorScheme-Highlight { color:#5294e2; }</style>
</defs>
<path class="ColorScheme-Text" d="m13.18 0c-0.0904 8.95e-4 -0.14844 0.03125-0.14844 0.03125l-11.252 2.0742c-0.93797 0.17456-0.77344 1.1621-0.77344 1.1621l0.45117 2.7324h2.9453l1.0723-1.9473 2.3223 1.9473h2.2012l0.86328-1.2246 1.668 1.2246h2.4688l-0.86328-5.1504c-0.12404-0.74246-0.67962-0.85034-0.95117-0.84766l-0.003906-0.0019531zm-12.18 7v1h1v-1h-1zm2 0v1h1v-1h-1zm2 0v1h1v-1h-1zm2 0v1h1v-1h-1zm2 0v1h1v-1h-1zm2 0v1h1v-1h-1zm2 0v1h1v-1h-1zm2 0v1h1v-1h-1zm-13.998 2v2.9082h2.8164l4.0918 4.0918v-7h-6.9082zm8.9082 0v3c1.07-0.58 1.7891-1.7 1.7891-3h-1.7891zm4 0c0 2.57-1.68 4.76-4 5.5v1.5c3.15-0.78 5.5-3.6 5.5-7h-1.5z" fill="#f1f6f8" fill-opacity=".85098"/>
</svg>
