<svg width="16" height="16" version="1.1" viewBox="0 0 16 16" xmlns="http://www.w3.org/2000/svg">
<defs>
<style id="current-color-scheme" type="text/css">.ColorScheme-Text { color:#5c616c; } .ColorScheme-Highlight { color:#5294e2; }</style>
</defs>
<path class="ColorScheme-Text" d="m1 1.0156v14h14v-14h-14zm3.4336 5.834h2.3242c0.056 0 0.089116 0.024425 0.10156 0.074219l2.0449 6.0859c0.012446 0.031127 0.0089012 0.062483-0.0097657 0.09375-0.018667 0.031267-0.050196 0.046875-0.09375 0.046875h-1.8945c-0.018667 0-0.041523-0.006932-0.066406-0.019532-0.018667-0.018666-0.030889-0.039715-0.037109-0.064453l-0.4375-1.4004h-1.5879c-0.056 0.23646-0.1171 0.47257-0.18555 0.70898-0.062221 0.23026-0.12173 0.46118-0.17773 0.69141-0.012133 0.056001-0.048794 0.083985-0.11133 0.083985h-1.793c-0.043554 0-0.075083-0.015608-0.09375-0.046875-0.018667-0.031127-0.020259-0.062483-0.0078125-0.09375l1.9238-6.0859c0.012134-0.049934 0.045562-0.074219 0.10156-0.074219zm1.0918 1.625c-0.0062207 0.03108-0.014898 0.067928-0.027344 0.11133-0.0062254 0.04354-0.013311 0.080057-0.019531 0.11133-0.024888 0.10579-0.051284 0.20905-0.076172 0.30859-0.024888 0.093334-0.050918 0.18245-0.082031 0.26953h0.0078125c-0.043554 0.18046-0.08376 0.33613-0.12109 0.4668-0.037334 0.13067-0.08108 0.28638-0.13086 0.4668h0.98047c-0.04978-0.15554-0.097071-0.31121-0.14062-0.4668-0.043554-0.16175-0.088892-0.31746-0.13867-0.4668-0.031113-0.099541-0.069727-0.20441-0.11328-0.31641-0.037334-0.112-0.07045-0.22038-0.10156-0.32617l0.0097656 0.0097656c-0.012446-0.043447-0.023076-0.070105-0.029297-0.076172 0-0.0126 0.0035449-0.017578 0.0097656-0.017578l-0.0097656-0.0097656c0-0.012413-0.0051321-0.033186-0.017578-0.064453zm5.1543 3.2754a0.7 0.7 0 0 1 0.70117 0.69922 0.7 0.7 0 0 1-0.70117 0.70117 0.7 0.7 0 0 1-0.69922-0.70117 0.7 0.7 0 0 1 0.69922-0.69922zm2.2207 0a0.7 0.7 0 0 1 0.69922 0.69922 0.7 0.7 0 0 1-0.69922 0.70117 0.7 0.7 0 0 1-0.70117-0.70117 0.7 0.7 0 0 1 0.70117-0.69922z" fill="#dedede" fill-opacity=".85098"/>
</svg>
