<svg width="16" height="16" version="1.1" viewBox="0 0 16 16" xmlns="http://www.w3.org/2000/svg">
<defs>
<style id="current-color-scheme" type="text/css">.ColorScheme-Text { color:#5c616c; } .ColorScheme-Highlight { color:#5294e2; }</style>
</defs>
<path class="ColorScheme-Text" d="m2 2a1.0001 1.0001 0 0 0-1 1v1a1.0001 1.0001 0 0 0 1 1h3v6h-3a1.0001 1.0001 0 0 0-1 1v1a1.0001 1.0001 0 0 0 1 1h5a1.0001 1.0001 0 0 0 1-1v-3h2v2l5-4-5-4v2h-2v-3a1.0001 1.0001 0 0 0-1-1h-5z" fill="#f1f6f8" fill-opacity=".85098"/>
</svg>
