<svg width="16" height="16" version="1.1" viewBox="0 0 16 16" xmlns="http://www.w3.org/2000/svg">
<defs>
<style id="current-color-scheme" type="text/css">.ColorScheme-Text { color:#5c616c; } .ColorScheme-Highlight { color:#5294e2; }</style>
</defs>
<path class="ColorScheme-Text" d="m15.811 0c-0.33111-0.029-1.3315 0.33673-1.6816 0.55273-0.78299 0.3652-2.1936 1.1089-3.8613 2.4434 0.11437 0.081 0.22715 0.17192 0.33594 0.26562 1.5907-1.174 2.6975-1.6037 3.043-1.1387 0.32403 0.4362-0.25434 1.508-1.3633 2.9238a5.0063 5.4049 0 0 0-4.875-2.4531 5.0063 5.4049 0 0 0-4.3047 6.0684 5.0063 5.4049 0 0 0 0.33594 1.3457c-1.8811 2.4301-3.8297 5.1972-3.3711 5.8145 0.49605 0.6678 3.2262-0.64183 6.127-2.8613a5.0063 5.4049 0 0 0 2.5312 0.34766 5.0063 5.4049 0 0 0 4.3027-6.0684 5.0063 5.4049 0 0 0-0.23047-1.0352c2.16-2.8602 3.585-5.5277 3.1094-6.168-0.01616-0.022-0.050346-0.033109-0.097656-0.037109zm-12.188 10.432a5.0063 5.4049 0 0 0 1.5273 1.9043c-1.4638 1.1876-2.5407 1.7568-2.8809 1.2988-0.33758-0.4545 0.20353-1.5861 1.3535-3.2031z" fill="currentColor" fill-opacity=".85098"/>
</svg>
