<svg width="16" height="16" version="1.1" viewBox="0 0 16 16" xmlns="http://www.w3.org/2000/svg">
<defs>
<style id="current-color-scheme" type="text/css">.ColorScheme-Text { color:#5c616c; } .ColorScheme-Highlight { color:#5294e2; }</style>
</defs>
<path class="ColorScheme-Text" d="m8-0.050781v0.050781a8 8 0 0 0-8 8 8 8 0 0 0 1.3848 4.498 1.5 1.5 0 0 0-0.18359 0.25195 1.5 1.5 0 0 0 0.54883 2 1.5 1.5 0 0 0 1.7578-0.19922 8 8 0 0 0 4.4922 1.3984 8 8 0 0 0 8-8 8 8 0 0 0-8-8zm0 1.0508a7 7 0 0 1 7 7 7 7 0 0 1-7 7 7 7 0 0 1-4.0176-1.2715 1.5 1.5 0 0 0-0.73242-1.5 1.5 1.5 0 0 0-0.97266-0.19922 7 7 0 0 1-1.2773-4 7 7 0 0 1 7-7v-0.029297zm0 2a5 5 0 0 0-5 5 5 5 0 0 0 5 5 5 5 0 0 0 3.0723-1.0625 1.5 1.5 0 0 0 1.7266-0.6875 1.5 1.5 0 0 0-0.078125-1.6191 5 5 0 0 0 0.2793-1.6309 5 5 0 0 0-5-5zm0 1a4 4 0 0 1 4 4 4 4 0 0 1-0.14258 1.043 1.5 1.5 0 0 0-1.6562 0.70703 1.5 1.5 0 0 0 0.037109 1.5605 4 4 0 0 1-2.2383 0.69922 4 4 0 0 1-4-4 4 4 0 0 1 4-4v-0.0097656zm0 2a2 2 0 0 0-2 2 2 2 0 0 0 2 2 2 2 0 0 0 2-2 2 2 0 0 0-2-2z" fill="currentColor" fill-opacity=".85098"/>
</svg>
