<svg width="16" height="16" version="1.1" viewBox="0 0 16 16" xmlns="http://www.w3.org/2000/svg">
<defs>
<style id="current-color-scheme" type="text/css">.ColorScheme-Text { color:#5c616c; } .ColorScheme-Highlight { color:#5294e2; }</style>
</defs>
<path class="ColorScheme-Text" d="m11-0.13867v0.13867l-5.2637 7.1777a4.5 4.5 0 0 1 0.44922 0.15625c-0.52131-0.2111-1.0885-0.33398-1.6855-0.33398-1.193 0-2.3367 0.47611-3.1797 1.3203a4.5 4.5 0 0 0-0.62695 0.78711l2.0938 2.0938-1.3965 1.9043a3.5 3.5 0 0 0 1.5059 1.502l1.9023-1.3945 2.0957 2.0957a4.5 4.5 0 0 0 0.78516-0.62891c0.84419-0.843 1.3191-1.9867 1.3203-3.1797 1e-6 -0.5812-0.11969-1.1326-0.32031-1.6426a4.5 4.5 0 0 1 0.14453 0.4043l7.1758-5.4004-5-5zm-8.0859 0.22461-2.8281 2.8301 3.6719 3.6699 2.8281-2.8281-3.6719-3.6719zm9.3281 9.3281-2.8281 2.8301 3.6719 3.6719 2.8281-2.8301-3.6719-3.6719zm-11.494 4.5-0.74805 1.0996 1 1 1.0195-0.74805a4.5 4.5 0 0 1-1.2715-1.2715v-0.080079z" fill="currentColor" fill-opacity=".85098"/>
</svg>
