<svg width="16" height="16" version="1.1" viewBox="0 0 16 16" xmlns="http://www.w3.org/2000/svg">
<defs>
<style id="current-color-scheme" type="text/css">.ColorScheme-Text { color:#5c616c; } .ColorScheme-Highlight { color:#5294e2; }</style>
</defs>
<path class="ColorScheme-Text" d="m3.9004 0c-2.7614 0-3.9004 2.2386-3.9004 5v6c0 2.7614 1.139 5 3.9004 5s3.5996-2.2386 3.5996-5v-6c0-2.7614-0.83819-5-3.5996-5zm0 1c2.2091 0 2.5996 1.7909 2.5996 4v6c0 2.2091-0.39048 4-2.5996 4s-2.9004-1.7909-2.9004-4v-6c0-2.2091 0.69124-4 2.9004-4zm11.1 3v1h1v-1h-1zm-6 3v9h1v-6c0-1.1046 0.89543-2 2-2s1 0.8954 1 2h1c0-1.6569-0.34315-3-2-3-0.73841 1e-3 -1.4505 0.27428-2 0.76758v-0.76758h-1zm6 0v9h1v-9h-1z" fill="#f1f6f8" fill-opacity=".85098"/>
</svg>
