<svg width="16" height="16" version="1.1" viewBox="0 0 16 16" xmlns="http://www.w3.org/2000/svg">
<defs>
<style id="current-color-scheme" type="text/css">.ColorScheme-Text { color:#5c616c; } .ColorScheme-Highlight { color:#5294e2; }</style>
</defs>
<path class="ColorScheme-Text" d="m6 2c-3.866 0-6 2.6799-6 5.9844 0 3.3046 2.134 5.7656 6 5.7656-3.2217 0-4.834-3.0117-4.834-5.7656-2.55e-5 -2.7539 1.6123-4.9883 4.834-4.9883 1.4561 0 2.7709 0.47442 3.793 1.2285-0.57178-0.174-1.1796-0.26392-1.793-0.26562-2.7614 0-5 1.753-5 3.916v0.0097656c0.00102 0.106 0.0075402 0.21276 0.019531 0.31836 0.19295 3.2303 3.239 5.7988 6.9805 5.7988 3.866 0 6-2.7418 6-6.123 0-3.3813-2.134-5.877-6-5.877 3.2217 0 4.834 3.0573 4.834 5.875 2.6e-5 2.8177-1.6123 5.1016-4.834 5.1016-1.6725 0-3.1766-0.61917-4.2402-1.6055 0.69502 0.2741 1.4621 0.41697 2.2402 0.41797 2.705 0 4.9169-1.6886 4.9922-3.8066h0.007812c0-0.019-0.003706-0.039594-0.003906-0.058594 0.0014-0.017 0.002706-0.033781 0.003906-0.050781-0.0017-0.1336-0.01214-0.26769-0.03125-0.40039-0.30259-3.066-3.3036-5.4746-6.9688-5.4746z" fill="#dedede" fill-opacity=".85098"/>
</svg>
