<svg width="16" height="16" version="1.1" viewBox="0 0 16 16" xmlns="http://www.w3.org/2000/svg">
<defs>
<style id="current-color-scheme" type="text/css">.ColorScheme-Text { color:#5c616c; } .ColorScheme-Highlight { color:#5294e2; }</style>
</defs>
<path class="ColorScheme-Text" d="m13.52 2.0039c-0.8178 0-1.5254 0.72326-1.5234 1.5234-2e-3 0.80023 0.70568 1.4766 1.5234 1.4766 0.81779 0 1.4785-0.67629 1.4766-1.4766 2e-3 -0.80022-0.65873-1.5234-1.4766-1.5234zm-7 1c-0.8178 0-1.5254 0.72326-1.5234 1.5234-2e-3 0.80023 0.70568 1.4766 1.5234 1.4766 0.81779 0 1.4785-0.67629 1.4766-1.4766 0.0019999-0.80022-0.65873-1.5234-1.4766-1.5234zm-5 4c-0.8178 0-1.5254 0.72326-1.5234 1.5234-2e-3 0.80023 0.70568 1.4766 1.5234 1.4766 0.64748 0 1.1911-0.42615 1.3906-1h13.086v-1h-13.1c-0.21058-0.56611-0.74444-1-1.377-1zm13 3c-0.8178 0-1.5254 0.72326-1.5234 1.5234-2e-3 0.80023 0.70568 1.4766 1.5234 1.4766 0.81779 0 1.4785-0.67629 1.4766-1.4766 2e-3 -0.80022-0.65873-1.5234-1.4766-1.5234zm-5.5 1c-0.8178 0-1.5254 0.72326-1.5234 1.5234-2e-3 0.80023 0.70568 1.4766 1.5234 1.4766 0.81779 0 1.4785-0.67629 1.4766-1.4766 2e-3 -0.80022-0.65873-1.5234-1.4766-1.5234z" fill="#dedede" fill-opacity=".85098"/>
</svg>
