<svg width="16" height="16" version="1.1" viewBox="0 0 16 16" xmlns="http://www.w3.org/2000/svg">
<defs>
<style id="current-color-scheme" type="text/css">.ColorScheme-Text { color:#5c616c; } .ColorScheme-Highlight { color:#5294e2; }</style>
</defs>
<path class="ColorScheme-Text" d="m8 1a7 7 0 0 0-7 7 7 7 0 0 0 7 7 7 7 0 0 0 7-7 7 7 0 0 0-7-7zm0 2a5 5 0 0 1 5 5 5 5 0 0 1-5 5 5 5 0 0 1-5-5 5 5 0 0 1 5-5zm0.095703 1c-2.2091 0-4 1.7909-4 4s1.7909 4 4 4c2.2091 0 4-1.7909 4-4-1e-3 -2.0748-1.5892-3.8041-3.6562-3.9824-0.43945-0.0176-0.34375-0.017578-0.34375-0.017578zm0 1c1.6569 0 3 1.3432 3 3s-1.3431 3-3 3c-1.6568 0-3-1.3432-3-3s1.3432-3 3-3zm0 1c-1.108 0-2 0.892-2 2s0.892 2 2 2 2-0.892 2-2c0-0.20481-0.039003-0.3982-0.095703-0.58398-0.15788 0.34371-0.49998 0.58398-0.9043 0.58398-0.554 0-1-0.446-1-1 0-0.40432 0.24026-0.74641 0.58398-0.9043-0.18578-0.0567-0.37917-0.095703-0.58398-0.095703z" fill="currentColor" fill-opacity=".85098"/>
</svg>
