<svg width="16" height="16" version="1.1" viewBox="0 0 16 16" xmlns="http://www.w3.org/2000/svg">
<defs>
<style id="current-color-scheme" type="text/css">.ColorScheme-Text { color:#5c616c; } .ColorScheme-Highlight { color:#5294e2; }</style>
</defs>
<path class="ColorScheme-Text" d="m8 1c-3.8541 0-7 3.1458-7 7 0 3.854 3.1459 7 7 7 3.854 0 7-3.146 7-7 0-3.8542-3.146-7-7-7zm3.5352 3.4668c0.03906 0.041673 0.077625 0.083966 0.11524 0.12695 0.137 0.1468 0.26481 0.30204 0.38281 0.46484 0.06898 0.093384 0.13495 0.18915 0.19727 0.28711 0.109 0.1731 0.20502 0.35432 0.29102 0.54102 0.03868 0.077171 0.074735 0.1553 0.10938 0.23438l0.007813 0.023437c0.087 0.2189 0.15494 0.44669 0.21094 0.67969 0.02646 0.10018 0.050123 0.2011 0.070313 0.30273 0.02825 0.16423 0.048827 0.32986 0.060547 0.49609 9e-3 0.11049 0.013975 0.22118 0.015625 0.33203 0 0.0156 0.003906 0.029222 0.003906 0.044922 0 0.0107-0.001953 0.02065-0.001953 0.03125-0.0021 0.079517-0.005819 0.15895-0.011719 0.23828-5e-3 0.094-0.008578 0.1868-0.017578 0.2793-1e-3 0.0032 0 0.0065655 0 0.0097657l-0.001953 0.013672c-3e-3 0.029-0.009672 0.057138-0.013672 0.085938v0.0019531c-0.017 0.1271-0.038453 0.2511-0.064453 0.375-0.0089 0.035234-0.017624 0.070438-0.027344 0.10547-0.053 0.2305-0.12498 0.45322-0.20898 0.66992-0.0069 0.020245-0.014355 0.040392-0.021485 0.060547-0.015 0.0357-0.026015 0.072122-0.041015 0.10742-0.01853 0.037403-0.037181 0.074401-0.056641 0.11133-0.085 0.186-0.18206 0.36411-0.28906 0.53711-0.02282 0.03865-0.046463 0.077214-0.070313 0.11524-0.017 0.025-0.029875 0.053125-0.046875 0.078124-0.02684 0.03637-0.054211 0.071792-0.082031 0.10742-0.13 0.179-0.26792 0.35172-0.41992 0.51172-0.02891 0.03238-0.058141 0.064083-0.087891 0.095703-0.04103 0.03837-0.0827 0.076321-0.125 0.11328-0.152 0.143-0.31342 0.27448-0.48242 0.39648-0.034991 0.02646-0.069799 0.052595-0.10547 0.078125-0.013 9e-3 -0.027016 0.020297-0.041016 0.029297-0.04523 0.02806-0.090619 0.055431-0.13672 0.082031-0.172 0.108-0.35206 0.20502-0.53906 0.29102-0.03151 0.01533-0.063883 0.030252-0.095703 0.044921-0.0333 0.015001-0.064256 0.034829-0.097656 0.048829-0.01368 0.0047-0.027296 0.009073-0.041016 0.013671-0.246 0.099002-0.50162 0.17733-0.76562 0.23633l-0.03125 0.007812c-0.0428 9e-3 -0.083753 0.021297-0.12695 0.029297-0.053887 0.0096-0.10794 0.017611-0.16211 0.025391-0.1086 0.017-0.21732 0.033923-0.32812 0.044921-0.084526 0.005801-0.16919 0.010219-0.25391 0.011719-0.0684 3e-3 -0.13608 0.011719-0.20508 0.011719-7e-3 0-0.012431-0.001953-0.019531-0.001953-0.27312-0.003044-0.54548-0.028634-0.81445-0.076172-0.0206-4e-3 -0.042-0.005766-0.0625-0.009766-0.095657-0.019214-0.19079-0.041629-0.28516-0.066406-0.2298-0.056-0.45598-0.12203-0.67188-0.20703h-0.0019532c-0.093703-0.0395-0.18622-0.081813-0.27734-0.12695-0.1757-0.083-0.34617-0.17339-0.50977-0.27539-0.10543-0.065807-0.20836-0.13551-0.30859-0.20898-0.1669-0.122-0.32646-0.25353-0.47656-0.39453-0.036307-0.032142-0.072066-0.06447-0.10742-0.097656l7.0703-7.0684z" fill="#f1f6f8" fill-opacity=".85098"/>
</svg>
