<svg width="16" height="16" version="1.1" viewBox="2 3.5 12 9" xmlns="http://www.w3.org/2000/svg">
<defs>
<style id="current-color-scheme" type="text/css">.ColorScheme-Text {
        color:#bebebe;
      }</style>
</defs>
<path class="ColorScheme-Text" d="m5 3.5v1.5h5.25c1.2595 0 2.25 0.99052 2.25 2.25s-0.99052 2.25-2.25 2.25h-0.75v-1.5l-3.75 2.25 3.75 2.25v-1.5h0.75c2.0631 0.075698 3.75-1.6855 3.75-3.75s-1.6855-3.75-3.75-3.75h-5.25zm-1.5 5.25a1.5 1.5 0 0 0-1.5 1.5 1.5 1.5 0 0 0 1.5 1.5 1.5 1.5 0 0 0 1.5-1.5 1.5 1.5 0 0 0-1.5-1.5z" color="#bebebe" fill="currentColor"/>
</svg>
