<svg width="16" height="16" version="1.1" viewBox="0 0 16 16" xmlns="http://www.w3.org/2000/svg">
<defs>
<style id="current-color-scheme" type="text/css">.ColorScheme-Text { color:#5c616c; } .ColorScheme-Highlight { color:#5294e2; }</style>
</defs>
<path class="ColorScheme-Text" d="m0 1v15h16v-15h-16zm1 1h4v3h-4v-3zm5 0h4v3h-4v-3zm5 0h4v3h-4v-3zm-10 4h4v2h-4v-2zm5 0h4v2h-4v-2zm5 0h4v2h-4v-2zm-10 3h4v2h-4v-2zm5 0h4v2h-4v-2zm5 0h4v2h-4v-2zm-10 3h4v3h-4v-3zm5 0h4v3h-4v-3zm5 0h4v3h-4v-3z" fill="currentColor" fill-opacity=".85098"/>
</svg>
