<svg width="16" height="16" version="1.1" viewBox="0 0 16 16" xmlns="http://www.w3.org/2000/svg">
<defs>
<style id="current-color-scheme" type="text/css">.ColorScheme-Text { color:#dedede; }</style>
</defs>
<g class="ColorScheme-Text" transform="matrix(.72951 0 0 .72951 -.023768 .24966)" color="#dedede" fill="currentColor">
<rect width="22" height="22" ry="0" opacity="0"/>
<path class="ColorScheme-Text" d="m11 3.2422c-0.59116-1.118e-4 -1.0704 0.47915-1.0703 1.0703v0.00977c-1.8877 0.48797-3.2088 2.3198-3.2109 4.2695 0 0 9.911e-4 5.352-1.7754 6.0176-0.017122 0.01062-0.02478 0.03101-0.042969 0.04492-0.067203 0.05263-0.12527 0.11598-0.17188 0.1875-0.019257 0.02889-0.041654 0.05101-0.056641 0.08203-0.058396 0.11022-0.089853 0.2327-0.091797 0.35742 0 0.4441 0.35864 0.80273 0.80273 0.80273h11.234c0.44516 0 0.80273-0.35864 0.80273-0.80273-0.0019-0.12472-0.0334-0.2472-0.0918-0.35742-0.01499-0.03211-0.03649-0.05315-0.05469-0.08203-0.04717-0.07168-0.10592-0.13504-0.17383-0.1875-0.01713-0.01289-0.02477-0.03422-0.04297-0.04492-1.7764-0.66561-1.7754-6.0176-1.7754-6.0176-0.002124-1.9497-1.3222-3.7816-3.2109-4.2695v-0.0097656c1.12e-4 -0.59116-0.47915-1.0704-1.0703-1.0703zm-2.0684 13.91c0.2435 0.94366 1.0938 1.6037 2.0684 1.6055 0.97603-3.3e-5 1.8284-0.6604 2.0723-1.6055z" fill="#dedede"/>
</g>
</svg>
