<svg width="16" height="16" enable-background="new" version="1.1" xmlns="http://www.w3.org/2000/svg">
<g transform="translate(-625 19.003)" fill="#f1f6f8" fill-opacity=".85098">
<path d="m633-17-3 5h2v2c0 1.6793-1.3207 3-3 3h-3v2h3c1.616 0 3.0765-0.78766 4-1.9844 0.92352 1.1967 2.384 1.9844 4 1.9844h3v-2h-3c-1.6793 0-3-1.3207-3-3v-2h2l-3-5zm0.95703 7.7793c-4e-3 0.028-7e-3 0.0561-0.0117 0.084 4e-3 -0.0279 8e-3 -0.0559 0.0117-0.084zm-0.48437 1.4844c-0.0285 0.0547-0.0573 0.10856-0.0879 0.16211 0.0301-0.0536 0.0599-0.10731 0.0879-0.16211z" fill="#f1f6f8" fill-opacity=".85098"/>
</g>
</svg>
