<svg width="16" height="16" version="1.1" viewBox="0 0 16 16" xmlns="http://www.w3.org/2000/svg">
<defs>
<style id="current-color-scheme" type="text/css">.ColorScheme-Text { color:#5c616c; } .ColorScheme-Highlight { color:#5294e2; }</style>
</defs>
<path class="ColorScheme-Text" d="m3 1c-1.108 0-2 0.892-2 2v2h2v-2h2v-2h-2zm8 0v2h2v2h2v-2c0-1.108-0.892-2-2-2h-2zm-5 3c-1.1046 0-2 0.8954-2 2s0.8954 2 2 2 2-0.8954 2-2-0.8954-2-2-2zm3 0v4h3v-4h-3zm-4 5v3h2v-3h-2zm5.5 0-1.5 3h3l-1.5-3zm-9.5 2v2c0 1.108 0.892 2 2 2h2v-2h-2v-2h-2zm12 0v2h-2v2h2c1.108 0 2-0.892 2-2v-2h-2z" fill="currentColor" fill-opacity=".85098"/>
</svg>
