<svg width="16" height="16" version="1.1" viewBox="0 0 16 16" xmlns="http://www.w3.org/2000/svg">
<defs>
<style id="current-color-scheme" type="text/css">.ColorScheme-Text { color:#5c616c; } .ColorScheme-Highlight { color:#5294e2; }</style>
</defs>
<path class="ColorScheme-Text" d="m14.502 0.94727c-0.8272 0-1.498 0.67157-1.498 1.5s0.67082 1.5 1.498 1.5c0.8272 0 1.498-0.67157 1.498-1.5s-0.67082-1.5-1.498-1.5zm-6.8105 4.4395c-0.2735 0.1979-0.53747 0.40645-0.79297 0.62695 1.4703 1.411 2.9599 2.2895 4.3945 2.5508 1.512 0.2753 2.9595-0.16057 4.0605-1.2637l-0.70508-0.70703c-0.895 0.8969-1.9418 1.211-3.1758 0.98633-1.141-0.2077-2.4465-0.94126-3.7812-2.1934zm-1.3262 1.1074c-0.23552 0.23065-0.45618 0.47585-0.67188 0.72852 1.3998 1.4258 2.2839 2.9248 2.5039 4.1367 0.22439 1.236-0.088882 2.2848-0.98438 3.1816l0.70508 0.70703c1.1015-1.103 1.5365-2.5544 1.2617-4.0684-0.2704-1.4891-1.309-3.1571-2.8145-4.6855zm-3.8457 6.4531c-0.8272 0-1.498 0.67157-1.498 1.5s0.67082 1.5 1.498 1.5c0.8272 0 1.498-0.67157 1.498-1.5s-0.67082-1.5-1.498-1.5z" fill="currentColor" fill-opacity=".85098"/>
<path class="ColorScheme-Text" d="m13.07 2.0293c-5.3271 1.1006-10.037 4.6578-10.984 10.988 0.13845-0.0423 0.28132-0.072266 0.43359-0.072266 0.2018 0 0.39462 0.040822 0.57031 0.11328 0.42877-2.7319 1.5878-4.8809 3.2148-6.5 0.021069-0.02112 0.039279-0.045516 0.060547-0.066406l0.0019531 0.0019531c1.8124-1.7741 4.1858-2.9003 6.7598-3.4531-0.078-0.1823-0.12305-0.38255-0.12305-0.59375 0-0.14598 0.027567-0.28455 0.066406-0.41797z" fill="currentColor" fill-opacity=".31361" opacity=".3"/>
</svg>
