<svg width="16" height="16" version="1.1" viewBox="0 0 16 16" xmlns="http://www.w3.org/2000/svg">
<defs>
<style id="current-color-scheme" type="text/css">.ColorScheme-Text { color:#5c616c; } .ColorScheme-Highlight { color:#5294e2; }</style>
</defs>
<path class="ColorScheme-Text" d="m2 1c-1 0-1 1-1 1v12c0 1 1 1 1 1h7v-2h-6v-7h10v3h2v-7c0-1-1-1-1-1h-12zm10 8-0.57422 1.6133-1.5469-0.73437 0.73437 1.5469-1.6094 0.57422 1.6133 0.57422-0.73438 1.5469 1.5469-0.73438 0.57031 1.6133 0.56836-1.6133 1.5508 0.73438-0.73047-1.5469 1.6113-0.57422-1.6113-0.57422 0.73047-1.5469-1.5508 0.73437-0.56836-1.6133z" fill="currentColor" fill-opacity=".85098"/>
</svg>
