<svg width="16" height="16" version="1.1" viewBox="0 0 16 16" xmlns="http://www.w3.org/2000/svg">
<defs>
<style id="current-color-scheme" type="text/css">.ColorScheme-Text { color:#5c616c; } .ColorScheme-Highlight { color:#5294e2; }</style>
</defs>
<path class="ColorScheme-Text" d="m2.9961 0.99609 0.0039062 0.0039062c-2.25 0-2 2-2 2v12h5.9961v-2h-3.9961v-10h10v4h1.9961v-4.0039c0-2-2-2-2-2h-10zm1.0039 3.0039v2h2v-2h-2zm3 0v2h2v-2h-2zm3 0v2h2v-2h-2zm-6 3v2h2v-2h-2zm4.9961 1.9961c-0.554 0-1 0.53444-1 1.1992v3.6016c0 0.6648 0.446 1.1992 1 1.1992h5c0.54707 0 0.98513-0.52255 0.99609-1.1758v1.1758h0.003906v-4.8203c-0.01-0.66-0.45-1.1797-1-1.1797h-5zm-4.9961 1.0039v2h2v-2h-2z" fill="currentColor" fill-opacity=".85098"/>
</svg>
