<svg width="16" height="16" version="1.1" viewBox="0 0 16 16" xmlns="http://www.w3.org/2000/svg">
<defs>
<style id="current-color-scheme" type="text/css">.ColorScheme-Text { color:#5c616c; } .ColorScheme-Highlight { color:#5294e2; }</style>
</defs>
<path class="ColorScheme-Text" d="m11 0v1.7461c-0.35059-0.01741-0.71167-0.045559-1.0371-0.037109-1.0493 0.02723-1.9704 0.18468-2.7812 0.45703-1.6216 0.54471-2.779 1.5561-3.5605 2.793-1.1085 1.7542-1.4947 3.9333-1.6289 6.041h-1.9922v5h5v-2.0527c4.2585-0.46793 6.9098-2.8038 8.2812-5.2656 0.71511-1.2836 1.0852-2.5768 1.2148-3.6816h1.5039v-5h-5zm-1.0078 2.709c0.3128-0.0081 0.66481 0.017256 1.0078 0.035156v2.2559h2.4922c-0.12808 0.94186-0.4613 2.0756-1.084 3.1934-1.2295 2.2071-3.5295 4.2789-7.4082 4.7227v-1.916h-1.9805c0.1338-2.0023 0.49576-4.002 1.4473-5.5078 0.67791-1.0728 1.6244-1.9037 3.0332-2.377 0.70441-0.23662 1.5284-0.38142 2.4922-0.40625z" fill="#f1f6f8" fill-opacity=".85098"/>
</svg>
