<svg width="16" height="16" version="1.1" viewBox="0 0 16 16" xmlns="http://www.w3.org/2000/svg">
<defs>
<style id="current-color-scheme" type="text/css">.ColorScheme-Text { color:#5c616c; } .ColorScheme-Highlight { color:#5294e2; }</style>
</defs>
<path class="ColorScheme-Text" d="m10.584 1.5547-1.3379 2.5117h-9.2461v7.8672h5.0566l-0.96289 1.8066 1.3223 0.70508 1.3379-2.5117h9.2461v-7.8672h-5.0566l0.96289-1.8066-1.3223-0.70508zm-9.8164 3.0449h8.1934l-0.49805 0.9375h-0.12109v0.22656l-1.459 2.7402v-1.5352h-0.75977v2.9609l-0.7832 1.4707h-4.5723v-6.8008zm9.8926 0h4.5723v6.8008h-8.1934l1.3027-2.4473v1.4473h0.75977v-2.873l1.5586-2.9277zm-4.1523 1.084c-0.1248 0-0.23196 0.029948-0.31836 0.085937-0.0832 0.05653-0.125 0.14668-0.125 0.27148 0 0.1232 0.0418 0.21335 0.125 0.27148 0.0864 0.05813 0.19356 0.087891 0.31836 0.087891 0.12267 0 0.22663-0.029761 0.3125-0.087891 0.08907-0.06027 0.13281-0.15042 0.13281-0.27148 0-0.0624-0.012039-0.11642-0.037109-0.16016-0.0224-0.04533-0.054103-0.081997-0.095703-0.11133-0.03893-0.0288-0.086582-0.0497-0.14258-0.0625-0.0528-0.0144-0.10859-0.023437-0.16992-0.023437zm-4.4844 0.14844v4.5684h0.77539v-1.9316h2.2305v-0.51172h-2.2305v-1.6133h2.3906v-0.51172h-3.166zm10.176 1.0742c-0.28107 0-0.53788 0.03949-0.77148 0.12109-0.23093 0.08107-0.4293 0.20116-0.5957 0.35742-0.16693 0.15413-0.29694 0.34152-0.38867 0.56445-0.09173 0.22293-0.13672 0.47657-0.13672 0.75977 0 0.28107 0.05066 0.53133 0.15039 0.75 0.10027 0.2192 0.24161 0.40251 0.42188 0.55078 0.184 0.14773 0.4015 0.26109 0.6543 0.33789 0.2528 0.07733 0.53229 0.11523 0.83789 0.11524 0.14187 0 0.27116-0.005672 0.39062-0.013672 0.12213-0.0085 0.2401-0.020393 0.35156-0.039063 0.11413-0.01867 0.22448-0.042935 0.33008-0.072265 0.10827-0.02933 0.21719-0.063511 0.32812-0.10352v-0.50586c-0.10827 0.03787-0.21471 0.07205-0.32031 0.10352-0.1056 0.0288-0.21648 0.053419-0.33008 0.074219-0.11147 0.01867-0.22694 0.032839-0.34961 0.042969-0.11947 0.01067-0.25071 0.015625-0.39258 0.015625-0.41973 0-0.73731-0.093338-0.95117-0.2832-0.2112-0.18933-0.32402-0.48654-0.33789-0.88867h2.8867v-0.35156c0-0.2288-0.0418-0.43727-0.125-0.625-0.080529-0.18933-0.19654-0.35104-0.34961-0.48438-0.15253-0.13547-0.34135-0.23943-0.56055-0.3125-0.21973-0.074666-0.46699-0.11328-0.74219-0.11328zm-0.015625 0.47266c0.17227 0 0.31874 0.022489 0.44141 0.068359 0.12213 0.04587 0.22291 0.11016 0.30078 0.19336 0.08107 0.0832 0.14005 0.1838 0.17578 0.30273 0.038931 0.11627 0.058594 0.2468 0.058594 0.38867h-2.0527c0.03093-0.3104 0.13684-0.54827 0.32031-0.71094 0.18613-0.16267 0.43853-0.24219 0.75586-0.24219z" fill="#f1f6f8" fill-opacity=".85098"/>
</svg>
