<svg width="16" height="16" version="1.1" viewBox="0 0 16 16" xmlns="http://www.w3.org/2000/svg">
<defs>
<style id="current-color-scheme" type="text/css">.ColorScheme-Text { color:#5c616c; } .ColorScheme-Highlight { color:#5294e2; }</style>
</defs>
<path class="ColorScheme-Text" d="m14 1.5v0.5 1 0.5h1v-0.5-1-0.5h-1zm-11 2.5v3h3v-3h-3zm11 0.5v0.5 1 0.5h1v-0.5-1-0.5h-1zm0 3v0.5 1 0.5h1v-0.5-1-0.5h-1zm0 3v0.5 1 0.5h1v-0.5-1-0.5h-1zm0 3v0.5h-0.5v1h0.5 0.5 0.5v-0.5-0.5-0.5h-1zm-12.5 0.5v1h0.5 1 0.5v-1h-0.5-1-0.5zm3 0v1h0.5 1 0.5v-1h-0.5-1-0.5zm3 0v1h0.5 1 0.5v-1h-0.5-1-0.5zm3 0v1h0.5 1 0.5v-1h-0.5-1-0.5z" fill="#dedede" fill-opacity=".85098"/>
</svg>
