<svg width="16" height="16" version="1.1" viewBox="0 0 16 16" xmlns="http://www.w3.org/2000/svg">
<defs>
<style id="current-color-scheme" type="text/css">.ColorScheme-Text { color:#5c616c; } .ColorScheme-Highlight { color:#5294e2; }</style>
</defs>
<path class="ColorScheme-Text" d="m14.99 0.49414a0.50005 0.50005 0 0 0-0.34375 0.15039l-5.8555 5.8555h-2.291v1.4062l-5.6367 1.6113a0.50005 0.50005 0 1 0 0.27344 0.96094l5.1465-1.4707-5.6367 5.6367a0.50005 0.50005 0 1 0 0.70703 0.70703l5.8516-5.8516h2.2949v-1.4102l5.6367-1.6113a0.50005 0.50005 0 0 0-0.14062-0.98242 0.50005 0.50005 0 0 0-0.13281 0.021484l-5.1465 1.4707 5.6367-5.6367a0.50005 0.50005 0 0 0-0.36328-0.85742z" fill="currentColor" fill-opacity=".85098"/>
</svg>
