<svg width="16.001" height="16" enable-background="new" version="1.1" xmlns="http://www.w3.org/2000/svg">
<g transform="translate(-745.01 -101)" fill="#f1f6f8" fill-opacity=".85098">
<path d="m753.01 101.39-2.1172 5.4941-5.8828 0.3164 4.5723 3.7148-1.5156 5.6914 4.9434-3.2012 4e-3 2e-3c0.0494-2.4315 2.0474-4.4102 4.4901-4.4102 0.38301 0 0.74975 0.063 1.1055 0.1543l2.4004-1.9512-5.8809-0.3164z"/>
<path d="m757.5 110c-1.933 0-3.5 1.567-3.5 3.5s1.567 3.5 3.5 3.5 3.5-1.567 3.5-3.5-1.567-3.5-3.5-3.5zm-0.5 1h1v2h2v1h-2v2h-1v-2h-2v-1h2z" fill-rule="evenodd"/>
</g>
</svg>
