<svg width="16" height="16" version="1.1" viewBox="0 0 16 16" xmlns="http://www.w3.org/2000/svg">
<defs>
<style id="current-color-scheme" type="text/css">.ColorScheme-Text { color:#5c616c; } .ColorScheme-Highlight { color:#5294e2; }</style>
</defs>
<path class="ColorScheme-Text" d="m4.9746-0.021484v2.6016c-0.9045 0.68578-1.7083 1.491-2.3926 2.3984h-2.6074v4h0.60742c-0.41863 1.4377-0.60731 2.9856-0.49219 4.6152a0.50026 0.50026 0 1 0 0.99805-0.070312c-0.11428-1.6177 0.089417-3.1426 0.5293-4.5449h2.3574v-4h-0.14258c0.3529-0.40938 0.73456-0.79065 1.1426-1.1445v0.14453h4v-2.3809c1.4076-0.44865 2.9345-0.65801 4.543-0.55078a0.50013 0.50013 0 0 0 0.066406-0.99805c-1.6198-0.10798-3.1681 0.087175-4.6094 0.51367v-0.58398h-4zm4 4v2.4453c-0.53379 0.31314-1.0168 0.67894-1.4434 1.1055-0.42816 0.42816-0.79546 0.91296-1.1094 1.4492h-2.4473v4h1.1875c-0.10147 0.78488-0.15234 1.6279-0.15234 2.5293a0.50005 0.50005 0 1 0 1 0c0-0.92234 0.057602-1.7592 0.16406-2.5293h1.8008v-4h-0.35547c0.19105-0.26508 0.39334-0.51639 0.61914-0.74219 0.2242-0.22419 0.47341-0.4253 0.73633-0.61523v0.35742h4v-1.8066c0.77167-0.10699 1.6105-0.16406 2.5352-0.16406a0.50005 0.50005 0 1 0 0-1c-0.90367 0-1.7486 0.05036-2.5352 0.15234v-1.1816h-4z" fill="#f1f6f8" fill-opacity=".85098"/>
<path class="ColorScheme-Text" d="m13.756 1.0039a0.50013 0.50013 0 0 1-0.23828 0.042969c-1.6085-0.10724-3.1353 0.10213-4.543 0.55078v2.3809h4v1.1816c0.73615-0.09545 1.5285-0.14239 2.3672-0.14844l-1.5859-4.0078zm-4.7812 2.9746h-4v-0.14453c-0.40802 0.35388-0.78968 0.73515-1.1426 1.1445h0.14258v4h2.4473c0.31391-0.53625 0.68122-1.0211 1.1094-1.4492 0.42653-0.42653 0.90957-0.79233 1.4434-1.1055v-2.4453zm-5 5h-2.3574c-0.43988 1.4024-0.64358 2.9273-0.5293 4.5449a0.50026 0.50026 0 0 1-0.011719 0.14453l3.9414 1.5605c0.01-0.79409 0.053901-1.5489 0.14453-2.25h-1.1875v-4z" fill="#f1f6f8" fill-opacity=".31361" opacity=".3"/>
</svg>
