<svg width="16" height="16" version="1.1" viewBox="0 0 16 16" xmlns="http://www.w3.org/2000/svg">
<defs>
<style id="current-color-scheme" type="text/css">.ColorScheme-Text { color:#5c616c; } .ColorScheme-Highlight { color:#5294e2; }</style>
</defs>
<path class="ColorScheme-Text" d="m8 2c-2.77 0-5 2.23-5 5v7h4v-7c0-0.554 0.446-1 1-1s1 0.446 1 1v7h4v-7c0-2.77-2.23-5-5-5zm0 1c2.216 0 4 1.784 4 4v6h-2v-6c0-1.108-0.892-2-2-2s-2 0.892-2 2v6h-2v-6c0-2.216 1.784-4 4-4z" fill="#f1f6f8" fill-opacity=".85098"/>
</svg>
