<svg width="16" height="16" version="1.1" viewBox="0 0 16 16" xmlns="http://www.w3.org/2000/svg">
<defs>
<style id="current-color-scheme" type="text/css">.ColorScheme-Text { color:#5c616c; } .ColorScheme-Highlight { color:#5294e2; }</style>
</defs>
<path class="ColorScheme-Text" d="m3.5 1c-1.3807 0-2.5 1.1193-2.5 2.5 1.3e-4 1.1879 0.83612 2.2116 2 2.4492v4.0039c-1.1632 0.23742-1.9989 1.2601-2 2.4473 0 1.3807 1.1193 2.5 2.5 2.5s2.5-1.1193 2.5-2.5c-1.3e-4 -1.1879-0.83612-2.2116-2-2.4492v-4.0059c0.38986-0.0782 0.75546-0.24827 1.0664-0.49609l1.2129 0.9082c-0.18265 0.35323-0.2784 0.74491-0.2793 1.1426 0 1.3807 1.1193 2.5 2.5 2.5 0.56529 0 1.0812-0.19536 1.5-0.51172v2.5117h-2l3.5 3 3.5-3h-2v-3h-2.5117c0.31636-0.41877 0.51172-0.93471 0.51172-1.5 0-1.3807-1.1193-2.5-2.5-2.5-0.59196 1e-3 -1.1643 0.21217-1.6152 0.5957l-1.1934-0.89258c0.20243-0.3687 0.30857-0.78254 0.30859-1.2031 0-1.3807-1.1193-2.5-2.5-2.5z" fill="currentColor" fill-opacity=".85098"/>
</svg>
