<svg width="16" height="16" version="1.1" viewBox="0 0 16 16" xmlns="http://www.w3.org/2000/svg">
<defs>
<style id="current-color-scheme" type="text/css">.ColorScheme-Text { color:#5c616c; } .ColorScheme-Highlight { color:#5294e2; }</style>
</defs>
<path class="ColorScheme-Text" d="m3.5 1c-1.3807 0-2.5 1.1193-2.5 2.5 1e-4 1.1879 0.8361 2.2116 2 2.4492v4.0039c-1.1632 0.23743-1.9989 1.2601-2 2.4473 0 1.3807 1.1193 2.5 2.5 2.5s2.5-1.1193 2.5-2.5c-1e-4 -1.187-0.8361-2.2114-2-2.4492v-4.0059c0.3899-0.0782 0.75541-0.24829 1.0664-0.49609l1.2129 0.9082c-0.1826 0.3532-0.2784 0.74488-0.2793 1.1426 0 1.3807 1.1193 2.5 2.5 2.5s2.5-1.1193 2.5-2.5-1.1193-2.5-2.5-2.5c-0.592 0.0011-1.1643 0.2122-1.6152 0.5957l-1.1934-0.89258c0.2024-0.3687 0.30859-0.78252 0.30859-1.2031 0-1.3807-1.1193-2.5-2.5-2.5zm8 8-3.5 3h2v3h3v-3h2l-3.5-3z" fill="currentColor" fill-opacity=".85098"/>
</svg>
