<svg width="16" height="16" enable-background="new" version="1.1" xmlns="http://www.w3.org/2000/svg">
<defs>
<style id="current-color-scheme" type="text/css">.ColorScheme-Text {
        color:#bebebe;
      }</style>
</defs>
<g transform="translate(-445 -200.97)" fill-opacity=".68047">
<path d="m457.24 204.73c-1.714-1.714-4.2997-2.2284-6.5391-1.3008-2.2394 0.92759-3.7031 3.1191-3.7031 5.543 0 2.4239 1.4637 4.6154 3.7031 5.543 2.2394 0.92759 4.8251 0.41318 6.5391-1.3008l-1.4141-1.4141c-1.146 1.146-2.862 1.4874-4.3594 0.86719-1.4974-0.62023-2.4707-2.0746-2.4707-3.6953s0.97336-3.0751 2.4707-3.6953 3.2134-0.27883 4.3594 0.86719l1.4141-1.4141z"/>
<path d="m457 205.97 4 3-4 3v-2h-4v-2h4z"/>
</g>
</svg>
