<svg width="16" height="16" enable-background="new" version="1.1" xmlns="http://www.w3.org/2000/svg">
<defs>
<style id="current-color-scheme" type="text/css">.ColorScheme-Text {
        color:#bebebe;
      }</style>
</defs>
<g transform="translate(-485 -201)" fill-opacity=".85098">
<path d="m493 202.97a1 1 0 0 0-1 1 1 1 0 0 0 1 1 4 4 0 0 1 4 4h-2l3 4 3-4h-2a6 6 0 0 0-6-6zm-5 2-3 4h2a6 6 0 0 0 6 6 1 1 0 0 0 1-1 1 1 0 0 0-1-1 4 4 0 0 1-4-4h2l-3-4z" class="ColorScheme-Text" fill="currentColor" fill-opacity=".85098"/>
</g>
</svg>
