<svg width="16" height="16" enable-background="new" version="1.1" xmlns="http://www.w3.org/2000/svg">
<g transform="translate(-425 -200.97)" fill="#dedede" fill-opacity=".67456">
<rect x="432" y="201.97" width="2" height="7.003" rx="0" ry=".003"/>
<path d="m436.01 203.78-1.0039 1.7305c1.5653 0.90865 2.3238 2.7414 1.8574 4.4902-0.46633 1.7488-2.0358 2.9601-3.8457 2.9688-1.8099 9e-3 -3.392-1.1874-3.875-2.9316s0.25791-3.5843 1.8144-4.5078l-1.0195-1.7207c-2.3246 1.3792-3.442 4.1568-2.7207 6.7617 0.72128 2.6049 3.1077 4.4113 5.8106 4.3984 2.7029-0.0129 5.0711-1.8415 5.7676-4.4531 0.69643-2.6117-0.44756-5.3793-2.7852-6.7363z"/>
</g>
</svg>
