<svg width="16" height="16" version="1.1" viewBox="0 0 16 16" xmlns="http://www.w3.org/2000/svg">
<defs>
<style id="current-color-scheme" type="text/css">.ColorScheme-Text { color:#5c616c; } .ColorScheme-Highlight { color:#5294e2; }</style>
</defs>
<path class="ColorScheme-Text" d="m6 0.039062v1.1328c-0.9772 0.1418-1.8093 0.39713-2.4629 0.79883-1.0105 0.6149-1.5156 1.5581-1.5156 2.8301-0.0046 2.1953 1.5575 2.9187 3.9785 3.584v4.9922c-1.1727-0.099-2.2449-0.32069-3.377-0.80469l-0.62305 1.3574c0.5645 0.301 1.3273 0.56216 2.2891 0.78516 0.5442 0.122 1.1112 0.19991 1.7109 0.25391v1.0703h3v-1.1172c1.997-0.285 3.98-1.2035 3.959-3.6895-0.07-1.8287-1.203-2.5076-3.959-3.4766v-4.9531c0.9033 0.1207 2.0016 0.37222 3.2246 0.98242l0.77539-1.543c-0.551-0.2955-1.8315-0.76641-2.6465-0.94141-0.434-0.0926-0.88652-0.15562-1.3535-0.19922v-1.0625h-3zm0 2.7598v3.998c-1.227-0.4344-2.357-1.0931-2.3242-2.1914-0.0596-1.0413 1.0044-1.5908 2.3242-1.8066zm3 6.4512c1.281 0.4486 2.3199 1.0355 2.2969 2.0645-0.039 1.396-1.1319 1.8828-2.2969 2.0488v-4.1133z" fill="#dedede" fill-opacity=".85098"/>
</svg>
