<svg width="16" height="16" version="1.1" viewBox="0 0 16 16" xmlns="http://www.w3.org/2000/svg">
<defs>
<style id="current-color-scheme" type="text/css">.ColorScheme-Text { color:#5c616c; } .ColorScheme-Highlight { color:#5294e2; }</style>
</defs>
<path class="ColorScheme-Text" d="m2 1a1.0001 1.0001 0 0 0-1 1v1a1.0001 1.0001 0 0 0 1 1h1v8h-1a1.0001 1.0001 0 0 0-1 1v1a1.0001 1.0001 0 0 0 1 1h5a1.0001 1.0001 0 0 0 1-1v-1a1.0001 1.0001 0 0 0-1-1h-1v-8h1a1.0001 1.0001 0 0 0 1-1v-1a1.0001 1.0001 0 0 0-1-1h-5zm6 7a1.0001 1.0001 0 0 0-1 1v2a1.0001 1.0001 0 0 0 1 1h7a1.0001 1.0001 0 0 0 1-1v-2a1.0001 1.0001 0 0 0-1-1h-1a1.0001 1.0001 0 0 0-1 1h-3a1.0001 1.0001 0 0 0-1-1h-1z" fill="#f1f6f8" fill-opacity=".85098"/>
</svg>
