<svg width="16" height="16" version="1.1" viewBox="0 0 16 16" xmlns="http://www.w3.org/2000/svg">
<defs>
<style id="current-color-scheme" type="text/css">.ColorScheme-Text { color:#5c616c; } .ColorScheme-Highlight { color:#5294e2; }</style>
</defs>
<path class="ColorScheme-Text" d="m9.7852 0.98633c-0.17933-0.011266-0.3596-0.0067406-0.53711 0.013672-1.7665 0.369-2.6173 2.2846-3.1582 3.9473-0.47305 1.5104-0.92281 3.358-2.4414 4.0176-0.65864 0.2595-1.9284 0.36426-2.6289 0.25586l-0.019531 5.7207 14 0.039063v-5.7207c-1.8131 0.286-3.8596 0.24388-5.3535-0.98242-1.3137-1.1284-1.7458-3.4035-0.79688-4.9121 0.94537-1.1256 2.9101-0.65644 3.5273 0.60156 0.51081 0.266 0.34503-0.50404 0.25977-0.80664-0.35933-1.2627-1.5962-2.095-2.8516-2.1738z" fill="#dedede" fill-opacity=".85098"/>
</svg>
