<svg width="24" height="24" version="1.1" viewBox="0 0 24 24" xmlns="http://www.w3.org/2000/svg">
<defs>
<style id="current-color-scheme" type="text/css">.ColorScheme-Text { color:#5c616c; } .ColorScheme-Highlight { color:#5294e2; }</style>
</defs>
<path class="ColorScheme-Text" d="m13.5 0a0.50005 0.50005 0 0 0-0.5 0.5v8.9766a0.50005 0.50005 0 0 0 0.5 0.5h7.9922a0.50005 0.50005 0 0 0 0.5-0.5v-8.9766a0.50005 0.50005 0 0 0-0.5-0.5h-7.9922zm1.002 0.98633h5.9941c0.27613 3e-5 0.49997 0.22387 0.5 0.5v6.998c-3e-5 0.27613-0.22387 0.49997-0.5 0.5h-5.9941c-0.27613-3e-5 -0.49997-0.22387-0.5-0.5v-6.998c3e-5 -0.27613 0.22387-0.49997 0.5-0.5zm-5.002 2.9902-2.5 3h2v12h1v-12h2l-2.5-3zm4 10a0.50005 0.50005 0 0 0-0.5 0.5v8.9746a0.50005 0.50005 0 0 0 0.5 0.5h7.9922a0.50005 0.50005 0 0 0 0.5-0.5v-8.9746a0.50005 0.50005 0 0 0-0.5-0.5h-7.9922zm1.002 0.98633h5.9941c0.27613 0 0.49997 0.2239 0.5 0.5v6.998c-3e-5 0.2761-0.22387 0.5-0.5 0.5h-5.9941c-0.27613 0-0.49997-0.2239-0.5-0.5v-6.998c3e-5 -0.2761 0.22387-0.5 0.5-0.5z" fill="#dedede" fill-opacity=".85098"/>
<path class="ColorScheme-Text" d="m14 1v7.9766h6.9922v-7.9766h-6.9922zm0 13.977v7.9746h6.9922v-7.9746h-6.9922z" fill="#dedede" fill-opacity=".2071" opacity=".3"/>
</svg>
