<svg width="16" height="16" version="1.1" viewBox="0 0 16 16" xmlns="http://www.w3.org/2000/svg">
<defs>
<style id="current-color-scheme" type="text/css">.ColorScheme-Text { color:#5c616c; } .ColorScheme-Highlight { color:#5294e2; }</style>
</defs>
<path class="ColorScheme-Text" d="m2 2v1h0.5 10.5v4.5 0.5h1v-0.5-5.5h-11.5-0.5zm0 3v1h0.5 6.5v2.5 0.5h1v-0.5-3.5h-7.5-0.5zm9.0078 4.0137v1.9941h-2.002v0.99609h2.002v1.9961l3.0039-2.4941-3.0039-2.4922zm-7.0078 1.9785v1.0293h1v-1.0293h-1zm2.0176 0v1.0293h0.48438 1.002 0.48438v-1.0293h-0.48438-1.002-0.48438z" fill="currentColor" fill-opacity=".85098"/>
<path class="ColorScheme-Text" d="m2 2v3 3 1h8v-1h4v-6h-12z" fill="currentColor" fill-opacity=".27219" opacity=".3"/>
</svg>
