<svg width="24" height="24" version="1.1" viewBox="0 0 24 24" xmlns="http://www.w3.org/2000/svg">
<defs>
<style id="current-color-scheme" type="text/css">.ColorScheme-Text { color:#5c616c; } .ColorScheme-Highlight { color:#5294e2; }</style>
</defs>
<path class="ColorScheme-Text" d="m3 0-3 2.5 3 2.5v-2h3v-1h-3v-2zm0 5h-2.7461a0.71625 0.34804 34.651 0 0-0.13281 0.49805l9.6172 13.002a0.71625 0.34804 34.651 0 0 0.86914 0.49805h13.139a0.71625 0.34804 34.651 0 0 0.13281-0.49805l-9.6172-13.002a0.71625 0.34804 34.651 0 0-0.86914-0.49805h-10.393zm-1.5098 0.99609h12.139l8.8809 12.008h-12.137l-8.8828-12.008zm19.51 13.004v2h-3v1h3v2l3-2.5-3-2.5z" fill="#f1f6f8" fill-opacity=".85098"/>
<path class="ColorScheme-Text" d="m1.9922 6c-0.27675-9e-5 -0.33602 0.22299-0.13281 0.49805l8.1406 11.004c0.20335 0.27506 0.59252 0.49814 0.86914 0.49805h11.137c0.27676 9e-5 0.33602-0.22299 0.13281-0.49805l-8.1387-11.004c-0.20335-0.27506-0.59252-0.49814-0.86914-0.49805h-11.139z" fill="#f1f6f8" fill-opacity=".1716" opacity=".3"/>
</svg>
