<svg width="16" height="16" version="1.1" viewBox="0 0 16 16" xmlns="http://www.w3.org/2000/svg">
<defs>
<style id="current-color-scheme" type="text/css">.ColorScheme-Text { color:#5c616c; } .ColorScheme-Highlight { color:#5294e2; }</style>
</defs>
<path class="ColorScheme-Text" d="m10.635 0.99609c-0.46091 0.015417-0.88893 0.28792-1.0996 0.7207-1.9291-0.11657-3.7768 1.0407-4.4609 2.9531-0.60902 1.7322-1.8397 3.9701-2.4766 4.0859-0.12871 0.0726-0.23709 0.18908-0.29102 0.33984-0.11898 0.33261 0.052306 0.69735 0.38477 0.81641l9.3008 3.3301c0.33242 0.11906 0.69546-0.052186 0.81445-0.38477 0.0539-0.15076 0.043634-0.31138-0.009766-0.44922-0.4187-0.49391 0.049844-3.0051 0.67773-4.7305 0.68416-1.9124-0.011372-3.9804-1.5762-5.1152 0.14887-0.62435-0.18089-1.2709-0.79883-1.4922-0.15448-0.05533-0.31121-0.079358-0.46484-0.074219zm-3.8906 11.721c-0.29654 0.82896 0.26751 1.7904 1.2617 2.1465 0.99416 0.35606 2.0414-0.028462 2.3379-0.85742l-3.5996-1.2891z" fill="#dedede" fill-opacity=".85098"/>
</svg>
