<svg width="16" height="16" version="1.1" viewBox="0 0 16 16" xmlns="http://www.w3.org/2000/svg">
<defs>
<style id="current-color-scheme" type="text/css">.ColorScheme-Text { color:#5c616c; } .ColorScheme-Highlight { color:#5294e2; }</style>
</defs>
<path class="ColorScheme-Text" d="m8.0098 1.6895c-1.832 0-3.3248 1.5522-3.3789 3.4902-0.045 0.0116-0.088519 0.031588-0.13086 0.054688-0.4213 0.22956-0.53045 0.94449-0.24219 1.6074 0.2319 0.5333 0.64378 0.86374 1.0176 0.85352 0.28138 1.7723 1.4015 3.0937 2.7344 3.0937 4e-3 0 0.0077188 2.1e-5 0.011719 0 1.3329 0 2.4531-1.3214 2.7344-3.0937 0.37378 0.0102 0.78565-0.32021 1.0176-0.85352 0.28826-0.66292 0.1791-1.3778-0.24219-1.6074-0.0424-0.0231-0.085809-0.043088-0.13086-0.054688-0.0542-1.938-1.5469-3.4902-3.3789-3.4902-4e-3 -2e-5 -0.0077188 0-0.011719 0zm2.3848 9.3848c-0.28889 0.68765-1.274 1.2031-2.4492 1.2031-1.1698 0-2.1457-0.50846-2.4395-1.1914-2.4691 0.25341-4.2682 0.87394-4.4844 1.6074-3e-3 7e-3 2e-3 0.014485 0 0.021485-7e-3 0.0264-0.0087188 0.049372-0.011719 0.076172-1e-3 0.0121-0.0097656 0.020803-0.0097656 0.033203-9e-5 4e-3 0 0.007819 0 0.011719v1.8145c0 0.19391 0.15571 0.34961 0.34961 0.34961h13.299c0.1939 0 0.35156-0.15571 0.35156-0.34961v-1.8145c0-0.008001 3.5e-4 -0.015438 0-0.023438-2e-3 -0.0425-0.020803-0.077331-0.033203-0.11914-0.22075-0.74233-2.0585-1.3718-4.5723-1.6191z" fill="#f1f6f8" fill-opacity=".85098"/>
</svg>
