<svg width="16" height="16" version="1.1" viewBox="0 0 16 16" xmlns="http://www.w3.org/2000/svg">
<defs>
<style id="current-color-scheme" type="text/css">.ColorScheme-Text { color:#5c616c; } .ColorScheme-Highlight { color:#5294e2; }</style>
</defs>
<path class="ColorScheme-Text" d="m8 0.75977-8 7.8105 1.5234 1.5566 1.1426-0.98633 0.76172 6.0957h9.1445l0.76172-6.0957 1.1426 0.95312 1.5234-1.5234-8-7.8105zm0 5.334c1.2624 0 2.2852 1.0229 2.2852 2.2852 0 1.2624-1.0229 2.2852-2.2852 2.2852-1.2624 0-2.2852-1.0229-2.2852-2.2852 0-1.2624 1.0229-2.2852 2.2852-2.2852zm0 6.0957c0.42079 0 0.76172 0.34093 0.76172 0.76172 0 0.42078-0.34093 0.76172-0.76172 0.76172s-0.76172-0.34094-0.76172-0.76172c0-0.42079 0.34093-0.76172 0.76172-0.76172z" fill="#f1f6f8" fill-opacity=".85098"/>
</svg>
