<svg width="16" height="16" version="1.1" viewBox="1.999 2.5 12 11" xmlns="http://www.w3.org/2000/svg">
<defs>
<style id="current-color-scheme" type="text/css">.ColorScheme-Text {
        color:#bebebe;
      }</style>
</defs>
<path class="ColorScheme-Text" d="m5.6923 2.5v11h0.92308v-11h-0.92308zm-3.6923 0.91667v0.91667h1.8462v-0.91667h-1.8462zm6.4615 0v1.8333h1.8462v-1.8333h-1.8462zm3.6923 0v1.8333h1.8462v-1.8333h-1.8462zm-10.154 2.75v0.91667h1.8462v-0.91667h-1.8462zm6.4615 0.91667v1.8333h1.8462v-1.8333h-1.8462zm3.6923 0v1.8333h1.8462v-1.8333h-1.8462zm-10.154 1.8333v0.91667h1.8462v-0.91667h-1.8462zm6.4615 1.8333v1.8333h1.8462v-1.8333h-1.8462zm3.6923 0v1.8333h1.8462v-1.8333h-1.8462zm-10.154 0.91667v0.91667h1.8462v-0.91667h-1.8462z" color="#bebebe" fill="currentColor"/>
</svg>
