<svg width="16" height="16" version="1.1" viewBox="0 0 16 16" xmlns="http://www.w3.org/2000/svg">
<defs>
<style id="current-color-scheme" type="text/css">.ColorScheme-Text { color:#5c616c; } .ColorScheme-Highlight { color:#5294e2; }</style>
</defs>
<path class="ColorScheme-Text" d="m6.0039 2a6 6 0 0 0-6 6 6 6 0 0 0 6 6 6 6 0 0 0 1.998-0.35156 6 6 0 0 0 2.002 0.35156 6 6 0 0 0 6-6 6 6 0 0 0-6-6 6 6 0 0 0-2 0.34961 6 6 0 0 0-2-0.34961zm-0.49414 2.0352a6 6 0 0 0-1.5059 3.9648 6 6 0 0 0 1.5039 3.9648 4 4 0 0 1-3.5039-3.9648 4 4 0 0 1 3.5059-3.9648zm4.9883 0a4 4 0 0 1 3.5059 3.9648 4 4 0 0 1-3.5078 3.9648 6 6 0 0 0 1.5078-3.9648 6 6 0 0 0-1.5059-3.9648zm-2.4922 0.50586a4 4 0 0 1 1.998 3.459 4 4 0 0 1-2.002 3.459 4 4 0 0 1-1.998-3.459 4 4 0 0 1 2.002-3.459z" fill="#f1f6f8" fill-opacity=".85098"/>
</svg>
