<svg width="16" height="16" version="1.1" viewBox="2 3.771 12 9.304" xmlns="http://www.w3.org/2000/svg">
<defs>
<style id="current-color-scheme" type="text/css">.ColorScheme-Text {
        color:#bebebe;
      }</style>
</defs>
<path class="ColorScheme-Text" d="m3.2687 3.771c-0.69556 0-1.2687 0.57317-1.2687 1.2687s0.57317 1.2687 1.2687 1.2687c0.69556 0 1.2687-0.57317 1.2687-1.2687s-0.57317-1.2687-1.2687-1.2687zm6.3436 0-4.2819 5.9207h2.5903v3.3833h3.3833v-3.3833h2.696l-4.3877-5.9207zm-6.3436 3.3833c-0.69556 0-1.2687 0.57317-1.2687 1.2687 0 0.69556 0.57317 1.2687 1.2687 1.2687 0.69556 0 1.2687-0.57317 1.2687-1.2687 0-0.69556-0.57317-1.2687-1.2687-1.2687zm0 3.3833c-0.69556 0-1.2687 0.57317-1.2687 1.2687s0.57317 1.2687 1.2687 1.2687c0.69556 0 1.2687-0.57317 1.2687-1.2687s-0.57317-1.2687-1.2687-1.2687z" color="#bebebe" fill="currentColor"/>
</svg>
