<svg width="16" height="16" version="1.1" viewBox="0 0 16 16" xmlns="http://www.w3.org/2000/svg">
<defs>
<style id="current-color-scheme" type="text/css">.ColorScheme-Text { color:#5c616c; } .ColorScheme-Highlight { color:#5294e2; }</style>
</defs>
<path class="ColorScheme-Text" d="m2.25 4.0039c-0.1385 0-0.25 0.1115-0.25 0.25v1.5c0 0.1385 0.1115 0.25 0.25 0.25h1.5c0.1385 0 0.25-0.1115 0.25-0.25v-1.5c0-0.1385-0.1115-0.25-0.25-0.25h-1.5zm3 0c-0.1385 0-0.25 0.1115-0.25 0.25v1.5c0 0.1385 0.1115 0.25 0.25 0.25h1.5c0.1385 0 0.25-0.1115 0.25-0.25v-1.5c0-0.1385-0.1115-0.25-0.25-0.25h-1.5zm3 0c-0.1385 0-0.25 0.1115-0.25 0.25v1.5c0 0.1385 0.1115 0.25 0.25 0.25h1.5c0.1385 0 0.25-0.1115 0.25-0.25v-1.5c0-0.1385-0.1115-0.25-0.25-0.25h-1.5zm3 0c-0.1385 0-0.25 0.1115-0.25 0.25v1.5c0 0.1385 0.1115 0.25 0.25 0.25h1.5c0.1385 0 0.25-0.1115 0.25-0.25v-1.5c0-0.1385-0.1115-0.25-0.25-0.25h-1.5zm-9 3c-0.1385 1e-7 -0.25 0.1115-0.25 0.25v1.5c0 0.1385 0.1115 0.25 0.25 0.25h1.5c0.1385 0 0.25-0.1115 0.25-0.25v-1.5c0-0.1385-0.1115-0.25-0.25-0.25h-1.5zm3 0c-0.1385 1e-7 -0.25 0.1115-0.25 0.25v1.5c0 0.1385 0.1115 0.25 0.25 0.25h1.5c0.1385 0 0.25-0.1115 0.25-0.25v-1.5c0-0.1385-0.1115-0.25-0.25-0.25h-1.5zm3 0c-0.1385 1e-7 -0.25 0.1115-0.25 0.25v1.5c0 0.1385 0.1115 0.25 0.25 0.25h1.5c0.1385 0 0.25-0.1115 0.25-0.25v-1.5c0-0.1385-0.1115-0.25-0.25-0.25h-1.5zm3 0c-0.1385 1e-7 -0.25 0.1115-0.25 0.25v1.5c0 0.1385 0.1115 0.25 0.25 0.25h1.5c0.1385 0 0.25-0.1115 0.25-0.25v-1.5c0-0.1385-0.1115-0.25-0.25-0.25h-1.5zm-9 3c-0.1385 0-0.25 0.1115-0.25 0.25v1.5c0 0.1385 0.1115 0.25 0.25 0.25h1.5c0.1385 0 0.25-0.1115 0.25-0.25v-1.5c0-0.1385-0.1115-0.25-0.25-0.25h-1.5zm3 0c-0.1385 0-0.25 0.1115-0.25 0.25v1.5c0 0.1385 0.1115 0.25 0.25 0.25h1.5c0.1385 0 0.25-0.1115 0.25-0.25v-1.5c0-0.1385-0.1115-0.25-0.25-0.25h-1.5zm3 0c-0.1385 0-0.25 0.1115-0.25 0.25v1.5c0 0.1385 0.1115 0.25 0.25 0.25h1.5c0.1385 0 0.25-0.1115 0.25-0.25v-1.5c0-0.1385-0.1115-0.25-0.25-0.25h-1.5zm3 0c-0.1385 0-0.25 0.1115-0.25 0.25v1.5c0 0.1385 0.1115 0.25 0.25 0.25h1.5c0.1385 0 0.25-0.1115 0.25-0.25v-1.5c0-0.1385-0.1115-0.25-0.25-0.25h-1.5z" fill="#dedede" fill-opacity=".85098"/>
</svg>
