<svg width="16" height="16" version="1.1" viewBox="0 0 16 16" xmlns="http://www.w3.org/2000/svg">
<defs>
<style id="current-color-scheme" type="text/css">.ColorScheme-Text { color:#5c616c; } .ColorScheme-Highlight { color:#5294e2; }</style>
</defs>
<path class="ColorScheme-Text" d="m2.5 2c-0.82235 0-1.5 0.67765-1.5 1.5s0.67765 1.5 1.5 1.5 1.5-0.67765 1.5-1.5-0.67765-1.5-1.5-1.5zm7.5 0-5.0625 7h3.0625v4h4v-4h3.1875l-5.1875-7zm-7.5 4c-0.82235 0-1.5 0.67765-1.5 1.5s0.67765 1.5 1.5 1.5 1.5-0.67765 1.5-1.5-0.67765-1.5-1.5-1.5zm0 4c-0.82235 0-1.5 0.67765-1.5 1.5s0.67765 1.5 1.5 1.5 1.5-0.67765 1.5-1.5-0.67765-1.5-1.5-1.5z" fill="#f1f6f8" fill-opacity=".85098"/>
</svg>
