<svg width="16" height="16" enable-background="new" version="1.1" xmlns="http://www.w3.org/2000/svg">
<g transform="translate(-361 243)">
<path d="m369-243-0.5 1.0312c0.16526-0.0117 0.33177-0.0312 0.5-0.0312s0.33474 0.0196 0.5 0.0312l-0.5-1.0312zm0 2c-3.3137 0-6 2.6863-6 6s2.6863 6 6 6 6-2.6863 6-6-2.6863-6-6-6zm-5.6562 0.34375 0.375 1.0938c0.21793-0.25121 0.46754-0.50082 0.71875-0.71875l-1.0938-0.375zm11.312 0-1.0938 0.375c0.25121 0.21793 0.50082 0.46754 0.71875 0.71875l0.375-1.0938zm-12.625 5.1562-1.0312 0.5 1.0312 0.5c-0.0117-0.16526-0.0312-0.33177-0.0312-0.5s0.0196-0.33474 0.0312-0.5zm13.938 0c0.0117 0.16526 0.0312 0.33177 0.0312 0.5s-0.0196 0.33474-0.0312 0.5l1.0312-0.5-1.0312-0.5zm-12.25 5.0625-0.375 1.0938 1.0938-0.375c-0.25121-0.21793-0.50082-0.46754-0.71875-0.71875zm10.562 0c-0.21793 0.25121-0.46754 0.50082-0.71875 0.71875l1.0938 0.375-0.375-1.0938zm-5.7812 2.4062 0.5 1.0312 0.5-1.0312c-0.16526 0.0117-0.33177 0.0312-0.5 0.0312s-0.33474-0.0196-0.5-0.0312z" color="#555555" fill="#555" stroke-width="2"/>
</g>
</svg>
