<svg width="16" height="16" enable-background="new" version="1.1" xmlns="http://www.w3.org/2000/svg" xmlns:osb="http://www.openswatchbook.org/uri/2009/osb">
<defs>
<filter color-interpolation-filters="sRGB">
<feBlend in2="BackgroundImage" mode="darken"/>
</filter>
</defs>
<g transform="translate(-505 335)" fill="#555">
<path d="m513-335c-2.0711 0-3.8347 1.2679-4.5938 3.0625-1.9278 0.2866-3.4062 1.9299-3.4062 3.9375 0 1.933 1.3648 3.5333 3.1875 3.9062 0.76412-0.77854 1.5212-1.5614 2.3125-2.3125 0.57304 0.53801 1.1331 1.0992 1.6875 1.6562 0.24292-0.069 0.38252-0.84617 0.71875-1.0938 0.85427-0.86808 1.7092-1.7248 2.5938-2.5625 0.66629 0.62449 1.2915 1.2611 1.9375 1.9062 0.59794 0.57143 1.2276 1.2036 1.4375 2.0312 0.016 0.0511 0.018 0.10465 0.0312 0.15625 1.2352-0.54049 2.0938-1.753 2.0938-3.1875 0-1.7965-1.3508-3.2687-3.0938-3.4688-0.45457-2.2934-2.4794-4.0312-4.9062-4.0312zm2.5 9.4375c-0.0852 0.0828-0.1647 0.1673-0.25 0.25-0.39699 0.41584-0.89926 0.78359-1.125 1.3125h2.7812c-0.0262-0.0614-0.0565-0.12918-0.0937-0.1875-0.3731-0.51309-0.87897-0.91335-1.3125-1.375z"/>
<path class="link" d="m515.5-327-0.34375 0.34375-1.4062 1.4062c-0.45315 0.45315-0.75 1.0626-0.75 1.75 0 1.3748 1.1252 2.5 2.5 2.5s2.5-1.1252 2.5-2.5c0-0.6874-0.29685-1.2968-0.75-1.75l-1.4062-1.4062zm-5 2-0.34375 0.34375-1.4062 1.4062c-0.45315 0.45315-0.75 1.0626-0.75 1.75 0 1.3748 1.1252 2.5 2.5 2.5s2.5-1.1252 2.5-2.5c0-0.6874-0.29685-1.2968-0.75-1.75l-1.4062-1.4062z" color="#000000" enable-background="accumulate" style="block-progression:tb;text-indent:0;text-transform:none"/>
</g>
</svg>
