<svg width="16" height="16" version="1.1" viewBox="0 0 16 16" xmlns="http://www.w3.org/2000/svg">
<defs>
<style id="current-color-scheme" type="text/css">.ColorScheme-Text { color:#5c616c; } .ColorScheme-Highlight { color:#5294e2; }</style>
</defs>
<path class="ColorScheme-Text" d="m7.5 0v1.8125h1v-1.8125h-1zm-4.8125 1.9688-0.71875 0.71875 1.2812 1.3125 0.71875-0.75-1.2812-1.2812zm10.623 0-1.2793 1.2812 0.71875 0.75 1.2812-1.3125-0.7207-0.71875zm-5.3105 1.0312c-2.7614 0-5 2.2386-5 5 0 2.761 2.2386 5 5 5 2.761 0 5-2.239 5-5 0-2.7614-2.239-5-5-5zm0 2a3 3 0 0 1 3 3 3 3 0 0 1-3 3 3 3 0 0 1-3-3 3 3 0 0 1 3-3zm-8 2.5v1h1.8125v-1h-1.8125zm14.188 0v1h1.8125v-1h-1.8125zm-10.938 4.5312-1.2812 1.2812 0.71875 0.71875 1.2812-1.2812-0.71875-0.71875zm9.5 0-0.71875 0.71875 1.2793 1.2812 0.7207-0.71875-1.2812-1.2812zm-5.25 2.1562v1.8125h1v-1.8125h-1z" fill="#f1f6f8" fill-opacity=".85098"/>
</svg>
