<svg width="16" height="16" version="1.1" viewBox="0 0 16 16" xmlns="http://www.w3.org/2000/svg">
<defs>
<style id="current-color-scheme" type="text/css">.ColorScheme-Text { color:#5c616c; } .ColorScheme-Highlight { color:#5294e2; }</style>
</defs>
<path class="ColorScheme-Text" d="m11.004 3.9824a1 1 0 0 0-0.70703 0.29297l-2.293 2.293-2.2832-2.2832a1 1 0 0 0-0.0097656-0.0097656 1 1 0 0 0-0.70117-0.28906l-0.0097656 0.013672a1 1 0 0 0-1 1 1 1 0 0 0 0.29297 0.70703l2.293 2.293-2.293 2.293a1 1 0 0 0-0.28906 0.69922 1 1 0 0 0 1 1 1 1 0 0 0 0.70703-0.29297l2.293-2.293 2.2832 2.2832a1 1 0 0 0 0.7168 0.30274 1 1 0 0 0 1-1 1 1 0 0 0-0.29297-0.70703l-2.3008-2.2988 2.2832-2.2832a1 1 0 0 0 0.31055-0.7207 1 1 0 0 0-1-1z" fill="currentColor" fill-opacity=".85098"/>
</svg>
