<svg width="16" height="16" version="1.1" viewBox="0 0 16 16" xmlns="http://www.w3.org/2000/svg">
<defs>
<style id="current-color-scheme" type="text/css">.ColorScheme-Text { color:#5c616c; } .ColorScheme-Highlight { color:#5294e2; }</style>
</defs>
<path class="ColorScheme-Text" d="m1.998 1s-0.079688 0.0044375-0.17969 0.023438c-0.20412 0.03015-0.35869 0.1035-0.47266 0.20312-0.022 0.01694-0.043453 0.035068-0.064453 0.054688-0.0196 0.02097-0.037788 0.042383-0.054688 0.064453-0.09963 0.11398-0.17302 0.26854-0.20312 0.47266-0.0194 0.10541-0.023438 0.18164-0.023438 0.18164v12c0 1 1 1 1 1h12s1 0 1-1v-12s-0.004037-0.076231-0.023438-0.18164c-0.03015-0.20412-0.10352-0.35869-0.20312-0.47266-0.017001-0.02207-0.035088-0.043483-0.054688-0.064453-0.0209-0.01962-0.042353-0.037748-0.064453-0.054688-0.11397-0.09963-0.26854-0.17298-0.47266-0.20312-0.10544-0.01934-0.18164-0.023438-0.18164-0.023438h-0.001953-12zm1.002 5h10v7h-10v-7zm5 1-3 2.5 3 2.5v-2h3v-1h-3v-2z" fill="#f1f6f8" fill-opacity=".85098"/>
</svg>
