<svg width="16" height="16" version="1.1" viewBox="0 0 16 16" xmlns="http://www.w3.org/2000/svg">
<defs>
<style id="current-color-scheme" type="text/css">.ColorScheme-Text { color:#5c616c; } .ColorScheme-Highlight { color:#5294e2; }</style>
</defs>
<path class="ColorScheme-Text" d="m7.9941 2c-1.87 0-3.3939 1.5345-3.4492 3.4512-0.04593 0.01147-0.091546 0.029884-0.13477 0.052734-0.43005 0.22704-0.54034 0.9362-0.24609 1.5918 0.23671 0.52745 0.65752 0.85386 1.0391 0.84375 0.28722 1.7528 1.4304 3.0605 2.791 3.0605 0.0041 0 0.0075888 2e-5 0.011719 0 1.3606 0 2.5038-1.3076 2.791-3.0605 0.38154 0.01009 0.80038-0.3163 1.0371-0.84375 0.29424-0.65564 0.1859-1.3648-0.24414-1.5918-0.04328-0.02285-0.088776-0.041264-0.13477-0.052734-0.05532-1.9167-1.5792-3.4512-3.4492-3.4512-0.0041-2e-5 -0.0075888 0-0.011719 0zm2.4004 9c-0.28889 0.70052-1.274 1.2266-2.4492 1.2266-1.1698 0-2.1457-0.51912-2.4395-1.2148-2.4691 0.25815-4.2682 0.8895-4.4844 1.6367-3e-3 0.0071 2e-3 0.016307 0 0.023437-7e-3 0.02689-0.0087188 0.050825-0.011719 0.078125-1e-3 0.01233-0.0097656 0.020573-0.0097656 0.033203-9e-5 0.0041 0 0.005766 0 0.009766v1.8496c0 0.19754 0.15571 0.35742 0.34961 0.35742h13.301c0.1939 0 0.34961-0.15989 0.34961-0.35742v-1.8496c0-0.0082 3.5e-4 -0.013335 0-0.021485-2e-3 -0.0433-0.020803-0.080457-0.033203-0.12305-0.221-0.756-2.0583-1.3964-4.5723-1.6484z" fill="currentColor" fill-opacity=".85098"/>
</svg>
