<svg width="16" height="16" version="1.1" viewBox="0 0 16 16" xmlns="http://www.w3.org/2000/svg">
<defs>
<style id="current-color-scheme" type="text/css">.ColorScheme-Text { color:#5c616c; } .ColorScheme-Highlight { color:#5294e2; }</style>
</defs>
<path class="ColorScheme-Text" d="m3.1875 2c-0.6627 0-1.1875 0.54895-1.1875 1.2188v3.7812h2v-3h3v-2h-3.8125zm5.8125 0v2h3v3h2v-3.7812c0-0.6699-0.5245-1.2188-1.1875-1.2188h-3.8125zm-2 3v6h2v-6h-2zm-1 1-2 2 2 2v-4zm4 0v4l2-2-2-2zm-8 3v3.7812c0 0.67 0.5248 1.2188 1.1875 1.2188h3.8125v-2h-3v-3h-2zm10 0v3h-3v2h3.8125c0.663 0 1.1875-0.54875 1.1875-1.2188v-3.7812h-2z" fill="#f1f6f8" fill-opacity=".85098"/>
</svg>
