<?xml version="1.0" encoding="UTF-8" standalone="no"?>
<svg
   width="128"
   height="128"
   version="1.1"
   viewBox="0 0 128 128"
   id="svg20"
   sodipodi:docname="applications.svg"
   inkscape:version="1.4.3 (0d15f75042, 2025-12-25)"
   inkscape:export-filename="applications.svg"
   inkscape:export-xdpi="96"
   inkscape:export-ydpi="96"
   xmlns:inkscape="http://www.inkscape.org/namespaces/inkscape"
   xmlns:sodipodi="http://sodipodi.sourceforge.net/DTD/sodipodi-0.dtd"
   xmlns="http://www.w3.org/2000/svg"
   xmlns:svg="http://www.w3.org/2000/svg">
  <sodipodi:namedview
     id="namedview20"
     pagecolor="#ffffff"
     bordercolor="#000000"
     borderopacity="0.25"
     inkscape:showpageshadow="2"
     inkscape:pageopacity="0.0"
     inkscape:pagecheckerboard="0"
     inkscape:deskcolor="#d1d1d1"
     inkscape:zoom="7.1328125"
     inkscape:cx="63.859803"
     inkscape:cy="63.929901"
     inkscape:window-width="1920"
     inkscape:window-height="1168"
     inkscape:window-x="0"
     inkscape:window-y="0"
     inkscape:window-maximized="1"
     inkscape:current-layer="svg20" />
  <defs
     id="defs13">
    <linearGradient
       id="linearGradient828"
       x1="655.16"
       x2="655.16"
       y1="211.5"
       y2="419.86"
       gradientTransform="matrix(.39478 0 0 .39478 -194.76 -53.484)"
       gradientUnits="userSpaceOnUse">
      <stop
         stop-color="#66aed7"
         offset="0"
         id="stop1" />
      <stop
         stop-color="#6cb1d7"
         offset=".33128"
         id="stop2" />
      <stop
         stop-color="#76b6d7"
         offset=".50478"
         id="stop3" />
      <stop
         stop-color="#7bb6d5"
         offset=".60396"
         id="stop4" />
      <stop
         stop-color="#77b2d0"
         offset=".80198"
         id="stop5" />
      <stop
         stop-color="#6aa4c2"
         offset="1"
         id="stop6" />
    </linearGradient>
    <linearGradient
       id="linearGradient859"
       x1="-286.85"
       x2="-286.85"
       y1="201.42"
       y2="326.3"
       gradientTransform="matrix(.39478 0 0 .39478 167.73 -64.642)"
       gradientUnits="userSpaceOnUse">
      <stop
         stop-color="#608ea7"
         offset="0"
         id="stop7" />
      <stop
         stop-color="#5887a2"
         offset=".16505"
         id="stop8" />
      <stop
         stop-color="#4e7890"
         offset=".29031"
         id="stop9" />
      <stop
         stop-color="#4a7289"
         offset=".34926"
         id="stop10" />
      <stop
         stop-color="#345a6c"
         offset=".38956"
         id="stop11" />
      <stop
         stop-color="#33586d"
         offset=".444"
         id="stop12" />
      <stop
         stop-color="#4e88a4"
         stop-opacity="0"
         offset="1"
         id="stop13" />
    </linearGradient>
  </defs>
  <path
     d="m7.9342 15.215c-3.391 0-6.1214 2.7297-6.1214 6.1206v27.211c19.294 15.457 121.85 17.085 124.92 4.1073v-21.828c0-3.391-2.7304-6.1206-6.1214-6.1206h-71.623c-3.596 0-5.767-4.553-8.2038-7.8536-1.0918-1.0164-2.5579-1.6365-4.1743-1.6365z"
     fill="url(#linearGradient859)"
     style="paint-order:fill markers stroke"
     id="path13" />
  <path
     d="m8.3844 30.357c-3.6124 0-6.5208 2.9077-6.5208 6.52v72.546c0 1.8154 1.4616 3.277 3.277 3.277h118.3c1.8154 0 3.277-1.4616 3.277-3.277v-72.546c0-3.6123-2.9077-6.52-6.52-6.52z"
     fill="url(#linearGradient828)"
     style="paint-order:fill markers stroke"
     id="path14" />
  <path
     d="m8.384 30.357c-3.6124 0-6.5208 2.9077-6.5208 6.52v0.27527c0-3.6123 2.9085-6.52 6.5208-6.52h111.81c3.6123 0 6.52 2.9077 6.52 6.52v-0.27527c0-3.6123-2.9077-6.52-6.52-6.52z"
     fill="#ebf5fa"
     fill-opacity=".23626"
     style="paint-order:fill markers stroke"
     id="path15" />
  <path
     d="m2.095 102.95h124.29"
     fill="none"
     stroke="#fff"
     stroke-opacity=".25275"
     stroke-width=".31582"
     id="path16" />
  <g
     transform="matrix(.39478 0 0 .39478 -44.909 -40.529)"
     fill="none"
     stroke-width=".8"
     id="g18">
    <path
       d="m118.62 371.57h314.84"
       stroke="#fff"
       stroke-opacity=".18681"
       id="path17" />
    <path
       d="m118.62 370.75h314.84"
       stroke="#22394c"
       stroke-opacity=".27473"
       id="path18" />
  </g>
  <g
     transform="matrix(.39478 0 0 .39478 -44.909 -37.089)"
     fill="none"
     stroke-width=".8"
     id="g20">
    <path
       d="m118.62 371.57h314.84"
       stroke="#fff"
       stroke-opacity=".18681"
       id="path19" />
    <path
       d="m118.62 370.75h314.84"
       stroke="#22394c"
       stroke-opacity=".2967"
       id="path20" />
  </g>
  <g
     id="svg13"
     transform="matrix(7.086753,0,0,7.086753,3.9999717,0.21250389)">
    <path
       d="M 7.7609629,5.6143478 V 7.0254305 H 7.0554213 L 8.4665045,8.5659812 9.8775886,7.0254305 H 9.172046 V 5.6143478 Z M 8.1137338,9.1420547 V 9.5308064 A 1.7638541,1.7638541 0 0 0 7.4949737,9.7883277 L 7.2194597,9.5128146 6.7206418,10.01163 6.9961558,10.287146 A 1.7638541,1.7638541 0 0 0 6.7396914,10.905912 H 6.3498796 v 0.705543 H 6.738633 c 0.045508,0.220834 0.1329947,0.430733 0.2575228,0.618759 l -0.275514,0.275513 0.4988179,0.498819 0.275514,-0.275161 a 1.7638541,1.7638541 0 0 0 0.6187601,0.25611 v 0.389812 h 0.7055415 v -0.388048 a 1.7638541,1.7638541 0 0 0 0.6187609,-0.257522 l 0.2755134,0.27516 0.4988184,-0.498816 -0.2755144,-0.275516 a 1.7638541,1.7638541 0 0 0 0.2564644,-0.61911 H 10.58313 V 10.905912 H 10.194376 A 1.7638541,1.7638541 0 0 0 9.9368536,10.287146 L 10.212368,10.01163 9.7135496,9.5128146 9.4380362,9.7883277 A 1.7638541,1.7638541 0 0 0 8.8192753,9.5318644 V 9.1420547 Z m 0.3527707,1.0583103 a 1.0583154,1.0583157 0 1 1 0,2.116631 1.0583153,1.0583157 0 0 1 0,-2.116631"
       opacity="0.15"
       id="path18-3"
       style="stroke-width:0.352771" />
  </g>
</svg>
