<svg width="128" height="128" version="1.1" viewBox="0 0 128 128" xmlns="http://www.w3.org/2000/svg">
<defs>
<linearGradient id="linearGradient828" x1="655.16" x2="655.16" y1="211.5" y2="419.86" gradientTransform="matrix(.39478 0 0 .39478 -194.76 -53.484)" gradientUnits="userSpaceOnUse">
<stop stop-color="#66aed7" offset="0"/>
<stop stop-color="#6cb1d7" offset=".33128"/>
<stop stop-color="#76b6d7" offset=".50478"/>
<stop stop-color="#7bb6d5" offset=".60396"/>
<stop stop-color="#77b2d0" offset=".80198"/>
<stop stop-color="#6aa4c2" offset="1"/>
</linearGradient>
<linearGradient id="linearGradient859" x1="-286.85" x2="-286.85" y1="201.42" y2="326.3" gradientTransform="matrix(.39478 0 0 .39478 167.73 -64.642)" gradientUnits="userSpaceOnUse">
<stop stop-color="#608ea7" offset="0"/>
<stop stop-color="#5887a2" offset=".16505"/>
<stop stop-color="#4e7890" offset=".29031"/>
<stop stop-color="#4a7289" offset=".34926"/>
<stop stop-color="#345a6c" offset=".38956"/>
<stop stop-color="#33586d" offset=".444"/>
<stop stop-color="#4e88a4" stop-opacity="0" offset="1"/>
</linearGradient>
<linearGradient id="linearGradient1027" x1="154.29" x2="154.29" y1="84.772" y2="128.74" gradientTransform="translate(-89.997,-35.409)" gradientUnits="userSpaceOnUse">
<stop stop-color="#5291bd" offset="0"/>
<stop stop-color="#5291bd" offset=".12336"/>
<stop stop-color="#5e99b9" offset="1"/>
</linearGradient>
<style id="current-color-scheme" type="text/css">.ColorScheme-Text {
        color:#4d4d4d;
      }</style>
<style id="current-color-scheme-3" type="text/css">.ColorScheme-Text {
        color:#4d4d4d;
      }</style>
</defs>
<path d="m7.9342 15.215c-3.391 0-6.1214 2.7297-6.1214 6.1206v27.211c19.294 15.457 121.85 17.085 124.92 4.1073v-21.828c0-3.391-2.7304-6.1206-6.1214-6.1206h-71.623c-3.596 0-5.767-4.553-8.2038-7.8536-1.0918-1.0164-2.5579-1.6365-4.1743-1.6365z" fill="url(#linearGradient859)" style="paint-order:fill markers stroke"/>
<path d="m8.3844 30.357c-3.6124 0-6.5208 2.9077-6.5208 6.52v72.546c0 1.8154 1.4616 3.277 3.277 3.277h118.3c1.8154 0 3.277-1.4616 3.277-3.277v-72.546c0-3.6123-2.9077-6.52-6.52-6.52z" fill="url(#linearGradient828)" style="paint-order:fill markers stroke"/>
<path d="m8.384 30.357c-3.6124 0-6.5208 2.9077-6.5208 6.52v0.27527c0-3.6123 2.9085-6.52 6.5208-6.52h111.81c3.6123 0 6.52 2.9077 6.52 6.52v-0.27527c0-3.6123-2.9077-6.52-6.52-6.52z" fill="#ebf5fa" fill-opacity=".23626" style="paint-order:fill markers stroke"/>
<path d="m2.095 102.95h124.29" fill="none" stroke="#fff" stroke-opacity=".25275" stroke-width=".31582"/>
<g transform="matrix(.39478 0 0 .39478 -44.909 -40.529)" fill="none" stroke-width=".8">
<path d="m118.62 371.57h314.84" stroke="#fff" stroke-opacity=".18681"/>
<path d="m118.62 370.75h314.84" stroke="#22394c" stroke-opacity=".27473"/>
</g>
<g transform="matrix(.39478 0 0 .39478 -44.909 -37.089)" fill="none" stroke-width=".8">
<path d="m118.62 371.57h314.84" stroke="#fff" stroke-opacity=".18681"/>
<path d="m118.62 370.75h314.84" stroke="#22394c" stroke-opacity=".2967"/>
</g>
<path d="m64.291 47.061c-0.79696 0-1.5994 0.06623-2.375 0.14453-1.5513 0.15661-3.0158 0.41627-4.459 0.86328-7.2161 2.235-12.941 7.9597-15.176 15.176-0.44701 1.4432-0.70668 2.9097-0.86328 4.4609-0.0783 0.77564-0.14453 1.5761-0.14453 2.373 0 0.79696 0.0662 1.5974 0.14453 2.373 0.15661 1.5513 0.41627 3.0177 0.86328 4.4609 2.235 7.2161 7.9597 12.941 15.176 15.176 1.4432 0.44701 2.9077 0.7067 4.459 0.86328 0.77564 0.0783 1.578 0.14453 2.375 0.14453s1.5974-0.0663 2.373-0.14453c1.5513-0.15651 3.0158-0.41627 4.459-0.86328 1.4415-0.44833 2.8673-1.0902 4.1719-1.7988 5.219-2.8281 9.2178-7.6041 11.006-13.377 0.44701-1.4432 0.70668-2.9097 0.86328-4.4609 0.0783-0.77564 0.14258-1.5761 0.14258-2.373 0-0.79449-0.064-1.5993-0.14258-2.373-0.15661-1.5513-0.41627-3.0177-0.86328-4.4609-0.89402-2.8864-2.3708-5.568-4.2441-7.8398-0.46907-0.56838-0.98911-1.0614-1.5098-1.582-2.0802-2.0802-4.5101-3.8013-7.2656-4.9629-0.68843-0.29118-1.4375-0.56685-2.1582-0.79102-1.4432-0.44701-2.9077-0.70668-4.459-0.86328-0.77564-0.0783-1.5761-0.14453-2.373-0.14453zm0 2.3027c3.4832 0 6.7577 0.85429 9.6387 2.373 0.07614 0.04014 0.13928 0.10347 0.21484 0.14453 0.05833 0.07718 0.04209 0.15836 0.14453 0.21484 0.07527 0.04189 0.14395 0.10701 0.21484 0.14453 0.1213 0.06698 0.24188 0.16984 0.2168 0.28711-0.03338 0.17148-0.31448 0.16153-0.43164 0.28711 0.01611 0.24264-0.08192 0.19818-0.14453 0.36133 0.03775 0.10473 0.12796 0.0894 0.14453 0.21484-0.02072 0.13396-0.19482 0.14908-0.14453 0.28711 0.22603 0.17585 0.43502 0.02923 0.64844 0 0.46867-0.05869 0.86164 0.01084 1.1504-0.21484-0.0305-0.17902 0.1396-0.2299 0.21484-0.35938 0.15276 0.1071 0.28194 0.2483 0.43164 0.35938-0.08792 0.03775-0.27985 0.09435-0.35938 0.14453-0.11716 0.07941-0.15308 0.19928-0.28711 0.28711-0.09621 0.06698-0.33119 0.28711-0.43164 0.28711-0.1213 0-0.34376-0.10149-0.43164-0.07227-0.12567 0.03775-0.07478 0.23886-0.2168 0.28906-0.27618 0.10035-0.76705-0.2715-0.86328 0.14258 0.11716 0.23846 0.51148 0.15941 0.7207 0.28906 0.12982 0.08378 0.32591 0.50424 0.35938 0.64648 0.03337 0.11716 0.05018 0.521 0 0.64648-0.12982 0.33467-0.47832 0.29744-0.86328 0.28906-0.10473 0-0.19078 0.0092-0.28711 0-0.64859-0.04189-1.291-0.24948-1.584 0.21484 0.02072 0.35559 0.07964 0.5537 0 0.86328-0.05846 0.2258-0.29968 0.37954-0.28711 0.57617 0.0046 0.10035 0.19171 0.29356 0.2168 0.43164 0.01611 0.07527-0.0336 0.22029 0 0.28711 0.10887 0.20508 0.38173-0.03337 0.57422 0 0.18414 0.02923 0.35938 0.29892 0.35938 0.50391 0 0.14639-0.05051 0.43197-0.14258 0.57422-0.18414 0.27609-0.52738 0.2107-0.79102 0.36133-0.21751 0.12544-0.30192 0.42893-0.43164 0.64648-0.1381 0.23427-0.27128 0.31377-0.2168 0.64844-0.18828 0.37232-0.40187 0.61112-0.79102 0.79102-0.11301 0.05018-0.25476 0.13958-0.35938 0.21484-0.08378 0.05846-0.16984 0.15306-0.28711 0.28711-0.14639 0.16319-0.35214 0.23582-0.43164 0.36133-0.05869 0.09621-0.0095 0.30001-0.07227 0.42969-0.09207 0.17585-0.24222 0.32819-0.35938 0.50391-0.05432 0.08378-0.15833 0.1801-0.2168 0.28906-0.13396 0.24264-0.31222 0.43314-0.28711 0.64648 0.02071 0.20508 0.27456 0.25174 0.28711 0.43164 0.01151 0.10035-0.0764 0.17831-0.07227 0.28711 0.0046 0.15905 0.05984 0.23386 0.07227 0.35938 0.02923 0.30958-0.15638 0.43507-0.21484 0.64844-0.02923 0.10035 0.02509 0.20763 0 0.28711-0.05018 0.1549-0.28487 0.24758-0.28906 0.43164-0.0046 0.12982 0.20437 0.24767 0.2168 0.43164 0.0092 0.12544-0.09736 0.24224-0.07227 0.35938 0.04603 0.22603 0.4727 0.54499 0.64844 0.7207 0.23852 0.23848 0.46963 0.39546 0.57422 0.64648 0.08792 0.21337 0.12404 0.55977 0.28711 0.71875 0.1213 0.11716 0.34909 0.16783 0.50391 0.28906 0.14639 0.11301 0.34907 0.16572 0.50391 0.28711 0.25526 0.20094 0.60189 0.60352 1.0078 0.57422 0.21337-0.01611 0.40796-0.10092 0.64648-0.14258 0.24688-0.04189 0.53995-0.16962 0.79102-0.14453 0.19242 0.02071 0.37533 0.15719 0.57617 0.14453 0.20922-0.01151 0.48025-0.1123 0.71875-0.2168 0.41428-0.17999 1.0517-0.5195 1.6543-0.43164 0.46029 0.06698 0.4688 0.58603 0.79102 0.79102 0.36822 0.03338 0.64263-0.07112 0.93555 0 0.22188 0.05432 0.48298 0.47275 0.50391 0.64844 0.02072 0.17999-0.11944 0.3187-0.14453 0.43164-0.05846 0.24264-0.10287 0.56396-0.14453 0.71875-0.03337 0.1213-0.07445 0.23805-0.07031 0.35938 0 0.10887 0.174 0.36166 0.28711 0.50391 0.1381 0.17585 0.33653 0.31146 0.50391 0.50391 0.30548 0.3514 0.43307 0.83053 0.64648 1.2949 0.05432 0.11716-0.05018 0.14065 0 0.28711-0.09207 0.70285-0.33072 1.1633-0.79102 1.9414-0.21751 0.251-0.43583 0.54954-0.43164 0.86328-0.01611 0.75302 0.39286 1.1432 0.35938 1.8711-0.07527 0.97892 0.0034 1.1314-0.07227 1.6543 0.33059 0.16733 0.16847 0.65863 0.07227 1.0059-0.14224 0.41414-0.27988 0.51686-0.35938 0.79297 0.17161 0.07434 0.31583 0.09126 0.50391 0.07031-3.7689 3.9184-9.0948 6.3301-14.961 6.3301-2.7459 0-5.3715-0.53949-7.7695-1.5098-0.0081-2e-3 0.0081-0.0691 0-0.0723 0.21751-0.0921 0.63397 0.16091 0.79297-0.14453 0.07964-0.14638-0.10473-0.42778 0-0.57421 0.07527-0.10036 0.56394-0.19171 0.71875-0.2168 0.22188-0.0378 0.44868 7e-3 0.57422-0.0723 0.1381-0.0879 0.31417-0.31484 0.28906-0.57422-0.01151-0.1213-0.12082-0.17847-0.2168-0.28711-0.07941-0.0921-0.01806-0.20528-0.07227-0.28906-0.10035-0.14639-0.24526-0.21804-0.28711-0.43164 0.30129-0.0585 0.71521 0.33831 1.1504 0.2168 0.20508-0.0587 0.55218-0.45602 0.64844-0.64844 0.02923-0.0587-0.03337-0.28813 0-0.35937 0.03775-0.07941 0.12992-0.10287 0.14258-0.14453 0.02923-0.11301-0.02509-0.14418 0-0.21484 0.07527-0.21337 0.30608-0.34912 0.43164-0.50391 0.09621-0.11716 0.20107-0.23805 0.28906-0.35938 0.10035-0.12982 0.1481-0.1741 0.21484-0.28711 0.06284-0.3807-0.23465-0.67315-0.14258-1.0078 0.10035-0.37651 0.64182-0.61949 1.0059-0.79102 0.12544-0.05869 0.25476-0.17733 0.35938-0.21484 0.25107-0.08793 0.55668-0.06097 0.79102-0.14453 0.39336-0.14224 0.52819-0.57579 0.7207-0.93555 0.09207-0.16733 0.19804-0.31032 0.21484-0.43164 0.01611-0.10887-0.02071-0.2338 0-0.35938 0.02071-0.12544 0.03889-0.22132 0.07227-0.35938 0.04603-0.17999 0.07227-0.51795 0.07227-0.71875 0-0.16733-0.06813-0.20878-0.07227-0.35938-0.02923-0.54384 0.15855-0.56627 0.35938-0.86328 0.10035-0.14639 0.1459-0.39934 0.2168-0.50391 0.33895-0.50202 0.90317-0.74839 0.86133-1.5098-0.01611-0.25102-0.10306-0.78378-0.28711-0.86328-0.10473-0.04603-0.34907-0.01392-0.50391-0.07227-0.49378-0.18414-0.85055-0.74919-1.3652-0.79102-0.10887-0.0046-0.16767 0.0046-0.28906 0-0.20094-0.0046-0.42053-0.19171-0.64648-0.2168-0.14224-0.01611-0.42022 0.04189-0.50391 0-0.12982-0.06284-0.11035-0.28825-0.21484-0.35938-0.08378-0.05869-0.22968-0.09849-0.35938-0.14453-0.20508-0.07941-0.33765-0.12578-0.57617-0.14258-0.07527-0.0046-0.27575 0.01151-0.35938 0-0.12982-0.02072-0.23803-0.14153-0.35938-0.2168-0.15053-0.09207-0.22629-0.15739-0.28906-0.28711 0.1381-0.45182-0.33957-0.52747-0.43164-0.79102-0.04189-0.1213 0.04189-0.32286 0-0.43164-0.05432-0.1549-0.18778-0.22972-0.35938-0.35938-0.30129-0.23429-0.57484-0.44954-1.0059-0.50391-0.19242-0.02071-0.41829 0.01611-0.64844 0-0.24269-0.01611-0.53464-0.15024-0.71875-0.35938-0.17585-0.20508-0.20456-0.4077-0.35938-0.50391-0.14639-0.09207-0.40348-0.11886-0.50391-0.21484-0.04603-0.04189-0.03037-0.12082-0.07227-0.2168-0.07527-0.15076-0.23465-0.1754-0.14258-0.35938-0.16733-0.08378-0.10914 0.10586-0.28906 0.07227-0.16319-0.23017-0.27826-0.35823-0.64648-0.28711-0.16733 0.03338-0.30722 0.28294-0.5039 0.28711-0.16319 0.0046-0.2905-0.25783-0.50391-0.28711-0.16319-0.02071-0.39092 0.16767-0.50391 0.14258-0.17999-0.03337-0.19627-0.25041-0.35937-0.35938-0.1213-0.07964-0.36469-0.29128-0.43164-0.28711-0.20923 0.0046-0.35776 0.4419-0.64649 0.28711-0.14224-0.17999 0.23974-0.19213 0.0723-0.35938-0.12544-0.12544-0.18857 0.0054-0.28906 0.07227-0.11716 0.07941-0.22968 0.16904-0.35938 0.21484-0.28875 0.10887-0.49279 0.09987-0.71875 0.2168-0.20922 0.10887-0.23803 0.29054-0.35937 0.50391-0.0962 0.17585-0.28519 0.42131-0.43164 0.42969-0.17585 0.01151-0.34489-0.2202-0.50391-0.28711-0.48122-0.20922-0.75286 0.14039-1.1504 0.14453-0.36825 0.0046-0.88001-0.58829-0.86328-0.93555 0.0115-0.21337 0.11944-0.52747 0.14453-0.79102 0.0207-0.20922 0.21093-0.38373 0.21484-0.57617 5e-3 -0.25519-0.40879-0.47265-0.57617-0.50195-0.39336-0.07112-0.91748 0.17585-1.3652 0-0.0838-0.14224 0.16466-0.22325 0.21484-0.36133 0.0292-0.07941-0.0292-0.12692 0-0.21484 0.0502-0.13396 0.22632-0.21713 0.28906-0.35938 0.046-0.10887 0.0243-0.29775 0.0703-0.43164 0.0543-0.15076 0.20413-0.2506 0.21679-0.35938 0.0161-0.14224-0.10401-0.3396-0.21679-0.43164-0.34733 0.02072-0.59015 0.05143-0.79102 0.14258-0.45191 0.20508-0.33489 0.79332-0.79102 0.93555-0.1549 0.05018-0.39846 0.1153-0.57421 0.14453 0.29763-1.5059 0.76035-2.947 1.3652-4.3164 0.15905 0.02923 0.29356 0.13187 0.43164 0.14453 0.38498 0.02923 0.4007-0.26431 0.71875-0.43164 0.3264 0.04603 0.49587-0.03338 0.79297 0 0.20094 0.02071 0.48748 0.27456 0.64648 0.28711 0.13396 0.0046 0.16156-0.16352 0.28711-0.14258 0.12545 0.02071 0.33846 0.27906 0.35938 0.42969 0.0207 0.18828-0.12486 0.36699-0.0703 0.57617 0.19679 0.20094 0.58291 0.31451 0.86328 0.43164 0.18413-0.15076 0.0292-0.50119 0-0.71875-5e-3 -0.09621 0.0115-0.20105 0-0.28906-0.0207-0.15053-0.0723-0.30001-0.0723-0.42969 0-0.59823 0.46157-0.84579 0.86328-1.0801 0.17148-0.10035 0.35131-0.28406 0.50196-0.35938 0.21336-0.10473 0.32814-0.11644 0.5039-0.2168 0.318-0.17999 0.61638-0.36921 0.86328-0.57422 0.11302-0.2719-0.0115-0.59555 0-0.86328 0.11302-0.07112 0.16588 0.01151 0.28711 0 0.19242-0.04189 0.25251-0.32288 0.36133-0.43164 0.0628-0.06284 0.28397-0.08192 0.35938-0.14453 0.19242-0.15076 0.19192-0.36468 0.35937-0.43164 0.0587-0.02071 0.19493-0.04522 0.28711-0.07031 0.12567-0.03337 0.30306-0.1459 0.50391-0.2168 0.12981-0.04603 0.45368-0.0222 0.5039-0.07227 0.06284-0.06284-0.01611-0.33541 0-0.43164 0.10036-0.47272 0.80002-0.48748 1.2227-0.64648 0.29291-0.11301 0.60914-0.34988 0.93555-0.28711-0.06284 0.2258-0.34348 0.15772-0.28906 0.42969 0.07112 0.3807 0.51453-0.08826 0.64844-0.14258 0.25526-0.10887 0.74334-0.16572 1.0781-0.28711 0.29291-0.1045 0.78006-0.30958 0.50391-0.64844-0.23017-0.01611-0.30306 0.20342-0.50391 0.28711-0.1381 0.02071-0.17002-0.06202-0.28711-0.07031-0.11301-0.0046-0.174 0.09125-0.28711 0.07031-0.11301-0.02071-0.27233-0.22551-0.28906-0.35938-0.04603-0.3514 0.36166-0.45937 0.50391-0.71875-0.09621-0.31796-0.52321-0.01909-0.79102-0.14453 0.02923-0.18828 0.13761-0.39396 0.35938-0.43164 0.17999-0.02923 0.60995 0.05753 0.71875 0.14453 0.06284 0.05432-0.02374 0.19907 0.07227 0.28711 0.10887 0.09621 0.28937 0.02072 0.43164 0 0.05018-0.23846-0.32895-0.13232-0.28711-0.28711 0.28454-0.18414 0.80306-0.0985 1.1504-0.14453 0.20094-0.02923 0.39622-0.19083 0.57617-0.28711 0.16733-0.09621 0.3262-0.23133 0.50195-0.07227 0.05018 0.17148-0.11886 0.27152-0.21484 0.35938-0.32221 0.28446-0.61221 0.60507-0.86328 0.93555 0.1549 0.15076 0.38704 0.04304 0.64648 0.07227 0.10035 0.01151 0.25669 0.0557 0.36133 0.07227 0.12567 0.02071 0.25893-0.02072 0.35938 0 0.17585 0.04189 0.18364 0.28711 0.35938 0.28711 0.28456 0 0.30784-0.2392 0.14453-0.43164 0.05018-0.1968 0.14167-0.36583 0.07031-0.50391-0.12982-0.25938-0.62137 0.04327-0.64648-0.28711-0.01611-0.20922 0.21175-0.27264 0.28711-0.43164-0.03337-0.4016 0.33091-0.42705 0.28906-0.79102-0.02072-0.15076-0.1844-0.145-0.28906-0.28711-0.05432-0.07527-0.07997-0.23467-0.14258-0.28906-0.21751-0.18414-0.62333-0.15051-0.64844-0.50195-0.01151-0.20922 0.02923-0.35028 0-0.57617-0.02923-0.21337-0.2476-0.82144-0.43164-0.86328-0.23433-0.05018-0.36612 0.37423-0.64648 0.50391-0.15053 0.07112-0.42136 0.10172-0.57617 0.07227-0.10035-0.02072-0.27454-0.09676-0.28711-0.28906-0.01036-0.11083 0.02586-0.14925 0.07227-0.21484 0.01082-0.01542-0.01128-0.05602 0-0.07227 1.8206-0.52324 3.765-0.79102 5.7539-0.79102zm-8.5605 1.8691c-0.20421 0.65394-0.79492 1.0281-1.582 1.0078-0.19242 0.18414-0.11035 0.5358-0.21484 0.79102-0.0879 0.21337-0.36279 0.37613-0.57617 0.35937-0.15491-0.01151-0.43165-0.21296-0.43165-0.35937 0-0.11999 0.11671-0.25528 0.14454-0.35938 0.84712-0.54774 1.734-1.0181 2.6602-1.4395zm17.623 0.71875c-0.07711 0.01381-0.14694 0.03245-0.21484 0.07227-0.15905 0.09621-0.16767 0.24305-0.28906 0.28906-0.17148 0.06284-0.40653 0.06017-0.43164 0.21484-0.02071 0.12982 0.1489 0.17 0.14453 0.28711-0.06284 0.1549-0.18319 0.17293-0.2168 0.36133 0.21337 0.34723 0.7442 0.0034 1.0078-0.07227 0.11716-0.03337 0.22434 0.019 0.28711-0.07227 0.07112-0.11302 0.01783-0.34493 0.07227-0.50391 0.05869-0.17585 0.23774-0.13234 0.2168-0.28711-0.01611-0.1549-0.31672-0.31415-0.57617-0.28906zm-22.801 2.6621c0.15343 0.18519 0.28187 0.45498 0 0.57617-0.0419 0.02071-0.54802 0.09319-0.64844 0.07227-0.0312-0.0044-0.0423-0.05284-0.0703-0.07227 0.21997-0.21367 0.48948-0.37237 0.71875-0.57617zm0.57422 0.71875c0.10035 0.0046 0.17181 0.20851 0.28906 0.2168 0.11301 0.0092 0.2923-0.09321 0.35937-0.07227 0.17585 0.04603 0.23974 0.3742 0.0723 0.50391-0.1381 0.01611-0.18878-0.16548-0.28906-0.14453-0.28456 0.05018-0.36081 0.59291-0.57422 0.57617-0.20094-0.02072-0.34968-0.42974-0.14453-0.57617 5e-3 -0.12567-0.0808-0.16155-0.0723-0.28711 0.0628-0.07941 0.19191-0.22923 0.35938-0.2168zm-0.9336 0.14453c0.0587 0 0.0494-0.02509 0.0703 0-0.0292 0.22165-0.1157 0.25479-0.2871 0.35938-0.29711 0.17999-0.47797 0.40613-0.57422 0.79102-0.0292 0.11301-0.36164 0.4609-0.50391 0.43164-0.33059-0.07112 0.13958-0.6948 0.21484-0.79102 0.0838-0.10473 0.19292-0.16984 0.28907-0.28711 0.0962-0.11716 0.123-0.36471 0.21484-0.43164 0.10035-0.07112 0.40044-0.08079 0.57617-0.07227zm28.34 0.57617c0.33057-0.02072 0.49584 0.3734 0.64648 0.57422 0.12544 0.16319 0.51367 0.39094 0.71875 0.50391 0.11716 0.06284 0.22965 0.15833 0.35938 0.2168 0.13598 0.06065 0.3433 0.13957 0.50391 0.28711 0.16059 0.14754 0.28278 0.37004 0.28906 0.50391 0.0046 0.13396-0.0932 0.23386-0.07227 0.35938 0.14496 0.02359 0.21955-0.1253 0.28711-0.28906 0.54237 0.77366 1.0052 1.601 1.4395 2.4473-0.08811 0.05457-0.12669 0.10703-0.14453 0.21484-0.04189 0.23427 0.13467 0.53435-0.2168 0.57617-0.22165 0.02923-0.48556-0.22222-0.79102-0.28906-0.12544-0.02923-0.33122 0.03337-0.43164 0-0.23017-0.07941-0.16267-0.3639-0.35938-0.50195-0.11301-0.07964-0.39427-0.19608-0.57422-0.2168-0.11301-0.01151-0.172 0.01611-0.28906 0-0.14224-0.01611-0.38675-0.0011-0.50391-0.07227-0.11301-0.07112-0.40039-0.19081-0.42969-0.28711-0.04603-0.1549 0.35102-0.37421 0.35938-0.50391 0.0092-0.10035-0.12358-0.13651-0.14453-0.28711-0.01611-0.09207 0.02072-0.22851 0-0.28711-0.02923-0.10887-0.18785-0.21265-0.35938-0.2168-0.15076 0-0.30192 0.07227-0.43164 0.07227-0.18414 0.0046-0.56087-0.09319-0.79102-0.07227-0.1381 0.01151-0.22965 0.06396-0.35938 0.07227-0.36406 0.02923-0.57872-0.02071-0.86328 0-0.20508 0.01151-0.59852 0.12715-0.79102 0.21484-0.09621 0.04603-0.16351 0.15419-0.28906 0.2168-0.05846 0.02923-0.13935 0.03889-0.21484 0.07227-0.11716 0.05432-0.31865 0.18561-0.43164 0.21484-0.16319 0.04189-0.35134-0.01151-0.64844 0-0.21337 0.01151-0.57003-0.03199-0.57422-0.28711-0.0046-0.38906 0.7099-0.22027 1.0781-0.28711 0.1381-0.02923 0.19193-0.19292 0.35938-0.28906 0.07964-0.04603 0.14153-0.0924 0.2168-0.14258 0.12544-0.08792 0.33845-0.2609 0.35938-0.36133 0.01611-0.09207-0.08491-0.22029-0.07227-0.28711 0.01611-0.08792 0.17414-0.17416 0.28711-0.28711 0.17585-0.17585 0.2863-0.39096 0.50391-0.50391 0.14639-0.07941 0.43695-0.09792 0.50391-0.21484 0.01611-0.13396-0.0046-0.16767 0-0.28906 0.09207-0.08378 0.06927-0.12601 0.14453-0.14258 0.22603-0.05018 0.45514 0.08297 0.71875 0.07031 0.11301-0.0046 0.23803 0.0099 0.35938-0.07031 0.10035-0.06698 0.18666-0.16662 0.28711-0.2168 0.10887-0.05869 0.22728-0.20656 0.36133-0.21484zm-25.727 0.19922c0.0536-0.0052 0.0982-0.0053 0.11914 0.01563-0.067 0.27611-0.71794 0.17284-0.93554 0.07227 6e-3 -0.05236 0.0892-0.06342 0.14453-0.07227 0.0554-0.0087 0.14782 0.0062 0.21484 0 0.0962-0.0046 0.18445 0 0.28906 0 0.0524 0 0.11437-0.01038 0.16797-0.01563zm25.828 0.49219c-6e-3 0.0053-0.01042 0.01929-0.03125 0.02734-0.1381 0.04603-0.20508 0.32174 0 0.35938 0.09621-0.05846 0.09758-0.18364 0.07227-0.35938-0.02716-0.02923-0.03503-0.03264-0.04102-0.02734zm-27.291 0.02734c0.0711 0 0.13958-0.02923 0.21485 0-0.19242 0.16319-0.45624 0.25479-0.79102 0.35938-0.15905 0.05018-0.40234 0.10336-0.43164-0.07227-0.0336-0.21751 0.14673-0.19413 0.28906-0.21484 0.18414-0.02072 0.50534-0.06812 0.71875-0.07227zm27.189 0.57617c-0.06698 0.02071-0.1459-0.0053-0.2168 0.07031 0.0046 0.23427 0.04603 0.37118 0 0.57617 0.13396 0.25938 0.43697 0.10336 0.50391-0.07227 0.07964-0.43509-0.08627-0.62861-0.28711-0.57422zm1.7969 1.1504c-0.18414-0.0092-0.32284 0.05557-0.43164 0.14258 0.1549 0.25102 0.44369 0.29856 0.79102 0.36133 0.12544-0.09207 0.08607-0.34493 0.14453-0.50391-0.15076 0-0.24753 0.0092-0.43164 0zm-36.539 8.8477c0.14698 0.18729 0.30629 0.40417 0.50391 0.50195 0.10472 0.05432 0.22546 0.04304 0.35937 0.07227 0.10887 0.02071 0.18254 0.11116 0.28711 0.14453 0.22188 0.07527 0.54497 0.06317 0.7207 0.14258 0.26783 0.11716 0.41632 0.58681 0.64649 0.7207 0.0115 0.13396-0.0419 0.25898 0 0.35938 0.10887 0.14639 0.32812 0.19099 0.5039 0.28711 0.21337 0.11716 0.30306 0.41186 0.50391 0.50391 0.0711 0.02923 0.17815-0.03337 0.28711 0 0.27618 0.08378 0.33765 0.50274 0.57617 0.43164 0.1549-0.04603 0.18976-0.28104 0.21484-0.43164 0.10473-0.11301 0.19605-0.28711 0.35938-0.28711 0.25942-0.0046 0.33538 0.31905 0.43164 0.57422 0.0543 0.14224 0.17928 0.28104 0.2168 0.43164 0.0628 0.25938 0.0543 0.9956 0 1.1504-0.067 0.19242-0.34489 0.29473-0.50391 0.50391-0.0753 0.10035-0.15833 0.22222-0.2168 0.28906-0.10035 0.12544-0.21168 0.17423-0.28711 0.28711-0.0419 0.06284-0.0347 0.19928-0.0723 0.28711-0.12567 0.26773-0.31953 0.46887-0.21484 0.79102 0.0419 0.12982 0.21484 0.27688 0.21484 0.43164 0 0.18414-0.40234 0.23084-0.43164 0.43164-0.0207 0.14639 0.17099 0.4518 0.2168 0.64844 0.0334 0.14639 0.27149 0.26314 0.35937 0.35938 0.14639 0.16319 0.29773 0.36504 0.43164 0.57422 0.26361 0.40579 0.38708 0.89749 0.64649 1.2949 0.1381 0.20508 0.41183 0.35864 0.5039 0.57617 0.046 0.10887-0.0419 0.33126 0 0.43164 0.15053 0.33888 0.88371 0.69595 1.2227 0.86328 0.15905 0.07964 0.2852 0.13106 0.43164 0.21484 0.22188 0.12567 0.67805 0.37956 0.79101 0.57617 0.10036 0.17585 0.16662 0.583 0.2168 0.86328 0.0628 0.36816-0.0161 0.68067 0 1.0781 0.0115 0.21751 0.0703 0.35862 0.0703 0.57617 0 0.07527 5e-3 0.21184 0 0.28711-5e-3 0.25938 0.0207 0.52747 0 0.79102-0.0115 0.14224-9e-3 0.31032 0 0.43164 0.0115 0.12982 0.13625 0.1741 0.14453 0.28711 9e-3 0.1213-0.15719 0.26512-0.14453 0.36133 0.0292 0.26357 0.31111 0.4761 0.36133 0.71875 0.0419 0.19242 0.0954 0.63318 0.0703 0.86328-0.0161 0.1213-0.0535 0.29778-0.0703 0.43164-0.0115 0.10473 0.0161 0.1909 0 0.28711-5.7352-3.6839-9.5664-10.084-9.5664-17.406 0-0.9388 0.0939-1.8267 0.21485-2.7324zm7.9121 2.084c0.20094-0.09207 0.16319 0.26395 0 0.28906-0.15491 0.02071-0.15053-0.21783 0-0.28906z" fill="url(#linearGradient1027)" stroke-width="2.2139"/>
<path d="m64.291 47.061c-0.79696 0-1.5994 0.06623-2.375 0.14453-1.5513 0.15661-3.0158 0.41627-4.459 0.86328-7.2161 2.235-12.941 7.9597-15.176 15.176-0.44701 1.4432-0.70668 2.9097-0.86328 4.4609-0.0783 0.77564-0.14453 1.5761-0.14453 2.373 0 0.21617 0.01478 0.43232 0.02344 0.64844 0.02324-0.5813 0.06397-1.1607 0.12109-1.7266 0.1566-1.5513 0.41627-3.0177 0.86328-4.4609 2.235-7.2161 7.9597-12.941 15.176-15.176 1.4432-0.44701 2.9077-0.70667 4.459-0.86328 0.77564-0.0783 1.578-0.14453 2.375-0.14453s1.5974 0.06623 2.373 0.14453c1.5513 0.1566 3.0158 0.41627 4.459 0.86328 0.72073 0.22417 1.4698 0.49984 2.1582 0.79102 2.7556 1.1616 5.1855 2.8827 7.2656 4.9629 0.52066 0.52066 1.0407 1.0136 1.5098 1.582 1.8733 2.2718 3.3501 4.9534 4.2441 7.8398 0.44701 1.4432 0.70667 2.9097 0.86328 4.4609 0.05729 0.56417 0.0965 1.1454 0.11914 1.7266 0.0085-0.21612 0.02344-0.43227 0.02344-0.64844 0-0.79449-0.064-1.5993-0.14258-2.373-0.15661-1.5513-0.41627-3.0177-0.86328-4.4609-0.89402-2.8864-2.3708-5.568-4.2441-7.8398-0.46907-0.56838-0.98911-1.0614-1.5098-1.582-2.0802-2.0802-4.5101-3.8013-7.2656-4.9629-0.68843-0.29118-1.4375-0.56685-2.1582-0.79102-1.4432-0.44701-2.9077-0.70668-4.459-0.86328-0.77564-0.0783-1.5761-0.14453-2.373-0.14453zm-3.8848 3.9609c-0.63368 0.11739-1.2602 0.25272-1.8691 0.42774-0.01128 0.01625 0.01082 0.05684 0 0.07226-0.04641 0.0656-0.08263 0.10402-0.07227 0.21484 0.01257 0.1923 0.18676 0.26834 0.28711 0.28906 0.15481 0.02945 0.42564-0.0011 0.57617-0.07227 0.28037-0.12968 0.41215-0.55409 0.64648-0.50391 0.18404 0.04184 0.40241 0.64991 0.43164 0.86328 0.02923 0.22589-0.01151 0.36695 0 0.57617 0.02511 0.35145 0.43093 0.31782 0.64844 0.50195 0.03224 0.028 0.05262 0.09057 0.07422 0.14844 0.02302-0.02527 0.05384-0.04553 0.06836-0.07617-0.03337-0.4016 0.33091-0.42705 0.28906-0.79102-0.02072-0.15076-0.1844-0.145-0.28906-0.28711-0.05432-0.07527-0.07997-0.23467-0.14258-0.28906-0.21751-0.18414-0.62333-0.15051-0.64844-0.50195-0.01143-0.20781 0.0281-0.34904 0-0.57227zm12.168 1.3652c-0.08115 0.02646-0.14392 0.0647-0.15625 0.14062-0.02071 0.12982 0.1489 0.17 0.14453 0.28711-0.06284 0.1549-0.18319 0.17293-0.2168 0.36133 0.21337 0.34723 0.7442 0.0034 1.0078-0.07227 0.11716-0.03337 0.22434 0.019 0.28711-0.07227 0.01955-0.03107 0.01787-0.08385 0.02344-0.12891-0.3575-0.18198-0.72093-0.3543-1.0898-0.51562zm-16.844 0.14062c-0.92614 0.42139-1.813 0.89172-2.6602 1.4395-0.02783 0.1041-0.14453 0.23939-0.14453 0.35938 0 0.14641 0.27673 0.34786 0.43164 0.35938 0.21338 0.01676 0.48827-0.14601 0.57617-0.35938 0.10449-0.25521 0.02242-0.60688 0.21484-0.79102 0.78711 0.02026 1.3778-0.35388 1.582-1.0078zm18.559 0.86328c-0.02072 0.13396-0.19482 0.14908-0.14453 0.28711 0.18668 0.14524 0.36158 0.07423 0.53711 0.02734-0.03911-0.0665-0.10022-0.12712-0.17774-0.16992-0.07089-0.03752-0.13957-0.10264-0.21484-0.14453zm-12.822 0.70898c-0.05278 0.23647-0.29788 0.31699-0.26953 0.6582-0.02493 0.05259-0.07324 0.09045-0.11719 0.13086 0.08899 0.0861 0.1268 0.22852 0.26172 0.22852 0.28456 0 0.30784-0.2392 0.14453-0.43164 0.05018-0.1968 0.14167-0.36583 0.07031-0.50391-0.02089-0.04174-0.05367-0.06442-0.08984-0.08203zm12.756 0.25586c-0.10205 0.0075-0.18947 0.04277-0.22266 0.18555 0.05033 0.10245 0.15549 0.14296 0.27148 0.16992 4e-3 -0.01019 0.01574-0.0135 0.01758-0.02539-0.01657-0.12544-0.10678-0.11012-0.14453-0.21484 0.02402-0.06258 0.05213-0.08583 0.07813-0.11523zm1.9355 0.04297c-0.07524 0.12947-0.24534 0.18035-0.21484 0.35937-0.2826 0.22088-0.66751 0.1606-1.123 0.21289 0.10194 0.14254 0.19656 0.32567 0.23633 0.45117 0.0084-0.0054 0.01275-0.01437 0.02344-0.01758 0.08788-0.02922 0.31034 0.07227 0.43164 0.07227 0.10045 1e-6 0.33543-0.22013 0.43164-0.28711 0.13403-0.08783 0.16995-0.2077 0.28711-0.28711 0.07952-0.05018 0.27146-0.10678 0.35938-0.14453-0.1497-0.11108-0.27888-0.25228-0.43164-0.35937zm-15.594 0.21875c-0.12667-0.02459-0.24755 0.06847-0.37305 0.14062-0.0012 6.4e-4 -0.0027 0.0013-0.0039 2e-3 0.02588 5.49e-4 0.04772-0.0049 0.07422-2e-3 0.10035 0.01151 0.25669 0.0557 0.36133 0.07227 0.01912 0.0032 0.03535-7.11e-4 0.05469 0 0.01971-0.0425 0.03184-0.08911 0.01563-0.14453-0.04394-0.03977-0.08668-0.06016-0.12891-0.06836zm-3.0957 0.45117c-0.17816 0.06315-0.27262 0.23938-0.29883 0.4082 0.2678 0.12544 0.69481-0.17342 0.79102 0.14453-0.07112 0.12969-0.20832 0.22088-0.32227 0.32422 0.231-0.05259 0.47702-0.10549 0.68164-0.17969 0.29292-0.1045 0.78006-0.30958 0.50391-0.64844-0.1433-0.01003-0.23206 0.06739-0.32227 0.15039 0.08833 0.04463 0.28718 0.03231 0.25 0.20898-0.14227 0.02072-0.32277 0.09621-0.43164 0-0.02337-0.02143-0.01692-0.05014-0.02344-0.07617-0.1134 0.0054-0.15561-0.05876-0.26367-0.06641-0.11301-0.0046-0.174 0.09125-0.28711 0.07031-0.10702-0.01961-0.24769-0.20272-0.27734-0.33594zm-6.916 0.83984c-0.22927 0.2038-0.49878 0.3625-0.71875 0.57617 0.028 0.01943 0.03911 0.06787 0.07031 0.07227 0.10042 0.02092 0.60654-0.05156 0.64844-0.07227 0.28187-0.12119 0.15343-0.39098 0-0.57617zm22.451 0.42188c-0.2783 9.07e-4 -0.51173 0.06471-0.6582 0.29688 0.02072 0.35559 0.07964 0.5537 0 0.86328-0.05846 0.2258-0.29968 0.37954-0.28711 0.57617 0.0046 0.10035 0.19171 0.29356 0.2168 0.43164 0.01611 0.07527-0.0336 0.22029 0 0.28711 0.01235 0.02326 0.03261 0.02422 0.04883 0.03711 5e-3 -0.01355 0.01784-0.02303 0.02148-0.03711 0.07964-0.30958 0.02072-0.50769 0-0.86328 0.29294-0.46432 0.93539-0.25673 1.584-0.21484 0.09633 0.0092 0.18238 0 0.28711 0 0.38496 0.0084 0.73346 0.04561 0.86328-0.28906 0.05018-0.12549 0.03337-0.52933 0-0.64648-0.02149-0.09135-0.11007-0.27367-0.20508-0.43164-0.17013 0.08645-0.40247 0.07783-0.6582 0.07227-0.10473 0-0.19078 0.0092-0.28711 0-0.3243-0.02095-0.64748-0.08294-0.92578-0.08203zm-21.877 0.29688c-0.15823-0.01174-0.27758 0.11947-0.34375 0.20117 0.17385-0.02173 0.37256-0.04954 0.53711-0.05469-0.06509-0.06327-0.12505-0.14335-0.19336-0.14648zm-0.93359 0.14453c-0.17573-0.0085-0.47582 0.0011-0.57617 0.07227-0.09184 0.06693-0.11864 0.31448-0.21484 0.43164-0.09615 0.11727-0.20526 0.18238-0.28906 0.28711-0.07526 0.09621-0.54543 0.7199-0.21484 0.79102 0.14227 0.02925 0.47471-0.31863 0.50391-0.43164 0.09625-0.38489 0.27711-0.61102 0.57422-0.79102 0.1714-0.10459 0.25791-0.13772 0.28711-0.35938-0.0209-0.02509-0.01161 0-0.07031 0zm1.582 0c-0.06178-0.01929-0.21542 0.06001-0.32812 0.06641-0.16454 0.10833-0.36597 0.19088-0.61328 0.26953 7.09e-4 0.0092 0.0063 0.01313 0.0059 0.02344-0.20515 0.14643-0.05641 0.55545 0.14453 0.57617 0.21341 0.01673 0.28966-0.52599 0.57422-0.57617 0.10028-0.02095 0.15096 0.16064 0.28906 0.14453 0.16744-0.1297 0.10358-0.45788-0.07226-0.50391zm26.758 0.57617c-0.07671 0.0047-0.14724 0.05218-0.21484 0.10547 8e-3 0.21026 0.04137 0.34808-2e-3 0.54102 0.05453 0.10557 0.13748 0.13038 0.2207 0.125 0.01962-0.02184 0.0404-0.04406 0.06641-0.05273 0.02083-8e-3 0.02525-0.02204 0.03125-0.02734s0.01386-0.0019 0.04102 0.02734c4.4e-4 0.0031-4.23e-4 0.0048 0 0.0078 0.0643-0.0397 0.121-0.09059 0.14453-0.15234 0.05196-0.28389-0.0069-0.45286-0.10547-0.5293-0.05579-0.02608-0.11292-0.04923-0.18164-0.04492zm-25.727 0.19922c-0.0536 0.0052-0.11557 0.01563-0.16797 0.01563-0.10461 0-0.19286-0.0046-0.28906 0-0.06702 0.0062-0.15944-0.0087-0.21484 0-0.05533 0.0089-0.13853 0.01991-0.14453 0.07227 0.2176 0.10057 0.86855 0.20385 0.93555-0.07227-0.02094-0.02093-0.06554-0.02083-0.11914-0.01563zm-1.4629 0.51953c-0.21341 0.0042-0.53461 0.05155-0.71875 0.07227-0.14233 0.02071-0.32266-0.0027-0.28906 0.21484 0.0293 0.17563 0.27259 0.12244 0.43164 0.07227 0.33478-0.10459 0.5986-0.19618 0.79102-0.35938-0.07527-0.02923-0.14374 0-0.21484 0zm28.738 0.46875c-0.06948 0.02587-0.13029 0.06284-0.18359 0.10547 0.1549 0.25102 0.44369 0.29856 0.79102 0.36133 0.02684-0.0197 0.04232-0.05011 0.05664-0.08203-0.15846-0.13938-0.35627-0.21846-0.48828-0.27734-0.06367-0.02869-0.11782-0.06912-0.17578-0.10742zm-2.4844 0.25c-0.1381 0.01151-0.22965 0.06396-0.35938 0.07227-0.36406 0.02923-0.57872-0.02071-0.86328 0-0.20508 0.01151-0.59853 0.12715-0.79102 0.21484-0.07094 0.03394-0.13845 0.10183-0.21289 0.16016-2.95e-4 0.06933 0.08354 0.18472 0.06836 0.27148-0.02092 0.10042-0.23393 0.27341-0.35938 0.36133-0.07527 0.05018-0.13716 0.09655-0.2168 0.14258-0.16745 0.09614-0.22127 0.25983-0.35938 0.28906-0.36822 0.06684-1.0827-0.10195-1.0781 0.28711 0.0042 0.25512 0.36085 0.29862 0.57422 0.28711 0.2971-0.01151 0.48525 0.04189 0.64844 0 0.11299-0.02923 0.31448-0.16052 0.43164-0.21484 0.0755-0.03338 0.15638-0.04304 0.21484-0.07227 0.12556-0.06261 0.19285-0.17077 0.28906-0.2168 0.19249-0.08769 0.58594-0.20333 0.79102-0.21484 0.28456-0.02071 0.49922 0.02923 0.86328 0 0.12972-0.0083 0.22127-0.06076 0.35938-0.07227 0.23015-0.02092 0.60688 0.07687 0.79102 0.07227 0.12972 0 0.28088-0.07227 0.43164-0.07227 0.08291 2e-3 0.16088 0.02852 0.22461 0.06641-0.02644-0.02247-0.07369-0.04541-0.08008-0.06641-0.04603-0.1549 0.35102-0.3742 0.35938-0.50391 0.0092-0.10035-0.12359-0.13651-0.14453-0.28711-0.01611-0.09207 0.02072-0.22851 0-0.28711-0.02923-0.10887-0.18785-0.21265-0.35938-0.2168-0.0088 0-0.01654 0.0034-0.02539 0.0039 0.04279 0.09738 0.06067 0.23499 0.02539 0.42774-0.06693 0.17563-0.36995 0.33164-0.50391 0.07227 0.0355-0.15808 0.02129-0.28648 0.0098-0.43945-0.19599-0.0099-0.51738-0.08364-0.72852-0.06445zm-4.748 1.2949c-0.08869-0.01538-0.19405 0.02658-0.29297 0.05664-0.0084 0.0026-0.01708 0.0055-0.02539 0.0078-0.08714 0.02138-0.17662 0.03481-0.25586 0.08008-0.21751 0.12544-0.30192 0.42893-0.43164 0.64648-0.1381 0.23427-0.27128 0.31377-0.2168 0.64844-0.18828 0.37232-0.40187 0.61112-0.79102 0.79102-0.11301 0.05018-0.25476 0.13958-0.35938 0.21484-0.08378 0.05846-0.16984 0.15306-0.28711 0.28711-0.14639 0.16319-0.35214 0.23582-0.43164 0.36133-0.05869 0.09621-0.0095 0.30001-0.07227 0.42969-0.09207 0.17585-0.24222 0.32819-0.35938 0.50391-0.05432 0.08378-0.15833 0.1801-0.2168 0.28906-0.13396 0.24264-0.31222 0.43314-0.28711 0.64648 0.02071 0.20508 0.27456 0.25174 0.28711 0.43164 0.01151 0.10035-0.0764 0.17831-0.07227 0.28711 4.76e-4 0.01645 0.0064 0.02231 0.0078 0.03711 0.02272-0.03651 0.04299-0.06854 0.06445-0.10742 0.05846-0.10896 0.16248-0.20528 0.2168-0.28906 0.11716-0.17571 0.2673-0.32806 0.35938-0.50391 0.06277-0.12968 0.01358-0.33348 0.07227-0.42969 0.0795-0.12551 0.28525-0.19814 0.43164-0.36133 0.11727-0.13405 0.20333-0.22865 0.28711-0.28711 0.10461-0.07527 0.24636-0.16466 0.35938-0.21484 0.38915-0.1799 0.60274-0.41869 0.79102-0.79102-0.05448-0.33467 0.0787-0.41417 0.2168-0.64844 0.12972-0.21756 0.21413-0.52104 0.43164-0.64648 0.26364-0.15062 0.60688-0.08524 0.79102-0.36133 0.09207-0.14224 0.14258-0.42783 0.14258-0.57422 0-0.20499-0.17524-0.47468-0.35938-0.50391zm6.2168 0.08398c0.05434 0.03818 0.10022 0.08416 0.11328 0.13281 0.02072 0.0586-0.01611 0.19504 0 0.28711 0.02094 0.1506 0.15373 0.18676 0.14453 0.28711-0.0084 0.1297-0.4054 0.349-0.35938 0.50391 0.0293 0.0963 0.31667 0.21599 0.42969 0.28711 0.11716 0.07117 0.36166 0.05616 0.50391 0.07227 0.11706 0.01611 0.17605-0.01151 0.28906 0 0.17995 0.02071 0.46121 0.13716 0.57422 0.2168 0.1967 0.13806 0.1292 0.42254 0.35938 0.50195 0.10042 0.03337 0.3062-0.02923 0.43164 0 0.30546 0.06684 0.56936 0.31829 0.79102 0.28906 0.35147-0.04182 0.17491-0.34191 0.2168-0.57617 0.01784-0.10781 0.05642-0.16027 0.14453-0.21484-0.0927-0.18064-0.19522-0.35462-0.29102-0.5332-0.0253 9e-3 -0.03524 0.02512-0.07031 0.0293-0.22165 0.02923-0.48556-0.22222-0.79102-0.28906-0.12544-0.02923-0.33122 0.03337-0.43164 0-0.23017-0.07941-0.16267-0.3639-0.35938-0.50195-0.11301-0.07964-0.39427-0.19608-0.57422-0.2168-0.11301-0.01151-0.172 0.01611-0.28906 0-0.14225-0.01611-0.38675-0.0011-0.50391-0.07227-0.0818-0.05148-0.22761-0.12805-0.32812-0.20313zm-29.633 2.2969c-0.0617 0.12048-0.10352 0.2571-0.10352 0.42578 0 0.0366 0.01512 0.08176 0.02148 0.12109 0.01612 0.0065 0.03526 0.015 0.05078 0.02148 0.14815-0.1213 0.08-0.36175 0.03125-0.56836zm-3.2695 2.3672c-0.34733 0.02072-0.59014 0.05143-0.79102 0.14258-0.45191 0.20508-0.33489 0.79332-0.79102 0.93555-0.06642 0.02152-0.1594 0.0395-0.24609 0.0625-0.12305 0.45342-0.23602 0.9109-0.32813 1.377 0.17575-0.02923 0.41932-0.09435 0.57422-0.14453 0.45613-0.14222 0.33911-0.73047 0.79102-0.93555 0.16957-0.07695 0.38339-0.10775 0.65039-0.12891 0.02402-0.02822 0.05564-0.05266 0.07031-0.08594 0.046-0.10887 0.02431-0.29775 0.07031-0.43164 0.0543-0.15076 0.20414-0.2506 0.2168-0.35938 0.0161-0.14224-0.10402-0.3396-0.2168-0.43164zm22.822 1.752c-0.03461 0.06091-0.07255 0.1192-0.0918 0.18945-0.02923 0.10035 0.02509 0.20763 0 0.28711-0.05018 0.1549-0.28487 0.24757-0.28906 0.43164-0.0046 0.12982 0.20437 0.24767 0.2168 0.43164 0.0092 0.12544-0.09736 0.24224-0.07227 0.35938 0.0097 0.04745 0.04271 0.10085 0.08008 0.1543 0.02141-0.02717 0.05444-0.05112 0.06445-0.08203 0.02509-0.07948-0.02923-0.18676 0-0.28711 0.05846-0.21337 0.24407-0.33886 0.21484-0.64844-0.01243-0.12551-0.06767-0.20033-0.07227-0.35938-0.0041-0.1088 0.08378-0.18676 0.07227-0.28711-0.0057-0.08143-0.06249-0.13557-0.12305-0.18945zm-22.348 0.40039c-0.15772 0.01472-0.32583 0.03951-0.49414 0.05469-0.01344 0.11089-0.01768 0.23221-0.05078 0.31055-0.06274 0.14224-0.23886 0.22542-0.28906 0.35938-0.0292 0.08792 0.0292 0.13543 0 0.21484-0.03838 0.10561-0.19163 0.17776-0.22461 0.26953 0.02476 0.0072 0.06105 0.0081 0.08203 0.01758 0.05404 0.02364 0.10051 0.06855 0.14648 0.11524 0.39288 0.05101 0.81536-0.10088 1.1465-0.04102 0.07071 0.01238 0.18836 0.07242 0.29688 0.14062 0.02862-0.12572 0.05312-0.23839 0.06445-0.35742 0.0207-0.20922 0.21093-0.38373 0.21484-0.57617 5e-3 -0.25519-0.40879-0.47265-0.57617-0.50195-0.09834-0.01778-0.20496-0.01626-0.31641-0.0059zm5.125 1.4648c-0.07539-0.01299-0.12971 0.0729-0.20508 0.12305-0.11716 0.07941-0.22968 0.16904-0.35938 0.21484-0.28875 0.10887-0.49279 0.09987-0.71875 0.2168-0.20922 0.10887-0.23804 0.29054-0.35938 0.50391-0.0962 0.17585-0.28519 0.42131-0.43164 0.42969-0.17585 0.01151-0.34489-0.2202-0.50391-0.28711-0.48122-0.20922-0.75286 0.14039-1.1504 0.14453-0.23451 0.0029-0.51405-0.23996-0.69141-0.50391-7e-3 0.02464-0.02481 0.04668-0.02734 0.07227-0.02001 0.21018-0.08078 0.43311-0.11523 0.63086 0.03547 0.03511 0.07171 0.06794 0.11523 0.08789 0.0711 0.02923 0.17815-0.03337 0.28711 0 0.27618 0.08378 0.33765 0.50274 0.57617 0.43164 0.1549-0.04603 0.18976-0.28104 0.21484-0.43164 0.10473-0.11301 0.19604-0.28711 0.35938-0.28711 0.25942-0.0046 0.33538 0.31905 0.43164 0.57422 0.0543 0.14224 0.17928 0.28104 0.2168 0.43164 0.01595 0.06587 0.01432 0.20246 0.02148 0.3125 0.0867 0.06755 0.17485 0.12508 0.26562 0.11914 0.14645-0.0084 0.33544-0.25384 0.43164-0.42969 0.12134-0.21337 0.15016-0.39504 0.35938-0.50391 0.22596-0.11693 0.43-0.10793 0.71875-0.2168 0.1297-0.0458 0.24222-0.13543 0.35938-0.21484 0.10049-0.06687 0.16362-0.19771 0.28906-0.07227 0.16744 0.16724-0.2145 0.17938-0.07227 0.35938 0.28873 0.15479 0.43725-0.28251 0.64648-0.28711 0.06695-0.0042 0.31034 0.20747 0.43164 0.28711 0.1631 0.10896 0.17938 0.326 0.35938 0.35938 0.11299 0.02509 0.34072-0.16329 0.50391-0.14258 0.21341 0.02928 0.34072 0.29171 0.50391 0.28711 0.19668-0.0042 0.33657-0.25373 0.50391-0.28711 0.36822-0.07112 0.4833 0.05694 0.64648 0.28711 0.17992 0.03359 0.12173-0.15605 0.28906-0.07227-0.09207 0.18397 0.06731 0.20861 0.14258 0.35938 0.0419 0.09598 0.02624 0.17491 0.07227 0.2168 0.10042 0.09598 0.35752 0.12277 0.50391 0.21484 0.15481 0.09621 0.18353 0.29882 0.35938 0.50391 0.18411 0.20913 0.47606 0.34326 0.71875 0.35938 0.23015 0.01611 0.45602-0.02071 0.64844 0 0.43102 0.05437 0.70457 0.26962 1.0059 0.50391 0.17159 0.12966 0.30506 0.20447 0.35938 0.35938 0.04189 0.10878-0.04189 0.31034 0 0.43164 0.09207 0.26354 0.56974 0.33919 0.43164 0.79102 0.06277 0.12972 0.13853 0.19504 0.28906 0.28711 0.12135 0.07527 0.22956 0.19608 0.35938 0.2168 0.08362 0.01151 0.2841-0.0046 0.35938 0 0.23852 0.0168 0.37109 0.06317 0.57617 0.14258 0.1297 0.04604 0.2756 0.08584 0.35938 0.14453 0.1045 0.07112 0.08503 0.29654 0.21484 0.35938 0.08369 0.04189 0.36166-0.01611 0.50391 0 0.22596 0.02509 0.44555 0.2122 0.64648 0.2168 0.12139 0.0046 0.18019-0.0046 0.28906 0 0.51468 0.04182 0.87145 0.60688 1.3652 0.79102 0.15484 0.05835 0.39918 0.02623 0.50391 0.07227 0.05635 0.02434 0.09977 0.09733 0.13867 0.18555 0.09297-0.16992 0.16264-0.3587 0.14844-0.61719-0.01611-0.25102-0.10306-0.78378-0.28711-0.86328-0.10473-0.04603-0.34907-0.01391-0.50391-0.07226-0.49378-0.18414-0.85055-0.74919-1.3652-0.79102-0.10887-0.0046-0.16767 0.0046-0.28906 0-0.20094-0.0046-0.42053-0.19171-0.64648-0.2168-0.14224-0.01611-0.42022 0.04189-0.50391 0-0.12982-0.06284-0.11035-0.28825-0.21484-0.35938-0.08378-0.05869-0.22968-0.09849-0.35938-0.14453-0.20508-0.07941-0.33765-0.12578-0.57617-0.14258-0.07527-0.0046-0.27575 0.01151-0.35938 0-0.12982-0.02072-0.23803-0.14153-0.35938-0.2168-0.15053-0.09207-0.22629-0.15739-0.28906-0.28711 0.1381-0.45182-0.33957-0.52747-0.43164-0.79102-0.04189-0.1213 0.04189-0.32286 0-0.43164-0.05432-0.1549-0.18778-0.22972-0.35938-0.35938-0.30129-0.23429-0.57484-0.44954-1.0059-0.50391-0.19242-0.02071-0.41829 0.01611-0.64844 0-0.24269-0.01611-0.53464-0.15024-0.71875-0.35938-0.17585-0.20508-0.20456-0.4077-0.35938-0.50391-0.14639-0.09207-0.40348-0.11886-0.50391-0.21484-0.04603-0.04189-0.03037-0.12082-0.07227-0.2168-0.07527-0.15076-0.23464-0.1754-0.14258-0.35938-0.16733-0.08378-0.10914 0.10586-0.28906 0.07227-0.16319-0.23017-0.27826-0.35823-0.64648-0.28711-0.16733 0.03338-0.30723 0.28294-0.50391 0.28711-0.16319 0.0046-0.2905-0.25783-0.50391-0.28711-0.16319-0.02071-0.39092 0.16767-0.50391 0.14258-0.17999-0.03337-0.19628-0.25041-0.35938-0.35938-0.1213-0.07964-0.36469-0.29128-0.43164-0.28711-0.20923 0.0046-0.35775 0.4419-0.64648 0.28711-0.14224-0.17999 0.2397-0.19213 0.07227-0.35938-0.03136-0.03136-0.05886-0.04645-0.08398-0.05078zm-0.06055 0.98438c0.20094-0.09207 0.16319 0.26395 0 0.28906-0.15491 0.02071-0.15053-0.21783 0-0.28906zm0 1.2949c-0.15053 0.07124-0.15491 0.30977 0 0.28906 0.16319-0.02511 0.20094-0.38113 0-0.28906zm-8.1016 0.10352c-0.0068 0.18207-0.02539 0.35941-0.02539 0.54492 1e-5 7.3227 3.8312 13.722 9.5664 17.406 0.0161-0.09621-0.0115-0.18238 0-0.28711 0.0168-0.13386 0.05421-0.31034 0.07031-0.43164 0.0251-0.2301-0.02841-0.67086-0.07031-0.86328-0.0115 0.10473 0.0161 0.1909 0 0.28711-5.5377-3.5571-9.2884-9.6491-9.541-16.656zm5.7617 1.1797c-0.09853 0.15401-0.32425 0.25842-0.46484 0.44336-0.0753 0.10035-0.15833 0.22222-0.2168 0.28906-0.10035 0.12544-0.21168 0.17424-0.28711 0.28711-0.0419 0.06284-0.03467 0.19928-0.07227 0.28711-0.12567 0.26773-0.31953 0.46887-0.21484 0.79102 0.0419 0.12982 0.21484 0.27687 0.21484 0.43164 0 0.18414-0.40234 0.23084-0.43164 0.43164-0.0207 0.14639 0.17099 0.4518 0.2168 0.64844 0.0204 0.08943 0.11085 0.16499 0.20312 0.23437 0.0014-0.0074 0.01172-0.0117 0.01172-0.01953 0-0.15477-0.17294-0.30182-0.21484-0.43164-0.10469-0.32214 0.08917-0.52328 0.21484-0.79102 0.0376-0.08783 0.03037-0.22427 0.07227-0.28711 0.07543-0.11288 0.18676-0.16167 0.28711-0.28711 0.05847-0.06684 0.1415-0.18871 0.2168-0.28906 0.15902-0.20918 0.43691-0.31149 0.50391-0.50391 0.0543-0.15479 0.0628-0.89101 0-1.1504-0.0072-0.02892-0.02653-0.05583-0.03906-0.08398zm29.297 1.0195c-0.01822 0.09926-0.04001 0.22532-0.05664 0.28711-0.03337 0.1213-0.07445 0.23805-0.07031 0.35938 0 0.07905 0.092 0.22599 0.18555 0.35938 0.01059-0.05246 0.01769-0.0944 0.0293-0.14258 0.02509-0.11294 0.16525-0.25165 0.14453-0.43164-0.01229-0.10316-0.11108-0.28395-0.23242-0.43164zm1.1582 3.8809c-0.13214 0.40108-0.33265 0.77954-0.63867 1.2969-0.21751 0.251-0.43583 0.54954-0.43164 0.86328-0.0069 0.32199 0.06771 0.57429 0.14844 0.81836 0.07966-0.13681 0.18016-0.26781 0.2832-0.38672 0.46029-0.77814 0.69894-1.2386 0.79102-1.9414-0.05018-0.14646 0.05432-0.16995 0-0.28711-0.05623-0.12235-0.10321-0.24149-0.15234-0.36328zm-0.74414 4.9512c6.16e-4 0.25415 0.0017 0.45244-0.03906 0.73438 0.02865 0.0145 0.03503 0.04344 0.05664 0.0625 0.0051-0.14436-2.83e-4 -0.21498 0.01563-0.42188 0.0064-0.13808-0.01364-0.25645-0.0332-0.375zm-0.03125 1.8828c-0.11731 0.27554-0.22804 0.4181-0.29492 0.65039 0.15471 0.06702 0.29074 0.0823 0.45312 0.07031 0.04105-0.2419 0.03944-0.47023-0.16602-0.57422 0.0084-0.05836 0.0028-0.09569 0.0078-0.14648zm0.14453 0.78516c-3.7651 3.8798-9.0631 6.2656-14.896 6.2656-2.34 0-4.5827-0.4126-6.6816-1.1289-0.13219 0.03616-0.26126 0.07817-0.29492 0.12305-0.10473 0.14643 0.07964 0.42784 0 0.57422-0.159 0.30544-0.57546 0.05243-0.79297 0.14453 0.0081 0.0032-0.0081 0.07027 0 0.07226 2.3981 0.97029 5.0236 1.5098 7.7695 1.5098 5.8662 0 11.192-2.4116 14.961-6.3301-0.18808 0.02095-0.33229 4e-3 -0.50391-0.07031 0.0795-0.27611 0.21713-0.37882 0.35938-0.79297 0.03098-0.11183 0.05408-0.2411 0.08008-0.36719zm-20.867 3.3887c0.02846 0.14529 0.10427 0.22646 0.18164 0.30859 0.03413-0.0076 0.07922-0.0049 0.10547-0.02149 0.05643-0.03591 0.11517-0.10655 0.16797-0.18164-0.16704-0.06707-0.32342-0.13103-0.45508-0.10546z" fill="#3c749c" fill-opacity=".17033" stroke-width="2.2139"/>
</svg>
