<svg width="128" height="128" version="1.1" viewBox="0 0 128 128" xmlns="http://www.w3.org/2000/svg">
<defs>
<linearGradient id="linearGradient828" x1="655.16" x2="655.16" y1="211.5" y2="419.86" gradientTransform="matrix(.39478 0 0 .39478 -194.76 -53.484)" gradientUnits="userSpaceOnUse">
<stop stop-color="#66aed7" offset="0"/>
<stop stop-color="#6cb1d7" offset=".33128"/>
<stop stop-color="#76b6d7" offset=".50478"/>
<stop stop-color="#7bb6d5" offset=".60396"/>
<stop stop-color="#77b2d0" offset=".80198"/>
<stop stop-color="#6aa4c2" offset="1"/>
</linearGradient>
<linearGradient id="linearGradient859" x1="-286.85" x2="-286.85" y1="201.42" y2="326.3" gradientTransform="matrix(.39478 0 0 .39478 167.73 -64.642)" gradientUnits="userSpaceOnUse">
<stop stop-color="#608ea7" offset="0"/>
<stop stop-color="#5887a2" offset=".16505"/>
<stop stop-color="#4e7890" offset=".29031"/>
<stop stop-color="#4a7289" offset=".34926"/>
<stop stop-color="#345a6c" offset=".38956"/>
<stop stop-color="#33586d" offset=".444"/>
<stop stop-color="#4e88a4" stop-opacity="0" offset="1"/>
</linearGradient>
<linearGradient id="linearGradient1027" x1="-28.92" x2="-28.92" y1="62.648" y2="115.51" gradientTransform="translate(94.663 -21.503)" gradientUnits="userSpaceOnUse">
<stop stop-color="#5291bd" offset="0"/>
<stop stop-color="#5291bd" offset=".12336"/>
<stop stop-color="#5e99b9" offset="1"/>
</linearGradient>
</defs>
<path d="m7.9342 15.215c-3.391 0-6.1214 2.7297-6.1214 6.1206v27.211c19.294 15.457 121.85 17.085 124.92 4.1073v-21.828c0-3.391-2.7304-6.1206-6.1214-6.1206h-71.623c-3.596 0-5.767-4.553-8.2038-7.8536-1.0918-1.0164-2.5579-1.6365-4.1743-1.6365z" fill="url(#linearGradient859)" style="paint-order:fill markers stroke"/>
<path d="m8.3844 30.357c-3.6124 0-6.5208 2.9077-6.5208 6.52v72.546c0 1.8154 1.4616 3.277 3.277 3.277h118.3c1.8154 0 3.277-1.4616 3.277-3.277v-72.546c0-3.6123-2.9077-6.52-6.52-6.52z" fill="url(#linearGradient828)" style="paint-order:fill markers stroke"/>
<path d="m8.384 30.357c-3.6124 0-6.5208 2.9077-6.5208 6.52v0.27527c0-3.6123 2.9085-6.52 6.5208-6.52h111.81c3.6123 0 6.52 2.9077 6.52 6.52v-0.27527c0-3.6123-2.9077-6.52-6.52-6.52z" fill="#ebf5fa" fill-opacity=".23626" style="paint-order:fill markers stroke"/>
<path d="m2.095 102.95h124.29" fill="none" stroke="#fff" stroke-opacity=".25275" stroke-width=".31582"/>
<g transform="matrix(.39478 0 0 .39478 -44.909 -40.529)" fill="none" stroke-width=".8">
<path d="m118.62 371.57h314.84" stroke="#fff" stroke-opacity=".18681"/>
<path d="m118.62 370.75h314.84" stroke="#22394c" stroke-opacity=".27473"/>
</g>
<g transform="matrix(.39478 0 0 .39478 -44.909 -37.089)" fill="none" stroke-width=".8">
<path d="m118.62 371.57h314.84" stroke="#fff" stroke-opacity=".18681"/>
<path d="m118.62 370.75h314.84" stroke="#22394c" stroke-opacity=".2967"/>
</g>
<path d="m40.407 40.971c-0.63657 0-1.1504 0.51195-1.1504 1.1484v51.189c0 0.63671 0.51382 1.1484 1.1504 1.1484h47.766c0.63657 0 1.1504-0.51173 1.1504-1.1484v-51.189c0-0.63649-0.51382-1.1484-1.1504-1.1484zm10.084 3.4219h27.598c0.63655 0 1.1484 0.51173 1.1484 1.1484v19.494c0 0.63671-0.51189 1.1484-1.1484 1.1484h-27.598c-0.63657 0-1.1484-0.51173-1.1484-1.1484v-19.494c0-0.63671 0.51187-1.1484 1.1484-1.1484zm-8.2695 0.04883h4.2441c0.3544 0 0.64062 0.28445 0.64062 0.63867v2.0312c0 0.35444-0.28623 0.64062-0.64062 0.64062h-4.2441c-0.3544 0-0.63867-0.28618-0.63867-0.64062v-2.0312c0-0.35422 0.28427-0.63867 0.63867-0.63867zm39.891 0h4.2441c0.35441 0 0.64062 0.28445 0.64062 0.63867v2.0312c0 0.35444-0.28621 0.64062-0.64062 0.64062h-4.2441c-0.3544 0-0.64062-0.28618-0.64062-0.64062v-2.0312c0-0.35422 0.28622-0.63867 0.64062-0.63867zm-0.09961 6.1211h4.2441c0.35441 0 0.64062 0.28423 0.64062 0.63867v2.0312c0 0.35444-0.28622 0.64062-0.64062 0.64062h-4.2441c-0.3544 0-0.64062-0.28618-0.64062-0.64062v-2.0312c0-0.35444 0.28623-0.63867 0.64062-0.63867zm-39.791 0.05469h4.2441c0.3544 0 0.64062 0.28618 0.64062 0.64062v2.0293c0 0.35444-0.28623 0.64258-0.64062 0.64258h-4.2441c-0.3544 0-0.63867-0.28814-0.63867-0.64258v-2.0293c0-0.35444 0.28427-0.64062 0.63867-0.64062zm39.791 6.123h4.2441c0.35441 0 0.64062 0.28619 0.64062 0.64063v2.0293c0 0.35444-0.28622 0.64062-0.64062 0.64062h-4.2441c-0.3544 0-0.64062-0.28619-0.64062-0.64062v-2.0293c0-0.35444 0.28623-0.64063 0.64062-0.64063zm-39.791 0.05469h4.2441c0.3544 0 0.64062 0.28618 0.64062 0.64062v2.0273c0 0.35444-0.28623 0.64258-0.64062 0.64258h-4.2441c-0.3544-3e-6 -0.63867-0.28814-0.63867-0.64258v-2.0273c0-0.35444 0.28427-0.64062 0.63867-0.64062zm39.791 6.1211h4.2441c0.35441 0 0.64062 0.28619 0.64062 0.64062v2.0312c0 0.35444-0.28622 0.63867-0.64062 0.63867h-4.2441c-0.3544 0-0.64062-0.28423-0.64062-0.63867v-2.0312c0-0.35444 0.28623-0.64062 0.64062-0.64062zm-39.791 0.05469h4.2441c0.3544 0 0.64062 0.28619 0.64062 0.64062v2.0312c0 0.35444-0.28623 0.63867-0.64062 0.63867h-4.2441c-0.3544 0-0.63867-0.28423-0.63867-0.63867v-2.0312c0-0.35444 0.28427-0.64062 0.63867-0.64062zm39.791 6.1211h4.2441c0.35441 0 0.64062 0.28618 0.64062 0.64062v2.0312c0 0.35444-0.28622 0.63867-0.64062 0.63867h-4.2441c-0.3544 0-0.64062-0.28423-0.64062-0.63867v-2.0313c0-0.35444 0.28623-0.64062 0.64062-0.64062zm-39.791 0.05664h4.2441c0.3544 0 0.64062 0.28619 0.64062 0.64062v2.0312c0 0.35444-0.28623 0.63867-0.64062 0.63867h-4.2441c-0.3544 0-0.63867-0.28423-0.63867-0.63867v-2.0312c0-0.35444 0.28427-0.64062 0.63867-0.64062zm8.2695 0.23438h27.598c0.63655 0 1.1484 0.5139 1.1484 1.1504v19.492c0 0.6367-0.51189 1.1484-1.1484 1.1484h-27.598c-0.63657 0-1.1484-0.51174-1.1484-1.1484v-19.492c0-0.63649 0.51187-1.1504 1.1484-1.1504zm31.521 5.8867h4.2441c0.35441 0 0.64062 0.28618 0.64062 0.64062v2.0312c0 0.35444-0.28622 0.63868-0.64062 0.63868h-4.2441c-0.3544 0-0.64062-0.28424-0.64062-0.63868v-2.0312c0-0.35444 0.28623-0.64062 0.64062-0.64062zm-39.791 0.05469h4.2441c0.3544 0 0.64062 0.28618 0.64062 0.64062v2.0312c0 0.35444-0.28623 0.63867-0.64062 0.63867h-4.2441c-0.3544 0-0.63867-0.28423-0.63867-0.63867v-2.0312c0-0.35444 0.28427-0.64062 0.63867-0.64062zm39.791 6.123h4.2441c0.35441 0 0.64062 0.28424 0.64062 0.63868v2.0312c0 0.35444-0.28622 0.64062-0.64062 0.64062h-4.2441c-0.3544 0-0.64062-0.28618-0.64062-0.64062v-2.0312c0-0.35444 0.28623-0.63868 0.64062-0.63868zm-39.791 0.0547h4.2441c0.3544 0 0.64062 0.28423 0.64062 0.63867v2.0312c0 0.35444-0.28623 0.64063-0.64062 0.64063h-4.2441c-0.3544 0-0.63867-0.28619-0.63867-0.64063v-2.0312c0-0.35444 0.28427-0.63867 0.63867-0.63867zm39.791 6.1211h4.2441c0.35441 0 0.64062 0.28424 0.64062 0.63868v2.0312c0 0.35444-0.28622 0.64062-0.64062 0.64062h-4.2441c-0.3544 0-0.64062-0.28618-0.64062-0.64062v-2.0312c0-0.35444 0.28623-0.63868 0.64062-0.63868zm-39.791 0.0567h4.2441c0.3544 0 0.64062 0.28423 0.64062 0.63867v2.0312c0 0.35444-0.28623 0.64062-0.64062 0.64062h-4.2441c-0.3544 0-0.63867-0.28618-0.63867-0.64062v-2.0312c0-0.35444 0.28427-0.63867 0.63867-0.63867z" fill="url(#linearGradient1027)" stroke-width="2.2139"/>
<path d="m40.406 40.971c-0.63657 0-1.1504 0.51195-1.1504 1.1484v0.69922c0-0.63649 0.51382-1.1484 1.1504-1.1484h47.766c0.63657 0 1.1504 0.51195 1.1504 1.1484v-0.69922c0-0.63649-0.51382-1.1484-1.1504-1.1484zm1.1758 6.1406v0.69922c0 0.35444 0.28427 0.64062 0.63867 0.64062h4.2441c0.3544 0 0.64062-0.28618 0.64062-0.64062v-0.69922c0 0.35444-0.28623 0.64062-0.64062 0.64062h-4.2441c-0.3544 0-0.63867-0.28618-0.63867-0.64062zm39.889 0v0.69922c0 0.35444 0.28622 0.64062 0.64062 0.64062h4.2441c0.35441 0 0.64062-0.28618 0.64062-0.64062v-0.69922c0 0.35444-0.28621 0.64062-0.64062 0.64062h-4.2441c-0.3544 0-0.64062-0.28618-0.64062-0.64062zm-0.09961 6.1211v0.69922c0 0.35444 0.28623 0.64062 0.64062 0.64062h4.2441c0.35441 0 0.64062-0.28618 0.64062-0.64062v-0.69922c0 0.35444-0.28622 0.64062-0.64062 0.64062h-4.2441c-0.3544 0-0.64062-0.28618-0.64062-0.64062zm-39.789 0.05469v0.69922c0 0.35444 0.28427 0.64258 0.63867 0.64258h4.2441c0.3544 0 0.64062-0.28814 0.64062-0.64258v-0.69922c0 0.35444-0.28623 0.64258-0.64062 0.64258h-4.2441c-0.3544 0-0.63867-0.28814-0.63867-0.64258zm39.789 6.123v0.69922c0 0.35444 0.28623 0.64062 0.64062 0.64062h4.2441c0.35441 0 0.64062-0.28619 0.64062-0.64062v-0.69922c0 0.35444-0.28622 0.64062-0.64062 0.64062h-4.2441c-0.3544 0-0.64062-0.28619-0.64062-0.64062zm-39.789 0.05273v0.69922c0 0.35444 0.28427 0.64258 0.63867 0.64258h4.2441c0.3544 0 0.64062-0.28814 0.64062-0.64258v-0.69922c0 0.35444-0.28623 0.64258-0.64062 0.64258h-4.2441c-0.3544-3e-6 -0.63867-0.28814-0.63867-0.64258zm7.7598 5.5723v0.69922c0 0.63671 0.51187 1.1484 1.1484 1.1484h27.598c0.63655 0 1.1484-0.51173 1.1484-1.1484v-0.69922c0 0.63671-0.51189 1.1484-1.1484 1.1484h-27.598c-0.63657 0-1.1484-0.51173-1.1484-1.1484zm32.029 0.55274v0.69922c0 0.35444 0.28623 0.63867 0.64062 0.63867h4.2441c0.35441 0 0.64062-0.28423 0.64062-0.63867v-0.69922c0 0.35444-0.28622 0.63867-0.64062 0.63867h-4.2441c-0.3544 0-0.64062-0.28423-0.64062-0.63867zm-39.789 0.05469v0.69922c0 0.35444 0.28427 0.63867 0.63867 0.63867h4.2441c0.3544 0 0.64062-0.28423 0.64062-0.63867v-0.69922c0 0.35444-0.28623 0.63867-0.64062 0.63867h-4.2441c-0.3544 0-0.63867-0.28423-0.63867-0.63867zm39.789 6.1211v0.69922c0 0.35444 0.28623 0.63867 0.64062 0.63867h4.2441c0.35441 1e-6 0.64062-0.28423 0.64062-0.63867v-0.69922c0 0.35444-0.28622 0.63867-0.64062 0.63867h-4.2441c-0.3544 0-0.64062-0.28423-0.64062-0.63867zm-39.789 0.05664v0.69922c0 0.35444 0.28427 0.63867 0.63867 0.63867h4.2441c0.3544 0 0.64062-0.28423 0.64062-0.63867v-0.69922c0 0.35444-0.28623 0.63867-0.64062 0.63867h-4.2441c-0.3544 0-0.63867-0.28423-0.63867-0.63867zm39.789 6.1211v0.69922c0 0.35444 0.28623 0.63867 0.64062 0.63867h4.2441c0.35441 0 0.64062-0.28423 0.64062-0.63867v-0.69922c0 0.35444-0.28622 0.63867-0.64062 0.63867h-4.2441c-0.3544 0-0.64062-0.28423-0.64062-0.63867zm-39.789 0.05469v0.69922c0 0.35444 0.28427 0.63867 0.63867 0.63867h4.2441c0.3544 0 0.64062-0.28423 0.64062-0.63867v-0.69922c0 0.35444-0.28623 0.63867-0.64062 0.63867h-4.2441c-0.3544 0-0.63867-0.28423-0.63867-0.63867zm39.789 6.1211v0.69922c0 0.35444 0.28623 0.64062 0.64062 0.64062h4.2441c0.35441 0 0.64062-0.28618 0.64062-0.64062v-0.69922c0 0.35444-0.28622 0.64062-0.64062 0.64062h-4.2441c-0.3544 0-0.64062-0.28618-0.64062-0.64062zm-39.789 0.05469v0.69922c0 0.35444 0.28427 0.64062 0.63867 0.64062h4.2441c0.3544 0 0.64062-0.28618 0.64062-0.64062v-0.69922c0 0.35444-0.28623 0.64062-0.64062 0.64062h-4.2441c-0.3544 0-0.63867-0.28618-0.63867-0.64062zm7.7598 5.8535v0.69922c0 0.6367 0.51187 1.1484 1.1484 1.1484h27.598c0.63655 0 1.1484-0.51174 1.1484-1.1484v-0.69922c0 0.6367-0.51189 1.1484-1.1484 1.1484h-27.598c-0.63657 0-1.1484-0.51174-1.1484-1.1484zm32.029 0.26758v0.69922c0 0.35444 0.28623 0.64062 0.64062 0.64062h4.2441c0.35441 0 0.64062-0.28618 0.64062-0.64062v-0.69922c0 0.35444-0.28622 0.64062-0.64062 0.64062h-4.2441c-0.3544 0-0.64062-0.28618-0.64062-0.64062zm-39.789 0.05664v0.69922c0 0.35444 0.28427 0.64062 0.63867 0.64062h4.2441c0.3544 0 0.64062-0.28618 0.64062-0.64062v-0.69922c0 0.35444-0.28623 0.64062-0.64062 0.64062h-4.2441c-0.3544 0-0.63867-0.28618-0.63867-0.64062z" fill="#2c5775" fill-opacity=".27757" stroke-width="2.2139"/>
</svg>
