<svg width="128" height="128" version="1.1" viewBox="0 0 128 128" xmlns="http://www.w3.org/2000/svg">
<defs>
<linearGradient id="linearGradient828" x1="655.16" x2="655.16" y1="211.5" y2="419.86" gradientTransform="matrix(.39478 0 0 .39478 -194.76 -53.484)" gradientUnits="userSpaceOnUse">
<stop stop-color="#66aed7" offset="0"/>
<stop stop-color="#6cb1d7" offset=".33128"/>
<stop stop-color="#76b6d7" offset=".50478"/>
<stop stop-color="#7bb6d5" offset=".60396"/>
<stop stop-color="#77b2d0" offset=".80198"/>
<stop stop-color="#6aa4c2" offset="1"/>
</linearGradient>
<linearGradient id="linearGradient859" x1="-286.85" x2="-286.85" y1="201.42" y2="326.3" gradientTransform="matrix(.39478 0 0 .39478 167.73 -64.642)" gradientUnits="userSpaceOnUse">
<stop stop-color="#608ea7" offset="0"/>
<stop stop-color="#5887a2" offset=".16505"/>
<stop stop-color="#4e7890" offset=".29031"/>
<stop stop-color="#4a7289" offset=".34926"/>
<stop stop-color="#345a6c" offset=".38956"/>
<stop stop-color="#33586d" offset=".444"/>
<stop stop-color="#4e88a4" stop-opacity="0" offset="1"/>
</linearGradient>
<linearGradient id="linearGradient1027" x1="241.73" x2="241.73" y1="59.967" y2="112.55" gradientTransform="translate(-177.44 -19.067)" gradientUnits="userSpaceOnUse">
<stop stop-color="#5291bd" offset="0"/>
<stop stop-color="#5291bd" offset=".12336"/>
<stop stop-color="#5e99b9" offset="1"/>
</linearGradient>
</defs>
<path d="m7.9342 15.215c-3.391 0-6.1214 2.7297-6.1214 6.1206v27.211c19.294 15.457 121.85 17.085 124.92 4.1073v-21.828c0-3.391-2.7304-6.1206-6.1214-6.1206h-71.623c-3.596 0-5.767-4.553-8.2038-7.8536-1.0918-1.0164-2.5579-1.6365-4.1743-1.6365z" fill="url(#linearGradient859)" style="paint-order:fill markers stroke"/>
<path d="m8.3844 30.357c-3.6124 0-6.5208 2.9077-6.5208 6.52v72.546c0 1.8154 1.4616 3.277 3.277 3.277h118.3c1.8154 0 3.277-1.4616 3.277-3.277v-72.546c0-3.6123-2.9077-6.52-6.52-6.52z" fill="url(#linearGradient828)" style="paint-order:fill markers stroke"/>
<path d="m8.384 30.357c-3.6124 0-6.5208 2.9077-6.5208 6.52v0.27527c0-3.6123 2.9085-6.52 6.5208-6.52h111.81c3.6123 0 6.52 2.9077 6.52 6.52v-0.27527c0-3.6123-2.9077-6.52-6.52-6.52z" fill="#ebf5fa" fill-opacity=".23626" style="paint-order:fill markers stroke"/>
<path d="m2.095 102.95h124.29" fill="none" stroke="#fff" stroke-opacity=".25275" stroke-width=".31582"/>
<g transform="matrix(.39478 0 0 .39478 -44.909 -40.529)" fill="none" stroke-width=".8">
<path d="m118.62 371.57h314.84" stroke="#fff" stroke-opacity=".18681"/>
<path d="m118.62 370.75h314.84" stroke="#22394c" stroke-opacity=".27473"/>
</g>
<g transform="matrix(.39478 0 0 .39478 -44.909 -37.089)" fill="none" stroke-width=".8">
<path d="m118.62 371.57h314.84" stroke="#fff" stroke-opacity=".18681"/>
<path d="m118.62 370.75h314.84" stroke="#22394c" stroke-opacity=".2967"/>
</g>
<path d="m64.289 40.901c-14.571 2.66e-4 -26.384 11.813-26.383 26.385 2.7e-4 14.571 11.812 26.383 26.383 26.383 14.571 8.1e-4 26.384-11.811 26.385-26.383 8.1e-4 -14.572-11.813-26.386-26.385-26.385zm0 2.8828c12.98-6.2e-5 23.502 10.522 23.502 23.502 6e-5 12.98-10.522 23.502-23.502 23.502-12.98 6e-5 -23.502-10.522-23.502-23.502-6e-5 -12.98 10.522-23.502 23.502-23.502zm-0.19531 2.709-1.7988 0.0918 0.0898 1.7988 1.7988-0.08984zm3.7617 0.31055-0.27344 1.7871 0.52734 0.07617 1.1426 0.29297 0.44531-1.7422-1.1719-0.30273-0.0879-0.02148zm-9.2676 0.49023-0.44141 0.10938-0.0859 0.03125-1.2617 0.46289 0.61719 1.6914 1.2324-0.44922 0.38477-0.09961zm14.646 1.2227-0.7832 1.6309 0.85547 0.41016h0.0137l0.64062 0.38477 0.9375-1.5352-0.65625-0.39648-0.0742-0.04492zm-19.812 1.0508-0.72656 0.44531-0.0703 0.04883-0.75977 0.57031 1.0762 1.4395 0.74024-0.54883 0.0215-0.02344 0.65625-0.39453zm24.525 2.0547-1.2109 1.3301 0.99024 0.90039 0.0801 0.08789-16.229 10.477-12.668 17.416 18.092-11.68 12.668-17.416-0.55078 0.35547 0.19336-0.17383-0.28516-0.31055-0.0605-0.05859zm-28.885 1.5195-0.79492 0.87891-0.0527 0.06445-0.37109 0.49609 1.4394 1.0781 0.35938-0.47656 0.0137-0.02344 0.73828-0.80859zm32.604 2.7148-1.5391 0.93945 0.86328 1.4238 0.0215 0.04102h0.012l0.0645-0.03906 1.5488-0.74805-0.0352-0.07617-0.043-0.07227zm-35.85 1.8906-0.67578 1.4023-0.0293 0.07422-0.0918 0.24219 1.6914 0.61914 0.0566-0.1582 8e-3 -0.02344 0.66211-1.375zm38.258 3.1191-1.6914 0.62109 0.0391 0.10547 0.40235 1.5469 1.7422-0.44922-0.39648-1.5527-0.0312-0.08594zm-40.135 2.125-0.0176 0.05664-0.0176 0.0918-0.26367 1.7168 1.7812 0.27148 0.25977-1.6855 4e-3 -0.03125-0.28906-0.04492zm20.35 2.4883c0.99716-3.53e-4 1.8059 0.80752 1.8066 1.8047 3.5e-4 0.99793-0.80871 1.807-1.8066 1.8066-0.99716-7.24e-4 -1.805-0.80948-1.8047-1.8066 7.2e-4 -0.9964 0.80829-1.804 1.8047-1.8047zm20.758 0.95703-1.7949 0.0918 0.0352 0.75195-0.0859 1.7559 1.7988 0.0918 0.0898-1.7988-0.89844-0.04883 0.89844-0.04492zm-39.693 2.1035-1.7949 0.0918 0.0352 0.73047 8e-3 0.0918 0.16016 1.0547 1.7812-0.27148-0.15625-1.0117zm37.221 3.8633-0.14844 0.56055-4e-3 0.02148-0.38086 1.0391 1.6875 0.61719 0.41016-1.1191 0.0293-0.08594 0.14843-0.58984zm-36.205 1.1387-1.6914 0.62305 0.43359 1.1719 0.0293 0.08203 0.24219 0.49805 1.6211-0.7832-0.22851-0.47461-8e-3 -0.02539zm34.172 3.543-0.4707 0.78711-0.0176 0.02148-0.45898 0.61914 1.4394 1.0762 0.48047-0.64062 0.0488-0.06836 0.51758-0.85938zm-31.854 1.0176-1.4414 1.0879 0.96875 1.293 0.0527 0.06445 0.125 0.13672 1.332-1.2109-0.0703-0.07422-0.0117-0.02148zm28.645 2.9824-0.92383 0.83398-0.0176 0.02148-0.35547 0.26367 1.082 1.4453 0.3711-0.28125 0.0644-0.05078 0.99024-0.90039zm-25.16 0.83398-0.32812 0.43555-0.84375 0.92969 0.0254 0.02344 0.0644 0.05078 1.4199 1.0586 1.0762-1.4395zm21.006 2.1426-1.4531 0.71485h-0.0254l-0.0703 0.0254 0.62305 1.6895 0.0957-0.0352 0.0781-0.0352 1.5293-0.73829zm-16.6 0.57813-0.7832 1.6211 0.35937 0.17187 0.082 0.0352 1.3145 0.48047 0.61914-1.6914-1.2715-0.46289zm11.705 1.209-0.14258 0.041-1.5449 0.23828 0.27344 1.7773 1.5684-0.23828 0.0879-0.0215 0.20703-0.0547zm-6.793 0.19141-0.27344 1.791 0.9043 0.14063h0.0918l0.88476 0.043 0.0918-1.7988-0.84375-0.0391z" fill="url(#linearGradient1027)" stroke-width="2.2139"/>
<path d="m64.289 40.9c-14.571 2.66e-4 -26.384 11.813-26.383 26.385 2e-6 0.09828 0.0067 0.19494 0.0078 0.29297 0.15811-14.435 11.902-26.09 26.375-26.09 14.473-8.05e-4 26.219 11.654 26.377 26.09 0.0011-0.09803 0.0078-0.19469 0.0078-0.29297 8.1e-4 -14.572-11.813-26.386-26.385-26.385zm-0.19531 5.5918-1.7988 0.0918 0.0293 0.58594 1.7695-0.08984 0.06055 1.2148 0.0293-2e-3 -0.08984-1.8008zm3.7617 0.31055-0.27344 1.7871 0.08789 0.01367 0.18555-1.2129 0.58203 0.08984 0.08789 0.02148 1.0312 0.26562 0.14062-0.55078-1.1719-0.30274-0.08789-0.02148-0.58203-0.08984zm-9.2676 0.49024-0.44141 0.10938-0.08594 0.03125-1.2617 0.46289 0.18945 0.51758 1.0723-0.39258 0.08594-0.03125 0.44141-0.10938 0.30469 1.1953 0.14062-0.03711-0.44531-1.7461zm14.646 1.2227-0.7832 1.6309 0.22852 0.10938 0.55469-1.1523 0.93359 0.44922 0.07422 0.04492 0.39453 0.23828 0.26172-0.42969-0.65625-0.39648-0.07422-0.04492-0.93359-0.44922zm-19.812 1.0508-0.72656 0.44531-0.07031 0.04883-0.75977 0.57031 0.28125 0.37695 0.47852-0.35937 0.07031-0.04883 0.72656-0.44531 0.67578 1.1074 0.26172-0.1582-0.9375-1.5371zm24.525 2.0547-1.2109 1.3301 0.29297 0.26562 0.91797-1.0078 1.0195 0.92774 0.06055 0.05859 0.17188 0.1875 0.4707-0.64648-0.55078 0.35547 0.19336-0.17383-0.28516-0.31055-0.06055-0.05859-1.0195-0.92773zm-28.885 1.5195-0.79492 0.87891-0.05273 0.06445-0.37109 0.49609 0.28125 0.21094 0.08984-0.11914 0.05273-0.06445 0.79492-0.87891 1.0391 0.94336 0.29297-0.32227-1.332-1.209zm28.375 1.0371-15.859 10.238-12.668 17.416 0.80664-0.51953 11.861-16.309 16.229-10.477-0.08008-0.08789-0.28906-0.26172zm4.2285 1.6777-1.5391 0.93945 0.25977 0.42969 1.2793-0.78125 0.70312 1.1582 0.26758-0.12891-0.03516-0.07617-0.04297-0.07227-0.89258-1.4688zm-35.85 1.8906-0.67578 1.4023-0.0293 0.07422-0.0918 0.24219 0.21484 0.07813 0.58203-1.209 1.3906 0.66992 0.23047-0.47656-1.6211-0.78125zm38.258 3.1191-1.6914 0.62109 0.03906 0.10547 0.11133 0.42773 1.541-0.56641 0.06445 0.18555 0.03125 0.08594 0.25586 1.002 0.14062-0.03711-0.39648-1.5527-0.03125-0.08594-0.06445-0.18555zm-40.135 2.125-0.01758 0.05664-0.01758 0.0918-0.26367 1.7168 0.08789 0.01367 0.17578-1.1426 0.01758-0.0918 0.01758-0.05664 1.457 0.375 0.20117 0.03125 0.08399-0.54297 0.0039-0.03125-0.28906-0.04492-1.457-0.375zm41.107 3.4453-1.7949 0.0918 0.02734 0.58594 1.7676-0.08984 0.01172 0.21289 0.03125-2e-3 -0.04297-0.79883zm0.01563 0.89062 0.01367 0.25781 0.01367-0.25586-0.02734-2e-3zm-1.7891 0.24023-0.07227 1.4688 0.0293 2e-3 0.05664-1.1699-0.01367-0.30078zm-42.479 0.01172c-0.0012 0.0985-0.0078 0.19613-0.0078 0.29492-6e-5 12.98 10.522 23.502 23.502 23.502 12.98 6e-5 23.502-10.522 23.502-23.502 0-0.09879-0.0066-0.19642-0.0078-0.29492-0.15764 12.844-10.613 23.209-23.494 23.209-12.881 6e-5 -23.336-10.365-23.494-23.209zm21.719 0c-0.01567 0.09547-0.02922 0.19308-0.0293 0.29297-3.5e-4 0.99716 0.80753 1.8059 1.8047 1.8066 0.99793 3.53e-4 1.807-0.80871 1.8066-1.8066-7.3e-5 -0.09997-0.01361-0.19743-0.0293-0.29297-0.14088 0.85727-0.88012 1.512-1.7773 1.5117-0.89653-6.51e-4 -1.6347-0.65504-1.7754-1.5117zm22.551 0.24609-0.87305 0.04297 0.86914 0.04687 0.0039-0.08984zm-39.711 0.71484-1.7949 0.0918 0.02734 0.58594 1.7676-0.08984 0.0332 0.68555 0.06836 0.4375 0.08789-0.01367-0.15625-1.0117-0.0332-0.68555zm37.221 3.8633-0.14844 0.56055-0.0039 0.02148-0.38086 1.0391 0.18945 0.07031 0.19141-0.52148 0.0039-0.02148 0.14844-0.56055 1.6035 0.4082 0.13867-0.55274-1.7422-0.44336zm-36.205 1.1387-1.6914 0.62305 0.19141 0.51758 1.5-0.55274 0.39844 1.0918 0.0078 0.02344 0.22852-0.11133-0.22852-0.47461-0.0078-0.02539-0.39844-1.0918zm34.172 3.543-0.4707 0.78711-0.01758 0.02148-0.45898 0.61914 0.28125 0.20898 0.17773-0.24023 0.01758-0.02148 0.4707-0.78711 1.2793 0.77734 0.25977-0.42969-1.5391-0.93555zm-31.854 1.0176-1.4414 1.0879 0.28125 0.375 1.1602-0.875 0.76953 1.0273 0.26758-0.24414-0.07031-0.07422-0.01172-0.02148-0.95508-1.2754zm28.645 2.9824-0.92383 0.83398-0.01758 0.02148-0.35547 0.26367 0.2832 0.37891 0.07227-0.05469 0.01758-0.02148 0.92383-0.83398 0.91797 1.0098 0.29297-0.26562-1.2109-1.332zm-25.16 0.83398-0.32812 0.43555-0.84375 0.92969 0.02539 0.02344 0.06445 0.05078 0.22461 0.16797 0.5293-0.58398 0.32812-0.43555 1.1328 0.84766 0.28125-0.37695-1.4141-1.0586zm21.006 2.1426-1.4531 0.71484h-0.02539l-0.07031 0.02539 0.18945 0.51562 1.3594-0.66797 0.54883 1.1445 0.22852-0.11133-0.77734-1.6211zm-16.6 0.57812-0.7832 1.6211 0.23047 0.10938 0.55273-1.1426 0.32031 0.1543 1.082 0.39453 0.18945-0.51953-1.2715-0.46289-0.32031-0.1543zm11.705 1.209-0.14258 0.04102-1.5449 0.23828 0.08789 0.57422 1.457-0.22461 0.14258-0.04102 0.30664 1.1914 0.14258-0.03711-0.44922-1.7422zm-6.793 0.19141-0.27344 1.791 0.08789 0.01367 0.18555-1.2168 0.85547 0.13672 0.81445 0.03711 0.0293-0.58594-0.84375-0.03906-0.85547-0.13672z" fill="#3a7198" fill-opacity=".28137" stroke-width="2.2139"/>
</svg>
