<svg width="128" height="128" version="1.1" viewBox="0 0 128 128" xmlns="http://www.w3.org/2000/svg">
<defs>
<linearGradient id="linearGradient828" x1="655.16" x2="655.16" y1="211.5" y2="419.86" gradientTransform="matrix(.39478 0 0 .39478 -194.76 -53.484)" gradientUnits="userSpaceOnUse">
<stop stop-color="#66aed7" offset="0"/>
<stop stop-color="#6cb1d7" offset=".33128"/>
<stop stop-color="#76b6d7" offset=".50478"/>
<stop stop-color="#7bb6d5" offset=".60396"/>
<stop stop-color="#77b2d0" offset=".80198"/>
<stop stop-color="#6aa4c2" offset="1"/>
</linearGradient>
<linearGradient id="linearGradient859" x1="-286.85" x2="-286.85" y1="201.42" y2="326.3" gradientTransform="matrix(.39478 0 0 .39478 167.73 -64.642)" gradientUnits="userSpaceOnUse">
<stop stop-color="#608ea7" offset="0"/>
<stop stop-color="#5887a2" offset=".16505"/>
<stop stop-color="#4e7890" offset=".29031"/>
<stop stop-color="#4a7289" offset=".34926"/>
<stop stop-color="#345a6c" offset=".38956"/>
<stop stop-color="#33586d" offset=".444"/>
<stop stop-color="#4e88a4" stop-opacity="0" offset="1"/>
</linearGradient>
<linearGradient id="linearGradient1027" x1="324.15" x2="324.15" y1="82.222" y2="125.95" gradientTransform="translate(-244.43,-34.48)" gradientUnits="userSpaceOnUse">
<stop stop-color="#5291bd" offset="0"/>
<stop stop-color="#5291bd" offset=".12336"/>
<stop stop-color="#5e99b9" offset="1"/>
</linearGradient>
</defs>
<path d="m7.9342 15.215c-3.391 0-6.1214 2.7297-6.1214 6.1206v27.211c19.294 15.457 121.85 17.085 124.92 4.1073v-21.828c0-3.391-2.7304-6.1206-6.1214-6.1206h-71.623c-3.596 0-5.767-4.553-8.2038-7.8536-1.0918-1.0164-2.5579-1.6365-4.1743-1.6365z" fill="url(#linearGradient859)" style="paint-order:fill markers stroke"/>
<path d="m8.3844 30.357c-3.6124 0-6.5208 2.9077-6.5208 6.52v72.546c0 1.8154 1.4616 3.277 3.277 3.277h118.3c1.8154 0 3.277-1.4616 3.277-3.277v-72.546c0-3.6123-2.9077-6.52-6.52-6.52z" fill="url(#linearGradient828)" style="paint-order:fill markers stroke"/>
<path d="m8.384 30.357c-3.6124 0-6.5208 2.9077-6.5208 6.52v0.27527c0-3.6123 2.9085-6.52 6.5208-6.52h111.81c3.6123 0 6.52 2.9077 6.52 6.52v-0.27527c0-3.6123-2.9077-6.52-6.52-6.52z" fill="#ebf5fa" fill-opacity=".23626" style="paint-order:fill markers stroke"/>
<path d="m2.095 102.95h124.29" fill="none" stroke="#fff" stroke-opacity=".25275" stroke-width=".31582"/>
<g transform="matrix(.39478 0 0 .39478 -44.909 -40.529)" fill="none" stroke-width=".8">
<path d="m118.62 371.57h314.84" stroke="#fff" stroke-opacity=".18681"/>
<path d="m118.62 370.75h314.84" stroke="#22394c" stroke-opacity=".27473"/>
</g>
<g transform="matrix(.39478 0 0 .39478 -44.909 -37.089)" fill="none" stroke-width=".8">
<path d="m118.62 371.57h314.84" stroke="#fff" stroke-opacity=".18681"/>
<path d="m118.62 370.75h314.84" stroke="#22394c" stroke-opacity=".2967"/>
</g>
<path d="m83.79 46.571c-7.1788 0-13.003 5.7575-13 12.998l-9.75 13c-1.7679 0-3.5155 0.49307-5.0332 1.416l-24.215-9.9414v10.549l19.512 7.998c0.14624 5.2712 4.4619 9.4701 9.7363 9.4766 5.3849 0 9.7695-4.5568 9.75-9.75l13-9.748c7.2373 0 12.998-5.8212 12.998-13s-5.8192-12.998-12.998-12.998zm0 3.248c5.3849 0 9.748 4.3651 9.748 9.75s-4.3631 9.75-9.748 9.75c-5.3817 0-9.6492-5.314-9.75-9.75 0-5.3849 4.3651-9.75 9.75-9.75zm0 3.25c-3.591 0-6.5 2.909-6.5 6.5s2.909 6.5 6.5 6.5 6.498-2.909 6.498-6.5-2.907-6.5-6.498-6.5zm-22.75 22.75c3.591 0 6.5 2.907 6.5 6.498s-2.909 6.5-6.5 6.5c-2.9378 0-5.5104-1.9696-6.2773-4.8066l2.9004 1.1895c2.4991 1.0237 5.3376-0.16106 6.3613-2.6602 1.0237-2.4991-0.1591-5.3376-2.6582-6.3613l-0.82617-0.33398c0.16574-0.01625 0.33426-0.02214 0.5-0.02539z" fill="url(#linearGradient1027)" stroke-width="2.2139"/>
<path d="m83.789 46.572c-7.1788 0-13.003 5.7575-13 12.998l-9.75 13c-1.7679 0-3.5155 0.49307-5.0332 1.416l-24.215-9.9414v1.2773l24.215 9.9414c1.5177-0.92294 3.2653-1.416 5.0332-1.416l9.75-13c-0.0033-7.2406 5.8212-12.998 13-12.998 6.9631 1e-6 12.631 5.4795 12.967 12.359 0.01029-0.21318 0.03125-0.42292 0.03125-0.63867 0-7.1788-5.8192-12.998-12.998-12.998zm0 6.498c-3.591 0-6.5 2.909-6.5 6.5 0 0.21585 0.01267 0.42824 0.0332 0.63867 0.32112-3.2906 3.0916-5.8613 6.4668-5.8613s6.1459 2.5708 6.4668 5.8613c0.02052-0.21043 0.03125-0.42282 0.03125-0.63867 0-3.591-2.907-6.5-6.498-6.5zm-9.709 6.9922c-0.02079 0.25995-0.04102 0.51985-0.04102 0.78516 0.10075 4.436 4.3683 9.75 9.75 9.75 5.3849 0 9.748-4.3651 9.748-9.75 0-0.21579-0.01745-0.42637-0.03125-0.63867-0.33053 5.0855-4.5477 9.1113-9.7168 9.1113-5.1845 0-9.3218-4.9304-9.709-9.2578zm-13.041 17.035c-0.16574 0.0033-0.33426 0.0091-0.5 0.02539l0.82617 0.33398c1.681 0.68859 2.7459 2.2017 2.9648 3.877 0.19272-1.4235-0.25208-2.8365-1.1895-3.8848-0.65974-0.22526-1.3653-0.35156-2.1016-0.35156zm6.4688 5.8594c-0.32112 3.2906-3.0936 5.8613-6.4688 5.8613-2.3597 0-4.4654-1.2837-5.6074-3.2539l-0.66992-0.27539c0.76695 2.8371 3.3395 4.8066 6.2773 4.8066 3.591 0 6.5-2.909 6.5-6.5 0-0.21585-0.01071-0.42825-0.03125-0.63867z" fill="#3c769e" fill-opacity=".18681" stroke-width="2.2139"/>
</svg>
