<svg width="128" height="128" version="1.1" viewBox="0 0 128 128" xmlns="http://www.w3.org/2000/svg">
<defs>
<linearGradient id="linearGradient828" x1="655.16" x2="655.16" y1="211.5" y2="419.86" gradientTransform="matrix(.39478 0 0 .39478 -194.76 -40.484)" gradientUnits="userSpaceOnUse"/>
<linearGradient id="linearGradient859" x1="-286.85" x2="-286.85" y1="201.42" y2="326.3" gradientTransform="matrix(.39478 0 0 .39478 167.73 -51.642)" gradientUnits="userSpaceOnUse"/>
<linearGradient id="linearGradient1027" x1="-174.84" x2="-174.84" y1="61.99" y2="102.04" gradientTransform="translate(240.11 .69869)" gradientUnits="userSpaceOnUse"/>
<style id="current-color-scheme" type="text/css">.ColorScheme-Text {
        color:#4d4d4d;
      }</style>
<style id="current-color-scheme-3" type="text/css">.ColorScheme-Text {
        color:#4d4d4d;
      }</style>
</defs>
<path d="m7.9342 28.215c-3.391 0-6.1214 2.7297-6.1214 6.1206v27.211c19.294 15.457 121.85 17.085 124.92 4.1073v-21.828c0-3.391-2.7304-6.1206-6.1214-6.1206h-71.623c-3.596 0-5.767-4.553-8.2038-7.8536-1.0918-1.0164-2.5579-1.6365-4.1743-1.6365z" fill="url(#linearGradient859)" style="paint-order:fill markers stroke"/>
<path d="m8.3844 43.357c-3.6124 0-6.5208 2.9077-6.5208 6.52v72.546c0 1.8154 1.4616 3.277 3.277 3.277h118.3c1.8154 0 3.277-1.4616 3.277-3.277v-72.546c0-3.6123-2.9077-6.52-6.52-6.52z" fill="url(#linearGradient828)" style="paint-order:fill markers stroke"/>
<path d="m8.384 43.357c-3.6124 0-6.5208 2.9077-6.5208 6.52v0.27527c0-3.6123 2.9085-6.52 6.5208-6.52h111.81c3.6123 0 6.52 2.9077 6.52 6.52v-0.27527c0-3.6123-2.9077-6.52-6.52-6.52z" fill="#ebf5fa" fill-opacity=".23626" style="paint-order:fill markers stroke"/>
<path d="m2.095 115.95h124.29" fill="none" stroke="#fff" stroke-opacity=".25275" stroke-width=".31582"/>
<g transform="matrix(.39478 0 0 .39478 -44.909 -40.529)" fill="none" stroke-width=".8">
<path d="m118.62 404.5h314.84" stroke="#fff" stroke-opacity=".18681"/>
<path d="m118.62 403.68h314.84" stroke="#22394c" stroke-opacity=".27473"/>
</g>
<g transform="matrix(.39478 0 0 .39478 -44.909 -37.089)" fill="none" stroke-width=".8">
<path d="m118.62 404.5h314.84" stroke="#fff" stroke-opacity=".18681"/>
<path d="m118.62 403.68h314.84" stroke="#22394c" stroke-opacity=".2967"/>
</g>
<path d="m46.489 61.897c-11.797 5.38e-4 -21.36 9.5643-21.359 21.361 5.4e-4 11.796 9.5631 21.359 21.359 21.359 6.3369 0 11.998-2.7403 15.914-7.1191h3.7734c3.9161 4.3789 9.5772 7.1191 15.914 7.1191 11.796-5.4e-4 21.359-9.5631 21.359-21.359 5.4e-4 -11.797-9.5624-21.361-21.359-21.361zm-3.5586 10.682h7.1191v7.1191h7.1191v7.1211h-7.1191v7.1191h-7.1191v-7.1191h-7.1211v-7.1211h7.1211zm44.5 0c2.9491 1.34e-4 5.3397 2.3908 5.3398 5.3398-1.34e-4 2.9491-2.3908 5.3397-5.3398 5.3398-2.9491-1.34e-4 -5.3397-2.3908-5.3398-5.3398 1.34e-4 -2.9491 2.3908-5.3397 5.3398-5.3398zm-10.68 10.68c2.9491 1.34e-4 5.3397 2.3908 5.3398 5.3398-1.35e-4 2.9491-2.3908 5.3397-5.3398 5.3398-2.9498 9.45e-4 -5.3417-2.39-5.3418-5.3398 1.34e-4 -2.9498 2.392-5.3408 5.3418-5.3398z" fill="url(#linearGradient1027)" stroke-width="2.2139"/>
<path d="m46.488 61.896c-11.797 5.38e-4 -21.36 9.5643-21.359 21.361 1.3e-5 0.27565 0.011123 0.54915 0.021485 0.82227 0.43207-11.415 9.8166-20.539 21.338-20.539h35.602c11.521 5.25e-4 20.908 9.1236 21.34 20.539 0.01036-0.27312 0.01952-0.54662 0.01953-0.82227 5.4e-4 -11.797-9.5624-21.361-21.359-21.361h-35.602zm35.672 16.844c-0.041597 0.26853-0.0703 0.54208-0.070312 0.82227 1.34e-4 2.9491 2.3908 5.3397 5.3398 5.3398 2.9491-1.34e-4 5.3397-2.3908 5.3398-5.3398-1.2e-5 -0.28018-0.026762-0.55374-0.068359-0.82227-0.39623 2.5579-2.6026 4.5175-5.2715 4.5176-2.6689-1.21e-4 -4.8733-1.9597-5.2695-4.5176zm-46.352 8.0781v1.6445h7.1211v-1.6445h-7.1211zm14.24 0v1.6445h7.1191v-1.6445h-7.1191zm21.43 2.6016c-0.041617 0.26859-0.0703 0.54201-0.070313 0.82227 1.35e-4 2.9498 2.392 5.3408 5.3418 5.3398 2.9491-1.34e-4 5.3397-2.3908 5.3398-5.3398-1.3e-5 -0.28018-0.026763-0.55374-0.06836-0.82227-0.39623 2.5579-2.6026 4.5175-5.2715 4.5176-2.6696 8.55e-4 -4.8751-1.9591-5.2715-4.5176zm-28.549 4.5176v1.6445h7.1191v-1.6445h-7.1191z" fill="#386e93" fill-opacity=".25475" stroke-width="2.2139"/>
</svg>
