<svg width="128" height="128" version="1.1" viewBox="0 0 128 128" xmlns="http://www.w3.org/2000/svg">
<defs>
<linearGradient id="linearGradient828" x1="655.16" x2="655.16" y1="211.5" y2="419.86" gradientTransform="matrix(.39478 0 0 .39478 -194.76 -40.484)" gradientUnits="userSpaceOnUse"/>
<linearGradient id="linearGradient859" x1="-286.85" x2="-286.85" y1="201.42" y2="326.3" gradientTransform="matrix(.39478 0 0 .39478 167.73 -51.642)" gradientUnits="userSpaceOnUse"/>
<linearGradient id="linearGradient885" x1="655.16" x2="655.16" y1="211.5" y2="419.86" gradientTransform="translate(-48.418 -469.22)" gradientUnits="userSpaceOnUse"/>
<filter id="filter898" color-interpolation-filters="sRGB">
<feTurbulence baseFrequency="1" numOctaves="3" result="result0" type="fractalNoise"/>
<feColorMatrix result="result4" type="saturate" values="0"/>
<feComposite in="SourceGraphic" in2="result4" k1="1.25" k2="0.5" k3="0.5" operator="arithmetic" result="result2"/>
<feBlend in="result2" in2="SourceGraphic" result="result5"/>
<feComposite in="result5" in2="SourceGraphic" operator="in" result="result3"/>
</filter>
<linearGradient id="linearGradient1393" x1="177.06" x2="177.06" y1="59.643" y2="104.67" gradientTransform="translate(-30.811 -4.6009)" gradientUnits="userSpaceOnUse"/>
</defs>
<path transform="matrix(.39478 0 0 .39478 338.34 448.79)" d="m465.03-295.2c-8.5896 0-15.506 6.9144-15.506 15.504v68.926c0 0.64896 0.052 1.2826 0.1289 1.9102v152.29c0 4.5986 3.7022 8.3008 8.3008 8.3008h299.66c4.5986 0 8.3008-3.7022 8.3008-8.3008v-183.76c0-2.1912-0.433-4.2757-1.2011-6.1855v-9.1426c0-8.5895-6.9164-15.504-15.506-15.504h-180.18c-9.1089 0-14.609-11.534-20.781-19.895-2.7657-2.5745-6.478-4.1445-10.572-4.1445z" fill="url(#linearGradient885)" filter="url(#filter898)" opacity=".058" style="paint-order:fill markers stroke"/>
<path d="m7.9342 28.215c-3.391 0-6.1214 2.7297-6.1214 6.1206v27.211c19.294 15.457 121.85 17.085 124.92 4.1073v-21.828c0-3.391-2.7304-6.1206-6.1214-6.1206h-71.623c-3.596 0-5.767-4.553-8.2038-7.8536-1.0918-1.0164-2.5579-1.6365-4.1743-1.6365z" fill="url(#linearGradient859)" style="paint-order:fill markers stroke"/>
<path d="m8.3844 43.357c-3.6124 0-6.5208 2.9077-6.5208 6.52v72.546c0 1.8154 1.4616 3.277 3.277 3.277h118.3c1.8154 0 3.277-1.4616 3.277-3.277v-72.546c0-3.6123-2.9077-6.52-6.52-6.52z" fill="url(#linearGradient828)" style="paint-order:fill markers stroke"/>
<path d="m8.384 43.357c-3.6124 0-6.5208 2.9077-6.5208 6.52v0.27527c0-3.6123 2.9085-6.52 6.5208-6.52h111.81c3.6123 0 6.52 2.9077 6.52 6.52v-0.27527c0-3.6123-2.9077-6.52-6.52-6.52z" fill="#ebf5fa" fill-opacity=".23626" style="paint-order:fill markers stroke"/>
<path d="m2.095 115.95h124.29" fill="none" stroke="#fff" stroke-opacity=".25275" stroke-width=".31582"/>
<g transform="matrix(.39478 0 0 .39478 -44.909 -40.529)" fill="none" stroke-width=".8">
<path d="m118.62 404.5h314.84" stroke="#fff" stroke-opacity=".18681"/>
<path d="m118.62 403.68h314.84" stroke="#22394c" stroke-opacity=".27473"/>
</g>
<g transform="matrix(.39478 0 0 .39478 -44.909 -37.089)" fill="none" stroke-width=".8">
<path d="m118.62 404.5h314.84" stroke="#fff" stroke-opacity=".18681"/>
<path d="m118.62 403.68h314.84" stroke="#22394c" stroke-opacity=".2967"/>
</g>
<path d="m85.719 54.477-29.488 5.043c-0.62744 0.10848-1.1484 0.51173-1.1484 1.1484v34.047c-0.46549 2.7324-5.1172 1.6407-8.3438 1.877-3.8793 0.51871-5.7228 4.9692-4.7852 8.2441 0.7583 2.4381 3.0871 4.2622 6.4688 4.5996 3.5398 0.37946 9.5545-0.573 10.232-8.2383l0.0293 0.0215v-29.955l24.537-4.1953v22.576c-0.5609 2.6064-5.1373 1.5438-8.3242 1.7773-3.8793 0.51871-5.7248 4.9692-4.7871 8.2441 0.7583 2.4381 3.089 4.2622 6.4707 4.5996 3.4772 0.3726 9.3326-0.55161 10.182-7.8496l0.06055-0.0625v-0.42188c0.0011-0.02214 5e-3 -0.02356 0.0059-0.03906h-0.0039l0.0039-2.1543 0.03906-38.096c0-0.55723-0.39982-1.1005-0.91992-1.1562v-0.0098z" fill="url(#linearGradient1393)" stroke-width="2.2139"/>
</svg>
