<svg width="128" height="128" version="1.1" viewBox="0 0 128 128" xmlns="http://www.w3.org/2000/svg">
<defs>
<linearGradient id="linearGradient828" x1="655.16" x2="655.16" y1="211.5" y2="419.86" gradientTransform="matrix(.39478 0 0 .39478 -194.76 -40.484)" gradientUnits="userSpaceOnUse"/>
<linearGradient id="linearGradient859" x1="-286.85" x2="-286.85" y1="201.42" y2="326.3" gradientTransform="matrix(.39478 0 0 .39478 167.73 -51.642)" gradientUnits="userSpaceOnUse"/>
<linearGradient id="linearGradient1027" x1="202.85" x2="202.85" y1="71.3" y2="126.88" gradientTransform="translate(-144.4 -17.207)" gradientUnits="userSpaceOnUse"/>
</defs>
<path d="m7.9342 28.215c-3.391 0-6.1214 2.7297-6.1214 6.1206v27.211c19.294 15.457 121.85 17.085 124.92 4.1073v-21.828c0-3.391-2.7304-6.1206-6.1214-6.1206h-71.623c-3.596 0-5.767-4.553-8.2038-7.8536-1.0918-1.0164-2.5579-1.6365-4.1743-1.6365z" fill="url(#linearGradient859)" style="paint-order:fill markers stroke"/>
<path d="m8.3844 43.357c-3.6124 0-6.5208 2.9077-6.5208 6.52v72.546c0 1.8154 1.4616 3.277 3.277 3.277h118.3c1.8154 0 3.277-1.4616 3.277-3.277v-72.546c0-3.6123-2.9077-6.52-6.52-6.52z" fill="url(#linearGradient828)" style="paint-order:fill markers stroke"/>
<path d="m8.384 43.357c-3.6124 0-6.5208 2.9077-6.5208 6.52v0.27527c0-3.6123 2.9085-6.52 6.5208-6.52h111.81c3.6123 0 6.52 2.9077 6.52 6.52v-0.27527c0-3.6123-2.9077-6.52-6.52-6.52z" fill="#ebf5fa" fill-opacity=".23626" style="paint-order:fill markers stroke"/>
<path d="m2.095 115.95h124.29" fill="none" stroke="#fff" stroke-opacity=".25275" stroke-width=".31582"/>
<g transform="matrix(.39478 0 0 .39478 -44.909 -40.529)" fill="none" stroke-width=".8">
<path d="m118.62 404.5h314.84" stroke="#fff" stroke-opacity=".18681"/>
<path d="m118.62 403.68h314.84" stroke="#22394c" stroke-opacity=".27473"/>
</g>
<g transform="matrix(.39478 0 0 .39478 -44.909 -37.089)" fill="none" stroke-width=".8">
<path d="m118.62 404.5h314.84" stroke="#fff" stroke-opacity=".18681"/>
<path d="m118.62 403.68h314.84" stroke="#22394c" stroke-opacity=".2967"/>
</g>
<path d="m60.24 52.604c-2.0785-0.05698-3.8806 1.4276-4.2226 3.4785l-5.0391 30.227-3.4726-13.893c-0.46292-1.8541-2.1281-3.1553-4.0391-3.1562h-12.496v8.3301h9.2441l7.541 30.164c1.0971 4.3791 7.4027 4.1282 8.1484-0.32422l5.6934-34.158 5.0176 14.049c1.3524 3.7875 6.7558 3.6488 7.9121-0.20312l2.4668-8.2246 4.1699 12.51c0.56706 1.7006 2.1586 2.8476 3.9512 2.8477h12.494v-8.3301h-9.4922l-7.3809-22.141c-1.2853-3.8592-6.7725-3.7769-7.9414 0.11914l-2.6016 8.6758-6.1465-17.209c-0.5781-1.6174-2.0897-2.714-3.8066-2.7617z" fill="url(#linearGradient1027)" stroke-width="2.2139"/>
<path d="m60.24 52.604c-2.0785-0.05698-3.8806 1.4276-4.2227 3.4785l-5.0391 30.227-3.4727-13.893c-0.46292-1.8541-2.1281-3.1553-4.0391-3.1562h-12.496v1.3965h12.496c1.911 9.81e-4 3.5761 1.3022 4.0391 3.1562l3.4727 13.893 5.0391-30.227c0.34204-2.0509 2.1442-3.5355 4.2227-3.4785 1.7169 0.047669 3.2285 1.1443 3.8066 2.7617l6.1465 17.209 2.6016-8.6758c1.169-3.896 6.6561-3.9783 7.9414-0.11914l7.3809 22.141h9.4922v-1.3965h-9.4922l-7.3809-22.141c-1.2853-3.8592-6.7725-3.7769-7.9414 0.11914l-2.6016 8.6758-6.1465-17.209c-0.5781-1.6174-2.0897-2.714-3.8066-2.7617z" fill="#386e94" fill-opacity=".36264" stroke-width="2.2139"/>
</svg>
