<svg width="128" height="128" version="1.1" viewBox="0 0 128 128" xmlns="http://www.w3.org/2000/svg">
<defs>
<linearGradient id="linearGradient828" x1="655.16" x2="655.16" y1="211.5" y2="419.86" gradientTransform="matrix(.39478 0 0 .39478 -194.76 -40.484)" gradientUnits="userSpaceOnUse"/>
<linearGradient id="linearGradient859" x1="-286.85" x2="-286.85" y1="201.42" y2="326.3" gradientTransform="matrix(.39478 0 0 .39478 167.73 -51.642)" gradientUnits="userSpaceOnUse"/>
<linearGradient id="linearGradient1027" x1="3.9096" x2="3.9096" y1="49.421" y2="92.463" gradientTransform="translate(65.909 7.8626)" gradientUnits="userSpaceOnUse"/>
<style id="current-color-scheme" type="text/css">.ColorScheme-Text {
        color:#4d4d4d;
      }</style>
<style id="current-color-scheme-3" type="text/css">.ColorScheme-Text {
        color:#4d4d4d;
      }</style>
</defs>
<path d="m7.9342 28.215c-3.391 0-6.1214 2.7297-6.1214 6.1206v27.211c19.294 15.457 121.85 17.085 124.92 4.1073v-21.828c0-3.391-2.7304-6.1206-6.1214-6.1206h-71.623c-3.596 0-5.767-4.553-8.2038-7.8536-1.0918-1.0164-2.5579-1.6365-4.1743-1.6365z" fill="url(#linearGradient859)" style="paint-order:fill markers stroke"/>
<path d="m8.3844 43.357c-3.6124 0-6.5208 2.9077-6.5208 6.52v72.546c0 1.8154 1.4616 3.277 3.277 3.277h118.3c1.8154 0 3.277-1.4616 3.277-3.277v-72.546c0-3.6123-2.9077-6.52-6.52-6.52z" fill="url(#linearGradient828)" style="paint-order:fill markers stroke"/>
<path d="m8.384 43.357c-3.6124 0-6.5208 2.9077-6.5208 6.52v0.27527c0-3.6123 2.9085-6.52 6.5208-6.52h111.81c3.6123 0 6.52 2.9077 6.52 6.52v-0.27527c0-3.6123-2.9077-6.52-6.52-6.52z" fill="#ebf5fa" fill-opacity=".23626" style="paint-order:fill markers stroke"/>
<path d="m2.095 115.95h124.29" fill="none" stroke="#fff" stroke-opacity=".25275" stroke-width=".31582"/>
<g transform="matrix(.39478 0 0 .39478 -44.909 -40.529)" fill="none" stroke-width=".8">
<path d="m118.62 404.5h314.84" stroke="#fff" stroke-opacity=".18681"/>
<path d="m118.62 403.68h314.84" stroke="#22394c" stroke-opacity=".27473"/>
</g>
<g transform="matrix(.39478 0 0 .39478 -44.909 -37.089)" fill="none" stroke-width=".8">
<path d="m118.62 404.5h314.84" stroke="#fff" stroke-opacity=".18681"/>
<path d="m118.62 403.68h314.84" stroke="#22394c" stroke-opacity=".2967"/>
</g>
<path d="m69.818 57.284c-7.6836 0-14.292 4.4295-17.207 10.775-1.5592-1.2096-3.5184-1.9277-5.6445-1.9277-5.0082 0-9.0829 3.9954-9.2109 8.9727-5.1695 1.9388-8.8496 6.925-8.8496 12.771 0 6.9064 5.1349 12.614 11.795 13.514v0.12305h47.178v-0.0215c6.5778-0.38156 11.795-5.8364 11.795-12.51 0-6.4357-4.8522-11.74-11.098-12.451 0.0265-0.39235 0.03906-0.78673 0.03906-1.1855 0-9.974-8.4155-18.061-18.797-18.061z" fill="url(#linearGradient1027)" stroke-width="2.2139"/>
<path d="m69.818 57.283c-7.6836 0-14.292 4.4295-17.207 10.775-1.5592-1.2096-3.5184-1.9277-5.6445-1.9277-5.0082 0-9.0829 3.9954-9.2109 8.9727-5.1695 1.9388-8.8496 6.925-8.8496 12.771 0 0.254 0.021445 0.50333 0.035156 0.75391 0.346-5.4654 3.9047-10.057 8.8145-11.898 0.12805-4.9773 4.2027-8.9727 9.2109-8.9727 2.1261 0 4.0853 0.71816 5.6445 1.9277 2.9149-6.3459 9.5234-10.775 17.207-10.775 10.162 0 18.418 7.7535 18.764 17.436 0.018776-0.33217 0.033203-0.6649 0.033203-1.002 0-9.974-8.4155-18.061-18.797-18.061zm18.773 19.248c0.003706 0.14757 0.023437 0.29103 0.023437 0.43945 0 0.39882-0.012562 0.79319-0.039062 1.1855 5.9752 0.68085 10.663 5.5677 11.059 11.625 0.016843-0.2659 0.039062-0.53064 0.039062-0.80078 0-6.4303-4.8442-11.73-11.082-12.449z" fill="#264a63" fill-opacity=".093407" stroke-width="2.2139"/>
</svg>
