<svg width="128" height="128" version="1.1" viewBox="0 0 128 128" xmlns="http://www.w3.org/2000/svg">
<defs>
<linearGradient id="linearGradient828" x1="655.16" x2="655.16" y1="211.5" y2="419.86" gradientTransform="matrix(.39478 0 0 .39478 -194.76 -40.484)" gradientUnits="userSpaceOnUse"/>
<linearGradient id="linearGradient859" x1="-286.85" x2="-286.85" y1="201.42" y2="326.3" gradientTransform="matrix(.39478 0 0 .39478 167.73 -51.642)" gradientUnits="userSpaceOnUse"/>
<linearGradient id="linearGradient1027" x1="48.451" x2="48.451" y1="66.611" y2="120.57" gradientTransform="translate(17.494 -12.679)" gradientUnits="userSpaceOnUse"/>
</defs>
<path d="m7.9342 28.215c-3.391 0-6.1214 2.7297-6.1214 6.1206v27.211c19.294 15.457 121.85 17.085 124.92 4.1073v-21.828c0-3.391-2.7304-6.1206-6.1214-6.1206h-71.623c-3.596 0-5.767-4.553-8.2038-7.8536-1.0918-1.0164-2.5579-1.6365-4.1743-1.6365z" fill="url(#linearGradient859)" style="paint-order:fill markers stroke"/>
<path d="m8.3844 43.357c-3.6124 0-6.5208 2.9077-6.5208 6.52v72.546c0 1.8154 1.4616 3.277 3.277 3.277h118.3c1.8154 0 3.277-1.4616 3.277-3.277v-72.546c0-3.6123-2.9077-6.52-6.52-6.52z" fill="url(#linearGradient828)" style="paint-order:fill markers stroke"/>
<path d="m8.384 43.357c-3.6124 0-6.5208 2.9077-6.5208 6.52v0.27527c0-3.6123 2.9085-6.52 6.5208-6.52h111.81c3.6123 0 6.52 2.9077 6.52 6.52v-0.27527c0-3.6123-2.9077-6.52-6.52-6.52z" fill="#ebf5fa" fill-opacity=".23626" style="paint-order:fill markers stroke"/>
<path d="m2.095 115.95h124.29" fill="none" stroke="#fff" stroke-opacity=".25275" stroke-width=".31582"/>
<g transform="matrix(.39478 0 0 .39478 -44.909 -40.529)" fill="none" stroke-width=".8">
<path d="m118.62 404.5h314.84" stroke="#fff" stroke-opacity=".18681"/>
<path d="m118.62 403.68h314.84" stroke="#22394c" stroke-opacity=".27473"/>
</g>
<g transform="matrix(.39478 0 0 .39478 -44.909 -37.089)" fill="none" stroke-width=".8">
<path d="m118.62 404.5h314.84" stroke="#fff" stroke-opacity=".18681"/>
<path d="m118.62 403.68h314.84" stroke="#22394c" stroke-opacity=".2967"/>
</g>
<path d="m58.89 51.954c-0.63822 0.02214-1.2811 0.18792-1.873 0.5293-1.8943 1.0936-2.543 3.514-1.4492 5.4082l4.0469 7.0098-12.939 22.418h-10.104c-2.1875 0-3.959 1.7717-3.959 3.959 0 2.1877 1.7715 3.9609 3.959 3.9609h36.014c1.7402-3.2364-0.50184-7.9199-4.4766-7.9199h-12.293l16.988-29.428c1.0938-1.8942 0.44503-4.3146-1.4492-5.4082-1.8942-1.0939-4.3164-0.44496-5.4102 1.4492 0 0-0.87665 3.0442-1.7578 3.0488-0.87968 0-1.7617-3.0488-1.7617-3.0488-0.75195-1.3022-2.131-2.0148-3.5352-1.9785zm11.148 15.162c-2.3416 1.9347-4.7096 7.6816-1.3984 13.418 4.8822 8.4547 9.7664 16.91 14.646 25.365 1.0937 1.8942 3.514 2.5411 5.4082 1.4473s2.543-3.5121 1.4492-5.4062l-3.8691-6.7051h5.7324c2.1875 0 3.959-1.7734 3.959-3.9609 0-2.1875-1.7715-3.959-3.959-3.959h-10.305c-3.887-6.7335-7.7771-13.466-11.664-20.199zm-25.754 29.373c-1.2009 0.0531-2.3247 0.6722-2.9492 1.7539l-2.8477 4.9336c-0.99923 1.7308-0.33187 3.9742 1.4961 5.0293 1.828 1.0556 4.1043 0.51161 5.1035-1.2188l2.8477-4.9336c0.99923-1.7308 0.33186-3.9737-1.4961-5.0293-0.68549-0.39584-1.4338-0.56725-2.1543-0.53515z" fill="url(#linearGradient1027)" stroke-width="2.2139"/>
<path d="m58.891 51.953c-0.63822 0.02214-1.2811 0.18792-1.873 0.5293-1.4779 0.85325-2.1846 2.5131-1.9102 4.1016 0.18705-1.128 0.84214-2.1705 1.9102-2.7871 0.59196-0.34138 1.2348-0.50716 1.873-0.5293 1.4041-0.036307 2.7832 0.67632 3.5352 1.9785 0 0 0.88204 3.0488 1.7617 3.0488 0.88117-0.004649 1.7578-3.0488 1.7578-3.0488 1.0937-1.8942 3.5159-2.5431 5.4102-1.4492 1.068 0.61662 1.7231 1.6591 1.9102 2.7871 0.27441-1.5884-0.43229-3.2483-1.9102-4.1016-1.8942-1.0939-4.3164-0.44496-5.4102 1.4492 0 0-0.87664 3.0442-1.7578 3.0488-0.87968 0-1.7617-3.0488-1.7617-3.0488-0.75195-1.3022-2.131-2.0148-3.5352-1.9785zm0.3457 13.605-12.561 21.76h-10.104c-2.1875 0-3.959 1.7717-3.959 3.959 0 0.22534 0.030299 0.44314 0.066407 0.6582 0.3143-1.8725 1.9303-3.3027 3.8926-3.3027h10.104l12.939-22.418-0.37891-0.65625zm10.803 1.5566c-1.6157 1.335-3.2433 4.4861-3.0098 8.1953 0.16604-3.1263 1.5892-5.7071 3.0098-6.8809 3.887 6.7337 7.7771 13.466 11.664 20.199h10.305c1.9623 0 3.5783 1.4301 3.8926 3.3027 0.036106-0.21505 0.066407-0.43288 0.066406-0.6582 0-2.1875-1.7715-3.959-3.959-3.959h-10.305c-3.887-6.7335-7.7771-13.466-11.664-20.199zm-13.463 20.203-0.75977 1.3145h12.293c2.8001 1e-6 4.7317 2.3266 5.0254 4.832 0.35815-2.9402-1.7365-6.1465-5.0254-6.1465h-11.533zm29.699 9.2305 3.8691 6.7051c0.24034 0.41622 0.3836 0.85942 0.46094 1.3066 0.14444-0.87193 0.015957-1.7952-0.46094-2.6211l-3.1113-5.3906h-0.75781zm-42.514 0.003906c-0.99652 0.18571-1.8934 0.76733-2.4258 1.6895l-2.8477 4.9336c-0.43276 0.7496-0.53611 1.5928-0.38476 2.3965 0.07092-0.37102 0.18623-0.73815 0.38476-1.082l2.8477-4.9336c0.62452-1.0817 1.7483-1.7008 2.9492-1.7539 0.72054-0.0321 1.4688 0.13932 2.1543 0.53516 1.0359 0.59822 1.6825 1.5812 1.8809 2.6328 0.28546-1.4959-0.41646-3.1016-1.8809-3.9473-0.4232-0.24438-0.87055-0.39248-1.3203-0.4707h-1.3574z" fill="#3b739a" fill-opacity=".23077" stroke-width="2.2139"/>
</svg>
