<svg width="128" height="128" version="1.1" viewBox="0 0 128 128" xmlns="http://www.w3.org/2000/svg">
<defs>
<linearGradient id="linearGradient828" x1="655.16" x2="655.16" y1="211.5" y2="419.86" gradientTransform="matrix(.39478 0 0 .39478 -194.76 -40.484)" gradientUnits="userSpaceOnUse"/>
<linearGradient id="linearGradient859" x1="-286.85" x2="-286.85" y1="201.42" y2="326.3" gradientTransform="matrix(.39478 0 0 .39478 167.73 -51.642)" gradientUnits="userSpaceOnUse"/>
<linearGradient id="linearGradient1027" x1="133.83" x2="133.83" y1="71.765" y2="119.91" gradientTransform="translate(-69.729 -14.651)" gradientUnits="userSpaceOnUse"/>
</defs>
<path d="m7.9342 28.215c-3.391 0-6.1214 2.7297-6.1214 6.1206v27.211c19.294 15.457 121.85 17.085 124.92 4.1073v-21.828c0-3.391-2.7304-6.1206-6.1214-6.1206h-71.623c-3.596 0-5.767-4.553-8.2038-7.8536-1.0918-1.0164-2.5579-1.6365-4.1743-1.6365z" fill="url(#linearGradient859)" style="paint-order:fill markers stroke"/>
<path d="m8.3844 43.357c-3.6124 0-6.5208 2.9077-6.5208 6.52v72.546c0 1.8154 1.4616 3.277 3.277 3.277h118.3c1.8154 0 3.277-1.4616 3.277-3.277v-72.546c0-3.6123-2.9077-6.52-6.52-6.52z" fill="url(#linearGradient828)" style="paint-order:fill markers stroke"/>
<path d="m8.384 43.357c-3.6124 0-6.5208 2.9077-6.5208 6.52v0.27527c0-3.6123 2.9085-6.52 6.5208-6.52h111.81c3.6123 0 6.52 2.9077 6.52 6.52v-0.27527c0-3.6123-2.9077-6.52-6.52-6.52z" fill="#ebf5fa" fill-opacity=".23626" style="paint-order:fill markers stroke"/>
<path d="m2.095 115.95h124.29" fill="none" stroke="#fff" stroke-opacity=".25275" stroke-width=".31582"/>
<g transform="matrix(.39478 0 0 .39478 -44.909 -40.529)" fill="none" stroke-width=".8">
<path d="m118.62 404.5h314.84" stroke="#fff" stroke-opacity=".18681"/>
<path d="m118.62 403.68h314.84" stroke="#22394c" stroke-opacity=".27473"/>
</g>
<g transform="matrix(.39478 0 0 .39478 -44.909 -37.089)" fill="none" stroke-width=".8">
<path d="m118.62 404.5h314.84" stroke="#fff" stroke-opacity=".18681"/>
<path d="m118.62 403.68h314.84" stroke="#22394c" stroke-opacity=".2967"/>
</g>
<path d="m64.099 57.114c-3.3797 0.09962-6.0449 2.8737-6.0449 6.2793 3e-3 2.2925 1.2546 4.4012 3.2656 5.502l-8.0312 7.1543-0.6211 0.53125-0.62304-0.53125v2e-3l-8.0312-7.1543c2.011-1.1007 3.2627-3.2095 3.2656-5.502 0-3.4155-2.6806-6.1943-6.0742-6.2793h-0.35156c-3.3797 0.09962-6.0449 2.8737-6.0449 6.2793 3e-3 2.2925 1.2546 4.4012 3.2656 5.502l-8.0313 7.1543-0.375 5.1289 6.375-4.7422-0.67187 7.7109-6.5781 22.48h4.875l7.3574-18.91 0.0351-2e-3 7.3594 18.912h4.875v-2e-3h3.6191l7.3574-18.908h0.0352l7.3594 18.912h8.4941l7.3574-18.908h0.0352l7.3594 18.912h4.875l-6.5781-22.48-0.67187-7.7109 6.375 4.7422-0.375-5.1289-8.0312-7.1543c2.011-1.1007 3.2627-3.2095 3.2656-5.502 0-3.4155-2.6806-6.1943-6.0742-6.2793h-0.35156c-3.3797 0.09962-6.0449 2.8737-6.0449 6.2793 3e-3 2.2925 1.2546 4.4012 3.2656 5.502l-8.0312 7.1543v-2e-3l-0.62109 0.53125-0.62305-0.5293-8.0312-7.1543c2.011-1.1007 3.2627-3.2095 3.2656-5.502 0-3.4155-2.6806-6.1943-6.0742-6.2793zm-4.8106 19.322-0.67188 7.7109-5.9512 20.336-5.9492-20.334-0.67187-7.7109 6.375 4.7422 0.24804 0.15625 0.2461-0.1582zm10.002 0 6.375 4.7422 0.24805 0.1582 0.24609-0.16016v2e-3l6.375-4.7422-0.67187 7.7109-5.9512 20.334-5.9492-20.334z" fill="url(#linearGradient1027)" stroke-width="2.2139"/>
<path d="m64.1 57.113c-3.3797 0.09962-6.0449 2.8737-6.0449 6.2793 1.81e-4 0.13902 0.02004 0.27463 0.029296 0.41211 0.28006-3.1378 2.8282-5.6111 6.0156-5.7051l0.35156 0.007813c3.2012 0.080191 5.7641 2.5576 6.0449 5.7051 0.009253-0.13748 0.029118-0.27309 0.029297-0.41211 0-3.4155-2.6806-6.1943-6.0742-6.2793l-0.35156-0.007813zm-23.246 0.001953c-3.3797 0.09962-6.0449 2.8737-6.0449 6.2793 1.82e-4 0.13902 0.020041 0.27463 0.029297 0.41211 0.28006-3.1378 2.8282-5.6111 6.0156-5.7051h0.35156c3.2011 0.080191 5.7641 2.5576 6.0449 5.7051 0.009254-0.13748 0.029118-0.27309 0.029297-0.41211 0-3.4155-2.6806-6.1943-6.0742-6.2793h-0.35156zm46.492 0.00586c-3.3797 0.09962-6.0449 2.8737-6.0449 6.2793 1.82e-4 0.13902 0.020041 0.27463 0.029297 0.41211 0.28006-3.1378 2.8282-5.6111 6.0156-5.7051h0.35156c3.2012 0.080191 5.7641 2.5576 6.0449 5.7051 0.009253-0.13748 0.029118-0.27309 0.029296-0.41211 0-3.4155-2.6806-6.1943-6.0742-6.2793h-0.35156zm-42.688 12.35c-0.2063 0.14816-0.41831 0.28829-0.64453 0.41211l8.0312 7.1543v-0.001953l0.62305 0.53125 0.62109-0.53125 8.0312-7.1543c-0.22596-0.12368-0.4404-0.2622-0.64648-0.41016l-7.3848 6.5781-0.62109 0.53125-0.62305-0.53125v0.001953l-7.3867-6.5801zm-7.2305 0.001953-7.3848 6.5781-0.375 5.1289 0.076172-0.056641 0.29883-4.0859 8.0312-7.1543c-0.22596-0.12368-0.4404-0.2622-0.64648-0.41016zm30.477 0.003906c-0.20608 0.14795-0.41859 0.28844-0.64453 0.41211l8.0312 7.1543 0.62305 0.5293 0.62109-0.53125v0.001953l8.0312-7.1543c-0.2255-0.12343-0.43882-0.26449-0.64453-0.41211l-7.3867 6.5801v-0.001953l-0.62109 0.53125-0.62305-0.5293-7.3867-6.5801zm23.246 0c-0.20608 0.14795-0.41859 0.28844-0.64453 0.41211l8.0312 7.1543 0.29883 4.0859 0.076171 0.056641-0.375-5.1289-7.3867-6.5801zm-31.861 7.9453-0.091796 0.068359-0.58008 6.6562-5.9512 20.336-5.9492-20.334-0.58008-6.6562-0.091797-0.06836 0.67188 7.7109 5.9492 20.334 5.9512-20.336 0.67187-7.7109zm10.002 0 0.67188 7.7109 5.9492 20.334 5.9512-20.334 0.67188-7.7109-0.091797 0.068359-0.58008 6.6562-5.9512 20.334-5.9492-20.334-0.58008-6.6562-0.091796-0.068359zm-33.248 0.001953-0.091797 0.06836-0.58008 6.6562-6.5781 22.48h0.28906l6.2891-21.494 0.67188-7.7109zm56.494 0.00586 0.67188 7.7109 6.2891 21.494h0.28906l-6.5781-22.48-0.58008-6.6562-0.091797-0.068359z" fill="#3f7ca6" fill-opacity=".24176" stroke-width="2.2139"/>
</svg>
