<svg width="128" height="128" version="1.1" viewBox="0 0 128 128" xmlns="http://www.w3.org/2000/svg">
<defs>
<linearGradient id="linearGradient828" x1="655.16" x2="655.16" y1="211.5" y2="419.86" gradientTransform="matrix(.39478 0 0 .39478 -194.76 -40.484)" gradientUnits="userSpaceOnUse"/>
<linearGradient id="linearGradient859" x1="-286.85" x2="-286.85" y1="201.42" y2="326.3" gradientTransform="matrix(.39478 0 0 .39478 167.73 -51.642)" gradientUnits="userSpaceOnUse"/>
<linearGradient id="linearGradient1027" x1="-68.129" x2="-68.129" y1="55.23" y2="105.48" gradientTransform="translate(132.52 1.8207)" gradientUnits="userSpaceOnUse"/>
<style id="current-color-scheme" type="text/css">.ColorScheme-Text {
        color:#4d4d4d;
      }</style>
<style id="current-color-scheme-3" type="text/css">.ColorScheme-Text {
        color:#4d4d4d;
      }</style>
<style id="current-color-scheme-4" type="text/css">.ColorScheme-Text {
        color:#4d4d4d;
      }</style>
<style id="current-color-scheme-3-3" type="text/css">.ColorScheme-Text {
        color:#4d4d4d;
      }</style>
</defs>
<path d="m7.9342 28.215c-3.391 0-6.1214 2.7297-6.1214 6.1206v27.211c19.294 15.457 121.85 17.085 124.92 4.1073v-21.828c0-3.391-2.7304-6.1206-6.1214-6.1206h-71.623c-3.596 0-5.767-4.553-8.2038-7.8536-1.0918-1.0164-2.5579-1.6365-4.1743-1.6365z" fill="url(#linearGradient859)" style="paint-order:fill markers stroke"/>
<path d="m8.3844 43.357c-3.6124 0-6.5208 2.9077-6.5208 6.52v72.546c0 1.8154 1.4616 3.277 3.277 3.277h118.3c1.8154 0 3.277-1.4616 3.277-3.277v-72.546c0-3.6123-2.9077-6.52-6.52-6.52z" fill="url(#linearGradient828)" style="paint-order:fill markers stroke"/>
<path d="m8.384 43.357c-3.6124 0-6.5208 2.9077-6.5208 6.52v0.27527c0-3.6123 2.9085-6.52 6.5208-6.52h111.81c3.6123 0 6.52 2.9077 6.52 6.52v-0.27527c0-3.6123-2.9077-6.52-6.52-6.52z" fill="#ebf5fa" fill-opacity=".23626" style="paint-order:fill markers stroke"/>
<path d="m2.095 115.95h124.29" fill="none" stroke="#fff" stroke-opacity=".25275" stroke-width=".31582"/>
<g transform="matrix(.39478 0 0 .39478 -44.909 -40.529)" fill="none" stroke-width=".8">
<path d="m118.62 404.5h314.84" stroke="#fff" stroke-opacity=".18681"/>
<path d="m118.62 403.68h314.84" stroke="#22394c" stroke-opacity=".27473"/>
</g>
<g transform="matrix(.39478 0 0 .39478 -44.909 -37.089)" fill="none" stroke-width=".8">
<path d="m118.62 404.5h314.84" stroke="#fff" stroke-opacity=".18681"/>
<path d="m118.62 403.68h314.84" stroke="#22394c" stroke-opacity=".2967"/>
</g>
<path d="m64.29 54.591c-4.9948 0-9.6006 1.235-13.818 3.7031-4.2182 2.4686-7.5578 5.8168-10.02 10.047-2.4618 4.23-3.6934 8.8491-3.6934 13.857 0 6.0156 1.7505 11.426 5.252 16.23 3.501 4.8049 8.024 8.1294 13.568 9.9746 0.64548 0.12009 1.123 0.0377 1.4336-0.25 0.31076-0.28771 0.4668-0.64899 0.4668-1.0801 0-0.072-0.0086-0.71725-0.01953-1.9394-0.01101-1.2226-0.01758-2.2894-0.01758-3.1992l-0.82422 0.14258c-0.52578 0.0966-1.1894 0.13671-1.9902 0.125-0.80035-0.011-1.6301-0.0937-2.4902-0.25-0.86062-0.15522-1.6614-0.51511-2.4023-1.0781-0.7405-0.56345-1.2675-1.3007-1.5781-2.2109l-0.35742-0.82813c-0.23901-0.55063-0.61499-1.1614-1.1289-1.832-0.51392-0.6711-1.0347-1.1256-1.5605-1.3652l-0.25-0.17969c-0.16729-0.12007-0.32332-0.2659-0.4668-0.43359-0.14348-0.16764-0.25051-0.33384-0.32227-0.50196-0.07175-0.16763-0.01031-0.30581 0.17969-0.41406 0.19145-0.10799 0.537-0.16211 1.0391-0.16211l0.7168 0.10742c0.47783 0.09592 1.0701 0.3837 1.7754 0.86328 0.70485 0.47919 1.2842 1.1027 1.7383 1.8691 0.55001 0.98305 1.2112 1.7308 1.9883 2.2461 0.77659 0.51535 1.5592 0.77344 2.3477 0.77344 0.78849 0 1.4712-0.0603 2.0449-0.17969 0.57332-0.11969 1.1113-0.29966 1.6133-0.53906 0.21522-1.6061 0.80016-2.8405 1.7559-3.7031-1.3622-0.14384-2.5861-0.35937-3.6738-0.64648-1.0872-0.2877-2.2122-0.75464-3.3711-1.4023-1.1594-0.64683-2.1201-1.4498-2.8848-2.4082-0.76473-0.95877-1.3931-2.2179-1.8828-3.7754-0.48973-1.558-0.73438-3.3555-0.73438-5.3926 0-2.9002 0.944-5.3672 2.832-7.4043-0.88439-2.1805-0.79961-4.6258 0.25195-7.334 0.69298-0.2156 1.7198-0.05283 3.082 0.48633 1.3622 0.53918 2.3606 0.99983 2.9941 1.3828 0.63358 0.38298 1.1411 0.7073 1.5234 0.9707 2.2228-0.623 4.517-0.93359 6.8828-0.93359 2.3659 0 4.6596 0.31054 6.8828 0.93359l1.3633-0.86133c0.93146-0.57534 2.031-1.1028 3.2969-1.582 1.2667-0.47918 2.2351-0.61226 2.9043-0.39648 1.0754 2.7082 1.1714 5.1535 0.28711 7.334 1.888 2.0372 2.832 4.5046 2.832 7.4043 0 2.0371-0.24516 3.8402-0.73438 5.4102-0.49013 1.5703-1.1238 2.8285-1.9004 3.7754-0.77703 0.94687-1.7453 1.7438-2.9043 2.3906-1.1594 0.64727-2.2819 1.1146-3.3691 1.4023-1.0877 0.28769-2.3116 0.50263-3.6738 0.64648 1.2426 1.0784 1.8633 2.7807 1.8633 5.1055v7.584c0 0.4311 0.14861 0.7909 0.44726 1.0781 0.29868 0.28732 0.77058 0.37201 1.416 0.25195 5.5448-1.8452 10.067-5.1712 13.568-9.9766 3.501-4.8045 5.252-10.214 5.252-16.23-7.83e-4 -5.0075-1.2325-9.6255-3.6934-13.855-2.4617-4.23-5.7998-7.5782-10.018-10.047-4.2186-2.4686-8.8251-3.7031-13.82-3.7031z" fill="url(#linearGradient1027)" stroke-width="2.2139"/>
<path d="m64.289 54.592c-4.9948 0-9.6006 1.235-13.818 3.7031-4.2182 2.4686-7.5578 5.8168-10.02 10.047-2.4618 4.23-3.6934 8.8491-3.6934 13.857 0 0.2889 0.023176 0.56936 0.03125 0.85547 0.15473-4.6221 1.3662-8.9104 3.6621-12.855 2.4618-4.23 5.8013-7.5782 10.02-10.047 4.2178-2.4682 8.8236-3.7031 13.818-3.7031 4.9952 1e-6 9.6017 1.2345 13.82 3.7031 4.2178 2.4686 7.5559 5.8168 10.018 10.047 2.2925 3.9406 3.5045 8.2226 3.6621 12.838 0.007785-0.28096 0.03125-0.55619 0.03125-0.83984-7.82e-4 -5.0075-1.2325-9.6255-3.6934-13.855-2.4617-4.23-5.7998-7.5782-10.018-10.047-4.2186-2.4686-8.8251-3.7031-13.82-3.7031zm-15.281 16.523c-0.094192 0.94602-0.048733 1.8549 0.13672 2.7246 0.13476-0.16274 0.2641-0.32678 0.41016-0.48438-0.29071-0.71676-0.46552-1.4663-0.54688-2.2402zm30.555 0.039063c-0.081045 0.75988-0.25331 1.4965-0.53906 2.2012 0.14588 0.1574 0.27555 0.32184 0.41016 0.48438 0.18115-0.8578 0.22305-1.7536 0.12891-2.6855zm-32.807 10.666c-0.016471 0.26334-0.033203 0.52599-0.033203 0.79688 0 2.0371 0.24465 3.8346 0.73438 5.3926 0.48969 1.5575 1.1181 2.8166 1.8828 3.7754 0.76469 0.95836 1.7254 1.7614 2.8848 2.4082 1.1589 0.6477 2.2839 1.1146 3.3711 1.4023 0.75144 0.19836 1.5924 0.35048 2.4746 0.48047 0.29839-0.66608 0.69268-1.2342 1.1992-1.6914-1.3622-0.14384-2.5861-0.35937-3.6738-0.64648-1.0872-0.2877-2.2122-0.75464-3.3711-1.4023-1.1594-0.64683-2.1201-1.4498-2.8848-2.4082-0.76473-0.95877-1.3931-2.2179-1.8828-3.7754-0.40214-1.2793-0.6293-2.7296-0.70117-4.332zm35.068 0c-0.071982 1.6041-0.30141 3.0605-0.70312 4.3496-0.49013 1.5703-1.1238 2.8285-1.9004 3.7754-0.77703 0.94687-1.7453 1.7438-2.9043 2.3906-1.1594 0.64727-2.2819 1.1146-3.3691 1.4023-1.0877 0.28769-2.3116 0.50264-3.6738 0.64648 0.52025 0.4515 0.9262 1.0173 1.2285 1.6875 0.87157-0.1292 1.7018-0.27989 2.4453-0.47656 1.0872-0.2877 2.2098-0.75508 3.3691-1.4023 1.159-0.64683 2.1273-1.4438 2.9043-2.3906 0.77659-0.94687 1.4103-2.2051 1.9004-3.7754 0.48921-1.5699 0.73438-3.373 0.73438-5.4102 0-0.27084-0.014779-0.53358-0.03125-0.79688zm-36.535 12.984c-0.50206-1e-6 -0.84761 0.054122-1.0391 0.16211-0.19 0.10825-0.25144 0.24643-0.17969 0.41406 0.071757 0.16812 0.17879 0.33432 0.32227 0.50195 0.14347 0.16769 0.29951 0.31352 0.4668 0.43359l0.25 0.17969c0.52582 0.23958 1.0466 0.69413 1.5605 1.3652 0.51392 0.67066 0.8899 1.2814 1.1289 1.832l0.35742 0.82812c0.31066 0.91023 0.83762 1.6475 1.5781 2.2109 0.74094 0.56301 1.5417 0.92291 2.4023 1.0781 0.86015 0.1563 1.6899 0.239 2.4902 0.25 0.80079 0.01171 1.4645-0.0284 1.9902-0.125l0.82422-0.14258c0 0.90983 0.006568 1.9766 0.017578 3.1992 0.001464 0.16369 5.88e-4 0.11676 0.001954 0.25976 0.00647-0.05918 0.017578-0.11564 0.017578-0.17773 0-0.072-0.008602-0.71725-0.019532-1.9394-0.01101-1.2226-0.017578-2.2894-0.017578-3.1992l-0.82422 0.14257c-0.52578 0.0966-1.1894 0.13671-1.9902 0.125-0.80035-0.01099-1.6301-0.0937-2.4902-0.25-0.86062-0.15521-1.6614-0.51511-2.4023-1.0781-0.7405-0.56345-1.2675-1.3007-1.5781-2.2109l-0.35742-0.82812c-0.23901-0.55063-0.61499-1.1614-1.1289-1.832-0.40186-0.52477-0.80741-0.91312-1.2168-1.1738l-0.16406-0.02539z" fill="#24465d" fill-opacity=".071429" stroke-width="2.2139"/>
</svg>
