<?xml version="1.0" encoding="UTF-8" standalone="no"?>
<svg
   width="16"
   height="16"
   version="1.1"
   viewBox="0 0 4.2333333 4.2333333"
   id="svg3"
   sodipodi:docname="inode-directory-symbolic.svg"
   inkscape:version="1.4.2 (ebf0e94, 2025-05-08)"
   xmlns:inkscape="http://www.inkscape.org/namespaces/inkscape"
   xmlns:sodipodi="http://sodipodi.sourceforge.net/DTD/sodipodi-0.dtd"
   xmlns="http://www.w3.org/2000/svg"
   xmlns:svg="http://www.w3.org/2000/svg">
  <defs
     id="defs3" />
  <sodipodi:namedview
     id="namedview3"
     pagecolor="#ffffff"
     bordercolor="#000000"
     borderopacity="0.25"
     inkscape:showpageshadow="2"
     inkscape:pageopacity="0.0"
     inkscape:pagecheckerboard="0"
     inkscape:deskcolor="#d1d1d1"
     inkscape:zoom="21.138889"
     inkscape:cx="18"
     inkscape:cy="18"
     inkscape:window-width="1920"
     inkscape:window-height="972"
     inkscape:window-x="0"
     inkscape:window-y="0"
     inkscape:window-maximized="1"
     inkscape:current-layer="svg3" />
  <g
     id="g3"
     transform="translate(0,-1.6128651)">
    <path
       d="m 0.22587175,2.1908301 c -0.075333,0 -0.13623462,0.060947 -0.13623462,0.1362346 v 0.7923618 c 0,-0.075337 0.0609016,-0.1362346 0.13623462,-0.1362346 H 4.0078796 c 0.075333,0 0.1358166,0.060897 0.1358166,0.1362346 V 2.6965049 c 0,-0.075319 -0.060488,-0.1358121 -0.1358166,-0.1358121 H 1.9355067 L 1.4916968,2.1908483 Z"
       fill="none"
       id="path1"
       style="stroke-width:0.454388" />
    <path
       d="M 0.22524923,2.0999525 C 0.1019056,2.0999525 0,2.2018535 0,2.3251972 V 5.1339059 C 0,5.2572404 0.1019056,5.3591506 0.22524923,5.3591506 H 4.007666 c 0.1233437,0 0.2256673,-0.1019102 0.2256673,-0.2252447 V 2.6946146 c 0,-0.1233345 -0.1023236,-0.2252447 -0.2256673,-0.2252447 H 1.9679182 L 1.5487634,2.1200046 a 0.08946446,0.08946446 0 0 0 -0.057671,-0.020084 z m 0,0.1788607 H 1.4588673 l 0.4191548,0.3485293 a 0.08946446,0.08946446 0 0 0 0.056835,0.021311 H 4.007639 c 0.027325,0 0.046388,0.01863 0.046388,0.045943 V 2.9014611 C 4.038598,2.8982811 4.024008,2.8922411 4.007639,2.8922411 H 0.22522197 c -0.0163684,0 -0.0309575,0.00582 -0.0463885,0.00922 V 2.3251608 c 0,-0.027309 0.0190643,-0.046416 0.0463885,-0.046416 z m 0,0.7923619 H 4.007666 c 0.027326,0 0.046388,0.019039 0.046388,0.046416 v 2.0163923 c 0,0.027354 -0.01906,0.045948 -0.046388,0.045948 H 0.22524923 c -0.0273237,0 -0.0463885,-0.01863 -0.0463885,-0.045948 V 3.1175908 c 0,-0.027354 0.0190643,-0.046416 0.0463885,-0.046416 z"
       color="#000000"
       color-rendering="auto"
       dominant-baseline="auto"
       fill="#f6f9fb"
       fill-opacity="0.87452"
       image-rendering="auto"
       shape-rendering="auto"
       solid-color="#000000"
       style="font-variant-ligatures:normal;font-variant-position:normal;font-variant-caps:normal;font-variant-numeric:normal;font-variant-alternates:normal;font-feature-settings:normal;text-indent:0;text-decoration-line:none;text-decoration-style:solid;text-decoration-color:#000000;text-transform:none;text-orientation:mixed;white-space:normal;shape-padding:0;isolation:auto;mix-blend-mode:normal;stroke-width:0.454388"
       id="path2" />
    <path
       d="m 0.22545851,3.0723428 c -0.0273228,0 -0.0463885,0.019039 -0.0463885,0.046416 v 2.0163923 c 0,0.027354 0.0190634,0.045948 0.0463885,0.045948 H 4.0078753 c 0.027326,0 0.046388,-0.01863 0.046388,-0.045948 V 3.1187586 c 0,-0.027354 -0.01906,-0.046416 -0.046388,-0.046416 z"
       fill="#e8f1f5"
       fill-opacity="0.68235"
       id="path3"
       style="stroke-width:0.454388" />
  </g>
</svg>
