<svg width="22" height="22" version="1.1" xmlns="http://www.w3.org/2000/svg">
<g transform="matrix(.97812 0 0 .97812 .69486 .24485)">
<path d="m11.595 10.199c-0.0324-0.0424-0.0746-0.0676-0.12698-0.0756l-1.1064-0.16927c-0.0605-0.19347-0.14315-0.39094-0.24793-0.59249 0.0725-0.10078 0.18129-0.24282 0.32637-0.42626 0.14508-0.18345 0.24786-0.3174 0.30834-0.40207 0.0323-0.0444 0.0483-0.0907 0.0483-0.13907 0-0.0564-0.014-0.1007-0.0423-0.13298-0.14508-0.20563-0.47762-0.54819-0.9976-1.0279-0.0482-0.0403-0.0987-0.0604-0.15102-0.0604-0.0605 0-0.10886 0.0181-0.14515 0.0543l-0.85846 0.64696c-0.16534-0.0847-0.3467-0.15926-0.54418-0.22374l-0.16927-1.1124c-4e-3 -0.0524-0.0272-0.0957-0.0695-0.13002-0.0424-0.0343-0.0916-0.0513-0.1482-0.0513h-1.3422c-0.11688 0-0.18946 0.0564-0.21766 0.16927-0.0524 0.20148-0.11087 0.57631-0.17535 1.1245-0.18946 0.0606-0.37283 0.13714-0.55019 0.22982l-0.83434-0.64696c-0.0524-0.0403-0.10478-0.0604-0.15718-0.0604-0.0887 0-0.2791 0.14404-0.57133 0.43227-0.29224 0.28823-0.49068 0.50485-0.59553 0.64993-0.0363 0.0524-0.0544 0.0988-0.0544 0.13906 0 0.0484 0.0201 0.0968 0.0604 0.14508 0.27004 0.32652 0.4857 0.60459 0.64695 0.83441-0.10077 0.18538-0.17936 0.37083-0.23576 0.5562l-1.1246 0.16928c-0.0443 8e-3 -0.0826 0.0343-0.11488 0.0787-0.0323 0.0443-0.0484 0.0907-0.0484 0.13899v1.3422c0 0.0525 0.0161 0.0997 0.0484 0.14204 0.0323 0.0424 0.0746 0.0677 0.12698 0.0757l1.1065 0.16326c0.0564 0.19747 0.13899 0.39695 0.24786 0.59842-0.0725 0.10078-0.18137 0.24282-0.32645 0.42626-0.14508 0.18345-0.24793 0.3174-0.30834 0.40207-0.0323 0.0445-0.0484 0.0907-0.0484 0.13907 0 0.0524 0.0141 0.0987 0.0423 0.13899 0.15717 0.21773 0.4897 0.55635 0.99759 1.0158 0.0444 0.0444 0.0948 0.0665 0.15117 0.0665 0.0605 0 0.11087-0.0181 0.15116-0.0543l0.85252-0.64703c0.16534 0.0847 0.34671 0.15925 0.54418 0.22382l0.16927 1.1124c4e-3 0.0524 0.0272 0.0957 0.0695 0.13001 0.0423 0.0344 0.0917 0.0513 0.14812 0.0513h1.3422c0.11703 0 0.18954-0.0564 0.21781-0.16927 0.0523-0.20155 0.11072-0.57631 0.17521-1.1245 0.18945-0.0605 0.3729-0.13714 0.55019-0.22983l0.83441 0.65304c0.0564 0.0362 0.10886 0.0543 0.15717 0.0543 0.0886 0 0.27807-0.143 0.56823-0.42922 0.2903-0.28616 0.48978-0.50389 0.59849-0.65305 0.0363-0.0403 0.0545-0.0866 0.0545-0.13899 0-0.0524-0.0201-0.10293-0.0605-0.15117-0.29016-0.35472-0.50581-0.63278-0.64695-0.83433 0.0806-0.14916 0.15925-0.33253 0.23583-0.55019l1.1185-0.1692c0.0483-8e-3 0.0888-0.0344 0.12096-0.0787 0.0322-0.0444 0.0482-0.0908 0.0482-0.13907v-1.3422c7e-5 -0.0524-0.016-0.0997-0.0483-0.14203zm-3.5005 1.8954c-0.30225 0.30233-0.66707 0.4535-1.0944 0.4535-0.42729 0-0.79203-0.15117-1.0944-0.4535-0.30226-0.30225-0.45342-0.66699-0.45342-1.0943s0.15109-0.79204 0.45342-1.0944c0.30233-0.30225 0.66714-0.45342 1.0944-0.45342 0.4273 0 0.79212 0.15117 1.0944 0.45342 0.30226 0.30233 0.45342 0.66707 0.45342 1.0944s-0.15116 0.79204-0.45342 1.0943z" fill="#da4453"/>
<path d="m18.676 6.3591c-0.0259-0.0339-0.0597-0.0541-0.10158-0.0605l-0.88511-0.13542c-0.0484-0.15477-0.11452-0.31274-0.19835-0.47399 0.058-0.0806 0.14504-0.19425 0.2611-0.341 0.11606-0.14676 0.19829-0.25392 0.24667-0.32166 0.0258-0.0355 0.0386-0.0726 0.0386-0.11125 0-0.0451-0.0112-0.0806-0.0338-0.10639-0.11606-0.16451-0.38209-0.43855-0.79807-0.8223-0.0386-0.0322-0.079-0.0483-0.12082-0.0483-0.0484 0-0.0871 0.0145-0.11612 0.0435l-0.68677 0.51757c-0.13227-0.0677-0.27736-0.1274-0.43534-0.17899l-0.13542-0.88992c-3e-3 -0.0419-0.0218-0.0766-0.0556-0.10401-0.0339-0.0274-0.0733-0.0411-0.11855-0.0411h-1.0737c-0.0935 0-0.15156 0.0451-0.17412 0.13542-0.0419 0.16118-0.0887 0.46105-0.14029 0.8996-0.15156 0.0484-0.29826 0.10971-0.44015 0.18386l-0.66746-0.51757c-0.0419-0.0322-0.0838-0.0483-0.12574-0.0483-0.0709 0-0.22328 0.11523-0.45707 0.34581-0.23379 0.23059-0.39254 0.40388-0.47643 0.51994-0.029 0.0419-0.0435 0.079-0.0435 0.11126 0 0.0387 0.0161 0.0774 0.0483 0.11606 0.21604 0.26122 0.38856 0.48367 0.51757 0.66753-0.0806 0.1483-0.1435 0.29666-0.18861 0.44496l-0.89966 0.13542c-0.0354 6e-3 -0.0661 0.0274-0.0919 0.0629-0.0258 0.0354-0.0387 0.0726-0.0387 0.1112v1.0738c0 0.042 0.0129 0.0798 0.0387 0.11363 0.0258 0.0339 0.0597 0.0541 0.10158 0.0606l0.88517 0.1306c0.0451 0.15798 0.11119 0.31756 0.19828 0.47874-0.058 0.0806-0.14509 0.19426-0.26115 0.34101-0.11607 0.14676-0.19835 0.25392-0.24668 0.32166-0.0258 0.0356-0.0387 0.0725-0.0387 0.11125 0 0.0419 0.0113 0.079 0.0338 0.1112 0.12574 0.17418 0.39176 0.44507 0.79807 0.81262 0.0355 0.0355 0.0758 0.0532 0.12094 0.0532 0.0484 0 0.0887-0.0145 0.12093-0.0435l0.68201-0.51763c0.13227 0.0677 0.27737 0.12741 0.43534 0.17906l0.13542 0.88992c3e-3 0.0419 0.0218 0.0766 0.0556 0.10401 0.0338 0.0275 0.0734 0.0411 0.1185 0.0411h1.0738c0.0936 0 0.15162-0.0451 0.17424-0.13542 0.0418-0.16124 0.0886-0.46105 0.14017-0.89959 0.15156-0.0484 0.29832-0.10972 0.44015-0.18387l0.66753 0.52244c0.0451 0.029 0.0871 0.0435 0.12574 0.0435 0.0709 0 0.22245-0.1144 0.45458-0.34338 0.23224-0.22892 0.39182-0.40311 0.4788-0.52244 0.029-0.0322 0.0436-0.0693 0.0436-0.11119 0-0.0419-0.0161-0.0823-0.0484-0.12094-0.23213-0.28377-0.40465-0.50622-0.51757-0.66747 0.0645-0.11932 0.1274-0.26602 0.18867-0.44015l0.89479-0.13535c0.0386-7e-3 0.071-0.0275 0.0968-0.063s0.0386-0.0726 0.0386-0.11126v-1.0737c6e-5 -0.0419-0.0128-0.0797-0.0386-0.11363zm-2.8004 1.5163c-0.2418 0.24187-0.53365 0.3628-0.87549 0.3628s-0.63363-0.12093-0.8755-0.3628c-0.2418-0.2418-0.36273-0.53359-0.36273-0.87543s0.12087-0.63363 0.36273-0.87549c0.24187-0.24181 0.53372-0.36274 0.8755-0.36274 0.34184 0 0.63369 0.12093 0.87549 0.36274 0.2418 0.24186 0.36274 0.53365 0.36274 0.87549s-0.12094 0.63363-0.36274 0.87543z" fill="#5fb2f1"/>
<path d="m18.676 14.359c-0.0259-0.0339-0.0597-0.0541-0.10158-0.0605l-0.88511-0.13542c-0.0484-0.15477-0.11452-0.31275-0.19835-0.47399 0.058-0.0806 0.14503-0.19425 0.2611-0.34101 0.11606-0.14675 0.19829-0.25391 0.24667-0.32165 0.0258-0.0355 0.0386-0.0725 0.0386-0.11125 0-0.0451-0.0112-0.0806-0.0338-0.10639-0.11606-0.16451-0.38209-0.43855-0.79808-0.8223-0.0386-0.0322-0.079-0.0483-0.12081-0.0483-0.0484 0-0.0871 0.0145-0.11612 0.0435l-0.68677 0.51757c-0.13227-0.0677-0.27736-0.12741-0.43534-0.179l-0.13542-0.88992c-3e-3 -0.0419-0.0218-0.0766-0.0556-0.10401-0.0339-0.0274-0.0733-0.0411-0.11855-0.0411h-1.0737c-0.0935 0-0.15156 0.0451-0.17412 0.13542-0.0419 0.16118-0.0887 0.46105-0.14029 0.89959-0.15156 0.0485-0.29826 0.10972-0.44015 0.18387l-0.66747-0.51757c-0.0419-0.0322-0.0838-0.0483-0.12574-0.0483-0.0709 0-0.22328 0.11524-0.45707 0.34582s-0.39254 0.40388-0.47642 0.51994c-0.029 0.0419-0.0435 0.079-0.0435 0.11126 0 0.0387 0.0161 0.0774 0.0483 0.11606 0.21603 0.26122 0.38856 0.48367 0.51756 0.66753-0.0806 0.1483-0.14349 0.29666-0.18861 0.44496l-0.89965 0.13542c-0.0354 6e-3 -0.0661 0.0274-0.0919 0.0629-0.0258 0.0354-0.0387 0.0725-0.0387 0.11119v1.0738c0 0.042 0.0129 0.0798 0.0387 0.11363 0.0258 0.0339 0.0597 0.0542 0.10158 0.0606l0.88517 0.13061c0.0451 0.15797 0.1112 0.31755 0.19829 0.47874-0.058 0.0806-0.14509 0.19425-0.26116 0.341-0.11606 0.14676-0.19834 0.25392-0.24667 0.32166-0.0258 0.0356-0.0387 0.0725-0.0387 0.11125 0 0.0419 0.0113 0.079 0.0338 0.1112 0.12574 0.17418 0.39177 0.44508 0.79808 0.81262 0.0355 0.0355 0.0758 0.0532 0.12093 0.0532 0.0484 0 0.0887-0.0145 0.12093-0.0435l0.68202-0.51763c0.13227 0.0677 0.27736 0.1274 0.43534 0.17905l0.13542 0.88992c3e-3 0.0419 0.0218 0.0766 0.0556 0.10401 0.0338 0.0275 0.0734 0.0411 0.1185 0.0411h1.0738c0.0936 0 0.15162-0.0451 0.17424-0.13542 0.0419-0.16124 0.0886-0.46105 0.14017-0.8996 0.15156-0.0484 0.29832-0.10971 0.44015-0.18386l0.66753 0.52244c0.0451 0.029 0.0871 0.0435 0.12574 0.0435 0.0709 0 0.22245-0.1144 0.45458-0.34338 0.23224-0.22892 0.39182-0.40311 0.4788-0.52243 0.029-0.0322 0.0436-0.0693 0.0436-0.1112s-0.0161-0.0823-0.0484-0.12093c-0.23213-0.28378-0.40465-0.50623-0.51757-0.66747 0.0645-0.11933 0.1274-0.26603 0.18867-0.44015l0.89479-0.13536c0.0386-6e-3 0.071-0.0275 0.0968-0.063s0.0386-0.0726 0.0386-0.11125v-1.0737c6e-5 -0.0419-0.0128-0.0797-0.0386-0.11363zm-2.8004 1.5163c-0.24181 0.24187-0.53366 0.3628-0.87549 0.3628-0.34184 0-0.63364-0.12093-0.8755-0.3628-0.2418-0.2418-0.36274-0.53359-0.36274-0.87543s0.12088-0.63363 0.36274-0.8755c0.24186-0.2418 0.53372-0.36273 0.8755-0.36273 0.34183 0 0.63368 0.12093 0.87549 0.36273 0.2418 0.24187 0.36273 0.53366 0.36273 0.8755s-0.12093 0.63363-0.36273 0.87543z" fill="#74e09b"/>
</g>/&gt;
</svg>
