<svg version="1.1" viewBox="0 0 22 22" xmlns="http://www.w3.org/2000/svg">
<defs>
<style id="current-color-scheme" type="text/css">.ColorScheme-Text {
        color:#363636
      }</style>
</defs>
<path d="m3.8867 3c-0.4925 0-0.88672 0.35758-0.88672 0.80078v14.398c0 0.4432 0.39422 0.80078 0.88672 0.80078h14.227c0.4925 0 0.88672-0.35758 0.88672-0.80078v-14.398c0-0.4432-0.39422-0.80078-0.88672-0.80078h-14.227zm5.4844 5c0.13471 0 0.24953 0.046295 0.34375 0.14062l1.4844 1.4863 1.4844-1.4863c0.0943-0.0943 0.20899-0.14062 0.34375-0.14062 0.13465 0 0.24947 0.046295 0.34375 0.14062l0.6875 0.6875c0.0942 0.0943 0.14062 0.20904 0.14062 0.34375 0 0.1347-0.046295 0.24952-0.14062 0.34375l-1.4863 1.4844 1.4863 1.4844c0.0943 0.0943 0.14062 0.20904 0.14062 0.34375 0 0.1347-0.046295 0.24952-0.14062 0.34375l-0.6875 0.6875c-0.0942 0.0942-0.2091 0.14062-0.34375 0.14062-0.13483 0-0.24946-0.046305-0.34375-0.14062l-1.4844-1.4863-1.4844 1.4863c-0.0943 0.0942-0.20904 0.14062-0.34375 0.14062-0.13464 0-0.24946-0.046305-0.34375-0.14062l-0.6875-0.6875c-0.0943-0.0943-0.14063-0.20905-0.14062-0.34375 0-0.13471 0.046405-0.24947 0.14062-0.34375l1.4863-1.4844-1.4863-1.4844c-0.0943-0.0943-0.14063-0.20905-0.14062-0.34375 0-0.13471 0.046405-0.24953 0.14062-0.34375l0.6875-0.6875c0.0943-0.0943 0.20911-0.14062 0.34375-0.14062z" color="#363636" fill="#363636"/>
</svg>
