<svg version="1.1" viewBox="0 0 22 22" xmlns="http://www.w3.org/2000/svg">
<defs>
<style id="current-color-scheme" type="text/css">.ColorScheme-Text {
        color:#4d4d4d
      }</style>
</defs>
<path class="ColorScheme-Text" d="m3.8877 3c-0.4925 0-0.88769 0.35758-0.88769 0.80078v14.398c0 0.4432 0.39519 0.80078 0.88769 0.80078h14.225c0.4925 0 0.88768-0.35758 0.88768-0.80078v-14.398c0-0.4432-0.39519-0.80078-0.88768-0.80078h-14.225zm6.2854 4.666h1.6538c-0.0022 0.71306 0 2.5898 0 2.5898h2.6804v1.4883h-2.6804s0.0011 1.8736 0 2.5898h-1.6538c0.0011-0.71624 0-2.5898 0-2.5898s-1.7929-1e-3 -2.6804 0v-1.4863c0.88752-2e-3 2.6804-2e-3 2.6804-2e-3s-0.0011-1.8768 0-2.5898z" color="#4d4d4d" fill="currentColor"/>
</svg>
