<svg viewBox="0 0 22 22" xmlns="http://www.w3.org/2000/svg">
<defs>
<style id="current-color-scheme" type="text/css">.ColorScheme-Text {
        color:#363636
      }</style>
</defs>
<path class="ColorScheme-Text" d="m11.033 4.0625c-0.19775 0-0.36914 0.072403-0.51367 0.2168l-3.7988 3.7988h-2.9902c-0.19789 0-0.36914 0.072403-0.51367 0.2168-0.14453 0.14453-0.2168 0.31592-0.2168 0.51367v4.3828c0 0.19775 0.072263 0.36928 0.2168 0.51367 0.14467 0.14453 0.31592 0.2168 0.51367 0.2168h2.9902l3.7988 3.7988c0.14453 0.14439 0.31592 0.2168 0.51367 0.2168 0.19789 0 0.36914-0.072403 0.51367-0.2168s0.2168-0.31592 0.2168-0.51367v-12.414c0-0.19775-0.072403-0.36914-0.2168-0.51367-0.14467-0.14439-0.31578-0.2168-0.51367-0.2168zm6.9863 4.2188c-0.11266 0-0.2083 0.040282-0.28711 0.11914l-2.7715 2.7754-1.2402-1.2461c-0.078859-0.078859-0.1745-0.11914-0.28711-0.11914-0.11266 0-0.2102 0.040281-0.28906 0.11914l-0.57422 0.57422c-0.078859 0.078859-0.11719 0.17445-0.11719 0.28711 0 0.11261 0.038328 0.2083 0.11719 0.28711l2.1035 2.1035c0.078807 0.078859 0.17445 0.11914 0.28711 0.11914 0.11261 0 0.20825-0.040333 0.28711-0.11914l0.57617-0.57422 3.0566-3.0586c0.078808-0.078859 0.11914-0.17445 0.11914-0.28711 5.2e-5 -0.11261-0.040333-0.20825-0.11914-0.28711l-0.57422-0.57422c-0.078808-0.078859-0.1745-0.11914-0.28711-0.11914z" fill="#363636"/>
</svg>
