<svg version="1.1" viewBox="0 0 22 22" xmlns="http://www.w3.org/2000/svg">
<defs>
<style id="current-color-scheme" type="text/css">.ColorScheme-Text {
        color:#363636
      }</style>
</defs>
<path class="ColorScheme-Text" d="m3.7623 3.9905c-0.42099 0-0.76228 0.34169-0.76228 0.76235v13.485c0 0.42104 0.34158 0.76236 0.76228 0.76236h14.475c0.42101 0 0.76229-0.3417 0.76229-0.76236v-13.485c0-0.42104-0.34158-0.76235-0.76229-0.76235zm9.5841 2.6946c0.96513 0 1.7479 0.78335 1.7479 1.7492 0 0.96584-0.78278 1.7492-1.7479 1.7492-0.96543 0-1.7479-0.78336-1.7479-1.7492 0-0.96585 0.78248-1.7492 1.7479-1.7492zm-7.7199 10.641c-0.48272 0-0.69771-0.34972-0.48009-0.7809l2.9997-5.9458c0.21731-0.43118 0.63157-0.46967 0.92492-0.08602l3.0283 5.9744s0.49561 0.83832-0.48046 0.83832z" color="#363636" fill="#363636"/>
</svg>
