<svg viewBox="0 0 22 22" xmlns="http://www.w3.org/2000/svg">
<defs>
<style id="current-color-scheme" type="text/css">.ColorScheme-Text {
        color:#4d4d4d
      }</style>
</defs>
<path class="ColorScheme-Text" d="m14.602 3.0075c-0.0403-0.0109-0.0836-0.01-0.13085 4e-3 -0.0945 0.023-0.15275 0.0813-0.17579 0.17578l-0.16601 0.65039-0.64258-0.1836c-0.0945-0.0277-0.17537-5e-3 -0.24219 0.0664-0.0714 0.0668-0.0941 0.14771-0.0664 0.24219l0.1836 0.64258-0.65039 0.16601c-0.0921 0.023-0.15207 0.0813-0.17969 0.17578-0.0231 0.0968-7.5e-4 0.17766 0.0684 0.24219l0.47852 0.4668-0.47852 0.46679c-0.0691 0.0645-0.0914 0.14347-0.0684 0.24024 0.0276 0.0945 0.0876 0.1547 0.17969 0.17773l0.65039 0.16602-0.18359 0.64258c-0.0277 0.0945-5e-3 0.17533 0.0664 0.24218 0.0668 0.0714 0.14771 0.0921 0.24218 0.0645l0.64258-0.18164 0.16602 0.64843c0.023 0.0945 0.0813 0.15436 0.17578 0.17969 0.0968 0.023 0.17766 7.5e-4 0.24219-0.0684l0.46679-0.47656 0.4668 0.47656c0.0461 0.0506 0.10438 0.0762 0.17578 0.0762 0.0162 0 0.0368-3e-3 0.0645-8e-3 0.0945-0.0277 0.1547-0.0875 0.17774-0.17968l0.16601-0.64844 0.64258 0.18164c0.0945 0.0276 0.17541 7e-3 0.24219-0.0645 0.0715-0.0669 0.0921-0.14775 0.0644-0.24218l-0.1836-0.64258 0.65039-0.16602c0.0923-0.023 0.15207-0.0813 0.17969-0.17578 0.0231-0.0968 8.3e-4 -0.17766-0.0684-0.24219l-0.47656-0.46679 0.47656-0.4668c0.0692-0.0645 0.0914-0.14542 0.0684-0.24219-0.0276-0.0945-0.0874-0.15274-0.17968-0.17578l-0.65039-0.16601 0.18359-0.64258c0.0276-0.0944 7e-3 -0.17537-0.0644-0.24219-0.0668-0.0714-0.14767-0.0941-0.24219-0.0664l-0.64258 0.1836-0.16601-0.65039c-0.023-0.0945-0.0833-0.15275-0.17774-0.17578-0.0945-0.0254-0.17346-3e-3 -0.24023 0.0664l-0.4668 0.48047-0.4668-0.48047c-0.0334-0.0357-0.071-0.0594-0.11133-0.0703zm-5.6211 1.8281c-0.11289 0-0.22484 0.056-0.28906 0.16797l-3.8906 6.7812c-0.81723 1.4339-0.88035 3.2576 0 4.793 1.3234 2.308 4.2682 3.1066 6.5762 1.7832s3.1066-4.2681 1.7832-6.5762l-3.8887-6.7812c-0.0642-0.11202-0.17812-0.16797-0.29102-0.16797z" fill="currentColor"/>
</svg>
