<svg viewBox="0 0 22 22" xmlns="http://www.w3.org/2000/svg">
<defs>
<style id="current-color-scheme" type="text/css">.ColorScheme-Text {
        color:#4d4d4d
      }</style>
</defs>
<path class="ColorScheme-Text" d="m19 9.2003c0-0.24873-0.17939-0.40328-0.53864-0.4638l-4.8267-0.73591-2.1634-4.5873c-0.12168-0.27558-0.27888-0.41331-0.47114-0.41331-0.19225 0-0.34934 0.13773-0.47114 0.41331l-2.1636 4.5873-4.827 0.73591c-0.3589 0.0605-0.53841 0.21507-0.53841 0.4638 0 0.1412 0.0801 0.30256 0.24041 0.48397l3.5 3.569-0.82686 5.0409c-0.0129 0.0942-0.0193 0.16149-0.0193 0.20171 0 0.1412 0.0337 0.26036 0.10091 0.35799 0.0672 0.0975 0.16818 0.14616 0.30284 0.14616 0.11543 0 0.2436-0.0401 0.38463-0.12091l4.3172-2.3795 4.3176 2.3795c0.13478 0.0807 0.26296 0.12091 0.38451 0.12091 0.12853 0 0.22613-0.0485 0.29341-0.14616 0.0671-0.0975 0.10079-0.2168 0.10079-0.35799 0-0.0874-3e-3 -0.15455-0.01-0.20171l-0.82697-5.0409 3.4904-3.569c0.16688-0.17472 0.25008-0.3361 0.25008-0.48397z" fill="currentColor"/>
</svg>
