<svg viewBox="0 0 22 22" xmlns="http://www.w3.org/2000/svg">
<defs>
<style id="current-color-scheme" type="text/css">.ColorScheme-NegativeText {
        color:#da4453;
      }</style>
</defs>
<path class="ColorScheme-NegativeText" d="m11 3a8 8 0 0 0-8 8 8 8 0 0 0 8 8 8 8 0 0 0 8-8 8 8 0 0 0-8-8zm-0.058594 5.8672c3.4696-0.0083045 4.7408 1.5174 4.7949 1.584 0.11601 0.14678 0.21038 0.30304 0.28906 0.48047 0.084218 0.19093 0.1413 0.39327 0.16602 0.5918h0.009766l0.007812 0.52344c5.14e-4 0.38131-0.29817 0.69186-0.66602 0.69336l-1.8496 0.003907c-0.36754 1.53e-4 -0.66711-0.30828-0.66797-0.68945l-0.001953-0.93164c-0.045676-0.013097-0.094503-0.027087-0.14453-0.041016-0.45741-0.13004-1.0841-0.30706-1.9316-0.30469-0.84967 0.002011-1.4742 0.1825-1.9316 0.31445-0.048396 0.014048-0.095785 0.026726-0.14062 0.039062l0.0019531 0.625v0.30859c8.752e-4 0.38174-0.29838 0.69224-0.66602 0.69336l-1.8477 0.003907c-0.36738 8.57e-4 -0.66905-0.30771-0.66992-0.68945l0.0019531-0.52344h0.013672c0.023629-0.1989 0.078256-0.40057 0.16211-0.59375 0.081455-0.18226 0.17551-0.33974 0.28711-0.48047 0.88717-1.1362 2.2731-1.6013 4.7832-1.6074z" fill="#363636"/>
</svg>
