<svg version="1.1" viewBox="0 0 22 22" xmlns="http://www.w3.org/2000/svg">
<defs>
<style id="current-color-scheme" type="text/css">.ColorScheme-Text {
        color:#4d4d4d
      }</style>
</defs>
<path class="ColorScheme-Text" d="m11 3a8.0005 8.0005 0 0 0-8 8 8.0005 8.0005 0 0 0 8 8 8.0005 8.0005 0 0 0 8-8 8.0005 8.0005 0 0 0-8-8zm0 0.88296c0.41825 0 0.75852 0.34039 0.75852 0.75852 0 0.4182-0.34027 0.75852-0.75852 0.75852-0.4182 0-0.75854-0.34032-0.75852-0.75852 0-0.41815 0.34032-0.75852 0.75852-0.75852zm-2e-3 2.0602c2.7884 0 5.0588 2.2693 5.0588 5.0568 0 2.788-2.2704 5.0568-5.0588 5.0568-2.788 0-5.0549-2.2688-5.0548-5.0568 0-2.7876 2.2668-5.0568 5.0548-5.0568zm2e-3 1.517c-1.9516 0-3.5398 1.5884-3.5398 3.5398-8.33e-5 1.9516 1.5882 3.5398 3.5398 3.5398 1.9518 0 3.5398-1.5882 3.5398-3.5398 0-1.9513-1.5879-3.5398-3.5398-3.5398z" color="#4d4d4d" fill="currentColor"/>
</svg>
