<svg width="22" height="22" version="1.1" viewBox="0 0 5.8208 5.8208" xmlns="http://www.w3.org/2000/svg" xmlns:xlink="http://www.w3.org/1999/xlink">
<defs>
<linearGradient id="linearGradient1048">
<stop stop-color="#0d0d0d" stop-opacity=".1394" offset="0"/>
<stop stop-color="#2a281f" stop-opacity=".0066904" offset=".83059"/>
<stop stop-color="#ccc188" stop-opacity=".96471" offset=".83059"/>
<stop stop-color="#d4c98e" offset="1"/>
</linearGradient>
<linearGradient id="linearGradient1010" x1="5.4707" x2="6.6851" y1=".85432" y2=".85432" gradientUnits="userSpaceOnUse">
<stop stop-color="#733d0b" offset="0"/>
<stop stop-color="#733b22" stop-opacity=".98004" offset="1"/>
</linearGradient>
<linearGradient id="linearGradient1025" x1="5.0655" x2="7.0903" y1="1.8204" y2="1.8204" gradientUnits="userSpaceOnUse">
<stop stop-color="#cfa800" offset="0"/>
<stop stop-color="#733c1b" offset="1"/>
</linearGradient>
<linearGradient id="linearGradient1052" x1="3.1468" x2="3.1468" y1="-3.5823" y2="-2.5976" gradientUnits="userSpaceOnUse" xlink:href="#linearGradient1048"/>
</defs>
<g transform="matrix(.83554 .83554 -.83554 .83554 -.40951 -3.8499)">
<g transform="matrix(1 0 0 .8743 3.0942 5.9915)" fill="url(#linearGradient1052)">
<path d="m2.5999-5.0574c-0.098144 2.446e-4 -0.17766 0.11614-0.17783 0.25917v2.3631c6.81e-5 0.040863 0.00675 0.081126 0.019513 0.11751l0.37407 0.739c0.06558 0.19171 0.25326 0.19171 0.31884 0l0.37407-0.739c0.012759-0.036387 0.019445-0.07665 0.019513-0.11751v-2.3631c-1.677e-4 -0.14304-0.079687-0.25893-0.17783-0.25917z" color="#000000" color-rendering="auto" dominant-baseline="auto" fill="url(#linearGradient1052)" image-rendering="auto" shape-rendering="auto" solid-color="#000000" stop-color="#000000" style="font-feature-settings:normal;font-variant-alternates:normal;font-variant-caps:normal;font-variant-east-asian:normal;font-variant-ligatures:normal;font-variant-numeric:normal;font-variant-position:normal;font-variation-settings:normal;inline-size:0;isolation:auto;mix-blend-mode:normal;paint-order:stroke markers fill;shape-margin:0;shape-padding:0;text-decoration-color:#000000;text-decoration-line:none;text-decoration-style:solid;text-indent:0;text-orientation:mixed;text-transform:none;white-space:normal"/>
</g>
<rect x="5.4707" y="-.34986" width="1.2144" height="2.4084" rx=".6072" ry=".6072" fill="url(#linearGradient1010)" style="paint-order:stroke markers fill"/>
<path transform="scale(.26458)" d="m23.584-0.8457c-1.2714 0-2.2949 1.0235-2.2949 2.2949v4.5137c0 1.0844 0.74598 1.9821 1.7539 2.2246-0.71339-0.38834-1.2012-1.1353-1.2012-2.0078v-4.5117c0-1.2714 1.0235-2.2949 2.2949-2.2949 0.18927 0 0.37115 0.029459 0.54688 0.072266-0.32775-0.17989-0.6979-0.29102-1.0996-0.29102z" fill="#d4d414" fill-opacity=".24854" style="paint-order:stroke markers fill"/>
<rect x="5.0655" y="1.4914" width="2.0249" height=".65797" rx=".12464" ry=".12464" fill="url(#linearGradient1025)" style="paint-order:stroke markers fill"/>
</g>
</svg>
