<svg viewBox="0 0 22 22" xmlns="http://www.w3.org/2000/svg">
<defs>
<style id="current-color-scheme" type="text/css">.ColorScheme-Text {
        color:#363636
      }</style>
</defs>
<path class="ColorScheme-Text" d="m9.707 3c-0.12752 0-0.25558 0.062916-0.32812 0.18945l-4.3926 7.6621c-0.92311 1.6197-0.99441 3.6779 0 5.4121 1.4949 2.607 4.8207 3.5086 7.4277 2.0137 2.607-1.4949 3.5086-4.8187 2.0137-7.4258l-4.3926-7.6621c-0.072556-0.12654-0.2006-0.18945-0.32812-0.18945zm5.6934 0.041016c-1.2876 0-2.334 1.0464-2.334 2.334 0 1.2876 1.0464 2.334 2.334 2.334 1.2876 0 2.334-1.0464 2.334-2.334 0-1.2876-1.0464-2.334-2.334-2.334zm0 0.58398c0.97454 0 1.75 0.77545 1.75 1.75 0 0.97454-0.77546 1.75-1.75 1.75-0.97455 0-1.75-0.77546-1.75-1.75 0-0.97455 0.77545-1.75 1.75-1.75z" fill="#363636"/>
</svg>
