<svg viewBox="0 0 22 22" xmlns="http://www.w3.org/2000/svg">
<defs>
<style id="current-color-scheme" type="text/css">.ColorScheme-Text {
        color:#363636
      }</style>
</defs>
<path class="ColorScheme-Text" d="m9.719 3.0004c-0.12752 0-0.25362 0.0629-0.32617 0.18945l-4.3945 7.6621c-0.92311 1.6197-0.99441 3.6779 0 5.4121 1.4949 2.607 4.8207 3.5086 7.4277 2.0137 2.607-1.4949 3.5086-4.8187 2.0137-7.4258l-4.3926-7.6621c-0.0726-0.12653-0.20061-0.18945-0.32813-0.18945zm5.668 0c-1.2927 0-2.332 1.0413-2.332 2.334 0 1.2927 1.0394 2.332 2.332 2.332 1.2927 0 2.334-1.0394 2.334-2.332 0-1.2927-1.0413-2.334-2.334-2.334z" fill="#363636"/>
</svg>
