<svg version="1.1" viewBox="0 0 22 22" xmlns="http://www.w3.org/2000/svg">
<defs>
<style id="current-color-scheme" type="text/css">.ColorScheme-Text {
        color:#363636
      }</style>
</defs>
<path class="ColorScheme-Text" d="m3.5674 4.9263c-0.31477 0-0.56743 0.25414-0.56743 0.5689v10.936c0 0.31478 0.25266 0.5689 0.56743 0.5689h14.865c0.31477 0 0.56743-0.25413 0.56743-0.5689v-10.936c0-0.31477-0.25266-0.5689-0.56743-0.5689h-14.865zm7.4326 2.1533c0.23809 0 0.4417 0.085052 0.61017 0.25349 0.16847 0.16838 0.25202 0.37063 0.25202 0.6087 0 0.23806-0.08356 0.44172-0.25202 0.61017-0.16847 0.16844-0.37209 0.2535-0.61017 0.2535-0.23806 0-0.44172-0.08506-0.61017-0.2535-0.16838-0.16847-0.25203-0.37211-0.25203-0.61017 0-0.23806 0.08356-0.44029 0.25203-0.6087 0.16854-0.16847 0.3721-0.25349 0.61017-0.25349zm-3.0184 1.294c0.23806 0 0.4417 0.08505 0.61017 0.2535 0.16838 0.16847 0.25202 0.37063 0.25202 0.6087 0 0.23799-0.083671 0.44169-0.25202 0.61017-0.16854 0.16843-0.37209 0.25203-0.61017 0.25203s-0.44169-0.0837-0.61017-0.25203c-0.16838-0.16838-0.25203-0.3721-0.25203-0.61017s0.083557-0.44025 0.25203-0.6087c0.16854-0.16847 0.37208-0.2535 0.61017-0.2535zm6.0368 0c0.23806 0 0.4417 0.08505 0.61017 0.2535 0.16847 0.16844 0.25202 0.37063 0.25202 0.6087 0 0.23799-0.08356 0.44172-0.25202 0.61017-0.16847 0.16843-0.37211 0.25203-0.61017 0.25203-0.23809 0-0.44169-0.0836-0.61017-0.25203-0.16847-0.16838-0.25203-0.3721-0.25203-0.61017s0.08356-0.44025 0.25203-0.6087c0.16847-0.16845 0.37208-0.2535 0.61017-0.2535zm-2.0855 0.99189c0.05388-0.0075 0.1089-0.0038 0.16507 0.01177 0.11242 0.03147 0.19885 0.09794 0.2594 0.19897 0.06082 0.10117 0.07708 0.21043 0.05011 0.32719l-0.67944 2.5733c0.22475 0.15263 0.38606 0.35697 0.4849 0.61312 0.09869 0.25602 0.11167 0.519 0.03977 0.7885-0.08982 0.34589-0.28988 0.60892-0.59985 0.7885-0.30997 0.17968-0.6371 0.22401-0.98306 0.13412-0.3458-0.08982-0.6089-0.28989-0.78851-0.59985-0.17961-0.31004-0.22394-0.63708-0.13412-0.98306 0.071839-0.2694 0.21333-0.49041 0.42447-0.66322 0.21106-0.17305 0.45121-0.27078 0.7207-0.2933l0.68092-2.5733c0.03139-0.11677 0.09865-0.20612 0.20192-0.26677 0.05169-0.03026 0.1038-0.04867 0.1577-0.05599zm-5.2454 2.0265c0.23806 0 0.44181 0.08503 0.61017 0.2535 0.16838 0.16847 0.25203 0.37063 0.25203 0.6087 0 0.23809-0.083656 0.44169-0.25203 0.61017-0.16844 0.16838-0.3721 0.25203-0.61017 0.25203-0.238 0-0.44025-0.08366-0.6087-0.25203-0.16847-0.16831-0.2535-0.37208-0.2535-0.61017 0-0.23806 0.085029-0.44023 0.2535-0.6087 0.16847-0.16847 0.3707-0.2535 0.6087-0.2535zm8.6249 0c0.23806 0 0.44022 0.08503 0.6087 0.2535 0.16847 0.16847 0.2535 0.37063 0.2535 0.6087 0 0.23809-0.08505 0.44169-0.2535 0.61017-0.16847 0.16838-0.37063 0.25203-0.6087 0.25203-0.23809 0-0.4417-0.08366-0.61018-0.25203-0.16846-0.16831-0.25202-0.37208-0.25202-0.61017 0-0.23806 0.08356-0.44023 0.25202-0.6087 0.16847-0.16847 0.37208-0.2535 0.61018-0.2535z" color="#363636" fill="#363636"/>
</svg>
