<svg viewBox="0 0 22 22" xmlns="http://www.w3.org/2000/svg">
<defs>
<style id="current-color-scheme" type="text/css">.ColorScheme-Text {
        color:#363636
      }</style>
</defs>
<path class="ColorScheme-Text" d="m18.384 10.544c-0.54382-0.9374-1.4047-1.7804-2.4659-2.4268v-1.704c0-1.0145-0.74587-1.923-2.1005-2.5581-1.1768-0.5517-2.7248-0.8555-4.3581-0.8555-1.6337 0-3.1813 0.3038-4.3582 0.8555-1.3546 0.6351-2.1008 1.5436-2.1008 2.5581v9.1728c0 0.295 0.063642 0.5808 0.18613 0.8537 0.15284 0.36 0.39356 0.6756 0.69658 0.9212 0.32329 0.2912 0.73111 0.5548 1.2181 0.7832 1.1768 0.5517 2.7244 0.8555 4.3582 0.8555 1.6333 0 3.1813-0.3038 4.3581-0.8555 0.4864-0.2282 0.894-0.4917 1.2173-0.7825 0.30333-0.2458 0.54427-0.5617 0.6972-0.9221 0.07462-0.1658 0.12689-0.3365 0.15698-0.511 1.2901-0.2326 2.2664-0.8826 2.7668-1.8524 0.5396-1.0456 0.44302-2.3-0.27182-3.5321zm-13.852-4.1308c0-0.3994 0.46164-0.8542 1.2342-1.2166 0.95947-0.4497 2.3057-0.7076 3.6932-0.7076 1.3874 0 2.7333 0.2579 3.6928 0.7076 0.77298 0.3624 1.2343 0.8172 1.2343 1.2166 0 0.3993-0.46129 0.8541-1.2343 1.2163-0.95951 0.4498-2.3054 0.7079-3.6928 0.7079-1.3875 0-2.7337-0.2581-3.6932-0.7079-0.77258-0.3622-1.2342-0.817-1.2342-1.2163zm12.779 7.007c-0.6768 1.3119-3.0924 1.5211-5.2748 0.4566-0.4704-0.2296-0.90613-0.5057-1.2923-0.8162-0.1548 0.1147-0.34738 0.1833-0.55733 0.1833-0.50929 0-0.92209-0.4013-0.92209-0.8965s0.4128-0.8968 0.92209-0.8968c0.50933 0 0.92249 0.4016 0.92249 0.8968 0 0.05-0.0055 0.099-0.01351 0.1463 0.33089 0.2438 0.69249 0.4636 1.0781 0.6515 1.3053 0.6367 2.694 0.8174 3.7442 0.5792v-3.7934c1.2909 1.0829 1.9096 2.4884 1.3932 3.4892z" fill="#363636"/>
</svg>
