<svg viewBox="0 0 22 22" xmlns="http://www.w3.org/2000/svg">
<defs>
<style id="current-color-scheme" type="text/css">.ColorScheme-Text {
        color:#363636
      }</style>
</defs>
<path class="ColorScheme-Text" d="m2 10.102c0-3.9159 4.0374-7.1016 8.9999-7.1016 4.9626 0 9 3.1858 9 7.1016 0 3.9159-4.0374 7.1016-9 7.1016-0.41725 0-0.83595-0.0228-1.2476-0.0676-1.9114 1.1425-3.3225 1.7679-4.197 1.8593-0.0304 3e-3 -0.061 5e-3 -0.091 5e-3 -0.28091 0-0.54092-0.13172-0.69576-0.35259-0.17305-0.24709-0.18435-0.56055-0.0301-0.81649 8e-3 -0.0122 0.68209-1.1708 0.48738-2.2776-2.0534-1.3523-3.2258-3.3281-3.2258-5.4517z" fill="#363636"/>
</svg>
