<svg viewBox="0 0 22 22" xmlns="http://www.w3.org/2000/svg">
<defs>
<style id="current-color-scheme" type="text/css">.ColorScheme-Text {
        color:#363636
      }</style>
</defs>
<path class="ColorScheme-Text" d="m11 3c4.4113 0 8 3.5888 8 8s-3.5887 8-8 8c-4.4112 0-7.9999-3.5888-7.9999-8s3.5887-8 7.9999-8zm0 2.7042c-0.97041 0-1.8805 0.26261-2.6635 0.72012l7.2392 7.2392c0.45755-0.78296 0.72016-1.6931 0.72016-2.6635 0-2.9201-2.3757-5.2958-5.2958-5.2958zm0 10.592c0.97043 0 1.8805-0.26261 2.6635-0.72012l-7.2392-7.2392c-0.45751 0.78298-0.72012 1.6931-0.72012 2.6635 0 2.9201 2.3758 5.2958 5.2958 5.2958z" fill="#363636"/>
</svg>
