<svg version="1.1" viewBox="0 0 22 22" xmlns="http://www.w3.org/2000/svg">
<defs>
<style id="current-color-scheme" type="text/css">.ColorScheme-Text {
        color:#4d4d4d;
      }
      .ColorScheme-Highlight {
        color:#3daee9;
      }</style>
</defs>
<g fill="currentColor">
<path class="ColorScheme-Text" d="m8.35 5.4891-4 3.2 0.5 0.62344 4-3.2-0.5-0.62344zm1.3578 0.05625-0.61562 0.51094 4 4.8 0.61563-0.51094-4-4.8zm7.3594 0.032813-3.2 4.8 0.66563 0.44375 3.2-4.8-0.66563-0.44375zm-13.267 4.2203v5.6h0.8v-5.6h-0.8zm0.8 5.6v0.8h4.8v-0.8h-4.8zm8.4875-4.2469-3.2 4 0.625 0.49844 3.2-4-0.625-0.49844zm1.425 0-0.625 0.49844 3.2 4 0.625-0.49844-3.2-4z" color="#4d4d4d"/>
<path class="ColorScheme-Highlight" d="m9 4.2a1.2 1.2 0 0 0-1.2 1.2 1.2 1.2 0 0 0 1.2 1.2 1.2 1.2 0 0 0 1.2-1.2 1.2 1.2 0 0 0-1.2-1.2zm8.8 0a1.2 1.2 0 0 0-1.2 1.2 1.2 1.2 0 0 0 1.2 1.2 1.2 1.2 0 0 0 1.2-1.2 1.2 1.2 0 0 0-1.2-1.2zm-13.6 4a1.2 1.2 0 0 0-1.2 1.2 1.2 1.2 0 0 0 1.2 1.2 1.2 1.2 0 0 0 1.2-1.2 1.2 1.2 0 0 0-1.2-1.2zm9.6 1.6a1.2 1.2 0 0 0-1.2 1.2 1.2 1.2 0 0 0 1.2 1.2 1.2 1.2 0 0 0 1.2-1.2 1.2 1.2 0 0 0-1.2-1.2zm-9.6 4.8a1.2 1.2 0 0 0-1.2 1.2 1.2 1.2 0 0 0 1.2 1.2 1.2 1.2 0 0 0 1.2-1.2 1.2 1.2 0 0 0-1.2-1.2zm5.6 0a1.2 1.2 0 0 0-1.2 1.2 1.2 1.2 0 0 0 1.2 1.2 1.2 1.2 0 0 0 1.2-1.2 1.2 1.2 0 0 0-1.2-1.2zm8 0a1.2 1.2 0 0 0-1.2 1.2 1.2 1.2 0 0 0 1.2 1.2 1.2 1.2 0 0 0 1.2-1.2 1.2 1.2 0 0 0-1.2-1.2z" color="#3daee9"/>
</g>
</svg>
