<svg viewBox="0 0 22 22" xmlns="http://www.w3.org/2000/svg">
<defs>
<style id="current-color-scheme" type="text/css">.ColorScheme-Text {
        color:#363636
      }</style>
</defs>
<path class="ColorScheme-Text" d="m10.986 3c-1.0846 0-2.1155 0.21568-3.1055 0.64062-1.9666 0.8439-3.407 2.2754-4.252 4.2461-0.42343 0.98731-0.62891 2.0184-0.62891 3.1035 0 1.0853 0.20548 2.1277 0.62891 3.1152 0.845 1.9707 2.2856 3.4098 4.252 4.2539 0.9902 0.42495 2.0208 0.64062 3.1055 0.64062 1.0846 0 2.1243-0.21793 3.1152-0.64062 1.983-0.84618 3.4161-2.2866 4.2598-4.2539 0.42471-0.99068 0.63867-2.0299 0.63867-3.1152 0-1.0851-0.21375-2.1129-0.63867-3.1035-0.84351-1.9675-2.2768-3.3999-4.2598-4.2461-0.99111-0.4229-2.0305-0.64062-3.1152-0.64062zm-0.49414 2.9355c0.40792 0 0.74023 0.33407 0.74023 0.74219v5.082l2.8809 2.252c0.33375 0.24736 0.38396 0.7175 0.13672 1.0391-0.13599 0.18551-0.35953 0.2832-0.58203 0.2832-0.16068 0-0.31909-0.061211-0.45508-0.16016l-3.1777-2.4727c-0.17307-0.13605-0.28516-0.34707-0.28516-0.58203v-5.4414c0-0.40812 0.33427-0.74219 0.74219-0.74219z" fill="#363636"/>
</svg>
