<svg width="22" height="22" version="1.1" viewBox="0 0 22 22" xmlns="http://www.w3.org/2000/svg">
<defs>
<style id="current-color-scheme" type="text/css">.ColorScheme-Text {
        color:#363636;
      }</style>
</defs>
<path d="m4.8506 3.506c-0.4068-6.849e-4 -0.73866 0.32794-0.73757 0.7347l0.03731 13.325c0.00109 0.4068 0.3279 0.7347 0.7347 0.7347h12.915c0.4068 0 0.7347-0.3279 0.7347-0.7347v-11.061s-0.07709-0.38419-0.21524-0.52232l-2.3505-2.2443c-0.1413-0.13487-0.32693-0.21492-0.52232-0.21524zm0.49363 0.057398h10.116v5.4012h-10.116zm6.1388 0.52233c-0.12682 0-0.22959 0.11764-0.22959 0.26403v3.8801c0 0.14644 0.10278 0.26403 0.22959 0.26403h1.7449c0.12682 0 0.22959-0.11759 0.22959-0.26403v-3.8801c0-0.1464-0.10278-0.26403-0.22959-0.26403z" color="#363636" fill-opacity=".3125"/>
<path d="m3.1746 1.8816c-0.4068 0-0.73757 0.33081-0.73757 0.73757v16.158c0 0.4068 0.33077 0.73757 0.73757 0.73757h16.158c0.4068 0 0.73757-0.33076 0.73757-0.73757v-12.737c0-0.1953-0.07709-0.38419-0.21524-0.52233l-3.4238-3.4209c-0.13813-0.13812-0.32406-0.21524-0.51946-0.21524zm1.676 1.6244 10.596 0.01722c0.1954 3.288e-4 0.38102 0.08037 0.52232 0.21524l2.3505 2.2443c0.13815 0.13814 0.21524 0.52233 0.21524 0.52233v11.061c0 0.4068-0.3279 0.7347-0.7347 0.7347h-12.915c-0.4068 0-0.73361-0.3279-0.7347-0.7347l-0.037309-13.325c-0.0010892-0.40676 0.33077-0.73538 0.73757-0.7347z" color="#363636" fill-opacity=".68208"/>
</svg>
