<svg viewBox="0 0 22 22" xmlns="http://www.w3.org/2000/svg">
<defs>
<style id="current-color-scheme" type="text/css">.ColorScheme-Text {
        color:#363636
      }</style>
</defs>
<path class="ColorScheme-Text" d="m12.8 3c-0.3611 0-0.7213 0.13801-0.99698 0.41405l-7.1441 6.4959c-0.2978 0.29901-0.43076 0.6989-0.40618 1.0898-0.024554 0.3916 0.10826 0.78881 0.40618 1.0879l7.1441 6.4978c0.55136 0.55276 1.4445 0.55276 1.9959 0 0.55136-0.55275 0.55136-1.4491 0-2.0019l-6.1412-5.5838 6.1412-5.5858c0.55136-0.55276 0.55136-1.4478 0-1.9999-0.27568-0.27604-0.63782-0.41405-0.99892-0.41405zm2.6275 5.6775c-1.2825 0-2.3224 1.0427-2.3224 2.33 0 1.2873 1.0399 2.332 2.3224 2.332 1.2825 0 2.3224-1.0446 2.3224-2.332 0-1.2873-1.0399-2.33-2.3224-2.33z" fill="#363636"/>
</svg>
