<svg viewBox="0 0 22 22" xmlns="http://www.w3.org/2000/svg">
<defs>
<style id="current-color-scheme" type="text/css">.ColorScheme-Text {
        color:#363636
      }</style>
</defs>
<path class="ColorScheme-Text" d="m16.058 13.169c-0.93425 0-1.7584 0.4413-2.2967 1.1171l-4.9938-2.5321c0.065417-0.24177 0.11242-0.49155 0.11242-0.75445 0-0.28618-0.055827-0.55564-0.13366-0.8178l4.9717-2.5204c0.53545 0.70638 1.3808 1.1681 2.3408 1.1681 1.6262 0 2.9416-1.3043 2.9416-2.9151 0-1.6094-1.3155-2.9144-2.9416-2.9144-1.6225 0-2.9394 1.305-2.9394 2.9144 0 0.26363 0.04704 0.51414 0.11312 0.75664l-4.9923 2.5321c-0.53911-0.67651-1.3647-1.1193-2.3004-1.1193-1.6247 0-2.9394 1.3057-2.9394 2.9158s1.3147 2.9151 2.9394 2.9151c0.96143 0 1.8061-0.46316 2.3437-1.1703l4.9695 2.5204c-0.07784 0.26143-0.13442 0.53306-0.13442 0.81998 0 1.6101 1.3169 2.9151 2.9394 2.9151 1.6261 0 2.9416-1.305 2.9416-2.9151 0-1.6116-1.3155-2.9158-2.9416-2.9158z" fill="#363636"/>
</svg>
