<svg viewBox="0 0 22 22" xmlns="http://www.w3.org/2000/svg">
<defs>
<style id="current-color-scheme" type="text/css">.ColorScheme-Text {
        color:#363636
      }</style>
</defs>
<path class="ColorScheme-Text" d="m3.0547 3.0508v2.9785h0.99219v7.9434 3.9804h3.9805 7.9395v0.9961h2.9785v-2.9785h-2.9785v0.9922h-6.9492-3.3652l2.3672-0.9199c0.062369-0.024 0.11734-0.062 0.16211-0.1113l6.2949-6.918-2.4551-2.2344-6.2949 6.918c-0.04485 0.049-0.077325 0.1079-0.095703 0.1719l-0.58984 2.0761v-2.9629-6.9492h0.99219v-2.9785h-2.9785zm11.699 0.9121c-0.1139 0.01-0.22193 0.056-0.29883 0.1406l-0.92188 1.0157 2.4551 2.2343 0.92188-1.0136c0.16013-0.176 0.14861-0.4492-0.02734-0.6094l-1.8184-1.6543c-0.08454-0.077-0.19667-0.1187-0.31055-0.1133zm-1.5117 1.4746-0.32031 0.3516 2.4551 2.2344 0.32226-0.3516-2.457-2.2344zm-0.60938 0.6699-0.32031 0.3536 2.4551 2.2343 0.32031-0.3535-2.4551-2.2344z" fill="#363636"/>
</svg>
