<svg viewBox="0 0 22 22" xmlns="http://www.w3.org/2000/svg">
<defs>
<style id="current-color-scheme" type="text/css">.ColorScheme-Text {
        color:#363636
      }</style>
</defs>
<path class="ColorScheme-Text" d="m17.5 3c-0.65424 0-1.2022 0.41808-1.4082 1h-13.092v1c3.601 0 6.5 2.899 6.5 6.5 0 1.9055-0.82211 3.6018-2.1211 4.7871-0.24573-0.18024-0.54878-0.28711-0.87891-0.28711-0.831 0-1.5 0.669-1.5 1.5s0.669 1.5 1.5 1.5c0.65424 0 1.2022-0.41808 1.4082-1h4.0918v1h3v-3h-3v1h-3.9121c1.4792-1.3679 2.4121-3.3171 2.4121-5.5 0-2.7887-1.5107-5.2075-3.7578-6.5h9.3496c0.206 0.58192 0.75396 1 1.4082 1 0.831 0 1.5-0.669 1.5-1.5s-0.669-1.5-1.5-1.5zm0 1c0.277 0 0.5 0.223 0.5 0.5s-0.223 0.5-0.5 0.5c-0.0693 0-0.13545-0.0138-0.19531-0.0391-0.17958-0.07567-0.30469-0.25315-0.30469-0.4609 0-0.0693 0.0138-0.13545 0.0391-0.19531 0.0757-0.17958 0.25319-0.30469 0.46094-0.30469zm-11 13c0.277 0 0.5 0.223 0.5 0.5s-0.223 0.5-0.5 0.5-0.5-0.223-0.5-0.5 0.223-0.5 0.5-0.5zm6.5 0h1v1h-1v-1z" fill="#363636"/>
</svg>
