<svg viewBox="0 0 22 22" xmlns="http://www.w3.org/2000/svg">
<defs>
<style id="current-color-scheme" type="text/css">.ColorScheme-Text {
        color:#363636
      }</style>
</defs>
<path class="ColorScheme-Text" d="m11.824 3.004c-0.11378 0.016-0.21561 0.076-0.28516 0.168l-0.83594 1.0996 2.6641 2.0215 0.83398-1.0996c0.14482-0.191 0.10888-0.4626-0.08203-0.6074l-1.9727-1.4981c-0.09172-0.07-0.20851-0.1-0.32226-0.084zm-1.3828 1.6133-0.28906 0.3828 2.6621 2.0215 0.29102-0.3828-2.6641-2.0215zm-0.55273 0.7285-0.28906 0.3828 2.6641 2.0215 0.28906-0.3828-2.6641-2.0215zm-0.55273 0.7285-5.6934 7.5059c-0.040559 0.053-0.067389 0.1158-0.080078 0.1816l-0.51758 2.7305c-0.030344 0.162 0.032671 0.3261 0.16406 0.4258 0.093045 0.071 0.20818 0.099 0.32031 0.084 0.045731-0.01 0.091933-0.02 0.13477-0.041l2.4902-1.2344c0.060375-0.03 0.11186-0.073 0.15234-0.127l5.6934-7.5039-2.6641-2.0215zm7.166 7.9239c-0.26177 1e-3 -0.95595 0.046-2.0645 0.5625-0.34653 0.1616-0.63549 0.3444-1.0312 0.5625-0.21127 0.1164-0.96811 0.4942-1.25 0.625-0.82603 0.3833-1.0997 0.4798-1.8125 0.75-0.68981 0.2616-1.4349 0.5005-1.9395 0.6894-2.1238 0.7952-5.4082 0.8125-5.4082 0.8125v1s3.3283 0.032 5.752-0.875c0.32149-0.1203 0.88125-0.3175 1.4062-0.5 0.80737-0.2945 1.6808-0.6585 2.4082-0.9707 0.30478-0.1414 1.0127-0.491 1.3125-0.6562 0.4404-0.2427 0.73371-0.4217 0.96875-0.5313 0.51359-0.3025 1.0851-0.4823 1.6582-0.4687-0.04482 2e-4 0.1737 0.01 0.375 0.094 0.2013 0.084 0.42471 0.2336 0.59375 0.375 0.32746 0.3321 0.46459 0.5869 0.53125 1.0332-0.02571 0.6823-0.26043 0.8956-0.75 1.2813-0.32398 0.2146-0.77957 0.2535-1.248 0.2226v0.9688c0.78406 0 1.4109-0.1543 1.7793-0.3477 0.83707-0.4774 1.248-1.338 1.2188-2.1582-5e-3 -0.288-0.07716-0.5249-0.21875-0.8437-0.14164-0.3188-0.34389-0.676-0.65625-0.9375-0.48207-0.4234-0.72327-0.6094-1.625-0.6875z" fill="#363636"/>
</svg>
