<svg viewBox="0 0 22 22" xmlns="http://www.w3.org/2000/svg">
<defs>
<style id="current-color-scheme" type="text/css">.ColorScheme-Text {
        color:#363636
      }</style>
</defs>
<path class="ColorScheme-Text" d="m11 3c-4.432 0-8 3.568-8 8s3.568 8 8 8 8-3.568 8-8-3.568-8-8-8zm3 4 2 1.5-2 1.5v-1h-1.7598c9.46e-4 0.0079-0.83594 1.046-1.6113 2.0137l1.6113 1.9863h1.7598v-1l2 1.5-2 1.5v-1h-2.2383s-0.89295-1.1189-1.7617-2.2012c-0.8686 1.0823-1.7617 2.2012-1.7617 2.2012h-2.2383v-1h1.7598l1.6113-1.9863c-0.77554-0.9677-1.6123-2.0037-1.6113-2.0137h-1.7598v-1h2.1855l1.8145 2.2383 1.8145-2.2383h2.1855v-1z" fill="#363636"/>
</svg>
