<svg viewBox="0 0 22 22" xmlns="http://www.w3.org/2000/svg">
<defs>
<style id="current-color-scheme" type="text/css">.ColorScheme-Text {
        color:#363636
      }</style>
</defs>
<path class="ColorScheme-Text" d="m12.699 3.0002c-0.0495 2e-3 -0.0988 0.0135-0.14667 0.0352-0.0623 0.0284-0.11506 0.0711-0.1526 0.12304-0.076 0.10586-0.0928 0.24688-0.0337 0.37305l0.81261 1.7383c0.0881 0.18814 0.31466 0.27035 0.5054 0.18359 0.19056-0.0864 0.27399-0.3099 0.1863-0.49804l-0.81261-1.7363c-0.0661-0.14111-0.2103-0.22344-0.35873-0.21875zm3.8232 0.0293c-0.0839 0.0222-0.15968 0.0716-0.21208 0.14453-0.0122 0.0177-0.024 0.0383-0.0337 0.0586l-0.82845 1.7285c-0.0896 0.18728-9e-3 0.41169 0.18234 0.5 0.19005 0.0883 0.41545 8e-3 0.50539-0.17969l0.82847-1.7305c0.0898-0.18744 8e-3 -0.4099-0.18235-0.49804-0.0849-0.0394-0.17566-0.0456-0.25963-0.0234zm2.6519 2.9531c-0.0489-7e-3 -0.0999-5e-3 -0.15064 8e-3l-1.8769 0.48633c-0.0901 0.0234-0.16427 0.0769-0.21405 0.14648-0.063 0.0873-0.0871 0.20112-0.0575 0.31249 0.0536 0.20037 0.26208 0.32026 0.46575 0.26758l1.8749-0.48827c0.20332-0.0523 0.32516-0.25684 0.27153-0.45703-0.0402-0.1504-0.1665-0.25461-0.31314-0.27539zm-3.8153 0.33008c-0.89617 0.12947-0.8422 1.1691-1.0762 1.9746-0.13957 0.48145-0.74599 0.21601-1.096 0.18555-0.29066-0.0255-0.57855-1e-3 -0.83044 0.125-1.0442-0.87167-2.3918-1.3984-3.8668-1.3984-3.3069 0-5.9895 2.6414-5.9895 5.9003 0 3.2591 2.6827 5.9003 5.9895 5.9003 3.3067 0 5.9875-2.6416 5.9875-5.9003 0-1.4672-0.54527-2.8095-1.4448-3.8418 0.13607-0.0139 0.29431-7e-3 0.48557 0.0293 0.46865 0.088 0.92113 0.0226 1.2486-0.33594 0.25659-0.28091 0.31734-0.68728 0.36469-1.0469 0.0654-0.49969 0.0532-0.91775 0.67386-0.83788 0.48611 0.0626 0.47965-0.6882 0-0.74999-0.17037-0.022-0.31791-0.0224-0.44595-4e-3zm1.4151 2.3574c-0.0959 0.0162-0.18523 0.0678-0.24575 0.15235-0.12124 0.16919-0.0806 0.40396 0.0912 0.52342l1.5856 1.1035c0.17152 0.11963 0.40976 0.0792 0.53117-0.0898 0.12122-0.16938 0.0806-0.40203-0.0912-0.52148l-1.5856-1.1054c-0.0858-0.0597-0.18938-0.0787-0.28541-0.0625z" fill="#363636"/>
</svg>
