<svg width="22" height="22" version="1.1" xmlns="http://www.w3.org/2000/svg">
<defs>
<style id="current-color-scheme" type="text/css">.ColorScheme-Text { color:#565656; } .ColorScheme-Highlight { color:#5294e2; }</style>
</defs>
<path d="m10.311 2.2725c-4.2357 0-7.6786 3.4432-7.6786 7.6786s3.4429 7.6786 7.6786 7.6786c1.7711 0 3.3893-0.61929 4.6891-1.6297l3.6643 3.6643 1.3598-1.3598-3.6643-3.6643c1.0104-1.2999 1.6297-2.9182 1.6297-4.6891 0-4.2354-3.4429-7.6786-7.6786-7.6786zm0 1.2798a6.3988 6.3988 0 0 1 6.3988 6.3988 6.3988 6.3988 0 0 1-6.3988 6.3988 6.3988 6.3988 0 0 1-6.3988-6.3988 6.3988 6.3988 0 0 1 6.3988-6.3988z" color="#000000" color-rendering="auto" fill="#363636" image-rendering="auto" shape-rendering="auto" solid-color="#000000" style="font-feature-settings:normal;font-variant-alternates:normal;font-variant-caps:normal;font-variant-ligatures:none;font-variant-numeric:normal;font-variant-position:normal;isolation:auto;mix-blend-mode:normal;shape-padding:0;text-decoration-color:#000000;text-decoration-line:none;text-decoration-style:solid;text-indent:0;text-transform:none;white-space:normal"/>
</svg>
