<svg viewBox="0 0 22 22" xmlns="http://www.w3.org/2000/svg">
<defs>
<style id="current-color-scheme" type="text/css">.ColorScheme-Text {
        color:#363636
      }</style>
</defs>
<path class="ColorScheme-Text" d="m8 3c-0.552 0-1 0.448-1 1v1h1v-0.5c0-0.276 0.224-0.5 0.5-0.5h9c0.276 0 0.5 0.224 0.5 0.5v9c0 0.276-0.224 0.5-0.5 0.5h-0.5v1h1c0.552 0 1-0.448 1-1v-10c0-0.552-0.448-1-1-1h-10zm-4 3c-0.552 0-1 0.448-1 1v11c0 0.552 0.448 1 1 1h11c0.552 0 1-0.448 1-1v-11c0-0.552-0.448-1-1-1h-11zm5.3438 2.5723c1.3478 0 2.4434 1.0956 2.4434 2.4434v0.99414c0.19263 0.0404 0.33789 0.21156 0.33789 0.41601v3.7207c0 0.23442-0.19134 0.42579-0.42578 0.42579h-4.7129c-0.23444 0-0.42578-0.19137-0.42578-0.42579v-3.7207c0-0.20445 0.14526-0.37576 0.33789-0.41601v-0.99414c0-1.3478 1.0975-2.4434 2.4453-2.4434zm0 0.84961c-0.87893 0-1.5938 0.71483-1.5938 1.5938v0.98437h3.1875v-0.98437c0-0.87887-0.71483-1.5938-1.5938-1.5938z" fill="#363636"/>
</svg>
