<svg width="22" height="22" version="1.1" xmlns="http://www.w3.org/2000/svg">
<defs>
<style id="current-color-scheme" type="text/css">.ColorScheme-Text { color:#565656; } .ColorScheme-Highlight { color:#5294e2; }</style>
</defs>
<path d="m14.811 2.5385-8.2852 8.9952 2.7188 2.4496 8.2589-8.9643zm-4.5512 0.18586c-4.038 0-7.3201 3.2824-7.3201 7.3201 0 1.2466 0.31357 2.4221 0.86497 3.4504l0.31454-0.69818 0.46942-0.50993a6.1001 6.1001 0 0 1-0.42891-2.2423 6.1001 6.1001 0 0 1 6.1001-6.1001 6.1001 6.1001 0 0 1 1.7681 0.2645l0.89833-0.97458c-0.82723-0.3248-1.725-0.50993-2.6664-0.50993zm6.6529 4.282-0.91263 0.99365a6.1001 6.1001 0 0 1 0.35981 2.0445 6.1001 6.1001 0 0 1-6.1001 6.1001 6.1001 6.1001 0 0 1-1.5655-0.21207l-0.53852 0.5838-0.59571 0.32883c0.83624 0.33304 1.7459 0.51946 2.6998 0.51946 1.6884 0 3.2311-0.59038 4.4702-1.5536l3.4933 3.4933 1.2963-1.2963-3.4933-3.4933c0.96322-1.2392 1.5536-2.7819 1.5536-4.4702 0-1.0848-0.24234-2.1114-0.6672-3.0381zm-11.204 5.4138-0.81732 0.88642-1.5822 3.5195 0.89833 0.82446 3.3765-1.8634 0.78872-0.85782z" color="#000000" color-rendering="auto" fill-opacity=".69" image-rendering="auto" shape-rendering="auto" solid-color="#000000" style="font-feature-settings:normal;font-variant-alternates:normal;font-variant-caps:normal;font-variant-ligatures:none;font-variant-numeric:normal;font-variant-position:normal;isolation:auto;mix-blend-mode:normal;shape-padding:0;text-decoration-color:#000000;text-decoration-line:none;text-decoration-style:solid;text-indent:0;text-transform:none;white-space:normal"/>
</svg>
