<svg viewBox="0 0 22 22" xmlns="http://www.w3.org/2000/svg">
<defs>
<style id="current-color-scheme" type="text/css">.ColorScheme-Text {
        color:#363636
      }</style>
</defs>
<path class="ColorScheme-Text" d="m3.248 3c-0.20096-7e-5 -0.36523 0.16262-0.36523 0.36328v4.0234c0 0.20066 0.16453 0.36523 0.36523 0.36523h0.16992v0.55664c0 0.0932 0.071295 0.16016 0.17188 0.16016 0.0029999 0 0.0038593-0.0018731 0.0058593-0.0019531h1.0898c0.0362 0 0.066406 0.030206 0.066406 0.066406v0.46875c0 0.0362-0.030206 0.066406-0.066406 0.066406h-1.0664c-0.0774 0-0.12313 0.029288-0.14844 0.054688-0.0499 0.05-0.052734 0.11323-0.052734 0.125v1.2461c-4.01e-5 0.0108 0.002175 0.066658 0.046875 0.11133 0.0222 0.0223 0.062446 0.048828 0.12891 0.048828h0.50586c0.0362 0 0.064453 0.028253 0.064453 0.064453v0.4707c0 0.0362-0.028253 0.064453-0.064453 0.064453h-0.47656c-0.0802 0-0.12658 0.030841-0.15234 0.056641-0.0492 0.0493-0.052734 0.10965-0.052734 0.12109v1.2461c-5e-5 0.0103 0.0022749 0.062882 0.046875 0.10742 0.0244 0.0245 0.070637 0.054688 0.14844 0.054688h1.0723c0.0362 0 0.066406 0.030206 0.066406 0.066406v0.46875c0 0.0362-0.030206 0.064453-0.066406 0.064453h-1.0762c-0.0767 0-0.1225 0.028635-0.14648 0.052735-0.0432 0.0433-0.045022 0.095808-0.044922 0.10547v1.2539c-4.01e-5 0.0133 0.0017812 0.0821 0.050781 0.13086 0.0288 0.0288 0.067948 0.042969 0.11133 0.042969h0.51953c0.0362 0 0.064453 0.030206 0.064453 0.066406v0.46875c0 0.0362-0.028253 0.066406-0.064453 0.066406h-0.49805c-0.13441 0-0.18359 0.091727-0.18359 0.1543v1.252c-9.7e-4 0.0205-9.613e-4 0.089629 0.042969 0.13672 0.0248 0.0266 0.060056 0.041016 0.097656 0.041016h1.127c0.0362 0 0.066406 0.030206 0.066406 0.066406v0.46875c0 0.0362-0.030206 0.066406-0.066406 0.066406h-1.0625c-0.15051 0-0.20508 0.12013-0.20508 0.20117v0.61133c0 0.20628 0.16873 0.375 0.375 0.375h2.7441c0.20628 0 0.37305-0.16872 0.37305-0.375v-11.238-0.18945h11.832c0.20627 0 0.375-0.16872 0.375-0.375v-2.7441c0-0.20624-0.16877-0.37305-0.375-0.37305h-0.23242c-0.0933 0-0.1875 0.057359-0.1875 0.16797v1.0996c0 0.0362-0.028154 0.064453-0.064454 0.064453h-0.4707c-0.0363 0-0.064453-0.028253-0.064453-0.064453v-1.0625c0-0.0666-0.01914-0.12079-0.05664-0.1582-0.046-0.0459-0.1005-0.046875-0.11133-0.046875h-1.2363c-0.0732 0-0.18164 0.050909-0.18164 0.19336v0.48633c0 0.0362-0.030206 0.066406-0.066407 0.066406h-0.46875c-0.0362 0-0.064453-0.030206-0.064453-0.066406v-0.5l-0.001953-0.0039062c-4e-3 -0.0705-0.052131-0.17578-0.17578-0.17578h-1.25c-0.058 0-0.093301 0.025275-0.11328 0.046875-0.0443 0.0476-0.045722 0.11129-0.044922 0.13086v1.0898c0 0.0362-0.030206 0.066406-0.066406 0.066406h-0.46875c-0.0362 0-0.066407-0.030206-0.066407-0.066406v-1.0664c0-0.0774-0.029287-0.12313-0.054687-0.14844-0.0497-0.0496-0.11087-0.052734-0.12305-0.052734h-0.001953-1.2461c-0.0619 0-0.1582 0.047751-0.1582 0.17578v0.50391c0 0.0362-0.030206 0.066406-0.066406 0.066406h-0.46875c-0.0362 0-0.066407-0.030206-0.066407-0.066406v-0.47461c0-0.0803-0.03084-0.12854-0.05664-0.1543-0.049-0.049-0.10928-0.050781-0.12109-0.050781h-1.2461c-0.065 0-0.16211 0.050909-0.16211 0.19336v1.0742c0 0.0362-0.028253 0.066406-0.064453 0.066406h-0.46875c-0.0362 0-0.066406-0.030206-0.066406-0.066406v-1.0781c0-0.0767-0.028734-0.12055-0.052734-0.14453-0.043-0.0429-0.095269-0.044922-0.10547-0.044922h-1.2539c-0.0868 0-0.17383 0.054366-0.17383 0.16016v0.51953c0 0.0362-0.030206 0.066406-0.066406 0.066406h-0.41406v-0.77539-0.3125c0-0.20066-0.16453-0.36328-0.36523-0.36328h-3.2988z" fill="#363636"/>
</svg>
