<svg viewBox="0 0 22 22" xmlns="http://www.w3.org/2000/svg">
<defs>
<style id="current-color-scheme" type="text/css">.ColorScheme-Text {
        color:#363636
      }</style>
</defs>
<path class="ColorScheme-Text" d="m4 3c-0.554 0-1 0.446-1 1v14c0 0.554 0.446 1 1 1h14c0.554 0 1-0.446 1-1v-14c0-0.554-0.446-1-1-1h-14zm6.9941 3c0.82204 0 1.489 0.24462 2.0039 0.73242 0.5149 0.47877 0.77343 1.092 0.77343 1.8418 0 0.3252-0.0862 0.656-0.25781 0.99023-0.17163 0.33424-0.32543 0.57226-0.46094 0.7168-0.12646 0.1355-0.30614 0.3125-0.54101 0.5293l-0.0684 0.0684c-0.55104 0.49684-0.82617 0.99339-0.82617 1.4902v0.54102h-1.2734v-0.63672c0-0.40651 0.0842-0.7539 0.25586-1.043 0.17163-0.2981 0.4746-0.6455 0.9082-1.043 0.24391-0.22583 0.41626-0.39355 0.51563-0.50195 0.1084-0.11744 0.21118-0.27588 0.31054-0.47461 0.1084-0.20777 0.16407-0.41992 0.16407-0.63672 0-0.41554-0.1372-0.74902-0.40821-1.002-0.26197-0.25294-0.62596-0.37891-1.0957-0.37891-0.77687 0-1.3105 0.43357-1.5996 1.3008l-1.166-0.48828c0.1897-0.51491 0.51585-0.97631 0.97656-1.3828 0.46974-0.41554 1.0664-0.62305 1.7891-0.62305zm-0.0137 8.1562c0.26197 0 0.47876 0.0908 0.65039 0.27148 0.18067 0.18067 0.26953 0.39746 0.26953 0.6504 0 0.25293-0.0889 0.46972-0.26953 0.65039-0.17164 0.18066-0.38842 0.27148-0.65039 0.27148s-0.4834-0.0908-0.66406-0.27148c-0.17164-0.18067-0.25782-0.39746-0.25782-0.65039 0-0.25294 0.0862-0.46973 0.25782-0.6504 0.18066-0.18066 0.40209-0.27148 0.66406-0.27148z" fill="#363636"/>
</svg>
