<svg viewBox="0 0 22 22" xmlns="http://www.w3.org/2000/svg">
<defs>
<style id="current-color-scheme" type="text/css">.ColorScheme-Text {
        color:#4d4d4d
      }</style>
</defs>
<path class="ColorScheme-Text" d="m17.164 11.413c-0.4486-0.43813-1.1764-0.43813-1.6255 0l-4.5378 4.8801-4.5378-4.8801c-0.44912-0.43813-1.1764-0.43813-1.6255 0-0.44913 0.43814-0.44913 1.1478 0 1.5859l5.2786 5.6773c0.24298 0.23674 0.56657 0.34113 0.88475 0.32162 0.31763 0.0195 0.64176-0.085 0.88472-0.32162l5.2786-5.6773c0.44857-0.43814 0.44857-1.1478 0-1.5859zm-6.1701-4.7222c1.046 0 1.8939-0.82618 1.8939-1.8453 0-1.0192-0.84793-1.8453-1.8939-1.8453s-1.8939 0.82618-1.8939 1.8453c0 1.0191 0.84794 1.8453 1.8939 1.8453zm0 5.2724c1.046 0 1.8939-0.82618 1.8939-1.8453s-0.84793-1.8453-1.8939-1.8453-1.8939 0.82617-1.8939 1.8453 0.84794 1.8453 1.8939 1.8453z" fill="currentColor"/>
</svg>
