<svg width="22" height="22" version="1.1" xmlns="http://www.w3.org/2000/svg">
<g transform="translate(-550.29 -608.65)">
<g transform="matrix(.67604 0 0 .67604 290.48 260.13)" fill="#4d4d4d">
<circle cx="389.57" cy="-509.56" r="0"/>
<g transform="matrix(2.0534 0 0 2.0534 384.2 -1613)">
<g transform="translate(-401.01 510.63)" fill="#4d4d4d">
<g transform="translate(5.0558 -5.2511)" fill="#4d4d4d">
<g transform="translate(-11.317 5.8825)" fill="#4d4d4d" stroke="#000" stroke-opacity=".8">
<g transform="translate(1.8733 -.28411)" fill="#4d4d4d">
<g transform="translate(-2.0519 -.97859)" fill="#4d4d4d">
<g transform="translate(.22097 .44194)" fill="#4d4d4d">
<g transform="translate(1.3574 -1.2627)" fill="#4d4d4d">
<g transform="translate(-.41037 -.59978)" fill="#4d4d4d">
<g transform="matrix(.78637 0 0 .78395 92.594 111.88)" fill="#4d4d4d">
<g transform="matrix(1.2717 0 0 1.2756 -114.26 -140.42)" fill="#4d4d4d">
<g transform="matrix(.78637 0 0 .78395 93.326 112.35)" fill="#4d4d4d">
<g transform="matrix(1.2717 0 0 1.2756 -124.34 -145.65)" fill="#4d4d4d">
<g transform="translate(2.9673 4.7351)" fill="#4d4d4d">
<g transform="translate(.031567 -1.894)" fill="#4d4d4d">
<g transform="translate(-1.3574 -.63135)" fill="#4d4d4d">
<g transform="translate(9.3755 2.3044)" fill="#4d4d4d">
<g transform="translate(-8.1444 -1.9572)" fill="#4d4d4d">
<g transform="translate(-1.0417 .94702)" fill="#4d4d4d">
<g transform="matrix(.78637 0 0 .78395 93.026 111.85)" fill="#4d4d4d">
<g transform="matrix(-.011937 0 0 .011973 449.07 560.74)" fill="#4d4d4d" stroke="none">
<g transform="matrix(-7.0733 0 0 7.0018 2712.2 -7878.3)" fill="#4d4d4d">
<g transform="matrix(-.14381 0 0 .14528 389.34 1124.4)" fill="#4d4d4d">
<g transform="matrix(-7.0733 0 0 7.0018 2712.2 -7878.3)" fill="#4d4d4d">
<g transform="matrix(.1177 0 0 .1177 -131.57 724.01)" fill="#4d4d4d">
<g transform="matrix(2.4024 0 0 2.4906 -437.81 236.72)" fill="#4d4d4d">
<g fill="#4d4d4d">
<path d="m3.18 201.69 38.31 29.933-36.057 69.073c-18.028 31.851 12.943 62.878 32.676 73.679 19.426 10.632 49.577 11.896 77.746 11.513l50.704-82.889 38.31 20.722-66.479-123.18-135.21 1.15zm5.633 169.09 82.253 151.96c16.526 21.105 47.7 26.094 80 25.327h86.76v-143.9l-164.51-1.151c-25.539 1.533-58.967-3.839-84.507-32.235zm517.5-280.05-44.752 18.995-42.933-65.022c-19.116-31.209-61.27-19.164-80.282-7.141-18.716 11.836-34.44 37.594-47.761 62.417l47.914 84.532-36.697 23.46 139.97 1.576 64.545-118.82zm-150.62-77.046-172.79-1.732c-26.471 4.221-45.948 29.067-60.936 57.691l-42.062 75.882 125.86 69.766 80.761-143.32c11.039-23.083 31.944-49.714 69.162-58.284zm7.516 586.36 5.082-48.351 77.685-6.025c36.563-1.59 46.465-44.297 45.167-66.755-1.277-22.108-16.184-48.348-31.437-72.033l-97.162 0.925-2.729-43.47-69.235 121.65 72.629 114.06zm140.41-94.379 85.283-150.28c9.142-25.199-3.146-54.28-20.915-81.266l-45.976-73.577-122.04 76.257 86.199 140.12c14.837 20.845 27.994 52.039 17.446 88.747z" fill="#4d4d4d"/>
</g>
</g>
</g>
</g>
</g>
</g>
</g>
</g>
</g>
</g>
</g>
</g>
</g>
</g>
</g>
</g>
</g>
</g>
</g>
</g>
</g>
</g>
</g>
</g>
</g>
</g>
</g>
</g>
</g>
</svg>
