<svg width="22" height="22" version="1.1" xmlns="http://www.w3.org/2000/svg">
<g transform="translate(-326 -534.36)">
<path transform="translate(326 534.36)" d="m3.3848 2c-0.76432 0-1.3848 0.62046-1.3848 1.3848v15.23c0 0.76432 0.62045 1.3848 1.3848 1.3848h15.23c0.76432 0 1.3848-0.62045 1.3848-1.3848v-15.23c0-0.76431-0.62045-1.3848-1.3848-1.3848h-15.23zm6.2012 3.002h2.8301c-0.002994 1.2847 0 4.6582 0 4.6582h4.584v2.6777h-4.584s-9.07e-4 3.3729-0.003907 4.6621h-2.8281c3e-3 -1.2892 0.0019531-4.6621 0.0019531-4.6621s-3.0679 9.06e-4 -4.5859 0.003906v-2.6777c1.5181-3e-3 4.5859-0.0019531 4.5859-0.0019531s-3e-3 -3.3767 0-4.6602z" fill="#4d4d4d"/>
</g>
</svg>
