<svg viewBox="0 0 22 22" xmlns="http://www.w3.org/2000/svg">
<defs>
<style id="current-color-scheme" type="text/css">.ColorScheme-Text {
        color:#363636
      }</style>
</defs>
<path class="ColorScheme-Text" d="m4.5996 3c-0.4432 0-0.79883 0.35758-0.79883 0.80078v14.398c0 0.4432 0.35563 0.80078 0.79883 0.80078h12.801c0.4432 0 0.79883-0.35758 0.79883-0.80078v-14.398c0-0.4432-0.35563-0.80078-0.79883-0.80078h-12.801zm6.4004 4.002c0.15455-0.0097669 0.31147 0.041835 0.42969 0.16016l2.5703 2.8379c0.21827 0.21907 0.21827 0.5739 0 0.79297-0.21828 0.21907-0.57247 0.21907-0.79102 0l-2.209-2.4395-2.207 2.4395c-0.21854 0.21907-0.57248 0.21907-0.79102 0-0.21854-0.21907-0.21854-0.5739 0-0.79297l2.5684-2.8379c0.11823-0.11837 0.27487-0.16991 0.42969-0.16016zm-0.003906 3.5156c0.50896 0 0.92188 0.41426 0.92188 0.92383s-0.41292 0.92188-0.92188 0.92188-0.91992-0.4123-0.91992-0.92188 0.41097-0.92383 0.91992-0.92383zm0 2.6367c0.50896 0 0.92188 0.41426 0.92188 0.92383 0 0.50957-0.41292 0.92188-0.92188 0.92188s-0.91992-0.4123-0.91992-0.92188c0-0.50957 0.41097-0.92383 0.91992-0.92383z" fill="#363636"/>
</svg>
