<svg viewBox="0 0 22 22" xmlns="http://www.w3.org/2000/svg">
<defs>
<style id="current-color-scheme" type="text/css">.ColorScheme-Text {
        color:#4d4d4d
      }</style>
</defs>
<path class="ColorScheme-Text" d="m11 3c-2.0367 0-3.9094 0.43876-5.2762 1.3281-1.3668 0.88936-2.2257 2.2374-2.224 4.0286 9e-3 2.0244 1.3205 4.6364 2.9032 6.7708 0.79133 1.0672 1.6512 2.0151 2.4557 2.7057 0.80446 0.6906 1.5489 1.1295 2.1361 1.1667h0.01c0.58714-0.0372 1.3316-0.47607 2.136-1.1667 0.80447-0.6906 1.6643-1.6385 2.4557-2.7057 1.5827-2.1344 2.8935-4.7464 2.9031-6.7708 7.3e-4 -1.7913-0.85718-3.1393-2.224-4.0286-1.3668-0.88936-3.2396-1.3281-5.2763-1.3281z" fill="currentColor"/>
</svg>
