<svg version="1.1" viewBox="0 0 22 22" xmlns="http://www.w3.org/2000/svg">
<defs>
<style id="current-color-scheme" type="text/css">.ColorScheme-Text {
        color:#4d4d4d
      }</style>
</defs>
<path d="m5.9469 4.9281v11.55h2.5266v-11.55h-2.5266z" fill="#ff9051"/>
<path d="m11 4.9281v11.55h2.5266v-11.55h-2.5266z" fill="#00ab83"/>
<path d="m16.053 4.9281v11.55h2.5266v-11.55h-2.5266z" fill="#4f71d4"/>
<path d="m3.4203 4.9281v11.55h2.5266v-11.55h-2.5266z" fill="#ffd68c"/>
<path d="m13.527 4.9281v11.55h2.5266v-11.55h-2.5266z" fill="#4bb4ff"/>
<path d="m8.4734 4.9281v11.55h2.5266v-11.55h-2.5266z" fill="#7fcc74"/>
<path class="ColorScheme-Text" d="m3.7062 4.4078c-0.38516 0-0.70625 0.31954-0.70625 0.70469v11.181c0 0.38516 0.32109 0.70626 0.70625 0.70626h14.589c0.38516 0 0.70469-0.3211 0.70469-0.70626v-11.181c0-0.38515-0.31953-0.70469-0.70469-0.70469h-14.589zm0 0.66562h14.589c0.0276 0 0.03904 0.01152 0.03904 0.03904v11.181c0 0.02768-0.01152 0.03904-0.03904 0.03904h-14.589c-0.02768 0-0.04064-0.01152-0.04064-0.03904v-11.181c0-0.0276 0.01296-0.03904 0.04064-0.03904z" color="#4d4d4d" fill="currentColor"/>
</svg>
