<svg viewBox="0 0 22 22" xmlns="http://www.w3.org/2000/svg">
<defs>
<style id="current-color-scheme" type="text/css">.ColorScheme-Text {
        color:#4d4d4d
      }</style>
</defs>
<path class="ColorScheme-Text" d="m8 3c-0.552 0-1 0.448-1 1v1h1v-0.5c0-0.276 0.224-0.5 0.5-0.5h9c0.276 0 0.5 0.224 0.5 0.5v9c0 0.276-0.224 0.5-0.5 0.5h-0.5v1h1c0.552 0 1-0.448 1-1v-10c0-0.552-0.448-1-1-1h-10zm-4 3c-0.552 0-1 0.448-1 1v11c0 0.552 0.448 1 1 1h11c0.552 0 1-0.448 1-1v-11c0-0.552-0.448-1-1-1h-11zm3.9356 3.1992c0.37367 0 0.67773 0.30408 0.67773 0.67773v0.68164h1.5742v-0.68164c0-0.37365 0.30386-0.67773 0.67773-0.67773 0.37365 0 0.67774 0.30408 0.67774 0.67773v0.68164h0.67969c0.37359 0 0.67773 0.30389 0.67773 0.67774 0 0.37365-0.30417 0.67773-0.67773 0.67773h-0.67969v1.5723h0.67969c0.3737 0 0.67773 0.30414 0.67773 0.67773 0 0.3736-0.304 0.67774-0.67773 0.67774h-0.67969v0.67968c0 0.37388-0.30395 0.67774-0.67774 0.67774-0.37359 0-0.67773-0.30386-0.67773-0.67774v-0.67968h-1.5742v0.67968c0 0.37388-0.30406 0.67774-0.67773 0.67774-0.37382 0-0.67774-0.30386-0.67774-0.67774v-0.67968h-0.67969c-0.37367 0-0.67773-0.30414-0.67773-0.67774 0-0.37359 0.30406-0.67773 0.67773-0.67773h0.67969v-1.5723h-0.67969c-0.37367 0-0.67773-0.30408-0.67773-0.67773 0-0.37382 0.30406-0.67774 0.67773-0.67774h0.67969v-0.68164c0-0.37365 0.30392-0.67773 0.67774-0.67773zm0.37695 2.4121v2.1758h2.1758v-2.1758h-2.1758z" fill="currentColor"/>
</svg>
