<svg viewBox="0 0 22 22" xmlns="http://www.w3.org/2000/svg">
<defs>
<style id="current-color-scheme" type="text/css">.ColorScheme-Text {
        color:#363636
      }</style>
</defs>
<path class="ColorScheme-Text" d="m11 3c-4.4183 0-8 3.5817-8 8 0 4.4183 3.5817 8 8 8 4.4183 0 8-3.5817 8-8 0-4.4183-3.5817-8-8-8zm-0.1543 1.5527c0.083403-0.0026055 0.16684 0.0024296 0.25 0.0058594 0.16694 0.003084 0.33182 0.017916 0.49805 0.033203 0.33103 0.039296 0.66178 0.096137 0.98242 0.18164 0.64173 0.168 1.2525 0.42629 1.7988 0.75586 0.069365 0.039535 0.13556 0.082712 0.20117 0.12695 0.065909 0.043842 0.13308 0.085715 0.19727 0.13086 0.12677 0.092496 0.25466 0.18045 0.37305 0.2793 0.24261 0.19095 0.46393 0.39996 0.66992 0.61133 0.40742 0.4272 0.74544 0.87978 1.0059 1.3301 0.26151 0.44982 0.45137 0.89154 0.58789 1.2949 0.13854 0.40327 0.21951 0.76963 0.27148 1.0723 0.012363 0.075906 0.024096 0.14723 0.035156 0.21484 0.009438 0.069897 0.016365 0.13885 0.023437 0.20117 0.0067 0.062798 0.011862 0.12063 0.017578 0.17383 0.005132 0.052137 0.006842 0.088721 0.009766 0.12695 0.009704 0.14644 0.013672 0.22461 0.013672 0.22461l-1.627 0.041016s0.001726-0.077823 0.003906-0.22461c2.66e-4 -0.035068 0.00299-0.081413 0.001953-0.11914-0.001249-0.03661-0.002577-0.077917-0.003906-0.12109-0.001303-0.043629-0.002471-0.090588-0.003906-0.14062-0.004307-0.05336-0.008807-0.11005-0.013672-0.16992-0.020977-0.23934-0.061128-0.53067-0.14453-0.85742-0.081516-0.32689-0.20277-0.68981-0.38281-1.0684-0.17898-0.37894-0.42359-0.76834-0.72852-1.1465-0.15479-0.18677-0.32148-0.37455-0.50976-0.54883-0.091193-0.090555-0.19193-0.17148-0.29102-0.25781-0.050382-0.042061-0.10232-0.08173-0.1543-0.12305-0.051711-0.041635-0.10665-0.081546-0.16211-0.11914-0.4347-0.31354-0.93153-0.57477-1.4688-0.76367-0.26832-0.095926-0.54787-0.1666-0.83203-0.22461-0.14285-0.024646-0.28632-0.052182-0.43164-0.066406-0.072502-0.0089598-0.14558-0.018161-0.21875-0.021484l-0.19141-0.013672h-0.013672-0.007813c0.002287-2.393e-4 -0.014385-0.0014746 0.003907-0.0019532-0.15367-9.837e-4 -0.32189-0.0083217-0.45703 0-0.14051 0.0013028-0.28691 0.014901-0.43359 0.027344-0.29158 0.033526-0.58262 0.080252-0.86523 0.1543-0.56574 0.14522-1.1041 0.37142-1.5879 0.66016-0.061575 0.034404-0.1216 0.070478-0.17969 0.10938-0.058332 0.038471-0.11696 0.07562-0.17383 0.11523-0.11212 0.081516-0.22717 0.15897-0.33203 0.24609-0.21551 0.1675-0.41046 0.35121-0.59375 0.53711-0.36195 0.37628-0.66438 0.77649-0.89648 1.1738-0.23325 0.39694-0.4028 0.78623-0.52539 1.1426-0.12456 0.35627-0.19687 0.67927-0.24414 0.94727-0.011299 0.067212-0.023047 0.13153-0.033203 0.19141-0.0073114 0.060299-0.013204 0.11728-0.019531 0.16992-0.013107 0.10526-0.02418 0.19444-0.027344 0.26758-0.0094383 0.14684-0.013672 0.22461-0.013672 0.22461s-0.0017261-0.07777-0.0039062-0.22461c-0.002765-0.073646-5.604e-4 -0.1649 0.0039062-0.27148 0.002127-0.05336 0.0054729-0.1107 0.0078126-0.17188 0.0052908-0.061017 0.011649-0.12487 0.017578-0.19336 0.02571-0.27392 0.070501-0.60858 0.16797-0.98242 0.095527-0.37384 0.23874-0.78912 0.44727-1.2207 0.20738-0.43193 0.4875-0.87357 0.83789-1.3027 0.17752-0.21224 0.36866-0.42535 0.58398-0.62305 0.1047-0.10225 0.22025-0.19558 0.33398-0.29297 0.057667-0.047591 0.11818-0.092145 0.17773-0.13867 0.059289-0.046953 0.12029-0.092147 0.18359-0.13477 0.49726-0.35448 1.0665-0.64956 1.6797-0.86133 0.30631-0.10738 0.62354-0.18622 0.94727-0.25 0.16239-0.027518 0.32434-0.056234 0.49609-0.072266 0.17614-0.022785 0.32351-0.027045 0.48242-0.039062l0.25976-0.0039062zm2.1484 4.4629-1.8867 2.75c0.049398 0.32261-0.049629 0.66456-0.29883 0.91211-0.41433 0.41173-1.0844 0.40852-1.4961-0.005859-0.41175-0.41433-0.4085-1.0824 0.0058594-1.4941 0.2492-0.24758 0.58993-0.34431 0.91211-0.29297l2.7637-1.8691z" fill="#363636"/>
</svg>
