<svg version="1.1" viewBox="0 0 22 22" xmlns="http://www.w3.org/2000/svg">
<defs>
<style id="current-color-scheme" type="text/css">.ColorScheme-Text {
        color:#4d4d4d
      }</style>
<linearGradient id="linearGradient848" x1="2" x2="11" y1="16" y2="8" gradientTransform="translate(7)" gradientUnits="userSpaceOnUse">
<stop stop-color="#959595" offset="0"/>
<stop stop-color="#b9b9b9" offset=".22222"/>
<stop stop-color="#6c6c6c" offset=".37031"/>
<stop stop-color="#e4e4e4" offset=".55257"/>
<stop stop-color="#c5c6c6" offset="1"/>
</linearGradient>
<linearGradient id="linearGradient864" x1="-20" x2="-11.881" y1="8.4687" y2="8.4687" gradientTransform="translate(26)" gradientUnits="userSpaceOnUse">
<stop stop-color="#eee" stop-opacity=".97175" offset="0"/>
<stop stop-color="#3b3b3b" offset="1"/>
</linearGradient>
<linearGradient id="linearGradient874" x1="-1" x2="0" y1="6" y2="7" gradientTransform="translate(18.821 .4556)" gradientUnits="userSpaceOnUse">
<stop stop-color="#6c6c6c" offset="0"/>
<stop stop-color="#a6a6a6" offset="1"/>
</linearGradient>
<linearGradient id="linearGradient906" x1="4" x2="6" y1="19" y2="12" gradientUnits="userSpaceOnUse">
<stop stop-color="#3263ad" offset="0"/>
<stop stop-color="#3e79cd" offset="1"/>
</linearGradient>
<radialGradient id="radialGradient910" cx="1.4555" cy="10.81" r="3" gradientTransform="matrix(.18364 .27819 -.50494 .33333 9.6761 8.9919)" gradientUnits="userSpaceOnUse">
<stop stop-color="#fff" offset="0"/>
<stop stop-color="#3e79cd" offset="1"/>
</radialGradient>
</defs>
<path d="m14 4c-0.46768 4.7802-3.1993 7.9321-9 9-0.08433-0.31473-0.08227-0.62766 0.01024-1.0014 0.98976-3.9986 3.9898-6.9986 7.9699-7.9899 0.31165-0.077619 0.68623-0.14194 1.0199-0.0086992z" fill="url(#linearGradient864)"/>
<path d="m5 13c5-1 8-4 9-9l6 6c-1 5-4 8-9 9z" fill="url(#linearGradient848)"/>
<path d="m12.821 11.456c3.8919-2.8612 7.5254-5 7.0248-6.0596-0.34426-0.72867-2.0248-0.94044-5.0248 1.0596" fill="none" stroke="url(#linearGradient874)" stroke-linecap="round" stroke-width="1px"/>
<circle cx="12.669" cy="11.645" r="1.0106" fill="#838383" opacity=".885"/>
<path d="m9 11.643c-2 1-4 1-4 4.0128v2.9872c0 2-2 2-2 0v-4c0.3524-4.3759 4.2459-3.6864 6-3z" fill="url(#linearGradient906)"/>
<path d="m9 11.643c-2 1-4 1-4 4.0128v2.9872c0 2-2 2-2 0v-4c0.3524-4.3759 4.2459-3.6864 6-3z" fill="url(#radialGradient910)"/>
<path d="m10.978 10.022c1.5124-1.5024 2.5198-3.5098 3.0222-6.0222l2.2719 2.2719z" fill="url(#linearGradient848)"/>
</svg>
