<svg viewBox="0 0 22 22" xmlns="http://www.w3.org/2000/svg">
<defs>
<style id="current-color-scheme" type="text/css">.ColorScheme-Text {
        color:#4d4d4d
      }</style>
</defs>
<path class="ColorScheme-Text" d="m11 3c-0.29336 0-0.53125 0.23803-0.53125 0.53125v1.2344c4e-5 0.29313 0.23792 0.53125 0.53125 0.53125 0.29365 0 0.53125-0.23812 0.53125-0.53125v-1.2344c0-0.29322-0.23757-0.53125-0.53125-0.53125zm-3.6953 1.2344c-0.13411-0.0214-0.27759 9e-3 -0.39649 0.0957-0.2369 0.17204-0.28931 0.5031-0.11718 0.74023l0.72656 1c0.10425 0.14313 0.26527 0.21875 0.42969 0.21875 0.10778 0 0.21624-0.0332 0.31054-0.10156 0.23697-0.17213 0.29127-0.50309 0.11914-0.74023l-0.72656-1c-0.0863-0.11847-0.21159-0.19151-0.3457-0.21289zm7.3906 0c-0.13401 0.0214-0.25941 0.0942-0.3457 0.21289l-0.72461 1c-0.17213 0.23713-0.11982 0.56813 0.11719 0.74023 0.0943 0.0684 0.20279 0.10156 0.31054 0.10156 0.16442 0 0.32759-0.0756 0.43164-0.21875l0.72461-1c0.1721-0.23714 0.11982-0.5682-0.11718-0.74023-0.11917-0.0865-0.26247-0.11709-0.39649-0.0957zm-3.6953 1.9121c-2.1179 0-3.834 1.7162-3.834 3.834 0 0.89336 0.30702 1.714 0.82031 2.3652 0.4498 0.5707 0.87496 1.1934 1.2441 1.8203v1.2734h3.5156v-1.2402c0.36578-0.60979 0.84036-1.3115 1.2676-1.8535 0.51373-0.65142 0.82031-1.4713 0.82031-2.3652 0-2.1178-1.7165-3.834-3.834-3.834zm-6.1602 1.2969c-0.20648 0.0177-0.39089 0.15604-0.45898 0.36523-0.0908 0.27858 0.061 0.57923 0.33984 0.66993l1.1758 0.38086c0.0549 0.0176 0.10966 0.0273 0.16407 0.0273 0.22391 0 0.43074-0.14272 0.5039-0.36719 0.0908-0.27858-0.061-0.57925-0.33984-0.66992l-1.1758-0.38086c-0.0704-0.0227-0.14016-0.0313-0.20899-0.0254zm12.32 2e-3c-0.0686-6e-3 -0.13966 9e-4 -0.20899 0.0234l-1.1738 0.38086c-0.27881 0.0907-0.43255 0.39111-0.34179 0.66992 0.073 0.22427 0.28195 0.36719 0.50586 0.36719 0.0545 0 0.10757-0.0101 0.16211-0.0273l1.1758-0.38086c0.27894-0.0907 0.43044-0.38919 0.33984-0.66797-0.0681-0.209-0.25321-0.34737-0.45898-0.36523zm-11.053 3.5918c-0.0688-6e-3 -0.14059 9.2e-4 -0.21094 0.0234l-1.1758 0.38086c-0.27881 0.0904-0.43067 0.39095-0.33984 0.66992 0.0725 0.22446 0.28 0.36719 0.50391 0.36719 0.0541 0 0.10962-0.01 0.16406-0.0273l1.1758-0.38086c0.27904-0.0905 0.4306-0.38913 0.33984-0.66797-0.0676-0.209-0.2505-0.3473-0.45703-0.36524zm9.7871 0c-0.20609 0.0179-0.39101 0.15624-0.45898 0.36523-0.0908 0.27888 0.0631 0.57731 0.34179 0.66797l1.1738 0.38282c0.0545 0.0177 0.10959 0.0254 0.16406 0.0254 0.22388 0 0.43074-0.14305 0.50391-0.36719 0.0906-0.279-0.0608-0.57727-0.33984-0.66797l-1.1758-0.38281c-0.0698-0.0225-0.14029-0.0294-0.20899-0.0234zm-8.0312 2.6016c-0.13432 0.0213-0.26 0.0943-0.3457 0.21289l-0.72656 0.99805c-0.17259 0.23713-0.12022 0.5698 0.11718 0.74219 0.0938 0.0687 0.20235 0.10156 0.31055 0.10156 0.16442 0 0.32606-0.0759 0.42969-0.21875l0.72656-1c0.17258-0.23707 0.1202-0.56781-0.11719-0.74023-0.11816-0.0867-0.26021-0.11697-0.39453-0.0957zm6.2734 0c-0.13414-0.0212-0.27769 0.01-0.39649 0.0957-0.23674 0.1723-0.28784 0.50314-0.11523 0.74024l0.72461 1c0.10357 0.14281 0.26518 0.21875 0.42969 0.21875 0.10817 0 0.2182-0.0332 0.3125-0.10157 0.23694-0.17236 0.28966-0.50502 0.11718-0.74218l-0.72656-0.99805c-0.0861-0.11847-0.21156-0.19165-0.3457-0.21289zm-4.5566 2.4082c-0.21974 0-0.39844 0.17872-0.39844 0.39843 0 0.21986 0.1787 0.39844 0.39844 0.39844h2.8379c0.21973 0 0.39844-0.17858 0.39844-0.39844 4e-5 -0.21971-0.17864-0.39843-0.39844-0.39843h-2.8379zm-0.1875 1.3965c0 0.49474 0.38686 0.89564 0.875 0.92383 0.054 0.35729 0.35977 0.63281 0.73242 0.63281 0.37226 0 0.67866-0.27539 0.73242-0.63281 0.48726-0.0288 0.875-0.42938 0.875-0.92383h-3.2148z" fill="currentColor"/>
</svg>
