<svg viewBox="0 0 22 22" xmlns="http://www.w3.org/2000/svg">
<defs>
<style id="current-color-scheme" type="text/css">.ColorScheme-Text {
        color:#4d4d4d
      }</style>
</defs>
<path class="ColorScheme-Text" d="m4.5 4.1251c1e-3 0.28675 0.1139 0.57299 0.33612 0.79102l6.1846 6.0644-6.1411 6.1094c-0.44097 0.43901-0.43851 1.1481 6e-3 1.584 0.44441 0.43599 1.1641 0.43357 1.6055-6e-3l6.9379-6.9043c0.22058-0.21952 0.3312-0.50618 0.33019-0.79297-1e-3 -0.28664-0.1139-0.57296-0.33612-0.79101l-6.9893-6.8535c-0.44462-0.43578-1.1623-0.43335-1.6035 6e-3 -0.22048 0.21952-0.33127 0.50622-0.33019 0.79297zm11.118 0.11914 0.0336 13.539c2e-3 0.39067 0.14404 0.7589 0.37961 0.98633 0.23577 0.22756 0.54249 0.29155 0.81856 0.16992l0.0217-0.01c0.37905-0.16703 0.63092-0.63894 0.62874-1.1738l-0.0316-13.539c-2e-3 -0.39047-0.14365-0.75824-0.37962-0.98633-0.23579-0.22766-0.54241-0.2916-0.81856-0.16992l-0.0217 0.01c-0.37921 0.16703-0.6329 0.63894-0.63073 1.1738z" fill="currentColor"/>
</svg>
