<svg viewBox="0 0 22 22" xmlns="http://www.w3.org/2000/svg">
<defs>
<style id="current-color-scheme" type="text/css">.ColorScheme-Text {
        color:#4d4d4d
      }</style>
</defs>
<path class="ColorScheme-Text" d="m1.3596 3.0012c-0.19964 0-0.35965 0.1694-0.35965 0.3808v15.573l20 0.045v-13.364c0-0.2114-0.16186-0.3828-0.36149-0.3828h-10.841c-0.36729 0.034-0.41422-0.017-0.59572-0.2734-0.25738-0.3648-0.64665-1.3474-0.90004-1.7032-0.20338-0.3116-0.23629-0.2754-0.57359-0.2754h-6.3685zm9.6256 6.4983c0.14806-5e-4 0.29611 0.059 0.40944 0.1778l3.5651 3.7482c0.22687 0.2384 0.22708 0.6252 0.0019 0.8652-0.22503 0.2401-0.59039 0.2423-0.81704 0l-3.1538-3.3166-3.1317 3.3401c-0.22512 0.24-0.59222 0.2422-0.81889 0-0.2268-0.2383-0.22701-0.6271-0.00189-0.8672l3.5374-3.7736c0.11257-0.12 0.26146-0.1811 0.40944-0.1817z" fill="currentColor"/>
</svg>
