<svg viewBox="0 0 22 22" xmlns="http://www.w3.org/2000/svg">
<defs>
<style id="current-color-scheme" type="text/css">.ColorScheme-Text {
        color:#4d4d4d
      }</style>
</defs>
<path class="ColorScheme-Text" d="m19 14.401c7e-5 0.41113-0.14791 0.82218-0.44404 1.1329-0.59211 0.62146-1.5666 0.62124-2.159-3e-4h-7e-5l-5.3975-5.6652-5.3959 5.6635c-0.59206 0.62147-1.5664 0.62132-2.1588-2.3e-4 -2e-5 -2e-5 -3e-5 -3e-5 -6e-5 -7e-5 -3e-5 -2e-5 -4e-5 -3e-5 -7e-5 -6e-5 -0.59268-0.62159-0.59274-1.6448-3e-4 -2.2663l6.4751-6.7963c0.29601-0.31063 0.68934-0.46913 1.0794-0.46906 0.38975 7e-5 0.78312 0.15854 1.0793 0.46923h7e-5l6.4775 6.7986c0.29621 0.3109 0.44434 0.7221 0.4444 1.1332z" fill="currentColor"/>
</svg>
