<svg viewBox="0 0 22 22" xmlns="http://www.w3.org/2000/svg">
<defs>
<style id="current-color-scheme" type="text/css">.ColorScheme-Text {
        color:#4d4d4d
      }</style>
</defs>
<path class="ColorScheme-Text" d="m11.195 3.0018c-0.36394-6e-3 -0.72847 9e-3 -1.0918 0.0469-1.1031 0.11675-2.1487 0.42718-3.1211 0.92383l-0.6543-0.6875c-0.23175-0.24223-0.64026-0.14291-0.73438 0.17773l-1.1641 3.9727c-0.0941 0.32238 0.19563 0.62508 0.52149 0.54492l4.0195-0.97656c0.32585-0.0784 0.44467-0.48065 0.21289-0.72461l-0.54492-0.57031c0.54021-0.20912 1.1085-0.34526 1.6992-0.40625 1.0839-0.11327 2.1857 0.0412 3.1894 0.44726 0.84517 0.34155 1.6185 0.85998 2.2598 1.5117 0.16207 0.16381 0.4234 0.177 0.59766 0.0254l1.0547-0.91601c0.1882-0.16381 0.19986-0.45159 0.0273-0.63282-0.86957-0.90267-1.929-1.6193-3.0879-2.0898-1.009-0.40908-2.0918-0.62704-3.1836-0.64649zm5.8535 11.018-4.0195 0.97657c-0.32587 0.0784-0.44466 0.48064-0.21289 0.7246l0.54492 0.57032c-0.54021 0.20911-1.1085 0.34526-1.6992 0.40625-1.0839 0.11327-2.1857-0.0412-3.1895-0.44727-0.84517-0.34155-1.6185-0.85996-2.2598-1.5117-0.16209-0.1638-0.4234-0.177-0.59766-0.0254l-1.0547 0.91602c-0.18818 0.1638-0.19986 0.45156-0.0273 0.63281 0.86956 0.90268 1.9291 1.6193 3.0879 2.0898 1.3453 0.54544 2.8221 0.75124 4.2754 0.59961 1.1031-0.11675 2.1487-0.42718 3.1211-0.92382l0.6543 0.6875c0.23177 0.2422 0.64027 0.1429 0.73437-0.17774l1.1641-3.9727c0.0941-0.32238-0.19562-0.62506-0.52149-0.54492z" fill="currentColor"/>
</svg>
