<svg viewBox="0 0 22 22" xmlns="http://www.w3.org/2000/svg">
<defs>
<style id="current-color-scheme" type="text/css">.ColorScheme-Text {
        color:#363636
      }</style>
</defs>
<path class="ColorScheme-Text" d="m11 3a8 8 0 0 0-8 8 8 8 0 0 0 8 8 8 8 0 0 0 8-8 8 8 0 0 0-8-8zm0 2c0.075988 0 0.13361 0.026459 0.17383 0.080078l1.207 1.6621 1.9551-0.63086c0.062336-0.02681 0.12837-0.017311 0.19531 0.027344 0.058142 0.044655 0.085937 0.10236 0.085938 0.17383v2.0508l1.957 0.64258c0.071465 0.022286 0.11684 0.067659 0.13476 0.13477 0.022287 0.071465 0.012789 0.13725-0.027343 0.19531l-1.2051 1.6602 1.2051 1.6621c0.040132 0.053537 0.049794 0.11941 0.027343 0.19531-0.017928 0.066941-0.0633 0.11044-0.13476 0.13281l-1.957 0.64258v2.0508c0 0.071381-0.027796 0.12917-0.085938 0.17383-0.066942 0.044655-0.13289 0.054153-0.19531 0.027343l-1.9551-0.62891-1.207 1.6602c-0.044655 0.057978-0.10236 0.087891-0.17383 0.087891s-0.12917-0.029913-0.17383-0.087891l-1.207-1.6602-1.9551 0.62891c-0.062501 0.02681-0.12829 0.017312-0.19531-0.027343-0.05806-0.044656-0.087891-0.10245-0.087891-0.17383v-2.0508l-1.9551-0.64258c-0.071465-0.022451-0.11692-0.065953-0.13477-0.13281-0.022286-0.075988-0.012871-0.14178 0.027344-0.19531l1.2051-1.6621-1.2051-1.6602c-0.040214-0.05806-0.04963-0.12385-0.027344-0.19531 0.017846-0.067024 0.063301-0.1124 0.13477-0.13477l1.9551-0.64258v-2.0508c0-0.071465 0.029831-0.12917 0.087891-0.17383 0.067024-0.044655 0.13281-0.054153 0.19531-0.027344l1.9551 0.63086 1.207-1.6621c0.040214-0.053537 0.097922-0.080078 0.17383-0.080078zm0 2.1367c-0.52262 0-1.0224 0.1014-1.498 0.30469-0.47566 0.20321-0.8862 0.47808-1.2324 0.82422-0.34614 0.34622-0.62101 0.75871-0.82422 1.2344-0.20321 0.47575-0.30469 0.97347-0.30469 1.4961 0 0.5227 0.10148 1.0223 0.30469 1.498 0.20329 0.47566 0.47808 0.8862 0.82422 1.2324 0.34614 0.34614 0.75676 0.62093 1.2324 0.82422 0.47575 0.20321 0.97542 0.30469 1.498 0.30469s1.0225-0.10148 1.498-0.30469c0.47575-0.20321 0.8862-0.47808 1.2324-0.82422 0.34614-0.34622 0.62092-0.75676 0.82422-1.2324 0.20313-0.47575 0.30469-0.97542 0.30469-1.498 0-0.52254-0.10148-1.0203-0.30469-1.4961-0.20329-0.47566-0.47808-0.88815-0.82422-1.2344-0.34622-0.34614-0.75668-0.62101-1.2324-0.82422-0.47558-0.20329-0.97551-0.30469-1.498-0.30469zm-1.4629 1.7773c0.3683 0 0.66797 0.29761 0.66797 0.66602 0 0.36862-0.29967 0.66797-0.66797 0.66797-0.3684-1.08e-4 -0.66602-0.29935-0.66602-0.66797 0-0.3683 0.29761-0.66602 0.66602-0.66602zm3.0254 0c0.3683 0 0.66797 0.29761 0.66797 0.66602 0 0.36862-0.29957 0.66797-0.66797 0.66797-0.36819-1.08e-4 -0.66602-0.29935-0.66602-0.66797 0-0.3683 0.29772-0.66602 0.66602-0.66602zm-3.7402 2.9453c0.12653 0 0.24729 0.072994 0.29883 0.19727 0.29879 0.71927 1.0382 1.1855 1.8848 1.1855 0.8274 0 1.5637-0.46574 1.875-1.1855 0.070797-0.16365 0.26039-0.23898 0.42383-0.16797 0.16386 0.070689 0.23876 0.26018 0.16797 0.42383-0.41348 0.95619-1.3816 1.5742-2.4668 1.5742-1.1083 0-2.0813-0.621-2.4805-1.582-0.06843-0.16462 0.0091012-0.35344 0.17383-0.42188 0.040455-0.016676 0.081731-0.023437 0.12305-0.023437z" fill="#363636"/>
</svg>
