<svg viewBox="0 0 22 22" xmlns="http://www.w3.org/2000/svg">
<defs>
<style id="current-color-scheme" type="text/css">.ColorScheme-Text {
        color:#363636
      }</style>
</defs>
<path class="ColorScheme-Text" d="m11 3c-2.2144 0-4.2978 0.76556-5.8672 2.1562-1.5831 1.4028-2.4551 3.2736-2.4551 5.2656 0 1.9012 0.79346 3.6896 2.2422 5.0684-0.026226 0.064011-0.045413 0.13042-0.058594 0.20117l-0.47656 2.5508c-0.056575 0.30301 0.019952 0.48375 0.09375 0.58203 0.085262 0.11351 0.21131 0.17578 0.35547 0.17578 0.10885 0 0.22576-0.03449 0.34766-0.10352l2.7676-1.5664c0.9586 0.33596 1.9901 0.51172 3.0508 0.51172 2.2144 0 4.2978-0.76556 5.8672-2.1562 1.583-1.4028 2.4551-3.2717 2.4551-5.2637 0-1.9921-0.87206-3.8628-2.4551-5.2656-1.5694-1.3907-3.6528-2.1562-5.8672-2.1562zm0 4c1.4591 0 2.6465 1.1874 2.6465 2.6465 0 0.58768-0.37647 1.5464-1.1484 2.9297-0.54596 0.9784-1.0829 1.7939-1.1055 1.8281l-0.39258 0.5957-0.39258-0.5957c-0.022564-0.034241-0.55944-0.84972-1.1055-1.8281-0.77193-1.3833-1.1484-2.342-1.1484-2.9297 0-1.4591 1.1874-2.6465 2.6465-2.6465zm0 1.2559c-0.75754 0-1.3711 0.61549-1.3711 1.373 0 0.75756 0.61355 1.3711 1.3711 1.3711 0.75753 0 1.3711-0.61353 1.3711-1.3711 0-0.75756-0.61355-1.373-1.3711-1.373z" fill="#363636"/>
</svg>
