<svg viewBox="0 0 22 22" xmlns="http://www.w3.org/2000/svg">
<defs>
<style id="current-color-scheme" type="text/css">.ColorScheme-Text {
        color:#4d4d4d
      }</style>
</defs>
<path class="ColorScheme-Text" d="m10.968 3c-1.0863 0-2.1128 0.35311-2.8653 1.0527-0.75246 0.69963-1.2162 1.7399-1.2162 3.055 0 1.6802 0.79414 3.3298 1.8674 4.4175 0.17579 0.44111 0.10031 0.66788 0 0.82012-0.1006 0.15267-0.28723 0.23986-0.2869 0.23974l0.00997-0.0036c-0.78177 0.24058-2.1219 0.90967-3.3044 1.9465-1.1825 1.0368-2.2048 2.4592-2.1717 4.1742l0.00499 0.2979h15.987l0.0063-0.2979c0.03649-1.6235-0.76997-2.9665-1.8786-3.9831s-2.5204-1.7256-3.7734-2.1352l-0.0013-0.0012h-0.0025c0.02068 0.0064-0.10405-0.03458-0.17838-0.16616s-0.14248-0.3899 0.03992-0.91744c1.0599-1.0887 1.8549-2.723 1.8549-4.3914 0-1.3152-0.46779-2.3555-1.2225-3.055-0.75467-0.69948-1.7833-1.0527-2.869-1.0527zm0 0.60767c0.94137 0 1.7995 0.30087 2.4237 0.87946 0.62422 0.57859 1.0291 1.4401 1.0291 2.6206 0 1.5282-0.77222 3.122-1.7551 4.0852-0.0068 0.0023-0.09148 0.3434-0.13722 0.5151-0.07291 0.416-0.05643 0.76678 0.0736 0.99696 0.17172 0.30396 0.42038 0.41653 0.54262 0.45457l-0.0049-0.0012c1.177 0.38474 2.5183 1.0627 3.5376 1.9975 0.94181 0.86364 1.5447 1.9543 1.6154 3.2366h-14.572c0.093971-1.3421 0.86149-2.5209 1.8847-3.4182 1.1034-0.96753 2.4212-1.6143 3.0686-1.8135l0.00499-0.0024 0.00499-0.0012c0.1536-0.05297 0.40941-0.1827 0.61122-0.48897s0.28715-0.78165 0.054887-1.3613l-0.023701-0.05935-0.046157-0.0451c-0.98755-0.95952-1.7551-2.5588-1.7551-4.0946 0-1.1812 0.40216-2.0423 1.0241-2.6206 0.62196-0.5783 1.4766-0.87946 2.4187-0.87946z" fill="currentColor"/>
</svg>
