<svg viewBox="0 0 22 22" xmlns="http://www.w3.org/2000/svg">
<defs>
<style id="current-color-scheme" type="text/css">.ColorScheme-Text {
        color:#4d4d4d
      }</style>
</defs>
<path class="ColorScheme-Text" d="m3.2852 3c-0.44877 0-0.8125 0.36408-0.8125 0.8125v14.375c0 0.44882 0.36404 0.8125 0.8125 0.8125h15.43c0.44878 0 0.8125-0.36408 0.8125-0.8125v-14.375c0-0.44882-0.36403-0.8125-0.8125-0.8125h-15.43zm10.715 1.4004h1.1992v2.4004h2.4004v1.1992h-2.4004v2.4004h-1.1992v-2.4004h-2.4004v-1.1992h2.4004v-2.4004zm-5.5801 5.2734c0.17844-0.016596 0.36708 0.074838 0.52344 0.2793l3.2148 4.2051c0.31272 0.40895 0.86088 0.44444 1.2227 0.078125l0.78516-0.79688c0.36146-0.36641 0.89444-0.32214 1.1895 0.099609l2.0371 2.9121c0.29439 0.42233 0.11619 0.76367-0.39844 0.76367h-11.723c-0.51457 0-0.7437-0.3724-0.51172-0.83203l3.1973-6.3379c0.11583-0.22981 0.28445-0.3545 0.46289-0.37109z" fill="currentColor"/>
</svg>
