<svg viewBox="0 0 22 22" xmlns="http://www.w3.org/2000/svg">
<defs>
<style id="current-color-scheme" type="text/css">.ColorScheme-NegativeText {
        color:#da4453;
      }</style>
</defs>
<path class="ColorScheme-NegativeText" d="m13.91 3.877c-0.17541-0.053231-0.38016-0.0030849-0.5 0.18359-1.5562 2.4259-3.089 3.541-9.6074 3.541-1.5475 0-2.8027 1.2591-2.8027 2.8066 0 1.5037 1.187 2.7327 2.6738 2.8008l1.5176 4.9336h2.2422l-1.5-4.8789c4.7534 0.23731 6.1062 1.3583 7.4766 3.4941 0.23947 0.3736 0.82227 0.19582 0.82227-0.24805v-6.1016-6.0996c0-0.22194-0.14685-0.37841-0.32227-0.43164zm3.9648 3.7305c-0.56692 0-1.0896 0.14051-1.5684 0.41992-0.47877 0.27936-0.85731 0.65795-1.1367 1.1367-0.27946 0.47877-0.41992 1.0015-0.41992 1.5684 0 0.56692 0.14056 1.0895 0.41992 1.5684 0.27941 0.47867 0.65795 0.85731 1.1367 1.1367s1.0014 0.41992 1.5684 0.41992 1.0896-0.14051 1.5684-0.41992c0.47872-0.27936 0.85731-0.658 1.1367-1.1367 0.27936-0.47877 0.41992-1.0015 0.41992-1.5684 0-0.56692-0.14061-1.0896-0.41992-1.5684-0.27941-0.47872-0.658-0.85731-1.1367-1.1367-0.47882-0.27941-1.0014-0.41992-1.5684-0.41992zm-0.91992 1.5742c0.070515 0 0.13206 0.026587 0.18359 0.078125l0.73633 0.73633 0.73633-0.73633c0.051438-0.051538 0.11308-0.078125 0.18359-0.078125 0.073261 0 0.13596 0.026587 0.1875 0.078125l0.36523 0.36523c0.051538 0.051538 0.078125 0.11424 0.078125 0.1875 0 0.070515-0.026587 0.13211-0.078125 0.18359l-0.73633 0.73633 0.73633 0.73633c0.051538 0.051488 0.078125 0.11308 0.078125 0.18359 0 0.073211-0.026587 0.13406-0.078125 0.18555l-0.36523 0.36719c-0.051538 0.051538-0.11424 0.078125-0.1875 0.078125-0.070515 0-0.13216-0.026587-0.18359-0.078125l-0.73633-0.73633-0.73633 0.73633c-0.051538 0.051538-0.11308 0.078125-0.18359 0.078125-0.073261 0-0.13401-0.026587-0.18555-0.078125l-0.36719-0.36719c-0.051538-0.051488-0.078125-0.11234-0.078125-0.18555 0-0.070515 0.026587-0.13211 0.078125-0.18359l0.73633-0.73633-0.73633-0.73633c-0.051538-0.051488-0.078125-0.11308-0.078125-0.18359 0-0.073262 0.026587-0.13596 0.078125-0.1875l0.36719-0.36523c0.051538-0.051538 0.11229-0.078125 0.18555-0.078125z" fill="#363636"/>
</svg>
