<svg viewBox="0 0 22 22" xmlns="http://www.w3.org/2000/svg">
<defs>
<style id="current-color-scheme" type="text/css">.ColorScheme-Text {
        color:#363636;
      }</style>
</defs>
<path class="ColorScheme-Text" d="m7.5781 3c-0.84004 0-1.5234 0.68378-1.5234 1.5234v1.5273h-1.5293c-0.83972 0-1.5234 0.6834-1.5234 1.5234 0 0.83966 0.68372 1.5234 1.5234 1.5234h1.5293v3.5352h-1.5293c-0.83972 0-1.5234 0.6839-1.5234 1.5234s0.68372 1.5234 1.5234 1.5234h1.5293v1.5273c0 0.84016 0.6834 1.5234 1.5234 1.5234 0.83972 0 1.5215-0.68328 1.5215-1.5234v-1.5273h3.5352v1.5273c0 0.84016 0.6839 1.5234 1.5234 1.5234 0.83997 0 1.5234-0.68328 1.5234-1.5234v-1.5273h1.5293c0.83985 0 1.5215-0.6839 1.5215-1.5234s-0.6817-1.5234-1.5215-1.5234h-1.5293v-3.5352h1.5293c0.83947 0 1.5234-0.68378 1.5234-1.5234 0-0.8401-0.6839-1.5234-1.5234-1.5234h-1.5293v-1.5273c0-0.83966-0.68378-1.5234-1.5234-1.5234-0.84016 0-1.5215 0.68378-1.5215 1.5234v1.5273h-3.5371v-1.5273c0-0.83966-0.68176-1.5234-1.5215-1.5234zm0.8457 5.4199h4.8887v4.8906h-4.8887v-4.8906z" fill="#363636"/>
<path d="m15.084 11.172c-2.1684 0-3.9141 1.7457-3.9141 3.9141 0 2.1684 1.7457 3.9141 3.9141 3.9141 2.1684 0 3.9141-1.7457 3.9141-3.9141 0-2.1684-1.7457-3.9141-3.9141-3.9141z" fill="#43be80"/>
</svg>
