<svg viewBox="0 0 22 22" xmlns="http://www.w3.org/2000/svg">
<defs>
<style id="current-color-scheme" type="text/css">.ColorScheme-Text {
        color:#4d4d4d
      }</style>
</defs>
<path class="ColorScheme-Text" d="m3.8887 3c-0.49244 0-0.88867 0.35758-0.88867 0.80078v14.398c0 0.4432 0.39623 0.80078 0.88867 0.80078h14.223c0.49244 0 0.88867-0.35758 0.88867-0.80078v-14.398c0-0.4432-0.39623-0.80078-0.88867-0.80078h-14.223zm7.1113 3c0.0797 0 0.15778 0.0401 0.20313 0.11914l2.7461 4.7871c0.9343 1.6294 0.37159 3.7083-1.2578 4.6426-1.6294 0.9343-3.7083 0.37158-4.6426-1.2578-0.62151-1.0839-0.57695-2.3725 0-3.3848l2.7461-4.7871c0.0453-0.0791 0.12538-0.11914 0.20508-0.11914z" fill="currentColor"/>
</svg>
