<svg version="1.1" viewBox="0 0 22 22" xmlns="http://www.w3.org/2000/svg">
<defs>
<style id="current-color-scheme" type="text/css">.ColorScheme-Text {
        color:#4d4d4d
      }</style>
</defs>
<path class="ColorScheme-Text" d="m3.5865 4.957c-0.31396 0-0.56598 0.2535-0.56598 0.56746v4.9704h0.94672v-0.96732h0.96877v-1.9361h0.96729v0.96732h0.9673v0.96879h0.96877v2.902h-0.96877v0.96879h-0.9673v0.96732h-0.96729v-1.9361h-0.96877v-0.96732h-0.94672v4.9704c0 0.31397 0.25202 0.56746 0.56598 0.56746h14.827c0.31396 0 0.56597-0.25349 0.56597-0.56746v-4.9704h-0.94671v0.96732h-0.96877v0.96879h-0.9673v0.96732h-0.9673v-0.96732h-0.96877v-0.96879h-0.96729v-2.902h0.96729v-0.96879h0.96877v-0.96732h0.9673v0.96732h0.9673v0.96879h0.96877v0.96732h0.94671v-4.9704c0-0.31396-0.25202-0.56746-0.56597-0.56746h-14.827zm15.393 5.5378v0.96732h0.02055v-0.96732h-0.02055zm-15.959 0.96732v-0.96732h-0.020548v0.96732h0.020548zm7.8222-3.3989 0.19846 2.3183 1.6964-1.5921c0.34759 0.36953 0.22572 0.65412-0.30724 1.1555l-1.3245 1.2422 0.07792 0.86148c0.22946-3e-3 0.44275 0.02853 0.6086 0.13965 0.25428 0.17046 0.39261 0.45037 0.41602 0.7277 0.02341 0.2773-0.06751 0.56995-0.2896 0.78062-0.4099 0.37195-1.0856 0.22429-1.276-0.52335l-0.12349-1.4304-1.0467 0.98202c-0.64119 0.42902-1.2431 0.08754-1.2995-0.46308-0.024462-0.30515 0.10306-0.58408 0.30577-0.77474 0.20272-0.19068 0.49367-0.30625 0.79677-0.26315 0.19765 0.02815 0.37657 0.14727 0.54539 0.30284l0.6336-0.58951-0.15582-1.8082c-0.06157-0.72915 0.03839-1.0232 0.54392-1.0658zm-1.6714 3.587c-0.13143-0.03244-0.27783 0.0045-0.39544 0.10291-0.18814 0.15721-0.23163 0.4217-0.085262 0.59686 0.14633 0.17522 0.4277 0.18979 0.61595 0.03236 0.18812-0.1572 0.21546-0.42609 0.069095-0.60127-0.054869-0.06571-0.12545-0.11156-0.20433-0.13084zm2.1742 0.885c-0.22595 0.03252-0.38628 0.2513-0.35134 0.49395 0.03485 0.24291 0.25477 0.4192 0.48071 0.38663 0.22594-0.03252 0.3701-0.25718 0.33517-0.49983-0.02619-0.1821-0.15148-0.32612-0.30725-0.37193-0.05186-0.0152-0.10081-0.01694-0.15729-0.0088z" color="#4d4d4d" fill="currentColor"/>
</svg>
