<svg viewBox="0 0 22 22" xmlns="http://www.w3.org/2000/svg">
<defs>
<style id="current-color-scheme" type="text/css">.ColorScheme-Text {
        color:#363636
      }</style>
</defs>
<path class="ColorScheme-Text" d="m8.9394 3.0001c-4.2825 0-7.7656 2.9222-7.7656 6.5137 0 1.9477 1.0112 3.76 2.7832 5 0.16803 1.0151-0.41374 2.0767-0.41992 2.0879-0.13303 0.23473-0.12396 0.52339 0.0254 0.75 0.13361 0.20258 0.35914 0.32227 0.60156 0.32227 0.0259 0 0.0519-1e-3 0.0781-4e-3 0.75472-0.0838 1.9716-0.65719 3.6211-1.7051 0.35524 0.0412 0.7161 0.0625 1.0762 0.0625 1.3513 0 2.6224-0.29162 3.7305-0.80274 0.31362 1.6417 2.0003 2.9043 4.0449 2.9043 0.19058 0 0.38229-0.0114 0.57031-0.0332 0.87306 0.55463 1.5185 0.85797 1.918 0.90234 0.0139 2e-3 0.0273 2e-3 0.041 2e-3 0.1283 0 0.24764-0.0647 0.31836-0.17187 0.0791-0.11994 0.0841-0.27225 0.0137-0.39648-3e-3 -6e-3 -0.3116-0.56823-0.22266-1.1055 0.93786-0.65632 1.4727-1.6156 1.4727-2.6465 0-1.9009-1.8447-3.4473-4.1113-3.4473-0.10249 0-0.19821 0.0192-0.29883 0.0254 0.18474-0.55597 0.29102-1.1395 0.29102-1.7441-1e-5 -3.5915-3.485-6.5137-7.7676-6.5137zm-0.75195 3.9394h0.9707v1.9414h1.9434v0.9707h-1.9434v1.9414h-0.9707v-1.9414h-1.9414v-0.9707h1.9414v-1.9414z" fill="#363636"/>
</svg>
