<svg viewBox="0 0 22 22" xmlns="http://www.w3.org/2000/svg">
<defs>
<style id="current-color-scheme" type="text/css">.ColorScheme-Text {
        color:#4d4d4d
      }</style>
</defs>
<path class="ColorScheme-Text" d="m11 3c-4.432 0-8 3.568-8 8s3.568 8 8 8 8-3.568 8-8-3.568-8-8-8zm0 4c0.40658 0 0.79101 0.077694 1.1602 0.18945 0.25606-0.11867 0.53808-0.18945 0.83984-0.18945 1.108 0 2 0.892 2 2 0 0.30176-0.070785 0.58378-0.18945 0.83984 0.11176 0.36915 0.18945 0.75358 0.18945 1.1602 0 2.216-1.784 4-4 4s-4-1.784-4-4 1.784-4 4-4zm0 1c-1.662 0-3 1.338-3 3s1.338 3 3 3 3-1.338 3-3c0-0.089707-0.023129-0.17241-0.03125-0.25977-0.28809 0.1604-0.61434 0.25977-0.96875 0.25977-1.108 0-2-0.892-2-2 0-0.35441 0.099363-0.68066 0.25977-0.96875-0.087354-0.008122-0.17006-0.03125-0.25977-0.03125zm2 0c-0.13978 0-0.27243 0.028333-0.39258 0.080078s-0.2278 0.1269-0.31836 0.21875c-0.17782 0.18035-0.28906 0.42672-0.28906 0.70117 0 0.554 0.446 1 1 1 0.27445 0 0.52083-0.11124 0.70117-0.28906 0.09185-0.090565 0.167-0.19821 0.21875-0.31836s0.080078-0.2528 0.080078-0.39258c0-0.554-0.446-1-1-1z" fill="currentColor"/>
</svg>
