<svg version="1.1" viewBox="0 0 22 22" xmlns="http://www.w3.org/2000/svg">
<defs>
<style id="current-color-scheme" type="text/css">.ColorScheme-Text {
        color:#4d4d4d
      }
      .ColorScheme-NegativeText {
        color:#da4453;
      }</style>
</defs>
<path class="ColorScheme-Text" d="m3.2877 4.201c-0.15971 0-0.28772 0.13557-0.28772 0.3047v12.458l16 0.03592v-10.691c0-0.16914-0.12949-0.30626-0.2892-0.30626h-8.6728c-0.29382 0.02752-0.33138-0.01352-0.47658-0.21876-0.20591-0.29182-0.51732-1.0779-0.72003-1.3626-0.1627-0.24923-0.18902-0.22032-0.45887-0.22032h-5.0948zm7.7123 4.1721c0.39762 0 0.78397 0.08058 1.1597 0.24063 0.3758 0.16004 0.71043 0.38528 1.0018 0.67659l0.53118-0.55784c0.05184-0.05472 0.11216-0.08126 0.18295-0.08126 0.0708 0 0.13274 0.02648 0.18443 0.08126 0.05184 0.0548 0.07672 0.12034 0.07672 0.19532v1.9376c0 0.07496-0.02496 0.14052-0.07672 0.19532s-0.11363 0.08125-0.18443 0.08125h-1.8296c-0.0708 0-0.13264-0.02648-0.18443-0.08125-0.05168-0.0548-0.07672-0.12034-0.07672-0.19532 0-0.07496 0.02512-0.13896 0.07672-0.19376l0.56363-0.59846c-0.40307-0.39512-0.87787-0.59222-1.4253-0.59222-0.36492 0-0.7051 0.09382-1.021 0.28126-0.31594 0.1875-0.56923 0.44625-0.75987 0.77503-0.03 0.04904-0.10252 0.21789-0.2169 0.50628-0.02184 0.06632-0.06256 0.09843-0.12246 0.09843h-0.81298c-0.03544 0-0.0656-0.0132-0.091472-0.04064-0.02584-0.02736-0.0384-0.05936-0.0384-0.09687v-0.03128c0.17704-0.77299 0.54386-1.3996 1.1022-1.8798 0.55832-0.48024 1.212-0.72034 1.9609-0.72034zm-2.8757 3.8767h1.8296c0.0708 0 0.13268 0.02792 0.18443 0.08282 0.05176 0.05472 0.07672 0.11877 0.07672 0.19375 0 0.07496-0.02504 0.14057-0.07672 0.19532l-0.55921 0.59222c0.19334 0.19036 0.4115 0.33834 0.65658 0.4422 0.24509 0.10387 0.50015 0.1547 0.7643 0.1547 0.36492 0 0.70509-0.09377 1.021-0.28126 0.31588-0.18745 0.56918-0.44478 0.75987-0.77347 0.02992-0.04904 0.10258-0.21783 0.21689-0.50626 0.02176-0.0664 0.06264-0.10001 0.12246-0.10001h0.78347c0.03544 0 0.06704 0.01336 0.09296 0.04064 0.02584 0.02744 0.0384 0.06096 0.0384 0.09845 0 0.0144-0.0016 0.02392-0.0048 0.02968-0.17434 0.77292-0.53924 1.3996-1.0948 1.8798-0.55555 0.48023-1.2058 0.72034-1.952 0.72034-0.39762 0-0.78208-0.0788-1.1538-0.23752-0.37174-0.1586-0.70305-0.38554-0.99446-0.67971l-0.52822 0.55784c-0.05176 0.05472-0.11216 0.08281-0.18296 0.08281s-0.13264-0.02808-0.18443-0.08281c-0.05176-0.05472-0.07672-0.11884-0.07672-0.19376v-1.9391c0-0.07496 0.02504-0.13902 0.07672-0.19376 0.05176-0.05488 0.11358-0.08282 0.18443-0.08282z" color="#4d4d4d" fill="currentColor"/>
<path d="m11 8.3725c-0.74896 0-1.4026 0.2401-1.9609 0.72031-0.55833 0.48016-0.92608 1.1067-1.1031 1.8797v0.03128c0 0.03752 0.0132 0.06952 0.03904 0.09687 0.02584 0.02744 0.0568 0.04064 0.092184 0.04064h0.8125c0.05992 0 0.10006-0.03216 0.12187-0.09843 0.11438-0.28838 0.18721-0.45719 0.21719-0.50625 0.19063-0.32878 0.44343-0.58751 0.75938-0.775 0.31594-0.18744 0.65694-0.28126 1.0219-0.28126 0.54745 0 1.0219 0.19709 1.425 0.59219l-0.5625 0.59843c-0.05168 0.0548-0.07816 0.11878-0.07816 0.19375 0 0.07496 0.02648 0.14052 0.07816 0.19531 0.05184 0.0548 0.11202 0.08125 0.18282 0.08125h1.8312c0.0708 0 0.13107-0.02648 0.18282-0.08125 0.05168-0.0548 0.07816-0.12034 0.07816-0.19531v-1.9375c0-0.07496-0.02624-0.14052-0.07816-0.19531-0.05168-0.05472-0.11202-0.08126-0.18282-0.08126s-0.13258 0.02648-0.18438 0.08126l-0.53125 0.55781c-0.29142-0.2913-0.62419-0.51653-1-0.67656-0.37574-0.16009-0.76329-0.24067-1.1609-0.24067zm-2.8766 3.8766c-0.07088 0-0.13107 0.02792-0.18282 0.08282-0.05176 0.05472-0.07816 0.11878-0.07816 0.19374v1.9391c0 0.07496 0.0264 0.13901 0.07816 0.19375 0.05184 0.05472 0.11202 0.08281 0.18282 0.08281s0.13262-0.02808 0.18438-0.08281l0.52656-0.55782c0.29142 0.29416 0.62356 0.52109 0.99531 0.67969 0.37174 0.15866 0.75706 0.2375 1.1547 0.2375 0.74626 0 1.396-0.2401 1.9516-0.72031 0.55557-0.48017 0.92098-1.1068 1.0953-1.8797 0.0024-0.0056 0.0048-0.01528 0.0048-0.02968 0-0.03752-0.0132-0.07096-0.03904-0.09844-0.02592-0.02728-0.0568-0.04064-0.09218-0.04064h-0.78438c-0.05984 0-0.10168 0.0336-0.12344 0.1-0.11432 0.28843-0.18569 0.45719-0.21562 0.50625-0.19069 0.32868-0.44348 0.58601-0.75938 0.77344-0.31597 0.18749-0.65698 0.28125-1.0219 0.28125-0.26414 0-0.51897-0.0508-0.76406-0.15469-0.24509-0.10386-0.46447-0.25184-0.65781-0.44219l0.55937-0.59219c0.05176-0.05472 0.07816-0.12039 0.07816-0.19531 0-0.07496-0.0264-0.139-0.07816-0.19374-0.05176-0.05488-0.11201-0.08282-0.18281-0.08282h-1.8312z" fill="#2ecc71"/>
</svg>
