<svg viewBox="0 0 22 22" xmlns="http://www.w3.org/2000/svg">
<defs>
<style id="current-color-scheme" type="text/css">.ColorScheme-Highlight {
        color:#3daee9;
      }</style>
</defs>
<path class="ColorScheme-Highlight" d="m11 3c-4.4183 0-8 3.5817-8 8s3.5817 8 8 8 8-3.5817 8-8-3.5817-8-8-8zm0.10938 3.4277s-0.10965 0.0013951 0.39258 0.021484c2.3625 0.20378 4.1781 2.1795 4.1797 4.5508 0 2.5247-2.0475 4.5723-4.5723 4.5723-2.5247 0-4.5723-2.0475-4.5723-4.5723 0-2.5247 2.0475-4.5723 4.5723-4.5723zm0 1.1445c-1.8935 1e-7 -3.4277 1.5342-3.4277 3.4277s1.5342 3.4277 3.4277 3.4277 3.4277-1.5342 3.4277-3.4277-1.5342-3.4277-3.4277-3.4277zm0 1.1426c0.23407-2e-7 0.45565 0.04459 0.66797 0.10938-0.39282 0.18044-0.66797 0.57113-0.66797 1.0332 0 0.63314 0.50944 1.1426 1.1426 1.1426 0.46208 0 0.85276-0.27515 1.0332-0.66797 0.064777 0.21232 0.10938 0.4339 0.10938 0.66797 0 1.2663-1.0189 2.2852-2.2852 2.2852s-2.2852-1.0189-2.2852-2.2852 1.0189-2.2852 2.2852-2.2852z" fill="currentColor"/>
</svg>
