<svg viewBox="0 0 22 22" xmlns="http://www.w3.org/2000/svg">
<defs>
<style id="current-color-scheme" type="text/css">.ColorScheme-Text {
        color:#4d4d4d
      }</style>
</defs>
<path class="ColorScheme-Text" d="m18.936 4.2917c-0.87372-0.86128-2.081-1.2917-3.6222-1.2917-0.42645 0-0.86166 0.0752-1.3054 0.22384-0.44384 0.1488-0.8566 0.35088-1.2382 0.60416-0.38189 0.25344-0.71017 0.49136-0.98555 0.7136-0.27512 0.22224-0.53653 0.4584-0.78416 0.70832-0.24774-0.24992-0.50917-0.48608-0.78427-0.70832-0.27525-0.22224-0.60368-0.46-0.98557-0.7136-0.38187-0.25344-0.79465-0.45488-1.2384-0.60416-0.44368-0.1488-0.87889-0.22384-1.3054-0.22384-1.5411 0-2.7484 0.43056-3.6221 1.2917-0.87369 0.86112-1.3105 2.0555-1.3105 3.5832 0 0.46528 0.08096 0.94464 0.24256 1.4374 0.16162 0.49296 0.34577 0.91328 0.55211 1.2605 0.20632 0.3472 0.44027 0.68576 0.70169 1.0157s0.45243 0.55712 0.57275 0.68224c0.12032 0.1248 0.21496 0.2152 0.28373 0.27072l6.4393 6.2709c0.12384 0.1248 0.27525 0.18768 0.4541 0.18768 0.17883 0 0.33021-0.0624 0.45408-0.18752l6.429-6.2502c1.5754-1.5901 2.3631-3.1526 2.3631-4.6874 0-1.5277-0.43699-2.7222-1.3107-3.5832z" fill="currentColor"/>
</svg>
