<svg viewBox="0 0 22 22" xmlns="http://www.w3.org/2000/svg">
<defs>
<style id="current-color-scheme" type="text/css">.ColorScheme-Text {
        color:#4d4d4d
      }</style>
</defs>
<path class="ColorScheme-Text" d="m11 3.5c1.3761 0 2.5001 1.124 2.5001 2.5s-1.1241 2.5-2.5001 2.5c-1.3761 0-2.5001-1.124-2.5001-2.5s1.124-2.5 2.5001-2.5zm6.471 5c0.3917-1e-3 0.7849 0.15202 1.0821 0.46094 0.29726 0.3089 0.44629 0.71876 0.44729 1.1289 1e-3 0.41016-0.14437 0.81965-0.43948 1.1309l-6.4535 6.8066c-0.29505 0.31102-0.68841 0.47166-1.0782 0.47266-0.39007 1e-3 -0.78495-0.15602-1.0821-0.46484l-6.4984-6.7559c-0.59483-0.61787-0.59827-1.6395-8e-3 -2.2617 0.59013-0.62215 1.564-0.62563 2.1583-8e-3l5.4163 5.6309 5.3772-5.6719c0.29512-0.31105 0.68649-0.46728 1.0782-0.46875z" fill="currentColor"/>
</svg>
