<svg width="22" height="22" version="1.1" xmlns="http://www.w3.org/2000/svg">
<path d="m18.027 3.9643-14.314 6.0712 4.6377 2.3162c2.0817-1.9333 7.0867-5.7903 8.73-7.4335-1.6433 1.6433-5.5055 6.6509-7.4362 8.7326l2.3215 4.6456 6.0633-14.332z" fill-opacity=".08" stroke-width="1.3492"/>
<path d="m20.422 1.5453-19.752 8.4795 7.5337 3.7641 3.7641 7.5296 0.0094 0.0081 0.0054 0.0054 8.466-19.781-0.0054-0.0027h-0.0135c-0.0016-0.0013-0.0034-0.00222-0.0054-0.0027zm-2.3921 2.419-6.0631 14.332-2.3206-4.6451c1.9306-2.0817 5.7919-7.0898 7.4352-8.7331-1.6433 1.6433-6.6473 5.5005-8.729 7.4339l-4.6398-2.3165 14.316-6.0712z" fill-opacity=".57983" overflow="visible" stroke-width="1.3492"/>
</svg>
