<svg viewBox="0 0 22 22" xmlns="http://www.w3.org/2000/svg">
<defs>
<style id="current-color-scheme" type="text/css">.ColorScheme-Text {
        color:#363636
      }</style>
</defs>
<path class="ColorScheme-Text" d="m18.172 13.622h-14.344c-0.29562 0-0.5692-0.16325-0.71694-0.42903-0.14811-0.26511-0.14811-0.59272 0-0.85801l7.1718-8.9055c0.14773-0.26547 0.42128-0.42912 0.7169-0.42912 0.29567 0 0.56938 0.16365 0.71707 0.42912l7.1724 8.9055c0.0737 0.13275 0.11072 0.28062 0.11072 0.4292 0 0.14814-0.0371 0.29596-0.11072 0.4293-0.14819 0.26524-0.42178 0.42849-0.71736 0.42849zm0.81971 5.0353v-2.8314c0-0.18947-0.14842-0.3432-0.33153-0.3432h-15.321c-0.1829 0-0.33119 0.15373-0.33119 0.3432v2.8314c0 0.18951 0.14829 0.34311 0.33119 0.34311h15.321c0.18311 2.7e-4 0.33153-0.1536 0.33153-0.34311z" fill="#363636"/>
</svg>
