<svg viewBox="0 0 22 22" xmlns="http://www.w3.org/2000/svg">
<defs>
<style id="current-color-scheme" type="text/css">.ColorScheme-Text {
        color:#363636
      }</style>
</defs>
<path class="ColorScheme-Text" d="m3.8887 3c-0.49244 0-0.88867 0.35758-0.88867 0.80078v14.398c0 0.4432 0.39623 0.80078 0.88867 0.80078h14.223c0.49244 0 0.88867-0.35758 0.88867-0.80078v-14.398c0-0.4432-0.39623-0.80078-0.88867-0.80078h-14.223zm9.9629 3.5c0.19284 0.034 0.33594 0.21514 0.33594 0.45703l-0.0156 6.2891c-0.0636 0.46938-0.46283 0.91496-1.041 1.0723-0.72472 0.19717-1.4384-0.13202-1.5938-0.7207-0.15535-0.58869 0.2987-1.2247 1.0234-1.4219 0.40161-0.10921 0.78823-0.0442 1.0898 0.1211v-3.8125l-3.7578 1.0547-0.0176 4.832c-0.0636 0.46931-0.46088 0.91503-1.0391 1.0723-0.72473 0.19717-1.4384-0.13209-1.5938-0.7207-0.15536-0.58876 0.2987-1.2267 1.0234-1.4238 0.40163-0.10922 0.78821-0.0423 1.0898 0.12305v-5.1113c0-0.32251 0.23966-0.65479 0.53711-0.73828l3.959-1.0723zm0.21485 9.166h4v2 0.5h-1.5v0.5l-1.5-0.75 1.5-0.75v0.5h1v-1.5h-3v2h-0.5v-2.5z" fill="#363636"/>
</svg>
