<svg viewBox="0 0 22 22" xmlns="http://www.w3.org/2000/svg">
<defs>
<style id="current-color-scheme" type="text/css">.ColorScheme-Text {
        color:#4d4d4d
      }</style>
</defs>
<path class="ColorScheme-Text" d="m4.0117 3c-0.56096 0-1.0117 0.45076-1.0117 1.0117v13.977c0 0.56096 0.45076 1.0117 1.0117 1.0117h13.977c0.56096 0 1.0117-0.45076 1.0117-1.0117v-13.977c0-0.56096-0.45076-1.0117-1.0117-1.0117h-13.977zm9.8926 3.3008c0.21426 0.037806 0.37109 0.23709 0.37109 0.50586l-0.017579 6.9902c-0.070631 0.52153-0.51382 1.0147-1.1562 1.1895-0.80525 0.21908-1.5989-0.14473-1.7715-0.79883-0.17262-0.65409 0.33341-1.363 1.1387-1.582 0.44623-0.12135 0.87581-0.046988 1.2109 0.13672v-4.2363l-4.1758 1.1719-0.019531 5.3672c-0.070606 0.52146-0.51382 1.0167-1.1562 1.1914-0.80526 0.21908-1.5969-0.14676-1.7695-0.80078-0.17262-0.65417 0.33146-1.361 1.1367-1.5801 0.44625-0.12135 0.87578-0.046988 1.2109 0.13672v-5.6816c0-0.35834 0.26716-0.72754 0.59766-0.82031l4.4004-1.1895z" fill="currentColor"/>
</svg>
