<svg viewBox="0 0 22 22" xmlns="http://www.w3.org/2000/svg">
<defs>
<style id="current-color-scheme" type="text/css">.ColorScheme-Text {
        color:#4d4d4d
      }</style>
</defs>
<path class="ColorScheme-Text" d="m9.334 3c-0.27783 0-0.51452 0.096548-0.70898 0.29102-0.19447 0.19434-0.29102 0.43116-0.29102 0.70898v3.334c0 0.27783 0.096548 0.51256 0.29102 0.70703 0.19434 0.19447 0.43116 0.29297 0.70898 0.29297h1v2h-5.334c-0.36119 0-0.67361 0.13064-0.9375 0.39453-0.26389 0.26376-0.39648 0.57644-0.39648 0.9375v2h-1c-0.2777 0-0.51256 0.098629-0.70703 0.29297-0.19447 0.19434-0.29297 0.4292-0.29297 0.70703v3.334c0 0.27783 0.098502 0.51464 0.29297 0.70898 0.19447 0.19447 0.42933 0.29102 0.70703 0.29102h3.334c0.2777 0 0.51452-0.096676 0.70898-0.29102 0.19447-0.19434 0.29102-0.43116 0.29102-0.70898v-3.334c0-0.27783-0.096548-0.51256-0.29102-0.70703s-0.43128-0.29297-0.70898-0.29297h-1v-2h5.334v2h-1c-0.27783 0-0.51452 0.098629-0.70898 0.29297-0.19447 0.19434-0.29102 0.4292-0.29102 0.70703v3.334c0 0.27783 0.096548 0.51464 0.29102 0.70898 0.19434 0.19447 0.43116 0.29102 0.70898 0.29102h3.332c0.27796 0 0.51452-0.096676 0.70898-0.29102 0.19434-0.19447 0.29102-0.43116 0.29102-0.70898v-3.334c0-0.27783-0.096549-0.51256-0.29102-0.70703s-0.43103-0.29297-0.70898-0.29297h-1v-2h5.334v2h-1c-0.2777 0-0.51452 0.098629-0.70898 0.29297-0.19434 0.19447-0.29102 0.4292-0.29102 0.70703v3.334c0 0.27783 0.096676 0.51464 0.29102 0.70898 0.19447 0.19447 0.43128 0.29102 0.70898 0.29102h3.334c0.2777 0 0.51256-0.096676 0.70703-0.29102 0.19447-0.19434 0.29297-0.43116 0.29297-0.70898v-3.334c0-0.27783-0.096804-0.51269-0.29102-0.70703-0.19447-0.19447-0.43103-0.29297-0.70898-0.29297h-1v-2c0-0.36106-0.13272-0.67374-0.39648-0.9375-0.26389-0.26402-0.57644-0.39453-0.9375-0.39453h-5.334v-2h1c0.27796 0 0.51464-0.098502 0.70898-0.29297 0.19447-0.19434 0.29102-0.4292 0.29102-0.70703v-3.334c0-0.27783-0.096677-0.51465-0.29102-0.70898-0.19447-0.19447-0.43103-0.29102-0.70898-0.29102h-3.332z" fill="currentColor"/>
</svg>
