<svg viewBox="0 0 22 22" xmlns="http://www.w3.org/2000/svg">
<defs>
<style id="current-color-scheme" type="text/css">.ColorScheme-Text {
        color:#363636
      }</style>
</defs>
<path class="ColorScheme-Text" d="m4.523 3c1.3304 0 2.6112 0.17214 3.8424 0.51641 1.2312 0.34428 2.3837 0.83151 3.4573 1.4617 1.0737 0.6302 2.0511 1.3858 2.9323 2.267 0.88108 0.88111 1.6367 1.8585 2.267 2.9322 0.63011 1.0738 1.1173 2.2262 1.4617 3.4574 0.34431 1.2312 0.51644 2.5119 0.51644 3.8424 0 0.42013-0.14876 0.77888-0.44636 1.0766-0.29759 0.29768-0.65642 0.44633-1.0766 0.44633-0.42015 0-0.77899-0.14872-1.0767-0.44633-0.29753-0.29759-0.44633-0.65643-0.44633-1.0766 0-1.0504-0.13715-2.0628-0.41141-3.0373-0.27425-0.97436-0.65945-1.8847-1.1554-2.7308-0.49599-0.84613-1.0911-1.6164-1.7856-2.3108-0.69441-0.69438-1.4646-1.2896-2.3107-1.7856-0.8461-0.49599-1.7564-0.88112-2.7309-1.1554-0.97447-0.27426-1.9869-0.41138-3.0372-0.41138-0.42013 0-0.77899-0.14879-1.0766-0.44639-0.29759-0.29759-0.44639-0.65645-0.44639-1.0766s0.1488-0.779 0.44639-1.0766c0.29756-0.29756 0.65642-0.44636 1.0766-0.44636zm0 5.7593c1.202 0 2.3311 0.23049 3.3873 0.69147 1.0562 0.46097 1.9781 1.0853 2.7659 1.8731 0.78777 0.78778 1.4121 1.7097 1.8731 2.7658 0.46101 1.0563 0.69147 2.1853 0.69147 3.3874 0 0.42013-0.14877 0.77888-0.44633 1.0766-0.2976 0.29759-0.65643 0.44633-1.0767 0.44633-0.42014 0-0.77897-0.14872-1.0766-0.44633-0.2976-0.29759-0.44639-0.65643-0.44639-1.0766 0-0.78197-0.1488-1.5172-0.44639-2.2057-0.29759-0.68855-0.70314-1.2896-1.2166-1.803-0.5135-0.51352-1.1145-0.91907-1.8031-1.2167-0.68854-0.29753-1.4238-0.44633-2.2057-0.44633-0.42014 0-0.779-0.14877-1.0766-0.44636-0.29759-0.29762-0.44639-0.65649-0.44639-1.0766s0.1488-0.77899 0.44639-1.0766c0.29759-0.29765 0.65645-0.44645 1.0766-0.44645zm2.8009 8c0 0.30346-0.0554 0.58352-0.1663 0.84029-0.11087 0.25684-0.26258 0.4814-0.45514 0.67399-0.19256 0.19248-0.42013 0.34425-0.68272 0.45514-0.26258 0.11084-0.53975 0.16622-0.83151 0.16622-0.30342 0-0.58351-0.0554-0.84026-0.16622-0.25675-0.11084-0.4814-0.26269-0.67396-0.45514-0.19256-0.19256-0.34427-0.41721-0.45514-0.67399-0.11087-0.25677-0.1663-0.53683-0.1663-0.84029 0-0.29167 0.0554-0.5689 0.1663-0.83139 0.11087-0.2627 0.26258-0.49024 0.45514-0.68275 0.19256-0.19256 0.41721-0.34424 0.67396-0.45515 0.25675-0.11084 0.53684-0.16629 0.84026-0.16629 0.29176 0 0.56893 0.0555 0.83151 0.16629 0.26259 0.11091 0.49016 0.26258 0.68272 0.45515 0.19256 0.1925 0.34427 0.42012 0.45514 0.68275 0.11087 0.26252 0.1663 0.53966 0.1663 0.83139z" fill="#363636"/>
</svg>
