<svg viewBox="0 0 22 22" xmlns="http://www.w3.org/2000/svg">
<defs>
<style id="current-color-scheme" type="text/css">.ColorScheme-Text {
        color:#4d4d4d
      }</style>
</defs>
<path class="ColorScheme-Text" d="m11.74 4.5c-0.20518 0-0.36914 0.16259-0.36914 0.36606v0.88126c0 0.20347 0.16396 0.368 0.36914 0.368h8.8887c0.20518 0 0.3711-0.16453 0.3711-0.368v-0.88126c0-0.20347-0.16591-0.36606-0.3711-0.36606h-8.8887zm0 4.0034c-0.20518 0-0.36914 0.16258-0.36914 0.36606v0.88126c0 0.20347 0.16396 0.36799 0.36914 0.36799h8.8887c0.20518 0 0.3711-0.16452 0.3711-0.36799v-0.88126c0-0.20348-0.16591-0.36606-0.3711-0.36606h-8.8887zm-2.0781 0.30796c-0.1593 5.4e-4 -0.31833 0.06111-0.43945 0.18206l-3.3691 3.3662-3.3945-3.343c-0.2439-0.24035-0.6387-0.238-0.88086 0.0038-0.24259 0.24186-0.24022 0.63327 0.0037 0.87351l3.8359 3.7768c0.12196 0.12008 0.28013 0.17876 0.43945 0.17819 0.15925-5.77e-4 0.31832-0.06111 0.43945-0.18207l3.8086-3.804c0.24247-0.24198 0.24206-0.63338-0.0022-0.87351-0.12198-0.12017-0.28213-0.17873-0.44143-0.17819zm2.0781 3.4011c-0.20518 0-0.36914 0.16258-0.36914 0.36606v0.88319c0 0.20347 0.16396 0.36606 0.36914 0.36606h8.8887c0.20518 0 0.3711-0.16258 0.3711-0.36606v-0.88319c0-0.20347-0.16591-0.36606-0.3711-0.36606h-8.8887zm-10.369 3.6722c-0.20519 0-0.3711 0.16452-0.3711 0.36799v0.88126c0 0.20347 0.16591 0.36606 0.3711 0.36606h19.258c0.20518 0 0.3711-0.16258 0.3711-0.36606v-0.88126c0-0.20348-0.16591-0.36799-0.3711-0.36799h-19.258z" fill="currentColor"/>
</svg>
