<svg viewBox="0 0 22 22" xmlns="http://www.w3.org/2000/svg">
<defs>
<style id="current-color-scheme" type="text/css">.ColorScheme-Text {
        color:#4d4d4d
      }</style>
</defs>
<path class="ColorScheme-Text" d="m11 3c-1.0833 0-2.1174 0.21105-3.1035 0.63477-0.98628 0.42371-1.8374 0.99375-2.5527 1.709-0.71523 0.71523-1.2855 1.5666-1.709 2.5527-0.42359 0.98616-0.63477 2.0201-0.63477 3.1035 0 1.0832 0.21118 2.1174 0.63477 3.1035 0.42371 0.98615 0.99375 1.8372 1.709 2.5527 0.71549 0.7151 1.5666 1.2854 2.5527 1.709 0.98616 0.42359 2.0202 0.63477 3.1035 0.63477 1.1944 0 2.3298-0.25249 3.4062-0.75586s1.993-1.2122 2.75-2.1289c0.0486-0.0694 0.0718-0.14743 0.0684-0.23437-3e-3 -0.0868-0.0343-0.1591-0.0898-0.21484l-1.4258-1.4375c-0.0694-0.0625-0.15752-0.0937-0.26172-0.0937-0.11111 0.0139-0.1897 0.0556-0.23828 0.125-0.50695 0.65986-1.1292 1.1702-1.8652 1.5312-0.7362 0.36106-1.5173 0.54296-2.3438 0.54296-0.72213 0-1.4121-0.14059-2.0684-0.42187-0.65616-0.28116-1.2239-0.66142-1.7031-1.1406-0.47921-0.4792-0.85934-1.0468-1.1406-1.7031-0.28116-0.65629-0.42187-1.346-0.42187-2.0684s0.14071-1.4121 0.42187-2.0684c0.28129-0.65629 0.66142-1.224 1.1406-1.7031 0.4792-0.47921 1.0468-0.85934 1.7031-1.1406 0.65629-0.28116 1.3461-0.42187 2.0684-0.42187 0.68058 0 1.3339 0.12458 1.959 0.37109 0.62497 0.24664 1.1798 0.59827 1.666 1.0566l-1.4277 1.4375c-0.21532 0.20841-0.26255 0.44795-0.14454 0.71875 0.11802 0.27783 0.32152 0.41602 0.61329 0.41602h4.668c0.18054 0 0.33668-0.0653 0.46875-0.19727 0.13187-0.132 0.19719-0.28827 0.19719-0.4688v-4.666c0-0.29164-0.13818-0.49709-0.41602-0.61523-0.27092-0.11801-0.51034-0.0688-0.71875 0.14648l-1.3555 1.3438c-0.74311-0.70142-1.592-1.2454-2.5469-1.6308-0.95496-0.38549-1.9421-0.57813-2.9629-0.57813z" fill="currentColor"/>
</svg>
