<svg viewBox="0 0 22 22" xmlns="http://www.w3.org/2000/svg">
<defs>
<style id="current-color-scheme" type="text/css">.ColorScheme-Text {
        color:#363636;
      }
      .ColorScheme-Highlight {
        color:#3daee9;
      }</style>
</defs>
<path class="ColorScheme-Text" d="m13 3a6 6 0 0 0-5.9551 5.334h-4.0449v10.666h10.666v-4.041a6 6 0 0 0 5.334-5.959 6 6 0 0 0-6-6zm0 1.334a4.6667 4.6667 0 0 1 4.666 4.666 4.6667 4.6667 0 0 1-4.666 4.666 4.6667 4.6667 0 0 1-4.666-4.666 4.6667 4.6667 0 0 1 4.666-4.666zm-8.666 5.332h2.707a6 6 0 0 0 5.293 5.2891v2.7109h-8v-8z" fill="#363636"/>
<path class="ColorScheme-Text" d="m13 4.334a4.6667 4.6667 0 0 0-4.666 4.666 4.6667 4.6667 0 0 0 0.050781 0.66602h-4.0508v8h8v-4.0547a4.6667 4.6667 0 0 0 0.66602 0.054688 4.6667 4.6667 0 0 0 4.666-4.666 4.6667 4.6667 0 0 0-4.666-4.666z" fill="#363636" fill-opacity=".6" stroke="naone"/>
</svg>
