<svg viewBox="0 0 22 22" xmlns="http://www.w3.org/2000/svg">
<defs>
<style id="current-color-scheme" type="text/css">.ColorScheme-Text {
        color:#4d4d4d;
      }
      .ColorScheme-Highlight {
        color:#3daee9;
      }</style>
</defs>
<path class="ColorScheme-Text" d="m12.358 3a6.0157 6.0157 0 0 0-1.7389 0.46475l0.67363 1.1671a4.6789 4.6789 0 0 1 1.0653-0.2846v-1.3473zm1.3368 0.00261v1.3473a4.6789 4.6789 0 0 1 1.0653 0.28198l0.67102-1.1619a6.0157 6.0157 0 0 0-1.7363-0.46736zm-4.2324 1.1332a6.0157 6.0157 0 0 0-1.2742 1.2742l1.1671 0.67102a4.6789 4.6789 0 0 1 0.77546-0.78329l-0.66841-1.1619zm7.1279 0-0.67102 1.1671a4.6789 4.6789 0 0 1 0.78329 0.77546l1.1619-0.66841a6.0157 6.0157 0 0 0-1.2742-1.2742zm1.9452 2.4308-1.1671 0.67363a4.6789 4.6789 0 0 1 0.2846 1.0653h1.3473a6.0157 6.0157 0 0 0-0.46475-1.7389zm-11.013 0.0026068a6.0157 6.0157 0 0 0-0.46736 1.7363h-0.044386v1.3368h0.041775a6.0157 6.0157 0 0 0 5.3055 5.3029v0.04438h1.3368v-0.04177a6.0157 6.0157 0 0 0 1.7389-0.46475l-0.67363-1.1671a4.6789 4.6789 0 0 1-1.0653 0.28198v-5.2924h-5.2924a4.6789 4.6789 0 0 1 0.28198-1.0653l-1.1619-0.67102zm-4.5222 1.7363v2.6736h1.3368v-1.3368h1.3368v-1.3368h-2.6736zm5.3995 1.3368h3.9582v3.9556a4.6789 4.6789 0 0 1-3.9582-3.9556zm9.2507 0a4.6789 4.6789 0 0 1-0.28198 1.0653l1.1619 0.67102a6.0157 6.0157 0 0 0 0.46736-1.7363h-1.3473zm-0.953 2.2245a4.6789 4.6789 0 0 1-0.77546 0.78329l0.66841 1.1619a6.0157 6.0157 0 0 0 1.2742-1.2742l-1.1671-0.67102zm-13.697 0.44909v1.3368h1.3368v-1.3368h-1.3368zm0 2.6736v1.3368h1.3368v-1.3368h-1.3368zm9.3577 1.3368v1.3368h-1.3368v1.3368h2.6736v-2.6736h-1.3368zm-9.3577 1.3368v1.3368h1.3368v-1.3368h-1.3368zm2.6736 0v1.3368h1.3368v-1.3368h-1.3368zm2.6736 0v1.3368h1.3368v-1.3368h-1.3368z" fill="currentColor"/>
<path class="ColorScheme-Text" d="m12.358 9.6423-3.9556 0.028715a4.6789 4.6789 0 0 0 3.9556 3.9269v-3.9556z" fill="currentColor" fill-opacity=".6" stroke="naone"/>
</svg>
