<svg width="16" height="16" version="1.1" xmlns="http://www.w3.org/2000/svg">
<g transform="translate(-421.71 -531.79)">
<rect x="425.71" y="535.79" width="2" height="2" color="#000000" fill="#f47750"/>
<rect x="423.71" y="539.79" width="2" height="2" color="#000000" fill="#2ecc71"/>
<rect x="411.05" y="539.19" width="0" height="6.6" fill="#4d4d4d"/>
<rect x="423.07" y="537.96" width="0" height="6.6" fill="#4d4d4d"/>
<rect x="411.05" y="539.19" width="0" height="6.6" fill="#4d4d4d"/>
<rect x="411.05" y="539.19" width="0" height="6.6" fill="#4d4d4d"/>
<rect x="431.71" y="535.79" width="2" height="2" color="#000000" fill="#fdbc4b"/>
<rect x="423.71" y="535.79" width="2" height="2" color="#000000" fill="#1d99f3"/>
<rect x="429.71" y="535.79" width="2" height="2" color="#000000" fill="#da4453"/>
<rect x="427.71" y="535.79" width="2" height="2" color="#000000" fill="#2ecc71"/>
<rect x="427.71" y="537.79" width="2" height="2" color="#000000" fill="#fdbc4b"/>
<rect x="425.71" y="537.79" width="2" height="2" color="#000000" fill="#1d99f3"/>
<rect x="423.71" y="537.79" width="2" height="2" color="#000000" fill="#da4453"/>
<rect x="431.71" y="537.79" width="2" height="2" color="#000000" fill="#2ecc71"/>
<rect x="429.71" y="537.79" width="2" height="2" color="#000000" fill="#f47750"/>
<rect x="431.71" y="539.79" width="2" height="2" color="#000000" fill="#fdbc4b"/>
<rect x="429.71" y="539.79" width="2" height="2" color="#000000" fill="#1d99f3"/>
<rect x="427.71" y="539.79" width="2" height="2" color="#000000" fill="#da4453"/>
<rect x="425.71" y="539.79" width="2" height="2" color="#000000" fill="#f47750"/>
<rect x="429.71" y="541.79" width="2" height="2" color="#000000" fill="#fdbc4b"/>
<rect x="427.71" y="541.79" width="2" height="2" color="#000000" fill="#1d99f3"/>
<rect x="425.71" y="541.79" width="2" height="2" color="#000000" fill="#da4453"/>
<rect x="431.71" y="541.79" width="2" height="2" color="#000000" fill="#2ecc71"/>
<rect x="425.71" y="543.79" width="2" height="2" color="#000000" fill="#fdbc4b"/>
<rect x="423.71" y="543.79" width="2" height="2" color="#000000" fill="#1d99f3"/>
<rect x="433.71" y="537.79" width="2" height="2" color="#000000" fill="#da4453"/>
<rect x="433.71" y="539.79" width="2" height="2" color="#000000" fill="#1d99f3"/>
<rect x="423.71" y="541.79" width="2" height="2" color="#000000" fill="#f47750"/>
<rect x="433.71" y="535.79" width="2" height="2" color="#000000" fill="#2ecc71"/>
<rect x="423.71" y="533.79" width="2" height="2" color="#000000" fill="#fdbc4b"/>
<rect x="427.71" y="533.79" width="2" height="2" color="#000000" fill="#1d99f3"/>
<rect x="425.71" y="533.79" width="2" height="2" color="#000000" fill="#da4453"/>
<rect x="431.71" y="533.79" width="2" height="2" color="#000000" fill="#2ecc71"/>
<rect x="433.71" y="533.79" width="2" height="2" color="#000000" fill="#f47750"/>
<rect x="429.71" y="533.79" width="2" height="2" color="#000000" fill="#fdbc4b"/>
<rect x="433.71" y="541.79" width="2" height="2" color="#000000" fill="#da4453"/>
<rect x="431.71" y="543.79" width="2" height="2" color="#000000" fill="#fdbc4b"/>
<rect x="429.71" y="543.79" width="2" height="2" color="#000000" fill="#da4453"/>
<rect x="427.71" y="543.79" width="2" height="2" color="#000000" fill="#2ecc71"/>
<rect x="433.71" y="543.79" width="2" height="2" color="#000000" fill="#2ecc71"/>
</g>
</svg>
