<svg xmlns="http://www.w3.org/2000/svg" width="16" height="16" version="1.1">
<g>
<rect x="4" y="4" width="2" height="2" color="#000000" fill="#f47750" />
<rect x="2" y="8" width="2" height="2" color="#000000" fill="#2ecc71" />
<rect x="-10.66" y="7.4" width="0" height="6.6" fill="#363636" />
<rect x="1.36" y="6.17" width="0" height="6.6" fill="#363636" />
<rect x="-10.66" y="7.4" width="0" height="6.6" fill="#363636" />
<rect x="-10.66" y="7.4" width="0" height="6.6" fill="#363636" />
<rect x="10" y="4" width="2" height="2" color="#000000" fill="#fdbc4b" />
<rect x="2" y="4" width="2" height="2" color="#000000" fill="#1d99f3" />
<rect x="8" y="4" width="2" height="2" color="#000000" fill="#da4453" />
<rect x="6" y="4" width="2" height="2" color="#000000" fill="#2ecc71" />
<rect x="6" y="6" width="2" height="2" color="#000000" fill="#fdbc4b" />
<rect x="4" y="6" width="2" height="2" color="#000000" fill="#1d99f3" />
<rect x="2" y="6" width="2" height="2" color="#000000" fill="#da4453" />
<rect x="10" y="6" width="2" height="2" color="#000000" fill="#2ecc71" />
<rect x="8" y="6" width="2" height="2" color="#000000" fill="#f47750" />
<rect x="10" y="8" width="2" height="2" color="#000000" fill="#fdbc4b" />
<rect x="8" y="8" width="2" height="2" color="#000000" fill="#1d99f3" />
<rect x="6" y="8" width="2" height="2" color="#000000" fill="#da4453" />
<rect x="4" y="8" width="2" height="2" color="#000000" fill="#f47750" />
<rect x="8" y="10" width="2" height="2" color="#000000" fill="#fdbc4b" />
<rect x="6" y="10" width="2" height="2" color="#000000" fill="#1d99f3" />
<rect x="4" y="10" width="2" height="2" color="#000000" fill="#da4453" />
<rect x="10" y="10" width="2" height="2" color="#000000" fill="#2ecc71" />
<rect x="4" y="12" width="2" height="2" color="#000000" fill="#fdbc4b" />
<rect x="2" y="12" width="2" height="2" color="#000000" fill="#1d99f3" />
<rect x="12" y="6" width="2" height="2" color="#000000" fill="#da4453" />
<rect x="12" y="8" width="2" height="2" color="#000000" fill="#1d99f3" />
<rect x="2" y="10" width="2" height="2" color="#000000" fill="#f47750" />
<rect x="12" y="4" width="2" height="2" color="#000000" fill="#2ecc71" />
<rect x="2" y="2" width="2" height="2" color="#000000" fill="#fdbc4b" />
<rect x="6" y="2" width="2" height="2" color="#000000" fill="#1d99f3" />
<rect x="4" y="2" width="2" height="2" color="#000000" fill="#da4453" />
<rect x="10" y="2" width="2" height="2" color="#000000" fill="#2ecc71" />
<rect x="12" y="2" width="2" height="2" color="#000000" fill="#f47750" />
<rect x="8" y="2" width="2" height="2" color="#000000" fill="#fdbc4b" />
<rect x="12" y="10" width="2" height="2" color="#000000" fill="#da4453" />
<rect x="10" y="12" width="2" height="2" color="#000000" fill="#fdbc4b" />
<rect x="8" y="12" width="2" height="2" color="#000000" fill="#da4453" />
<rect x="6" y="12" width="2" height="2" color="#000000" fill="#2ecc71" />
<rect x="12" y="12" width="2" height="2" color="#000000" fill="#2ecc71" />
</g>
</svg>
