<svg viewBox="0 0 22 22" xmlns="http://www.w3.org/2000/svg">
<defs>
<style id="current-color-scheme" type="text/css">.ColorScheme-Text {
        color:#4d4d4d
      }</style>
</defs>
<path class="ColorScheme-Text" d="m8.4687 3c-1.9806 0-3.6738 1.3602-3.6738 3.9551 0 1.6941 0.77564 3.4141 1.8027 4.4766 0.40036 1.0637-0.31518 1.4587-0.46484 1.5137-1.3955 0.45711-5.1929 2.7358-5.1328 6.0547h20c0.0491-2.3779-2.1546-3.9218-3.8945-4.541-0.0727-0.0246-0.53133-0.24013-0.24414-1.1445h-4e-3c0.74862-0.79874 1.3203-2.0842 1.3203-3.3496 0-1.9457-1.2497-2.9648-2.7012-2.9648-1.4524 0-2.6934 1.0187-2.6934 2.9648 0 1.2706 0.56907 2.5625 1.3223 3.3594 0.2936 0.7978-0.23204 1.0936-0.34179 1.1348-0.047 0.0158-0.11398 0.0489-0.16797 0.0703-0.91387-0.71702-1.9573-1.2537-2.9062-1.584-0.0992-0.0328-0.72561-0.31954-0.33399-1.5254h-6e-3c1.0209-1.065 1.8028-2.7776 1.8028-4.4648 0-2.5943-1.7043-3.9551-3.6836-3.9551z" fill="currentColor"/>
</svg>
