<svg viewBox="0 0 22 22" xmlns="http://www.w3.org/2000/svg">
<defs>
<style id="current-color-scheme" type="text/css">.ColorScheme-Text {
        color:#363636
      }</style>
</defs>
<path class="ColorScheme-Text" d="m9.8438 3c-0.20137 0-0.32641 0.096547-0.375 0.29102-0.090266 0.34713-0.19163 0.99303-0.30273 1.9375-0.32642 0.10433-0.64169 0.23679-0.94727 0.39648l-1.4375-1.1152c-0.090266-0.069426-0.18122-0.10352-0.27148-0.10352-0.15279 0-0.48088 0.24755-0.98438 0.74414-0.5035 0.49659-0.84473 0.87114-1.0254 1.1211-0.062522 0.090266-0.09375 0.16886-0.09375 0.23828 0 0.083362 0.03409 0.16677 0.10352 0.25 0.46527 0.56257 0.8374 1.0415 1.1152 1.4375-0.17363 0.31938-0.30908 0.6396-0.40625 0.95898l-1.9375 0.29102c-0.07633 0.013936-0.14165 0.060261-0.19727 0.13672-0.055617 0.07633-0.083984 0.15505-0.083984 0.23828v2.3125c0 0.090394 0.028367 0.17322 0.083984 0.24609 0.055617 0.073006 0.12848 0.1151 0.21875 0.12891l1.9062 0.28125c0.09717 0.34022 0.23822 0.68412 0.42578 1.0312-0.12492 0.17363-0.31254 0.41832-0.5625 0.73438-0.24996 0.31606-0.42718 0.54748-0.53125 0.69336-0.055617 0.076586-0.082031 0.15687-0.082031 0.24023 0 0.090267 0.02368 0.16886 0.072266 0.23828 0.2708 0.37513 0.8437 0.95844 1.7188 1.75 0.076458 0.076457 0.1626 0.11523 0.25977 0.11523 0.1042 0 0.19229-0.031356 0.26172-0.09375l1.4688-1.1152c0.28486 0.14588 0.59728 0.27548 0.9375 0.38672l0.29102 1.916c0.0070321 0.090266 0.046263 0.16554 0.11914 0.22461 0.072878 0.059198 0.15869 0.087891 0.25586 0.087891h2.3125c0.20163 0 0.32629-0.096547 0.375-0.29102 0.090138-0.34726 0.19163-0.99303 0.30273-1.9375 0.32642-0.1042 0.64182-0.23679 0.94727-0.39648l1.4375 1.125c0.09717 0.062394 0.18825 0.09375 0.27148 0.09375 0.15266 0 0.4786-0.2471 0.97852-0.74023 0.50017-0.49301 0.84394-0.86801 1.0312-1.125 0.062521-0.069426 0.09375-0.14802 0.09375-0.23828 0-0.090266-0.033962-0.17861-0.10352-0.26172-0.49992-0.61115-0.87205-1.0902-1.1152-1.4375 0.13885-0.25699 0.2743-0.57226 0.40625-0.94727l1.9277-0.29102c0.083234-0.013936 0.15154-0.060261 0.20703-0.13672 0.055489-0.076458 0.083984-0.15505 0.083984-0.23828v-2.3125c1.28e-4 -0.090266-0.028239-0.17309-0.083984-0.24609-0.055745-0.073006-0.12848-0.1151-0.21875-0.12891l-1.9062-0.29297c-0.1042-0.33332-0.24525-0.67227-0.42578-1.0195 0.12492-0.17363 0.31254-0.41832 0.5625-0.73438 0.24996-0.31606 0.42705-0.54748 0.53125-0.69336 0.055618-0.076458 0.082032-0.15687 0.082032-0.24023 0-0.09717-0.023553-0.1729-0.072266-0.22852-0.24996-0.35429-0.82286-0.94502-1.7188-1.7715-0.083106-0.069426-0.16963-0.10352-0.25977-0.10352-0.1042 0-0.18748 0.031356-0.25 0.09375l-1.4805 1.1152c-0.28486-0.14588-0.59728-0.27561-0.9375-0.38672l-0.29102-1.916c-0.006904-0.090266-0.046263-0.16554-0.11914-0.22461-0.073005-0.059069-0.15843-0.087891-0.25586-0.087891h-2.3125zm-1.373 5.7695h5.0586c0.27422 0 0.49609 0.18816 0.49609 0.42188v0.09375c0 0.23372-0.22187 0.42188-0.49609 0.42188h-5.0586c-0.27422 0-0.49609-0.18816-0.49609-0.42188v-0.09375c0-0.23372 0.22187-0.42188 0.49609-0.42188zm0 1.9727h5.0586c0.27422 0 0.49609 0.18816 0.49609 0.42187v0.09375c0 0.23372-0.22187 0.42188-0.49609 0.42188h-5.0586c-0.27422 0-0.49609-0.18816-0.49609-0.42188v-0.09375c0-0.23372 0.22187-0.42187 0.49609-0.42187zm0 1.9512h5.0586c0.27422 0 0.49609 0.18816 0.49609 0.42188v0.09375c0 0.23372-0.22187 0.42188-0.49609 0.42188h-5.0586c-0.27422 0-0.49609-0.18816-0.49609-0.42188v-0.09375c0-0.23372 0.22187-0.42188 0.49609-0.42188z" fill="#363636"/>
</svg>
