<svg viewBox="0 0 22 22" xmlns="http://www.w3.org/2000/svg">
<defs>
<style id="current-color-scheme" type="text/css">.ColorScheme-Text {
        color:#4d4d4d
      }</style>
</defs>
<path class="ColorScheme-Text" d="m9.8438 3c-0.20138 0-0.32642 0.09654-0.375 0.29101-0.09027 0.34713-0.19163 0.99303-0.30273 1.9375-0.32642 0.10433-0.64169 0.23679-0.94727 0.39649l-1.4375-1.1152c-0.090267-0.06943-0.18122-0.10351-0.27149-0.10351-0.15279 0-0.48088 0.24755-0.98438 0.74414-0.50349 0.49659-0.84473 0.87113-1.0254 1.1211-0.062554 0.09027-0.093756 0.16886-0.093756 0.23828 0 0.08336 0.034109 0.16677 0.10352 0.25 0.46527 0.56257 0.8374 1.0415 1.1152 1.4375-0.17363 0.31938-0.30908 0.6396-0.40625 0.95898l-1.9375 0.29101c-0.076333 0.01392-0.14165 0.06026-0.19727 0.13672-0.055618 0.07633-0.083988 0.15505-0.083988 0.23828v2.3125c0 0.09039 0.028382 0.17322 0.083988 0.24609 0.055618 0.07301 0.12848 0.1151 0.21875 0.12891l1.9062 0.28125c0.097173 0.34022 0.23822 0.68412 0.42578 1.0312-0.12492 0.17363-0.31254 0.41831-0.5625 0.73438-0.24996 0.31605-0.42718 0.54747-0.53125 0.69336-0.055618 0.07659-0.082033 0.15687-0.082033 0.24024 0 0.09027 0.023673 0.16886 0.072265 0.23828 0.2708 0.37513 0.84371 0.95844 1.7188 1.75 0.076453 0.07646 0.16259 0.11523 0.25976 0.11523 0.1042 0 0.19229-0.03136 0.26172-0.09375l1.4688-1.1152c0.28486 0.14588 0.59727 0.27548 0.9375 0.38672l0.29102 1.916c7e-3 0.09027 0.04626 0.16554 0.11914 0.22461 0.07287 0.0592 0.15869 0.08789 0.25586 0.08789h2.3125c0.20163 0 0.32628-0.09655 0.375-0.29102 0.09014-0.34726 0.19163-0.99303 0.30274-1.9375 0.32642-0.1042 0.64182-0.23679 0.94727-0.39648l1.4375 1.125c0.09717 0.06239 0.18825 0.09375 0.27148 0.09375 0.15266 0 0.4786-0.24709 0.97852-0.74023 0.50018-0.49301 0.84394-0.86801 1.0313-1.125 0.06249-0.06943 0.09375-0.14802 0.09375-0.23828 0-0.09027-0.03398-0.17861-0.10352-0.26172-0.49991-0.61115-0.87205-1.0902-1.1152-1.4375 0.13885-0.25699 0.2743-0.57226 0.40625-0.94726l1.9277-0.29102c0.08323-0.01392 0.15154-0.06026 0.20703-0.13672s0.08399-0.15505 0.08399-0.23828v-2.3125c1.26e-4 -0.09027-0.02825-0.17308-0.08398-0.24609-0.05574-0.073-0.12848-0.1151-0.21875-0.12891l-1.9062-0.29297c-0.10421-0.33332-0.24526-0.67228-0.42578-1.0195 0.12491-0.17363 0.31254-0.41832 0.5625-0.73438s0.42704-0.54747 0.53125-0.69336c0.05562-0.07646 0.08202-0.15687 0.08202-0.24023 0-0.09717-0.02354-0.1729-0.07226-0.22852-0.24996-0.35429-0.82286-0.94502-1.7187-1.7715-0.08311-0.06943-0.16963-0.10351-0.25977-0.10351-0.10419 0-0.18747 0.03136-0.25 0.09375l-1.4805 1.1152c-0.28487-0.14588-0.59728-0.27561-0.9375-0.38672l-0.29102-1.916c-7e-3 -0.09026-0.04626-0.16554-0.11914-0.22461-0.07301-0.05907-0.15844-0.08789-0.25586-0.08789h-2.3125zm-1.2441 5.1992h4.8008c0.1662 0 0.29883 0.13458 0.29883 0.30078v5.4004c0 0.1662-0.13263 0.29883-0.29883 0.29883h-4.8008c-0.1662 0-0.29883-0.13263-0.29883-0.29883v-5.4004c0-0.1662 0.13263-0.30078 0.29883-0.30078z" fill="currentColor"/>
</svg>
