<svg viewBox="0 0 22 22" xmlns="http://www.w3.org/2000/svg">
<defs>
<style id="current-color-scheme" type="text/css">.ColorScheme-Text {
        color:#4d4d4d
      }</style>
</defs>
<path class="ColorScheme-Text" d="m6.334 3a3.3333 3.3333 0 0 0-3.334 3.334 3.3333 3.3333 0 0 0 3.334 3.332 3.3333 3.3333 0 0 0 3.332-3.332 3.3333 3.3333 0 0 0-3.332-3.334zm6.666 0c-0.36933 0-0.66602 0.29668-0.66602 0.66602v5.334c0 0.36933 0.29669 0.66602 0.66602 0.66602h5.334c0.36934 0 0.66602-0.29669 0.66602-0.66602v-5.334c0-0.36934-0.29668-0.66602-0.66602-0.66602h-5.334zm-8 9.334c-0.36933 0-0.66602 0.29669-0.66602 0.66602v5.334c0 0.36934 0.29669 0.66602 0.66602 0.66602h2.666c0.36933 0 0.66796-0.29668 0.66796-0.66602v-5.334c0-0.36933-0.29863-0.66602-0.66796-0.66602h-2.666zm10.666 0-3.332 6.666h6.666l-3.334-6.666z" fill="currentColor"/>
</svg>
