<svg viewBox="0 0 22 22" xmlns="http://www.w3.org/2000/svg">
<defs>
<style id="current-color-scheme" type="text/css">.ColorScheme-Text {
        color:#363636
      }</style>
</defs>
<path class="ColorScheme-Text" d="m5.9091 3v1.4545h1.4545v-1.4545h-1.4545zm0 2.9091v1.4545h1.4545v-1.4545h-1.4545zm0 2.9091v1.4545h1.4545v-1.4545h-1.4545zm0 2.9091v1.4545h1.4545v-1.4545h-1.4545zm-2.9091 2.9091v1.4545h1.4545v-1.4545h-1.4545zm2.9091 0v1.4545h1.4545v-1.4545h-1.4545zm2.9091 0v1.4545h1.4545v-1.4545h-1.4545zm2.9091 0v1.4545h1.4545v-1.4545h-1.4545zm2.9091 0v1.4545h1.4545v-1.4545h-1.4545zm2.9091 0v1.4545h1.4545v-1.4545h-1.4545zm-11.636 2.9091v1.4545h1.4545v-1.4545h-1.4545z" fill="#363636"/>
</svg>
