<svg viewBox="0 0 22 22" xmlns="http://www.w3.org/2000/svg">
<defs>
<style id="current-color-scheme" type="text/css">.ColorScheme-Text {
        color:#4d4d4d
      }</style>
</defs>
<path class="ColorScheme-Text" d="m3 3v2.4648h2.4219v-2.4648h-2.4219zm3.332 0v2.4648h2.4219v-2.4648h-2.4219zm3.332 0v2.4648h2.4219v-2.4648h-2.4219zm3.332 0v2.4648h2.4219v-2.4648h-2.4219zm3.582 0v2.4648h2.4219v-2.4648h-2.4219zm-13.578 3.3848v2.4629h2.4219v-2.4629h-2.4219zm3.332 0v2.4629h2.4219v-2.4629h-2.4219zm3.332 0v2.4629h2.4219v-2.4629h-2.4219zm3.332 0v2.4629h2.4219v-2.4629h-2.4219zm3.582 0v2.4629h2.4219v-2.4629h-2.4219zm-13.578 3.3828v2.4648h2.4219v-2.4648h-2.4219zm3.332 0v2.4648h2.4219v-2.4648h-2.4219zm3.332 0v2.4648h2.4219v-2.4648h-2.4219zm3.332 0v2.4648h2.4219v-2.4648h-2.4219zm3.582 0v2.4648h2.4219v-2.4648h-2.4219zm-13.578 3.3828v2.4648h2.4219v-2.4648h-2.4219zm3.332 0v2.4648h2.4219v-2.4648h-2.4219zm3.332 0v2.4648h2.4219v-2.4648h-2.4219zm3.332 0v2.4648h2.4219v-2.4648h-2.4219zm3.582 0v2.4648h2.4219v-2.4648h-2.4219zm-13.578 3.3848v2.4648h2.4219v-2.4648h-2.4219zm3.332 0v2.4648h2.4219v-2.4648h-2.4219zm3.332 0v2.4648h2.4219v-2.4648h-2.4219zm3.332 0v2.4648h2.4219v-2.4648h-2.4219zm3.582 0v2.4648h2.4219v-2.4648h-2.4219z" fill="currentColor"/>
</svg>
