<svg viewBox="0 0 22 22" xmlns="http://www.w3.org/2000/svg">
<defs>
<style id="current-color-scheme" type="text/css">.ColorScheme-Text {
        color:#363636;
      }
      .ColorScheme-Highlight {
        color:#3daee9;
      }</style>
</defs>
<path class="ColorScheme-Text" d="m8.168 3c-2.0062 0-3.7227 1.3602-3.7227 3.9551 0 1.6941 0.78581 3.4141 1.8262 4.4766 0.40553 1.0637-0.3191 1.4587-0.4707 1.5137-1.4135 0.45711-5.2581 2.7358-5.1973 6.0547h15.191c0.067803-3.1705-2.9736-5.229-5.377-6.0547-0.10044-0.032846-0.73458-0.31953-0.33789-1.5254h-0.005859c1.034-1.065 1.8242-2.7777 1.8242-4.4648 0-2.5943-1.7256-3.9551-3.7305-3.9551z" fill="#363636"/>
<path class="ColorScheme-Highlight" d="m15.676 7c-1.5046 0-2.791 1.0187-2.791 2.9648 0 1.2706 0.58887 2.5625 1.3691 3.3594 0.30415 0.7978-0.23982 1.0935-0.35352 1.1348-1.0602 0.34283-3.9441 2.0518-3.8984 4.541h11.395c0.050852-2.3779-2.2307-3.9218-4.0332-4.541-0.075326-0.024635-0.55142-0.24014-0.25391-1.1445h-0.003906c0.77553-0.79874 1.3691-2.0842 1.3691-3.3496 0-1.9457-1.2951-2.9648-2.7988-2.9648z" fill="#363636"/>
</svg>
