<svg viewBox="0 0 22 22" xmlns="http://www.w3.org/2000/svg">
<defs>
<style id="current-color-scheme" type="text/css">.ColorScheme-Text {
        color:#363636
      }</style>
</defs>
<path class="ColorScheme-Text" d="m5.0681 3c-0.7562 0-1.3664 0.17907-1.8275 0.53711-0.46109 0.34862-0.76845 0.72996-0.92523 1.1445l1.1604 0.50977c0.11066-0.31093 0.31471-0.55731 0.60981-0.73633 0.30432-0.17902 0.64046-0.26758 1.0093-0.26758 0.49799 0 0.91665 0.15587 1.2579 0.4668 0.34121 0.30151 0.51232 0.70605 0.51232 1.2148v0.19727c-0.47954-0.28266-1.092-0.42383-1.839-0.42383-0.8392 0-1.5444 0.21697-2.1162 0.65039-0.57176 0.42399-0.85832 1.0138-0.85832 1.7676 0 0.69723 0.23923 1.2576 0.71877 1.6816 0.48876 0.42399 1.0929 0.63476 1.8122 0.63476 0.97753 0 1.7199-0.39604 2.2271-1.1875h0.0554v0.9629h1.2177v-4.1836c0-0.94221-0.28657-1.6732-0.85833-2.1914-0.57176-0.51821-1.2894-0.77734-2.1563-0.77734zm0.1797 3.7168c0.71931 0 1.2576 0.15162 1.6172 0.45312 0 0.54649-0.21653 1.0226-0.64996 1.4277-0.42421 0.39573-0.89852 0.59179-1.4242 0.59179-0.36888 0-0.69669-0.099-0.98257-0.29687-0.28589-0.19786-0.42821-0.46549-0.42821-0.80469 0-0.36746 0.15672-0.68769 0.47025-0.96093 0.31356-0.27325 0.77955-0.41016 1.3974-0.41016zm-3.137 5.3574v1.1875h3.7487l-3.8596 4.6074v1.1309h5.4788v-1.1875h-3.915l3.8596-4.6074v-1.1309h-5.3124zm12.84 1.0508c-0.18023 6.7e-4 -0.35992 0.0718-0.49702 0.21289l-4.3107 4.4356c-0.27418 0.28216-0.27235 0.73756 4e-3 1.0176 0.27605 0.28002 0.72178 0.27814 0.99596-4e-3l3.8137-3.9258 3.8424 3.8965c0.27602 0.28001 0.72189 0.28009 0.99596-2e-3 0.27431-0.28203 0.27248-0.7394-4e-3 -1.0195l-4.3413-4.4023c-0.13802-0.13998-0.31861-0.20965-0.49894-0.20899z" fill="#363636"/>
</svg>
