<svg viewBox="0 0 22 22" xmlns="http://www.w3.org/2000/svg">
<defs>
<style id="current-color-scheme" type="text/css">.ColorScheme-Text {
        color:#4d4d4d
      }</style>
</defs>
<path class="ColorScheme-Text" d="m10.771 15.171c0.30945 0 0.57748-0.11298 0.80344-0.33926 0.22617-0.22606 0.33948-0.49398 0.33948-0.80344v-5.7139c0-0.30956-0.1132-0.57737-0.33948-0.80344-0.22595-0.22628-0.49387-0.33937-0.80344-0.33937-0.30956 0-0.57737 0.1132-0.80354 0.33937-0.22617 0.22606-0.33926 0.49398-0.33926 0.80344v5.7139c0 0.30945 0.11308 0.57737 0.33926 0.80344 0.22617 0.22628 0.49409 0.33926 0.80354 0.33926zm8.2286-4.1709c0 4.4183-3.5817 8-8 8-4.4183 7e-6 -8-3.5817-8-8s3.5817-8 8-8 8 3.5817 8 8z" fill="currentColor"/>
</svg>
