<svg viewBox="0 0 22 22" xmlns="http://www.w3.org/2000/svg">
<defs>
<style id="current-color-scheme" type="text/css">.ColorScheme-Text {
        color:#4d4d4d
      }</style>
</defs>
<path class="ColorScheme-Text" d="m11 3a8 8 0 0 0-8 8 8 8 0 0 0 8 8 8 8 0 0 0 8-8 8 8 0 0 0-8-8zm-0.0176 3.6797c1.0825 0 2.0156 0.73596 2.0156 2.1367 0 0.91098-0.428 1.8351-0.98632 2.4102h4e-3c-0.21419 0.6511 0.12741 0.80649 0.18164 0.82422 1.2976 0.44582 2.9409 1.5576 2.9043 3.2695h-8.2031c-0.0328-1.792 2.0434-3.0227 2.8066-3.2695 0.0819-0.0297 0.47287-0.244 0.25391-0.81836-0.56174-0.57367-0.98633-1.5013-0.98633-2.416 0-1.4011 0.92654-2.1367 2.0098-2.1367z" fill="currentColor"/>
</svg>
