<svg viewBox="0 0 22 22" xmlns="http://www.w3.org/2000/svg">
<defs>
<style id="current-color-scheme" type="text/css">.ColorScheme-Text {
        color:#4d4d4d
      }</style>
</defs>
<path class="ColorScheme-Text" d="m15.19 11.329h-0.809c-0.2047 0-0.36989 0.16377-0.37696 0.36565-0.16801 1.5615-1.4894 2.777-3.0975 2.777-1.721 0-3.1145-1.392-3.1145-3.1102 0-1.7026 1.4033-3.0862 3.1018-3.1102v0.50543c0 0.23013 0.16377 0.33318 0.36425 0.23013l2.5963-1.3285c0.20048-0.10307 0.20048-0.26967 0-0.37272l-2.5963-1.3257c-0.20048-0.10305-0.36425 0-0.36425 0.22872v0.50965c-2.5596 0.024-4.659 2.105-4.659 4.666 0 2.5765 2.0909 4.666 4.6717 4.666 2.4679 0 4.4896-1.9102 4.659-4.3328 1e-3 -0.2033-0.16942-0.36849-0.37552-0.36849zm3.8099-0.32936a8 8 0 0 1-8 8 8 8 0 0 1-8-8 8 8 0 0 1 8-8 8 8 0 0 1 8 8z" fill="currentColor"/>
</svg>
