<svg version="1.1" viewBox="0 0 22 22" xmlns="http://www.w3.org/2000/svg">
<defs>
<style id="current-color-scheme" type="text/css">.ColorScheme-Text {
        color:#363636
      }</style>
</defs>
<path d="m5.666 5.5547c-0.85852 0.93367-1.7422 2.4306-2.666 3.5566v0.35547 0.17773 1.2441 6.7559c0 0.19698 0.15849 0.35547 0.35547 0.35547h15.289c0.19698 0 0.35547-0.15849 0.35547-0.35547v-8.1777-0.35547c-0.92382-1.126-1.8075-2.623-2.666-3.5566h-1.7793-0.41992-1.3574c-0.57892 0.62959-1.1708 1.5141-1.7773 2.3691-0.60659-0.85508-1.1984-1.7395-1.7773-2.3691h-1.3574-0.41992-1.7793zm9.334 6.4453h1v2h2v1h-2v2h-1v-2h-2v-1h2v-2z" color="#363636" fill="#363636"/>
</svg>
