<svg version="1.1" viewBox="0 0 22 22" xmlns="http://www.w3.org/2000/svg">
<defs>
<style id="current-color-scheme" type="text/css">.ColorScheme-Text {
        color:#4d4d4d
      }</style>
</defs>
<path d="m5.666 5.5547c-0.85852 0.93367-1.7422 2.4306-2.666 3.5566v8.5332c0 0.19698 0.15849 0.35547 0.35547 0.35547h15.289c0.19698 0 0.35547-0.15849 0.35547-0.35547v-8.5332c-0.92382-1.126-1.8075-2.623-2.666-3.5566h-3.5566c-0.57892 0.62959-1.1708 1.5141-1.7773 2.3691-0.60659-0.85508-1.1984-1.7395-1.7773-2.3691h-3.5566zm9.0605 6.6699c0.033401 0.01 0.063997 0.0318 0.091797 0.0625l0.38672 0.41211 0.38672-0.41211c0.0554-0.0595 0.12272-0.080393 0.20117-0.058593 0.0784 0.0199 0.12735 0.073051 0.14648 0.1543l0.13672 0.55664 0.53516-0.15625c0.0784-0.0238 0.1438-0.005399 0.19922 0.056641 0.0593 0.0575 0.077687 0.12768 0.054687 0.20898l-0.15234 0.55273 0.54102 0.14258c0.0765 0.0199 0.12551 0.07096 0.14844 0.15234 0.0191 0.0833 7.59e-4 0.15344-0.056641 0.20898l-0.39648 0.40039 0.39648 0.40234c0.0574 0.0555 0.075741 0.12565 0.056641 0.20898-0.0229 0.0813-0.071871 0.13055-0.14844 0.15039l-0.54102 0.14258 0.15234 0.55274c0.0229 0.0813 0.005003 0.15142-0.054687 0.20898-0.0555 0.0615-0.12076 0.080441-0.19922 0.056641l-0.53516-0.1582-0.13672 0.56055c-0.019 0.0793-0.068099 0.13049-0.14648 0.1543-0.0229 4e-3 -0.041288 0.00586-0.054688 0.00586-0.0592 0-0.10823-0.020853-0.14648-0.064454l-0.38672-0.41211-0.38672 0.41211c-0.0535 0.0595-0.12085 0.078494-0.20117 0.058594-0.078401-0.0217-0.12736-0.07288-0.14648-0.1543l-0.13867-0.56055-0.5332 0.1582c-0.0784 0.0238-0.14571 0.007302-0.20117-0.054688-0.0593-0.0575-0.075634-0.12765-0.052734-0.20898l0.15039-0.55469-0.53711-0.14258c-0.0765-0.0198-0.12747-0.069001-0.15039-0.15039-0.019-0.0833 0.001204-0.15342 0.058594-0.20898l0.39453-0.40234-0.39453-0.40039c-0.0574-0.0555-0.077693-0.12568-0.058594-0.20898 0.0229-0.0813 0.07392-0.13252 0.15039-0.15234l0.53711-0.14258-0.15039-0.55273c-0.0229-0.0813-0.007306-0.15146 0.052734-0.20898 0.0555-0.0615 0.12276-0.080441 0.20117-0.056641l0.5332 0.1582 0.13867-0.55859c0.019-0.0813 0.06811-0.13447 0.14648-0.1543 0.039199-0.0119 0.07589-0.013117 0.10937-0.003907z" color="#4d4d4d" fill="currentColor"/>
</svg>
