<svg viewBox="0 0 22 22" xmlns="http://www.w3.org/2000/svg">
<defs>
<style id="current-color-scheme" type="text/css">.ColorScheme-Text {
        color:#363636
      }
      .ColorScheme-NegativeText {
        color:#da4453;
      }</style>
</defs>
<path class="ColorScheme-Text" d="m15.685 3h-3.9452c-0.72335 0-1.7336 0.41843-2.245 0.92988l-6.1112 6.1112c-0.51142 0.51143-0.51142 1.3484 0 1.8598l4.7156 4.7155c0.51143 0.51146 1.3483 0.51146 1.8598 0l6.1112-6.1112c0.51143-0.51145 0.92988-1.5217 0.92988-2.245v-3.9452c-3e-5 -0.72329-0.59178-1.3151-1.3151-1.3151zm-1.7474 4.375c-0.72487 0-1.3125-0.5876-1.3125-1.3125 0-0.72487 0.58763-1.3125 1.3125-1.3125 0.72486 0 1.3125 0.58763 1.3125 1.3125s-0.58764 1.3125-1.3125 1.3125z" fill="#363636"/>
<path class="ColorScheme-NegativeText" d="m18.731 13.582c-0.32255-0.55264-0.76012-0.9902-1.3128-1.3128-0.55275-0.32255-1.1562-0.4838-1.8107-0.4838-0.65445 0-1.258 0.16125-1.8107 0.4838-0.5527 0.3225-0.99027 0.76007-1.3128 1.3128-0.32262 0.5527-0.48386 1.1563-0.48386 1.8107 0 0.65445 0.1613 1.2579 0.4838 1.8107 0.32255 0.55258 0.76012 0.9902 1.3128 1.3128 0.55269 0.32255 1.1562 0.4838 1.8107 0.4838 0.65444 0 1.258-0.16125 1.8107-0.4838 0.55264-0.3225 0.99021-0.76012 1.3128-1.3128 0.3225-0.5527 0.48375-1.1563 0.48375-1.8107 0-0.65445-0.16125-1.258-0.48369-1.8107zm-1.4232 2.6608c0.0595 0.0594 0.0893 0.13001 0.0893 0.21141 0 0.0845-0.0298 0.15658-0.0893 0.21601l-0.42269 0.42276c-0.0595 0.0595-0.1315 0.0892-0.21608 0.0892-0.0814 0-0.15196-0.0297-0.21134-0.0892l-0.85017-0.85018-0.85018 0.85018c-0.0595 0.0595-0.12994 0.0892-0.21134 0.0892-0.0846 0-0.15658-0.0297-0.21608-0.0892l-0.42275-0.42276c-0.0595-0.0594-0.0892-0.1315-0.0892-0.21601 0-0.0814 0.0298-0.15197 0.0892-0.21141l0.85017-0.85011-0.85017-0.85017c-0.0595-0.0594-0.0892-0.12995-0.0892-0.21135 0-0.0846 0.0298-0.15658 0.0892-0.21607l0.42275-0.4227c0.0595-0.0595 0.1315-0.0892 0.21608-0.0892 0.0814 0 0.15185 0.0298 0.21134 0.0892l0.85018 0.85012 0.85017-0.85012c0.0594-0.0595 0.12994-0.0892 0.21134-0.0892 0.0846 0 0.15658 0.0298 0.21608 0.0892l0.42269 0.4227c0.0595 0.0595 0.0893 0.1315 0.0893 0.21607 0 0.0814-0.0298 0.15191-0.0893 0.21135l-0.85011 0.85017 0.85011 0.85011z" fill="#363636"/>
</svg>
