<svg viewBox="0 0 22 22" xmlns="http://www.w3.org/2000/svg">
<defs>
<style id="current-color-scheme" type="text/css">.ColorScheme-Text {
        color:#4d4d4d
      }</style>
</defs>
<path class="ColorScheme-Text" d="m12.003 3.0905c-0.73757 0-1.7677 0.41876-2.2891 0.93019l-6.2318 6.1113c-0.52149 0.5114-0.52149 1.347 0 1.8584l4.808 4.715c0.52149 0.51143 1.3756 0.51143 1.8971 0l1.3723-1.3458c0.0324 1.9705 1.656 3.5499 3.6733 3.5499 2.0377 0 3.6773-1.6098 3.6773-3.6081 0-1.979-1.6096-3.5697-3.6198-3.6004l1.1268-1.105c0.52148-0.51143 0.94853-1.5216 0.94853-2.2449v-3.946c-3e-5 -0.72326-0.6031-1.3147-1.3406-1.3147h-4.0218zm2.2396 1.7497c0.73912 0 1.3386 0.58792 1.3386 1.3128s-0.59951 1.3128-1.3386 1.3128-1.3386-0.58789-1.3386-1.3128c0-0.72483 0.59951-1.3128 1.3386-1.3128zm1.5129 8.0202 4e-3 2e-3c0.077 0.0174 0.12743 0.0886 0.11485 0.16507l-0.33862 2.0565c0.0492 0.0629 0.0809 0.13878 0.0911 0.22138l1.1327 0.88553c0.0624 0.0487 0.0771 0.13642 0.0337 0.20196l-2e-3 2e-3c-0.0434 0.0656-0.12927 0.0885-0.20001 0.0524l-1.2852-0.65638c-0.0433 0.0131-0.089 0.0233-0.13664 0.0233-0.25561 0-0.46337-0.20374-0.46337-0.45442 0-0.17754 0.10577-0.33108 0.25743-0.40586l0.61387-1.9924c0.0229-0.0742 0.10125-0.11844 0.17822-0.10098z" fill="currentColor"/>
</svg>
