<svg viewBox="0 0 22 22" xmlns="http://www.w3.org/2000/svg">
<defs>
<style id="current-color-scheme" type="text/css">.ColorScheme-Text {
        color:#4d4d4d
      }</style>
</defs>
<path class="ColorScheme-Text" d="m17.424 3.0905h-4.4578c-0.81733 0-1.9588 0.47279-2.5367 1.0507l-6.9053 6.9052c-0.57788 0.57788-0.57788 1.5236 0 2.1015l5.3283 5.3282c0.57788 0.57791 1.5235 0.57791 2.1014 0l6.9052-6.9052c0.57788-0.57791 1.0507-1.7194 1.0507-2.5366v-4.4578c-3e-5 -0.81727-0.66868-1.4859-1.486-1.4859zm-1.9745 4.9435c-0.81906 0-1.483-0.66396-1.483-1.483 0-0.81905 0.66398-1.483 1.483-1.483 0.81905 0 1.483 0.66399 1.483 1.483s-0.66398 1.483-1.483 1.483z" fill="currentColor"/>
</svg>
