<svg viewBox="0 0 22 22" xmlns="http://www.w3.org/2000/svg">
<defs>
<style id="current-color-scheme" type="text/css">.ColorScheme-Text {
        color:#4d4d4d
      }</style>
</defs>
<path class="ColorScheme-Text" d="m11 3.0001c-4.4109 0-8 3.1856-8 7.1016 0 2.1236 1.0421 4.0991 2.8672 5.4512 0.17307 1.1068-0.42723 2.2652-0.43359 2.2774-0.13702 0.25594-0.12616 0.56932 0.0277 0.8164 0.13762 0.22088 0.36839 0.35352 0.61809 0.35352 0.0266 0 0.0541-8.4e-4 0.0811-4e-3 0.77736-0.0914 2.0316-0.71682 3.7306-1.8594 0.36589 0.0449 0.73798 0.0664 1.1089 0.0664 4.4111 0 8-3.1856 8-7.1016s-3.589-7.1016-8-7.1016zm-0.19003 4.1992c0.0809 0 0.15123 0.0313 0.21033 0.0937 0.0589 0.0625 0.0885 0.13715 0.0885 0.22266v5.3692c0 0.0855-0.0295 0.15826-0.0885 0.22069-0.0591 0.0624-0.1295 0.0937-0.21033 0.0937-0.0808 0-0.14945-0.0313-0.2085-0.0937l-1.5535-1.6426h-1.2196c-0.0808 0-0.15124-0.0312-0.21033-0.0937-0.059-0.0624-0.0885-0.13715-0.0885-0.22267v-1.8945c0-0.0855 0.0295-0.1582 0.0885-0.2207 0.059-0.0624 0.12949-0.0937 0.21033-0.0937h1.2214l1.5516-1.6445c0.0591-0.0624 0.12772-0.0937 0.2085-0.0937zm1.7159 0.65234c0.0403 0 0.0814 7e-3 0.12178 0.0234 0.43496 0.19411 0.78383 0.50572 1.048 0.93164 0.26413 0.42617 0.39667 0.88925 0.39667 1.3926s-0.13254 0.9686-0.39667 1.3945c-0.26415 0.42599-0.61302 0.73554-1.048 0.9297-0.0403 0.0163-0.079 0.0254-0.11624 0.0254-0.0839 0-0.15677-0.0312-0.21586-0.0937-0.0589-0.0624-0.0885-0.13715-0.0885-0.22267 0-0.12833 0.0614-0.22518 0.18266-0.29101 0.17397-0.0954 0.29211-0.16744 0.35424-0.2168 0.22992-0.17763 0.40979-0.3998 0.53875-0.66797 0.12894-0.2681 0.19373-0.5548 0.19373-0.85742 0-0.30263-0.0648-0.58737-0.19373-0.85547-0.12896-0.26811-0.30877-0.49028-0.53875-0.66797-0.0621-0.0493-0.18027-0.1214-0.35424-0.2168-0.12123-0.0658-0.18266-0.16464-0.18266-0.29296 0-0.0855 0.0296-0.15821 0.0885-0.22071 0.0591-0.0625 0.12955-0.0937 0.21032-0.0937zm-0.46679 1.1641c0.0466 0 0.087 9e-3 0.11808 0.0254 0.21758 0.0888 0.39184 0.24187 0.52399 0.45898 0.1321 0.21712 0.19743 0.44922 0.19743 0.69922s-0.0653 0.4838-0.19743 0.69922c-0.1321 0.21548-0.30641 0.3687-0.52399 0.46094-0.0311 0.0163-0.0715 0.0254-0.11808 0.0254-0.0808 0-0.1495-0.0309-0.20848-0.0918-0.0589-0.0609-0.0885-0.13576-0.0885-0.2246 0-0.0691 0.0181-0.128 0.0554-0.17579 0.0373-0.0477 0.0818-0.0886 0.13469-0.12304 0.0527-0.0345 0.10581-0.0722 0.15867-0.11328 0.0529-0.0412 0.0992-0.10008 0.13653-0.17579 0.0372-0.0757 0.0554-0.16939 0.0554-0.28125 0-0.11185-0.0181-0.20554-0.0554-0.28124-0.0373-0.0756-0.0837-0.13271-0.13653-0.17383-0.0529-0.0411-0.10592-0.0788-0.15867-0.11328-0.0529-0.0345-0.0974-0.0773-0.13469-0.125-0.0374-0.0477-0.0554-0.10473-0.0554-0.17383 0-0.0888 0.0296-0.16375 0.0885-0.22461 0.0589-0.0608 0.12771-0.0918 0.20848-0.0918z" fill="currentColor"/>
</svg>
