<svg viewBox="0 0 22 22" xmlns="http://www.w3.org/2000/svg">
<defs>
<style id="current-color-scheme" type="text/css">.ColorScheme-Text {
        color:#363636
      }</style>
</defs>
<path class="ColorScheme-Text" d="m11 3c-4.432 0-8 3.568-8 8s3.568 8 8 8 8-3.568 8-8-3.568-8-8-8zm3.0723 6c0.37258 0 0.67578 0.30125 0.67578 0.67383 0 0.37258-0.30319 0.67578-0.67578 0.67578-0.37258 0-0.67383-0.3032-0.67383-0.67578 0-0.37258 0.30124-0.67383 0.67383-0.67383zm1.541 0c0.37252 0 0.67578 0.30125 0.67578 0.67383 0 0.37258-0.30326 0.67578-0.67578 0.67578-0.37256 0-0.67383-0.3032-0.67383-0.67578 0-0.37258 0.30127-0.67383 0.67383-0.67383zm-4.6133 1c0.554 0 1 0.446 1 1s-0.446 1-1 1-1-0.446-1-1 0.446-1 1-1zm2.6504 0.58984h2.3848c0.13891 0 0.25 0.13863 0.25 0.31055v0.27734c8.96e-4 0.017998 0.016697 0.085133 0.19531 0.023438l0.98242-0.33984c0.030642-0.012194 0.097642-0.026454 0.097656 0.074219v1.7148c0 0.075195-0.041484 0.077893-0.078125 0.066406l-1.0156-0.24219c-0.16623-0.039442-0.18088 0.010706-0.18164 0.025391v0.18945c0 0.17185-0.11109 0.31055-0.25 0.31055h-2.3848c-0.13884 0-0.25195-0.1387-0.25195-0.31055v-1.7891c0-0.17191 0.11311-0.31055 0.25195-0.31055z" fill="#363636"/>
</svg>
