<svg viewBox="0 0 22 22" xmlns="http://www.w3.org/2000/svg">
<defs>
<style id="current-color-scheme" type="text/css">.ColorScheme-Text {
        color:#4d4d4d
      }</style>
</defs>
<path class="ColorScheme-Text" d="m11 3.3418a7.6575 7.6575 0 0 0-7.6582 7.6582 7.6575 7.6575 0 0 0 7.6582 7.6582 7.6575 7.6575 0 0 0 7.6582-7.6582 7.6575 7.6575 0 0 0-7.6582-7.6582zm-2.6641 3.7695c0.64549 0 1.1699 0.52412 1.1699 1.1699 0 0.6461-0.52443 1.1699-1.1699 1.1699-0.64568 0-1.1699-0.52382-1.1699-1.1699 0-0.6457 0.52424-1.1699 1.1699-1.1699zm5.3027 0c0.64549 0 1.168 0.52412 1.168 1.1699 0 0.6461-0.52229 1.1699-1.168 1.1699s-1.1699-0.52382-1.1699-1.1699c0-0.6457 0.52424-1.1699 1.1699-1.1699zm-2.6406 4.457c1.9016 0 3.5995 1.084 4.3242 2.7598 0.12408 0.2867-0.008287 0.61789-0.29492 0.74219-0.28663 0.1242-0.62006-0.008121-0.74414-0.29492-0.54536-1.2615-1.835-2.0762-3.2852-2.0762-1.4837 0-2.781 0.81537-3.3047 2.0762-0.090328 0.2178-0.29972 0.34766-0.52148 0.34766-0.072413 0-0.1459-0.013969-0.2168-0.042969-0.28871-0.1199-0.42657-0.44998-0.30664-0.73828 0.69962-1.6844 2.4071-2.7734 4.3496-2.7734z" fill="currentColor"/>
</svg>
