<svg viewBox="0 0 22 22" xmlns="http://www.w3.org/2000/svg">
<defs>
<style id="current-color-scheme" type="text/css">.ColorScheme-Text {
        color:#363636
      }</style>
</defs>
<path class="ColorScheme-Text" d="m3.0831 8.1622 1.0016 0.81437-0.94267 1.8792c-0.47132 0.86655 0.33838 1.7107 0.85428 2.0046 0.50787 0.28926 1.2961 0.32365 2.0326 0.31323l1.3256-2.2551 1.0016 0.56378-1.738-3.3513-3.5349 0.0313zm0.14727 4.6003 2.1504 4.1344c0.43205 0.5742 1.2471 0.70993 2.0915 0.68906h2.2682v-3.9151l-4.3008-0.0313c-0.66768 0.0417-1.5416-0.10445-2.2093-0.87701zm13.529-7.6192-1.17 0.51679-1.1224-1.769c-0.49976-0.84909-1.6018-0.52138-2.0989-0.19428-0.48931 0.32202-0.90039 1.0228-1.2486 1.6982l1.2526 2.2998-0.9594 0.63827 3.6592 0.0429 1.6874-3.2326zm-3.9377-2.0962-4.5173-0.0471c-0.69204 0.11484-1.2012 0.79082-1.5931 1.5696l-1.0997 2.0645 3.2905 1.8981 2.1114-3.8993c0.2886-0.62801 0.83513-1.3526 1.8082-1.5857zm0.1965 15.953 0.13286-1.3155 2.031-0.16392c0.95589-0.0433 1.2148-1.2052 1.1808-1.8162-0.0334-0.60149-0.42311-1.3154-0.82188-1.9598l-2.5402 0.0252-0.0714-1.1827-1.8101 3.3098 1.8988 3.1031zm3.6708-2.5677 2.2296-4.0886c0.23901-0.68558-0.0822-1.4768-0.5468-2.211l-1.202-2.0018-3.1905 2.0747 2.2536 3.8122c0.3879 0.56712 0.73187 1.4158 0.45611 2.4145z" fill="#363636"/>
</svg>
