<svg version="1.1" viewBox="0 0 22 22" xmlns="http://www.w3.org/2000/svg">
<defs>
<style id="current-color-scheme" type="text/css">.ColorScheme-Text {
        color:#363636
      }</style>
</defs>
<g transform="translate(-326 -534.36)">
<path class="ColorScheme-Text" d="m336.69 547.31c-0.0992-0.0328-0.72588-0.31899-0.33426-1.5248h-6e-3c1.0208-1.065 1.801-2.7787 1.801-4.4659 0-2.5943-1.7031-3.9542-3.6824-3.9542-1.9806 0-3.6743 1.3594-3.6743 3.9542 0 1.6941 0.77577 3.4148 1.8029 4.4773 0.40036 1.0637-0.31556 1.4585-0.46522 1.5135-1.3955 0.45711-5.1918 2.7361-5.1317 6.055h14.998c0.0669-3.1705-2.9358-5.2293-5.3085-6.055z" color="#363636" fill="#363636"/>
<path d="m343.11 548.82c-0.0727-0.0246-0.53232-0.23925-0.24512-1.1436h-4e-3c0.74862-0.79874 1.3207-2.084 1.3207-3.3494 0-1.9457-1.2489-2.9657-2.7004-2.9657-1.4524 0-2.6945 1.0195-2.6945 2.9657 0 1.2706 0.5689 2.5611 1.3221 3.358 0.29359 0.7978-0.2314 1.0939-0.34116 1.1351-1.0234 0.34283-3.8073 2.0521-3.7633 4.5412h10.999c0.049-2.3779-2.153-3.922-3.8929-4.5412z" fill="#da4453"/>
</g>
</svg>
