<svg viewBox="0 0 22 22" xmlns="http://www.w3.org/2000/svg">
<defs>
<style id="current-color-scheme" type="text/css">.ColorScheme-Text {
        color:#363636
      }</style>
</defs>
<path class="ColorScheme-Text" d="m18.645 3h-0.82654c-0.1963 0-0.3554 0.15277-0.3554 0.3404v0.42361c0 0.18815-0.15912 0.34053-0.3554 0.34053h-0.77068c-0.19629 0-0.3554-0.15292-0.3554-0.34053v-0.42361c-1e-6 -0.18789-0.15909-0.3404-0.35539-0.3404h-9.2794c-0.19628 0-0.35538 0.15277-0.35538 0.3404v0.42361c0 0.18815-0.15912 0.34053-0.35541 0.34053h-0.77068c-0.19627 0-0.35539-0.15292-0.35539-0.34053v-0.42361c0-0.18789-0.1591-0.3404-0.3554-0.3404h-0.79875c-0.1963 0-0.35539 0.15277-0.35539 0.3404v15.319c0 0.18789 0.15909 0.3404 0.35539 0.3404h0.79875c0.1963 0 0.3554-0.15277 0.3554-0.3404v-0.31117c0-0.18816 0.15912-0.34039 0.35539-0.34039h0.77068c0.19629 0 0.35541 0.15277 0.35541 0.34039v0.31117c0 0.18789 0.1591 0.3404 0.35538 0.3404h9.2794c0.1963 0 0.35539-0.15277 0.35539-0.3404v-0.31117c0-0.18816 0.15911-0.34039 0.3554-0.34039h0.77068c0.19628 0 0.3554 0.15277 0.3554 0.34039v0.31117c0 0.18789 0.1591 0.3404 0.3554 0.3404h0.82654c0.19628 0 0.35541-0.15277 0.35541-0.3404v-15.319c1e-6 -0.18789-0.15912-0.3404-0.3554-0.3404zm-12.654 13.028c0 0.18788-0.15912 0.34026-0.35541 0.34026h-0.77068c-0.19627 0-0.35539-0.15291-0.35539-0.34026v-0.73841c0-0.18803 0.15912-0.34026 0.35539-0.34026h0.77068c0.19629 0 0.35541 0.15277 0.35541 0.34026v0.73841zm0-3.0593c0 0.18816-0.15912 0.34053-0.35541 0.34053h-0.77068c-0.19627 0-0.35539-0.15291-0.35539-0.34053v-0.73814c0-0.18803 0.15912-0.34026 0.35539-0.34026h0.77068c0.19629 0 0.35541 0.15277 0.35541 0.34026v0.73814zm0-3.059c0 0.18816-0.15912 0.34053-0.35541 0.34053h-0.77068c-0.19627 0-0.35539-0.15291-0.35539-0.34053v-0.73814c0-0.18803 0.15912-0.34053 0.35539-0.34053h0.77068c0.19629 0 0.35541 0.15291 0.35541 0.34053v0.73814zm0-3.059c0 0.18816-0.15912 0.34053-0.35541 0.34053h-0.77068c-0.19627 0-0.35539-0.15291-0.35539-0.34053v-0.73801c0-0.18815 0.15912-0.34067 0.35539-0.34067h0.77068c0.19629 0 0.35541 0.15291 0.35541 0.34067v0.73801zm8.4534 10.35c0 0.18803-0.1591 0.3404-0.35538 0.3404h-6.1781c-0.1963 0-0.35541-0.15277-0.35541-0.3404v-2.7356c0-0.18816 0.1591-0.34066 0.35541-0.34066h6.1781c0.19628 0 0.35538 0.15291 0.35538 0.34066v2.7356zm0-4.8325c0 0.18801-0.1591 0.34053-0.35538 0.34053h-6.1781c-0.1963 0-0.35541-0.15278-0.35541-0.34053v-2.7356c0-0.18815 0.1591-0.34038 0.35541-0.34038h6.1781c0.19628 0 0.35538 0.15277 0.35538 0.34038v2.7356zm0-4.8324c0 0.18803-0.1591 0.34027-0.35538 0.34027h-6.1781c-0.1963 0-0.35541-0.15278-0.35541-0.34027v-2.7357c0-0.18789 0.1591-0.3404 0.35541-0.3404h6.1781c0.19628 0 0.35538 0.15277 0.35538 0.3404v2.7357zm3.0182 8.4923c0 0.18788-0.15912 0.34026-0.35541 0.34026h-0.77069c-0.19627 0-0.3554-0.15291-0.3554-0.34026v-0.73841c0-0.18803 0.15912-0.34026 0.3554-0.34026h0.77069c0.19628 0 0.35541 0.15277 0.35541 0.34026v0.73841zm0-3.0593c0 0.18816-0.15912 0.34053-0.35541 0.34053h-0.77069c-0.19627 0-0.3554-0.15291-0.3554-0.34053v-0.73814c0-0.18803 0.15912-0.34026 0.3554-0.34026h0.77069c0.19628 0 0.35541 0.15277 0.35541 0.34026v0.73814zm0-3.059c0 0.18816-0.15912 0.34053-0.35541 0.34053h-0.77069c-0.19627 0-0.3554-0.15291-0.3554-0.34053v-0.73814c0-0.18803 0.15912-0.34053 0.3554-0.34053h0.77069c0.19628 0 0.35541 0.15291 0.35541 0.34053v0.73814zm0-3.059c0 0.18816-0.15912 0.34053-0.35541 0.34053h-0.77069c-0.19627 0-0.3554-0.15291-0.3554-0.34053v-0.73801c0-0.18815 0.15912-0.34067 0.3554-0.34067h0.77069c0.19628 0 0.35541 0.15291 0.35541 0.34067v0.73801z" fill="#363636"/>
</svg>
