<svg version="1.1" viewBox="0 0 22 22" xmlns="http://www.w3.org/2000/svg">
<defs>
<style id="current-color-scheme" type="text/css">.ColorScheme-Text {
        color:#363636
      }</style>
</defs>
<path class="ColorScheme-Text" d="m3.5674 4.2c-0.31477 0-0.56743 0.26942-0.56743 0.60312v11.594c0 0.3337 0.25266 0.60313 0.56743 0.60313h14.865c0.31477 0 0.56742-0.26942 0.56742-0.60313v-11.594c0-0.3337-0.25266-0.60312-0.56742-0.60312h-14.865zm5.7318 3.5594c0.9195 0 1.6625 0.78925 1.6625 1.7641 0 0.97482-0.74299 1.7625-1.6625 1.7625-0.21519 0-0.4105-0.04088-0.58658-0.10313l-0.87989 0.93282h-0.58806v0.62187h-0.58659v0.62188h-0.97862v-1.0359l2.0545-2.1781c-0.05872-0.20741-0.097272-0.41447-0.097272-0.62188 0-0.97481 0.74299-1.7641 1.6625-1.7641zm2.871 0.081248h3.773c0.20902 0 0.3773 0.1784 0.3773 0.4s-0.16827 0.4-0.3773 0.4h-3.773c-0.20902 0-0.3773-0.1784-0.3773-0.4s0.16828-0.4 0.3773-0.4zm-2.3817 0.54218c-0.33259 0-0.58659 0.26928-0.58659 0.62188 0 0.35259 0.254 0.62187 0.58659 0.62187 0.33258 0 0.58658-0.26928 0.58658-0.62187 0-0.3526-0.254-0.62188-0.58658-0.62188zm2.3817 1.0578h3.773c0.20902 0 0.3773 0.1784 0.3773 0.4s-0.16827 0.4-0.3773 0.4h-3.773c-0.20902 0-0.3773-0.1784-0.3773-0.4s0.16828-0.4 0.3773-0.4zm0 1.6h3.773c0.20902 0 0.3773 0.1784 0.3773 0.4s-0.16827 0.4-0.3773 0.4h-3.773c-0.20902 0-0.3773-0.1784-0.3773-0.4s0.16828-0.4 0.3773-0.4zm0 1.6h3.773c0.20902 0 0.3773 0.1784 0.3773 0.4s-0.16827 0.4-0.3773 0.4h-3.773c-0.20902 0-0.3773-0.1784-0.3773-0.4s0.16828-0.4 0.3773-0.4z" color="#363636" fill="#363636"/>
</svg>
