<svg viewBox="0 0 22 22" xmlns="http://www.w3.org/2000/svg">
<defs>
<style id="current-color-scheme" type="text/css">.ColorScheme-Text {
        color:#4d4d4d
      }</style>
</defs>
<path class="ColorScheme-Text" d="m11.199 3.0026c-0.0168-0.0109-0.051 0.0125-0.10351 0.0703-0.26978 0.29666-0.5752 0.68665-0.72458 0.99801-0.17102 0.34739-0.18739 0.59523-0.0879 0.96676 0.0254 0.0928 0.0517 0.16502 0.0859 0.23632 0.0602 0.12518-5e-3 0.22452-0.15039 0.16796-0.0724-0.0281-0.13929-0.068-0.1953-0.11328-0.12157-0.0982-0.16805-0.0979-0.13476 0.0547 0.12179 0.55848 0.63172 1.1809 1.205 1.2031 0.0178 6.5e-4 0.0353 4e-3 0.0527 0 0.54948-0.11358 1.0828-0.84671 0.97066-1.496-0.10385-0.60139-0.54029-0.85236-0.79293-1.291-0.10469-0.18156-0.15993-0.42558-0.12109-0.66404 0.0126-0.0771 0.0129-0.12192-4e-3 -0.13281zm-0.32421 3.8827c-0.26043 0-0.47263 0.2122-0.47263 0.47264v1.4238h-6.9782c-0.27711 0-0.50193 0.16834-0.50193 0.37498v1.4199c0 0.0247 4e-3 0.0489 0.01 0.0723-6e-3 0.0449-0.01 0.0903-0.01 0.13671 0 0.46314 0.29791 0.8597 0.72067 1.0254 0.13585 0.0532 0.28353 0.084 0.43944 0.084 0.41823 0 0.78381-0.21265 0.98824-0.52928 0.20449 0.3166 0.56998 0.52928 0.98824 0.52928 0.41823 0 0.78381-0.21265 0.98824-0.52928 0.2044 0.31663 0.57001 0.52928 0.98824 0.52928s0.78385-0.21265 0.98825-0.52928c0.20439 0.3166 0.57001 0.52928 0.98824 0.52928s0.78384-0.21265 0.98824-0.52928c0.20437 0.31663 0.57001 0.52928 0.98824 0.52928s0.78384-0.21265 0.98824-0.52928c0.2044 0.31663 0.56998 0.52928 0.98824 0.52928 0.41827 0 0.78385-0.21265 0.98825-0.52928 0.2044 0.31663 0.56998 0.52928 0.98824 0.52928s0.78384-0.21265 0.98824-0.52928c0.2044 0.31663 0.56998 0.52928 0.98824 0.52928 0.15594 0 0.30362-0.0308 0.43944-0.084 0.42276-0.16565 0.72067-0.56202 0.72067-1.0254 0-0.0464-4e-3 -0.0917-0.01-0.13671 6e-3 -0.0234 0.01-0.0475 0.01-0.0723v-1.4199c0-0.20658-0.22482-0.37498-0.50193-0.37498h-6.9782v-1.4238c0-0.26044-0.2122-0.47264-0.47264-0.47264h-0.24999zm-5.8044 5.158c-0.2793 0.20655-0.62377 0.32225-0.98824 0.32225-0.15271 0-0.29919-0.0205-0.43944-0.0586v1.4902h14.714v-1.4902c-0.14023 0.0381-0.28689 0.0586-0.43944 0.0586-0.36447 0-0.70894-0.1157-0.98824-0.32225-0.2794 0.20655-0.6238 0.32225-0.98824 0.32225-0.36447 0-0.70894-0.1157-0.98824-0.32225-0.2794 0.20655-0.62374 0.32225-0.98825 0.32225-0.3645 0-0.70893-0.1157-0.98824-0.32225-0.27939 0.20655-0.62374 0.32225-0.98824 0.32225s-0.70894-0.1157-0.98824-0.32225c-0.2793 0.20655-0.62377 0.32225-0.98824 0.32225s-0.70885-0.1157-0.98824-0.32225c-0.27931 0.20655-0.62377 0.32225-0.98825 0.32225-0.36447 0-0.70884-0.1157-0.98824-0.32225-0.27949 0.20655-0.62377 0.32225-0.98824 0.32225s-0.70885-0.1157-0.98824-0.32225zm-1.4277 2.2245v2.9569c0 0.0269 4e-3 0.0524 8e-3 0.0781h14.699c4e-3 -0.0257 8e-3 -0.0512 8e-3 -0.0781v-2.9569h-14.714zm-0.47264 3.5057c-0.26043 0-0.47068 0.26606-0.47068 0.59372v0.0391c0 0.3277 0.21025 0.59373 0.47068 0.59373h15.66c0.26044 0 0.47069-0.26603 0.47069-0.59373v-0.0391c0-0.32758-0.21025-0.59373-0.47069-0.59373h-15.66z" fill="currentColor"/>
</svg>
