<svg version="1.1" viewBox="0 0 22 22" xmlns="http://www.w3.org/2000/svg">
<defs>
<style id="current-color-scheme" type="text/css">.ColorScheme-Text {
        color:#4d4d4d
      }</style>
</defs>
<path class="ColorScheme-Text" d="m3.5674 4.2c-0.31477 0-0.56744 0.26942-0.56744 0.60312v11.594c0 0.3337 0.25267 0.60313 0.56744 0.60313h14.865c0.31475 0 0.56742-0.26942 0.56742-0.60313v-11.594c0-0.3337-0.25266-0.60312-0.56742-0.60312h-14.865zm5.4665 3.5594c0.91949 0 1.6625 0.78925 1.6625 1.7641 0 0.97482-0.74299 1.7625-1.6625 1.7625-0.2152 0-0.4105-0.04088-0.5866-0.10313l-0.87988 0.93282h-0.58806v0.62187h-0.58658v0.62188h-0.97864v-1.0359l2.0545-2.1781c-0.05872-0.20741-0.097272-0.41447-0.097272-0.62188 0-0.97481 0.743-1.7641 1.6625-1.7641zm4.8342 0.44062h0.90642v1.9203h1.8113v0.95938h-1.8113v1.9203h-0.90642v-1.9203h-1.8099v-0.95938h1.8099v-1.9203zm-4.3449 0.18281c-0.33259 0-0.58659 0.26928-0.58659 0.62188 0 0.35259 0.254 0.62187 0.58659 0.62187 0.33258 0 0.58658-0.26928 0.58658-0.62187 0-0.3526-0.254-0.62188-0.58658-0.62188z" color="#4d4d4d" fill="currentColor"/>
</svg>
