<svg viewBox="0 0 22 22" xmlns="http://www.w3.org/2000/svg">
<defs>
<style id="current-color-scheme" type="text/css">.ColorScheme-Text {
        color:#4d4d4d
      }</style>
</defs>
<path class="ColorScheme-Text" d="m4.7767 3c-0.43094 0-0.77672 0.3576-0.77672 0.8008v14.398c0 0.4432 0.34579 0.8008 0.77672 0.8008h12.447c0.43094 0 0.77672-0.3576 0.77672-0.8008v-14.398c0-0.4432-0.34579-0.8008-0.77672-0.8008h-12.447zm3.4639 4c0.93977 0 1.7016 0.7835 1.7016 1.75s-0.7618 1.75-1.7016 1.75c-0.93977 0-1.7016-0.7835-1.7016-1.75s0.7618-1.75 1.7016-1.75zm5.6156 0.125v3.375h2.1877l-3.2816 4.5v-3.375l-2.1877 0.094 3.2816-4.5938zm-7.3171 4.25h3.4031v3.5h-3.4032v-3.5z" fill="currentColor"/>
</svg>
