<svg version="1.1" viewBox="0 0 22 22" xmlns="http://www.w3.org/2000/svg">
<defs>
<style id="current-color-scheme" type="text/css">.ColorScheme-Text {
        color:#363636
      }</style>
</defs>
<path class="ColorScheme-Text" d="m3.5674 4.9263c-0.31477 0-0.56743 0.25414-0.56743 0.5689v10.936c0 0.31477 0.25266 0.5689 0.56743 0.5689h14.865c0.31477 0 0.56743-0.25414 0.56743-0.5689v-10.936c0-0.31476-0.25266-0.5689-0.56743-0.5689h-14.865zm3.6595 0.3773h0.75461v2.2638h0.75461v2.2638h0.75461v0.75461h1.5092v-0.75461h0.75461v-0.75461h0.75461v-0.75461h0.75461v-1.5092h0.75461v0.75461h0.75461v1.5092h0.75461v0.75461h0.7546v0.75461h0.75461v0.75461h-0.75461v0.7546h-0.7546v0.75461h-0.75461v1.5092h-0.75461v0.75461h-0.75461v-1.5092h-0.75461v-0.75461h-0.75461v-0.75461h-0.75461v-0.7546h-1.5092v0.7546h-0.75461v2.2638h-0.75461v2.2638h-0.75461v-1.5092h-0.75461v-2.2638h-0.75461v-1.5092h-0.75461v-0.75461h0.75461v-1.5092h0.75461v-2.2638h0.75461v-1.5092z" color="#363636" fill="#363636"/>
</svg>
