<svg viewBox="0 0 22 22" xmlns="http://www.w3.org/2000/svg">
<defs>
<style id="current-color-scheme" type="text/css">.ColorScheme-Text {
        color:#4d4d4d
      }</style>
</defs>
<path class="ColorScheme-Text" d="m3.8887 3c-0.49244 0-0.88867 0.35758-0.88867 0.80078v14.398c0 0.4432 0.39623 0.80078 0.88867 0.80078h14.223c0.49244 0 0.88867-0.35758 0.88867-0.80078v-14.398c0-0.4432-0.39623-0.80078-0.88867-0.80078h-14.223zm7.1133 2c3.3106 0 6.0011 2.6844 5.9961 6 0 1.3322-0.43334 2.5605-1.1641 3.5547-0.87978 1.198-2.1976 2.0565-3.7188 2.3398-0.35792 0.07-0.73041 0.10547-1.1133 0.10547-0.78045 0-1.526-0.14965-2.207-0.41797-1.4664-0.58162-2.6539-1.7245-3.2852-3.166-0.32777-0.74064-0.50782-1.5561-0.50782-2.416 0-3.3156 2.6844-6 6-6zm-0.59765 2v0.78711c-0.43667 0.0745-0.81823 0.2415-1.0996 0.53906h-2e-3c-0.31515 0.32847-0.48242 0.72917-0.48242 1.166 0 0.41732 0.14903 0.8012 0.43359 1.1191 0.26637 0.29763 0.66604 0.53153 1.1504 0.73242v1.6445c-0.12597-0.0567-0.25808-0.0925-0.36719-0.20117-0.17241-0.17763-0.2884-0.3821-0.34961-0.62695l-0.0527-0.21289-1.0645 0.42773 0.0391 0.16016c0.11767 0.48922 0.36826 0.89508 0.74024 1.1914 0.31869 0.24965 0.68013 0.378 1.0547 0.45899v0.81445h1.0391v-0.80859c0.40817-0.0901 0.77369-0.25477 1.0664-0.52539 0.3445-0.3185 0.51757-0.76431 0.51757-1.2871 0-0.46635-0.1626-0.86797-0.48242-1.1562-0.27017-0.25299-0.65629-0.46694-1.1016-0.66406v-1.5156c0.0504 0.0322 0.11997 0.0478 0.16016 0.0898l6e-3 6e-3c0.11295 0.10805 0.17757 0.21315 0.20703 0.31836l0.0585 0.21094 1.0684-0.45508-0.0527-0.16601c-0.0922-0.28972-0.27917-0.55471-0.54296-0.79493-0.23172-0.22049-0.55691-0.33425-0.9043-0.41601v-0.83594h-1.0391zm0 1.9922v1.0469c-0.0855-0.0591-0.20545-0.116-0.25782-0.17578-0.1071-0.12223-0.15039-0.23675-0.15039-0.37109 0-0.16247 0.0472-0.27416 0.15625-0.37891v-2e-3l2e-3 -2e-3c0.0593-0.0593 0.16594-0.079 0.25-0.11718zm1.0391 2.8613c0.0876 0.0588 0.21247 0.12031 0.26562 0.17578v2e-3h2e-3c0.0978 0.0978 0.14258 0.20612 0.14258 0.36523 0 0.19593-0.0541 0.33376-0.16406 0.45313-0.0587 0.0608-0.16413 0.0852-0.2461 0.12695v-1.123z" fill="currentColor"/>
</svg>
