<svg version="1.1" viewBox="0 0 22 22" xmlns="http://www.w3.org/2000/svg">
<defs>
<style id="current-color-scheme" type="text/css">.ColorScheme-Text {
        color:#4d4d4d
      }</style>
<style id="current-color-scheme-3" type="text/css">.ColorScheme-Text {
        color:#4d4d4d
      }</style>
</defs>
<path d="m12.173 3c-1.1123 1e-7 -2.0131 0.89684-2.0131 2.002s0.90075 2 2.0131 2c1.1123-1e-7 2.0151-0.89489 2.0151-2s-0.90272-2.002-2.0151-2.002zm-5.6579 2.4824c-0.26577 7.337e-4 -0.51008 0.016933-0.71756 0.037109-0.36124 0.034502-0.57481 0.41594-0.41678 0.74023l0.7038 1.4336c-0.78131 0.67619-1.3709 1.5009-1.7025 2.4238h-0.85714c-0.28822-0.001701-0.5249 0.23317-0.5249 0.51953v1.9102c0 0.19318 0.10924 0.36929 0.28113 0.45898l1.1107 0.57422c0.46533 1.2747 1.4302 2.3712 2.7012 3.125v1.6914c0 0.33291 0.27432 0.60352 0.60944 0.60352h1.557c0.24132 0 0.46103-0.14227 0.55832-0.36133l0.39122-0.89258c0.33683 0.04145 0.67746 0.0625 1.0282 0.0625 0.55216 0 1.0885-0.05208 1.6042-0.15039v0.73828c0 0.33291 0.27434 0.60352 0.60943 0.60352h1.5531c0.22397 0 0.42875-0.1217 0.53473-0.31836 0.82649-1.5421 1.7253-3.0905 2.3886-4.7051 0.33506-0.81762 0.45628-1.6863 0.38336-2.5332-0.11808-1.3662-0.74398-2.6772-1.791-3.6328-0.61116-0.55889-1.3194-0.99706-2.0799-1.3145-0.09896 0.14835-0.21357 0.29031-0.34207 0.41797-0.17017 0.16906-0.3598 0.31413-0.56815 0.42969 0.2205 0.072379 0.43181 0.15517 0.63499 0.25 0.20641 0.096609 0.28766 0.34827 0.173 0.54492-0.10071 0.17462-0.32105 0.24246-0.50328 0.15625-1.3856-0.65033-2.9325-0.52758-3.6114-0.42578-0.19967 0.029329-0.39151-0.096092-0.4384-0.29102v-0.00391c-0.053858-0.22078 0.096709-0.43817 0.32241-0.47266 0.12327-0.018892 0.27168-0.03806 0.4384-0.052734-0.0504-0.043287-0.10054-0.088176-0.14744-0.13477-0.2396-0.23804-0.42632-0.51567-0.55832-0.82617-0.013845-0.032832-0.028397-0.06873-0.041284-0.10156-0.20661 0.034484-0.41173 0.076879-0.6114 0.12695-0.87248-0.50465-1.8744-0.62879-2.6717-0.62695v-0.00391zm0.67824 3.9844c0.43234 0 0.78244 0.34587 0.78244 0.77539-1.92e-5 0.42952-0.3501 0.77734-0.78244 0.77734-0.43233 0-0.78047-0.34784-0.78047-0.77734 0-0.42952 0.34814-0.77539 0.78047-0.77539zm6.2575 1.0273c0.07906 0 0.14713 0.02703 0.20249 0.08203l0.40301 0.40039c0.05526 0.055 0.08261 0.12267 0.08257 0.20117 0 0.07858-0.02721 0.14422-0.08257 0.19922l-2.1468 2.1348-0.40301 0.40039c-0.05536 0.0549-0.12348 0.08203-0.20249 0.08203-0.07909 0-0.14713-0.02703-0.20249-0.08203l-1.4764-1.4668c-0.05536-0.05496-0.082569-0.12267-0.082569-0.20117 0-0.07858 0.027208-0.14617 0.082569-0.20117l0.40301-0.40039c0.05536-0.055 0.12338-0.08203 0.20249-0.08203 0.07906 0 0.14713 0.02703 0.20249 0.08203l0.8709 0.86914 1.9463-1.9355c0.05533-0.055 0.12141-0.08203 0.20052-0.08203z" color="#4d4d4d" fill="currentColor"/>
</svg>
