<svg viewBox="0 0 22 22" xmlns="http://www.w3.org/2000/svg">
<defs>
<style id="current-color-scheme" type="text/css">.ColorScheme-Text {
        color:#363636
      }</style>
</defs>
<path class="ColorScheme-Text" d="m3.8987 3.6139c-0.41306 0-0.74792 0.33629-0.74792 0.7503v13.272c0 0.41438 0.33515 0.75031 0.74792 0.75031h14.203c0.41307 0 0.74792-0.3363 0.74792-0.75031v-13.272c0-0.41438-0.33514-0.7503-0.74792-0.7503h-14.203zm9.4036 2.652c0.94695 0 1.715 0.77097 1.715 1.7216 0 0.95057-0.76803 1.7215-1.715 1.7215-0.94724 0-1.715-0.77097-1.715-1.7215 0-0.95058 0.76773-1.7216 1.715-1.7216zm-2.3023 10.473h-5.2721c-0.47362 0-0.68456-0.34401-0.47104-0.76837l2.9432-5.8518c0.21322-0.42436 0.61967-0.46224 0.90749-0.0847l2.9595 3.8824c0.28783 0.37757 0.79089 0.40971 1.1239 0.0715l0.72401-0.73596c0.3327-0.33829 0.8229-0.29639 1.0944 0.093l1.8747 2.6882c0.27096 0.38992 0.10752 0.70582-0.36615 0.70582h-5.5179z" fill="#363636"/>
</svg>
