<svg version="1.1" viewBox="0 0 22 22" xmlns="http://www.w3.org/2000/svg">
<defs>
<style id="current-color-scheme" type="text/css">.ColorScheme-Text {
        color:#4d4d4d
      }</style>
</defs>
<path class="ColorScheme-Text" d="m3.5674 4.2c-0.31477 0-0.56744 0.26942-0.56744 0.60312v11.594c0 0.3337 0.25267 0.60313 0.56744 0.60313h14.865c0.31475 0 0.56742-0.26942 0.56742-0.60313v-11.594c0-0.3337-0.25266-0.60312-0.56742-0.60312h-14.865zm5.5151 3.5594c0.91951 0 1.6625 0.78925 1.6625 1.7641 0 0.97482-0.74298 1.7625-1.6625 1.7625-0.2152 0-0.4105-0.04088-0.58658-0.10313l-0.88136 0.93282h-0.58658v0.62187h-0.58659v0.62188h-0.97862v-1.0359l2.0545-2.1781c-0.05872-0.20741-0.09728-0.41447-0.09728-0.62188 0-0.97481 0.74299-1.7641 1.6625-1.7641zm4.4318 0.04064h0.76345c0.03216 0 0.05992 0.01056 0.08401 0.03128 0.02408 0.02064 0.03752 0.04656 0.03976 0.07816l0.0958 0.67031c0.11232 0.03888 0.21546 0.08487 0.3095 0.13594l0.48785-0.39062c0.02064-0.02184 0.04816-0.0328 0.08253-0.0328 0.02976 0 0.05952 0.0116 0.08696 0.03592 0.29577 0.28926 0.4849 0.49631 0.56743 0.62031 0.01608 0.01944 0.02352 0.04568 0.02352 0.07968 0 0.0292-0.0097 0.0576-0.028 0.08438-0.0344 0.05104-0.09287 0.13157-0.17538 0.24219-0.08253 0.11062-0.14446 0.19704-0.18571 0.25781 0.0596 0.12154 0.1071 0.23959 0.14149 0.35625l0.62934 0.10313c0.02984 0.0048 0.05384 0.01976 0.07224 0.04528s0.02808 0.05432 0.028 0.08594v0.80938c0 0.02912-0.0097 0.05608-0.028 0.08282-0.01832 0.0268-0.04184 0.0436-0.06928 0.04848l-0.63523 0.10156c-0.04352 0.13125-0.08829 0.2413-0.13411 0.33125 0.08028 0.12154 0.20194 0.28922 0.36698 0.50313 0.02296 0.02912 0.03536 0.06056 0.03536 0.09218 0 0.0316-0.01032 0.05848-0.03096 0.08282-0.06184 0.08994-0.17534 0.22119-0.34045 0.39375-0.16504 0.17259-0.27385 0.25938-0.32425 0.25938-0.02744 0-0.0564-0.01096-0.08842-0.0328l-0.47458-0.39375c-0.10084 0.05592-0.20617 0.10259-0.31394 0.13906-0.03664 0.33056-0.06896 0.55658-0.09874 0.67812-0.01608 0.06808-0.0572 0.10157-0.12378 0.10157h-0.76345c-0.03208 0-0.05992-0.01056-0.08402-0.03128-0.02408-0.02064-0.03752-0.04656-0.03976-0.07816l-0.09727-0.67031c-0.11233-0.038972-0.21547-0.084892-0.30951-0.13596l-0.4849 0.39063c-0.02296 0.02184-0.05112 0.0328-0.08548 0.0328-0.03208 0-0.06024-0.01384-0.08548-0.04064-0.2889-0.27705-0.47802-0.48121-0.56743-0.6125-0.01608-0.02432-0.02504-0.0512-0.02504-0.08281 0-0.0292 0.0097-0.0576 0.028-0.08438 0.03432-0.05104 0.09286-0.13157 0.17538-0.24219s0.14446-0.19704 0.1857-0.25781c-0.06192-0.12149-0.10941-0.24186-0.14149-0.36094l-0.62933-0.09844c-0.02984-0.0048-0.05392-0.01976-0.07224-0.04528s-0.02656-0.05432-0.02656-0.08594v-0.80938c0-0.02912 0.0082-0.05608 0.02656-0.08281 0.01832-0.0268 0.04112-0.04352 0.06632-0.04848l0.63965-0.10157c0.03208-0.11178 0.0768-0.22415 0.13412-0.33594-0.09174-0.13859-0.21486-0.30622-0.36846-0.50313-0.02296-0.02912-0.03384-0.05832-0.03384-0.0875 0-0.02432 0.01032-0.0512 0.03096-0.08282 0.0596-0.08748 0.17276-0.21838 0.33898-0.39218 0.16623-0.17381 0.2738-0.26094 0.32425-0.26094 0.02984 0 0.06016 0.0116 0.0899 0.03592l0.47458 0.39062c0.10089-0.05592 0.20469-0.10254 0.31246-0.13906 0.03664-0.33056 0.0704-0.55662 0.10022-0.67812 0.016-0.06808 0.05728-0.10156 0.12379-0.10156zm-3.9425 0.58281c-0.3326 0-0.58659 0.26928-0.58659 0.62188 0 0.35259 0.25399 0.62187 0.58659 0.62187 0.33259 0 0.58658-0.26928 0.58658-0.62187 0-0.3526-0.254-0.62188-0.58658-0.62188z" color="#4d4d4d" fill="currentColor"/>
</svg>
