<svg width="22" height="22" version="1.1" viewBox="0 0 5.8208 5.8208" xmlns="http://www.w3.org/2000/svg">
<g transform="translate(0 -291.18)" fill-opacity=".47451" shape-rendering="auto">
<path d="m0.66211 291.96c-0.15379 0-0.2832 0.12941-0.2832 0.2832v1.5859c0 0.15379 0.12941 0.2832 0.2832 0.2832h1.8516c0.15379 0 0.28125-0.12941 0.28125-0.2832v-1.5859c0-0.15379-0.12746-0.2832-0.28125-0.2832zm0.017578 0.30078h1.8164v1.5508h-1.8164z" color="#000000" color-rendering="auto" dominant-baseline="auto" image-rendering="auto" solid-color="#000000" style="font-feature-settings:normal;font-variant-alternates:normal;font-variant-caps:normal;font-variant-ligatures:normal;font-variant-numeric:normal;font-variant-position:normal;isolation:auto;mix-blend-mode:normal;shape-padding:0;text-decoration-color:#000000;text-decoration-line:none;text-decoration-style:solid;text-indent:0;text-orientation:mixed;text-transform:none;white-space:normal"/>
<path d="m0.66211 294.34c-0.15379 0-0.2832 0.12941-0.2832 0.2832v1.5879c0 0.1538 0.12941 0.28125 0.2832 0.28125h1.8516c0.15379 0 0.28125-0.12745 0.28125-0.28125v-1.5879c0-0.15379-0.12746-0.2832-0.28125-0.2832zm0.017578 0.30078h1.8164v1.5527h-1.8164z" color="#000000" color-rendering="auto" dominant-baseline="auto" image-rendering="auto" solid-color="#000000" style="font-feature-settings:normal;font-variant-alternates:normal;font-variant-caps:normal;font-variant-ligatures:normal;font-variant-numeric:normal;font-variant-position:normal;isolation:auto;mix-blend-mode:normal;shape-padding:0;text-decoration-color:#000000;text-decoration-line:none;text-decoration-style:solid;text-indent:0;text-orientation:mixed;text-transform:none;white-space:normal"/>
<path d="m3.3066 291.96c-0.15379 0-0.28125 0.12941-0.28125 0.2832v1.5859c0 0.15379 0.12746 0.2832 0.28125 0.2832h1.8535c0.15379 0 0.28125-0.12941 0.28125-0.2832v-1.5859c1e-7 -0.15379-0.12746-0.2832-0.28125-0.2832zm0.017578 0.30078h1.8184v1.5508h-1.8184z" color="#000000" color-rendering="auto" dominant-baseline="auto" image-rendering="auto" solid-color="#000000" style="font-feature-settings:normal;font-variant-alternates:normal;font-variant-caps:normal;font-variant-ligatures:normal;font-variant-numeric:normal;font-variant-position:normal;isolation:auto;mix-blend-mode:normal;shape-padding:0;text-decoration-color:#000000;text-decoration-line:none;text-decoration-style:solid;text-indent:0;text-orientation:mixed;text-transform:none;white-space:normal"/>
<path d="m3.3066 294.34c-0.15379 0-0.28125 0.12941-0.28125 0.2832v1.5879c0 0.1538 0.12746 0.28125 0.28125 0.28125h1.8535c0.15379 0 0.28125-0.12745 0.28125-0.28125v-1.5879c1e-7 -0.15379-0.12746-0.2832-0.28125-0.2832zm0.017578 0.30078h1.8184v1.5527h-1.8184z" color="#000000" color-rendering="auto" dominant-baseline="auto" image-rendering="auto" solid-color="#000000" style="font-feature-settings:normal;font-variant-alternates:normal;font-variant-caps:normal;font-variant-ligatures:normal;font-variant-numeric:normal;font-variant-position:normal;isolation:auto;mix-blend-mode:normal;shape-padding:0;text-decoration-color:#000000;text-decoration-line:none;text-decoration-style:solid;text-indent:0;text-orientation:mixed;text-transform:none;white-space:normal"/>
</g>
</svg>
