<svg viewBox="0 0 22 22" xmlns="http://www.w3.org/2000/svg">
<defs>
<style id="current-color-scheme" type="text/css">.ColorScheme-Text {
        color:#4d4d4d
      }</style>
</defs>
<path class="ColorScheme-Text" d="m3.8887 3c-0.49244 0-0.88867 0.35758-0.88867 0.80078v14.398c0 0.4432 0.39623 0.80078 0.88867 0.80078h14.223c0.49244 0 0.88867-0.35758 0.88867-0.80078v-14.398c0-0.4432-0.39623-0.80078-0.88867-0.80078h-14.223zm1.5137 2h0.24219c0.17783 0 0.32212 0.14446 0.32227 0.32227v11.355c0 0.17781-0.14432 0.32227-0.32227 0.32227h-0.24219c-0.1778 0-0.32226-0.14432-0.32226-0.32227v-11.355c0-0.17781 0.14446-0.32227 0.32226-0.32227zm1.6113 0h0.88477c0.1778 0 0.32224 0.14446 0.32226 0.32227v11.355c0 0.17781-0.14446 0.32227-0.32226 0.32227h-0.88477c-0.17797 0-0.32226-0.14432-0.32226-0.32227v-11.355c0-0.17781 0.14431-0.32227 0.32226-0.32227zm2.0938 0h0.88672c0.17795 0 0.3221 0.14446 0.32227 0.32227v11.355c0 0.17781-0.14432 0.32227-0.32227 0.32227h-0.88672c-0.17797 0-0.32226-0.14432-0.32226-0.32227v-11.355c0-0.17781 0.14431-0.32227 0.32226-0.32227zm2.0938 0h0.0801c0.1778 0 0.32227 0.14446 0.32227 0.32227v11.355c0 0.17781-0.14444 0.32227-0.32227 0.32227h-0.0801c-0.17795 0-0.32227-0.14432-0.32227-0.32227v-11.355c1e-5 -0.17781 0.14432-0.32227 0.32227-0.32227zm1.2891 0h2.8184c0.17781 0 0.32227 0.14446 0.32227 0.32227v11.355c0 0.17781-0.14432 0.32227-0.32227 0.32227h-2.8184c-0.17777 0-0.32226-0.14432-0.32226-0.32227v-11.355c0-0.17781 0.14446-0.32227 0.32226-0.32227zm4.0274 0h0.0801c0.1778 0 0.32226 0.14446 0.32226 0.32227v11.355c0 0.17781-0.14444 0.32227-0.32226 0.32227h-0.0801c-0.17795 0-0.32227-0.14432-0.32227-0.32227v-11.355c0-0.17781 0.14432-0.32227 0.32227-0.32227z" fill="currentColor"/>
</svg>
