<svg viewBox="0 0 22 22" xmlns="http://www.w3.org/2000/svg">
<defs>
<style id="current-color-scheme" type="text/css">.ColorScheme-Text {
        color:#4d4d4d
      }</style>
</defs>
<path class="ColorScheme-Text" d="m4 3c-0.55402 0-1 0.44598-1 1v14c0 0.55402 0.44598 1 1 1h14c0.55402 0 1-0.44598 1-1v-14c0-0.55402-0.44598-1-1-1h-14zm6.998 3.2539c0.35157 0 0.63476 0.30273 0.63476 0.67773v5.1152c0 0.37501-0.2832 0.67578-0.63476 0.67578s-0.63477-0.30077-0.63477-0.67578v-5.1152c0-0.37501 0.2832-0.67773 0.63477-0.67773zm0.001953 7.6699c0.25244 0 0.46689 0.08798 0.64453 0.26562 0.17762 0.17764 0.26758 0.39209 0.26758 0.64453s-0.089933 0.46884-0.26758 0.64648c-0.17764 0.17762-0.39209 0.26562-0.64453 0.26562s-0.46689-0.08798-0.64453-0.26562c-0.17762-0.17764-0.26758-0.39405-0.26758-0.64648 0-0.25244 0.089933-0.46689 0.26758-0.64453 0.17764-0.17762 0.39209-0.26562 0.64453-0.26562z" fill="currentColor"/>
</svg>
