<svg width="22" height="22" version="1.1" xmlns="http://www.w3.org/2000/svg" xmlns:osb="http://www.openswatchbook.org/uri/2009/osb">
<g transform="translate(-326 -534.36)">
<g transform="translate(-217.57 -209.57)">
<g transform="matrix(.58303 0 0 .58303 546.3 746.67)" fill="#363636">
<g fill="#363636">
<path d="m28.36 19.595c0-0.868-0.665-1.57-1.491-1.57-0.819 2e-3 -1.492 0.702-1.492 1.57v3.25l-6.018-6.021c-0.582-0.583-1.524-0.583-2.106 0-0.582 0.582-0.582 1.527 0 2.109l5.989 5.987h-3.235c-0.881 2e-3 -1.591 0.669-1.591 1.491 0 0.824 0.71 1.49 1.591 1.49h6.761c0.881 0 1.59-0.665 1.593-1.49-3e-3 -0.022-6e-3 -0.039-9e-3 -0.061 3e-3 -0.028 9e-3 -0.058 9e-3 -0.087v-6.668h-1e-3z"/>
<path d="m9 16.824-6.015 6.021v-3.25c0-0.868-0.672-1.568-1.493-1.57-0.824 0-1.49 0.702-1.49 1.57l-2e-3 6.669c0 0.029 8e-3 0.059 0.01 0.087-2e-3 0.021-6e-3 0.038-8e-3 0.061 2e-3 0.825 0.712 1.49 1.592 1.49h6.762c0.879 0 1.59-0.666 1.59-1.49 0-0.822-0.711-1.489-1.59-1.491h-3.235l5.989-5.987c0.58-0.582 0.58-1.527 0-2.109-0.583-0.584-1.526-0.584-2.11-1e-3z"/>
<path d="m19.359 11.535 6.018-6.017v3.25c0 0.865 0.673 1.565 1.492 1.568 0.826 0 1.491-0.703 1.491-1.568v-6.671c0-0.029-6e-3 -0.059-9e-3 -0.085 3e-3 -0.021 6e-3 -0.041 9e-3 -0.062-3e-3 -0.826-0.712-1.491-1.592-1.491h-6.761c-0.881 0-1.591 0.665-1.591 1.491 0 0.821 0.71 1.49 1.591 1.492h3.235l-5.989 5.987c-0.582 0.581-0.582 1.524 0 2.105 0.582 0.586 1.524 0.586 2.106 1e-3z"/>
<path d="m5.121 3.442h3.234c0.879-2e-3 1.59-0.671 1.59-1.492 0-0.826-0.711-1.491-1.59-1.491h-6.761c-0.88 0-1.59 0.665-1.592 1.491 2e-3 0.021 6e-3 0.041 8e-3 0.062-2e-3 0.026-0.01 0.055-0.01 0.085l2e-3 6.672c0 0.865 0.666 1.568 1.49 1.568 0.821-3e-3 1.493-0.703 1.493-1.568v-3.25l6.015 6.016c0.584 0.585 1.527 0.585 2.11 0 0.58-0.581 0.58-1.524 0-2.105l-5.989-5.988z"/>
</g>
</g>
</g>
</g>
</svg>
