<svg viewBox="0 0 22 22" xmlns="http://www.w3.org/2000/svg">
<defs>
<style id="current-color-scheme" type="text/css">.ColorScheme-Text {
        color:#4d4d4d
      }</style>
</defs>
<path class="ColorScheme-Text" d="m4.7767 3c-0.43093 0-0.77672 0.35758-0.77672 0.80078v14.398c0 0.4432 0.34579 0.80078 0.77672 0.80078h12.447c0.43093 0 0.77672-0.35758 0.77672-0.80078v-14.398c0-0.4432-0.34579-0.80078-0.77672-0.80078h-12.447zm6.1967 5.5h4.6508c0.13518 0 0.24498 0.11282 0.24498 0.25195v4.4551c0 0.13901-0.10971 0.25195-0.24498 0.25195h-4.6508c-0.13517 0-0.24498-0.11282-0.24498-0.25195v-4.4551c0-0.139 0.10972-0.25195 0.24498-0.25195zm-4.5844 0.041h3.6158c0.14313 0 0.25828 0.15724 0.25828 0.35351s-0.11515 0.35352-0.25828 0.35352h-3.6158c-0.14313 0-0.25827-0.15725-0.25827-0.35352s0.11514-0.35351 0.25827-0.35351zm7.6647 0.84961c-0.31019 0-0.56212 0.25896-0.56212 0.57812s0.25193 0.57813 0.56212 0.57813c0.31011 0 0.56024-0.25897 0.56024-0.57813s-0.25013-0.57812-0.56024-0.57812zm-7.6647 0.5664h3.6158c0.14313 0 0.25828 0.1592 0.25828 0.35547s-0.11515 0.35352-0.25828 0.35352h-3.6158c-0.14313 0-0.25827-0.15725-0.25827-0.35352s0.11514-0.35547 0.25827-0.35547zm6.1321 0.61133c-0.0538 5e-3 -0.10372 0.044-0.13864 0.11523l-0.96472 1.9648c-0.0699 0.14248 6.2e-4 0.25781 0.15572 0.25781h3.5323c0.15511 0 0.20838-0.10541 0.11964-0.23633l-0.6134-0.90234c-0.089-0.13074-0.24997-0.14483-0.35892-0.0312l-0.23739 0.24609c-0.10904 0.11356-0.27226 0.10334-0.36652-0.0234l-0.97043-1.3027c-0.0472-0.0634-0.10383-0.093-0.15762-0.0879zm-6.1321 0.80664h3.6158c0.14313 0 0.25828 0.15725 0.25828 0.35352 0 0.19626-0.11515 0.35351-0.25828 0.35351h-3.6158c-0.14313 0-0.25827-0.15725-0.25827-0.35351 0-0.19627 0.11514-0.35352 0.25827-0.35352zm0 1.416h3.6158c0.14313 0 0.25828 0.1592 0.25828 0.35546 0 0.19627-0.11515 0.35352-0.25828 0.35352h-3.6158c-0.14313 0-0.25827-0.15725-0.25827-0.35352 0-0.19626 0.11514-0.35546 0.25827-0.35546z" fill="currentColor"/>
</svg>
