<svg viewBox="0 0 22 22" xmlns="http://www.w3.org/2000/svg">
<defs>
<style id="current-color-scheme" type="text/css">.ColorScheme-Text {
        color:#363636
      }</style>
</defs>
<path class="ColorScheme-Text" d="m4 3c-0.55402 0-1 0.44598-1 1v14c0 0.55402 0.44598 1 1 1h14c0.55402 0 1-0.44598 1-1v-14c0-0.55402-0.44598-1-1-1h-14zm3.4824 3.5449h2.3555c0.11207 0 0.21544 0.056 0.27539 0.15039l0.44531 0.70703c0.079479 0.12585 0.064519 0.28963-0.03711 0.39844l-1.3105 1.4004-0.31445 0.33789c-0.063831 0.069482-0.15227 0.10352-0.23828 0.10352-0.085994 0-0.17248-0.035345-0.23633-0.10352l-1.623-1.7383c-0.10293-0.10881-0.11659-0.27258-0.037109-0.39844l0.44531-0.70703c0.059935-0.09439 0.16464-0.15039 0.27539-0.15039zm5.8594 1.5508c0.9772 0 1.8973 0.38136 2.5879 1.0762 0.69055 0.69482 1.0703 1.6203 1.0703 2.6035 0 0.98323-0.37976 1.9067-1.0703 2.6016-0.69055 0.69482-1.6107 1.0781-2.5879 1.0781-0.032573 0-0.06248-6.42e-4 -0.09375-0.001953-0.83518-0.022287-1.6597-0.34134-2.293-0.89062-0.79999-0.69221-1.2715-1.7285-1.2715-2.7891 0-0.61354 0.14892-1.2035 0.42773-1.7305 0.17721 0.15076 0.33195 0.33003 0.45703 0.5293 0.10424 0.16912 0.18487 0.34833 0.24219 0.53711-0.054723 0.21238-0.083985 0.4366-0.083985 0.66602 0 0.71841 0.30435 1.4231 0.82422 1.916 0.4808 0.45492 1.1317 0.71484 1.791 0.71484 1.4423 0 2.6172-1.1796 2.6172-2.6309 0-1.4512-1.1748-2.6328-2.6172-2.6328-0.4912 0-0.94831 0.13771-1.3418 0.375-0.19805-0.29628-0.43537-0.56614-0.70117-0.79688 0.59935-0.40771 1.3042-0.625 2.043-0.625zm-6.3809 0.41602 0.75391 0.80859c-0.9772 0.38149-1.6719 1.3381-1.6719 2.4551-1e-7 1.4512 1.1729 2.6309 2.6152 2.6309 0.48208 0 0.93399-0.12996 1.3223-0.35938 0.13681 0.2032 0.29155 0.39591 0.46484 0.57422 0.076873 0.078658 0.15555 0.15382 0.23633 0.22461-0.59414 0.39722-1.2918 0.60938-2.0215 0.60938-0.9772 0-1.898-0.38263-2.5898-1.0801-0.69055-0.69482-1.0703-1.6183-1.0703-2.6016 0-0.98323 0.37976-1.9067 1.0703-2.6016 0.2658-0.26744 0.5662-0.48973 0.89062-0.66016zm3.3945 0.0019531c0.1759 0.091768 0.3417 0.19906 0.49805 0.31836 0.90163 0.68957 1.4655 1.7923 1.4668 2.9434 0 0.12192-0.007817 0.24525-0.019531 0.36719-0.046918 0.47195-0.1802 0.92558-0.39648 1.3398-0.27101-0.23335-0.48756-0.53094-0.62305-0.86523l-0.082031-0.20313c0.15506-0.62664 0.071798-1.3086-0.23047-1.8789-0.28145-0.53094-0.74574-0.95415-1.2969-1.1875-0.02215-0.0091768-0.04621-0.018167-0.068359-0.027344l0.75195-0.80664z" fill="#363636"/>
</svg>
