<svg xmlns="http://www.w3.org/2000/svg" width="22" height="22" version="1.1" viewBox="0 0 5.8208 5.8208">
<g fill-opacity=".47451">
<path d="m0.83785 0.94c-0.31759 0-0.57326 0.25567-0.57326 0.57326v3.0761c0 0.31759 0.25567 0.57326 0.57326 0.57326h4.2039c0.31759 0 0.57326-0.25567 0.57326-0.57326v-3.0761c0-0.31759-0.25567-0.57326-0.57326-0.57326zm0 0.38217h4.2039c0.10586 0 0.19109 0.0852 0.19109 0.19109v3.0761c0 0.10586-0.085224 0.19109-0.19109 0.19109h-4.2039c-0.10586 0-0.19109-0.0852-0.19109-0.19109v-3.0761c0-0.10586 0.085224-0.19109 0.19109-0.19109z" />
<path d="m1.9991 1.32v3.4583h0.38218v-3.4583z" />
<path transform="matrix(0.26458 0 0 0.26458 0 0)" d="m13.5 8.5v2.0273h-2.0273v1.9453h2.0273v2.0273h1.9453v-2.0273h2.0273v-1.9453h-2.0273v-2.0273h-1.9453z" />
</g>
</svg>
