<svg viewBox="0 0 22 22" xmlns="http://www.w3.org/2000/svg">
<defs>
<style id="current-color-scheme" type="text/css">.ColorScheme-Text {
        color:#4d4d4d
      }</style>
</defs>
<path class="ColorScheme-Text" d="m11 4.5c-4.4116 0-8.2131 2.5869-9.9597 6.3193-0.053692 0.11308-0.053692 0.2461 0 0.36134 1.7466 3.7324 5.5481 6.3193 9.9597 6.3193s8.2131-2.5869 9.9597-6.3193c0.05369-0.11308 0.05369-0.2461 0-0.36134-1.7466-3.7324-5.5481-6.3193-9.9597-6.3193zm0 2.0184c2.4912 0 4.5082 2.0081 4.5082 4.4836s-2.0191 4.4836-4.5082 4.4836c-2.4912 0-4.5082-2.0081-4.5082-4.4836 0-2.4776 2.0191-4.4836 4.5082-4.4836zm0 1.6104a2.886 2.8703 0 0 0-2.8869 2.8693 2.886 2.8703 0 0 0 2.8869 2.8712 2.886 2.8703 0 0 0 2.8869-2.8712 2.886 2.8703 0 0 0-2.8869-2.8693z" fill="currentColor"/>
</svg>
