<svg version="1.1" viewBox="0 0 22 22" xmlns="http://www.w3.org/2000/svg">
<defs>
<style id="current-color-scheme" type="text/css">.ColorScheme-Text {
        color:#4d4d4d
      }</style>
</defs>
<path class="ColorScheme-Text" d="m3.5674 4.2c-0.31477 0-0.56743 0.26942-0.56743 0.60312v11.594c0 0.3337 0.25266 0.60313 0.56743 0.60313h14.865c0.31478 0 0.56744-0.26942 0.56744-0.60313v-11.594c0-0.3337-0.25265-0.60312-0.56744-0.60312h-14.865zm6.1488 3.6c0.9195 0 1.6625 0.78769 1.6625 1.7625s-0.74299 1.7641-1.6625 1.7641c-0.21518 0-0.4105-0.04248-0.58658-0.10469l-0.87986 0.93438h-0.58807v0.62187h-0.5866v0.62188h-0.97862v-1.0375l2.0545-2.1766c-0.05872-0.20741-0.09728-0.41603-0.09728-0.62344 0-0.97481 0.74299-1.7625 1.6625-1.7625zm4.6116 0.44062c0.76281 0 1.384 0.65695 1.384 1.4656v0.59687c0.10902 0.02424 0.19159 0.12577 0.19159 0.24844v2.2328c0 0.14064-0.10902 0.25625-0.2417 0.25625h-2.6676c-0.1327 0-0.24024-0.11561-0.24024-0.25625v-2.2328c0-0.12267 0.08258-0.22429 0.1916-0.24844v-0.59687c0-0.80867 0.61966-1.4656 1.3824-1.4656zm-4.1223 0.18125c-0.33258 0-0.58658 0.26928-0.58658 0.62187 0 0.3526 0.254 0.62344 0.58658 0.62344 0.3326 0 0.5866-0.27084 0.5866-0.62344 0-0.35259-0.254-0.62187-0.5866-0.62187zm4.1223 0.32813c-0.49742 0-0.90198 0.4289-0.90198 0.95625v0.59062h1.804v-0.59062c0-0.52732-0.40455-0.95625-0.902-0.95625z" color="#4d4d4d" fill="currentColor"/>
</svg>
