<svg version="1.1" viewBox="0 0 22 22" xmlns="http://www.w3.org/2000/svg">
<defs>
<style id="current-color-scheme" type="text/css">.ColorScheme-Text {
        color:#4d4d4d
      }</style>
</defs>
<g transform="translate(0 .5)" fill="#4d4d4d">
<path d="m4.5996 3.8008c-0.88365 0-1.5996 0.71595-1.5996 1.5996 1e-5 0.88366 0.71596 1.5996 1.5996 1.5996s1.5996-0.71595 1.5996-1.5996c-1e-5 -0.88366-0.71596-1.5996-1.5996-1.5996z"/>
<path d="m8 4.4004c-0.54535 0-1 0.45465-1 1 0 0.54536 0.45465 1 1 1h10c0.54536 0 1-0.45464 1-1 0-0.54535-0.45464-0.99999-1-1h-10z"/>
<path d="m4.5996 8.8008c-0.88366 0-1.5996 0.71595-1.5996 1.5996s0.71595 1.5996 1.5996 1.5996 1.5996-0.71595 1.5996-1.5996-0.71595-1.5996-1.5996-1.5996z"/>
<path d="m8 9.4004c-0.54535 0-1 0.45464-1 1 0 0.54535 0.45465 1 1 1h10c0.54536 0 1-0.45465 1-1 0-0.54536-0.45464-1-1-1h-10z"/>
<path d="m4.5996 13.801c-0.88366 0-1.5996 0.71595-1.5996 1.5996s0.71595 1.5996 1.5996 1.5996 1.5996-0.71595 1.5996-1.5996-0.71595-1.5996-1.5996-1.5996z"/>
<path d="m8 14.4c-0.54535 0-1 0.45464-1 1 0 0.54535 0.45465 1 1 1h10c0.54536 0 1-0.45465 1-1 0-0.54536-0.45464-1-1-1h-10z"/>
</g>
</svg>
