<svg viewBox="0 0 22 22" xmlns="http://www.w3.org/2000/svg">
<defs>
<style id="current-color-scheme" type="text/css">.ColorScheme-Text {
        color:#4d4d4d
      }</style>
</defs>
<path class="ColorScheme-Text" d="m11 3c-0.43189 0-0.78125 0.34936-0.78125 0.78125v1.252c0 0.43154 0.34936 0.78125 0.78125 0.78125 0.43153 0 0.78125-0.34971 0.78125-0.78125v-1.252c0-0.43189-0.34936-0.78125-0.78125-0.78125zm5.1035 2.1133c-0.20014 0-0.40021 0.0779-0.55274 0.23047l-0.88476 0.88477c-0.30505 0.3054-0.30505 0.80006 0 1.1055 0.30575 0.30541 0.80042 0.30541 1.1055 0l0.88477-0.88476c0.3054-0.30505 0.3054-0.80007 0-1.1055-0.1527-0.15252-0.3526-0.23047-0.55273-0.23047zm-10.207 2e-3c-0.20008 0-0.40003 0.0758-0.55273 0.22852-0.3054 0.30505-0.3054 0.80042 0 1.1055l0.88477 0.88476c0.3054 0.30576 0.80006 0.30576 1.1055 0 0.30541-0.3054 0.30541-0.80006 0-1.1055l-0.88476-0.88476c-0.1527-0.1527-0.35265-0.22852-0.55274-0.22852zm5.1035 1.877c-2.2097 0-4.0078 1.7981-4.0078 4.0078s1.7981 4.0078 4.0078 4.0078c2.2094 0 4.0078-1.7977 4.0078-4.0078s-1.7984-4.0078-4.0078-4.0078zm-7.2188 3.2266c-0.43189 0-0.78125 0.34936-0.78125 0.78125s0.34936 0.78125 0.78125 0.78125h1.252c0.43154 0 0.78125-0.34936 0.78125-0.78125s-0.34936-0.78125-0.78125-0.78125h-1.252zm13.186 0c-0.43189 0-0.78125 0.34936-0.78125 0.78125s0.34936 0.78125 0.78125 0.78125h1.252c0.43189 0 0.78125-0.34936 0.78125-0.78125s-0.34936-0.78125-0.78125-0.78125h-1.252zm-10.186 4.2188c-0.20009 0-0.40003 0.0756-0.55273 0.22852l-0.88477 0.88476c-0.30505 0.30505-0.3054 0.80042 0 1.1055s0.80042 0.30505 1.1055 0l0.88476-0.88477c0.30541-0.30504 0.30541-0.80077 0-1.1055-0.1527-0.15288-0.35264-0.22852-0.55273-0.22852zm8.4375 0c-0.20013 0-0.40003 0.076-0.55273 0.22852-0.30541 0.30504-0.30541 0.80006 0 1.1055l0.88476 0.88477c0.3054 0.30505 0.80007 0.30505 1.1055 0s0.3054-0.80077 0-1.1055l-0.88477-0.88476c-0.15252-0.15253-0.3526-0.22852-0.55273-0.22852zm-4.2188 1.748c-0.43189 0-0.78125 0.34936-0.78125 0.78125v1.25c0 0.43224 0.34936 0.7832 0.78125 0.7832s0.78125-0.35096 0.78125-0.7832v-1.25c0-0.43189-0.34972-0.78125-0.78125-0.78125z" fill="currentColor"/>
</svg>
