<svg version="1.1" viewBox="0 0 22 22" xmlns="http://www.w3.org/2000/svg">
<defs>
<style id="current-color-scheme" type="text/css">.ColorScheme-Text {
        color:#4d4d4d
      }</style>
</defs>
<path class="ColorScheme-Text" d="m3.5674 4.2c-0.31477 0-0.56742 0.26942-0.56742 0.60313v11.594c0 0.3337 0.25265 0.60312 0.56742 0.60312h14.865c0.31476 0 0.56742-0.26942 0.56742-0.60312v-11.594c0-0.3337-0.25266-0.60313-0.56742-0.60313h-14.865zm5.9396 4.8h8.3611c0.17706 0 0.31983 0.15136 0.31983 0.33906v6.5219c0 0.1877-0.14277 0.33906-0.31983 0.33906h-8.3611c-0.17706 0-0.31982-0.15135-0.31982-0.33906v-6.5219c0-0.1877 0.14277-0.33906 0.31982-0.33906z" color="#4d4d4d" fill="currentColor"/>
</svg>
