<svg version="1.1" viewBox="0 0 22 22" xmlns="http://www.w3.org/2000/svg">
<defs>
<style id="current-color-scheme" type="text/css">.ColorScheme-Text {
        color:#4d4d4d
      }</style>
</defs>
<path class="ColorScheme-Text" d="m3.5674 4.2c-0.31477 0-0.56743 0.26944-0.56743 0.60313v11.594c0 0.33368 0.25266 0.60312 0.56743 0.60312h14.865c0.31477 0 0.56743-0.26944 0.56743-0.60312v-11.594c0-0.33368-0.25266-0.60313-0.56743-0.60313h-14.865zm6.759 3.2h1.3471c-0.0022 0.68455 0 2.4859 0 2.4859h2.1842v1.4281h-2.1842s1e-3 1.7983 0 2.4859h-1.3471c1e-3 -0.6876 0-2.4859 0-2.4859s-1.461-1e-3 -2.1842 0v-1.4266c0.72323-0.0022 2.1842-0.0016 2.1842-0.0016s-1e-3 -1.8014 0-2.4859z" color="#4d4d4d" fill="currentColor"/>
</svg>
