<svg viewBox="0 0 22 22" xmlns="http://www.w3.org/2000/svg">
<defs>
<style id="current-color-scheme" type="text/css">.ColorScheme-Text {
        color:#363636;
      }
      .ColorScheme-Highlight {
        color:#3daee9;
      }</style>
</defs>
<path class="ColorScheme-Text" d="m12.209 5.6074c-0.066029 0.026796-0.11877 0.078886-0.14648 0.14453l-4.2227 9.9883c-0.057814 0.13667 0.0058356 0.29375 0.14258 0.35156l0.70898 0.29883c0.033399 0.014204 0.06789 0.021484 0.10352 0.021484 0.03432 0 0.069162-0.006402 0.10156-0.019531 0.06603-0.026796 0.11869-0.078886 0.14648-0.14453l4.2227-9.9883c0.057737-0.13667-0.005912-0.29375-0.14258-0.35156l-0.70703-0.29883c-0.065569-0.027794-0.14092-0.028672-0.20703-0.0019531zm-4.8965 1.8477c-0.068054-0.009818-0.13979 0.0062881-0.19922 0.050781l-4.0059 2.9961c-0.067795 0.050674-0.10742 0.13008-0.10742 0.21484 0 0.084763 0.039626 0.16417 0.10742 0.21484l4.0059 2.9941c0.048217 0.036163 0.10418 0.054688 0.16016 0.054688 0.081846 0 0.1621-0.036863 0.21484-0.10742l0.46094-0.61524c0.042689-0.057199 0.060916-0.12866 0.050781-0.19922-0.010212-0.07056-0.048422-0.13505-0.10547-0.17774l-2.8945-2.1641 2.8945-2.1641c0.057046-0.042689 0.095257-0.10718 0.10547-0.17773 0.010135-0.070559-0.0080156-0.14202-0.050781-0.19922l-0.46094-0.61523c-0.044493-0.059427-0.10773-0.095651-0.17578-0.10547zm6.4824 0c-0.068045 0.0098181-0.13328 0.046081-0.17773 0.10547l-0.45898 0.61523c-0.042689 0.057123-0.060916 0.12866-0.050781 0.19922 0.010211 0.070483 0.048345 0.13505 0.10547 0.17773l2.8945 2.1641-2.8945 2.1641c-0.057124 0.042689-0.095258 0.10725-0.10547 0.17774-0.010135 0.070559 0.008015 0.1421 0.050781 0.19922l0.45898 0.61524c0.052823 0.070559 0.13495 0.10742 0.2168 0.10742 0.055972 0 0.11186-0.018602 0.16016-0.054688l4.0039-2.9941c0.067795-0.050674 0.10742-0.13008 0.10742-0.21484 0-0.084764-0.039627-0.16417-0.10742-0.21484l-4.0039-2.9961c-0.059427-0.044455-0.13117-0.060599-0.19922-0.050781z" fill="#363636"/>
<path d="m17.309 13.021c-0.30684 0-0.5905 0.075333-0.84961 0.22656-0.25913 0.1512-0.464 0.3561-0.61523 0.61523-0.15126 0.25913-0.22656 0.5428-0.22656 0.84961 0 0.30684 0.075359 0.5885 0.22656 0.84766 0.15123 0.25908 0.3561 0.464 0.61523 0.61523 0.25913 0.15123 0.54277 0.22656 0.84961 0.22656 0.30684 0 0.5905-0.075332 0.84961-0.22656 0.2591-0.1512 0.464-0.35613 0.61524-0.61523 0.1512-0.25913 0.22656-0.54084 0.22656-0.84766 0-0.30684-0.075386-0.5905-0.22656-0.84961-0.15123-0.2591-0.35613-0.464-0.61524-0.61523-0.25916-0.15123-0.54274-0.22656-0.84961-0.22656zm-0.49805 0.85156c0.038166 0 0.071715 0.013121 0.099609 0.041015l0.39844 0.39844 0.39844-0.39844c0.027841-0.027894 0.061444-0.041015 0.09961-0.041015 0.039652 0 0.073668 0.013121 0.10156 0.041015l0.19727 0.19922c0.027894 0.027895 0.042968 0.06191 0.042969 0.10156 0 0.038165-0.015075 0.069789-0.042969 0.097656l-0.39844 0.40039 0.39844 0.39844c0.027894 0.027868 0.042968 0.059491 0.042969 0.097656 0 0.039626-0.015075 0.073695-0.042969 0.10156l-0.19727 0.19922c-0.027894 0.027894-0.06191 0.041015-0.10156 0.041015-0.038166 0-0.071769-0.013121-0.09961-0.041015l-0.39844-0.39844-0.39844 0.39844c-0.027894 0.027894-0.061443 0.041015-0.099609 0.041015-0.039652 0-0.073668-0.013121-0.10156-0.041015l-0.19726-0.19922c-0.027895-0.027868-0.042969-0.061937-0.042969-0.10156 0-0.038165 0.015074-0.069788 0.042969-0.097656l0.39844-0.39844-0.39844-0.40039c-0.027895-0.027867-0.042969-0.059491-0.042969-0.097656 0-0.039653 0.015074-0.073668 0.042969-0.10156l0.19726-0.19922c0.027895-0.027894 0.061911-0.041015 0.10156-0.041015z" fill="#da4453"/>
</svg>
