<svg viewBox="0 0 22 22" xmlns="http://www.w3.org/2000/svg">
<defs>
<style id="current-color-scheme" type="text/css">.ColorScheme-Text {
        color:#363636
      }</style>
</defs>
<path class="ColorScheme-Text" d="m12.777 3.9154c-0.0868 0.0352-0.15513 0.10277-0.19155 0.18902l-5.5499 13.124c-0.076 0.17957 9e-3 0.38527 0.18903 0.46123l0.93002 0.39318c0.0439 0.0187 0.0893 0.0277 0.1361 0.0277 0.0451 0 0.091-8e-3 0.13358-0.0252 0.0868-0.0352 0.15503-0.10277 0.19155-0.18903l5.5499-13.124c0.0759-0.17957-9e-3 -0.38527-0.18903-0.46123l-0.9275-0.39318c-0.0861-0.0365-0.18534-0.0376-0.2722-3e-3zm-6.4345 2.4271c-0.0894-0.0129-0.18403 0.01-0.26212 0.068l-5.2626 3.9343c-0.0891 0.0666-0.14115 0.17091-0.14115 0.28228 0 0.11138 0.0521 0.2157 0.14115 0.28229l5.2626 3.9368c0.0634 0.0475 0.13817 0.0706 0.21171 0.0706 0.10755 0 0.21298-0.0509 0.28229-0.14367l0.60489-0.80652c0.0561-0.0752 0.0788-0.16941 0.0655-0.26212-0.0134-0.0927-0.0637-0.17578-0.13862-0.23187l-3.8033-2.8455 3.8033-2.843c0.0749-0.0561 0.1252-0.13916 0.13862-0.23187 0.0133-0.0927-9e-3 -0.18697-0.0655-0.26212l-0.60489-0.80905c-0.0585-0.0781-0.14246-0.12572-0.23188-0.13862zm8.5189 0c-0.0894 0.0129-0.17598 0.0606-0.23439 0.13862l-0.60237 0.80905c-0.0561 0.075-0.0814 0.16941-0.0681 0.26212 0.0134 0.0926 0.0636 0.17578 0.13862 0.23187l3.8033 2.843-3.8033 2.8455c-0.0751 0.0561-0.12521 0.13927-0.13862 0.23188-0.0133 0.0927 0.0119 0.18706 0.0681 0.26212l0.60237 0.80652c0.0694 0.0927 0.17726 0.14366 0.2848 0.14366 0.0735 0 0.14574-0.0231 0.20919-0.0706l5.2626-3.9368c0.0891-0.0666 0.14114-0.17091 0.14114-0.28228 0-0.11138-0.0521-0.2157-0.14114-0.28228l-5.2626-3.9343c-0.0781-0.0584-0.17019-0.081-0.2596-0.068zm3.7957 7.3242v1.7769h-1.7769v0.8897h1.7769v1.7769h0.88969v-1.7769h1.7769v-0.8897h-1.7769v-1.7769h-0.88969z" fill="#363636"/>
</svg>
