<svg xmlns="http://www.w3.org/2000/svg" width="22" height="22" version="1.1">
<g>
<g>
<g transform="matrix(0.88889 0 0 0.88889 -482.84 -656.968)">
<path d="m546.6 751.4c0.54733-0.0289 1.6084-0.122 2.6283-0.80785 0.70619-0.0375 1.0203 3.365 1.4885 3.5647 1.9198-0.20356 1.975-9.4989 3.4203-9.4786 0.67252-0.0487 2.3319 13.043 3.254 13.039 0.75057-0.0653 1.4474-8.624 3.0866-8.558 0.41063-0.038 1.9064 2.2162 3.2598 2.3876 0.24503-4e-3 0.46971-0.0772 0.7663-0.0686" fill="none" stroke="#363636" />
<g fill="none" stroke="#363636" stroke-width="1px">
<path d="m2 11c4 0 6-7.5 9-7.5s5 7.5 9 7.5" />
<path d="m546.57 751.47c4 0 6 7.5 9 7.5s5-7.5 9-7.5" />
</g>
</g>
</g>
</g>
</svg>
