<svg xmlns="http://www.w3.org/2000/svg" width="22" height="22" version="1.1">
<g>
<g>
<path d="m16.52 5.005c-0.8178 0-1.5254 0.72322-1.5234 1.5234-2e-3 0.80023 0.70564 1.4766 1.5234 1.4766 0.81779 0 1.4785-0.67632 1.4766-1.4766 2e-3 -0.80022-0.65877-1.5234-1.4766-1.5234zm-7 1c-0.81779 0-1.5254 0.72321-1.5234 1.5234-2e-3 0.80022 0.70565 1.4766 1.5234 1.4766 0.8178 0 1.4785-0.67634 1.4766-1.4766 2e-3 -0.80024-0.65876-1.5234-1.4766-1.5234zm-5 4c-0.81779 0-1.5254 0.72322-1.5234 1.5234-2e-3 0.80022 0.70564 1.4766 1.5234 1.4766 0.64749 0 1.1911-0.42614 1.3906-1h13.086v-1h-13.1c-0.21059-0.56611-0.7445-1-1.377-1zm13 3c-0.8178 0-1.5254 0.72322-1.5234 1.5234-2e-3 0.80022 0.70564 1.4766 1.5234 1.4766 0.81779 0 1.4785-0.67635 1.4766-1.4766 2e-3 -0.80022-0.65877-1.5234-1.4766-1.5234zm-5.5 1c-0.81779 0-1.5254 0.72322-1.5234 1.5234-2e-3 0.80023 0.70564 1.4766 1.5234 1.4766 0.8178 0 1.4785-0.67633 1.4766-1.4766 2e-3 -0.80022-0.65877-1.5234-1.4766-1.5234z" color="#000000" fill="#363636" style="block-progression:tb;text-decoration-line:none;text-indent:0;text-transform:none" />
</g>
</g>
</svg>
