<svg viewBox="0 0 22 22" xmlns="http://www.w3.org/2000/svg">
<defs>
<style id="current-color-scheme" type="text/css">.ColorScheme-Text {
        color:#4d4d4d
      }</style>
</defs>
<path class="ColorScheme-Text" d="m15.375 3 3.252 0.00977c0.10335 3.3e-4 0.19617 0.043528 0.26367 0.11133 0.06759 0.067766 0.10968 0.16053 0.10938 0.26367l-0.0098 3.2422c-6.26e-4 0.2063-0.17017 0.37375-0.37692 0.37305-0.20673-6.6e-4 -0.37367-0.16875-0.37305-0.375l0.009766-2.8691-2.877-0.0097656c-0.2067-6.502e-4 -0.3737-0.16683-0.37305-0.37305 5.7e-4 -0.20629 0.16814-0.37376 0.375-0.37305zm-8.75 0c0.20686-7.1e-4 0.37444 0.16676 0.375 0.37305 6.5e-4 0.20622-0.16634 0.3724-0.37305 0.37305l-2.877 0.0097656 0.009766 2.8691c6.1e-4 0.20625-0.16633 0.37434-0.37305 0.375-0.20676 7e-4 -0.37629-0.16675-0.37695-0.37305l-0.009766-3.2422c-3e-4 -0.10314 0.041785-0.1959 0.10938-0.26367 0.0675-0.0678 0.16032-0.111 0.26367-0.11133l3.252-0.0097656zm2.543 3.75c0.17101-1.414e-4 0.34213 0.063843 0.47266 0.19141l3.6621 3.5781c0.13093 0.12804 0.19665 0.29623 0.19727 0.46484 6.2e-4 0.16872-0.06532 0.33788-0.19531 0.4668l-3.6348 3.6055c-0.26011 0.25766-0.68536 0.25813-0.94727 2e-3 -0.26151-0.25599-0.26199-0.67382-0.00195-0.93164l3.1621-3.1368-3.1855-3.1133c-0.26152-0.25608-0.26395-0.67379-0.003907-0.93164 0.12954-0.12847 0.30165-0.19423 0.47266-0.19531h0.00195zm9.4453 8.25c0.20675-7e-4 0.37629 0.16676 0.37695 0.37305l0.009766 3.2422c3e-4 0.10313-0.04179 0.19589-0.10938 0.26367-0.0675 0.0678-0.16032 0.111-0.26367 0.11133l-3.252 0.009766c-0.20686 7.1e-4 -0.37443-0.16675-0.375-0.37305-6.5e-4 -0.20621 0.16635-0.3724 0.37305-0.37305l2.877-0.009765-0.009766-2.8691c-6.2e-4 -0.20624 0.16632-0.37433 0.37305-0.375zm-15.227 0c0.20672 6.7e-4 0.37366 0.16876 0.37305 0.375l-0.009766 2.8691 2.877 0.0098c0.20671 6.15e-4 0.3737 0.1668 0.37305 0.37301-5.6e-4 0.2063-0.16814 0.37376-0.375 0.37305l-3.252-0.0098c-0.10335-2.96e-4 -0.19617-0.043494-0.26367-0.11129-0.06759-0.06778-0.10968-0.16054-0.10938-0.26367l0.00977-3.2422c6.56e-4 -0.20629 0.17019-0.37375 0.37695-0.37305z" fill="currentColor"/>
</svg>
