<svg width="22" height="22" version="1.1" xmlns="http://www.w3.org/2000/svg">
<g transform="translate(0 -26)">
<path d="m3.5709 31.489c-0.15711 0-0.30211 0.04122-0.43471 0.10426l7.7152 6.1318 7.7505-6.1584c-0.11883-0.04841-0.24859-0.07776-0.38523-0.07776z" fill-opacity=".042017"/>
<path d="m3.3447 30.33c-1.0965 0-1.9792 0.8827-1.9792 1.9792v8.8779c0 0.73721 0.40366 1.3699 0.99841 1.7106l0.017671 0.02297 0.010603-7e-3c0.28332 0.15611 0.60487 0.25268 0.95247 0.25268h15.098c1.0965 0 1.9792-0.8827 1.9792-1.9792v-8.8779c0-1.0965-0.8827-1.9792-1.9792-1.9792zm0.22619 1.1592h14.646c0.13663 0 0.2664 0.02934 0.38523 0.07776l-7.7505 6.1583-7.7152-6.1318c0.1326-0.06304 0.2776-0.10426 0.43471-0.10426zm15.614 0.76692c0.02123 0.08211 0.04948 0.16201 0.04948 0.25093v8.4821c0 0.21101-0.0782 0.3962-0.18731 0.5584l-5.7749-4.5909zm-16.593 0.058312 5.8385 4.6422-5.7201 4.5468c-0.091402-0.15276-0.15727-0.32254-0.15727-0.51422v-8.4821c0-0.06832 0.026162-0.12814 0.038876-0.19262zm6.5666 5.22 1.6929 1.3465 1.6929-1.3465 5.6282 4.4725h-14.602c-0.011326 0-0.020573-0.0067-0.031807-7e-3z" fill-opacity=".51681"/>
<path d="m10.851 37.725c-6.5878 4.1173-3.2939 2.0587 0 0zm-1.6929-0.19085-5.6194 4.4655c0.011234 3.62e-4 0.020482 7e-3 0.031807 7e-3h14.602l-5.6282-4.4725-1.6929 1.3465z" fill-opacity=".20588"/>
<path d="m19.185 32.256-5.9127 4.7005 5.7749 4.5909c0.10911-0.1622 0.18731-0.34739 0.18731-0.5584v-8.4821c0-0.08892-0.02825-0.16882-0.04948-0.25093zm-16.593 0.05832c-0.012716 0.06448-0.038876 0.1243-0.038876 0.19262v8.4821c0 0.19169 0.06587 0.36146 0.15727 0.51423l5.7201-4.5468z" fill-opacity=".10084"/>
</g>
</svg>
