<svg xmlns="http://www.w3.org/2000/svg" width="22" height="22" version="1.1">
<g>
<path d="m6.0645 4.521c-0.48967 0-0.88477 0.39314-0.88477 0.88281v0.2207h0.41992c0.45295 0 0.81641 0.36541 0.81641 0.81836s-0.36346 0.81641-0.81641 0.81641h-0.41992v1.3379h0.41992c0.45295 0 0.81641 0.36346 0.81641 0.81641 0 0.45295-0.36346 0.82031-0.81641 0.82031h-0.41992v1.3359h0.41992c0.45295 0 0.81641 0.36346 0.81641 0.81641 0 0.45295-0.36346 0.81836-0.81641 0.81836h-0.41992v1.3359h0.41992c0.45295 0 0.81641 0.36541 0.81641 0.81836 0 0.45295-0.36346 0.81836-0.81641 0.81836h-0.41992v1.334h0.41992c0.45295 0 0.81641 0.36736 0.81641 0.82031s-0.36346 0.81641-0.81641 0.81641h-0.41992v0.22266c0 0.48967 0.39509 0.88281 0.88477 0.88281h10.693c0.48967 0 0.88477-0.39314 0.88477-0.88281v-13.967c0-0.48967-0.3951-0.88281-0.88477-0.88281zm5.4375 3.5879c0.71161 0 1.3581 0.135 1.9395 0.4082 0.58136 0.27003 1.0663 0.66236 1.457 1.1738 0.23826 0.31133 0.41834 0.64834 0.53906 1.0137 0.1239 0.36216 0.18555 0.74425 0.18555 1.1445 0 0.86092-0.25757 1.5293-0.77539 2.0059s-1.2498 0.71484-2.1934 0.71484h-0.18555v-0.73437c-0.0953 0.22555-0.25004 0.40222-0.46289 0.5293-0.20967 0.1239-0.45554 0.18555-0.73828 0.18555-0.54641 0-0.99089-0.19592-1.334-0.58984-0.33992-0.3971-0.50977-0.91347-0.50977-1.5488s0.17253-1.1517 0.51562-1.5488c0.3431-0.3971 0.78489-0.5957 1.3281-0.5957 0.28274 0 0.52861 0.06238 0.73828 0.18945 0.21285 0.12707 0.36759 0.30374 0.46289 0.5293v-0.62305h0.99609v3.3008c0.39392-0.06036 0.70413-0.24872 0.92969-0.56641 0.22555-0.32086 0.33789-0.72976 0.33789-1.2285 0-0.31768-0.04655-0.6162-0.13867-0.89258-0.09213-0.27956-0.23054-0.53372-0.41797-0.76562-0.3018-0.38757-0.68048-0.68682-1.1348-0.89648-0.45111-0.20967-0.9414-0.31445-1.4688-0.31445-0.36851 0-0.7199 0.048-1.0566 0.14648-0.33674 0.0953-0.64768 0.23835-0.93359 0.42578-0.47017 0.31133-0.83789 0.7134-1.1016 1.209-0.2605 0.4924-0.39062 1.0266-0.39062 1.6016 0 0.47335 0.083582 0.91782 0.25195 1.334 0.17155 0.41298 0.41742 0.77802 0.73828 1.0957 0.31768 0.31133 0.68199 0.54892 1.0918 0.71094 0.41298 0.16519 0.85332 0.24805 1.3203 0.24805 0.40028 0 0.80089-0.0753 1.2012-0.22461 0.40028-0.14931 0.7407-0.35132 1.0234-0.60547l0.50976 0.77148c-0.3971 0.30815-0.83061 0.54501-1.3008 0.70703-0.46699 0.16519-0.94095 0.24609-1.4238 0.24609-0.58771 0-1.1431-0.10478-1.6641-0.31445-0.521-0.20649-0.98399-0.5072-1.3906-0.9043-0.40663-0.3971-0.71684-0.85596-0.92969-1.377-0.21285-0.52417-0.31836-1.0871-0.31836-1.6875 0-0.57818 0.1082-1.1301 0.32422-1.6543s0.52355-0.98376 0.92383-1.3809c0.40028-0.39392 0.86596-0.69999 1.3965-0.91602 0.5337-0.21602 1.0864-0.32227 1.6582-0.32227zm-0.06641 3.0449c-0.27956 0-0.5035 0.11234-0.67188 0.33789-0.16519 0.22238-0.24805 0.52576-0.24805 0.91016 0 0.39075 0.08285 0.69828 0.24805 0.92383 0.16837 0.22555 0.39573 0.33789 0.68164 0.33789 0.28274 0 0.50741-0.11234 0.67578-0.33789 0.16837-0.22873 0.25195-0.53626 0.25195-0.92383 0-0.38439-0.08431-0.68778-0.25586-0.91016-0.16837-0.22555-0.39573-0.33789-0.68164-0.33789z" fill-opacity=".16" />
<path d="m5.666 3.437c-0.80796 0-1.459 0.65103-1.459 1.459v0.73047l0.97266-2e-3v-0.2207c0-0.48967 0.39509-0.88281 0.88477-0.88281h10.693c0.48967 0 0.88477 0.39314 0.88477 0.88281v13.967c0 0.48967-0.3951 0.88281-0.88477 0.88281h-10.693c-0.48967 0-0.88477-0.39314-0.88477-0.88281v-0.22261h-0.97266v0.73047c0 0.80796 0.65103 1.459 1.459 1.459h11.49c0.80796 0 1.459-0.65103 1.459-1.459v-14.982c0-0.80796-0.65103-1.459-1.459-1.459zm-1.459 3.8223v1.3379h0.97266v-1.3379zm0 2.9746v1.3359h0.97266v-1.3359zm0 2.9707v1.3359h0.97266v-1.3359zm0 2.9727v1.334h0.97266v-1.334z" fill-opacity=".56444" />
<path d="m3.0803 5.626c-0.45295 0-0.81836 0.36346-0.81836 0.81641s0.36541 0.81836 0.81836 0.81836h2.5195c0.45295 0 0.81641-0.36541 0.81641-0.81836s-0.36346-0.81641-0.81641-0.81641zm0 2.9707c-0.45295 0-0.81836 0.36541-0.81836 0.81836 0 0.45295 0.36541 0.81836 0.81836 0.81836h2.5195c0.45295 0 0.81641-0.36541 0.81641-0.81836s-0.36346-0.81836-0.81641-0.81836zm0 2.9727c-0.45295 0-0.81836 0.36541-0.81836 0.81836 0 0.45295 0.36541 0.81641 0.81836 0.81641h2.5195c0.45295 0 0.81641-0.36346 0.81641-0.81641 0-0.45294-0.36346-0.81836-0.81641-0.81836zm0 2.9727c-0.45295 0-0.81836 0.36346-0.81836 0.81641 0 0.45295 0.36541 0.81836 0.81836 0.81836h2.5195c0.45295 0 0.81641-0.36541 0.81641-0.81836 0-0.45295-0.36346-0.81641-0.81641-0.81641zm0 2.9707c-0.45295 0-0.81836 0.36541-0.81836 0.81836 0 0.45295 0.36541 0.81836 0.81836 0.81836h2.5195c0.45295 0 0.81641-0.36541 0.81641-0.81836s-0.36346-0.81836-0.81641-0.81836z" fill-opacity=".62222" />
</g>
</svg>
