<svg width="22" height="22" version="1.1" xmlns="http://www.w3.org/2000/svg">
<g transform="translate(0 -26)">
<path transform="translate(0 26)" d="m4.8633 5.2695c-0.15279 1e-7 -0.29758 0.030231-0.42969 0.085938-0.13229 0.055889-0.25158 0.1383-0.35156 0.23828-0.099214 0.099505-0.18083 0.21801-0.23633 0.34961-0.055706 0.1321-0.085938 0.27689-0.085938 0.42969v1.666h14.189v-1.6641c0-6.678e-4 1e-6 -0.0012856 0-0.0019531 0-0.15213-0.030692-0.29609-0.085938-0.42773-2.13e-4 -5.036e-4 2.14e-4 -0.0014499 0-0.0019531-0.11173-0.26337-0.32452-0.47616-0.58789-0.58789-5.78e-4 -2.435e-4 -0.001376 2.425e-4 -0.001953 0-0.13171-0.055645-0.27567-0.085669-0.42774-0.085938h-0.19726v0.13867c0 0.76226-0.6147 1.377-1.377 1.377-0.76226 0-1.375-0.6147-1.375-1.377v-0.13867h-1.666v0.13867c0 0.76226-0.6147 1.377-1.377 1.377-0.76226 0-1.375-0.6147-1.375-1.377v-0.13867h-1.668v0.13867c0 0.76226-0.61274 1.377-1.375 1.377s-1.375-0.6147-1.375-1.377v-0.13867h-0.19727zm-1.1035 3.9922v9.0938c0 0.30559 0.12278 0.58177 0.32227 0.78125 0.19948 0.19948 0.47566 0.32226 0.78125 0.32226h11.982c0.1528 0 0.29758-0.030231 0.42969-0.085937 0.04257-0.017951 0.07366-0.053237 0.11328-0.076172 0.082678-0.048158 0.16912-0.092947 0.23633-0.16016 0.099985-0.099985 0.18239-0.21928 0.23828-0.35156 0.055707-0.1321 0.085938-0.27689 0.085938-0.42969v-9.0938h-14.189z" fill-opacity=".062222"/>
<path transform="translate(0 26)" d="m4.0293 3.6055c-1.0725 0-1.9355 0.86309-1.9355 1.9355v13.648c0 1.0725 0.86309 1.9355 1.9355 1.9355h13.648c1.0725 0 1.9355-0.86309 1.9355-1.9355v-13.648c0-1.0725-0.86309-1.9355-1.9355-1.9355h-1.0293v1.6641h0.19726c0.61118 0 1.1035 0.49234 1.1035 1.1035v1.666h-14.189v-1.666c0-0.61118 0.49234-1.1035 1.1035-1.1035h0.19727v-1.6641h-1.0312zm3.7812 0v1.6641h1.668v-1.6641h-1.668zm4.4199 0v1.6641h1.666v-1.6641h-1.666zm-8.4707 5.6562h14.189v9.0938c0 0.61118-0.49234 1.1035-1.1035 1.1035h-11.982c-0.61118 0-1.1035-0.49234-1.1035-1.1035v-9.0938z" fill-opacity=".43111"/>
<path d="m6.4355 27.281c-0.76226 0-1.3759 0.61366-1.3759 1.3759v2.7518c0 0.76226 0.61366 1.3759 1.3759 1.3759s1.3759-0.61366 1.3759-1.3759v-2.7518c0-0.76226-0.61366-1.3759-1.3759-1.3759zm4.4182 0c-0.76226 0-1.3759 0.61366-1.3759 1.3759v2.7518c0 0.76226 0.61366 1.3759 1.3759 1.3759 0.76226 0 1.3759-0.61366 1.3759-1.3759v-2.7518c0-0.76226-0.61366-1.3759-1.3759-1.3759zm4.4182 0c-0.76226 0-1.3759 0.61366-1.3759 1.3759v2.7518c0 0.76226 0.61366 1.3759 1.3759 1.3759 0.76226 0 1.3759-0.61366 1.3759-1.3759v-2.7518c0-0.76226-0.61366-1.3759-1.3759-1.3759z" fill-opacity=".62667"/>
<path d="m9.0664 37.328-1.8887 0.97461 0.50977 0.98828 0.26562-0.13672v4.5117h1.1133z" color="#000000" color-rendering="auto" dominant-baseline="auto" fill-opacity=".33333" image-rendering="auto" shape-rendering="auto" solid-color="#000000" style="font-feature-settings:normal;font-variant-alternates:normal;font-variant-caps:normal;font-variant-ligatures:normal;font-variant-numeric:normal;font-variant-position:normal;isolation:auto;mix-blend-mode:normal;shape-padding:0;text-decoration-color:#000000;text-decoration-line:none;text-decoration-style:solid;text-indent:0;text-orientation:mixed;text-transform:none;white-space:normal"/>
<path d="m12.703 37.09-2.8867 3.5469 0.43164 0.9082h2.3301v2.1211h1.1113v-2.1211h0.5918v-1.1133h-0.5918v-2.9902zm-0.125 1.916v1.4258h-1.1602z" color="#000000" color-rendering="auto" dominant-baseline="auto" fill-opacity=".33333" image-rendering="auto" shape-rendering="auto" solid-color="#000000" style="font-feature-settings:normal;font-variant-alternates:normal;font-variant-caps:normal;font-variant-ligatures:normal;font-variant-numeric:normal;font-variant-position:normal;isolation:auto;mix-blend-mode:normal;shape-padding:0;text-decoration-color:#000000;text-decoration-line:none;text-decoration-style:solid;text-indent:0;text-orientation:mixed;text-transform:none;white-space:normal"/>
</g>
</svg>
