<svg xmlns="http://www.w3.org/2000/svg" width="16" height="16" version="1.1" viewBox="0 0 16 16">
<g fill="#dedede">
<path d="m2.5 3c-0.831 0-1.5 0.669-1.5 1.5s0.669 1.5 1.5 1.5 1.5-0.669 1.5-1.5-0.669-1.5-1.5-1.5zm-0.02539 1c0.0085-4.3e-4 0.01674 0 0.02539 0 0.277 0 0.5 0.223 0.5 0.5s-0.223 0.5-0.5 0.5-0.5-0.223-0.5-0.5c0-0.26834 0.2097-0.48666 0.47461-0.5z" />
<rect x="5" y="4" width="10" height="1" />
<path d="m2.5 7c-0.831 0-1.5 0.669-1.5 1.5s0.669 1.5 1.5 1.5 1.5-0.669 1.5-1.5-0.669-1.5-1.5-1.5zm-0.02539 1c0.0085-4.3e-4 0.01674 0 0.02539 0 0.277 0 0.5 0.223 0.5 0.5s-0.223 0.5-0.5 0.5-0.5-0.223-0.5-0.5c0-0.26834 0.2097-0.48666 0.47461-0.5z" />
<rect x="5" y="8" width="10" height="1" />
<path d="m2.5 11c-0.831 0-1.5 0.669-1.5 1.5s0.669 1.5 1.5 1.5 1.5-0.669 1.5-1.5-0.669-1.5-1.5-1.5zm-0.02539 1c0.0085-4.3e-4 0.01674 0 0.02539 0 0.277 0 0.5 0.223 0.5 0.5s-0.223 0.5-0.5 0.5-0.5-0.223-0.5-0.5c0-0.26834 0.2097-0.48666 0.47461-0.5z" />
<rect x="5" y="12" width="10" height="1" />
</g>
</svg>
