<svg width="128" height="128" xmlns="http://www.w3.org/2000/svg">
<linearGradient id="a" x1="-33.765" x2="-33.765" y1="1105.9" y2="1113.2" gradientUnits="userSpaceOnUse">
<stop stop-color="#a5e3fe" offset="0"/>
<stop stop-color="#b6e7fe" offset="1"/>
</linearGradient>
<linearGradient id="b" x1="-24.331" x2="-24.331" y1="1110.9" y2="1147.2" gradientUnits="userSpaceOnUse">
<stop stop-color="#75d3f9" offset="0"/>
<stop stop-color="#84dafd" offset=".5"/>
<stop stop-color="#81d4f6" offset="1"/>
</linearGradient>
<linearGradient id="c" x1="-34.465" x2="-34.465" y1="1109.7" y2="1111.6" gradientUnits="userSpaceOnUse">
<stop stop-color="#a5e3fe" stop-opacity="0" offset="0"/>
<stop stop-color="#c2ebfe" stop-opacity=".74254" offset="1"/>
</linearGradient>
<filter id="d" x="-.01615" y="-.020329" width="1.0323" height="1.0407" color-interpolation-filters="sRGB">
<feGaussianBlur stdDeviation=".81567628"/>
</filter>
<linearGradient id="e" x1="-21.401" x2="-21.939" y1="1115.6" y2="1136.9" gradientUnits="userSpaceOnUse">
<stop stop-color="#1296d5" offset="0"/>
<stop stop-color="#4fb6e8" offset="1"/>
</linearGradient>
<g transform="matrix(2.2139 0 0 2.2139 109.49 -2416.9)">
<path transform="matrix(.4517 0 0 .4517 -49.457 1091.7)" d="m7.623 27.084c-2.5051 0-4.5215 2.0163-4.5215 4.5215v87.252c0 2.5052 2.0164 4.5215 4.5215 4.5215h112.09c2.5051 0 4.5234-2.0163 4.5234-4.5215v-54.102c0.04991-0.33606 0.08398-0.67612 0.08398-1.0215v-19.689c0-0.37702-0.03322-0.74354-0.08398-1.1035v-1.5957c0-2.505-2.0183-4.5215-4.5234-4.5215h-70.963c-4.2358 0-6.1169-9.7402-10.645-9.7402z" filter="url(#d)" opacity=".19"/>
<path d="m-46.014 1103.9c-1.1316 0-2.0423 0.9113-2.0423 2.0429v32.524c0 1.1316 0.91072 2.0423 2.0423 2.0423h0.73917c0.17421 0.051 0.35835 0.079 0.54953 0.079h48.054c1.074 0 1.9386 2.2673 1.9386 1.1933v-1.0286c0.81085 0.5767 1.3929 1.9171 1.3929 1.0131v-20.849c0.022543-0.1518 0.03826-0.3054 0.03826-0.4614v-8.8939c0-0.1703-0.015331-0.3359-0.03826-0.4985v-0.7209c0-1.1315-0.91128-2.0422-2.0428-2.0422h-32.054c-1.9133 0-2.7631-4.3996-4.8082-4.3996z" fill="url(#a)"/>
<path d="m-46.014 1103.9c-1.1316 0-2.0423 0.9113-2.0423 2.0429v32.524c0 1.1316 0.91072 2.0423 2.0423 2.0423h50.631c1.1316 0 2.0428 2.3887 2.0428 1.2571v-20.849c0.022543-0.1518 0.03826-0.3054 0.03826-0.4614v-8.8939c0-0.1703-0.015331-0.3359-0.03826-0.4985v-0.7209c0-1.1315-0.91128-2.0422-2.0428-2.0422h-32.054c-1.9133 0-2.7631-4.3996-4.8082-4.3996z" fill="url(#c)"/>
<path d="m-46.014 1110.8h50.631c1.1316 0 2.0425 0.911 2.0425 2.0425v32.524c0 1.1316-0.91097 2.0425-2.0425 2.0425h-50.631c-1.1316 0-2.0425-0.9109-2.0425-2.0425v-32.524c0-1.1315 0.91097-2.0425 2.0425-2.0425z" fill="url(#b)"/>
<g fill="#6fc1ec">
<path transform="matrix(.28103 0 0 .28103 -48.934 1097.1)" d="m3.2402344 173.16211c.04118.23715.094771.47068.1582031.69922h194.1542925c.0634-.22854.11703-.46207.15821-.69922z"/>
<path transform="matrix(.28103 0 0 .28103 -48.934 1097.1)" d="m3.125 168.32v0.70117h194.7v-0.70117z"/>
<path transform="matrix(.28103 0 0 .28103 -48.934 1097.1)" d="m3.125 162.66v0.69922h194.7v-0.69922z"/>
</g>
<path d="m-48.074 1143v0.2531h54.735v-0.2784z" fill="#abdbf4"/>
<path d="m-48.074 1144.6v0.2531h54.735v-0.2785z" fill="#abdbf4"/>
<path d="m-48.074 1145.9v0.2531h54.735v-0.2785z" fill="#abdbf4"/>
<path transform="matrix(.4517 0 0 .4517 -49.457 1091.7)" d="m7.623 27.084c-2.5051 0-4.5215 2.0163-4.5215 4.5215v87.252c0 2.5052 2.0164 4.5215 4.5215 4.5215h112.09c2.5051 0 4.5234-2.0163 4.5234-4.5215v-54.102c0.04991-0.33606 0.08398-0.67612 0.08398-1.0215v-19.689c0-0.37702-0.03322-0.74354-0.08398-1.1035v-1.5957c0-2.505-2.0183-4.5215-4.5234-4.5215h-70.963c-4.2358 0-6.1169-9.7402-10.645-9.7402zm0 0.90039h30.482c0.8092 0 1.5408 0.4263 2.3301 1.2461 0.78929 0.81957 1.5626 1.996 2.3438 3.2109 0.78114 1.2147 1.5691 2.4663 2.4961 3.4707 0.92697 1.0044 2.0707 1.8125 3.4746 1.8125h70.963c2.0222 0 3.623 1.5996 3.623 3.6211v1.6582l0.00976 0.0625c0.04655 0.33009 0.07422 0.65418 0.07422 0.97852v19.689c0 0.28603-0.02852 0.58094-0.07422 0.88867l-0.00976 0.066406v54.168c0 2.0219-1.6008 3.6211-3.623 3.6211h-112.09c-2.0222 0-3.6211-1.5987-3.6211-3.6211v-87.252c0-2.0224 1.5989-3.6211 3.6211-3.6211z" fill="#fff" fill-opacity=".48837"/>
<path d="m-21.401205 1115.608a11.91731 11.91731 0 0 0 -11.91709 11.918 11.91731 11.91731 0 0 0 11.91709 11.9171 11.91731 11.91731 0 0 0 11.9179804-11.9171 11.91731 11.91731 0 0 0 -11.9179804-11.918zm0 1.3022a10.61576 10.61576 0 0 1 10.61582 10.6158 10.61576 10.61576 0 0 1 -10.61582 10.6158 10.61576 10.61576 0 0 1 -10.615808-10.6158 10.61576 10.61576 0 0 1 10.615808-10.6158zm-.0882 1.2236-.812529.042.04058.8125.812529-.041zm1.69917.1403-.12352.8072.2382.035.51611.1324.20115-.787-.52934-.1367-.0397-.01zm-4.186162.2214-.199384.05-.03881.014-.569917.2091.278784.764.556683-.2029.173796-.045zm6.615802.5523-.35377.7367.38641.1852h.006l.28937.1738.42347-.6934-.29643-.1791-.0335-.02zm-8.949288.4747-.328187.2011-.03176.022-.343187.2576.486109.6502.334362-.2479.0097-.01.296423-.1782zm11.078098.9281-.54698.6008.44729.4067.0362.04-7.330403 4.7322-5.722111 7.8668 8.172044-5.2757 5.72211-7.8668-.24878.1606.0873-.079-.12881-.1403-.0273-.026zm-13.047222.6863-.359065.397-.02382.029-.167621.2241.650198.487.162332-.2152.0062-.01.333481-.3652zm14.726982 1.2263-.6952.4244.38995.6431.01.019h.003.002l.0291-.018.6996-.3379-.0159-.034-.0194-.033zm-16.193238.854-.305249.6335-.01324.034-.04147.1094.764008.2796.02558-.072.0035-.01.299075-.6211zm17.281018 1.4089-.76401.2806.0177.048.18174.6987.78694-.2029-.17909-.7013-.0141-.039zm-18.128839.9599-.0079.026-.0079.041-.1191.7755.804585.1226.117338-.7613.0018-.014-.130573-.02zm9.191899 1.1239a.81576935.81576935 0 0 1 .81606.8152.81576935.81576935 0 0 1 -.81606.8161.81576935.81576935 0 0 1 -.815175-.8161.81576935.81576935 0 0 1 .815175-.8152zm9.37629.4323-.81077.042.0159.3396-.0388.7932.81253.041.0406-.8125-.40582-.022.40582-.02zm-17.929455.9502-.810768.042.01588.3299.0035.041.07234.4764.804589-.1226-.07058-.457zm16.812555 1.745-.0671.2532-.002.01-.17203.4694.76224.2788.18526-.5056.0132-.039.0671-.2664zm-16.3538.5144-.764009.2814.195857.5293.01324.037.109392.225.73225-.3538-.103223-.2144-.0035-.011zm15.43541 1.6003-.21262.3556-.008.01-.20732.2796.6502.4861.21702-.2893.0221-.031.23379-.3882zm-14.388209.4597-.651084.4914.437584.584.02382.029.05646.062.601677-.547-.03176-.033-.0053-.01zm12.938709 1.3471-.41729.3767-.008.01-.16056.1191.48875.6529.16762-.1271.0291-.023.44729-.4067zm-11.364822.3767-.148212.1968-.381121.4199.01147.011.02911.023.641381.4782.486105-.6502zm9.488332.9678-.65638.3229h-.0115l-.0317.012.28142.7631.0432-.016.0353-.016.69078-.3334zm-7.498028.2612-.353776.7322.162332.078.03705.016.593736.2171.279665-.764-.574327-.2091zm5.287168.5461-.0644.019-.69784.1076.12351.8028.70843-.1076.0397-.01.0935-.025zm-3.068377.087-.123508.809.408467.063h.04147l.399648.02.0415-.8126-.381118-.018z" fill="url(#e)" opacity=".504"/>
</g>
</svg>
