<svg width="128" height="128" xmlns="http://www.w3.org/2000/svg">
<linearGradient id="a" x1="-33.765" x2="-33.765" y1="1105.9" y2="1113.2" gradientUnits="userSpaceOnUse">
<stop stop-color="#a5e3fe" offset="0"/>
<stop stop-color="#b6e7fe" offset="1"/>
</linearGradient>
<linearGradient id="b" x1="-24.331" x2="-24.331" y1="1110.9" y2="1147.2" gradientUnits="userSpaceOnUse">
<stop stop-color="#75d3f9" offset="0"/>
<stop stop-color="#84dafd" offset=".5"/>
<stop stop-color="#81d4f6" offset="1"/>
</linearGradient>
<linearGradient id="c" x1="-34.465" x2="-34.465" y1="1109.7" y2="1111.6" gradientUnits="userSpaceOnUse">
<stop stop-color="#a5e3fe" stop-opacity="0" offset="0"/>
<stop stop-color="#c2ebfe" stop-opacity=".74254" offset="1"/>
</linearGradient>
<filter id="d" x="-.01615" y="-.020329" width="1.0323" height="1.0407" color-interpolation-filters="sRGB">
<feGaussianBlur stdDeviation=".81567628"/>
</filter>
<linearGradient id="e" x1="-67.815" x2="-69.088" y1="1119.1" y2="1145.5" gradientUnits="userSpaceOnUse">
<stop stop-color="#1296d5" offset="0"/>
<stop stop-color="#4fb6e8" offset="1"/>
</linearGradient>
<g transform="matrix(2.2139 0 0 2.2139 109.49 -2416.9)">
<path transform="matrix(.4517 0 0 .4517 -49.457 1091.7)" d="m7.623 27.084c-2.5051 0-4.5215 2.0163-4.5215 4.5215v87.252c0 2.5052 2.0164 4.5215 4.5215 4.5215h112.09c2.5051 0 4.5234-2.0163 4.5234-4.5215v-54.102c0.04991-0.33606 0.08398-0.67612 0.08398-1.0215v-19.689c0-0.37702-0.03322-0.74354-0.08398-1.1035v-1.5957c0-2.505-2.0183-4.5215-4.5234-4.5215h-70.963c-4.2358 0-6.1169-9.7402-10.645-9.7402z" filter="url(#d)" opacity=".19"/>
<path d="m-46.014 1103.9c-1.1316 0-2.0423 0.9113-2.0423 2.0429v32.524c0 1.1316 0.91072 2.0423 2.0423 2.0423h0.73917c0.17421 0.051 0.35835 0.079 0.54953 0.079h48.054c1.074 0 1.9386 2.2673 1.9386 1.1933v-1.0286c0.81085 0.5767 1.3929 1.9171 1.3929 1.0131v-20.849c0.022543-0.1518 0.03826-0.3054 0.03826-0.4614v-8.8939c0-0.1703-0.015331-0.3359-0.03826-0.4985v-0.7209c0-1.1315-0.91128-2.0422-2.0428-2.0422h-32.054c-1.9133 0-2.7631-4.3996-4.8082-4.3996z" fill="url(#a)"/>
<path d="m-46.014 1103.9c-1.1316 0-2.0423 0.9113-2.0423 2.0429v32.524c0 1.1316 0.91072 2.0423 2.0423 2.0423h50.631c1.1316 0 2.0428 2.3887 2.0428 1.2571v-20.849c0.022543-0.1518 0.03826-0.3054 0.03826-0.4614v-8.8939c0-0.1703-0.015331-0.3359-0.03826-0.4985v-0.7209c0-1.1315-0.91128-2.0422-2.0428-2.0422h-32.054c-1.9133 0-2.7631-4.3996-4.8082-4.3996z" fill="url(#c)"/>
<path d="m-46.014 1110.8h50.631c1.1316 0 2.0425 0.911 2.0425 2.0425v32.524c0 1.1316-0.91097 2.0425-2.0425 2.0425h-50.631c-1.1316 0-2.0425-0.9109-2.0425-2.0425v-32.524c0-1.1315 0.91097-2.0425 2.0425-2.0425z" fill="url(#b)"/>
<g fill="#6fc1ec">
<path transform="matrix(.28103 0 0 .28103 -48.934 1097.1)" d="m3.2402344 173.16211c.04118.23715.094771.47068.1582031.69922h194.1542925c.0634-.22854.11703-.46207.15821-.69922z"/>
<path transform="matrix(.28103 0 0 .28103 -48.934 1097.1)" d="m3.125 168.32v0.70117h194.7v-0.70117z"/>
<path transform="matrix(.28103 0 0 .28103 -48.934 1097.1)" d="m3.125 162.66v0.69922h194.7v-0.69922z"/>
</g>
<path d="m-48.074 1143v0.2531h54.735v-0.2784z" fill="#abdbf4"/>
<path d="m-48.074 1144.6v0.2531h54.735v-0.2785z" fill="#abdbf4"/>
<path d="m-48.074 1145.9v0.2531h54.735v-0.2785z" fill="#abdbf4"/>
<path transform="matrix(.4517 0 0 .4517 -49.457 1091.7)" d="m7.623 27.084c-2.5051 0-4.5215 2.0163-4.5215 4.5215v87.252c0 2.5052 2.0164 4.5215 4.5215 4.5215h112.09c2.5051 0 4.5234-2.0163 4.5234-4.5215v-54.102c0.04991-0.33606 0.08398-0.67612 0.08398-1.0215v-19.689c0-0.37702-0.03322-0.74354-0.08398-1.1035v-1.5957c0-2.505-2.0183-4.5215-4.5234-4.5215h-70.963c-4.2358 0-6.1169-9.7402-10.645-9.7402zm0 0.90039h30.482c0.8092 0 1.5408 0.4263 2.3301 1.2461 0.78929 0.81957 1.5626 1.996 2.3438 3.2109 0.78114 1.2147 1.5691 2.4663 2.4961 3.4707 0.92697 1.0044 2.0707 1.8125 3.4746 1.8125h70.963c2.0222 0 3.623 1.5996 3.623 3.6211v1.6582l0.00976 0.0625c0.04655 0.33009 0.07422 0.65418 0.07422 0.97852v19.689c0 0.28603-0.02852 0.58094-0.07422 0.88867l-0.00976 0.066406v54.168c0 2.0219-1.6008 3.6211-3.623 3.6211h-112.09c-2.0222 0-3.6211-1.5987-3.6211-3.6211v-87.252c0-2.0224 1.5989-3.6211 3.6211-3.6211z" fill="#fff" fill-opacity=".48837"/>
<path d="m-23.137 1115.2c-0.28829 0.01-0.57918 0.085-0.84656 0.2392-0.85564 0.494-1.1482 1.5877-0.65413 2.4433l1.8281 3.1659-5.8453 10.126h-4.5634c-0.98809 0-1.7886 0.8005-1.7886 1.7885 0 0.9882 0.80049 1.7888 1.7886 1.7888h16.267c0.78602-1.4619-0.22676-3.5773-2.0221-3.5773h-5.5527l7.6734-13.292c0.49404-0.8556 0.2015-1.9493-0.65413-2.4433-0.85563-0.4941-1.9494-0.2008-2.4435 0.6548 0 0-0.39656 1.3752-0.79458 1.3773-0.39736 0-0.79535-1.3773-0.79535-1.3773-0.33966-0.5882-0.96268-0.9104-1.5969-0.894zm5.0359 6.8488c-1.0577 0.8739-2.1273 3.4697-0.63163 6.0608 2.2053 3.819 4.4107 7.6387 6.615 11.458 0.49404 0.8556 1.5878 1.1483 2.4435 0.6542 0.85564-0.4941 1.1482-1.5871 0.65413-2.4427l-1.7474-3.0285h2.5894c0.98809 0 1.7886-0.8005 1.7886-1.7886 0-0.9881-0.80048-1.7887-1.7886-1.7887h-4.6549c-1.7557-3.0415-3.5122-6.0826-5.2679-9.1242zm-11.633 13.268c-0.54245 0.024-1.0502 0.3036-1.3323 0.7922l-1.2865 2.2285c-0.45135 0.7818-0.14984 1.7954 0.67585 2.272 0.8257 0.4768 1.854 0.2308 2.3054-0.5508l1.2865-2.2286c0.45135-0.7818 0.14983-1.7944-0.67585-2.2712-0.30963-0.1788-0.64758-0.2566-0.97304-0.2421z" fill="url(#e)" opacity=".5"/>
</g>
</svg>
