<svg width="128" height="128" version="1.1" xmlns="http://www.w3.org/2000/svg" xmlns:xlink="http://www.w3.org/1999/xlink">
<defs>
<linearGradient id="linearGradient912" x1="57.944" x2="57.944" y1="41.437" y2="122.36" gradientTransform="translate(0,-11)" gradientUnits="userSpaceOnUse">
<stop stop-color="#a69de9" offset="0"/>
<stop stop-color="#b3abec" stop-opacity=".90588" offset=".49474"/>
<stop stop-color="#a69de9" stop-opacity=".96198" offset="1"/>
</linearGradient>
<linearGradient id="linearGradient943" x1="64.431" x2="67.898" y1="53.31" y2="170.48" gradientTransform="translate(-2.1528 -11.554)" gradientUnits="userSpaceOnUse">
<stop stop-color="#8a80d6" offset="0"/>
<stop stop-color="#8a80d6" stop-opacity="0" offset="1"/>
</linearGradient>
</defs>
<filter id="d" x="-.01615" y="-.020329" width="1.0323" height="1.0407" color-interpolation-filters="sRGB">
<feGaussianBlur stdDeviation=".81567628"/>
</filter>
<path d="m7.623 16.084c-2.5051 0-4.5215 2.0163-4.5215 4.5215v87.252c0 2.5052 2.0164 4.5215 4.5215 4.5215h112.09c2.5051 0 4.5234-2.0163 4.5234-4.5215v-54.102c0.0499-0.33606 0.084-0.67612 0.084-1.0215v-19.689c0-0.37702-0.0332-0.74354-0.084-1.1035v-1.5957c0-2.505-2.0183-4.5215-4.5234-4.5215h-70.963c-4.2358 0-6.1169-9.7402-10.645-9.7402z" filter="url(#d)" opacity=".19"/>
<path d="m7.6228 16.084c-2.5051 0-4.5213 2.0175-4.5213 4.5227v72.003c0 2.5052 2.0162 4.5214 4.5213 4.5214h1.6364c0.38568 0.1129 0.79334 0.17489 1.2166 0.17489h106.38c2.3776 0 4.2918 5.0195 4.2918 2.6418v-2.2772c1.7951 1.2767 3.0838 4.2442 3.0838 2.2429v-46.157c0.0499-0.33606 0.0847-0.67611 0.0847-1.0215v-19.69c0-0.37702-0.0339-0.74364-0.0847-1.1036v-1.596c0-2.505-2.0174-4.5212-4.5226-4.5212h-70.964c-4.2358 0-6.1172-9.7401-10.645-9.7401z" fill="#c1b8ff" stroke-width="2.2139"/>
<path d="m7.6228 31.333h112.09c2.5051 0 4.5219 2.0168 4.5219 4.5218v72.003c0 2.5052-2.0168 4.5218-4.5219 4.5218h-112.09c-2.5051 0-4.5219-2.0166-4.5219-4.5218v-72.003c0-2.505 2.0168-4.5218 4.5219-4.5218z" fill="url(#linearGradient912)" stroke-width="2.2139"/>
<g transform="matrix(2.2139 0 0 2.2139 109.49 -2416.9)" fill="#9287e4" fill-opacity=".90588" stroke-width=".28103">
<path d="m-48.024 1140.8c0.01157 0.067 0.02663 0.1323 0.04446 0.1965h54.563c0.017817-0.064 0.032889-0.1298 0.044461-0.1965z"/>
<path d="m-48.056 1139.4v0.197h54.716v-0.197z"/>
<path d="m-48.056 1137.8v0.1965h54.716v-0.1965z"/>
</g>
<path d="m3.0615 102.59v0.56033h121.18v-0.61634z" fill="#c29cf2" stroke-width="2.2139"/>
<path d="m3.0615 106.08v0.56033h121.18v-0.61656z" fill="#c29cf2" stroke-width="2.2139"/>
<path d="m3.0615 109.06v0.56033h121.18v-0.61656z" fill="#c29cf2" stroke-width="2.2139"/>
<path d="m7.623 16.084c-2.5051 0-4.5215 2.0163-4.5215 4.5215v87.252c0 2.5052 2.0164 4.5215 4.5215 4.5215h112.09c2.5051 0 4.5234-2.0163 4.5234-4.5215v-54.102c0.0499-0.33606 0.084-0.67612 0.084-1.0215v-19.689c0-0.37702-0.0332-0.74354-0.084-1.1035v-1.5957c0-2.505-2.0183-4.5215-4.5234-4.5215h-70.963c-4.2358 0-6.1169-9.7402-10.645-9.7402zm0 0.90039h30.482c0.8092 0 1.5408 0.4263 2.3301 1.2461 0.78929 0.81957 1.5626 1.996 2.3438 3.2109 0.78114 1.2147 1.5691 2.4663 2.4961 3.4707 0.92697 1.0044 2.0707 1.8125 3.4746 1.8125h70.963c2.0222 0 3.623 1.5996 3.623 3.6211v1.6582l0.01 0.0625c0.0466 0.33009 0.0742 0.65418 0.0742 0.97852v19.689c0 0.28603-0.0285 0.58094-0.0742 0.88867l-0.01 0.06641v54.168c0 2.0219-1.6008 3.6211-3.623 3.6211h-112.09c-2.0222 0-3.6211-1.5987-3.6211-3.6211v-87.252c0-2.0224 1.5989-3.6211 3.6211-3.6211z" fill="#fff" fill-opacity=".48837"/>
<path d="m62.279 41.756c-0.58429 0-1.0547 0.4704-1.0547 1.0547v5.3008a20.662 20.662 0 0 0-5.6855 1.5195l-2.6484-4.5879c-0.29214-0.50601-0.9354-0.67691-1.4414-0.38476l-2.4082 1.3887c-0.50601 0.29214-0.67691 0.9354-0.38477 1.4414l2.6484 4.5859a20.662 20.662 0 0 0-4.1602 4.166l-4.5898-2.6504c-0.50601-0.29214-1.1473-0.12124-1.4394 0.38477l-1.3906 2.4082c-0.29214 0.50601-0.12124 1.1493 0.38477 1.4414l4.5723 2.6406a20.662 20.662 0 0 0-1.5137 5.6914h-5.291c-0.58429 0-1.0547 0.4704-1.0547 1.0547v2.7812c0 0.58429 0.4704 1.0547 1.0547 1.0547h5.3008a20.662 20.662 0 0 0 1.5215 5.6836l-4.5898 2.6504c-0.50601 0.29214-0.67691 0.93345-0.38477 1.4395l1.3906 2.4082c0.29214 0.50601 0.93344 0.67886 1.4394 0.38672l4.5879-2.6484a20.662 20.662 0 0 0 4.1641 4.1582l-2.6504 4.5898c-0.29214 0.50601-0.12124 1.1493 0.38477 1.4414l2.4082 1.3906c0.50601 0.29215 1.1493 0.11929 1.4414-0.38671l2.6387-4.5723a20.662 20.662 0 0 0 5.6953 1.5156v5.2891c0 0.58428 0.4704 1.0547 1.0547 1.0547h2.7793c0.58429 0 1.0547-0.47041 1.0547-1.0547v-5.3008a20.662 20.662 0 0 0 5.6855-1.5195l2.6484 4.5879c0.29214 0.506 0.9354 0.67886 1.4414 0.38671l2.4062-1.3906c0.50601-0.29214 0.67886-0.9354 0.38672-1.4414l-2.6484-4.5859a20.662 20.662 0 0 0 4.1602-4.1641l4.5898 2.6504c0.50601 0.29214 1.1473 0.11929 1.4395-0.38672l1.3906-2.4082c0.29214-0.50601 0.11929-1.1473-0.38672-1.4395l-4.5723-2.6387a20.662 20.662 0 0 0 1.5156-5.6953h5.291c0.58429 0 1.0547-0.4704 1.0547-1.0547v-2.7812c0-0.58429-0.4704-1.0547-1.0547-1.0547h-5.3008a20.662 20.662 0 0 0-1.5215-5.6836l4.5879-2.6484c0.50601-0.29214 0.67886-0.9354 0.38672-1.4414l-1.3906-2.4082c-0.29214-0.50601-0.93345-0.67691-1.4395-0.38477l-4.5859 2.6484a20.662 20.662 0 0 0-4.166-4.1602l2.6504-4.5898c0.29214-0.50601 0.11929-1.1493-0.38672-1.4414l-2.4062-1.3887c-0.50601-0.29214-1.1493-0.12124-1.4414 0.38476l-2.6387 4.5723a20.662 20.662 0 0 0-5.6953-1.5156v-5.2891c0-0.58429-0.4704-1.0547-1.0547-1.0547zm1.3887 15.34a11.505 11.505 0 0 1 11.506 11.506 11.505 11.505 0 0 1-11.506 11.506 11.505 11.505 0 0 1-11.504-11.506 11.505 11.505 0 0 1 11.504-11.506z" fill="url(#linearGradient943)" style="paint-order:fill markers stroke"/>
</svg>
