<svg width="128" height="128" version="1.1" xmlns="http://www.w3.org/2000/svg">
<linearGradient id="a" x1="-33.765" x2="-33.765" y1="1105.9" y2="1113.2" gradientTransform="matrix(2.2139 0 0 2.2139 109.49 -2416.9)" gradientUnits="userSpaceOnUse">
<stop stop-color="#a5e3fe" offset="0"/>
<stop stop-color="#b6e7fe" offset="1"/>
</linearGradient>
<linearGradient id="b" x1="-24.331" x2="-24.331" y1="1110.9" y2="1147.2" gradientTransform="matrix(2.2139 0 0 2.2139 109.49 -2416.9)" gradientUnits="userSpaceOnUse">
<stop stop-color="#75d3f9" offset="0"/>
<stop stop-color="#84dafd" offset=".5"/>
<stop stop-color="#81d4f6" offset="1"/>
</linearGradient>
<linearGradient id="c" x1="-34.465" x2="-34.465" y1="1109.7" y2="1111.6" gradientTransform="matrix(2.2139 0 0 2.2139 109.49 -2416.9)" gradientUnits="userSpaceOnUse">
<stop stop-color="#a5e3fe" stop-opacity="0" offset="0"/>
<stop stop-color="#c2ebfe" stop-opacity=".74254" offset="1"/>
</linearGradient>
<filter id="d" x="-.01615" y="-.020329" width="1.0323" height="1.0407" color-interpolation-filters="sRGB">
<feGaussianBlur stdDeviation=".81567628"/>
</filter>
<linearGradient id="e" x1="-22.212" x2="-22.212" y1="1117" y2="1142.3" gradientTransform="matrix(2.0287 0 0 2.0287 105.56 -2212.5)" gradientUnits="userSpaceOnUse">
<stop stop-color="#1296d5" offset="0"/>
<stop stop-color="#4fb6e8" offset="1"/>
</linearGradient>
<path d="m7.623 27.084c-2.5051 0-4.5215 2.0163-4.5215 4.5215v87.252c0 2.5052 2.0164 4.5215 4.5215 4.5215h112.09c2.5051 0 4.5234-2.0163 4.5234-4.5215v-54.102c0.0499-0.33606 0.084-0.67612 0.084-1.0215v-19.689c0-0.37702-0.0332-0.74354-0.084-1.1035v-1.5957c0-2.505-2.0183-4.5215-4.5234-4.5215h-70.963c-4.2358 0-6.1169-9.7402-10.645-9.7402z" filter="url(#d)" opacity=".19"/>
<path d="m7.6228 27.084c-2.5051 0-4.5213 2.0175-4.5213 4.5227v72.003c0 2.5052 2.0162 4.5214 4.5213 4.5214h1.6364c0.38568 0.1129 0.79334 0.17489 1.2166 0.17489h106.38c2.3776 0 4.2918 5.0195 4.2918 2.6418v-2.2772c1.7951 1.2767 3.0838 4.2442 3.0838 2.2429v-46.157c0.0499-0.33606 0.0847-0.67611 0.0847-1.0215v-19.69c0-0.37702-0.0339-0.74364-0.0847-1.1036v-1.596c0-2.505-2.0174-4.5212-4.5226-4.5212h-70.964c-4.2358 0-6.1172-9.7401-10.645-9.7401z" fill="url(#a)" stroke-width="2.2139"/>
<path d="m7.6228 27.084c-2.5051 0-4.5213 2.0175-4.5213 4.5227v72.003c0 2.5052 2.0162 4.5214 4.5213 4.5214h112.09c2.5051 0 4.5226 5.2882 4.5226 2.783v-46.157c0.0499-0.33606 0.0847-0.67611 0.0847-1.0215v-19.69c0-0.37702-0.0339-0.74364-0.0847-1.1036v-1.596c0-2.505-2.0174-4.5212-4.5226-4.5212h-70.964c-4.2358 0-6.1172-9.7401-10.645-9.7401z" fill="url(#c)" stroke-width="2.2139"/>
<path d="m7.6228 42.333h112.09c2.5051 0 4.5219 2.0168 4.5219 4.5218v72.003c0 2.5052-2.0168 4.5218-4.5219 4.5218h-112.09c-2.5051 0-4.5219-2.0166-4.5219-4.5218v-72.003c0-2.505 2.0168-4.5218 4.5219-4.5218z" fill="url(#b)" stroke-width="2.2139"/>
<g transform="matrix(2.2139 0 0 2.2139 109.49 -2416.9)" fill="#6fc1ec">
<path transform="matrix(.28103 0 0 .28103 -48.934 1097.1)" d="m3.2402 173.16c0.04118 0.23715 0.094771 0.47068 0.1582 0.69922h194.15c0.0634-0.22854 0.11703-0.46207 0.15821-0.69922z"/>
<path transform="matrix(.28103 0 0 .28103 -48.934 1097.1)" d="m3.125 168.32v0.70117h194.7v-0.70117z"/>
<path transform="matrix(.28103 0 0 .28103 -48.934 1097.1)" d="m3.125 162.66v0.69922h194.7v-0.69922z"/>
</g>
<path d="m3.0615 113.59v0.56033h121.18v-0.61634z" fill="#abdbf4" stroke-width="2.2139"/>
<path d="m3.0615 117.08v0.56033h121.18v-0.61656z" fill="#abdbf4" stroke-width="2.2139"/>
<path d="m3.0615 120.06v0.56033h121.18v-0.61656z" fill="#abdbf4" stroke-width="2.2139"/>
<path d="m7.623 27.084c-2.5051 0-4.5215 2.0163-4.5215 4.5215v87.252c0 2.5052 2.0164 4.5215 4.5215 4.5215h112.09c2.5051 0 4.5234-2.0163 4.5234-4.5215v-54.102c0.0499-0.33606 0.084-0.67612 0.084-1.0215v-19.689c0-0.37702-0.0332-0.74354-0.084-1.1035v-1.5957c0-2.505-2.0183-4.5215-4.5234-4.5215h-70.963c-4.2358 0-6.1169-9.7402-10.645-9.7402zm0 0.90039h30.482c0.8092 0 1.5408 0.4263 2.3301 1.2461 0.78929 0.81957 1.5626 1.996 2.3438 3.2109 0.78114 1.2147 1.5691 2.4663 2.4961 3.4707 0.92697 1.0044 2.0707 1.8125 3.4746 1.8125h70.963c2.0222 0 3.623 1.5996 3.623 3.6211v1.6582l0.01 0.0625c0.0466 0.33009 0.0742 0.65418 0.0742 0.97852v19.689c0 0.28603-0.0285 0.58094-0.0742 0.88867l-0.01 0.06641v54.168c0 2.0219-1.6008 3.6211-3.623 3.6211h-112.09c-2.0222 0-3.6211-1.5987-3.6211-3.6211v-87.252c0-2.0224 1.5989-3.6211 3.6211-3.6211z" fill="#fff" fill-opacity=".48837"/>
<path d="m63.668 53.027c-14.773 0-26.749 11.976-26.749 26.749 0 14.773 11.976 26.747 26.749 26.747 14.773 0 26.749-11.974 26.749-26.747 0-14.773-11.976-26.749-26.749-26.749zm-15.285 11.464h7.6425l7.6425 11.464 7.6425-11.464h7.6425v30.568h-7.6425v-15.283l-7.6425 7.6407-7.6425-7.6407v15.283h-7.6425z" fill="url(#e)" opacity=".5" stroke-width="2.0287"/>
<g transform="matrix(34.713 0 0 34.713 121.12 -1566.8)" display="none">
<image x="-2.1485" y="-.078224" width="52.592" height="52.014"/>
</g>
<g transform="matrix(44.158 0 0 44.158 78.074 -2008.2)" display="none">
<image x="-2.1485" y="-.078224" width="52.592" height="52.014"/>
</g>
</svg>
