<svg width="36" height="36" version="1.1" xmlns="http://www.w3.org/2000/svg">
<defs>
<linearGradient id="linearGradient4263" x1="-116.62" x2="-116.63" y1="-9.25" y2="22.25" gradientTransform="matrix(.6735 0 0 .6735 97.04 18.847)" gradientUnits="userSpaceOnUse"/>
</defs>
<g transform="translate(-442,-156)">
<g transform="matrix(.81683 0 0 .81683 194.76 44.262)">
<path transform="translate(442,156)" d="m-124.94-9.3555h-2.4004l-10.748 8.5879v19.393c-0.0392 1.1516-8e-3 2.293 0.46093 3.3887 0.46926 1.0957 1.6874 2.0702 3.0859 2.1387l0.0371 2e-3h34.156c1.4418-1e-3 2.7734-0.85776 3.334-1.9648 0.56056-1.1071 0.62733-2.282 0.63867-3.5l2e-3 -0.0059v-0.0078-19.443l-11.016-8.5879h-2.1465zm-1.4531 2.5h3.9551 10.402 3.6992l7.8809 6.0879h-33.615zm-8.6953 9.0879h35.715v16.43c-0.01 1.0457-0.15679 1.8586-0.31641 2.1738-0.15961 0.31523-0.054 0.31776-0.66015 0.31836h-34.043c-0.45305-0.0222-0.33005 0.0198-0.47656-0.32227-0.14652-0.34209-0.25347-1.1439-0.22071-2.1055l2e-3 -0.02539v-16.469zm12.539 3.3926c-1.2292 0-2.25 1.0208-2.25 2.25v1.75c0 1.2292 1.0208 2.25 2.25 2.25h10.625c1.2292 0 2.25-1.0208 2.25-2.25v-1.75c0-1.2292-1.0208-2.25-2.25-2.25zm0 2h10.625c0.1558 0 0.25 0.0942 0.25 0.25v1.75c0 0.1558-0.0942 0.25-0.25 0.25h-10.625c-0.1558 0-0.25-0.0942-0.25-0.25v-1.75c0-0.1558 0.0942-0.25 0.25-0.25z" color="#000000" color-rendering="auto" fill="#656363" fill-opacity=".75686" image-rendering="auto" shape-rendering="auto" solid-color="#000000" style="block-progression:tb;isolation:auto;mix-blend-mode:normal;text-decoration-color:#000000;text-decoration-line:none;text-decoration-style:solid;text-indent:0;text-transform:none;white-space:normal"/>
<path transform="matrix(1.4848 0 0 1.4848 297.92 128.02)" d="m11.918 14.229-5.1719 4.1016h11.746 10.895l-5.3086-4.1016h-2.4902-7.0078zm-5.8574 6.1211v11.092 0.01758c-0.022091 0.64762 0.049763 1.1876 0.14844 1.418 0.098674 0.23038 0.015177 0.20184 0.32031 0.2168h22.928c0.40824-4.04e-4 0.33782-0.0025 0.44531-0.21484 0.1075-0.21232 0.20616-0.75858 0.21289-1.4629v-11.066zm8.4453 3.6328h7.1562c0.10493 0 0.16797 0.06304 0.16797 0.16797v1.1777c0 0.10493-0.06304 0.16992-0.16797 0.16992h-7.1562c-0.10493 0-0.16797-0.06499-0.16797-0.16992v-1.1777c0-0.10493 0.06304-0.16797 0.16797-0.16797z" fill="url(#linearGradient4263)" opacity=".611"/>
</g>
</g>
</svg>
