<svg viewBox="0 0 22 22" xmlns="http://www.w3.org/2000/svg">
<path d="m15.814 11.949c-0.19064-0.18782-0.61343-0.2873-1.2568-0.29575-0.43551-0.0051-0.95968 0.0336-1.511 0.11075-0.24688-0.14245-0.5013-0.29747-0.70106-0.48414-0.53728-0.50173-0.98578-1.1981-1.2652-1.9639 0.0182-0.07153 0.03371-0.1344 0.04815-0.19855 0 0 0.30264-1.719 0.22253-2.3002-0.01101-0.07971-0.01781-0.10283-0.03922-0.16478l-0.02629-0.06753c-0.08232-0.18986-0.24372-0.39105-0.49676-0.38007l-0.1484-0.0045-0.0045-7.9e-5c-0.28218 0-0.51216 0.14432-0.57254 0.36004-0.18351 0.67657 0.0058 1.6887 0.34899 2.9996l-0.08783 0.21351c-0.2457 0.59895-0.5536 1.2022-0.82527 1.7343l-0.03534 0.06923c-0.2858 0.55931-0.54512 1.0341-0.7802 1.4363l-0.24272 0.12834c-0.017698 0.0093-0.43366 0.22934-0.53123 0.28837-0.82772 0.49422-1.3762 1.0553-1.4672 1.5005-0.028991 0.14207-0.00742 0.32386 0.13987 0.40805l0.23475 0.11814c0.10184 0.05102 0.20923 0.07687 0.31924 0.07687 0.58954 0 1.274-0.73439 2.2168-2.3798 1.0886-0.3544 2.328-0.64897 3.4142-0.81145 0.82778 0.46612 1.8459 0.78984 2.4885 0.78984 0.11409 0 0.21245-0.0109 0.29237-0.03203 0.12324-0.03259 0.22711-0.10293 0.29044-0.1983 0.12466-0.18761 0.14995-0.44605 0.11611-0.71066-0.01011-0.0785-0.07282-0.17559-0.14067-0.24189zm-8.8055 3.137c0.10749-0.29395 0.53305-0.87506 1.1623-1.3907 0.039554-0.032082 0.137-0.1234 0.22623-0.20818-0.65798 1.0494-1.0986 1.4677-1.3885 1.5989zm3.7267-8.582c0.18952 0 0.2973 0.47767 0.30626 0.92549 0.0089 0.44784-0.0958 0.76215-0.22572 0.99471-0.10761-0.34432-0.1596-0.88703-0.1596-1.2419 0 0-0.0079-0.67831 0.07906-0.67831zm-1.1117 6.1157c0.13201-0.23631 0.26936-0.48553 0.40971-0.74982 0.34212-0.64699 0.55819-1.1532 0.71911-1.5694 0.32005 0.58227 0.71862 1.0773 1.1872 1.4739 0.05844 0.04944 0.12036 0.09918 0.18541 0.14877-0.95282 0.18852-1.7763 0.41781-2.5014 0.6965zm6.0074-0.05366c-0.05804 0.0363-0.22427 0.05726-0.3312 0.05726-0.3451 0-0.77208-0.15778-1.3707-0.4144 0.22999-0.01702 0.44087-0.02568 0.62999-0.02568 0.34614 0 0.44868-0.0017 0.78715 0.08484 0.33847 0.08633 0.34273 0.26168 0.28472 0.29797zm3.3686-1.5658a8 8 0 0 1-8 8 8 8 0 0 1-8-8 8 8 0 0 1 8-8 8 8 0 0 1 8 8z" fill="#d24d57"/>
</svg>
