<svg width="22" height="22" viewBox="2.999 3 16 16" xmlns="http://www.w3.org/2000/svg">
<defs>
<style id="current-color-scheme" type="text/css">.ColorScheme-Text {
        color:#f2f2f2
      }</style>
</defs>
<path class="ColorScheme-Text" d="m12.988 3c-0.82668 0-1.9819 0.47798-2.5664 1.0625l-6.9844 6.9844c-0.58449 0.58449-0.58449 1.5405 0 2.125l5.3906 5.3906c0.58449 0.58452 1.5405 0.58452 2.125 0l6.9844-6.9844c0.58449-0.58452 1.0625-1.7398 1.0625-2.5664v-4.5078c-3e-5 -0.82662-0.67533-1.5039-1.502-1.5039h-4.5098zm2.5117 2c0.82842 0 1.5 0.67158 1.5 1.5s-0.67158 1.5-1.5 1.5-1.5-0.67155-1.5-1.5c0-0.82842 0.67158-1.5 1.5-1.5z" fill="currentColor"/>
</svg>
