<svg viewBox="0 0 22 22" xmlns="http://www.w3.org/2000/svg">
<defs>
<style id="current-color-scheme" type="text/css">.ColorScheme-Text {
        color:#dedede
      }</style>
</defs>
<path class="ColorScheme-Text" d="m12.198 12.05c-0.0542-0.0177-0.397-0.17224-0.18281-0.82333h-3e-3c0.55832-0.57504 0.985-1.5004 0.985-2.4113 0-1.4008-0.93146-2.1351-2.014-2.1351-1.0832 0-2.0096 0.73398-2.0096 2.1351 0 0.91474 0.42429 1.8438 0.98603 2.4175 0.21896 0.57435-0.17258 0.78752-0.25444 0.81719-0.76323 0.24681-2.8395 1.4773-2.8066 3.2694h8.2028c0.0366-1.7119-1.6057-2.8235-2.9033-3.2694zm6.802-1.0502a8 8 0 0 1-8 8 8 8 0 0 1-8-8 8 8 0 0 1 8-8 8 8 0 0 1 8 8z" fill="currentColor"/>
</svg>
