<svg viewBox="0 0 22 22" xmlns="http://www.w3.org/2000/svg">
<defs>
<style id="current-color-scheme" type="text/css">.ColorScheme-Text {
        color:#f2f2f2
      }</style>
</defs>
<g transform="translate(1 -1031.4)" fill="currentColor">
<path class="ColorScheme-Text" d="m13.308 1044.4q-0.98394 0-1.6525-0.6036-0.65596-0.6033-0.65596-1.5956 0-1.0729 0.78211-1.6764 0.78211-0.6168 1.93-0.6168 1.0218 0 1.6778 0.4023v-0.1877q0-0.7242-0.46674-1.1533-0.46674-0.4425-1.1479-0.4425-0.50459 0-0.92087 0.2547-0.40367 0.2549-0.55505 0.6974l-1.0596-0.4827q0.21445-0.5901 0.84518-1.0862 0.63073-0.5096 1.6651-0.5096 1.1858 0 1.9679 0.7375 0.78211 0.7376 0.78211 2.0785v3.9694h-1.1101v-0.9119h-0.05046q-0.69381 1.1265-2.031 1.1265zm0.18922-1.1265q0.71904 0 1.2993-0.5631 0.59289-0.5767 0.59289-1.3545-0.49197-0.4292-1.4759-0.4292-0.84518 0-1.2741 0.389-0.4289 0.3888-0.4289 0.9118 0 0.4829 0.39106 0.7644 0.39105 0.2816 0.89564 0.2816z"/>
<path class="ColorScheme-Text" d="m6.0538 1045.4h-1.0663l1.2796-2.7989-2.2673-5.2011h1.1224l1.6388 3.9887h0.022449l1.5939-3.9887h1.1224l-3.4459 8z"/>
<rect class="ColorScheme-Text" x="2" y="1046.4" width="16" height="1.5" ry=".5"/>
</g>
</svg>
