<svg width="22" height="22" viewBox="6 3 9 16" xmlns="http://www.w3.org/2000/svg">
<defs>
<style id="current-color-scheme" type="text/css">.ColorScheme-Text {
        color:#f2f2f2
      }</style>
</defs>
<g transform="translate(1 -1031.4)" fill="currentColor">
<path class="ColorScheme-Text" d="m11.099 1041.4q-0.8945 0-1.5023-0.5173-0.59633-0.5172-0.59633-1.3678 0-0.9195 0.71101-1.4368 0.71101-0.5287 1.7546-0.5287 0.9289 0 1.5252 0.3448v-0.1609q0-0.6207-0.42431-0.9885-0.42431-0.3793-1.0436-0.3793-0.45872 0-0.83716 0.2184-0.36697 0.2184-0.50459 0.5977l-0.9633-0.4138q0.19495-0.5058 0.76835-0.931 0.57339-0.4368 1.5138-0.4368 1.078 0 1.789 0.6321 0.71101 0.6323 0.71101 1.7817v3.4023h-1.0092v-0.7816h-0.04587q-0.63073 0.9655-1.8463 0.9655zm0.17202-0.9655q0.65367 0 1.1812-0.4828 0.53899-0.4943 0.53899-1.1609-0.44725-0.3679-1.3417-0.3679-0.76835 0-1.1583 0.3334-0.38991 0.3333-0.38991 0.7816 0 0.4138 0.3555 0.6552t0.81422 0.2414z"/>
<path class="ColorScheme-Text" d="m10.867 1049.4h-0.96939l1.1633-2.4491-2.0612-4.5509h1.0204l1.4898 3.49h0.02041l1.449-3.49h1.0204l-3.1327 7z"/>
<path class="ColorScheme-Text" d="m11.099 1041.4q-0.8945 0-1.5023-0.5173-0.59633-0.5172-0.59633-1.3678 0-0.9195 0.71101-1.4368 0.71101-0.5287 1.7546-0.5287 0.9289 0 1.5252 0.3448v-0.1609q0-0.6207-0.42431-0.9885-0.42431-0.3793-1.0436-0.3793-0.45872 0-0.83716 0.2184-0.36697 0.2184-0.50459 0.5977l-0.9633-0.4138q0.19495-0.5058 0.76835-0.931 0.57339-0.4368 1.5138-0.4368 1.078 0 1.789 0.6321 0.71101 0.6323 0.71101 1.7817v3.4023h-1.0092v-0.7816h-0.04587q-0.63073 0.9655-1.8463 0.9655zm0.17202-0.9655q0.65367 0 1.1812-0.4828 0.53899-0.4943 0.53899-1.1609-0.44725-0.3679-1.3417-0.3679-0.76835 0-1.1583 0.3334-0.38991 0.3333-0.38991 0.7816 0 0.4138 0.3555 0.6552t0.81422 0.2414z"/>
</g>
<rect class="ColorScheme-Text" x="6" y="3" width="1.5" height="16" ry=".5" fill="currentColor"/>
</svg>
