<svg viewBox="0 0 22 22" xmlns="http://www.w3.org/2000/svg">
<defs>
<style id="current-color-scheme" type="text/css">.ColorScheme-Text {
        color:#f2f2f2
      }</style>
</defs>
<path class="ColorScheme-Text" d="m1.7188 3c-0.38451 0-0.59375 0.1798-0.59375 0.53906v0.96484c0 0.34762 0.20867 0.4375 0.60742 0.4375h3.1309l2.3965 10.174c-0.38063 0.40329-0.58789 0.99273-0.58789 1.541 0 1.2066 0.96017 2.3184 2.1875 2.3184 1.1587 0 2.0269-1.087 2.168-1.7344h4.668c0.14112 0.64733 0.84483 1.7598 2.168 1.7598 1.206 0 2.1875-1.0453 2.1875-2.25 0-1.1982-0.72965-2.2598-2.1758-2.2598-0.60137 0-1.3151 0.3231-1.6465 0.80859h-5.7344c-0.41623-0.64733-0.98377-0.84844-1.5586-0.87109l-0.080078-0.42383h8.7246c0.65768 0 0.78778-0.23945 0.9043-0.55664l2.3359-6.9883c0.11717-0.33596 0.028104-0.53853-0.066406-0.67188-0.2421-0.34114-0.73948-0.34375-0.83594-0.34375l-13.197-0.0019532-0.35156-1.6719c-0.095157-0.39422-0.37695-0.76953-0.94336-0.76953h-3.707z" fill="currentColor"/>
</svg>
