<svg viewBox="0 0 22 22" xmlns="http://www.w3.org/2000/svg">
<defs>
<style id="current-color-scheme" type="text/css">.ColorScheme-Text {
        color:#f2f2f2
      }</style>
</defs>
<path class="ColorScheme-Text" d="m4.1827 3c-1.6668 0-1.7097 1.4124-1.7097 1.4124v10.345s0.02035 1.2543 1.5943 1.1816h7.2048l1.0388 3.0615h5.6046c1.9064 0 1.5924-1.4241 1.5924-1.4241v-10.419s-0.20485-1.2646-2.0051-1.1913h-6.7314l-0.99572-2.9656h-5.5929zm2.281 3.4782h1.385c0.10938 0 0.20619 0.07159 0.23866 0.17606l1.6784 5.4148c0.023562 0.07571 0.00995 0.15912-0.037179 0.22301-0.046952 0.06365-0.12207 0.09977-0.20149 0.09977h-0.91356c-0.11013 0-0.20707-0.07241-0.23866-0.17801l-0.40298-1.34h-1.6941l-0.37168 1.3361c-0.030026 0.10781-0.12669 0.18193-0.23866 0.18193h-0.86074c-0.079173 0-0.1544-0.03626-0.20149-0.09977-0.047085-0.06375-0.060385-0.14736-0.037179-0.22301l1.6569-5.4148c0.032092-0.10484 0.12897-0.17606 0.23866-0.17606zm0.62991 1.0016-0.62404 2.3944h1.3087l-0.66707-2.3944h-0.017595zm8.3453 2.0834h0.54383c0.12028 0 0.21714 0.09687 0.21714 0.21714v0.29735h1.6961c0.12028 0 0.21714 0.09692 0.21714 0.21714v0.581c0 0.12028-0.09692 0.21714-0.21714 0.21714h-0.17215c-0.09764 0.8411-0.54066 1.7287-1.3185 2.639 0.35429 0.3817 0.78864 0.67665 1.0192 0.81966 0.09029 0.05586 0.12628 0.1678 0.08608 0.26605l-0.19953 0.48906c-0.02536 0.06173-0.07844 0.10881-0.14281 0.12715-0.06442 0.01817-0.13186 6e-3 -0.18584-0.03324-0.35385-0.25736-0.95103-0.72123-1.205-0.98594-0.6865 0.65767-1.3436 1.1113-1.5963 1.2774-0.03576 0.02345-0.07709 0.03523-0.11933 0.03523-0.0052 0-0.01044-0.0015-0.01564-0.0019l-0.29735-0.8803c0.27404-0.18659 0.84257-0.59317 1.4398-1.1737-0.53904-0.79519-0.83001-1.5772-0.9566-1.9758-0.021-0.06629-0.0097-0.13955 0.03129-0.19562 0.04102-0.05602 0.10664-0.08998 0.17606-0.08998h0.53405c0.09215 0 0.17454 0.05978 0.2054 0.14672 0.12214 0.34451 0.33599 0.8613 0.66903 1.3948 0.52251-0.64702 0.8338-1.2721 0.9253-1.8584h-3.2473c-0.12022 0-0.2172-0.0972-0.21714-0.21714v-0.581c0-0.12027 0.09692-0.21714 0.21714-0.21714h1.696v-0.29735c0-0.12033 0.09693-0.21714 0.21714-0.21714z" fill="currentColor"/>
</svg>
