<svg viewBox="0 0 22 22" xmlns="http://www.w3.org/2000/svg">
<defs>
<style id="current-color-scheme" type="text/css">.ColorScheme-Text {
        color:#f2f2f2
      }</style>
</defs>
<path class="ColorScheme-Text" d="m11 4.0918c-0.19694 0-0.36778 0.071045-0.51172 0.21484l-3.7832 3.7852h-2.9785c-0.19708 0-0.36583 0.071045-0.50977 0.21484-0.14394 0.14394-0.2168 0.31478-0.2168 0.51172v4.3633c0 0.19694 0.072859 0.36792 0.2168 0.51172 0.14408 0.14394 0.31283 0.21484 0.50977 0.21484h2.9785l3.7832 3.7852c0.14394 0.1438 0.31478 0.21484 0.51172 0.21484 0.19708 0 0.36778-0.071045 0.51172-0.21484 0.14394-0.1438 0.21484-0.31478 0.21484-0.51172v-12.363c0-0.19694-0.071045-0.36778-0.21484-0.51172-0.14408-0.1438-0.31464-0.21484-0.51172-0.21484zm4.1816 1.498c-0.19694 0-0.36764 0.072859-0.51172 0.2168-0.1438 0.14394-0.21484 0.31478-0.21484 0.51172 0 0.29555 0.14781 0.51831 0.44336 0.66992 0.42414 0.21967 0.71181 0.38647 0.86328 0.5 0.56069 0.40922 0.99812 0.92161 1.3125 1.5391 0.31438 0.61746 0.4707 1.2757 0.4707 1.9727s-0.15633 1.3532-0.4707 1.9707c-0.31438 0.6176-0.75195 1.1319-1.3125 1.541-0.15147 0.11367-0.43914 0.28033-0.86328 0.5-0.29555 0.15161-0.44336 0.37437-0.44336 0.66992 0 0.19694 0.071045 0.36792 0.21484 0.51172 0.14408 0.14408 0.31883 0.21484 0.52344 0.21484 0.090938 0 0.18487-0.018982 0.2832-0.056641 1.0604-0.44716 1.9127-1.1596 2.5566-2.1406 0.64396-0.98093 0.9668-2.0518 0.9668-3.2109 0-1.1592-0.32284-2.2295-0.9668-3.2109-0.64396-0.98093-1.4962-1.6956-2.5566-2.1426-0.098329-0.037798-0.19659-0.056641-0.29492-0.056641zm-1.1367 2.6816c-0.19694 0-0.36792 0.070905-0.51172 0.21094-0.1438 0.14017-0.21484 0.31311-0.21484 0.51758 0 0.15914 0.045642 0.29244 0.13672 0.40234 0.090938 0.10991 0.19925 0.20566 0.32812 0.28516 0.1286 0.079501 0.25784 0.16702 0.38672 0.26172 0.12888 0.094703 0.23914 0.22814 0.33008 0.40234 0.090659 0.17434 0.13672 0.39083 0.13672 0.64844s-0.045921 0.47409-0.13672 0.64844c-0.090938 0.17434-0.2012 0.3075-0.33008 0.40234-0.12888 0.094704-0.25812 0.18222-0.38672 0.26172-0.12888 0.079361-0.23719 0.17344-0.32812 0.2832-0.090937 0.11005-0.13672 0.24516-0.13672 0.4043 0 0.20461 0.071046 0.37741 0.21484 0.51758 0.1438 0.14017 0.31478 0.20898 0.51172 0.20898 0.11353 0 0.20942-0.018982 0.28516-0.05664 0.53042-0.21242 0.9553-0.56625 1.2773-1.0625 0.32205-0.49611 0.48438-1.0317 0.48438-1.6074s-0.16233-1.1133-0.48438-1.6133c-0.32219-0.50002-0.74692-0.85398-1.2773-1.0586-0.075735-0.037798-0.17162-0.056641-0.28516-0.056641z" fill="currentColor"/>
</svg>
