<svg viewBox="0 0 22 22" xmlns="http://www.w3.org/2000/svg">
<defs>
<style id="current-color-scheme" type="text/css">.ColorScheme-Text {
        color:#f2f2f2
      }</style>
</defs>
<path class="ColorScheme-Text" d="m12.264 3c-0.22806 0-0.4259 0.082337-0.59259 0.24879l-4.3811 4.3834h-3.4493c-0.22823 0-0.42365 0.082337-0.59032 0.24879-0.16669 0.16669-0.25106 0.36453-0.25106 0.59259v5.0529c0 0.22806 0.084421 0.42607 0.25106 0.59259 0.16684 0.16669 0.36226 0.2488 0.59032 0.2488h3.4493l4.3811 4.3834c0.16669 0.16653 0.36453 0.24881 0.59259 0.24881 0.22823 0 0.4259-0.08222 0.59259-0.24881 0.16669-0.16653 0.24879-0.36453 0.24879-0.59259v-14.317c0-0.22806-0.08222-0.42591-0.24879-0.59259-0.16685-0.16652-0.36437-0.24879-0.59259-0.24879z" fill="currentColor"/>
</svg>
