<svg viewBox="0 0 22 22" xmlns="http://www.w3.org/2000/svg">
<defs>
<style id="current-color-scheme" type="text/css">.ColorScheme-Text {
        color:#dedede;
      }
      .ColorScheme-Highlight {
        color:#3daee9;
      }</style>
</defs>
<path class="ColorScheme-Text" d="m10.959 3c-0.42403 0-0.76758 0.34573-0.76758 0.77344-1.5e-4 0.28618 0.15604 0.53413 0.38477 0.66797h-0.00586v0.79492h0.73047v-0.77148c0.25139-0.12745 0.42578-0.38827 0.42578-0.69141 0-0.42771-0.3434-0.77344-0.76758-0.77344zm0.041016 2.6348c-0.56282 0.02039-1.2124 0.1303-1.9238 0.39844-2.3952 0.90312-2.5488 3.8066-2.5488 3.8066v1.5918c-0.63376 0.04203-1.1348 0.57335-1.1348 1.2227v3.291c-0.2573 0.12499-0.4375 0.38801-0.4375 0.69531 0 0.42779 0.34383 0.77532 0.76758 0.77539 0.42422 0 0.76758-0.3476 0.76758-0.77539 0-0.30693-0.17835-0.57032-0.43555-0.69531v-2.2012c0.1427 0.07398 0.30382 0.11926 0.47266 0.13086v0.76367c-0.0040001 0.06183-0.0097657 0.1243-0.0097657 0.1875 0 0.06703 0.0047657 0.13292 0.0097657 0.19922v0.017578c0.10226 1.2743 1.0906 2.2944 2.3438 2.4336l-0.0019532 0.017579h2.1309 2.1309l-0.001953-0.017579c1.2532-0.13924 2.2415-1.1593 2.3438-2.4336h0.001953v-0.017578c5e-3 -0.06633 0.007813-0.13222 0.007813-0.19922 0-0.06335-0.003813-0.1257-0.007813-0.1875v-0.76367c0.16821-0.01145 0.32801-0.057259 0.4707-0.13086v2.2012c-0.25674 0.12498-0.43555 0.38801-0.43555 0.69531 0 0.42745 0.34362 0.77344 0.76758 0.77344s0.76758-0.34602 0.76758-0.77344c0-0.30712-0.17828-0.57033-0.43555-0.69531v-3.291c0-0.64912-0.50145-1.1805-1.1348-1.2227v-1.5938s-0.15513-2.9016-2.5508-3.8047c-0.71077-0.26799-1.3606-0.37804-1.9238-0.39844zm-0.041016 1.3008h0.019532 0.021484 0.019531 0.021485c0.4391 0.00833 1.5583 0.14833 2.3027 0.79492 0.76752 0.66668 0.76758 1.7637 0.76758 1.7637 0 0.98935-0.76758 1.0547-0.76758 1.0547-0.26735 0.0851-0.83196 0.0429-1.0879 0-0.2354-0.04005-1.0988-0.11495-1.2363-0.12695-0.0048 1e-3 -0.012531 0.001623-0.019531 0.001953-7e-3 -1e-3 -0.014531-0.001433-0.019531-0.001953-0.13737 0.01224-1.0012 0.086953-1.2363 0.12695-0.25548 0.0429-0.82069 0.0851-1.0879 0 0 0-0.76758-0.065527-0.76758-1.0547 0 0-1.719e-4 -1.097 0.76758-1.7637 0.74435-0.64659 1.8641-0.78692 2.3027-0.79492zm-1.9824 1.8711c-0.31839 0-0.57617 0.25943-0.57617 0.58008 0 0.32077 0.25778 0.58203 0.57617 0.58203 0.31764 0 0.57617-0.26126 0.57617-0.58203 0-0.32065-0.25857-0.58008-0.57617-0.58008zm3.9668 0c-0.31839 0-0.57617 0.25932-0.57617 0.58008 0 0.32051 0.25775 0.58188 0.57617 0.58203 0.31753 0 0.57617-0.26137 0.57617-0.58203 0-0.32076-0.25864-0.58008-0.57617-0.58008zm-1.0312 3.4121c0.20419 0 0.36914 0.16752 0.36914 0.37305 0 0.2059-0.16495 0.37305-0.36914 0.37305-0.20452 0-0.36914-0.16715-0.36914-0.37305 0-0.20575 0.16462-0.37305 0.36914-0.37305zm0.91016 0c0.20419 0 0.36914 0.16752 0.36914 0.37305 0 0.2059-0.16499 0.37305-0.36914 0.37305-0.20414 0-0.37109-0.16715-0.37109-0.37305 0-0.20575 0.16691-0.37305 0.37109-0.37305zm0.91016 0c0.20419 0 0.36914 0.16752 0.36914 0.37305 0 0.2059-0.16495 0.37305-0.36914 0.37305-0.20452 0-0.37109-0.16715-0.37109-0.37305 0-0.20575 0.16657-0.37305 0.37109-0.37305zm-4.6563 5.4473c0.27978 0.77743 1.016 1.334 1.8828 1.334 0.86659 0 1.6032-0.55652 1.8828-1.334h-3.7656z" fill="currentColor"/>
</svg>
