<svg width="22" height="22" version="1.1" viewBox="3 3 16 16" xmlns="http://www.w3.org/2000/svg" xmlns:osb="http://www.openswatchbook.org/uri/2009/osb">
<path d="m6.2 3a3.2 3.2 0 0 1 3.2 3.2v1.6h3.2v-1.6a3.2 3.2 0 0 1 3.2-3.2 3.2 3.2 0 0 1 3.2 3.2 3.2 3.2 0 0 1-3.2 3.2h-1.6v3.2h1.6a3.2 3.2 0 0 1 3.2 3.2 3.2 3.2 0 0 1-3.2 3.2 3.2 3.2 0 0 1-3.2-3.2v-1.6h-3.2v1.6a3.2 3.2 0 0 1-3.2 3.2 3.2 3.2 0 0 1-3.2-3.2 3.2 3.2 0 0 1 3.2-3.2h1.6v-3.2h-1.6a3.2 3.2 0 0 1-3.2-3.2 3.2 3.2 0 0 1 3.2-3.2m8 12.8a1.6 1.6 0 0 0 1.6 1.6 1.6 1.6 0 0 0 1.6-1.6 1.6 1.6 0 0 0-1.6-1.6h-1.6v1.6m-1.6-6.4h-3.2v3.2h3.2v-3.2m-6.4 4.8a1.6 1.6 0 0 0-1.6 1.6 1.6 1.6 0 0 0 1.6 1.6 1.6 1.6 0 0 0 1.6-1.6v-1.6h-1.6m1.6-8a1.6 1.6 0 0 0-1.6-1.6 1.6 1.6 0 0 0-1.6 1.6 1.6 1.6 0 0 0 1.6 1.6h1.6v-1.6m8 1.6a1.6 1.6 0 0 0 1.6-1.6 1.6 1.6 0 0 0-1.6-1.6 1.6 1.6 0 0 0-1.6 1.6v1.6h1.6z" fill="#f2f2f2"/>
</svg>
