<svg viewBox="0 0 22 22" xmlns="http://www.w3.org/2000/svg">
<defs>
<style id="current-color-scheme" type="text/css">.ColorScheme-Text {
        color:#dedede
      }</style>
</defs>
<path class="ColorScheme-Text" d="m15.135 13.785-1.3074-1.3076c-0.26041-0.25936-0.69166-0.25148-0.96114 0.0181l-0.65868 0.65853c-0.0416-0.0229-0.0847-0.0469-0.12998-0.0723-0.41594-0.23048-0.98524-0.54637-1.5843-1.1459-0.60084-0.60077-0.91702-1.1709-1.1482-1.5872-0.0244-0.0441-0.0478-0.0866-0.0708-0.12699l0.44207-0.44141 0.21734-0.21761c0.2699-0.26997 0.27734-0.70109 0.0175-0.96121l-1.3074-1.3077c-0.2598-0.25975-0.69124-0.25187-0.96114 0.0181l-0.36847 0.37059 0.0101 0.01c-0.12355 0.15765-0.2268 0.33948-0.30363 0.53556-0.0708 0.18664-0.11492 0.36475-0.13508 0.54322-0.17264 1.4312 0.48137 2.7392 2.2563 4.5141 2.4534 2.4533 4.4306 2.2679 4.5159 2.2589 0.18577-0.0222 0.3638-0.0666 0.54473-0.13686 0.19438-0.0759 0.37609-0.17903 0.53364-0.30232l8e-3 7e-3 0.37329-0.36553c0.26934-0.26992 0.2771-0.70119 0.0174-0.96173zm3.8331-3.4966a8 8 0 0 1-7.2564 8.6802 8 8 0 0 1-8.6802-7.2564 8 8 0 0 1 7.2564-8.6802 8 8 0 0 1 8.6802 7.2564z" fill="currentColor"/>
</svg>
