<svg viewBox="0 0 22 22" xmlns="http://www.w3.org/2000/svg">
<defs>
<style id="current-color-scheme" type="text/css">.ColorScheme-Text {
        color:#f2f2f2
      }</style>
</defs>
<path class="ColorScheme-Text" d="m9.3691 3c-0.25324 0-0.46094 0.20355-0.46094 0.46094v0.38086c0 0.25702 0.20769 0.46484 0.46094 0.46484h0.16016v0.26758c2.472e-4 0.3861 0.24485 0.41837 0.36719 0.41016 0.020782-0.0027465 0.041749-0.006836 0.064453-0.0097656h0.0039063c0.43431-0.059507 1.1534-0.11673 1.9785-0.011719 0 0 0.52878 0.0974 0.52734-0.38867v-0.26953h0.16211c0.25351 0 0.46094-0.2055 0.46094-0.46289v-0.38086c-2.7e-5 -0.25717-0.20939-0.46094-0.46289-0.46094h-3.2617zm5.2402 1.7012c-0.042668 0.0086056-0.075387 0.0356-0.097656 0.060547l-0.03711 0.052734-0.31445 0.45117c-0.001831 0.001831-0.17884 0.28043 0.10352 0.42773 0.40323 0.19844 1.1427 0.61751 1.8516 1.293v-0.0019531s0.25448 0.25681 0.43359 0.0019531l0.3418-0.49023c0.11918-0.17216-0.034852-0.29097-0.050781-0.30273l-2.0703-1.4473h-0.001953c-0.063746-0.044356-0.11554-0.053528-0.1582-0.044922zm-3.6094 0.86133c-3.7104 0-6.7188 3.008-6.7188 6.7188 0 3.7098 3.0083 6.7188 6.7188 6.7188 3.7104 0 6.7188-3.0089 6.7188-6.7188 0-3.7108-3.0084-6.7188-6.7188-6.7188zm-2.75 4.0449h1.8301v5.4922h-1.8301v-5.4922zm3.6699 0h1.8301v5.4922h-1.8301v-5.4922z" fill="currentColor"/>
</svg>
