<svg viewBox="0 0 22 22" xmlns="http://www.w3.org/2000/svg">
<defs>
<style id="current-color-scheme" type="text/css">.ColorScheme-Text {
        color:#dedede
      }</style>
</defs>
<path class="ColorScheme-Text" d="m9.3691 3c-0.25325 0-0.46094 0.20354-0.46094 0.46094v0.38086c0 0.25703 0.20769 0.46484 0.46094 0.46484h0.16016v0.26758c2.538e-4 0.38611 0.24485 0.41836 0.36719 0.41016 0.020789-0.0030746 0.04169-0.006832 0.064453-0.0097656h0.0039063c0.43431-0.059462 1.1534-0.11671 1.9785-0.011719 0 0 0.52878 0.097402 0.52734-0.38867v-0.26953h0.16211c0.2535 0 0.45898-0.2055 0.45898-0.46289v-0.38086c-2.8e-5 -0.25717-0.20744-0.46094-0.46094-0.46094h-3.2617zm5.2402 1.7012c-0.042668 0.0086103-0.075386 0.035597-0.097656 0.060547l-0.03711 0.052734-0.31445 0.45117c-0.001495 0.0017207-0.17884 0.28043 0.10352 0.42773 0.40323 0.19844 1.1427 0.61751 1.8516 1.293v-0.0019531s0.25448 0.25681 0.43359 0.0019531l0.3418-0.49023c0.11918-0.17215-0.034844-0.29097-0.050781-0.30273l-2.0703-1.4473h-0.001953c-0.063749-0.044356-0.11554-0.053532-0.1582-0.044922zm-3.6094 0.86133c-3.7104 0-6.7188 3.008-6.7188 6.7188 0 3.7098 3.0083 6.7188 6.7188 6.7188 3.7104 0 6.7188-3.0089 6.7188-6.7188 0-3.7108-3.0084-6.7188-6.7188-6.7188zm0.099609 2.9375c0.54165 0 1.0597 0.10651 1.5527 0.31836 0.49313 0.21185 0.91772 0.49591 1.2754 0.85352 0.35761 0.35761 0.64374 0.78232 0.85547 1.2754 0.21179 0.49307 0.31641 1.011 0.31641 1.5527 0 0.54159-0.10462 1.0597-0.31641 1.5527-0.21185 0.49307-0.49786 0.91766-0.85547 1.2754-0.35773 0.35754-0.78232 0.64173-1.2754 0.85352-0.49307 0.21179-1.0111 0.31836-1.5527 0.31836-0.5972 0-1.1649-0.12527-1.7031-0.37695s-0.99649-0.60805-1.375-1.0664c-0.024292-0.034713-0.034929-0.073718-0.033203-0.11719 0.0017262-0.043406 0.017178-0.077597 0.044922-0.10547l0.71289-0.71875c0.034712-0.03126 0.078759-0.046875 0.13086-0.046875 0.055552 0.006968 0.094848 0.027788 0.11914 0.0625 0.25347 0.32993 0.56361 0.5851 0.93164 0.76562 0.36809 0.18053 0.75865 0.26953 1.1719 0.26953 0.36106 0 0.70702-0.070299 1.0352-0.21094 0.32807-0.14058 0.61196-0.33071 0.85156-0.57031s0.42967-0.52343 0.57031-0.85156c0.14058-0.32814 0.21094-0.67202 0.21094-1.0332s-0.070362-0.70507-0.21094-1.0332c-0.14064-0.32814-0.33072-0.61203-0.57031-0.85156-0.2396-0.2396-0.52343-0.42967-0.85156-0.57031-0.32814-0.14058-0.67403-0.21094-1.0352-0.21094-0.34028 0-0.66598 0.060343-0.97852 0.18359-0.31248 0.12332-0.59087 0.30012-0.83398 0.5293l0.71484 0.71875c0.10765 0.1042 0.13127 0.22398 0.072266 0.35938-0.059005 0.13891-0.16076 0.20898-0.30664 0.20898h-2.334c-0.090265 0-0.16834-0.033636-0.23438-0.099609-0.065973-0.065973-0.099609-0.14411-0.099609-0.23438v-2.334c0-0.14582 0.070071-0.24757 0.20898-0.30664 0.13546-0.059004 0.25517-0.035387 0.35938 0.072266l0.67773 0.67188c0.37154-0.3507 0.79603-0.62171 1.2734-0.81445 0.47747-0.19274 0.97008-0.28906 1.4805-0.28906z" fill="currentColor"/>
</svg>
