<svg viewBox="0 0 22 22" xmlns="http://www.w3.org/2000/svg">
<defs>
<style id="current-color-scheme" type="text/css">.ColorScheme-Text {
        color:#f2f2f2
      }</style>
</defs>
<path class="ColorScheme-Text" d="m4 4.0156v3.9609c0 0.023438-0.0085915 1.0234 1.0156 1.0234h0.98437v4h-1.9531s-1.0469-0.022924-1.0469 1.0156v3.9375c0 0.046875-0.022923 1.0469 1.0156 1.0469h4s0.98437-0.015948 0.98437-1.0156v-3.9844s-0.00603-1-1.0156-1h-0.98438v-4h3.9844c0.015624 0 1.0156 0.0085616 1.0156-1.0078v-0.99219h4v7h-1c-1e-6 0-1 0.00603-1 1.0156v2.9688c0 0.015625-0.008562 1.0156 1.0078 1.0156h3.0078s0.98437-0.001211 0.98437-0.99219v-3.0234c0 0.015625-0.00609-0.98438-1-0.98438h-1v-7s0.0037-1-1-1h-4v-2.0078c0 0.0078134-0.006061-0.99219-1.0078-0.99219h-5.9844c-0.0078128 0-1.0078 0.0011232-1.0078 1.0156z" fill="currentColor"/>
</svg>
