<svg viewBox="0 0 22 22" xmlns="http://www.w3.org/2000/svg">
<defs>
<style id="current-color-scheme" type="text/css">.ColorScheme-Text {
        color:#f2f2f2
      }</style>
</defs>
<path class="ColorScheme-Text" d="m5 3c-1.108 0-2 0.892-2 2s0.892 2 2 2v3h-1.0156c0.015625 0-0.98438 0.00609-0.98438 1v6s-0.010898 1 0.98828 1h1.0117s0.00115 1 1.0078 1h12.007c-0.014544 0 0.98546 0.012 0.98546-0.97184v-1.0386s-6.31e-4 -0.98959-0.9965-0.98959h-11.972c-0.03125 0-1.0313-0.022862-1.0313 1h-1v-6h1v2.0066c0-0.006592-0.0034701 0.99341 0.99373 0.99341h11.999s1.0076 0 1.0076-1v-6.9816s0.030418-1.0184-0.97441-1.0184h-11.026c0-1.108-0.892-2-2-2z" fill="currentColor"/>
</svg>
