<svg width="22" height="22" viewBox="3 3 16 16" xmlns="http://www.w3.org/2000/svg">
<defs>
<style id="current-color-scheme" type="text/css">.ColorScheme-Text {
        color:#f2f2f2
      }</style>
</defs>
<path class="ColorScheme-Text" d="m8 3.9965v4.0504s0 0.95313 1 0.95313h4.0156c-0.0156 0 0.98437-6e-3 0.98437-1v-3.9844c0-1.0156-0.96875-1.0156-0.96875-1.0156h-4.0544c0.0232 0-0.97684 9e-3 -0.97684 0.9965zm-5 10.021v3.9664s0 1.016 1.0271 1.016h3.9996c-0.0267 0 0.97334-0.0304 0.97334-1.0271v-3.9996s-3e-3 -0.97334-0.98439-0.97334h-4.0327c0.0171 0-0.98289 0.0181-0.98289 1.0175zm10-0.0332v4.0106c0 1.005 1.0371 1.005 1.0371 1.005h3.9664c-4e-3 0 0.9965 0.0121 0.9965-0.9829v-4.0438c0-0.97333-1.0076-0.97333-1.0076-0.97333h-3.9885s-1.0039 0-1.0039 0.98438z" fill="currentColor"/>
</svg>
