<svg xmlns="http://www.w3.org/2000/svg" viewBox="0 0 22 22">
<defs>
<style id="current-color-scheme" type="text/css">.ColorScheme-Text {
        color:#dedede;
      }
      .ColorScheme-Highlight {
        color:#1d99f3;
      }</style>
<linearGradient id="linearGradient4159" x1="32" x2="32" y1="1047.4" y2="1031.4" gradientTransform="matrix(.96689 0 0 .96689 -20.844 37.313)" gradientUnits="userSpaceOnUse" />
</defs>
<g>
<rect x="3.3868" y="3.3" width="15.226" height="15.226" ry=".48345" fill="url(#linearGradient4159)" fill-rule="evenodd" />
<path class="ColorScheme-Text" d="m3.8711 3c-0.4754 0-0.87109 0.3957-0.87109 0.8711v14.26c0 0.4754 0.39569 0.8691 0.87109 0.8691h14.258c0.4754 0 0.87109-0.3937 0.87109-0.8691v-14.26c0-0.4754-0.39569-0.8711-0.87109-0.8711h-14.258zm0 0.7735h14.258c0.06026 0 0.09766 0.037 0.09766 0.098v14.26c0 0.06-0.0374 0.096-0.09766 0.096h-14.258c-0.060256 0-0.097656-0.035-0.097656-0.096v-14.26c0-0.06 0.0374-0.098 0.097656-0.098z" fill="currentColor" />
</g>
</svg>
