<svg width="22" height="22" viewBox="4.279 3 13.44 16" xmlns="http://www.w3.org/2000/svg">
<defs>
<style id="current-color-scheme" type="text/css">.ColorScheme-Text {
        color:#f2f2f2
      }</style>
</defs>
<path class="ColorScheme-Text" d="m9.7188 3c-0.12752 0-0.25363 0.062916-0.32617 0.18945l-4.3945 7.6621c-0.92311 1.6197-0.99441 3.6779 0 5.4121 1.4949 2.607 4.8207 3.5086 7.4277 2.0137 2.607-1.4949 3.5086-4.8187 2.0137-7.4258l-4.3926-7.6621c-0.072557-0.12654-0.2006-0.18945-0.32812-0.18945z" fill="currentColor"/>
<path class="ColorScheme-Text" d="m15.387 3c-1.2927 0-2.332 1.0413-2.332 2.334s1.0394 2.332 2.332 2.332c1.2927 0 2.334-1.0394 2.334-2.332s-1.0413-2.334-2.334-2.334z" fill="currentColor" fill-opacity=".4"/>
</svg>
