<svg width="22" height="22" version="1.1" viewBox="0 0 22 22" xmlns="http://www.w3.org/2000/svg">
<defs>
<style id="current-color-scheme" type="text/css">.ColorScheme-Text { color:#5c616c; } .ColorScheme-Highlight { color:#5294e2; }</style>
</defs>
<path d="m16.268 1.3696c-0.91152 0.010525-1.8183 0.36922-2.5091 1.0753v0.00233l-2.4862 2.541-0.39725-0.38812c-0.40814-0.39928-0.93874-0.59479-1.4657-0.58902-0.2635 0.0023377-0.52469 0.056108-0.77167 0.1598-0.24698 0.10368-0.47843 0.25713-0.67807 0.46119-0.29947 0.30611-0.48564 0.68044-0.55706 1.0707-0.023811 0.1301-0.033408 0.26094-0.031959 0.39269v0.00233c0.00163 0.13099 0.014587 0.2616 0.0411 0.39041v0.00233c0.079965 0.38864 0.27379 0.75759 0.5799 1.0571l0.42008 0.41097 0.28538 0.27853-3.8218 3.9063c-0.19537 0.1997-0.35761 0.41936-0.48857 0.65067-0.26193 0.46261-0.39695 0.9757-0.4041 1.4908-0.00361 0.25756 0.025062 0.51488 0.084477 0.76711l-2.1575 2.2077c-0.081217 0.083-0.1518 0.17108-0.21232 0.26483-0.24288 0.37512-0.32007 0.82264-0.23287 1.2443 1.531e-4 7.37e-4 -1.543e-4 0.0012 0 0.0023 0.065577 0.31504 0.22408 0.61531 0.47259 0.85842 4.242e-4 4.2e-4 -4.256e-4 0.0023 0 0.0023 0.11659 0.11408 0.24706 0.20053 0.38355 0.27396 0.00152 8.06e-4 0.00305 0.0012 0.00456 0.0023 0.64037 0.34198 1.4495 0.24497 1.984-0.30137l2.1598-2.2077c1.0135 0.2149 2.1069-0.07131 2.8881-0.86984l3.8218-3.9063 0.70546 0.68949c0.81628 0.79856 2.1169 0.78437 2.9155-0.03191 0.79857-0.81627 0.78431-2.1169-0.03196-2.9155l-0.39725-0.39032 2.4862-2.541c1.1379-1.1631 1.3051-2.8865 0.54565-4.2328-0.02546-0.04664-0.04764-0.093631-0.07534-0.13927-0.04213-0.067447-0.08535-0.13351-0.13242-0.19864-0.11643-0.16494-0.24266-0.32581-0.39268-0.47258h-0.0023c-0.17659-0.1727-0.36463-0.32327-0.56398-0.45205-0.19946-0.12884-0.40988-0.23461-0.62556-0.31963-0.21552-0.084981-0.43706-0.1483-0.66208-0.18949-0.22515-0.041263-0.45247-0.061836-0.68035-0.059381z" fill="#e9e8e8" stroke="#000" stroke-dashoffset="1" stroke-linejoin="round" stroke-opacity=".16286" stroke-width="1.7534"/>
<path d="m14.848 6.4336c-1.2417-1.2147-3.218-1.1931-4.4328 0.048627l-5.5385 5.6613c-0.78149 0.79882-1.0453 1.8995-0.80763 2.9084l-2.1586 2.2064c-0.64977 0.66417-0.63657 1.7216 0.02761 2.3713 0.66418 0.64978 1.7216 0.63979 2.3714-0.02443l2.1602-2.208c1.0135 0.2149 2.1073-0.07106 2.8884-0.86956l5.5385-5.6613c1.2147-1.2417 1.1931-3.218-0.0486-4.4328z" fill="#e9e8e8"/>
<path d="m12.62 5.5378c-0.80114 0.00935-1.5981 0.32434-2.2054 0.94518l-5.5387 5.6597c-0.78149 0.79882-1.0458 1.8997-0.8082 2.9086l-2.1575 2.2077c-0.64977 0.66417-0.63678 1.72 0.0274 2.3698 0.11787 0.11526 0.24995 0.20475 0.38812 0.27853-0.14342-0.54956-0.00994-1.1564 0.4178-1.5936l2.1598-2.2054c-0.23762-1.0089 0.02671-2.1098 0.8082-2.9086l5.5387-5.662c1.1508-1.1763 2.9757-1.2422 4.2214-0.2146-0.15444-0.32062-0.3534-0.62638-0.62328-0.89039-0.62083-0.60737-1.4271-0.90375-2.2283-0.89496z" fill="#242222" fill-opacity=".10306"/>
<path d="m18.802 2.3901c-1.4122-1.3816-3.6614-1.3569-5.043 0.05529l-2.4864 2.5415-0.39657-0.38797c-0.81628-0.79857-2.1168-0.78431-2.9154 0.031912-0.79858 0.81628-0.78431 2.1168 0.03197 2.9154l5.893 5.7652c0.81627 0.79856 2.1168 0.78431 2.9154-0.03203 0.79856-0.81627 0.78431-2.1168-0.03196-2.9154l-0.39821-0.38957 2.4864-2.5415c1.3815-1.4122 1.3569-3.6614-0.05529-5.043z" fill="#ec9648"/>
<path d="m16.269 1.369c-0.91153 0.010525-1.8183 0.36923-2.5091 1.0753l-2.4862 2.5433-0.39725-0.38812c-0.81628-0.79857-2.1169-0.78427-2.9155 0.031912-0.79858 0.81628-0.78431 2.1169 0.031958 2.9155l0.42008 0.41095c-0.069247-0.5957 0.11235-1.2164 0.5662-1.6803 0.79857-0.81622 2.0992-0.83053 2.9155-0.031912l0.39725 0.38812 2.4862-2.541c1.3528-1.3828 3.5312-1.4257 4.9474-0.13012-0.1648-0.57574-0.46199-1.1227-0.92235-1.573-0.70609-0.69078-1.6227-1.0305-2.5342-1.0205z" fill="#fff" fill-opacity=".24696"/>
</svg>
