<svg width="22" height="22" version="1.1" xmlns="http://www.w3.org/2000/svg">
<defs>
<style id="current-color-scheme" type="text/css">.ColorScheme-Text {
        color:#f2f2f2
      }</style>
<linearGradient id="linearGradient4466" x1="400.57" x2="400.57" y1="544.34" y2="531.81" gradientTransform="matrix(.63847 0 0 .63847 299.82 414.39)" gradientUnits="userSpaceOnUse"/>
</defs>
<g transform="translate(-544.57 -742.93)">
<path d="m555.26 746.45-4.2071 7.3371c-0.88406 1.5512-0.95235 3.5235 0 5.1844 1.4316 2.4968 4.6162 3.3602 7.113 1.9286s3.3602-4.6162 1.9286-7.113l-4.2071-7.3371c-0.13897-0.24237-0.48852-0.24237-0.62747 0z" fill="url(#linearGradient4466)"/>
<path class="ColorScheme-Text" d="m555.57 745.93c-0.24062 1e-5 -0.47983 0.11438-0.61133 0.34375l-4.209 7.3379c-0.94251 1.6537-1.0125 3.7581 2e-3 5.5274 1.5243 2.6584 4.9237 3.579 7.582 2.0547 2.6584-1.5243 3.581-4.9237 2.0566-7.582l-4.207-7.3379c-0.13151-0.22936-0.37266-0.34375-0.61328-0.34375zm-0.0137 0.6875c0.0149-0.026 0.0144-0.026 0.0293 0l4.207 7.3359c1.339 2.3352 0.5344 5.3036-1.8008 6.6426s-5.3036 0.53439-6.6426-1.8008c-0.89024-1.5526-0.82561-3.3932 0-4.8418l4.207-7.3359z" fill="currentColor"/>
</g>
</svg>
