<svg width="22" height="22" viewBox="2.467 3 17.07 16" xmlns="http://www.w3.org/2000/svg">
<defs>
<style id="current-color-scheme" type="text/css">.ColorScheme-Text {
        color:#f2f2f2;
      }
      .ColorScheme-Highlight {
        color:#3daee9;
      }</style>
</defs>
<path class="ColorScheme-Text" d="m6.7324 5.1328v1.0664h9.6016a2.1333 2.1333 0 0 1 2.1328 2.1348 2.1333 2.1333 0 0 1-2.1328 2.1328h-9.6016a3.2 3.2 0 0 0-3.1992 3.1992 3.2 3.2 0 0 0 3.1992 3.2012h8.5352v-1.0664h-8.5352a2.1333 2.1333 0 0 1-2.1328-2.1348 2.1333 2.1333 0 0 1 2.1328-2.1328h9.6016a3.2 3.2 0 0 0 3.1992-3.1992 3.2 3.2 0 0 0-3.1992-3.2012h-9.6016z" fill="currentColor"/>
<path class="ColorScheme-Highlight" d="m5.1328 3c-1.4728 0-2.666 1.1933-2.666 2.666s1.1933 2.668 2.666 2.668 2.668-1.1952 2.668-2.668-1.1952-2.666-2.668-2.666zm11.734 10.666c-1.4728 0-2.668 1.1952-2.668 2.668 0 1.4728 1.1952 2.666 2.668 2.666 1.4728 0 2.666-1.1933 2.666-2.666 0-1.4728-1.1933-2.668-2.666-2.668z" fill="currentColor"/>
</svg>
