<svg width="22" height="22" version="1.1" xmlns="http://www.w3.org/2000/svg">
<g transform="translate(-326 -534.36)">
<g transform="translate(-226.72 -49.757)">
<g transform="matrix(.96703 0 0 .96703 18.321 19.883)" fill="#f2f2f2">
<rect x="555.72" y="599.12" width="7" height="1" ry=".5" color="#000000"/>
<rect x="555.72" y="593.12" width="8" height="1" ry=".5" color="#000000"/>
<rect x="555.72" y="587.12" width="10" height="1" ry=".5" color="#000000"/>
<rect x="555.72" y="589.12" width="6" height="1" ry=".5" color="#000000"/>
<rect x="555.72" y="595.12" width="4" height="1" ry=".5" color="#000000"/>
<rect x="555.72" y="601.12" width="2" height="1" ry=".5" color="#000000"/>
<rect x="562.72" y="602.12" width="2" height="1" ry=".5"/>
<path d="m567.9 594.39a1.0909 1.0909 0 0 1 1.0909-1.0909 1.0909 1.0909 0 0 1 1.0909 1.0909 1.0909 1.0909 0 0 1-1.0909 1.0909 1.0909 1.0909 0 0 1-1.0909-1.0909m2.1818 3.0818c1.2709-0.44727 2.1818-1.6582 2.1818-3.0818a3.2727 3.2727 0 0 0-3.2727-3.2727 3.2727 3.2727 0 0 0-3.2727 3.2727c0 1.4236 0.91091 2.6345 2.1818 3.0818v2.3727h-2.1818v2.1818h2.1818v1.0909h2.1818v-5.6455z"/>
</g>
</g>
</g>
</svg>
