<svg version="1.1" viewBox="0 0 22 22" xmlns="http://www.w3.org/2000/svg">
<defs>
<style id="current-color-scheme" type="text/css">.ColorScheme-Text {
        color:#f2f2f2
      }</style>
</defs>
<path class="ColorScheme-Text" d="m9.4909 5.6814 1.5091 2.2637 1.5092-2.2637zm0.32275 3.3201c-0.80445 0-1.1422 0.26581-1.1422 0.94617v0.92258c0 0.42022-0.015469 0.90637-0.45982 0.90637h-0.22991v0.48635h0.22991c0.44436 0 0.45982 0.48614 0.45982 0.90637v0.92258c0 0.68037 0.33773 0.94617 1.1422 0.94617v-0.44656c-0.53629 0-0.54382-0.18046-0.54382-0.83416v-0.76047c0-0.3135-0.093273-0.78073-0.54529-0.97417 0.45202-0.19344 0.54529-0.6592 0.54529-0.97271v-0.76783c0-0.6537 0.00755-0.83416 0.54382-0.83416zm2.3669 0v0.44656c0.5363 0 0.54972 0.18046 0.54972 0.83416v0.76783c0 0.31351 0.09327 0.77927 0.5453 0.97271-0.45203 0.19344-0.5453 0.66067-0.5453 0.97416v0.76047c0 0.65369-0.01336 0.83416-0.54972 0.83416v0.44656c0.80446 0 1.1481-0.2658 1.1481-0.94617v-0.92258c0-0.42023 0.03048-0.90637 0.4672-0.90637h0.22253v-0.48635h-0.22253c-0.43671 0-0.4672-0.48614-0.4672-0.90637v-0.92258c0-0.68037-0.34362-0.94618-1.1481-0.94618zm-8.6123-4.0747h14.864c0.31476 0 0.56815 0.25339 0.56815 0.56814v10.937c0 0.31476-0.25339 0.56815-0.56815 0.56815h-14.864c-0.31476 0-0.56815-0.25339-0.56815-0.56815v-10.937c0-0.31475 0.25339-0.56814 0.56815-0.56814z" color="#f2f2f2" fill="currentColor"/>
</svg>
