<svg viewBox="0 0 22 22" xmlns="http://www.w3.org/2000/svg">
<defs>
<style id="current-color-scheme" type="text/css">.ColorScheme-Text {
        color:#dedede
      }</style>
</defs>
<g transform="translate(-544.57 -742.93)">
<g transform="matrix(-1 0 0 -1 1092.1 1507.3)">
<g transform="translate(-.52358 -.033001)">
<g transform="matrix(.94262 0 0 .94262 12.588 42.652)">
<g transform="matrix(1.3035 0 0 -1.3035 -139.97 1735)" fill="#da4453" stroke-width="1px">
<path transform="matrix(-.81384 0 0 .81384 543.13 743.59)" d="m16.605 12.402c-0.55908 0-1.0203 0.17158-1.3828 0.51562-0.36248 0.3379-0.54297 0.76156-0.54297 1.2715 0 0.25804 0.076876 0.50649 0.23047 0.74609 0.15359 0.23346 0.35024 0.42649 0.58984 0.58008v0.037109c-0.30718 0.15359-0.55564 0.3664-0.74609 0.63672-0.19045 0.26418-0.28711 0.57168-0.28711 0.92188 0 0.5345 0.20556 0.98322 0.61719 1.3457 0.41163 0.36248 0.9194 0.54297 1.5215 0.54297s1.1099-0.18049 1.5215-0.54297c0.41163-0.36248 0.61719-0.8112 0.61719-1.3457 0-0.35019-0.096655-0.6577-0.28711-0.92188-0.19045-0.27032-0.43891-0.48313-0.74609-0.63672v-0.037109c0.2396-0.15359 0.43625-0.34662 0.58984-0.58008 0.15359-0.2396 0.23047-0.48806 0.23047-0.74609 0-0.50993-0.18049-0.93358-0.54297-1.2715-0.36248-0.34405-0.82374-0.51562-1.3828-0.51562zm0 0.81055c0.30718 0 0.56288 0.085789 0.76562 0.25781 0.1966 0.17202 0.29492 0.40628 0.29492 0.70117s-0.098324 0.53444-0.29492 0.71875c-0.20274 0.17817-0.45844 0.26562-0.76562 0.26562-0.30718 0-0.55926-0.087458-0.75586-0.26562-0.20274-0.18431-0.30469-0.42385-0.30469-0.71875s0.10195-0.52915 0.30469-0.70117c0.1966-0.17202 0.44868-0.25781 0.75586-0.25781zm0 2.7363c0.35633 0 0.6566 0.10557 0.90234 0.31445 0.24575 0.20888 0.36914 0.47516 0.36914 0.80078 0 0.33176-0.12339 0.60166-0.36914 0.81055-0.24575 0.20889-0.54601 0.31445-0.90234 0.31445s-0.6566-0.10557-0.90234-0.31445-0.36914-0.47879-0.36914-0.81055c0-0.32562 0.12339-0.5919 0.36914-0.80078 0.24575-0.20889 0.54601-0.31445 0.90234-0.31445z" fill="#da4453"/>
</g>
<g transform="matrix(-1.3035 0 0 -1.3035 1262.1 1746.3)" fill="#1d99f3" stroke-width="1px">
<path transform="matrix(.81384 0 0 .81384 532.48 752.26)" d="m9.3086 3-1.7148 2.5352c-0.4915 0.71881-0.73828 1.3695-0.73828 1.9531 0 0.55293 0.20389 1.0446 0.60938 1.4746 0.41163 0.42391 0.92998 0.63477 1.5566 0.63477 0.58365 0 1.0878-0.21085 1.5117-0.63477 0.43006-0.42391 0.64453-0.91553 0.64453-1.4746 0-0.57136-0.20556-1.0577-0.61719-1.457-0.41163-0.40548-0.86202-0.60742-1.3535-0.60742-0.31333 0-0.54758 0.048185-0.70117 0.14648l-0.017578-0.017578 1.502-2.082-0.68164-0.4707zm-4.1992 0.14648-1.8535 0.86719 0.32422 0.71875 1.2246-0.53516v5.2539h0.84766v-6.3047h-0.54297zm3.9121 3.0703c0.35633 0 0.66022 0.12506 0.91211 0.37695 0.25804 0.24575 0.38867 0.54796 0.38867 0.9043 0 0.36248-0.13064 0.66636-0.38867 0.91211-0.25189 0.24575-0.55578 0.36719-0.91211 0.36719-0.36248 0-0.67165-0.12144-0.92969-0.36719-0.25189-0.24575-0.37891-0.54963-0.37891-0.91211 0-0.35633 0.12868-0.65855 0.38672-0.9043 0.25804-0.25189 0.56554-0.37695 0.92188-0.37695z" fill="#1d99f3"/>
</g>
<path class="ColorScheme-Text" transform="matrix(-1.0609 0 0 -1.0609 568.01 765.69)" d="m12.311 3.9824c-0.61447 0.086892-0.86975 0.86974-0.10938 1.1582 1.3987 0.17809 2.705 0.9687 3.4902 2.2695 0.22892 0.37922 0.39397 0.77916 0.50781 1.1855l-0.61133 0.0058594c-0.31818 0.0028279-0.43451 0.22865-0.26172 0.50586l1.1895 1.9043c0.17316 0.2777 0.43856 0.27768 0.59375 0l1.0801-1.9316c0.15531-0.27781 0.023334-0.50081-0.29492-0.49805v-0.0019531l-1.1836 0.011719 0.71484-0.013672c-0.13696-0.61362-0.36987-1.2169-0.71289-1.7852-0.93562-1.55-2.4634-2.5211-4.1191-2.8008-0.1005-0.019425-0.19542-0.022179-0.2832-0.0097656zm-5.5059 6.8242c-0.10768 2.01e-4 -0.21147 0.068193-0.28906 0.20703l-1.0801 1.9316c-0.15531 0.27781-0.023334 0.50081 0.29492 0.49805v0.001953l1.1836-0.011718-0.71484 0.015625c0.13696 0.61362 0.36792 1.2149 0.71094 1.7832 0.93561 1.55 2.4653 2.523 4.1211 2.8027 0.80403 0.1554 1.2616-0.82072 0.39258-1.1504-1.3987-0.17809-2.705-0.9687-3.4902-2.2695-0.22891-0.37922-0.39397-0.77916-0.50781-1.1855l0.61133-0.00586c0.31818-0.002828 0.43451-0.22865 0.26172-0.50586l-1.1895-1.9043c-0.08658-0.13885-0.19701-0.20723-0.30469-0.20703z" fill="currentColor"/>
</g>
</g>
</g>
</g>
</svg>
