<svg viewBox="0 0 22 22" xmlns="http://www.w3.org/2000/svg">
<defs>
<style id="current-color-scheme" type="text/css">.ColorScheme-Text {
        color:#dedede
      }</style>
</defs>
<path class="ColorScheme-Text" d="m5.698 2.9996c-0.36665 0-0.71784 0.14628-0.95424 0.39844-0.23639 0.25216-0.35724 0.58282-0.39088 0.92578v-0.0117l-1.349 10.855a0.50002 0.50968 0 0 0-0.0039242 0.0625v0.01a0.50002 0.50968 0 0 0 0.00785 0.0723 0.50002 0.50968 0 0 0 0 8e-3l0.24143 2.9258c0.050032 0.41874 0.34887 0.75388 0.84885 0.75388h13.854c0.49998 0 0.79886-0.33514 0.84885-0.75391l0.19352-2.9434a0.50002 0.50968 0 0 0 2e-3 -0.0215 0.50002 0.50968 0 0 0 0.0039-0.043 0.50002 0.50968 0 0 0 0-8e-3 0.50002 0.50968 0 0 0-0.0039-0.0625l-1.349-10.855a0.50002 0.50968 0 0 0-0.0078-0.0371c-0.061266-0.31193-0.17021-0.6167-0.39479-0.86719-0.22456-0.25048-0.57609-0.4082-0.94274-0.4082h-10.604zm0 1.0195h10.604c0.13332 0 0.15546 0.0209 0.20503 0.0762 0.04896 0.0546 0.11243 0.1817 0.15137 0.375l1.324 10.65-0.06514 0.10938h-3.4165-0.5001-9.9907l-0.00392-0.0176 1.3394-10.773a0.50002 0.50968 0 0 0 0.00196-0.0137c0.016384-0.16667 0.068576-0.26865 0.11881-0.32226 0.05023-0.0536 0.098528-0.084 0.23185-0.084zm5.3173 1.4199c-0.04954 8e-5 -0.09595 0.0204-0.1188 0.0527l-0.85651 1.207c-0.02129 0.0301-0.02011 0.0666 0.0039 0.0957 0.02404 0.0292 0.06671 0.0468 0.11305 0.0469h0.43305l-0.0098 3.4668-1.3355-0.66211 0.00196-0.51953c0.20741-0.10034 0.34449-0.27295 0.34497-0.46875 9.222e-4 -0.31068-0.34266-0.56407-0.76645-0.56445-0.42298-6.9e-4 -0.76554 0.25182-0.76645 0.5625-6.573e-4 0.19594 0.13609 0.36788 0.34299 0.46875l-0.00196 0.68555c-3.237e-4 0.10327 0.069066 0.20014 0.18586 0.25781l1.9928 0.98633-2e-3 1.0703c-0.28116 0.11059-0.47461 0.32559-0.4752 0.57617-6.47e-4 0.36321 0.39988 0.65743 0.89483 0.65821 0.49551 6.1e-4 0.8978-0.29293 0.89866-0.65625 6.96e-4 -0.25054-0.19262-0.46667-0.47328-0.57813l0.0039-2.0312 1.9008-0.93555c0.02286-0.0112 0.04415-0.0231 0.06328-0.0371 0.07848-0.0574 0.12439-0.1357 0.12454-0.21875l2e-3 -0.82031h0.16288c0.04464-2e-5 0.08722-0.0121 0.1188-0.0351 0.03159-0.0231 0.04964-0.0551 0.04984-0.0879l2e-3 -0.85937c2.85e-4 -0.0682-0.07574-0.123-0.16861-0.12305l-1.1708-2e-3c-0.04464 3e-5 -0.08722 0.0121-0.11881 0.0352-0.03159 0.0231-0.04964 0.0551-0.04984 0.0879l-2e-3 0.85937c-3.73e-4 0.0681 0.07583 0.12308 0.16862 0.12305h0.16288l-2e-3 0.65625-1.2417 0.60938 0.0059-2.502h0.43305c0.04631 6e-5 0.08908-0.0179 0.11305-0.0469 0.02423-0.0291 0.02502-0.0635 0.0039-0.0937l-0.85068-1.2109c-0.02276-0.0322-0.0674-0.0526-0.11688-0.0527z" fill="currentColor"/>
</svg>
