<svg viewBox="0 0 22 22" xmlns="http://www.w3.org/2000/svg">
<defs>
<style id="current-color-scheme" type="text/css">.ColorScheme-NegativeText {
        color:#da4453;
      }</style>
</defs>
<path class="ColorScheme-NegativeText" d="m17.927 6.9843c-0.71535-1.2256-1.6858-2.196-2.9114-2.9114-1.2259-0.71535-2.5641-1.073-4.0157-1.073-1.4514 0-2.79 0.35761-4.0157 1.073-1.2257 0.71522-2.1962 1.6856-2.9115 2.9114-0.71548 1.2257-1.0731 2.5644-1.0731 4.0157 0 1.4514 0.35774 2.7898 1.073 4.0157 0.71535 1.2255 1.6858 2.196 2.9115 2.9114 1.2257 0.71535 2.5643 1.073 4.0157 1.073 1.4514 0 2.79-0.35761 4.0157-1.073 1.2256-0.71522 2.196-1.6858 2.9114-2.9114 0.71522-1.2257 1.0728-2.5644 1.0728-4.0157 0-1.4514-0.35761-2.79-1.0727-4.0157zm-3.1564 5.901c0.13195 0.13181 0.19805 0.28831 0.19805 0.46884 0 0.18743-0.0661 0.34725-0.19805 0.47907l-0.93743 0.93756c-0.13195 0.13195-0.29164 0.19792-0.4792 0.19792-0.18053 0-0.33702-0.066-0.46872-0.19792l-1.8855-1.8855-1.8855 1.8855c-0.13195 0.13195-0.28818 0.19792-0.46872 0.19792-0.18756 0-0.34725-0.066-0.4792-0.19792l-0.93756-0.93756c-0.13195-0.13182-0.19792-0.29164-0.19792-0.47907 0-0.18053 0.065973-0.33703 0.19792-0.46884l1.8855-1.8854-1.8855-1.8855c-0.13195-0.13182-0.19792-0.28819-0.19792-0.46872 0-0.18756 0.065973-0.34725 0.19792-0.4792l0.93756-0.93743c0.13195-0.13195 0.29164-0.19792 0.4792-0.19792 0.18053 0 0.33677 0.066 0.46872 0.19792l1.8855 1.8854 1.8855-1.8854c0.13169-0.13195 0.28818-0.19792 0.46872-0.19792 0.18756 0 0.34725 0.066 0.4792 0.19792l0.93743 0.93743c0.13195 0.13195 0.19805 0.29164 0.19805 0.4792 0 0.18053-0.0661 0.3369-0.19805 0.46872l-1.8853 1.8855 1.8853 1.8854z" fill="currentColor"/>
</svg>
