<svg version="1.1" viewBox="0 0 22 22" xmlns="http://www.w3.org/2000/svg">
<defs>
<style id="current-color-scheme" type="text/css">.ColorScheme-Text {
        color:#f2f2f2
      }</style>
</defs>
<path class="ColorScheme-Text" d="m5.0928 7.2839c-0.025173-0.02395-0.054111-0.035925-0.086809-0.035925-0.032703 0-0.061611 0.01199-0.086763 0.035925l-0.18872 0.17956c-0.025135 0.02392-0.037714 0.051432-0.037714 0.082597 0 0.031149 0.012556 0.058668 0.037714 0.082599l1.4833 1.4113-1.4833 1.4113c-0.025135 0.02395-0.037714 0.05148-0.037714 0.08255 0 0.03115 0.012556 0.05867 0.037714 0.0826l0.18872 0.17952c0.025135 0.02398 0.054058 0.03588 0.086763 0.03588 0.032703 0 0.061649-0.01196 0.086809-0.03588l1.7588-1.6734c0.02517-0.02395 0.037711-0.05152 0.037711-0.08264s-0.012553-0.05866-0.037711-0.0826l-1.7588-1.6734zm5.7971 3.3971c-0.0226-0.02154-0.05156-0.0323-0.08677-0.0323h-3.6232c-0.035206 0-0.064157 0.01077-0.08681 0.0323-0.022603 0.02154-0.03391 0.04905-0.03391 0.0826v0.22986c0 0.0335 0.011301 0.06105 0.03391 0.08255 0.022665 0.02151 0.051604 0.03231 0.08681 0.03231h3.6232c0.03521 0 0.06416-0.0108 0.08677-0.03231 0.0226-0.0215 0.03391-0.04905 0.03391-0.08255v-0.22986c3.3e-5 -0.03354-0.01127-0.06105-0.03391-0.0826zm-7.3217-5.7543h14.864c0.31476 0 0.56815 0.25339 0.56815 0.56815v10.937c0 0.31475-0.2534 0.56815-0.56815 0.56815h-14.864c-0.31475 0-0.56815-0.2534-0.56815-0.56815v-10.937c0-0.31476 0.25339-0.56815 0.56815-0.56815z" color="#f2f2f2" fill="currentColor"/>
</svg>
