<svg viewBox="0 0 22 22" xmlns="http://www.w3.org/2000/svg">
<defs>
<style id="current-color-scheme" type="text/css">.ColorScheme-Text {
        color:#dedede
      }</style>
</defs>
<path class="ColorScheme-Text" d="m16.605 5c-0.27532 0-0.51054 0.0942-0.70313 0.28289l-6.7715 6.6365-3.0332-2.9799c-0.19271-0.1886-0.42794-0.28289-0.70313-0.28289-0.27532 0-0.50846 0.0943-0.70117 0.28289l-1.4043 1.3743c-0.19271 0.18859-0.28906 0.41676-0.28906 0.6862 0 0.26932 0.0963 0.49773 0.28906 0.6862l3.7363 3.6585 1.4043 1.3724c0.19258 0.1886 0.42585 0.28289 0.70117 0.28289 0.27519 0 0.51041-0.0944 0.70312-0.28289l1.4043-1.3724 7.4727-7.3151c0.19258-0.18859 0.28906-0.41676 0.28906-0.6862 1.3e-4 -0.26932-0.0965-0.49952-0.28906-0.68811l-1.4043-1.3724c-0.19258-0.1886-0.42598-0.28289-0.70117-0.28289z" fill="currentColor"/>
</svg>
