<svg width="22" height="22" viewBox="3 3 16 16" xmlns="http://www.w3.org/2000/svg">
<defs>
<style id="current-color-scheme" type="text/css">.ColorScheme-Text {
        color:#f2f2f2;
      }
      .ColorScheme-Highlight {
        color:#3daee9;
      }</style>
</defs>
<path class="ColorScheme-Text" d="m3 3v6.666h6.666v-6.666h-6.666zm9.334 0v6.666h6.666v-6.666h-6.666zm-8 1.334h4v4h-4v-4zm9.332 0h4v4h-4v-4zm-10.666 8v6.666h6.666v-6.666h-6.666zm1.334 1.332h4v4h-4v-4z" fill="currentColor"/>
<path class="ColorScheme-Highlight" d="m15.666 11a2 2 0 0 0-2 2v2h-1.332v4h6.666v-4h-1.334v-2a2 2 0 0 0-2-2zm0 1.334a0.66667 0.66667 0 0 1 0.66797 0.66602v2h-1.334v-2a0.66667 0.66667 0 0 1 0.66602-0.66602z" fill="currentColor" stroke="naone"/>
</svg>
