<svg viewBox="0 0 22 22" xmlns="http://www.w3.org/2000/svg">
<defs>
<style id="current-color-scheme" type="text/css">.ColorScheme-Text {
        color:#dedede
      }</style>
</defs>
<path class="ColorScheme-Text" d="m15 6h-11c-0.552 0-1 0.448-1 0.99999v11c0 0.552 0.448 1 1 1h11c0.552 0 1-0.448 1-1v-11c0-0.55199-0.448-0.99999-1-0.99999zm3-3h-10c-0.552 0-1 0.448-1 1v0.99999h1v-0.5c0-0.276 0.22401-0.49999 0.5-0.49999h9c0.27601 0 0.5 0.22399 0.5 0.49999v9c0 0.276-0.22399 0.5-0.5 0.5h-0.49999v0.99999h0.99999c0.552 0 1-0.448 1-0.99999v-10c0-0.552-0.448-1-1-1z" fill="currentColor"/>
</svg>
