<svg width="22" height="22" viewBox="4 3 14 16" xmlns="http://www.w3.org/2000/svg">
<defs>
<style id="current-color-scheme" type="text/css">.ColorScheme-Text {
        color:#f2f2f2
      }</style>
</defs>
<path class="ColorScheme-Text" d="m4.7767 3c-0.43093 0-0.77672 0.35758-0.77672 0.80078v14.398c0 0.4432 0.34579 0.80078 0.77672 0.80078h12.447c0.43093 0 0.77672-0.35758 0.77672-0.80078v-14.398c0-0.4432-0.34579-0.80078-0.77672-0.80078h-12.447zm0.87737 0.73633a0.88559 0.91079 0 0 1 0.88687 0.91015 0.88559 0.91079 0 0 1-0.88687 0.91211 0.88559 0.91079 0 0 1-0.88496-0.91211 0.88559 0.91079 0 0 1 0.88496-0.91015zm2.1536 0a0.88559 0.91079 0 0 1 0.88686 0.91015 0.88559 0.91079 0 0 1-0.88686 0.91211 0.88559 0.91079 0 0 1-0.88497-0.91211 0.88559 0.91079 0 0 1 0.88497-0.91015zm2.1706 0a0.88559 0.91079 0 0 1 0.88687 0.91015 0.88559 0.91079 0 0 1-0.88687 0.91211 0.88559 0.91079 0 0 1-0.88498-0.91211 0.88559 0.91079 0 0 1 0.88498-0.91015zm2.1478 0a0.88559 0.91079 0 0 1 0.88687 0.91015 0.88559 0.91079 0 0 1-0.88687 0.91211 0.88559 0.91079 0 0 1-0.88496-0.91211 0.88559 0.91079 0 0 1 0.88496-0.91015zm2.1137 0a0.88559 0.91079 0 0 1 0.88498 0.91015 0.88559 0.91079 0 0 1-0.88498 0.91016 0.88559 0.91079 0 0 1-0.88687-0.91016 0.88559 0.91079 0 0 1 0.88687-0.91015zm2.1061 0a0.88559 0.91079 0 0 1 0.88496 0.91015 0.88559 0.91079 0 0 1-0.88496 0.91211 0.88559 0.91079 0 0 1-0.88687-0.91211 0.88559 0.91079 0 0 1 0.88687-0.91015zm-9.6378 2.1777a0.88559 0.91079 0 0 1 0.88496 0.91211 0.88559 0.91079 0 0 1-0.88496 0.91016 0.88559 0.91079 0 0 1-0.88498-0.91016 0.88559 0.91079 0 0 1 0.88498-0.91211zm2.1536 0a0.88559 0.91079 0 0 1 0.88497 0.91016 0.88559 0.91079 0 0 1-0.88497 0.91211 0.88559 0.91079 0 0 1-0.88687-0.91211 0.88559 0.91079 0 0 1 0.88687-0.91016zm2.1706 0a0.88559 0.91079 0 0 1 0.88497 0.91016 0.88559 0.91079 0 0 1-0.88497 0.91211 0.88559 0.91079 0 0 1-0.88496-0.91211 0.88559 0.91079 0 0 1 0.88496-0.91016zm2.1479 0a0.88559 0.91079 0 0 1 0.88497 0.91016 0.88559 0.91079 0 0 1-0.88497 0.91211 0.88559 0.91079 0 0 1-0.88687-0.91211 0.88559 0.91079 0 0 1 0.88687-0.91016zm2.1118 0a0.88559 0.91079 0 0 1 0.88498 0.91016 0.88559 0.91079 0 0 1-0.88498 0.91211 0.88559 0.91079 0 0 1-0.88497-0.91211 0.88559 0.91079 0 0 1 0.88497-0.91016zm-9.6378 2.1973a0.88559 0.91079 0 0 1 0.88687 0.91211 0.88559 0.91079 0 0 1-0.88687 0.91015 0.88559 0.91079 0 0 1-0.88496-0.91015 0.88559 0.91079 0 0 1 0.88496-0.91211zm2.1536 0a0.88559 0.91079 0 0 1 0.88686 0.91015 0.88559 0.91079 0 0 1-0.88686 0.91211 0.88559 0.91079 0 0 1-0.88497-0.91211 0.88559 0.91079 0 0 1 0.88497-0.91015zm2.1706 0a0.88559 0.91079 0 0 1 0.88687 0.91015 0.88559 0.91079 0 0 1-0.88687 0.91211 0.88559 0.91079 0 0 1-0.88498-0.91211 0.88559 0.91079 0 0 1 0.88498-0.91015zm2.1478 0a0.88559 0.91079 0 0 1 0.88687 0.91015 0.88559 0.91079 0 0 1-0.88687 0.91211 0.88559 0.91079 0 0 1-0.88496-0.91211 0.88559 0.91079 0 0 1 0.88496-0.91015zm2.1137 0a0.88559 0.91079 0 0 1 0.88498 0.91015 0.88559 0.91079 0 0 1-0.88498 0.91211 0.88559 0.91079 0 0 1-0.88687-0.91211 0.88559 0.91079 0 0 1 0.88687-0.91015zm2.1061 0a0.88559 0.91079 0 0 1 0.88496 0.91015 0.88559 0.91079 0 0 1-0.88496 0.91211 0.88559 0.91079 0 0 1-0.88687-0.91211 0.88559 0.91079 0 0 1 0.88687-0.91015zm-5.3459 3.2617c1.0921 0 1.9807 0.91395 1.9807 2.0371v0.82617c0.15608 0.0337 0.27347 0.17728 0.27347 0.34765v3.1016c0 0.19534-0.15378 0.35351-0.34374 0.35351h-3.821c-0.18995 0-0.34373-0.15817-0.34373-0.35351v-3.1016c0-0.17037 0.11739-0.31411 0.27347-0.34765v-0.82617c0-1.1232 0.88864-2.0371 1.9807-2.0371zm0 0.70898c-0.71217 0-1.2914 0.5957-1.2914 1.3281v0.82031h2.5828v-0.82031c0-0.73239-0.5792-1.3281-1.2914-1.3281zm0 3.2363c-0.26691 0-0.48237 0.22356-0.48237 0.49805 0 0.14548 0.0607 0.27628 0.15762 0.36718l-0.12913 0.69727c-7e-3 0.0382 0.0191 0.0703 0.057 0.0703h0.8033c0.0379 0 0.064-0.0318 0.057-0.0703l-0.12912-0.70508c0.0924-0.0906 0.14812-0.21783 0.14812-0.35937 0-0.27449-0.21546-0.49805-0.48236-0.49805z" fill="currentColor"/>
</svg>
