<svg viewBox="0 0 22 22" xmlns="http://www.w3.org/2000/svg">
<defs>
<style id="current-color-scheme" type="text/css">.ColorScheme-Text {
        color:#dedede
      }</style>
</defs>
<path class="ColorScheme-Text" d="m15.659 9.8567h-7.8106v-1.9679c0-1.7579 1.4136-3.188 3.1512-3.188 1.4188 0 2.6693 0.96584 3.0411 2.3487 0.1218 0.45311 0.58368 0.72051 1.0316 0.59738 0.44797-0.12322 0.71233-0.59053 0.59049-1.0437-0.57031-2.1215-2.4879-3.6031-4.6632-3.6031-2.6645 0-4.8323 2.1931-4.8323 4.8887v1.9862c-0.38081 0.080869-0.66773 0.42314-0.66773 0.83212v7.4426c0 0.46889 0.37707 0.85036 0.84055 0.85036h9.3189c0.46348 0 0.84055-0.38147 0.84055-0.85036v-7.4426c0-0.46893-0.37707-0.85036-0.84055-0.85036z" fill="currentColor"/>
</svg>
