<svg version="1.1" viewBox="0 0 22 22" xmlns="http://www.w3.org/2000/svg">
<defs>
<style id="current-color-scheme" type="text/css">.ColorScheme-Text {
        color:#f2f2f2
      }</style>
</defs>
<path class="ColorScheme-Text" d="m3.4444 4.5556c-0.24622 0-0.44444 0.19822-0.44444 0.44444v11.59c0 0.22729 0.18244 0.40972 0.40972 0.40972h15.181c0.22728 0 0.40972-0.18243 0.40972-0.40972v-9.8472c0-0.22729-0.18244-0.40972-0.40972-0.40972h-7.2726c-0.50655 0.015111-0.75229-0.11661-0.97569-0.32639l-1.0556-1.0764c-0.14938-0.19573-0.26246-0.375-0.50868-0.375h-5.3333zm7.5556 3.5556c1.6019 0 3.1202 0.6476 4.276 1.8229 0.21737 0.22103 0.22561 0.58704 0.01736 0.81771-0.10723 0.11842-0.24915 0.17708-0.39236 0.17708-0.13558 0-0.2727-0.0525-0.37847-0.15972-0.95196-0.96818-2.2031-1.5-3.5226-1.5-1.322 0-2.5732 0.53086-3.5226 1.4983-0.217 0.22103-0.56219 0.2133-0.77083-0.017361-0.20864-0.23067-0.19961-0.59669 0.017361-0.81771 1.1537-1.1749 2.6709-1.8212 4.276-1.8212zm0 1.9288c1.161 0 2.2535 0.47683 3.0764 1.3455 0.21373 0.22527 0.21567 0.59264 0.0035 0.81944-0.10653 0.11302-0.2455 0.17014-0.38544 0.17014h-0.0017c-0.13921 0-0.27928-0.05616-0.38542-0.1684-0.61723-0.6515-1.4364-1.0104-2.3073-1.0104-0.87272 0-1.6912 0.35699-2.3073 1.0069-0.21336 0.22527-0.55856 0.2247-0.77083-0.0017-0.21226-0.22648-0.2121-0.59248 0.0017361-0.81774 0.82147-0.86712 1.9136-1.3438 3.0764-1.3438zm0 1.9271c0.71678 0 1.4052 0.32495 1.8872 0.88889 0.20246 0.23684 0.18496 0.60112-0.03819 0.81597-0.10396 0.10067-0.23373 0.15104-0.36458 0.15104-0.1483 0-0.29692-0.0635-0.40451-0.18924-0.27588-0.32324-0.67022-0.50868-1.0799-0.50868-0.41655 0-0.7997 0.17927-1.0781 0.50521-0.20209 0.23722-0.54555 0.25517-0.7691 0.03993-0.22318-0.21485-0.24067-0.57952-0.038194-0.81597 0.48052-0.56278 1.1675-0.88715 1.8854-0.88715zm-0.06771 1.9288c0.36374 0 0.65972 0.29871 0.65972 0.66493s-0.29598 0.66146-0.65972 0.66146c-0.36375 0-0.65799-0.29524-0.65799-0.66146s0.29424-0.66493 0.65799-0.66493z" color="#f2f2f2" fill="currentColor"/>
</svg>
