<svg width="22" height="22" viewBox="3.001 3 16 16" xmlns="http://www.w3.org/2000/svg">
<defs>
<style id="current-color-scheme" type="text/css">.ColorScheme-Text {
        color:#f2f2f2
      }</style>
</defs>
<path class="ColorScheme-Text" d="m16.256 3c-0.14422-3e-7 -0.28259 0.057984-0.38476 0.16016l-1.2285 1.2266 2.9707 2.9688 1.2266-1.2246c0.21278-0.21284 0.21079-0.55864-0.001953-0.77148l-2.1953-2.1973c-0.10224-0.10217-0.24253-0.16211-0.38672-0.16211zm-1.998 1.7715-0.42383 0.42773 2.9688 2.9688 0.42578-0.42773-2.9707-2.9688zm-0.80859 0.8125-0.42774 0.42578 2.9688 2.9688 0.42774-0.42578-2.9688-2.9688zm-0.8125 0.81055-8.3652 8.3652c-0.059597 0.05966-0.10579 0.1332-0.13281 0.21289l-1.1094 3.3086c-0.065414 0.19637-0.013634 0.41023 0.13281 0.55664 0.10368 0.1039 0.24263 0.1621 0.38477 0.16211 0.057969-3.3e-5 0.11691-0.008204 0.17383-0.027344l3.3066-1.1113c0.080248-0.02712 0.15339-0.071228 0.21289-0.13086l8.3652-8.3652-2.9688-2.9707z" fill="currentColor"/>
</svg>
