<svg viewBox="0 0 22 22" xmlns="http://www.w3.org/2000/svg">
<defs>
<style id="current-color-scheme" type="text/css">.ColorScheme-Text {
        color:#dedede
      }</style>
</defs>
<path class="ColorScheme-Text" d="m10.59 2.9995c-0.25557 0-0.50998 0.097-0.70508 0.291l-5.0566 4.5762c-0.21069 0.2106-0.30454 0.4903-0.28711 0.7656-0.017381 0.2758 0.07626 0.557 0.28711 0.7676l5.0566 4.5762c0.3902 0.3892 1.0219 0.3892 1.4121 0 0.39023-0.3893 0.39023-1.0209 0-1.4102l-4.3457-3.9336 4.3457-3.9316c0.39023-0.3893 0.39023-1.0214 0-1.4102-0.1951-0.1944-0.45146-0.291-0.70703-0.291zm0.82031 4.7324c-0.25557 0-0.51193 0.097-0.70703 0.291-0.39022 0.3889-0.39022 1.0209 0 1.4102l4.3457 3.9316-4.3457 3.9336c-0.39022 0.3893-0.39022 1.0209 0 1.4102 0.3902 0.3893 1.0219 0.3893 1.4121 0l5.0566-4.5762c0.21084-0.2106 0.30448-0.4918 0.28711-0.7676 0.01738-0.2753-0.07644-0.555-0.28711-0.7656l-5.0566-4.5762c-0.1951-0.1944-0.44951-0.291-0.70508-0.291z" fill="currentColor"/>
</svg>
