<svg version="1.1" viewBox="0 0 22 22" xmlns="http://www.w3.org/2000/svg">
<defs>
<style id="current-color-scheme" type="text/css">.ColorScheme-Text {
        color:#dedede
      }</style>
</defs>
<path class="ColorScheme-Text" d="m18.766 12.405-1.4364-1.4055 1.4364-1.4055c0.20826-0.19437 0.27764-0.43728 0.20826-0.72876-0.08319-0.28458-0.26359-0.46156-0.54136-0.53095l-1.957-0.49976 0.55171-1.9364c0.08319-0.28445 0.0175-0.5275-0.19792-0.72876-0.20111-0.21519-0.444-0.28112-0.72868-0.19781l-1.936 0.55178-0.49985-1.9573c-0.06939-0.28458-0.24608-0.46156-0.53064-0.53095-0.28467-0.0764-0.52757-0.0104-0.72869 0.19781l-1.4055 1.4472-1.4054-1.4472c-0.20124-0.21519-0.44414-0.28112-0.72869-0.19781-0.28454 0.0694-0.46151 0.24637-0.53089 0.53095l-0.49972 1.9573-1.9363-0.55178c-0.28455-0.0833-0.52744-0.0174-0.72868 0.19781-0.21517 0.20126-0.2811 0.44418-0.1978 0.72876l0.55172 1.9364-1.9571 0.49976c-0.27752 0.0694-0.45806 0.24637-0.54125 0.53095-0.069493 0.29148 0 0.53439 0.20815 0.72876l1.4365 1.4055-1.4365 1.4055c-0.20815 0.19436-0.27752 0.43728-0.20815 0.72876 0.083192 0.28458 0.26372 0.46156 0.54125 0.53095l1.9571 0.49963-0.55172 1.9364c-0.083292 0.28458-0.017398 0.52737 0.1978 0.72876 0.20124 0.21519 0.44413 0.281 0.72868 0.19781l1.9363-0.55165 0.49972 1.9572c0.069393 0.28458 0.24635 0.46501 0.53089 0.5413 0.29145 0.0694 0.53435 0 0.72869-0.20816l1.4054-1.4367 1.4055 1.4368c0.13877 0.15244 0.31573 0.22886 0.53077 0.22886 0.0487 0 0.11449-7e-3 0.19792-0.0207 0.28455-0.0833 0.46138-0.26375 0.53077-0.5413l0.49959-1.9572 1.9361 0.55165c0.28467 0.0832 0.52757 0.0174 0.72868-0.19781 0.2153-0.20139 0.2811-0.44431 0.19792-0.72876l-0.55158-1.9364 1.9568-0.49964c0.2779-0.0694 0.45819-0.24636 0.54136-0.53094 0.06949-0.29161 1.3e-4 -0.53452-0.20826-0.72889z" color="#dedede" fill="currentColor"/>
</svg>
