<svg version="1.1" viewBox="0 0 22 22" xmlns="http://www.w3.org/2000/svg">
<defs>
<style id="current-color-scheme" type="text/css">.ColorScheme-Text {
        color:#f2f2f2
      }</style>
</defs>
<path class="ColorScheme-Text" d="m9.6667 3c-0.24625 0-0.44444 0.1982-0.44444 0.44444v5.7778h-5.7778c-0.24622 0-0.44444 0.19822-0.44444 0.44444v2.6667c0 0.24622 0.19822 0.44444 0.44444 0.44444h5.7778v5.7778c0 0.24625 0.1982 0.44444 0.44444 0.44444h2.6667c0.24625 0 0.44444-0.1982 0.44444-0.44444v-5.7778h5.7778c0.24622 0 0.44444-0.19822 0.44444-0.44444v-2.6667c0-0.24622-0.19822-0.44444-0.44444-0.44444h-5.7778v-5.7778c0-0.24625-0.1982-0.44444-0.44444-0.44444h-2.6667z" color="#f2f2f2" fill="currentColor"/>
</svg>
