<svg viewBox="0 0 22 22" xmlns="http://www.w3.org/2000/svg">
<defs>
<style id="current-color-scheme" type="text/css">.ColorScheme-Text {
        color:#f2f2f2
      }</style>
</defs>
<g transform="translate(0 -1030.4)">
<path class="ColorScheme-Text" d="m9.8348 1033.4c-0.65516 0.022-1.2958 0.1427-1.9199 0.3612-0.8323 0.2913-1.559 0.71-2.1836 1.2578s-1.1361 1.2151-1.5332 2.0019c-0.39725 0.7869-0.62573 1.6248-0.68359 2.5116-0.05787 0.8866 0.05995 1.7441 0.35156 2.576 0.29151 0.8316 0.71162 1.5593 1.2598 2.1834 0.54814 0.6244 1.2147 1.1363 2.002 1.5333 0.78738 0.397 1.6244 0.6237 2.5117 0.6815 1.3653 0.089 2.6282-0.2156 3.7891-0.912l2.9863 3.3904c0.20796 0.2502 0.47916 0.3864 0.81445 0.4082 0.32261 0.021 0.60844-0.079 0.85938-0.2988 0.25116-0.2202 0.38716-0.4921 0.4082-0.8144 0.02155-0.3284-0.07429-0.615-0.28906-0.8593l-2.9844-3.3983c0.84184-1.0598 1.3075-2.2724 1.3965-3.6366 0.05787-0.8867-0.05798-1.7463-0.34961-2.5779-0.2915-0.8318-0.71162-1.5594-1.2598-2.1835-0.54815-0.6243-1.2166-1.1344-2.0039-1.5313-0.7875-0.3969-1.6244-0.6256-2.5117-0.6835-0.22182-0.014-0.44177-0.017-0.66016-0.01zm0.50586 2.3924c1.1479 0.075 2.1023 0.5454 2.8652 1.414 0.7628 0.8685 1.1061 1.8762 1.0312 3.0232-0.07487 1.1474-0.5469 2.1028-1.416 2.8652-0.86923 0.7623-1.8774 1.106-3.0254 1.0312-1.1479-0.075-2.1024-0.5474-2.8652-1.416s-1.1081-1.876-1.0332-3.0232c0.07486-1.1472 0.54691-2.101 1.416-2.8632 0.86912-0.7623 1.8795-1.106 3.0273-1.0312z" fill="currentColor"/>
</g>
</svg>
