<svg viewBox="0 0 22 22" xmlns="http://www.w3.org/2000/svg">
<defs>
<style id="current-color-scheme" type="text/css">.ColorScheme-Text {
        color:#dedede
      }</style>
</defs>
<path class="ColorScheme-Text" d="m9.1999 3c0.3611 0 0.7213 0.13801 0.99698 0.41405l7.1441 6.4959c0.2978 0.29901 0.43076 0.6989 0.40618 1.0898 0.02455 0.3916-0.10826 0.78881-0.40618 1.0879l-7.1441 6.4978c-0.55136 0.55276-1.4445 0.55276-1.9959 0-0.55136-0.55275-0.55136-1.4491 0-2.0019l6.1412-5.5838-6.1412-5.5858c-0.55136-0.55276-0.55136-1.4478 0-1.9999 0.27568-0.27604 0.63782-0.41405 0.99892-0.41405zm-2.6275 5.6775c1.2825 0 2.3224 1.0427 2.3224 2.33 0 1.2873-1.0399 2.332-2.3224 2.332-1.2825 0-2.3224-1.0446-2.3224-2.332 0-1.2873 1.0399-2.33 2.3224-2.33z" fill="currentColor"/>
</svg>
