<svg version="1.1" viewBox="0 0 22 22" xmlns="http://www.w3.org/2000/svg">
<defs>
<style id="current-color-scheme" type="text/css">.ColorScheme-Text {
        color:#f2f2f2
      }</style>
</defs>
<g transform="translate(-326 -534.36)">
<g transform="matrix(.66667 0 0 .66667 70.952 189.83)">
<path class="ColorScheme-Text" transform="matrix(1.5 0 0 1.5 382.57 516.8)" d="m3.668 3c-0.36913 0-0.66797 0.29887-0.66797 0.66797v14.664c0 0.36913 0.29883 0.66797 0.66797 0.66797h14.664c0.36913 0 0.66797-0.29884 0.66797-0.66797v-11.559c0-0.17721-0.069939-0.34732-0.19531-0.47266l-3.1055-3.1055c-0.12534-0.12533-0.29535-0.19531-0.47266-0.19531h-11.559zm1.9707 1.5273h9.1777v4.9004h-9.1777v-4.9004zm5.5703 0.47266c-0.11507 0-0.20898 0.10739-0.20898 0.24023v3.5195c0 0.13288 0.093911 0.24023 0.20898 0.24023h1.582c0.11507 0 0.20898-0.10735 0.20898-0.24023v-3.5195c0-0.13284-0.093911-0.24023-0.20898-0.24023h-1.582z" fill="currentColor"/>
</g>
</g>
</svg>
