<svg width="22" height="22" viewBox="4 3 14 16" xmlns="http://www.w3.org/2000/svg">
<defs>
<style id="current-color-scheme" type="text/css">.ColorScheme-Text {
        color:#f2f2f2
      }</style>
</defs>
<path class="ColorScheme-Text" d="m4.7767 3c-0.43093 0-0.77672 0.35758-0.77672 0.80078v14.398c0 0.4432 0.34579 0.80078 0.77672 0.80078h12.447c0.43093 0 0.77672-0.35758 0.77672-0.80078v-14.398c0-0.4432-0.34579-0.80078-0.77672-0.80078h-12.447zm0.87737 0.73633a0.88559 0.91079 0 0 1 0.88687 0.91015 0.88559 0.91079 0 0 1-0.88687 0.91211 0.88559 0.91079 0 0 1-0.88496-0.91211 0.88559 0.91079 0 0 1 0.88496-0.91015zm2.1536 0a0.88559 0.91079 0 0 1 0.88686 0.91015 0.88559 0.91079 0 0 1-0.88686 0.91211 0.88559 0.91079 0 0 1-0.88497-0.91211 0.88559 0.91079 0 0 1 0.88497-0.91015zm2.1706 0a0.88559 0.91079 0 0 1 0.88687 0.91015 0.88559 0.91079 0 0 1-0.88687 0.91211 0.88559 0.91079 0 0 1-0.88498-0.91211 0.88559 0.91079 0 0 1 0.88498-0.91015zm2.1478 0a0.88559 0.91079 0 0 1 0.88687 0.91015 0.88559 0.91079 0 0 1-0.88687 0.91211 0.88559 0.91079 0 0 1-0.88496-0.91211 0.88559 0.91079 0 0 1 0.88496-0.91015zm2.1137 0a0.88559 0.91079 0 0 1 0.88498 0.91015 0.88559 0.91079 0 0 1-0.88498 0.91016 0.88559 0.91079 0 0 1-0.88687-0.91016 0.88559 0.91079 0 0 1 0.88687-0.91015zm2.1061 0a0.88559 0.91079 0 0 1 0.88496 0.91015 0.88559 0.91079 0 0 1-0.88496 0.91211 0.88559 0.91079 0 0 1-0.88687-0.91211 0.88559 0.91079 0 0 1 0.88687-0.91015zm-9.6378 2.1777a0.88559 0.91079 0 0 1 0.88496 0.91211 0.88559 0.91079 0 0 1-0.88496 0.91016 0.88559 0.91079 0 0 1-0.88498-0.91016 0.88559 0.91079 0 0 1 0.88498-0.91211zm2.1536 0a0.88559 0.91079 0 0 1 0.88497 0.91016 0.88559 0.91079 0 0 1-0.88497 0.91211 0.88559 0.91079 0 0 1-0.88687-0.91211 0.88559 0.91079 0 0 1 0.88687-0.91016zm2.1706 0a0.88559 0.91079 0 0 1 0.88497 0.91016 0.88559 0.91079 0 0 1-0.88497 0.91211 0.88559 0.91079 0 0 1-0.88496-0.91211 0.88559 0.91079 0 0 1 0.88496-0.91016zm2.1479 0a0.88559 0.91079 0 0 1 0.88497 0.91016 0.88559 0.91079 0 0 1-0.88497 0.91211 0.88559 0.91079 0 0 1-0.88687-0.91211 0.88559 0.91079 0 0 1 0.88687-0.91016zm2.1118 0a0.88559 0.91079 0 0 1 0.88498 0.91016 0.88559 0.91079 0 0 1-0.88498 0.91211 0.88559 0.91079 0 0 1-0.88497-0.91211 0.88559 0.91079 0 0 1 0.88497-0.91016zm-9.6378 2.1973a0.88559 0.91079 0 0 1 0.88687 0.91211 0.88559 0.91079 0 0 1-0.88687 0.91015 0.88559 0.91079 0 0 1-0.88496-0.91015 0.88559 0.91079 0 0 1 0.88496-0.91211zm2.1536 0a0.88559 0.91079 0 0 1 0.88686 0.91015 0.88559 0.91079 0 0 1-0.88686 0.91211 0.88559 0.91079 0 0 1-0.88497-0.91211 0.88559 0.91079 0 0 1 0.88497-0.91015zm2.1706 0a0.88559 0.91079 0 0 1 0.88687 0.91015 0.88559 0.91079 0 0 1-0.88687 0.91211 0.88559 0.91079 0 0 1-0.88498-0.91211 0.88559 0.91079 0 0 1 0.88498-0.91015zm2.1478 0a0.88559 0.91079 0 0 1 0.88687 0.91015 0.88559 0.91079 0 0 1-0.88687 0.91211 0.88559 0.91079 0 0 1-0.88496-0.91211 0.88559 0.91079 0 0 1 0.88496-0.91015zm2.1137 0a0.88559 0.91079 0 0 1 0.88498 0.91015 0.88559 0.91079 0 0 1-0.88498 0.91211 0.88559 0.91079 0 0 1-0.88687-0.91211 0.88559 0.91079 0 0 1 0.88687-0.91015zm2.1061 0a0.88559 0.91079 0 0 1 0.88496 0.91015 0.88559 0.91079 0 0 1-0.88496 0.91211 0.88559 0.91079 0 0 1-0.88687-0.91211 0.88559 0.91079 0 0 1 0.88687-0.91015zm-5.551 3.4141c0.35926 0.0241 0.69905 0.11778 1.0179 0.2832 0.31876 0.16537 0.58896 0.37857 0.8109 0.63868 0.22194 0.2601 0.39092 0.56357 0.50895 0.91015 0.11808 0.34654 0.16586 0.70473 0.14243 1.0742-0.0361 0.56843-0.22506 1.074-0.56592 1.5156l1.2097 1.416c0.0869 0.10181 0.12457 0.22056 0.11584 0.35742-9e-3 0.13434-0.0635 0.24811-0.16522 0.33985-0.10159 0.0918-0.2169 0.13181-0.34753 0.12304-0.13575-9e-3 -0.24624-0.0657-0.33044-0.16992l-1.2078-1.4121c-0.47001 0.29023-0.98166 0.41794-1.5345 0.38086-0.35925-0.0241-0.69909-0.11973-1.0179-0.28515-0.31875-0.16542-0.58896-0.37657-0.81091-0.63672-0.22194-0.26011-0.39091-0.56362-0.50894-0.91016-0.11808-0.34663-0.16587-0.70473-0.14244-1.0742 0.0234-0.36948 0.11643-0.71899 0.27727-1.0469 0.16079-0.32784 0.36619-0.60573 0.6191-0.83399 0.2529-0.22826 0.54797-0.40205 0.88496-0.52343 0.33695-0.12144 0.68524-0.17059 1.0445-0.14649zm-0.0626 0.99219c-0.46477-0.0312-0.873 0.11204-1.2249 0.42969-0.35189 0.31759-0.54321 0.71536-0.57352 1.1934-0.0303 0.47804 0.10895 0.8978 0.4178 1.2598 0.30885 0.36191 0.69557 0.55867 1.1603 0.58984 0.46481 0.0312 0.87295-0.11204 1.2249-0.42968 0.3519-0.31765 0.54321-0.71532 0.57352-1.1934 0.0303-0.478-0.10894-0.89785-0.41779-1.2598-0.3089-0.36192-0.69558-0.55867-1.1603-0.58984z" fill="currentColor"/>
</svg>
