<svg width="22" height="22" viewBox="4.5 3 13 16" xmlns="http://www.w3.org/2000/svg">
<defs>
<style id="current-color-scheme" type="text/css">.ColorScheme-Text {
        color:#f2f2f2
      }</style>
</defs>
<path class="ColorScheme-Text" d="m13.473 3.0079c-0.24778 0.0325-0.48047 0.16582-0.63086 0.38476-0.16808 0.24467-4.1219 6.0026-4.6309 6.8691-0.25449 0.43329-0.54071 1.1363-0.77929 1.7793l2.0547 1.1894c0.44741-0.52408 0.9255-1.1231 1.1836-1.5625 0.51494-0.8766 3.607-7.1138 3.7383-7.3789 0.20945-0.42252 0.0508-0.93207-0.36133-1.168-0.103-0.059-0.21272-0.0954-0.32422-0.11133-0.0836-0.012-0.1674-0.0128-0.25-2e-3zm1.5274 6.9922c-0.0586 0-0.11706 0.0324-0.15039 0.0957l-2.0195 3.8301c-0.42415 0.80984-0.45691 1.8399 0 2.707 0.68684 1.3035 2.2142 1.7533 3.4121 1.0059 1.1979-0.74743 1.6126-2.4094 0.92579-3.7129l-2.0176-3.8301c-0.0333-0.0633-0.0918-0.0957-0.15039-0.0957zm-7.8125 2.4844c-0.11202 0.0133-0.22427 0.0349-0.33594 0.0664-0.53632 0.15198-1.3127 0.58901-1.9629 1.8027-0.51619 0.96358-0.32629 1.7877-0.1582 2.5156 0.16062 0.69575 0.28841 1.2452-0.1836 1.7949-0.0464 0.054-0.0592 0.12926-0.0332 0.19531 0.0164 0.0415 0.0464 0.076 0.084 0.0977 0.0223 0.0127 0.0478 0.0201 0.0742 0.0234 1.1939 0.14809 2.98-0.54767 4.082-2.4238 0.50055-0.85214 0.71486-1.6712 0.6211-2.3692-0.0244-0.18209-0.0702-0.35327-0.13477-0.51367l-2.0527-1.1894z" fill="currentColor"/>
</svg>
