<svg viewBox="0 0 22 22" xmlns="http://www.w3.org/2000/svg">
<defs>
<style id="current-color-scheme" type="text/css">.ColorScheme-Text {
        color:#dedede
      }</style>
</defs>
<path class="ColorScheme-Text" d="m15.223 3.0093c-0.33447-0.0479-0.68171 0.0909-0.88222 0.38283-0.16807 0.24468-4.1217 6.0029-4.6307 6.8695-0.25448 0.4333-0.5408 1.1363-0.77937 1.7794l2.0552 1.1895c0.44738-0.5241 0.92482-1.1232 1.1829-1.5626 0.5149-0.87665 3.6072-7.1142 3.7386-7.3793 0.20944-0.42253 0.0521-0.9321-0.36001-1.168-0.103-0.059-0.21292-0.0954-0.32441-0.11133zm-6.5356 9.4751c-0.11201 0.0133-0.22461 0.0349-0.33627 0.0664-0.53629 0.15199-1.3121 0.58904-1.9622 1.8028-0.51615 0.96362-0.32633 1.7878-0.15825 2.5157 0.16061 0.69578 0.28801 1.2452-0.18396 1.795-0.0464 0.054-0.0597 0.12927-0.0336 0.19532 0.0164 0.0415 0.0474 0.076 0.0851 0.0977 0.0223 0.0127 0.0468 0.0201 0.0732 0.0234 1.1938 0.14809 2.9808-0.5477 4.0828-2.4239 0.50051-0.85217 0.71487-1.6712 0.62111-2.3692-0.0244-0.1821-0.07-0.3533-0.13451-0.5137l-2.0532-1.1895z" fill="currentColor"/>
</svg>
