<svg viewBox="0 0 22 22" xmlns="http://www.w3.org/2000/svg">
<defs>
<style id="current-color-scheme" type="text/css">.ColorScheme-Text {
        color:#dedede
      }</style>
</defs>
<path class="ColorScheme-Text" d="m11.941 3.0107c-0.40636 0.048-0.7952 0.2516-1.0682 0.5997l-7.0287 8.9589c-0.54607 0.696-0.42838 1.7126 0.26125 2.2637l4.78 3.8203c0.68967 0.5511 1.6968 0.4324 2.2429-0.2636l7.0287-8.959c0.54607-0.696 0.42838-1.7125-0.26125-2.2637l-4.78-3.8203c-0.34484-0.2756-0.76831-0.3836-1.1747-0.336zm0.11418 0.75c0.2159-0.01 0.46123 0.078 0.68893 0.2598l4.5884 3.668c0.22767 0.1819 0.36612 0.4014 0.40833 0.6152 0.0422 0.2138 0.0021 0.4273-0.1761 0.6543l-4.389 5.5938-6.0998-4.875 4.389-5.5938c0.17817-0.2271 0.37433-0.3147 0.59024-0.3223z" fill="currentColor"/>
</svg>
