<svg width="22" height="22" viewBox="3.576 3.001 14.85 16" xmlns="http://www.w3.org/2000/svg">
<defs>
<style id="current-color-scheme" type="text/css">.ColorScheme-Text {
        color:#f2f2f2
      }</style>
</defs>
<path class="ColorScheme-Text" d="m17.199 3.0039c-0.12222 0.0081331-0.20312 0.027344-0.20312 0.027344-0.66145 0.45334-8.9375 8.8652-8.9375 8.8652l2.3301 2.2246s7.0167-8.3029 8.0352-9.9922c-0.11204-1.0662-0.85796-1.1494-1.2246-1.125zm-9.7012 9.5391-2.7539 1.6172s-0.85979 3.3807-1.168 4.7031l1.6523-2.2617c-0.14986-0.33307-0.059012-0.84187 0.20312-1.1289 0.35281-0.38428 0.98048-0.38358 1.3652-0.03125 0.38616 0.35328 0.41288 0.95025 0.060547 1.3359-0.26731 0.29267-0.76181 0.40943-1.1113 0.2793l-2.0664 1.9434 4.3574-1.6875 1.752-2.625-2.291-2.1445z" fill="currentColor"/>
</svg>
