<svg width="22" height="22" viewBox="3.505 2.9 14.99 16.2" xmlns="http://www.w3.org/2000/svg">
<defs>
<style id="current-color-scheme" type="text/css">.ColorScheme-Text {
        color:#f2f2f2
      }</style>
</defs>
<path class="ColorScheme-Text" d="m9.8339 2.9044c-0.65477 0.0221-1.2942 0.14274-1.918 0.36133-0.8318 0.29133-1.5593 0.70999-2.1836 1.2578s-1.1344 1.2152-1.5312 2.002c-0.39701 0.78691-0.62381 1.625-0.68164 2.5117-0.0578 0.88677 0.0582 1.7442 0.34961 2.5762 0.29134 0.83168 0.71195 1.5593 1.2598 2.1836 0.54781 0.62437 1.2152 1.1362 2.002 1.5332 0.78691 0.39701 1.623 0.62381 2.5098 0.68164 1.3645 0.089 2.627-0.21555 3.7871-0.91211l2.9824 3.3906c0.20783 0.2502 0.47936 0.38635 0.81445 0.4082 0.32242 0.021 0.60859-0.0785 0.85937-0.29883 0.25101-0.22016 0.38718-0.49203 0.40821-0.81445 0.0215-0.32846-0.0744-0.61503-0.28906-0.85937l-2.9824-3.3984c0.84133-1.0598 1.3056-2.2725 1.3945-3.6367 0.0578-0.88677-0.0582-1.7464-0.3496-2.5781-0.29133-0.8318-0.71-1.5593-1.2578-2.1836s-1.2152-1.1344-2.002-1.5312c-0.78702-0.39702-1.625-0.62576-2.5117-0.68359-0.22169-0.0145-0.4419-0.0171-0.66015-0.01zm0.50585 2.3926c1.1472 0.0748 2.1008 0.54546 2.8633 1.4141 0.76234 0.8686 1.1061 1.8762 1.0312 3.0234-0.0748 1.1473-0.54547 2.1029-1.4141 2.8652-0.86871 0.76234-1.8781 1.1061-3.0254 1.0312-1.1472-0.0748-2.1009-0.54742-2.8633-1.416-0.76234-0.86871-1.1061-1.8761-1.0312-3.0234 0.0748-1.1472 0.54743-2.101 1.416-2.8633 0.86859-0.76235 1.8762-1.1061 3.0234-1.0312zm-5.5391 11.803c-0.554 0-1 0.446-1 1s0.446 1 1 1 1-0.446 1-1-0.446-1-1-1zm4 0c-0.554 0-1 0.446-1 1s0.446 1 1 1 1-0.446 1-1-0.446-1-1-1zm4 0c-0.554 0-1 0.446-1 1s0.446 1 1 1 1-0.446 1-1-0.446-1-1-1z" fill="currentColor"/>
</svg>
