<svg width="22" height="22" viewBox="6 2 10 18" xmlns="http://www.w3.org/2000/svg">
<defs>
<style id="current-color-scheme" type="text/css">.ColorScheme-Text {
        color:#f2f2f2
      }</style>
</defs>
<path class="ColorScheme-Text" d="m14.127 8.0052h-0.9452v-2.2294c0-0.23294-0.18815-0.4217-0.42014-0.4217h-0.45273l-0.90589-3.0529c-0.053-0.17871-0.21679-0.30126-0.40266-0.30126-0.18578 0-0.34963 0.12255-0.40266 0.30126l-0.90589 3.0529h-0.45273c-0.23199 0-0.42014 0.18876-0.42014 0.4217v2.2294h-0.9452c-1.033 0-1.8734 0.84348-1.8734 1.8804v8.234c0 1.0369 0.84035 1.8803 1.8734 1.8803h6.2532c1.033 0 1.8734-0.84348 1.8734-1.8803v-8.234c0-1.037-0.84035-1.8804-1.8734-1.8804z" fill="currentColor"/>
</svg>
