<svg viewBox="0 0 22 22" xmlns="http://www.w3.org/2000/svg">
<defs>
<style id="current-color-scheme" type="text/css">.ColorScheme-Text {
        color:#f2f2f2
      }</style>
</defs>
<path class="ColorScheme-Text" d="m11 3c-3.3084 0-6 2.3742-6 5.2924 0 1.1754 0.85091 3.0916 2.6012 5.8582 1.2381 1.9568 2.4558 3.5884 2.5069 3.6569l0.89192 1.1925 0.89187-1.1925c0.0512-0.0685 1.269-1.7001 2.5069-3.6569 1.7504-2.7667 2.6012-4.6829 2.6012-5.8582 4e-5 -2.9182-2.6916-5.2924-6-5.2924zm0 8c-1.7177 0-3.1102-1.2282-3.1102-2.7434s1.3925-2.7434 3.1102-2.7434 3.1102 1.2282 3.1102 2.7434-1.3925 2.7434-3.1102 2.7434z" fill="currentColor"/>
</svg>
