<svg width="22" height="22" viewBox="1.163 3 19.67 16" xmlns="http://www.w3.org/2000/svg">
<defs>
<style id="current-color-scheme" type="text/css">.ColorScheme-Text {
        color:#f2f2f2
      }</style>
</defs>
<path class="ColorScheme-Text" d="m11.084 3c-4.781 0-8.5254 2.267-8.5254 5.1602 0 1.0673 0.51216 2.0473 1.3945 2.8613-0.27562 0.17851-0.54466 0.41563-0.74609 0.75195-0.41448 0.69188-0.42446 1.5513-0.027344 2.5527 0.37404 0.94336 0.28334 1.291 0.22656 1.3965-0.13299 0.25068-0.71785 0.37779-1.2832 0.5-0.13823 0.030056-0.27928 0.060443-0.41992 0.09375-0.37606 0.08882-0.60967 0.4651-0.52148 0.8418 0.075418 0.32162 0.36458 0.53906 0.68164 0.53906 0.053134 0 0.10627-0.005405 0.16016-0.017578 0.13164-0.031365 0.26463-0.061731 0.39453-0.089844 0.83709-0.18097 1.7841-0.3866 2.2227-1.209 0.33649-0.63054 0.28498-1.4468-0.16016-2.5703-0.22701-0.57238-0.25215-1.0138-0.076172-1.3125 0.19687-0.3351 0.63905-0.48324 0.87891-0.5332 1.4158 0.78915 3.2856 1.2817 5.377 1.3418l-0.41602-1.416c-3.4841-0.22832-6.2871-1.842-6.2871-3.7305 3.97e-5 -2.0381 3.2637-3.7617 7.127-3.7617 3.8633 0 7.127 1.7236 7.127 3.7617 0 0.49363-0.19561 0.96945-0.54102 1.4062l1.4043 0.41211c0.34152-0.56413 0.53711-1.1744 0.53711-1.8184 0-2.8932-3.7464-5.1602-8.5273-5.1602zm0.47461 6.248c-0.12344 0-0.24374 0.048543-0.33398 0.13867-0.12276 0.12213-0.17026 0.30121-0.12109 0.4668l2.5879 8.8066c0.053134 0.18291 0.21237 0.31735 0.40234 0.33789 0.017962 0.001864 0.035644 0.001953 0.052734 0.001953 0.17086 0 0.32952-0.092512 0.41406-0.24414l2.1445-3.8887 3.8867-2.1445c0.16753-0.092071 0.26316-0.27547 0.24219-0.46484-0.020381-0.18981-0.15438-0.34798-0.33789-0.40234l-8.8047-2.5898c-0.044212-0.013402-0.088045-0.017578-0.13281-0.017578z" fill="currentColor"/>
</svg>
