<svg width="22" height="22" viewBox="3 3 16 16" xmlns="http://www.w3.org/2000/svg">
<defs>
<style id="current-color-scheme" type="text/css">.ColorScheme-NegativeText {
        color:#da4453;
      }
      .ColorScheme-Text {
        color:#f2f2f2
      }</style>
</defs>
<path class="ColorScheme-Text" d="m3 3v4h1v-3h3v-1h-4zm12 0v1h3v3h1v-4h-4zm-0.96875 2.4375a2.5 2.5 0 0 0-2.5 2.5 2.5 2.5 0 0 0 2.5 2.5 2.5 2.5 0 0 0 2.5-2.5 2.5 2.5 0 0 0-2.5-2.5zm-6 0.0625a2.5 2.5 0 0 0-2.5 2.5 2.5 2.5 0 0 0 2.5 2.5 2.5 2.5 0 0 0 2.5-2.5 2.5 2.5 0 0 0-2.5-2.5zm-0.0625 6.0625a2.5 2.5 0 0 0-2.5 2.5 2.5 2.5 0 0 0 2.5 2.5 2.5 2.5 0 0 0 2.5-2.5 2.5 2.5 0 0 0-2.5-2.5zm-4.9688 3.4375v4h4v-1h-3v-3h-1z" fill="currentColor"/>
<path class="ColorScheme-NegativeText" d="m14.943 11c-0.7257 0-1.395 0.17944-2.0078 0.53711-0.61287 0.35761-1.0994 0.84221-1.457 1.4551-0.35774 0.61287-0.53516 1.2822-0.53516 2.0078 0 0.7257 0.17755 1.3949 0.53516 2.0078 0.35767 0.61274 0.84416 1.0974 1.457 1.4551 0.61287 0.35767 1.2821 0.53711 2.0078 0.53711s1.395-0.17944 2.0078-0.53711c0.61281-0.35761 1.0974-0.84227 1.4551-1.4551 0.35761-0.61287 0.53711-1.2822 0.53711-2.0078 0-0.7257-0.17956-1.395-0.53711-2.0078-0.35767-0.61281-0.84227-1.0974-1.4551-1.4551-0.61294-0.35767-1.282-0.53711-2.0078-0.53711zm-1.1777 2.0156c0.090265 0 0.1684 0.033636 0.23438 0.099609l0.94336 0.94141 0.94141-0.94141c0.065845-0.065973 0.14411-0.099609 0.23438-0.099609 0.093781 0 0.17426 0.033636 0.24023 0.099609l0.46875 0.46875c0.065973 0.065973 0.099609 0.1445 0.099609 0.23828 0 0.090265-0.033636 0.16846-0.099609 0.23438l-0.94336 0.94336 0.94336 0.94336c0.065973 0.06591 0.099609 0.14411 0.099609 0.23438 0 0.093718-0.033636 0.17237-0.099609 0.23828l-0.46875 0.46875c-0.065973 0.065973-0.14645 0.099609-0.24023 0.099609-0.090266 0-0.16853-0.033636-0.23438-0.099609l-0.94141-0.94141-0.94336 0.94141c-0.065973 0.065973-0.14411 0.099609-0.23438 0.099609-0.093781 0-0.17426-0.033636-0.24023-0.099609l-0.46875-0.46875c-0.065973-0.06591-0.097657-0.14456-0.097657-0.23828 0-0.090265 0.031684-0.16846 0.097657-0.23438l0.94336-0.94336-0.94336-0.94336c-0.065973-0.06591-0.097657-0.14411-0.097657-0.23438 0-0.093782 0.031684-0.17231 0.097657-0.23828l0.46875-0.46875c0.065973-0.065973 0.14645-0.099609 0.24023-0.099609z" fill="currentColor"/>
</svg>
