<svg viewBox="0 0 22 22" xmlns="http://www.w3.org/2000/svg">
<defs>
<style id="current-color-scheme" type="text/css">.ColorScheme-Text {
        color:#f2f2f2
      }</style>
</defs>
<path class="ColorScheme-Text" d="m17.381 3.0017c-0.13926-7e-3 -0.28235 3e-3 -0.42968 0.0293-1.1912 0.21259-2.441 1.5044-3.3418 3.457-0.2499 0.54167-0.60457 0.84611-1.084 0.93164-0.92009 0.16419-2.0843-0.50622-2.7773-1.1992-0.14515-0.14515-0.38024-0.14515-0.52539 0l-0.7207 0.7207 1.0644 1.0645c0.13825 0.13824 0.13825 0.36175 0 0.5-0.13825 0.13824-0.36375 0.13824-0.50195 0l-1.0625-1.0645-0.26758 0.26758c-0.14524 0.14524-0.14515 0.38019 0 0.52539l6.0312 6.0312c0.14511 0.14511 0.38011 0.14515 0.52539 0l1.4883-1.4883c0.14511-0.14515 0.14511-0.38019 0-0.52539-0.693-0.693-1.3634-1.8573-1.1992-2.7773 0.0855-0.47937 0.38997-0.83409 0.93164-1.084 1.9526-0.90084 3.2444-2.1506 3.457-3.3418 0.10509-0.58942-0.0595-1.12-0.47656-1.5371l-4e-3 -4e-3c-0.31281-0.3128-0.68964-0.4843-1.1074-0.50586zm-0.0273 0.99609c0.16574 0 0.33057 0.0649 0.45703 0.19141 0.25292 0.25292 0.25292 0.6631 0 0.91602-0.25287 0.25287-0.66305 0.25287-0.91601 0-0.25283-0.25292-0.25283-0.6631 0-0.91602 0.12646-0.12646 0.29325-0.19141 0.45898-0.19141zm-10.139 4.7422-3.9648 3.9629c-0.33421 0.33422-0.3343 0.87664 0 1.2109l0.4375 0.4375 1.043-0.41016-0.39258 1.0606 2.1934 2.1934 1.6856-0.97852-0.85742 1.8047 0.72656 0.72852c0.3343 0.3343 0.87672 0.33421 1.2109 0l3.9629-3.9648-6.0449-6.0449z" fill="currentColor"/>
</svg>
