<svg width="22" height="22" viewBox="3 3 16 16" xmlns="http://www.w3.org/2000/svg">
<defs>
<style id="current-color-scheme" type="text/css">.ColorScheme-Text {
        color:#f2f2f2
      }</style>
</defs>
<path class="ColorScheme-Text" d="m4 3c-0.554 0-1 0.446-1 1v14c0 0.554 0.446 1 1 1h14c0.554 0 1-0.446 1-1v-14c0-0.554-0.446-1-1-1h-14zm4.4356 3.4004c0.64582 0 1.1699 0.52391 1.1699 1.1699 0 0.64639-0.5241 1.1699-1.1699 1.1699-0.64621 0-1.1699-0.52372-1.1699-1.1699 0-0.64601 0.52372-1.1699 1.1699-1.1699zm5.3066 0c0.64582 0 1.1699 0.52391 1.1699 1.1699 0 0.64639-0.52391 1.1699-1.1699 1.1699-0.64583 0-1.1719-0.52372-1.1719-1.1699 0-0.64601 0.52605-1.1699 1.1719-1.1699zm-6.9668 5.3144c0.15922-0.0127 0.35023 6e-3 0.57813 0.0664 0 0 3.2352 1.7537 7.293 0 1.8231-0.48356 1.2656 1.6738 1.2656 1.6738-1.042 3.1997-4.9121 2.9394-4.9121 2.9394s-3.8704 0.26024-4.9121-2.9394c0 0-0.42704-1.6514 0.6875-1.7402z" fill="currentColor"/>
</svg>
