<svg width="22" height="22" version="1.1" xmlns="http://www.w3.org/2000/svg" xmlns:osb="http://www.openswatchbook.org/uri/2009/osb">
<g transform="translate(-326 -534.36)">
<g transform="matrix(1.3209 -.18129 .18129 1.3209 -288.66 -84.597)">
<g transform="translate(27.682 .1284)">
<g transform="matrix(.97603 0 0 -.97603 8.9381 1042.1)">
<g transform="translate(0 2.193e-5)">
<g transform="matrix(1.0246 0 0 -1.0246 -9.1576 1067.7)">
<g transform="matrix(1.5 0 0 1.5 360.89 -1034.9)">
<g transform="translate(-412.88 512)">
<g transform="translate(341.8 500.25)">
<g transform="translate(-392.99 -511.28)">
<g transform="matrix(1.3333 0 0 1.3333 -61.89 -166)">
<g transform="translate(341.8 500.25)">
<g transform="translate(-392.99 -511.28)">
<g transform="translate(.41988 .034845)" stroke="#1f2a47">
<g transform="translate(440.36 509.63)">
<g transform="matrix(.52109 0 0 .52109 -.76996 19.353)" stroke="#1f2a47">
<g transform="translate(-400.5 -509.15)">
<g transform="matrix(1.0037 0 0 1.0037 11.267 17.846)">
<g transform="matrix(1.5263 0 0 1.5263 376.5 -1040.2)">
<g transform="matrix(1.1526 0 0 1.1526 -4.8344 -156.43)">
<g transform="matrix(.81509 0 0 .81509 -323.2 584.91)">
<g transform="translate(341.8 500.25)">
<g transform="translate(-392.99 -511.28)">
<g transform="translate(.41988 .034845)" stroke="#1f2a47">
<g transform="translate(440.36 509.63)">
<g transform="matrix(.52109 0 0 .52109 -.76996 19.353)" stroke="#1f2a47">
<g transform="translate(-400.5 -509.15)">
<g transform="matrix(.76762 0 0 .76762 156.47 138.51)" stroke="none"></g>
</g>
</g>
</g>
</g>
</g>
</g>
</g>
</g>
</g>
</g>
</g>
</g>
</g>
</g>
</g>
</g>
</g>
</g>
</g>
</g>
</g>
</g>
<g transform="matrix(.025112 0 0 -.025112 366.74 529.08)" fill="#dedede">
<path d="m306.67 92.094 90.873 90.87 13.057-13.046-90.868-90.872z"/>
<path d="m294.88 103.88-256 256.02c-1.824 1.826-3.211 4.043-4.038 6.482l-33.957 101.26c-2.002 6.01-0.457 12.619 4.025 17.1 3.173 3.18 7.44 4.887 11.79 4.887 1.774 0 3.567-0.277 5.309-0.863l101.25-33.973c2.456-0.83 4.673-2.196 6.494-4.021l256-256.02z"/>
<path d="m331.52 67.257 90.868 90.874 13.03-13.045-90.873-90.871z"/>
<path d="m484.73 72.193-67.274-67.306c-3.129-3.127-7.382-4.887-11.795-4.887-4.414 0-8.663 1.76-11.79 4.887l-37.533 37.537 90.868 90.872 37.524-37.522c6.512-6.514 6.512-17.067 0-23.581z"/>
</g>
</g>
</g>
</g>
</g>
</g>
</svg>
