<svg viewBox="0 0 22 22" xmlns="http://www.w3.org/2000/svg">
<defs>
<style id="current-color-scheme" type="text/css">.ColorScheme-Text {
        color:#f2f2f2
      }</style>
</defs>
<path class="ColorScheme-Text" d="m7.0137 2-0.43555 0.77539c-0.26992 0.48127-0.50387 0.70879-0.62891 1.1367-0.062518 0.21396-0.061258 0.46992 0.0019531 0.70117 0.063217 0.23125 0.17263 0.4528 0.32617 0.72656l3.3945 6.0625-1.7148 3.0234c-0.44836-0.27746-0.89117-0.5918-1.4551-0.5918-1.6583 0-3.002 1.389-3.002 3.084s1.3437 3.082 3.002 3.082 3.002-1.387 3.002-3.082c0-0.13396-0.020982-0.25936-0.037109-0.38672 0.46225-1.0036 0.89854-1.7886 1.8086-2.248 0.003037-0.003375 0.002934-0.004437 0.005859-0.007812l1.2539 2.2383c-0.017223 0.13403-0.039062 0.2658-0.039062 0.4043 0 1.695 1.3437 3.082 3.002 3.082s3.002-1.387 3.002-3.082-1.3437-3.084-3.002-3.084c-0.56176 0-1.0044 0.30854-1.4512 0.58398l-1.709-3.0156 3.3984-6.0625v-0.0019532c0.15293-0.27282 0.26116-0.49394 0.32422-0.72461 0.063214-0.23125 0.066332-0.48721 0.003906-0.70117-0.12514-0.42789-0.35898-0.65545-0.62891-1.1367l-0.43555-0.77539-3.9941 7.0488-3.9922-7.0488zm-0.51172 13.885c0.55641 0 0.99609 0.4484 0.99609 1.0332s-0.43969 1.0312-0.99609 1.0312-0.99414-0.44645-0.99414-1.0312c0-0.5848 0.43773-1.0332 0.99414-1.0332zm8.9961 0c0.55641 0 0.99414 0.4484 0.99414 1.0332s-0.43773 1.0312-0.99414 1.0312-0.99609-0.44645-0.99609-1.0312c0-0.5848 0.43968-1.0332 0.99609-1.0332z" fill="currentColor"/>
</svg>
