<svg width="22" height="22" version="1.1" viewBox="3 3 16 16" xmlns="http://www.w3.org/2000/svg">
<g transform="translate(-326 -534.36)">
<g transform="matrix(1.341 0 0 1.341 -483.62 -163.96)">
<g transform="matrix(.019496 0 0 .019496 606 523)" fill="#f2f2f2">
<g fill="#f2f2f2">
<g fill="#f2f2f2">
<path d="m459 114.75h-420.75c-21.114 0-38.25 17.136-38.25 38.25v420.75c0 21.114 17.136 38.25 38.25 38.25h420.75c21.114 0 38.25-17.136 38.25-38.25v-420.75c0-21.114-17.136-38.25-38.25-38.25zm114.75-114.75h-382.5c-21.114 0-38.25 17.136-38.25 38.25v38.25h38.25v-19.125c0-10.557 8.568-19.125 19.125-19.125h344.25c10.557 0 19.125 8.568 19.125 19.125v344.25c0 10.557-8.568 19.125-19.125 19.125h-19.125v38.25h38.25c21.114 0 38.25-17.136 38.25-38.25v-382.5c0-21.114-17.136-38.25-38.25-38.25z" fill="#f2f2f2"/>
</g>
</g>
</g>
</g>
</g>
</svg>
