<svg width="22" height="22" viewBox="3.801 3 14.4 16" xmlns="http://www.w3.org/2000/svg">
<defs>
<style id="current-color-scheme" type="text/css">.ColorScheme-Text {
        color:#f2f2f2
      }</style>
</defs>
<path class="ColorScheme-Text" d="m4.5996 3c-0.4432 0-0.79883 0.35758-0.79883 0.80078v14.398c0 0.4432 0.35563 0.80078 0.79883 0.80078h12.801c0.4432 0 0.79883-0.35758 0.79883-0.80078v-14.398c0-0.4432-0.35563-0.80078-0.79883-0.80078h-12.801zm6.3262 2.3438c0.0693 0 0.14323 5e-3 0.2207 0.0137h2e-3c1.0509 0.0889 1.7943 0.44523 2.209 1.0606 0.46095 0.6839 0.39591 1.5184 0.3164 1.9551-7e-3 0.0394-0.0367 0.0711-0.0762 0.0781-0.0396 7e-3 -0.0793-0.0123-0.0996-0.0469-0.0826-0.1408-0.22404-0.35251-0.42387-0.56641-0.4848-0.51887-1.0866-0.79297-1.7422-0.79297-0.0545 0-0.11019 2e-3 -0.16602 6e-3v3.877c0 0.7187-0.53957 1.3085-1.2832 1.4023-0.0674 9e-3 -0.13576 0.0137-0.20312 0.0137-0.7174 0-1.3192-0.48548-1.4004-1.1289-0.0437-0.34658 0.0636-0.6913 0.30468-0.9707s0.58604-0.45927 0.97071-0.50781c0.22074-0.0279 0.44396-0.0101 0.65234 0.0527v-3.9531c0-0.22711 0.18892-0.49219 0.71875-0.49219zm-3.7637 8.3125h3.9082c0.30921 0 0.55664 0.24938 0.55664 0.55859s-0.24743 0.5586-0.55664 0.5586h-3.9082c-0.30921 0-0.55664-0.24939-0.55664-0.5586s0.24743-0.55859 0.55664-0.55859zm3.7676 1.8828h3.9082c0.30921 0 0.55664 0.24939 0.55664 0.5586s-0.24743 0.55859-0.55664 0.55859h-3.9082c-0.30921 0-0.55664-0.24938-0.55664-0.55859s0.24743-0.5586 0.55664-0.5586z" fill="currentColor"/>
</svg>
