<svg width="22" height="22" viewBox="2.803 2.803 16.39 16.39" xmlns="http://www.w3.org/2000/svg">
<defs>
<style id="current-color-scheme" type="text/css">.ColorScheme-Text {
        color:#f2f2f2
      }</style>
</defs>
<path class="ColorScheme-Text" d="m7.9258 2.8027c-0.56555 0-1.0234 0.45983-1.0234 1.0254v1.0254h1.0234v-0.51367c0-0.28278 0.23089-0.51172 0.51367-0.51172h9.2207c0.28278 0 0.51172 0.22894 0.51172 0.51172v9.2207c0 0.28277-0.22894 0.51367-0.51172 0.51367h-0.51367v1.0234h1.0254c0.56555 0 1.0254-0.45789 1.0254-1.0234v-10.246c0-0.56556-0.45984-1.0254-1.0254-1.0254h-10.246zm-4.0977 3.0742c-0.56556 0-1.0254 0.45983-1.0254 1.0254v11.27c0 0.56556 0.45983 1.0254 1.0254 1.0254h11.27c0.56556 0 1.0254-0.45983 1.0254-1.0254v-11.27c0-0.56556-0.45983-1.0254-1.0254-1.0254h-11.27zm5.5098 2.7871c0.55599 0 1.0858 0.10953 1.5938 0.32617 1.0163 0.43347 1.7513 1.1679 2.1836 2.1758 0.21779 0.50749 0.32812 1.0359 0.32812 1.5918 0 0.55599-0.11044 1.0882-0.32812 1.5957-0.43242 1.0078-1.1673 1.7462-2.1836 2.1797-0.50789 0.21653-1.0378 0.32812-1.5938 0.32812-0.5559 0-1.0862-0.11044-1.5938-0.32812-1.0078-0.43242-1.7466-1.1701-2.1797-2.1797-0.21703-0.50589-0.32227-1.0397-0.32227-1.5957 0-0.55589 0.10524-1.086 0.32227-1.5918 0.43309-1.0096 1.1718-1.7435 2.1797-2.1758 0.50742-0.21769 1.0379-0.32617 1.5938-0.32617zm-0.25586 1.5039c-0.20907 0-0.37891 0.16984-0.37891 0.37891v2.7891c0 0.12037 0.057804 0.22718 0.14648 0.29687l1.6289 1.2676c0.0697 0.0507 0.15007 0.082031 0.23242 0.082031 0.11404 0 0.22914-0.049451 0.29883-0.14453 0.12672-0.16473 0.10072-0.40453-0.070313-0.53125l-1.4766-1.1562v-2.6035c0-0.20907-0.17179-0.37891-0.38086-0.37891z" fill="currentColor"/>
</svg>
