<svg xmlns="http://www.w3.org/2000/svg" viewBox="0 0 22 22">
<defs>
<style id="current-color-scheme" type="text/css">.ColorScheme-Text {
        color:#dedede;
      }
      .ColorScheme-Highlight {
        color:#3daee9;
      }</style>
</defs>
<g fill="currentColor">
<path class="ColorScheme-Text" d="m13 5v8 4h1v-1.3613a4 4 0 0 0 3 1.3613 4 4 0 0 0 4-4 4 4 0 0 0-4-4 4 4 0 0 0-3 1.3613v-5.3613h-1zm4 5a3 3 0 0 1 3 3 3 3 0 0 1-3 3 3 3 0 0 1-3-3 3 3 0 0 1 3-3z" />
<path class="ColorScheme-Highlight" d="m5.67 3-4.8412 14h1.169l1.7353-4.6667h6.0396l1.7285 4.6667h1.3275l-4.9069-14h-2.2518zm1.0897 1.2008 2.5803 6.9658h-5.172l2.5916-6.9658z" />
</g>
</svg>
