<svg viewBox="0 0 22 22" xmlns="http://www.w3.org/2000/svg">
<defs>
<style id="current-color-scheme" type="text/css">.ColorScheme-Text {
        color:#f2f2f2
      }</style>
</defs>
<path class="ColorScheme-Text" d="m18.179 10.544c-0.52876-0.9374-1.3658-1.7804-2.3976-2.4268v-1.704c0-1.0145-0.72521-1.923-2.0424-2.5581-1.1442-0.5517-2.6493-0.8555-4.2374-0.8555-1.5885 0-3.0932 0.3038-4.2375 0.8555-1.3171 0.6351-2.0427 1.5436-2.0427 2.5581v9.1728c0 0.295 0.06188 0.5808 0.18098 0.8537 0.14861 0.36 0.38266 0.6756 0.67729 0.9212 0.31434 0.2912 0.71086 0.5548 1.1844 0.7832 1.1443 0.5517 2.649 0.8555 4.2375 0.8555 1.5881 0 3.0932-0.3038 4.2374-0.8555 0.47293-0.2282 0.86924-0.4917 1.1836-0.7825 0.29493-0.2458 0.52919-0.5617 0.67789-0.9221 0.07255-0.1658 0.12338-0.3365 0.15263-0.511 1.2544-0.2326 2.2036-0.8826 2.6902-1.8524 0.52466-1.0456 0.43075-2.3-0.2643-3.5321zm-13.468-4.1308c0-0.3994 0.44886-0.8542 1.2-1.2166 0.9329-0.4497 2.2419-0.7076 3.5909-0.7076s2.6576 0.2579 3.5905 0.7076c0.75157 0.3624 1.2001 0.8172 1.2001 1.2166 0 0.3993-0.44851 0.8541-1.2001 1.2163-0.93294 0.4498-2.2415 0.7079-3.5905 0.7079s-2.658-0.2581-3.5909-0.7079c-0.75118-0.3622-1.2-0.817-1.2-1.2163zm12.425 7.007c-0.65806 1.3119-3.0068 1.5211-5.1288 0.4566-0.45737-0.2296-0.88104-0.5057-1.2565-0.8162-0.15051 0.1147-0.33776 0.1833-0.5419 0.1833-0.49518 0-0.89655-0.4013-0.89655-0.8965s0.40137-0.8968 0.89655-0.8968c0.49523 0 0.89694 0.4016 0.89694 0.8968 0 0.05-0.0053 0.099-0.01314 0.1463 0.32173 0.2438 0.67331 0.4636 1.0482 0.6515 1.2691 0.6367 2.6194 0.8174 3.6405 0.5792v-3.7934c1.2552 1.0829 1.8567 2.4884 1.3547 3.4892z" fill="currentColor"/>
</svg>
