<svg version="1.1" viewBox="0 0 22 22" xmlns="http://www.w3.org/2000/svg">
<defs>
<style id="current-color-scheme" type="text/css">.ColorScheme-Text {
        color:#dedede
      }</style>
</defs>
<path class="ColorScheme-Text" d="m3.2877 4.201c-0.15971 0-0.28772 0.13557-0.28772 0.3047v12.458l16 0.03592v-10.691c0-0.16914-0.12948-0.30626-0.2892-0.30626h-8.6728c-0.29383 0.02752-0.33138-0.01352-0.47658-0.21876-0.20591-0.29183-0.51732-1.0779-0.72003-1.3626-0.1627-0.24923-0.18902-0.22032-0.45887-0.22032h-5.0948zm7.1531 4.8471h1.1199c-0.0016 0.5686 0 2.0657 0 2.0657h1.8163v1.186h-1.8163s-6.56e-4 1.4946-0.0016 2.0657h-1.1199c7.52e-4 -0.57114 0.0016-2.0657 0.0016-2.0657s-1.2164-8e-4 -1.8178 0v-1.1844c0.60137-0.0016 1.8178-0.0016 1.8178-0.0016s-7.6e-4 -1.4972 0-2.0657z" color="#dedede" fill="currentColor"/>
</svg>
