<svg width="22" height="22" viewBox="3.094 3 15.81 16" xmlns="http://www.w3.org/2000/svg">
<defs>
<style id="current-color-scheme" type="text/css">.ColorScheme-Text {
        color:#f2f2f2
      }</style>
</defs>
<path class="ColorScheme-Text" d="m8.7363 3-5.6426 14.967h2.1309l1.4629-4.0566h6.293 1.9902l-4.0605-10.91h-2.1738zm1.0449 2.3613h0.083984l2.4453 6.752h-4.9746l2.4453-6.752zm5.5117 9.4902c-0.13007-4.7e-4 -0.26177 0.049614-0.36133 0.14844l-3.1309 3.1094c-0.19929 0.19776-0.19981 0.51965-0.001953 0.71875 0.19768 0.19912 0.51965 0.19963 0.71875 0.001953l2.7695-2.75 2.752 2.7695c0.19776 0.19912 0.51964 0.19963 0.71875 0.001953 0.1992-0.19768 0.19971-0.5176 0.001954-0.7168l-3.1094-3.1328c-0.098889-0.099558-0.22742-0.14992-0.35742-0.15039z" fill="currentColor"/>
</svg>
