<svg viewBox="0 0 22 22" xmlns="http://www.w3.org/2000/svg">
<defs>
<style id="current-color-scheme" type="text/css">.ColorScheme-Text {
        color:#f2f2f2
      }</style>
</defs>
<path class="ColorScheme-Text" d="m16.676 3.0092-6.0352 0.56055h-6.2246c-0.76942-0.0565-1.082 0.014-1.082 0.70507v13.285c-0.0483 0.75836 0.27134 0.74219 1.0195 0.74219h6.3555l6.0176 0.69726c0.50601 0 0.65366-0.17763 0.68555-0.53515h0.83398c0.055 0 0.10919 6e-3 0.1836-0.0156 0.0744-0.0216 0.15558-0.0971 0.1875-0.17578 0.0635-0.15637 0.0562-0.33894 0.0488-0.7168v-13.289c0-0.26035-3e-3 -0.43293-0.0215-0.56446-9e-3 -0.0657-0.0204-0.12414-0.0527-0.18164-0.0324-0.0577-0.0987-0.1111-0.16407-0.1289v2e-3c-0.0844-0.0229-0.15197-6e-3 -0.2207 0.01l0.0391-6e-3h-0.81055c-0.0505-0.32604-0.21375-0.42999-0.75977-0.38863zm1.6348 0.70508v6e-3c3e-3 0.0108 5e-3 0.01 8e-3 0.0312 0.0128 0.0892 0.0156 0.25958 0.0156 0.51758v13.289c7e-3 0.36378-0.0132 0.53627-0.0234 0.57031h-0.89253c-3e-3 -0.0769-2e-3 -0.14048-8e-3 -0.22851l0.0508-14.053c0-0.0487-5e-3 -0.0771-6e-3 -0.12109h0.81055l0.0195-6e-3c0.0217-6e-3 0.015 1.5e-4 0.0254-6e-3zm-2.8535 3.7832v1.2305h-0.62109v-0.61523h-3.9883l-2.7598 4.7383-0.35742 0.61328-1.3242-2.2734h-0.88672v-0.61523h1.2442l0.96484 1.6582 2.7598-4.7344 4.9688-2e-3zm-3.1055 1.8496c0.48026 0 0.91247 0.18278 1.2422 0.47656v-0.47656h0.62109v3.6934h-0.62109v-0.47656c-0.32972 0.29379-0.76193 0.47656-1.2422 0.47656-1.0322 0-1.8633-0.82443-1.8633-1.8477 0-1.0232 0.83106-1.8457 1.8633-1.8457zm0 0.61523c-0.68816 0-1.2422 0.54836-1.2422 1.2305 0 0.68217 0.55403 1.2324 1.2422 1.2324 0.68813 0 1.2422-0.55025 1.2422-1.2324 0-0.68211-0.55406-1.2305-1.2422-1.2305zm-6.8262 3.6875h9.9258c4e-3 0 6e-3 0.13802 6e-3 0.3086 0 0.17053-2e-3 0.30664-6e-3 0.30664h-9.9258c-4e-3 0-6e-3 -0.13611-6e-3 -0.30664 0-0.17058 2e-3 -0.3086 6e-3 -0.3086zm4.3477 1.2324h1.2305c4e-3 0 6e-3 0.13607 6e-3 0.30664 0 0.17052-2e-3 0.30859-6e-3 0.30859h-1.2305c-4e-3 0-6e-3 -0.13807-6e-3 -0.30859 0-0.17057 2e-3 -0.30664 6e-3 -0.30664z" fill="currentColor"/>
</svg>
