<svg viewBox="0 0 22 22" xmlns="http://www.w3.org/2000/svg">
<defs>
<style id="current-color-scheme" type="text/css">.ColorScheme-Text {
        color:#dedede
      }</style>
</defs>
<path class="ColorScheme-Text" d="m8.7363 3-5.6426 14.967h2.1309l1.4629-4.0566h6.293 1.9902l-4.0605-10.91h-2.1738zm1.0449 2.3613h0.083984l2.4453 6.752h-4.9746l2.4453-6.752zm8.6152 9.4902c-0.13005 4.71e-4 -0.25854 0.050833-0.35742 0.15039l-2.752 2.7715-2.7695-2.752c-0.1991-0.19768-0.52107-0.19521-0.71875 0.003907-0.19786 0.1991-0.19734 0.52099 0.001953 0.71875l3.1309 3.1074c0.099557 0.098825 0.23126 0.14891 0.36133 0.14844 0.13-4.7e-4 0.25853-0.050833 0.35742-0.15039l3.1094-3.1309c0.19776-0.1992 0.19724-0.52107-0.001954-0.71875-0.099557-0.09884-0.23128-0.14891-0.36133-0.14844z" fill="currentColor"/>
</svg>
