<svg viewBox="0 0 22 22" xmlns="http://www.w3.org/2000/svg">
<defs>
<style id="current-color-scheme" type="text/css">.ColorScheme-Text {
        color:#dedede
      }</style>
</defs>
<path class="ColorScheme-Text" d="m11 3c-4.432 0-8 3.568-8 8s3.568 8 8 8 8-3.568 8-8-3.568-8-8-8zm3.457 4.4004c0.17953 0 0.3314 0.0618 0.45703 0.1875l0.91602 0.91602c0.12563 0.12571 0.18953 0.27946 0.18945 0.45898 0 0.17961-0.0638 0.33132-0.18945 0.45703l-5.791 5.791c-0.12571 0.12563-0.27946 0.18945-0.45898 0.18945-0.17961 0-0.3314-0.0637-0.45703-0.18945l-3.3535-3.3535c-0.12572-0.12563-0.18945-0.2775-0.18945-0.45703 0-0.17961 0.0637-0.33327 0.18945-0.45898l0.91602-0.91602c0.12571-0.12572 0.27742-0.1875 0.45703-0.1875 0.17952 0 0.33327 0.0618 0.45898 0.1875l1.9785 1.9883 4.418-4.4258c0.12563-0.12572 0.27937-0.1875 0.45898-0.1875z" fill="currentColor"/>
</svg>
