<svg width="22" height="22" viewBox="4.549 3 12.9 16" xmlns="http://www.w3.org/2000/svg">
<defs>
<style id="current-color-scheme" type="text/css">.ColorScheme-Text {
        color:#f2f2f2
      }</style>
</defs>
<path class="ColorScheme-Text" d="m7.8555 3c-0.27564 0-0.5 0.2244-0.5 0.5v1.1094c-0.33065-0.087633-0.66348-0.11311-0.98242-0.068359-0.6483 0.090913-1.1958 0.47066-1.541 1.0703-0.42206 0.73328-0.37089 1.6834 0.14258 2.6738 0.4429 0.85437 1.1967 1.6804 2.1211 2.3262 0.19689 0.13757 0.21911 0.28509 0.20312 0.38477-0.0181 0.11291-0.091936 0.20428-0.18555 0.23242-0.14069 0.042343-0.40884-0.041557-0.74023-0.40234-0.23886-0.26004-0.64227-0.27602-0.90234-0.03711-0.26004 0.23891-0.27797 0.64235-0.039062 0.90234 0.6146 0.66902 1.2024 0.82422 1.6133 0.82422 0.18755 0 0.3377-0.032403 0.4375-0.0625 0.21329-0.064137 0.40725-0.17643 0.57031-0.32227 0.46557 0.63996 1.134 1.1245 1.9102 1.3555v1.8359h-1.5527c-0.73241 0-1.3281 0.59567-1.3281 1.3281v1.7266c0 0.34389 0.27916 0.62305 0.62305 0.62305h6.5898c0.34389 0 0.62305-0.27916 0.62305-0.62305v-1.7266c0-0.73245-0.59572-1.3281-1.3281-1.3281h-1.5527v-1.8359c0.77608-0.23098 1.4446-0.71551 1.9102-1.3555 0.1631 0.14588 0.35698 0.25813 0.57031 0.32227 0.099797 0.030014 0.2499 0.0625 0.4375 0.0625 0.41085-4.2e-5 0.99873-0.15528 1.6133-0.82422 0.23891-0.26012 0.22097-0.66344-0.039062-0.90234-0.26004-0.2389-0.66344-0.22293-0.90234 0.03711-0.33144 0.36074-0.59938 0.44456-0.74023 0.40234-0.093653-0.028146-0.16745-0.11951-0.18555-0.23242-0.015983-0.099631 0.00623-0.24723 0.20312-0.38477 0.9244-0.64581 1.6782-1.4718 2.1211-2.3262 0.51343-0.99045 0.56464-1.9406 0.14258-2.6738-0.34514-0.59965-0.89275-0.97936-1.541-1.0703-0.3189-0.044709-0.65169-0.019316-0.98242 0.068359v-1.1094c0-0.27564-0.22444-0.5-0.5-0.5h-6.2891zm-1.3047 2.8066c0.24281-0.033957 0.52626 0.027735 0.80469 0.16406v3.2285c-0.53614-0.45531-0.97701-0.98296-1.2461-1.502-0.17726-0.34186-0.43398-0.98506-0.16797-1.4473 0.1504-0.26124 0.34938-0.40691 0.60938-0.44336zm8.8984 0c0.26004 0.036448 0.45906 0.18212 0.60938 0.44336 0.26606 0.4622 0.009249 1.1054-0.16797 1.4473-0.269 0.51899-0.70996 1.0466-1.2461 1.502v-3.2285c0.27838-0.13641 0.56192-0.19823 0.80469-0.16406z" fill="currentColor"/>
</svg>
