<svg viewBox="0 0 22 22" xmlns="http://www.w3.org/2000/svg">
<defs>
<style id="current-color-scheme" type="text/css">.ColorScheme-Text {
        color:#f2f2f2
      }</style>
</defs>
<path class="ColorScheme-Text" d="m3.5 3c-0.277 0-0.5 0.223-0.5 0.5v15c0 0.277 0.223 0.5 0.5 0.5h15c0.277 0 0.5-0.223 0.5-0.5v-15c0-0.277-0.223-0.5-0.5-0.5h-15zm2.7676 3h9.4395c0.14474 0 0.26172 0.11698 0.26172 0.26172v1.3457c0 0.14474-0.11698 0.25977-0.26172 0.25977h-9.4395c-0.14474 0-0.26172-0.11503-0.26172-0.25977v-1.3457c0-0.14474 0.11698-0.26172 0.26172-0.26172zm0.0097657 2.7695h9.4414c0.14474 0 0.25977 0.11698 0.25977 0.26172v1.3457c0 0.14474-0.11503 0.26172-0.25977 0.26172h-9.4414c-0.14474 0-0.26172-0.11698-0.26172-0.26172v-1.3457c0-0.14474 0.11698-0.26172 0.26172-0.26172zm0.015625 2.6328h9.4395c0.14474 0 0.26172 0.11503 0.26172 0.25976v1.3457c0 0.14474-0.11698 0.26172-0.26172 0.26172h-9.4395c-0.14474 0-0.26172-0.11698-0.26172-0.26172v-1.3457c0-0.14474 0.11698-0.25976 0.26172-0.25976zm-0.021484 2.7305h9.4414c0.14474 0 0.26172 0.11503 0.26172 0.25977v1.3457c0 0.14474-0.11698 0.26172-0.26172 0.26172h-9.4414c-0.14474 0-0.25977-0.11698-0.25977-0.26172v-1.3457c0-0.14474 0.11503-0.25977 0.25977-0.25977z" fill="currentColor"/>
</svg>
