<svg width="22" height="22" viewBox="3.714 3 14.57 16" xmlns="http://www.w3.org/2000/svg">
<defs>
<style id="current-color-scheme" type="text/css">.ColorScheme-Text {
        color:#f2f2f2
      }</style>
</defs>
<path class="ColorScheme-Text" d="m4.8301 3c-0.28676 0.0010368-0.57308 0.11242-0.79102 0.33203-0.43588 0.43904-0.43318 1.1479 0.0058594 1.584l6.1094 6.0645-6.0664 6.1094c-0.43588 0.439-0.43318 1.1481 0.0058594 1.584 0.439 0.43627 1.1499 0.43357 1.5859-0.005859l6.8535-6.9043c0.2179-0.21952 0.32721-0.50618 0.32617-0.79297-0.001036-0.28664-0.11251-0.57297-0.33203-0.79102l-6.9043-6.8535c-0.21961-0.21803-0.5062-0.32721-0.79297-0.32617zm11.457 6a2 2 0 0 0-2 2 2 2 0 0 0 2 2 2 2 0 0 0 2-2 2 2 0 0 0-2-2z" fill="currentColor"/>
</svg>
