<svg viewBox="0 0 22 22" xmlns="http://www.w3.org/2000/svg">
<defs>
<style id="current-color-scheme" type="text/css">.ColorScheme-Text {
        color:#dedede
      }</style>
</defs>
<path class="ColorScheme-Text" d="m3.7168 3.0322c-0.28966 0-0.52347 0.23375-0.52344 0.52344v14.15h1.0488v-5.7188c2.0961 1.0491 3.9536 0.49779 5.2402-1.0938 1.4443-1.7861 3.0856-2.3512 5.2402-3.1445 0 0-2.096-2.0497-5.2402-2.0957-2.0543-0.0297-4.0785-0.40578-5.2422-2.0976 0-0.28969-0.23381-0.52344-0.52343-0.52344zm10.219 6.8301v4.584l1.5586-1.5586c1.2573 0.41453 2.166 1.5963 2.166 2.9922 0 1.5242-1.0811 2.7941-2.5176 3.0879 2.0713-0.30874 3.6641-2.0773 3.6641-4.2344 0-1.4066-0.67809-2.6513-1.7227-3.4355l1.4356-1.4356h-4.584z" fill="currentColor"/>
</svg>
