<svg viewBox="0 0 22 22" xmlns="http://www.w3.org/2000/svg">
<defs>
<style id="current-color-scheme" type="text/css">.ColorScheme-Text {
        color:#dedede
      }</style>
</defs>
<path class="ColorScheme-Text" d="m17.875 17.5c-0.28675-1e-3 -0.57299-0.1139-0.79102-0.33612l-6.0644-6.1846-6.1094 6.1411c-0.43901 0.44097-1.1481 0.43851-1.584-6e-3 -0.43599-0.44441-0.43357-1.1641 6e-3 -1.6055l6.9043-6.9379c0.21952-0.22058 0.50618-0.3312 0.79297-0.33019 0.28664 1e-3 0.57296 0.1139 0.79101 0.33612l6.8535 6.9893c0.43578 0.44462 0.43335 1.1623-6e-3 1.6035-0.21952 0.22048-0.50622 0.33127-0.79297 0.33019zm-0.11914-11.118-13.539-0.0336c-0.39067-2e-3 -0.7589-0.14404-0.98633-0.37961-0.22756-0.23577-0.29155-0.54249-0.16992-0.81856l0.01-0.0217c0.16703-0.37905 0.63894-0.63092 1.1738-0.62874l13.539 0.0316c0.39047 2e-3 0.75824 0.14365 0.98633 0.37962 0.22766 0.23579 0.2916 0.54241 0.16992 0.81856l-0.01 0.0217c-0.16703 0.37921-0.63894 0.6329-1.1738 0.63073z" fill="currentColor"/>
</svg>
