<svg width="22" height="22" viewBox="3 3 16 16" xmlns="http://www.w3.org/2000/svg">
<defs>
<style id="current-color-scheme" type="text/css">.ColorScheme-Text {
        color:#f2f2f2
      }</style>
</defs>
<path class="ColorScheme-Text" d="m11 3a8 8 0 0 0-8 8 8 8 0 0 0 8 8 8 8 0 0 0 8-8 8 8 0 0 0-8-8zm-6e-3 3.5c0.76408 0 1.3847 0.21918 1.8633 0.65821 0.47859 0.43089 0.71875 0.98341 0.71875 1.6582 0 0.29269-0.0807 0.58981-0.24023 0.89063-0.15953 0.30081-0.30179 0.51641-0.42773 0.64649-0.11755 0.12195-0.2856 0.28144-0.50391 0.47656l-0.06247 0.06053c-0.51219 0.44716-0.76953 0.89464-0.76953 1.3418v0.48633h-1.1836v-0.57226c0-0.36585 0.0807-0.67929 0.24023-0.93945 0.15953-0.26829 0.44072-0.58173 0.84375-0.93945 0.2267-0.20325 0.38615-0.35361 0.47851-0.45117 0.10076-0.10569 0.1967-0.24692 0.28906-0.42578 0.10076-0.18699 0.15235-0.3791 0.15235-0.57422 0-0.37399-0.12701-0.6747-0.37891-0.90235-0.24349-0.22764-0.58291-0.34179-1.0195-0.34179-0.72209 0-1.2176 0.39139-1.4863 1.1719l-1.0839-0.43945c0.17632-0.46342 0.47998-0.87829 0.9082-1.2441 0.43662-0.37399 0.9904-0.56055 1.6621-0.56055zm-0.01367 7.3418c0.2435 0 0.44593 0.08154 0.60547 0.24414 0.16793 0.1626 0.25195 0.35634 0.25195 0.58399 0 0.22764-0.08403 0.42333-0.25195 0.58593-0.15949 0.16261-0.36193 0.24414-0.60542 0.24414-0.2435 0-0.44926-0.08153-0.61719-0.24414-0.15953-0.1626-0.23829-0.35829-0.23829-0.58593 0-0.22765 0.07875-0.42139 0.23829-0.58399 0.16793-0.1626 0.37369-0.24414 0.61719-0.24414z" fill="currentColor"/>
</svg>
