<svg viewBox="0 0 22 22" xmlns="http://www.w3.org/2000/svg">
<defs>
<style id="current-color-scheme" type="text/css">.ColorScheme-NegativeText {
        color:#da4453;
      }
      .ColorScheme-Text {
        color:#f2f2f2
      }</style>
</defs>
<path class="ColorScheme-Text" d="m5.3848 3.9238a0.94223 0.94223 0 0 0-0.94336 0.94336 0.94223 0.94223 0 0 0 0.94336 0.94141 0.94223 0.94223 0 0 0 0.94141-0.94141 0.94223 0.94223 0 0 0-0.94141-0.94336zm0.94141 2.8281 0.0058593 12.248 3.6699-4.4277 5.7461-0.2832-9.4219-7.5371z" fill="currentColor"/>
<path class="ColorScheme-NegativeText" d="m15.203 3c-0.42736 0-0.82272 0.10577-1.1836 0.31641-0.36092 0.21059-0.64679 0.49651-0.85742 0.85742-0.21067 0.36092-0.31445 0.75432-0.31445 1.1816 0 0.42736 0.10386 0.82069 0.31445 1.1816 0.21063 0.36084 0.4965 0.64679 0.85742 0.85742s0.75623 0.31641 1.1836 0.31641 0.82076-0.10577 1.1816-0.31641c0.36088-0.21059 0.64679-0.49654 0.85742-0.85742 0.21059-0.36092 0.31641-0.75432 0.31641-1.1816 0-0.42736-0.10585-0.82076-0.31641-1.1816-0.21063-0.36088-0.49654-0.64679-0.85742-0.85742-0.36096-0.21063-0.75424-0.31641-1.1816-0.31641zm-0.69336 1.1875c0.053156 0 0.097867 0.019743 0.13672 0.058594l0.55664 0.55469 0.55469-0.55469c0.038776-0.038851 0.085516-0.058594 0.13867-0.058594 0.055228 0 0.10177 0.019743 0.14062 0.058594l0.27539 0.27539c0.038851 0.038851 0.058594 0.085398 0.058594 0.14062 0 0.053157-0.019743 0.099858-0.058594 0.13867l-0.55469 0.55469 0.55469 0.55469c0.038851 0.038814 0.058594 0.085515 0.058594 0.13867 0 0.05519-0.019743 0.10181-0.058594 0.14062l-0.27539 0.27734c-0.038851 0.038851-0.085397 0.056641-0.14062 0.056641-0.053156 0-0.099896-0.01779-0.13867-0.056641l-0.55469-0.55664-0.55664 0.55664c-0.038851 0.038851-0.083562 0.056641-0.13672 0.056641-0.055228 0-0.10177-0.01779-0.14062-0.056641l-0.27734-0.27734c-0.038851-0.038814-0.058594-0.085435-0.058594-0.14062 0-0.053157 0.019743-0.099858 0.058594-0.13867l0.55469-0.55469-0.55469-0.55469c-0.038851-0.038814-0.058594-0.085515-0.058594-0.13867 0-0.055227 0.019743-0.10177 0.058594-0.14062l0.27734-0.27539c0.038851-0.038851 0.085397-0.058594 0.14062-0.058594z" fill="currentColor"/>
</svg>
