<svg viewBox="0 0 22 22" xmlns="http://www.w3.org/2000/svg">
<defs>
<style id="current-color-scheme" type="text/css">.ColorScheme-Text {
        color:#dedede
      }</style>
</defs>
<path class="ColorScheme-Text" d="m13.924 3.5c-0.13397 0-0.23812 0.0587-0.3125 0.17773l-0.60156 1.084c-0.67699-0.12644-1.3476-0.18945-2.0098-0.18945-2.0015 0-3.8461 0.50566-5.5352 1.5176-1.689 1.0121-3.1037 2.3921-4.2422 4.1406-0.14891 0.23082-0.22266 0.48679-0.22266 0.76953s0.0738 0.53898 0.22266 0.76953c0.65465 1.0193 1.4316 1.931 2.3281 2.7344 0.89658 0.80369 1.8755 1.4478 2.9394 1.9316-0.32739 0.55794-0.49023 0.88139-0.49023 0.9707 0 0.13397 0.0587 0.23812 0.17773 0.3125 0.90768 0.52096 1.4068 0.78125 1.4961 0.78125 0.13383 0 0.23811-0.0587 0.3125-0.17773l0.54687-0.99414c0.78877-1.4062 1.9647-3.5157 3.5274-6.3281 1.5625-2.8125 2.7344-4.9176 3.5156-6.3164 7e-3 -0.0148 0.01-0.0495 0.01-0.10156 0-0.12657-0.0584-0.22599-0.17773-0.30078-0.0222-0.0148-0.0939-0.0581-0.2168-0.12891-0.12277-0.0705-0.24009-0.14004-0.3516-0.20703-0.1115-0.067-0.23503-0.13439-0.36914-0.20508-0.13397-0.0707-0.24913-0.12917-0.3457-0.17382-0.0969-0.0447-0.16405-0.0664-0.20117-0.0664zm3.2031 2.9688-0.70312 1.25c1.2425 0.85562 2.2928 1.9495 3.1484 3.2812-0.90014 1.3988-2.0225 2.5404-3.3652 3.4258-1.3432 0.88576-2.8035 1.3955-4.3809 1.5293l-0.82617 1.4726c1.6519 0 3.2122-0.35174 4.6816-1.0586 1.4694-0.70658 2.7629-1.7007 3.8789-2.9805 0.52082-0.60274 0.92652-1.143 1.2168-1.6191 0.14877-0.25301 0.22266-0.50926 0.22266-0.76953 0-0.26041-0.0738-0.51638-0.22266-0.76953-0.42424-0.70671-0.96246-1.3925-1.6133-2.0547s-1.3303-1.2307-2.0371-1.707zm-10.445 0.5918c-0.45384 0.7737-0.68164 1.6114-0.68164 2.5117 0 0.79616 0.18222 1.5512 0.54687 2.2656 0.36466 0.71425 0.87019 1.3047 1.5176 1.7734l-0.87109 1.5742c-1.9345-0.87055-3.5232-2.266-4.7656-4.1856 1.131-1.756 2.5501-3.069 4.2539-3.9394zm9.2285 1.5742-3.125 5.6016c0.96712-0.37192 1.7442-0.98416 2.332-1.8359 0.58781-0.85192 0.88281-1.794 0.88281-2.8281 0-0.29014-0.0303-0.60257-0.0898-0.9375z" fill="currentColor"/>
</svg>
