<svg viewBox="0 0 22 22" xmlns="http://www.w3.org/2000/svg">
<defs>
<style id="current-color-scheme" type="text/css">.ColorScheme-Text {
        color:#f2f2f2
      }</style>
</defs>
<path class="ColorScheme-Text" d="m11 3a8 8 0 0 0-8 8 8 8 0 0 0 8 8 8 8 0 0 0 8-8 8 8 0 0 0-8-8zm3.1816 5.3008h0.7832v4.9062h-0.7832v-4.9062zm-7.0781 0.30078h0.69531l1.9785 4.6055h-0.93359l-0.42773-1.0508h-1.9883l-0.41797 1.0508h-0.9082l2.002-4.6055zm0.31445 0.98242c-0.06544 0.2301-0.1384 0.44386-0.2207 0.64648l-0.49414 1.2207h1.4277l-0.49609-1.2422c-0.0781-0.19631-0.1514-0.40336-0.2168-0.625zm4.3477 0.40625c0.25964 0 0.49923 0.04436 0.71875 0.13086 0.22163 0.08656 0.41215 0.21901 0.56836 0.39844 0.15619 0.17941 0.26819 0.38677 0.33789 0.62109 0.0443 0.14772 0.066406 0.34648 0.066406 0.59766 0 0.12455-0.028937 0.2861-0.085937 0.48242-0.05489 0.19416-0.15514 0.37243-0.30078 0.53711-0.14353 0.16461-0.32344 0.29728-0.54297 0.39648-0.2174 0.09715-0.48253 0.14648-0.79492 0.14648-0.50027 0-0.90488-0.15485-1.2109-0.46094-0.30607-0.30603-0.45898-0.70526-0.45898-1.1992 0-0.49814 0.16486-0.89752 0.49414-1.1973 0.32928-0.30181 0.73195-0.45312 1.209-0.45312zm0 0.69141c-0.26173 0-0.47926 0.090121-0.65234 0.26953-0.17313 0.17731-0.25781 0.41168-0.25781 0.70508 0 0.29342 0.08324 0.52972 0.25 0.70703 0.16886 0.17513 0.37936 0.26367 0.63476 0.26367 0.18364 0 0.3467-0.046212 0.49024-0.13281 0.14565-0.08651 0.25632-0.20006 0.32812-0.3457 0.07176-0.14565 0.10547-0.30213 0.10547-0.4668 0-0.28706-0.074582-0.52491-0.22656-0.71484-0.14987-0.19004-0.37424-0.28516-0.67188-0.28516zm4.6172 1.5332c0.14354 0 0.26408 0.04908 0.36328 0.15039 0.10135 0.10132 0.15234 0.22366 0.15234 0.36719 0 0.14142-0.051034 0.26392-0.15234 0.36523-0.10132 0.10135-0.22185 0.15234-0.36328 0.15234-0.14353 0-0.26587-0.051191-0.36719-0.15039-0.10135-0.10132-0.15234-0.22366-0.15234-0.36719 0-0.14354 0.049238-0.26588 0.14844-0.36719 0.10133-0.10131 0.22545-0.15039 0.37109-0.15039z" fill="currentColor"/>
</svg>
