<svg viewBox="0 0 22 22" xmlns="http://www.w3.org/2000/svg">
<defs>
<style id="current-color-scheme" type="text/css">.ColorScheme-Text {
        color:#dedede
      }</style>
</defs>
<path class="ColorScheme-Text" d="m11 3a8 8 0 0 0-8 8 8 8 0 0 0 8 8 8 8 0 0 0 8-8 8 8 0 0 0-8-8zm0.13672 3.0566c0.70583 0 1.3798 0.13711 2.0215 0.41211s1.156 0.64323 1.541 1.1016l-0.86719 0.86523c-0.65083-0.77917-1.5495-1.168-2.6953-1.168-1.0358 0-1.9345 0.36628-2.6953 1.0996-0.75167 0.72417-1.127 1.6679-1.127 2.832 0 1.1642 0.37529 2.1124 1.127 2.8457 0.76083 0.72417 1.6595 1.0879 2.6953 1.0879 1.1 0 2.0167-0.36823 2.75-1.1016 0.47667-0.47667 0.75284-1.1397 0.82617-1.9922h-3.5762v-1.1836h4.7715c0.045867 0.25667 0.068359 0.50385 0.068359 0.74219 0 1.375-0.40682 2.4713-1.2227 3.2871-0.92583 0.97167-2.1322 1.457-3.6172 1.457-1.4208 0-2.6297-0.48987-3.6289-1.4707-0.99-0.99-1.4863-2.2144-1.4863-3.6719 0-1.4575 0.49633-2.6754 1.4863-3.6563 0.99917-0.99 2.2081-1.4863 3.6289-1.4863z" fill="currentColor"/>
</svg>
