<svg viewBox="0 0 22 22" xmlns="http://www.w3.org/2000/svg">
<defs>
<style id="current-color-scheme" type="text/css">.ColorScheme-Text {
        color:#f2f2f2
      }</style>
</defs>
<path class="ColorScheme-Text" d="m11 3c-1.6117 0-2.9195 1.2943-2.9434 2.9004-1.4028-0.78232-3.1786-0.2962-3.9844 1.0996-0.80582 1.3957-0.33988 3.1764 1.0391 4-1.3789 0.82371-1.8449 2.6043-1.0391 4 0.80586 1.3958 2.5816 1.882 3.9844 1.0996 0.023815 1.6061 1.3317 2.9005 2.9434 2.9004 1.6117 0 2.9195-1.2944 2.9434-2.9004 1.4028 0.78228 3.1786 0.29624 3.9844-1.0996 0.80586-1.3958 0.3398-3.1764-1.0391-4 1.3789-0.82371 1.845-2.6043 1.0391-4-0.80586-1.3957-2.5817-1.8819-3.9844-1.0996-0.023932-1.6059-1.3317-2.9004-2.9434-2.9004zm0 5.3027c1.4895 0 2.6973 1.2077 2.6973 2.6973s-1.2077 2.6973-2.6973 2.6973c-1.4895 0-2.6973-1.2077-2.6973-2.6973s1.2077-2.6973 2.6973-2.6973zm0 1.1973a1.5 1.5 0 0 0-1.5 1.5 1.5 1.5 0 0 0 1.5 1.5 1.5 1.5 0 0 0 1.5-1.5 1.5 1.5 0 0 0-1.5-1.5z" fill="currentColor"/>
</svg>
