<svg width="22" height="22" viewBox="2.987 3 16.03 16" xmlns="http://www.w3.org/2000/svg">
<defs>
<style id="current-color-scheme" type="text/css">.ColorScheme-Text {
        color:#f2f2f2
      }</style>
</defs>
<path class="ColorScheme-Text" d="m11.721 3.0059c-0.83286-0.074907-1.4079 0.54841-1.4824 1.375-0.07421 0.82676 0.37968 1.5442 1.2129 1.6191 0.83286 0.075255 6.1727 0.87948 7.4121 6.5332 0.053132-0.27054 0.091928-0.54749 0.11719-0.82812 0.39735-4.4075-2.8526-8.3019-7.2598-8.6992zm-3.3125 0.39844c-0.26061 0.08954-0.51823 0.19209-0.77344 0.31055-4.0152 1.8598-5.7641 6.6231-3.9043 10.639 0.35154 0.759 1.1784 0.94446 1.9316 0.5957 0.75255-0.34875 1.1463-1.0981 0.79492-1.8574-0.35154-0.75917-2.3246-5.7869 1.9512-9.6875zm2.5918 4.5137c-1.1633 0-1.8828 0.87673-1.9297 1.9805-0.031008 0.061319-0.048828 0.1316-0.048828 0.20703 0 0.009581 0.0016047 0.019716 0.0019531 0.029297-0.077171 0.12351-0.12305 0.2734-0.12305 0.4375 0 0.027524 0.0014674 0.05503 0.0039063 0.082031-0.1857 0.069158-0.43138 0.38246-0.61133 0.80664-0.2296 0.54037-0.26634 1.0564-0.082031 1.1523 0.12699 0.066371 0.32532-0.083999 0.51172-0.36133 0.073862 0.30242 0.25662 0.57525 0.51758 0.79492-0.27385 0.10104-0.45312 0.26621-0.45312 0.45312 0 0.30764 0.48487 0.55664 1.082 0.55664 0.53863 0 0.98401-0.20327 1.0664-0.46875 0.022124-3.49e-4 0.10748-3.49e-4 0.12891 0 0.082746 0.26531 0.52812 0.46875 1.0664 0.46875 0.59716 0 1.082-0.24918 1.082-0.55664 0-0.18674-0.17911-0.35209-0.45312-0.45312 0.26061-0.21984 0.44406-0.49251 0.51758-0.79492 0.1864 0.27733 0.38455 0.4277 0.51172 0.36133 0.18448-0.095985 0.14809-0.61214-0.082031-1.1523-0.1803-0.42436-0.42441-0.73748-0.61133-0.80664 0.002787-0.026827 0.003906-0.054507 0.003906-0.082031 0-0.16392-0.045178-0.31399-0.12305-0.4375 0.001394-0.009581 1e-6 -0.019716 0-0.029297 0-0.075604-0.016389-0.14589-0.046874-0.20703-0.047209-1.1037-0.76672-1.9805-1.9297-1.9805zm5.0234 5.3965c-0.35664 0.034231-0.68877 0.21256-0.92969 0.55469-0.48149 0.68392-3.8474 4.9071-9.3633 3.1543 0.20782 0.181 0.42826 0.35362 0.6582 0.51562 3.6178 2.5477 8.6144 1.6787 11.162-1.9395 0.48202-0.68444 0.22895-1.4927-0.44922-1.9707-0.33934-0.23883-0.72149-0.34868-1.0781-0.31445z" fill="currentColor"/>
</svg>
