<svg viewBox="0 0 22 22" xmlns="http://www.w3.org/2000/svg">
<defs>
<style id="current-color-scheme" type="text/css">.ColorScheme-Text {
        color:#f2f2f2
      }</style>
</defs>
<path class="ColorScheme-Text" d="m11 3a8 8 0 0 0-8 8 8 8 0 0 0 8 8 8 8 0 0 0 8-8 8 8 0 0 0-8-8zm-3.9629 3.5c0.54487 0.12385 0.77237 0.11644 1.3184 0 0.6886 1.2204 1.7458 2.9275 2.6387 4.4062 0.88034-1.4474 2.2636-3.7077 2.6387-4.4062 0.42556 0.11139 0.85482 0.10781 1.3301 0-0.49864 0.6736-2.3141 3.8221-3.4141 5.752l0.080078 4.248s-0.35112-0.064453-0.63281-0.064453c-0.25417 0-0.63477 0.064453-0.63477 0.064453l0.080078-4.248c-0.58949-1.0189-2.3229-4.1225-3.4043-5.752z" fill="currentColor"/>
</svg>
