<svg width="22" height="22" viewBox="3 3 16 16" xmlns="http://www.w3.org/2000/svg">
<defs>
<style id="current-color-scheme" type="text/css">.ColorScheme-Text {
        color:#f2f2f2
      }</style>
</defs>
<path class="ColorScheme-Text" d="m4.3212 3-1.1742 0.5469 0.20387 0.4531 0.77824-0.3379v3.3164h0.53516v-3.9785h-0.34305zm3.1443 0.9785c-0.27782 0-0.50184 0.2232-0.50184 0.5s0.22401 0.5 0.50184 0.5h9.0272c0.27782 0 0.50184-0.2232 0.50184-0.5s-0.22401-0.5-0.50184-0.5h-9.0272zm0 2c-0.27782 0-0.50184 0.2232-0.50184 0.5s0.22401 0.4981 0.50184 0.4981h5.0145c0.27782 0 0.50184-0.2213 0.50184-0.4981s-0.22401-0.5-0.50184-0.5h-5.0145zm7.0218 0c-0.27782 0-0.50184 0.2232-0.50184 0.5s0.22402 0.4981 0.50184 0.4981 0.50184-0.2213 0.50184-0.4981-0.22401-0.5-0.50184-0.5zm2.0054 0c-0.27782 0-0.50184 0.2232-0.50184 0.5s0.22402 0.4981 0.50184 0.4981 0.50184-0.2213 0.50184-0.4981-0.22401-0.5-0.50184-0.5zm2.0054 0c-0.27782 0-0.50184 0.2232-0.50184 0.5s0.22402 0.4981 0.50184 0.4981 0.50184-0.2213 0.50184-0.4981-0.22401-0.5-0.50184-0.5zm-14.31 3.1172c-0.32053 0-0.5809 0.089-0.78216 0.2676-0.20126 0.1782-0.33458 0.3678-0.39794 0.5683l0.47047 0.1895c0.033544-0.13 0.11009-0.25 0.22936-0.3613 0.11927-0.1152 0.2747-0.1739 0.46851-0.1739 0.21245 0 0.38296 0.061 0.50968 0.1836s0.19015 0.2641 0.19015 0.4239c0 0.1559-0.032694 0.2868-0.096055 0.3945-0.063361 0.104-0.18591 0.2586-0.36854 0.4629-0.20499 0.2227-0.67306 0.7-1.4036 1.4316v0.5117h2.4386v-0.4902h-1.7721l1.1174-1.1191c0.40626-0.4233 0.60965-0.8201 0.60965-1.1914 0-0.3008-0.11374-0.5581-0.34109-0.7735s-0.51826-0.3242-0.87234-0.3242zm3.2776 0.8789c-0.27782 0-0.50184 0.2232-0.50184 0.5s0.22401 0.5 0.50184 0.5h7.0218c0.27782 0 0.50184-0.2232 0.50184-0.5s-0.22401-0.5-0.50184-0.5h-7.0218zm0 2c-0.27782 0-0.50184 0.2213-0.50184 0.4981s0.22401 0.5 0.50184 0.5h3.0091c0.27782 0 0.50184-0.2232 0.50184-0.5s-0.22401-0.4981-0.50184-0.4981h-3.0091zm5.0145 0c-0.27782 0-0.49988 0.2213-0.49988 0.4981 1e-6 0.2768 0.22206 0.5 0.49988 0.5s0.50184-0.2232 0.50184-0.5-0.22401-0.4981-0.50184-0.4981zm2.0074 0c-0.27782 0-0.50184 0.2213-0.50184 0.4981s0.22402 0.5 0.50184 0.5 0.50184-0.2232 0.50184-0.5-0.22401-0.4981-0.50184-0.4981zm2.0054 0c-0.27782 0-0.50184 0.2213-0.50184 0.4981s0.22402 0.5 0.50184 0.5 0.50184-0.2232 0.50184-0.5-0.22401-0.4981-0.50184-0.4981zm-12.205 2.8067c-0.32323 0-0.58505 0.085-0.78608 0.2539-0.20103 0.1688-0.34067 0.362-0.41951 0.5781l0.50184 0.2109c0.1222-0.3495 0.35687-0.5234 0.70375-0.5234 0.20103 0 0.36978 0.052 0.5038 0.1582 0.13796 0.1061 0.20583 0.251 0.20583 0.4355 0 0.1964-0.069808 0.3549-0.21171 0.4727-0.13796 0.1178-0.31446 0.1758-0.52732 0.1758h-0.30581v0.5058h0.34697c0.22862 0 0.42452 0.07 0.58613 0.2071 0.16556 0.1375 0.24896 0.3056 0.24896 0.5058 0 0.2042-0.081463 0.3762-0.24308 0.5137-0.15767 0.1375-0.34579 0.2051-0.56653 0.2051-0.19709 0-0.36971-0.06-0.51556-0.1817-0.14585-0.1218-0.25058-0.2937-0.31365-0.5136l-0.49596 0.207c0.098545 0.3338 0.27502 0.585 0.53124 0.7539s0.52194 0.2539 0.79392 0.2539c0.38236 0 0.70429-0.1159 0.96839-0.3477 0.2641-0.2356 0.39598-0.5312 0.39598-0.8886 0-0.2318-0.06399-0.4327-0.19407-0.6016-0.12614-0.1689-0.28906-0.2944-0.48616-0.3769v-0.024c0.36265-0.1884 0.54496-0.4783 0.54496-0.8672 0-0.322-0.12025-0.5868-0.3607-0.7949-0.24045-0.2121-0.54301-0.3183-0.90566-0.3183zm3.1777 1.1894c-0.27782 0-0.50184 0.2232-0.50184 0.5s0.22401 0.5 0.50184 0.5h6.0181c0.27782 0 0.50184-0.2232 0.50184-0.5s-0.22401-0.5-0.50184-0.5h-6.0181zm0 1.9981c-0.27782 0-0.50184 0.2231-0.50184 0.5 0 0.2768 0.22401 0.5 0.50184 0.5h1.0037c0.27782 0 0.50184-0.2232 0.50184-0.5 0-0.2769-0.22401-0.5-0.50184-0.5h-1.0037zm3.0091 0c-0.27782 0-0.50184 0.2231-0.50184 0.5 0 0.2768 0.22401 0.5 0.50184 0.5 0.27782 0 0.50184-0.2232 0.50184-0.5 0-0.2769-0.22401-0.5-0.50184-0.5zm2.0054 0c-0.27782 0-0.49988 0.2231-0.49988 0.5 1e-6 0.2768 0.22206 0.5 0.49988 0.5s0.50184-0.2232 0.50184-0.5c0-0.2769-0.22401-0.5-0.50184-0.5zm2.0074 0c-0.27782 0-0.50184 0.2231-0.50184 0.5 0 0.2768 0.22402 0.5 0.50184 0.5s0.50184-0.2232 0.50184-0.5c0-0.2769-0.22401-0.5-0.50184-0.5z" fill="currentColor"/>
</svg>
