<svg viewBox="0 0 22 22" xmlns="http://www.w3.org/2000/svg">
<defs>
<style id="current-color-scheme" type="text/css">.ColorScheme-Text {
        color:#f2f2f2
      }</style>
</defs>
<path class="ColorScheme-Text" d="m14.327 4.2605v12.288c0 0.44704-0.58598 0.62597-0.82716 0.2497-1.3802-2.1511-2.7434-3.2792-7.5307-3.5182l1.5113 4.9129h-2.2587l-1.5286-4.9687c-1.4975-0.06861-2.6927-1.3055-2.6927-2.82 0-1.5586 1.2648-2.827 2.8234-2.827 6.5651 0 8.1084-1.1239 9.6758-3.5672 0.2414-0.37602 0.82738-0.19708 0.82738 0.24996zm3.8882 6.7397c0 1.1775-0.39613 2.259-0.99227 3.0772 0 0-0.23876 0.32704-0.63518 0.32704-0.40797 0-0.76827-0.34254-0.76827-0.7724 0-0.2538 0.15202-0.46012 0.15202-0.46012 0.28368-0.41481 0.69917-1.0519 0.69917-2.1717s-0.41549-1.7571-0.69917-2.172c0 0-0.15202-0.20632-0.15202-0.46012 0-0.42986 0.36026-0.77241 0.76827-0.77241 0.39641 0 0.63518 0.32704 0.63518 0.32704 0.59639 0.81846 0.99227 1.9 0.99227 3.0774zm-0.57339-4.4574s-0.34857-0.24924-0.34857-0.63977c0-0.43956 0.36098-0.77533 0.77236-0.77533 0.26454 0 0.50818 0.18643 0.50818 0.18643 0.93358 0.69821 2.4267 2.4874 2.4267 5.686s-1.4934 4.9878-2.427 5.686c0 0-0.24365 0.18643-0.50811 0.18643-0.41117 0-0.77244-0.33577-0.77244-0.77529 0-0.39057 0.34864-0.63978 0.34864-0.63978 1.0866-0.8017 1.8139-2.4042 1.8139-4.4574 0-2.0531-0.7273-3.6557-1.8137-4.4574z" fill="currentColor"/>
</svg>
