<svg viewBox="0 0 22 22" xmlns="http://www.w3.org/2000/svg">
<defs>
<style id="current-color-scheme" type="text/css">.ColorScheme-Text {
        color:#f2f2f2
      }</style>
</defs>
<path class="ColorScheme-Text" d="m7.6523 3c-0.85444 0-1.5488 0.69477-1.5488 1.5488v1.5547h-1.5547c-0.85412 0-1.5488 0.69439-1.5488 1.5488 0 0.85405 0.69471 1.5488 1.5488 1.5488h1.5547v3.5977h-1.5547c-0.85412 0-1.5488 0.6949-1.5488 1.5488s0.69471 1.5488 1.5488 1.5488h1.5547v1.5547c0 0.85457 0.69439 1.5488 1.5488 1.5488 0.85412 0 1.5488-0.69426 1.5488-1.5488v-1.5547h3.5977v1.5547c0 0.85457 0.6949 1.5488 1.5488 1.5488 0.85438 0 1.5488-0.69426 1.5488-1.5488v-1.5547h1.5547c0.85425 0 1.5488-0.6949 1.5488-1.5488s-0.69464-1.5488-1.5488-1.5488h-1.5547v-3.5977h1.5547c0.85386 0 1.5488-0.69477 1.5488-1.5488 0-0.8545-0.6949-1.5488-1.5488-1.5488h-1.5547v-1.5547c0-0.85405-0.69477-1.5488-1.5488-1.5488-0.85457 0-1.5488 0.69477-1.5488 1.5488v1.5547h-3.5977v-1.5547c0-0.85405-0.69471-1.5488-1.5488-1.5488zm0.86133 5.5137h4.9727v4.9727h-4.9727v-4.9727z" fill="currentColor"/>
</svg>
