<svg viewBox="0 0 22 22" xmlns="http://www.w3.org/2000/svg">
<defs>
<style id="current-color-scheme" type="text/css">.ColorScheme-Text {
        color:#f2f2f2
      }</style>
</defs>
<path class="ColorScheme-Text" d="m16.586 3.0098-5.9805 0.56055h-6.1719c-0.76272-0.056531-1.0723 0.014017-1.0723 0.70508v13.285c-0.047907 0.75836 0.26809 0.74219 1.0098 0.74219h6.3008l5.9648 0.69727c0.4604 0 0.61458-0.1576 0.66406-0.45703h0.54102c0.12271 0 0.22562 0.00512 0.33203-0.011719 0.10641-0.014433 0.23447-0.056147 0.32422-0.1582 0.089753-0.10206 0.12072-0.22617 0.13476-0.35547 0.01373-0.12641 0.011617-0.273 0.003907-0.46094v-13.287c0-0.35037 0.02628-0.57046-0.13477-0.78125-0.080522-0.10536-0.21563-0.16147-0.33008-0.17578-0.10581-0.013231-0.20976-0.0058706-0.33008 0.0097656h-0.52539c-0.068362-0.25596-0.24112-0.34989-0.73047-0.3125zm1.5293 0.77539c0.00609 0.0050795 0.027322 0.015366 0 0.011719-0.009906-0.0080972 0.033204 0.14209 0.033204 0.47461v13.295c0.007818 0.18493 0.006839 0.31944-0.001954 0.40039-0.008792 0.080947-0.025572 0.097244-0.015625 0.085937 0.009947-0.011426 0.026988-0.010069-0.021484-0.005859-0.048472 0.006615-0.14223 0.005859-0.26758 0.005859h-0.52148c-0.002652-0.053719-3.11e-4 -0.093664-0.003906-0.15234l0.050782-14.053c-1e-6 -0.015712-0.001903-0.023852-0.001954-0.039062h0.50196c0.12168-0.013231 0.20935-0.015929 0.24609-0.011719h0.001953c2.44e-4 1.99e-4 -3.11e-4 -0.012123 0-0.011719zm-8.3145 3.7148h1.3984v2.8008h2.8008v1.3984h-2.8008v2.8008h-1.3984v-2.8008h-2.8008v-1.3984h2.8008v-2.8008z" fill="currentColor"/>
</svg>
