<svg width="22" height="22" viewBox="3 3 16 16" xmlns="http://www.w3.org/2000/svg">
<defs>
<style id="current-color-scheme" type="text/css">.ColorScheme-Text {
        color:#f2f2f2
      }</style>
</defs>
<path class="ColorScheme-Text" d="m4 3c-0.55402 0-1 0.44599-1 1v14c0 0.55402 0.44598 1 1 1h14c0.55401 0 1-0.44598 1-1v-14c0-0.55401-0.44599-1-1-1h-14zm3.1191 3a1.2698 1.2698 0 0 1 1.2695 1.2695 1.2698 1.2698 0 0 1-1.2695 1.2715 1.2698 1.2698 0 0 1-1.2695-1.2715 1.2698 1.2698 0 0 1 1.2695-1.2695zm3.873 0a1.2698 1.2698 0 0 1 1.2695 1.2695 1.2698 1.2698 0 0 1-1.2695 1.2715 1.2698 1.2698 0 0 1-1.2695-1.2715 1.2698 1.2698 0 0 1 1.2695-1.2695zm3.8887 0a1.2698 1.2698 0 0 1 1.2695 1.2695 1.2698 1.2698 0 0 1-1.2695 1.2695 1.2698 1.2698 0 0 1-1.2695-1.2695 1.2698 1.2698 0 0 1 1.2695-1.2695zm0 3.6973a1.2698 1.2698 0 0 1 1.2695 1.2715 1.2698 1.2698 0 0 1-1.2695 1.2695 1.2698 1.2698 0 0 1-1.2695-1.2695 1.2698 1.2698 0 0 1 1.2695-1.2715zm-7.7617 2e-3a1.2698 1.2698 0 0 1 1.2695 1.2695 1.2698 1.2698 0 0 1-1.2695 1.2695 1.2698 1.2698 0 0 1-1.2695-1.2695 1.2698 1.2698 0 0 1 1.2695-1.2695zm3.873 0a1.2698 1.2698 0 0 1 1.2695 1.2695 1.2698 1.2698 0 0 1-1.2695 1.2695 1.2698 1.2698 0 0 1-1.2695-1.2695 1.2698 1.2698 0 0 1 1.2695-1.2695zm-3.873 3.7617a1.2698 1.2698 0 0 1 1.2695 1.2695 1.2698 1.2698 0 0 1-1.2695 1.2695 1.2698 1.2698 0 0 1-1.2695-1.2695 1.2698 1.2698 0 0 1 1.2695-1.2695z" fill="currentColor"/>
</svg>
