<svg width="22" height="22" viewBox="1 4.445 20 13.11" xmlns="http://www.w3.org/2000/svg">
<defs>
<style id="current-color-scheme" type="text/css">.ColorScheme-Text {
        color:#f2f2f2
      }</style>
</defs>
<path class="ColorScheme-Text" d="m11.879 4.4453c-0.2814 0-0.50782 0.22642-0.50782 0.50781v0.61328c0 0.2814 0.22642 0.50782 0.50782 0.50782h8.6133c0.28139 0 0.50781-0.22642 0.50781-0.50782v-0.61328c0-0.28139-0.22642-0.50781-0.50781-0.50781h-8.6133zm0 4.0371c-0.2814 0-0.50782 0.22642-0.50782 0.50781v0.61328c0 0.2814 0.22642 0.50782 0.50782 0.50782h8.6133c0.28139 0 0.50781-0.22642 0.50781-0.50782v-0.61328c0-0.28139-0.22642-0.50781-0.50781-0.50781h-8.6133zm-2.2168 0.31055c-0.1593 5.7e-4 -0.31833 0.0616-0.43945 0.18359l-3.3691 3.3945-3.3945-3.3711c-0.24389-0.24216-0.6387-0.24001-0.88086 4e-3 -0.24236 0.2439-0.24022 0.63861 4e-3 0.88086l3.8359 3.8086c0.12195 0.12105 0.28013 0.18026 0.43945 0.17968 0.15925-5.7e-4 0.31832-0.0616 0.43945-0.18359l3.8086-3.8359c0.24225-0.24401 0.2401-0.6387-4e-3 -0.88086-0.12195-0.12107-0.28015-0.18026-0.43945-0.17968zm2.2168 3.4297c-0.2814 0-0.50782 0.22642-0.50782 0.50782v0.61328c0 0.28139 0.22642 0.50781 0.50782 0.50781h8.6133c0.28139 0 0.50781-0.22642 0.50781-0.50781v-0.61328c0-0.2814-0.22642-0.50782-0.50781-0.50782h-8.6133zm-10.385 3.7031c-0.27408 0-0.49414 0.22006-0.49414 0.49414v0.64062c0 0.27409 0.22006 0.49415 0.49414 0.49415h19.012c0.27408 0 0.49414-0.22006 0.49414-0.49415v-0.64062c0-0.27408-0.22006-0.49414-0.49414-0.49414h-19.012z" fill="currentColor"/>
</svg>
