<svg width="22" height="22" viewBox="3 3 16 16" xmlns="http://www.w3.org/2000/svg">
<defs>
<style id="current-color-scheme" type="text/css">.ColorScheme-Text {
        color:#f2f2f2
      }</style>
</defs>
<path class="ColorScheme-Text" d="m11 3c-4.432 0-8 3.568-8 8s3.568 8 8 8 8-3.568 8-8-3.568-8-8-8zm-1.1406 4.002h2.2812c0.35428 0 0.64062 0.28634 0.64062 0.64062v6.7148c0 0.35428-0.28634 0.64062-0.64062 0.64062h-2.2812c-0.35431 0-0.64062-0.28634-0.64062-0.64062s0.28634-0.64258 0.64062-0.64258h1.6387v-5.4297h-1.6387c-0.35428 0-0.64062-0.28829-0.64062-0.64258s0.28634-0.64062 0.64062-0.64062z" fill="currentColor"/>
</svg>
