<svg viewBox="0 0 22 22" xmlns="http://www.w3.org/2000/svg">
<defs>
<style id="current-color-scheme" type="text/css">.ColorScheme-Text {
        color:#f2f2f2
      }</style>
</defs>
<path class="ColorScheme-Text" d="m14.894 3.0001c-0.18133-9e-3 -0.35944 0.0896-0.44336 0.26171l-0.45508 0.9336c-0.11177 0.22951-0.0148 0.50644 0.2168 0.61719 0.23171 0.11068 0.51127 0.0147 0.62305-0.21485l0.45508-0.93554c0.11172-0.22951 0.0149-0.50449-0.2168-0.61524-0.058-0.0277-0.11925-0.0439-0.17969-0.0469zm-7.6738 1.0137c-0.0603 5e-3 -0.12256 0.0215-0.17968 0.0508-0.22839 0.11726-0.31746 0.3947-0.19922 0.62109l0.48242 0.92188c0.1183 0.22633 0.40046 0.31447 0.62891 0.19726 0.22833-0.11714 0.3174-0.39487 0.19921-0.62109l-0.48242-0.92188c-0.0888-0.16966-0.26825-0.26202-0.44922-0.24804zm6.4609 1.6934c-0.0551 0.0131-0.11465 0.043-0.17773 0.0918l-2.9668 2.293c-0.25232 0.19519-0.70826 0.27705-1.0137 0.18164l-3.5879-1.1211c-0.30536-0.0953-0.46682 0.071-0.35742 0.36914l1.2852 3.5039c0.10928 0.2982 0.0473 0.75343-0.13867 1.0117l-2.1856 3.0332c-0.18589 0.25823-0.0759 0.46006 0.24414 0.44922l3.7598-0.12696c0.32002-0.011 0.7373 0.18836 0.92773 0.44336l2.2383 2.9961c0.19049 0.25506 0.41927 0.21505 0.50782-0.0898l1.0391-3.582c0.0883-0.30484 0.40911-0.63769 0.71289-0.73829l3.5664-1.1816c0.3036-0.10065 0.33578-0.32832 0.0703-0.50586l-3.1172-2.0859c-0.26536-0.17759-0.4856-0.58315-0.48828-0.90039l-0.0332-3.7266c-2e-3 -0.23793-0.11983-0.35384-0.28516-0.31445zm5.2344 3.9336-1.0274 0.19922c-0.25249 0.049-0.41857 0.29097-0.36914 0.54101 0.0497 0.25011 0.29433 0.41433 0.54688 0.36524l1.0293-0.20117c0.25238-0.0491 0.41656-0.29092 0.36719-0.54102-0.0496-0.2501-0.29444-0.41231-0.54687-0.36328zm-14.355 1.9316c-0.0597-0.01-0.12307-9e-3 -0.18555 6e-3l-1.0176 0.2461c-0.24987 0.0602-0.40441 0.30902-0.34375 0.55664 0.061 0.24773 0.31251 0.39994 0.5625 0.33984l1.0195-0.24614c0.24999-0.0603 0.40252-0.30896 0.3418-0.55663-0.0455-0.18572-0.1978-0.31682-0.37695-0.34571zm10.184 4.9082c-0.0605 2e-3 -0.12131 0.0143-0.17969 0.041-0.23351 0.10693-0.33444 0.38192-0.22656 0.61328l0.43945 0.94336c0.10794 0.23135 0.3835 0.33149 0.61719 0.22461 0.23346-0.10694 0.33651-0.38199 0.22852-0.61329l-0.43946-0.9414c-0.0809-0.17352-0.2581-0.27347-0.43945-0.26758z" fill="currentColor"/>
</svg>
