<svg viewBox="0 0 22 22" xmlns="http://www.w3.org/2000/svg">
<defs>
<style id="current-color-scheme" type="text/css">.ColorScheme-Text {
        color:#f2f2f2
      }</style>
</defs>
<path class="ColorScheme-Text" d="m14.222 3.0076c-0.0413-0.0108-0.087-0.01-0.13671 2e-3 -0.0663 0.0158-0.13897 0.0526-0.21485 0.11133l-3.5684 2.7578c-0.30352 0.23481-0.85331 0.33157-1.2207 0.2168l-4.3164-1.3476c-0.36732-0.11463-0.55932 0.0847-0.42773 0.44336l1.5449 4.2148c0.13145 0.35872 0.0557 0.90609-0.16797 1.2168l-2.627 3.6504c-0.22362 0.31064-0.0921 0.55406 0.29297 0.54101l4.5234-0.15429c0.38498-0.0132 0.88616 0.2284 1.1152 0.53515l2.6914 3.6035c0.22914 0.30682 0.5048 0.2574 0.61132-0.10938l1.25-4.3086c0.10624-0.3667 0.49199-0.76571 0.85743-0.88672l4.291-1.4238c0.36522-0.12107 0.40334-0.39385 0.084-0.60742l-3.75-2.5098c-0.31921-0.21364-0.58271-0.70042-0.58593-1.082l-0.0391-4.4844c-2e-3 -0.21466-0.083-0.34663-0.20703-0.37891zm-3.8926 5.2285h0.7832c0.033 0 0.0612 9e-3 0.0859 0.0293 0.0247 0.02 0.0387 0.0456 0.041 0.0762l0.0977 0.64844c0.11511 0.0376 0.22198 0.0815 0.31836 0.13085l0.5-0.3789c0.0212-0.0211 0.0487-0.0312 0.084-0.0312 0.0305 0 0.0598 0.0117 0.0879 0.0351 0.3031 0.27962 0.49746 0.47975 0.58203 0.59961 0.0165 0.0188 0.0254 0.0453 0.0254 0.0781 0 0.0282-0.0105 0.0542-0.0293 0.0801-0.0353 0.0494-0.0951 0.12744-0.17969 0.23437-0.0846 0.10693-0.14719 0.1893-0.18945 0.24805 0.0611 0.11749 0.10927 0.23293 0.14453 0.3457l0.64453 0.0996c0.0305 5e-3 0.0554 0.0183 0.0742 0.043 0.0189 0.0247 0.0274 0.0534 0.0273 0.084v0.78125c0 0.0282-9e-3 0.0562-0.0273 0.082-0.0188 0.0259-0.0421 0.0402-0.0703 0.0449l-0.65234 0.0996c-0.0446 0.12688-0.0897 0.23337-0.13672 0.32031 0.0823 0.11749 0.20782 0.27956 0.37695 0.48633 0.0235 0.0281 0.0352 0.0573 0.0352 0.0879 0 0.0305-0.0101 0.0585-0.0312 0.082-0.0634 0.087-0.18039 0.21406-0.34961 0.38086-0.16913 0.16684-0.28038 0.25-0.33203 0.25-0.0282 0-0.057-0.0121-0.0898-0.0332l-0.48633-0.3789c-0.10334 0.054-0.21183 0.0976-0.32226 0.13281-0.0376 0.31954-0.0711 0.53876-0.10157 0.65625-0.0165 0.0658-0.0587 0.0977-0.12695 0.0977h-0.7832c-0.0329 0-0.0613-9e-3 -0.0859-0.0293-0.0247-0.02-0.0386-0.0456-0.041-0.0762l-0.0977-0.64844c-0.11511-0.0376-0.22003-0.0815-0.31641-0.13086l-0.49805 0.37695c-0.0235 0.0211-0.0526 0.0332-0.0879 0.0332-0.0329 0-0.062-0.0132-0.0879-0.0391-0.29605-0.2678-0.49041-0.46488-0.58203-0.59179-0.0164-0.0235-0.0234-0.0515-0.0234-0.082 0-0.0282 9e-3 -0.0542 0.0273-0.0801 0.0352-0.0494 0.0951-0.12745 0.17969-0.23438 0.0846-0.10693 0.14719-0.19125 0.18945-0.25-0.0635-0.11744-0.11166-0.23255-0.14453-0.34765l-0.64453-0.0957c-0.0305-5e-3 -0.0554-0.0183-0.0742-0.043s-0.0274-0.0534-0.0274-0.084v-0.78125c0-0.0282 9e-3 -0.0562 0.0274-0.082 0.0188-0.0259 0.0425-0.0402 0.0684-0.0449l0.6543-0.0996c0.0329-0.10806 0.0799-0.21616 0.13867-0.32422-0.094-0.13397-0.21954-0.296-0.37695-0.48633-0.0235-0.0282-0.0352-0.0558-0.0352-0.084 0-0.0235 0.0101-0.0515 0.0312-0.082 0.0611-0.0846 0.17535-0.2109 0.3457-0.37891s0.28229-0.25195 0.33398-0.25195c0.0305 0 0.0613 0.0117 0.0918 0.0351l0.48633 0.37696c0.10338-0.054 0.20988-0.0975 0.32031-0.13282 0.0376-0.31954 0.071-0.5388 0.10156-0.65625 0.0164-0.0658 0.0588-0.0976 0.12696-0.0976zm0.39257 1.7246c-0.18414 0-0.35426 0.046-0.50976 0.13672-0.15552 0.0907-0.27838 0.21362-0.36914 0.36914-0.0908 0.15551-0.13672 0.32563-0.13672 0.50976 0 0.18415 0.046 0.35424 0.13672 0.50977 0.0908 0.15548 0.21362 0.27838 0.36914 0.36914 0.15551 0.0908 0.32562 0.13476 0.50976 0.13476 0.18415 0 0.35427-0.044 0.50977-0.13476 0.1555-0.0907 0.27838-0.21364 0.36914-0.36914 0.0907-0.15552 0.13477-0.32564 0.13477-0.50977 0-0.18414-0.044-0.35426-0.13477-0.50976-0.0908-0.1555-0.21364-0.27838-0.36914-0.36914-0.15553-0.0908-0.32561-0.13672-0.50977-0.13672z" fill="currentColor"/>
</svg>
