<svg width="22" height="22" viewBox="3 3 16 16" xmlns="http://www.w3.org/2000/svg">
<defs>
<style id="current-color-scheme" type="text/css">.ColorScheme-Text {
        color:#f2f2f2
      }</style>
</defs>
<path class="ColorScheme-Text" d="m3.8887 3c-0.49244 0-0.88867 0.35758-0.88867 0.80078v14.398c0 0.44319 0.39623 0.80078 0.88867 0.80078h14.223c0.49244 0 0.88867-0.35759 0.88867-0.80078v-14.398c0-0.4432-0.39623-0.80078-0.88867-0.80078h-14.223zm1.3242 2h11.574c0.33635 0 0.60937 0.27276 0.60937 0.60937v10.781c0 0.33632-0.27278 0.60938-0.60937 0.60938h-11.574c-0.33634 0-0.60937-0.27276-0.60937-0.60938v-10.781c0-0.33631 0.27279-0.60937 0.60937-0.60937zm7.6621 2.1543c-0.77185 0-1.3965 0.62625-1.3965 1.3984 0 0.77218 0.62463 1.3984 1.3965 1.3984 0.77162 0 1.3984-0.62626 1.3984-1.3984 0-0.77219-0.62682-1.3984-1.3984-1.3984zm-3.8106 2.8516c-0.13383 0.0124-0.25883 0.10498-0.3457 0.27734l-2.3984 4.7539c-0.17398 0.34472-3e-3 0.625 0.38282 0.625h4.2969 4.4961c0.38597 0 0.51962-0.25748 0.29883-0.57422l-1.5273-2.1836c-0.22126-0.31631-0.62148-0.35097-0.89258-0.0762l-0.58984 0.59961c-0.27134 0.27474-0.68148 0.24812-0.91602-0.0586l-2.4121-3.1543c-0.11726-0.15334-0.25874-0.22143-0.39258-0.20898z" fill="currentColor"/>
</svg>
