<svg width="22" height="22" viewBox="3 3 16 16" xmlns="http://www.w3.org/2000/svg">
<defs>
<style id="current-color-scheme" type="text/css">.ColorScheme-Text {
        color:#f2f2f2
      }</style>
</defs>
<path class="ColorScheme-Text" d="m3.8887 3c-0.49244 0-0.88867 0.35758-0.88867 0.80078v14.398c0 0.4432 0.39623 0.80078 0.88867 0.80078h14.223c0.49244 0 0.88867-0.35758 0.88867-0.80078v-14.398c0-0.4432-0.39623-0.80078-0.88867-0.80078h-14.223zm2.5352 3h0.47851c0.11752 0 0.21289 0.0955 0.21289 0.21289v0.26367c0 0.11726 0.0934 0.21289 0.21094 0.21289h0.46289c0.11752 0 0.21289-0.0953 0.21289-0.21289v-0.26367c0-0.11727 0.0954-0.21289 0.21289-0.21289h5.5547c0.11752 0 0.21289 0.0955 0.21289 0.21289v0.26367c0 0.11726 0.0954 0.21289 0.21289 0.21289h0.46094c0.11751 0 0.21289-0.0953 0.21289-0.21289v-0.26367c0-0.11727 0.0954-0.21289 0.21289-0.21289h0.49414c0.11751 0 0.21289 0.0955 0.21289 0.21289v9.5742c0 0.11727-0.0954 0.21289-0.21289 0.21289h-0.49414c-0.11752 0-0.21289-0.0955-0.21289-0.21289v-0.19531c0-0.11727-0.0954-0.21094-0.21289-0.21094h-0.46094c-0.11751 0-0.21289 0.0933-0.21289 0.21094v0.19531c0 0.11727-0.0954 0.21289-0.21289 0.21289h-5.5547c-0.1175 0-0.21289-0.0955-0.21289-0.21289v-0.19531c0-0.11727-0.0954-0.21094-0.21289-0.21094h-0.46289c-0.1175 0-0.21094 0.0933-0.21094 0.21094v0.19531c0 0.11727-0.0954 0.21289-0.21289 0.21289h-0.47851c-0.11752 0-0.21289-0.0955-0.21289-0.21289v-9.5742c0-0.11727 0.0954-0.21289 0.21289-0.21289zm2.7266 0.91211c-0.11752 0-0.21289 0.0955-0.21289 0.21289v1.709c0 0.11719 0.0954 0.2129 0.21289 0.2129h3.6992c0.11751 0 0.21289-0.0954 0.21289-0.2129v-1.709c0-0.11727-0.0954-0.21289-0.21289-0.21289h-3.6992zm-1.8242 0.82031c-0.1175 0-0.21094 0.0953-0.21094 0.21289v0.46094c0 0.11726 0.0934 0.21289 0.21094 0.21289h0.46289c0.11752 0 0.21289-0.0953 0.21289-0.21289v-0.46094c0-0.11734-0.0954-0.21289-0.21289-0.21289h-0.46289zm6.8691 0c-0.1175 0-0.21289 0.0953-0.21289 0.21289v0.46094c0 0.11726 0.0954 0.21289 0.21289 0.21289h0.46094c0.11751 0 0.21289-0.0953 0.21289-0.21289v-0.46094c0-0.11734-0.0954-0.21289-0.21289-0.21289h-0.46094zm-6.8691 1.9121c-0.1175 0-0.21094 0.0954-0.21094 0.21289v0.46094c0 0.11726 0.0934 0.21289 0.21094 0.21289h0.46289c0.11752 0 0.21289-0.0953 0.21289-0.21289v-0.46094c0-0.11726-0.0954-0.21289-0.21289-0.21289h-0.46289zm6.8691 0c-0.1175 0-0.21289 0.0954-0.21289 0.21289v0.46094c0 0.11726 0.0954 0.21289 0.21289 0.21289h0.46094c0.11751 0 0.21289-0.0953 0.21289-0.21289v-0.46094c0-0.11726-0.0954-0.21289-0.21289-0.21289h-0.46094zm-5.0449 0.28711c-0.11752 0-0.21289 0.0953-0.21289 0.21289v1.7109c0 0.11734 0.0954 0.21289 0.21289 0.21289h3.6992c0.11751 0 0.21289-0.0954 0.21289-0.21289v-1.7109c0-0.11726-0.0954-0.21289-0.21289-0.21289h-3.6992zm-1.8242 1.625c-0.1175 0-0.21094 0.0954-0.21094 0.21289v0.46094c0 0.11726 0.0934 0.21289 0.21094 0.21289h0.46289c0.11752 0 0.21289-0.0953 0.21289-0.21289v-0.46094c0-0.11718-0.0954-0.21289-0.21289-0.21289h-0.46289zm6.8691 0c-0.1175 0-0.21289 0.0954-0.21289 0.21289v0.46094c0 0.11726 0.0954 0.21289 0.21289 0.21289h0.46094c0.11751 0 0.21289-0.0953 0.21289-0.21289v-0.46094c0-0.11718-0.0954-0.21289-0.21289-0.21289h-0.46094zm-5.0449 1.3965c-0.11752 0-0.21289 0.0953-0.21289 0.21289v1.709c0 0.11727 0.0954 0.21289 0.21289 0.21289h3.6992c0.11751 0 0.21289-0.0954 0.21289-0.21289v-1.709c0-0.11735-0.0954-0.21289-0.21289-0.21289h-3.6992zm-1.8242 0.51562c-0.1175 0-0.21094 0.0954-0.21094 0.21289v0.46094c0 0.11709 0.0934 0.21289 0.21094 0.21289h0.46289c0.11752 0 0.21289-0.0955 0.21289-0.21289v-0.46094c0-0.11718-0.0954-0.21289-0.21289-0.21289h-0.46289zm6.8691 0c-0.1175 0-0.21289 0.0954-0.21289 0.21289v0.46094c0 0.11709 0.0954 0.21289 0.21289 0.21289h0.46094c0.11751 0 0.21289-0.0955 0.21289-0.21289v-0.46094c0-0.11718-0.0954-0.21289-0.21289-0.21289h-0.46094z" fill="currentColor"/>
</svg>
