<svg width="22" height="22" viewBox="5.268 3 11.46 16" xmlns="http://www.w3.org/2000/svg">
<defs>
<style id="current-color-scheme" type="text/css">.ColorScheme-Text {
        color:#f2f2f2
      }</style>
</defs>
<path class="ColorScheme-Text" d="m15.461 3.002c-0.033378 0.0049815-0.072597 0.020899-0.11524 0.046875-0.085563 0.052384-0.16159 0.12901-0.23047 0.23242l-1.1562 1.7344h-6.293c-0.14066 0-0.25586 0.11354-0.25586 0.25391v0.31641c0 0.14076-0.11324 0.25586-0.25391 0.25586h-0.55273c-0.14065 0-0.25391-0.1155-0.25391-0.25586v-0.31641c0-0.14057-0.11519-0.25391-0.25586-0.25391h-0.57227c-0.14067 0-0.25391 0.11354-0.25391 0.25391v11.461c0 0.14056 0.11324 0.25391 0.25391 0.25391h0.46484l-0.52344 0.78711c-0.068778 0.10326-0.1099 0.20384-0.125 0.30274-0.015098 0.098896 7.727e-4 0.16526 0.048828 0.19726l1.0664 0.71094c0.048188 0.032095 0.11567 0.020752 0.20117-0.03125 0.08537-0.052092 0.16169-0.12916 0.23047-0.23242l1.1562-1.7344h6.2734c0.14067 0 0.25586-0.11354 0.25586-0.25391v-0.23242c0-0.14076 0.11324-0.25586 0.25391-0.25586h0.55273c0.14066 0 0.25391 0.1155 0.25391 0.25586v0.23242c0 0.14056 0.11519 0.25391 0.25586 0.25391h0.5918c0.14066 0 0.25391-0.11354 0.25391-0.25391v-11.461c0-0.14057-0.11325-0.25391-0.25391-0.25391h-0.46484l0.52344-0.78711c0.068874-0.10341 0.10974-0.20374 0.125-0.30273 0.015028-0.098938-6.4e-4 -0.16517-0.048828-0.19727l-1.0664-0.71094c-0.024026-0.016002-0.05256-0.020606-0.085937-0.015625zm0.16602 2.5918c-0.003268 0.090875-0.058597 0.15679-0.13281 0.19922l0.13281-0.19922zm-6.8398 0.51367h4.4258c0.005978 0 0.009749 0.0054532 0.015625 0.0058593l-1.6973 2.5488h-2.7441c-0.14067 0-0.25586-0.11364-0.25586-0.25391v-2.0469c0-0.14057 0.11519-0.25391 0.25586-0.25391zm-2.1836 0.98047h0.55273c0.14066 0 0.25391 0.1154 0.25391 0.25586v0.55273c0 0.14076-0.11324 0.25391-0.25391 0.25391h-0.55273c-0.14065 0-0.25391-0.11354-0.25391-0.25391v-0.55273c0-0.14076 0.11326-0.25586 0.25391-0.25586zm8.2207 0h0.55273c0.14066 0 0.25391 0.1154 0.25391 0.25586v0.55273c0 0.14076-0.11325 0.25391-0.25391 0.25391h-0.55273c-0.14065 0-0.25391-0.11354-0.25391-0.25391v-0.55273c0-0.14076 0.11326-0.25586 0.25391-0.25586zm-8.2207 2.2891h0.55273c0.14066 0 0.25391 0.11549 0.25391 0.25586v0.55078c0 0.14076-0.11324 0.25586-0.25391 0.25586h-0.55273c-0.14065 0-0.25391-0.1155-0.25391-0.25586v-0.55078c0-0.14067 0.11326-0.25586 0.25391-0.25586zm8.2207 0h0.55273c0.14066 0 0.25391 0.11549 0.25391 0.25586v0.55078c0 0.14076-0.11325 0.25586-0.25391 0.25586h-0.55273c-0.14065 0-0.25391-0.1155-0.25391-0.25586v-0.55078c0-0.14067 0.11326-0.25586 0.25391-0.25586zm-6.0371 0.3457h2.0371l-1.7012 2.5547h-0.33594c-0.14067 0-0.25586-0.11345-0.25586-0.25391v-2.0469c0-0.14076 0.11519-0.25391 0.25586-0.25391zm4.0898 0h0.33594c0.14066 0 0.25586 0.11355 0.25586 0.25391v2.0469c0 0.14066-0.1152 0.25391-0.25586 0.25391h-2.0371l1.7012-2.5547zm-6.2734 1.9434h0.55273c0.14066 0 0.25391 0.11364 0.25391 0.25391v0.55273c0 0.14076-0.11324 0.25391-0.25391 0.25391h-0.55273c-0.14065 0-0.25391-0.11354-0.25391-0.25391v-0.55273c0-0.14067 0.11326-0.25391 0.25391-0.25391zm8.2207 0h0.55273c0.14066 0 0.25391 0.11364 0.25391 0.25391v0.55273c0 0.14076-0.11325 0.25391-0.25391 0.25391h-0.55273c-0.14065 0-0.25391-0.11354-0.25391-0.25391v-0.55273c0-0.14067 0.11326-0.25391 0.25391-0.25391zm-4.3555 1.6719h2.7441c0.14066 0 0.25586 0.11344 0.25586 0.25391v2.0469c0 0.14067-0.1152 0.25391-0.25586 0.25391h-4.4258c-0.0059791 0-0.009749-0.005453-0.015625-0.005859l1.6973-2.5488zm-3.8652 0.61719h0.55273c0.14066 0 0.25391 0.11364 0.25391 0.25391v0.55274c0 0.14056-0.11324 0.25391-0.25391 0.25391h-0.55273c-0.14065 0-0.25391-0.11374-0.25391-0.25391v-0.55274c0-0.14067 0.11326-0.25391 0.25391-0.25391zm8.2207 0h0.55273c0.14066 0 0.25391 0.11364 0.25391 0.25391v0.55274c0 0.14056-0.11325 0.25391-0.25391 0.25391h-0.55273c-0.14065 0-0.25391-0.11374-0.25391-0.25391v-0.55274c0-0.14067 0.11326-0.25391 0.25391-0.25391zm-8.3906 2.3594-0.021484 0.03125c0.008369-0.010592 0.011564-0.022118 0.021484-0.03125z" fill="currentColor"/>
</svg>
