<svg width="22" height="22" version="1.1" viewBox="3 3.837 16 14.16" xmlns="http://www.w3.org/2000/svg">
<defs>
<style id="current-color-scheme" type="text/css">.ColorScheme-Text {
        color:#f2f2f2
      }</style>
</defs>
<path class="ColorScheme-Text" d="m17.438 3.8367-12.854 0.050136c-0.957-0.058735-1.0356 0.86961-1.0356 0.86961l-0.51692 11.02-0.027661 0.5636c-0.015691 0.20705 0.014567 0.35877 0.058781 0.48926 0.034556 0.70395 0.15269 1.1762 0.80045 1.1704h14.156c0.86273 0.0262 0.96594-0.74535 0.96296-1.4643 0.0074-0.06344 0.02074-0.12093 0.01729-0.19536l-0.034579-0.67944-0.54804-10.942s-0.07483-0.88511-0.97852-0.88171zm-2.8975 2.6555h0.88517v7.6709h-4.4258v1.5352l-2.6555-1.919 2.6555-1.9173v1.5352h3.5407v-6.905z" color="#f2f2f2" fill="currentColor"/>
</svg>
