<svg width="22" height="22" viewBox="2.5 3 17 16" xmlns="http://www.w3.org/2000/svg">
<defs>
<style id="current-color-scheme" type="text/css">.ColorScheme-Text {
        color:#f2f2f2
      }</style>
</defs>
<path class="ColorScheme-Text" d="m11 3c-4.6866 0-8.5 3.1856-8.5 7.1016 0 2.1236 1.1072 4.0991 3.0464 5.4512 0.18389 1.1068-0.45393 2.2652-0.46068 2.2774-0.14559 0.25594-0.13404 0.56932 0.029408 0.8164 0.14622 0.22088 0.39141 0.35352 0.65672 0.35352 0.028304 0 0.057511-8.4e-4 0.086218-4e-3 0.82595-0.0914 2.1586-0.71682 3.9638-1.8594 0.38876 0.0449 0.7841 0.0664 1.1782 0.0664 4.6868 0 8.5-3.1856 8.5-7.1016s-3.8133-7.1016-8.5-7.1016zm-0.63711 4.6133h1.0625v2.1172h2.125v1.0586h-2.125v2.1172h-1.0625v-2.1172h-2.125v-1.0586h2.125v-2.1172z" fill="currentColor"/>
</svg>
