<svg viewBox="0 0 22 22" xmlns="http://www.w3.org/2000/svg">
<defs>
<style id="current-color-scheme" type="text/css">.ColorScheme-Text {
        color:#dedede
      }</style>
</defs>
<path class="ColorScheme-Text" d="m8.903 3c-4.3583 0-7.903 2.9222-7.903 6.5137 0 1.9477 1.0291 3.76 2.8324 5 0.17101 1.015-0.42106 2.0767-0.42735 2.0879-0.13538 0.23474-0.12615 0.52339 0.0258 0.75 0.13598 0.20258 0.3655 0.32227 0.61221 0.32227 0.0263 0 0.0528-1e-3 0.0795-4e-3 0.76808-0.0838 2.0064-0.65718 3.6852-1.7051 0.36152 0.0412 0.72876 0.0625 1.0952 0.0625 1.3752 0 2.6689-0.29167 3.7965-0.80273 0.31916 1.6417 2.0357 2.9043 4.1165 2.9043 0.19395 0 0.38905-0.0114 0.5804-0.0332 0.8885 0.55463 1.5454 0.85797 1.9519 0.90235 0.0141 1e-3 0.0278 2e-3 0.0417 2e-3 0.13057 0 0.25201-0.0646 0.32398-0.17188 0.0804-0.11994 0.0856-0.27224 0.0139-0.39648-3e-3 -6e-3 -0.3171-0.56822-0.22659-1.1055 0.95445-0.65631 1.4987-1.6156 1.4987-2.6465 0-1.9009-1.8773-3.4473-4.1841-3.4473-0.1043 0-0.20171 0.0192-0.30412 0.0254 0.18824-0.55632 0.29617-1.139 0.29617-1.7441 0-3.5915-3.5466-6.5137-7.905-6.5137z" fill="currentColor"/>
</svg>
