<svg viewBox="0 0 22 22" xmlns="http://www.w3.org/2000/svg">
<defs>
<style id="current-color-scheme" type="text/css">.ColorScheme-Text {
        color:#f2f2f2
      }</style>
</defs>
<path class="ColorScheme-Text" d="m17.171 3c0.28676 0.00104 0.57308 0.11242 0.79102 0.33203 0.43588 0.43904 0.43318 1.1479-0.0059 1.584l-6.1094 6.0645 6.0664 6.1094c0.43588 0.439 0.43318 1.1481-0.0059 1.584-0.439 0.43627-1.1499 0.43357-1.5859-0.0059l-6.8534-6.9043c-0.2179-0.21952-0.32721-0.50618-0.32617-0.79297 0.001036-0.28664 0.11251-0.57297 0.33203-0.79102l6.9043-6.8535c0.21961-0.21803 0.5062-0.32721 0.79297-0.32617zm-11.457 6a2 2 0 0 1 2 2 2 2 0 0 1-2 2 2 2 0 0 1-2-2 2 2 0 0 1 2-2z" fill="currentColor"/>
</svg>
