<svg version="1.1" viewBox="0 0 22 22" xmlns="http://www.w3.org/2000/svg">
<defs>
<style id="current-color-scheme" type="text/css">.ColorScheme-Text {
        color:#f2f2f2;
      }
      .ColorScheme-Highlight {
        color:#3daee9;
      }</style>
<style id="current-color-scheme-3" type="text/css">.ColorScheme-Text {
        color:#4d4d4d;
      }
      .ColorScheme-Highlight {
        color:#3daee9;
      }</style>
<style id="current-color-scheme-6" type="text/css">.ColorScheme-Text {
        color:#4d4d4d;
      }</style>
</defs>
<g transform="translate(.070781 -.025)">
<path class="ColorScheme-Text" d="m5.6406 3c-0.37314 0-0.73013 0.14667-0.9707 0.39844s-0.3642 0.58141-0.39844 0.92383v-0.011719l-1.373 10.838c-0.00258 0.02073-0.00389 0.04161-0.00391 0.0625v0.0098c3.24e-4 0.02355 0.00228 0.04704 0.00586 0.07031l0.00195 0.0098 0.24414 2.9219c0.050883 0.41812 0.35641 0.75195 0.86523 0.75195h14.1c0.50883 0 0.8124-0.33384 0.86328-0.75195l0.19531-2.9316 2e-3 -0.0078c3e-3 -0.02397 0.0043-0.04811 0.0039-0.07226-1.8e-5 -0.02089-0.0013-0.04177-0.0039-0.0625l-1.3731-10.838c-0.0015-0.012438-0.0035-0.024816-0.0059-0.037109-0.062249-0.31145-0.17376-0.61514-0.4023-0.86523-0.22855-0.25009-0.58584-0.4082-0.95898-0.4082zm0 1.0176h10.791c0.13569 0 0.15658 0.020965 0.20703 0.076172 0.04979 0.054487 0.11467 0.182 0.1543 0.375l1.3477 10.633-0.06641 0.10938h-14.152l-0.00391-0.01758 1.3633-10.756 0.0019531-0.013672c0.016639-0.16641 0.069938-0.26873 0.12109-0.32227 0.051156-0.053534 0.10064-0.083984 0.23633-0.083984z" color="#4d4d4d" fill="#f2f2f2"/>
<path d="m6.8164 11.012c-2.2125 0-3.9922 1.7816-3.9922 3.9941s1.7797 3.9941 3.9922 3.9941 3.9941-1.7816 3.9941-3.9941-1.7816-3.9941-3.9941-3.9941z" fill="#32c671"/>
<path d="m8.666 13.35c-0.094604 0-0.17601 0.03339-0.24219 0.09961l-2.3262 2.3301-1.043-1.0449c-0.066219-0.06622-0.14567-0.09961-0.24023-0.09961-0.094604 0-0.17597 0.03339-0.24219 0.09961l-0.48242 0.48242c-0.066219 0.06622-0.099609 0.14563-0.099609 0.24023 0 0.09456 0.033391 0.17601 0.099609 0.24219l1.2852 1.2832 0.48242 0.48242c0.066175 0.06622 0.14563 0.09961 0.24023 0.09961 0.094561 0 0.17597-0.03343 0.24219-0.09961l0.48242-0.48242 2.5664-2.5684c0.066175-0.06622 0.099609-0.14563 0.099609-0.24023 4.36e-5 -0.09456-0.033434-0.17597-0.099609-0.24219l-0.48242-0.48242c-0.066175-0.066219-0.14567-0.09961-0.24023-0.09961z" fill="#fff"/>
<path d="m10.967 6.1032c-2.3364 0-4.2578 1.1096-4.2578 2.4609s1.9214 2.4629 4.2578 2.4629 4.2559-1.1116 4.2559-2.4629-1.9194-2.4609-4.2559-2.4609zm0 1.7578c0.66808 0 1.2148 0.31674 1.2148 0.70312s-0.54676 0.70312-1.2148 0.70312c-0.66806 0-1.2168-0.31674-1.2168-0.70312 0-0.38639 0.54874-0.70312 1.2168-0.70312z" color="#4d4d4d" fill="#f2f2f2"/>
</g>
</svg>
