<svg viewBox="0 0 22 22" xmlns="http://www.w3.org/2000/svg">
<defs>
<style id="current-color-scheme" type="text/css">.ColorScheme-Text {
        color:#f2f2f2
      }</style>
</defs>
<path class="ColorScheme-Text" d="m12.968 18.145c-0.026 0.28091 0.19709 0.53054 0.49582 0.55545l3.6229 0.29764c0.29873 0.02509 0.56454-0.18509 0.59091-0.46582l0.28273-2.9876-4.7091-0.38764-0.28327 2.988zm-8.9274-2.6004 0.28309 2.9876c0.026 0.28073 0.29218 0.49091 0.59091 0.46582l3.6229-0.29764c0.298-0.024908 0.52127-0.27454 0.49582-0.55545l-0.28309-2.988-4.7096 0.38764zm-0.46673-4.924 0.292 3.082 4.7094-0.38745-0.29182-3.0787c-0.00673-0.074-0.010364-0.15073-0.010364-0.22636 0-1.414 1.2235-2.5645 2.7273-2.5645s2.7273 1.1507 2.7273 2.5645c0 0.07564-0.0036 0.15236-0.01036 0.22654l-0.29182 3.0785 4.7094 0.38745 0.29182-3.082c0.01854-0.20364 0.02818-0.408 0.02818-0.61054 0-3.8656-3.3442-7.01-7.4545-7.01-4.1104 0-7.4545 3.1444-7.4545 7.01 0 0.20254 0.00964 0.40691 0.028 0.61054z" fill="currentColor"/>
</svg>
