<svg viewBox="0 0 22 22" xmlns="http://www.w3.org/2000/svg">
<defs>
<style id="current-color-scheme" type="text/css">.ColorScheme-Text {
        color:#dedede;
      }
      .ColorScheme-Highlight {
        color:#3daee9;
      }</style>
</defs>
<path class="ColorScheme-Text" d="m7.8613 3.5703c-0.077282 0-0.14469 0.029454-0.20117 0.085938-0.056484 0.056593-0.083984 0.12194-0.083984 0.19922v1.7129c0 0.077282 0.027501 0.14458 0.083984 0.20117 0.056484 0.056374 0.12389 0.083984 0.20117 0.083984h10.844c0.077391 0 0.14458-0.027501 0.20117-0.083984 0.056484-0.056593 0.083984-0.12389 0.083984-0.20117v-1.7129c0-0.077282-0.02761-0.14274-0.083984-0.19922-0.056703-0.056374-0.12378-0.085938-0.20117-0.085938h-10.844zm0 6.2695c-0.077282 0-0.14469 0.027391-0.20117 0.083984-0.056484 0.056484-0.083984 0.12389-0.083984 0.20117v1.7109c0 0.077172 0.027501 0.14469 0.083984 0.20117 0.056484 0.056593 0.12389 0.085938 0.20117 0.085938h10.844c0.077391 0 0.14458-0.029345 0.20117-0.085938 0.056484-0.056483 0.083984-0.124 0.083984-0.20117v-1.7109c0-0.077282-0.02761-0.1448-0.083984-0.20117-0.056703-0.056484-0.12378-0.083984-0.20117-0.083984h-10.844zm0 6.3066c-0.077282 0-0.14469 0.027501-0.20117 0.083985-0.056484 0.056483-0.083984 0.124-0.083984 0.20117v1.7129c0 0.077392 0.027501 0.14263 0.083984 0.19922 0.056484 0.056374 0.12389 0.085938 0.20117 0.085938h10.844c0.077391 0 0.14458-0.029564 0.20117-0.085938 0.056484-0.056593 0.083984-0.12183 0.083984-0.19922v-1.7129c0-0.077173-0.02761-0.1448-0.083984-0.20117-0.056703-0.056374-0.12378-0.083985-0.20117-0.083985h-10.844z" fill="currentColor"/>
<path class="ColorScheme-Highlight" d="m4.7207 3c-0.47573 0-0.8799 0.16712-1.2129 0.5-0.33288 0.33299-0.49805 0.73727-0.49805 1.2129 0 0.47573 0.16506 0.8799 0.49805 1.2129 0.33299 0.33288 0.73727 0.49805 1.2129 0.49805s0.8799-0.16517 1.2129-0.49805c0.33288-0.33299 0.5-0.73716 0.5-1.2129 0-0.47562-0.16712-0.8799-0.5-1.2129-0.33288-0.33288-0.73716-0.5-1.2129-0.5zm0 6.2676c-0.47573 0-0.8799 0.16701-1.2129 0.5-0.33288 0.33288-0.49805 0.73716-0.49805 1.2129 0 0.47562 0.16506 0.88001 0.49805 1.2129 0.33299 0.33288 0.73727 0.5 1.2129 0.5s0.8799-0.16712 1.2129-0.5c0.33288-0.33288 0.5-0.73727 0.5-1.2129 0-0.47573-0.16701-0.88001-0.5-1.2129-0.33288-0.33288-0.73716-0.5-1.2129-0.5zm0 6.3086c-0.47573 0-0.88001 0.16506-1.2129 0.49805-0.33288 0.33299-0.49805 0.73727-0.49805 1.2129 0 0.47584 0.16506 0.8799 0.49805 1.2129 0.33299 0.33288 0.73727 0.5 1.2129 0.5s0.8799-0.16712 1.2129-0.5c0.33288-0.33299 0.5-0.73705 0.5-1.2129 0-0.47562-0.16712-0.88001-0.5-1.2129-0.33288-0.33288-0.73716-0.49805-1.2129-0.49805z" fill="currentColor"/>
</svg>
