<svg viewBox="0 0 22 22" xmlns="http://www.w3.org/2000/svg">
<defs>
<style id="current-color-scheme" type="text/css">.ColorScheme-Text {
        color:#dedede
      }</style>
</defs>
<path class="ColorScheme-Text" d="m4.5996 3c-0.4432 0-0.79883 0.35758-0.79883 0.80078v14.398c0 0.4432 0.35563 0.80078 0.79883 0.80078h12.801c0.4432 0 0.79883-0.35758 0.79883-0.80078v-14.398c0-0.4432-0.35563-0.80078-0.79883-0.80078h-12.801zm7.7617 4.8672c0.15121 0 0.30253 0.0569 0.41797 0.17187 0.23088 0.23006 0.23088 0.60366 0 0.83399l-2.5723 2.3262 2.5723 2.3281c0.23088 0.23033 0.23088 0.60367 0 0.83399-0.23087 0.23032-0.60507 0.23032-0.83594 0l-2.9922-2.707c-0.12475-0.12461-0.17825-0.29192-0.16797-0.45508-0.0103-0.16289 0.0433-0.32853 0.16797-0.45313l2.9922-2.707c0.11543-0.11502 0.26675-0.17187 0.41797-0.17187z" fill="currentColor"/>
</svg>
