<svg viewBox="0 0 22 22" xmlns="http://www.w3.org/2000/svg">
<defs>
<style id="current-color-scheme" type="text/css">.ColorScheme-Text {
        color:#dedede
      }</style>
</defs>
<path class="ColorScheme-Text" d="m16.998 10.587c-0.43656 0.4381-1.1448 0.4381-1.5819 0l-4.4161-4.8801-4.4161 4.8801c-0.43707 0.4381-1.1448 0.4381-1.5819 0-0.43708-0.4381-0.43708-1.1478 0-1.5859l5.137-5.6773c0.23646-0.2367 0.55136-0.3411 0.861-0.3216 0.3091-0.019 0.62454 0.085 0.86098 0.3216l5.137 5.6773c0.43654 0.4381 0.43654 1.1478 0 1.5859zm-6.0046 4.7222c1.0179 0 1.8431 0.8262 1.8431 1.8454 0 1.0191-0.82518 1.8453-1.8431 1.8453-1.0179 0-1.8431-0.8262-1.8431-1.8453 0-1.0192 0.82519-1.8454 1.8431-1.8454zm0-5.2723c1.0179 0 1.8431 0.8262 1.8431 1.8453 0 1.0192-0.82518 1.8453-1.8431 1.8453-1.0179 0-1.8431-0.8261-1.8431-1.8453 0-1.0191 0.82519-1.8453 1.8431-1.8453z" fill="currentColor"/>
</svg>
