<svg width="22" height="22" viewBox="2.566 1.701 16.87 18.6" xmlns="http://www.w3.org/2000/svg">
<defs>
<style id="current-color-scheme" type="text/css">.ColorScheme-Text {
        color:#f2f2f2;
      }
      .ColorScheme-Highlight {
        color:#3daee9;
      }</style>
</defs>
<path class="ColorScheme-Text" d="m11 1.7012-8.4336 4.2168 8.4336 4.2168 8.4336-4.2168-8.4336-4.2168zm-6.084 13.205-2.3496 1.1758 8.4336 4.2168 8.4336-4.2168-2.3496-1.1758-6.084 3.043-6.084-3.043z" fill="currentColor"/>
<path class="ColorScheme-Highlight" d="m10.996 11.117c-0.17601 6.36e-4 -0.35487 0.068812-0.48828 0.20312l-2.998 3.0215c-0.26633 0.26826-0.26466 0.70808 0.0039063 0.97461 0.26869 0.26676 0.70947 0.26501 0.97656-0.003906l2.5117-2.5293 2.5293 2.5117c0.2687 0.26679 0.70951 0.26508 0.97656-0.003906 0.26698-0.26865 0.26523-0.7095-0.003906-0.97656l-3.0215-2.998c-0.13355-0.13257-0.30969-0.19986-0.48633-0.19922z" fill="currentColor"/>
</svg>
