<svg viewBox="0 0 22 22" xmlns="http://www.w3.org/2000/svg">
<defs>
<style id="current-color-scheme" type="text/css">.ColorScheme-Text {
        color:#dedede
      }</style>
</defs>
<path class="ColorScheme-Text" d="m11 2.9999-8.4336 4.2168 7.2441 3.6211-0.74023 1.041-4.1543-2.0762-2.3496 1.1758 5.2695 2.6348-0.76172 1.0723-2.1582-1.0781-2.3496 1.1758 3.2754 1.6367-0.82812 1.1641c-0.14015 0.19702-0.0936 0.46921 0.10351 0.60937l1.0195 0.72657c0.0481 0.0344 0.10349 0.0578 0.16016 0.0703 0.0546 0.0121 0.10985 0.0134 0.16601 4e-3 0.11449-0.0194 0.21781-0.0831 0.28516-0.17774l1.0195-1.4336 3.2324 1.6172 8.4336-4.2168-2.3496-1.1758-6.084 3.041-2-1 0.76172-1.0723 1.2383 0.61914 8.4336-4.2168-2.3496-1.1758-6.084 3.041-4e-3 -2e-3 1.5508-2.1816 6.8867-3.4434-3.2754-1.6367 0.82813-1.1641c0.14002-0.19705 0.0935-0.46923-0.10352-0.60937l-1.0195-0.72652c-0.0945-0.0673-0.21159-0.0934-0.32617-0.0742-0.11448 0.0194-0.21792 0.0831-0.28515 0.17774l-1.0195 1.4336-3.2324-1.6172z" fill="currentColor"/>
</svg>
