<svg width="22" height="22" viewBox="2.566 1.701 16.87 18.6" xmlns="http://www.w3.org/2000/svg">
<defs>
<style id="current-color-scheme" type="text/css">.ColorScheme-Text {
        color:#f2f2f2;
      }
      .ColorScheme-Highlight {
        color:#3daee9;
      }</style>
</defs>
<path class="ColorScheme-Text" d="m11 1.7012-8.4336 4.2168 8.4336 4.2168 8.4336-4.2168-8.4336-4.2168zm-6.084 13.205-2.3496 1.1758 8.4336 4.2168 8.4336-4.2168-2.3496-1.1758-6.084 3.043-6.084-3.043z" fill="currentColor"/>
<path class="ColorScheme-Highlight" d="m7.5723 11c-0.2017-1.6e-5 -0.40406 0.076-0.55664 0.22852-0.30528 0.3051-0.30529 0.80814 0 1.1133l3.4277 3.4277c0.15254 0.15252 0.35573 0.23047 0.55664 0.23047 0.20076 0 0.40407-0.07797 0.55664-0.23047l3.4277-3.4277c0.1526-0.1526 0.22852-0.35491 0.22852-0.55664-1e-6 -0.20172-0.075888-0.40408-0.22852-0.55664-0.30513-0.30513-0.80612-0.30508-1.1113 0l-2.873 2.873-2.873-2.873c-0.15255-0.15256-0.35299-0.2285-0.55469-0.22852z" fill="currentColor"/>
</svg>
