<svg width="22" height="22" viewBox=".9999 5 20 12" xmlns="http://www.w3.org/2000/svg">
<defs>
<style id="current-color-scheme" type="text/css">.ColorScheme-Text {
        color:#f2f2f2
      }</style>
</defs>
<path class="ColorScheme-Text" d="m14.857 5.0002c-0.29955 9.8e-4 -0.59861 0.11403-0.82422 0.33665-0.45124 0.44512-0.44857 1.1743 6e-3 1.6163l4.1426 4.0264-4.1133 4.057c-0.45124 0.44508-0.44857 1.1744 6e-3 1.6163 0.45446 0.44219 1.2011 0.43962 1.6523-6e-3l4.9336-4.868c0.22547-0.22248 0.34084-0.51695 0.33977-0.80907-1e-3 -0.29188-0.11856-0.58623-0.34571-0.80719l-4.9688-4.8317c-0.22729-0.221-0.52855-0.33198-0.82812-0.33091zm-7.7148 0.0172c-0.29957-9.8e-4 -0.60083 0.10991-0.82813 0.33091l-4.9688 4.8317c-0.22715 0.22096-0.34462 0.5153-0.3457 0.8072-1e-3 0.29211 0.1143 0.58658 0.33984 0.8091l4.9336 4.868c0.45126 0.44537 1.1979 0.44793 1.6524 6e-3 0.45442-0.44194 0.45709-1.1712 6e-3 -1.6163l-4.1133-4.0571 4.1426-4.0264c0.45443-0.44202 0.4571-1.1712 6e-3 -1.6163-0.2256-0.22261-0.52467-0.33559-0.82421-0.33665zm3.8301 4.0838c-1.0566 0-1.9199 0.84549-1.9199 1.8803 0 1.0348 0.86333 1.8803 1.9199 1.8803 1.0566 0 1.9199-0.84546 1.9199-1.8803 0-1.0348-0.86328-1.8803-1.9199-1.8803z" fill="currentColor"/>
</svg>
