<svg viewBox="0 0 22 22" xmlns="http://www.w3.org/2000/svg">
<defs>
<style id="current-color-scheme" type="text/css">.ColorScheme-Text {
        color:#dedede
      }</style>
</defs>
<path class="ColorScheme-Text" d="m3.1248 19c-0.62327 0-1.1248-0.50943-1.1248-1.1426 0-0.63314 0.50149-1.1426 1.1248-1.1426h15.75c0.62327 0 1.1248 0.50943 1.1248 1.1426 0 0.63315-0.50149 1.1426-1.1248 1.1426h-15.75zm0-4.5723c-0.62327 0-1.1248-0.50943-1.1248-1.1426 0-0.63315 0.50149-1.1426 1.1248-1.1426h15.75c0.62327 0 1.1248 0.50943 1.1248 1.1426 0 0.63314-0.50149 1.1426-1.1248 1.1426h-15.75zm0-4.5703c-0.62327 0-1.1248-0.50943-1.1248-1.1426 0-0.63315 0.50149-1.1426 1.1248-1.1426h15.75c0.62327 0 1.1248 0.50943 1.1248 1.1426 0 0.63314-0.50149 1.1426-1.1248 1.1426h-15.75zm0-4.5723c-0.62327 0-1.1248-0.50943-1.1248-1.1426 0-0.63315 0.50149-1.1426 1.1248-1.1426h15.75c0.62327 0 1.1248 0.50943 1.1248 1.1426 0 0.63314-0.50149 1.1426-1.1248 1.1426h-15.75z" fill="currentColor"/>
</svg>
