<svg viewBox="0 0 22 22" xmlns="http://www.w3.org/2000/svg">
<defs>
<style id="current-color-scheme" type="text/css">.ColorScheme-Text {
        color:#f2f2f2
      }</style>
</defs>
<path class="ColorScheme-Text" d="m1.8747 5c-0.48541 0-0.87471 0.394-0.87471 0.8828s0.3893 0.8828 0.87471 0.8828h15.772c0.48541 0 0.87665-0.394 0.87665-0.8828s-0.39124-0.8828-0.87665-0.8828h-15.772zm0 3.5293c-0.48541 0-0.87471 0.394-0.87471 0.8828s0.3893 0.8828 0.87471 0.8828h12.267c0.48541 0 0.87665-0.394 0.87665-0.8828s-0.39124-0.8828-0.87665-0.8828h-12.267zm18.099 1.3594c-0.11803 0-0.21806 0.042-0.30062 0.125l-2.9034 2.9277-1.3014-1.3144c-0.08261-0.083-0.18265-0.125-0.30062-0.125-0.11803 0-0.21801 0.042-0.30062 0.125l-0.60124 0.6054c-0.08261 0.083-0.12413 0.1839-0.12413 0.3028 0 0.1188 0.04152 0.2196 0.12413 0.3027l1.602 1.6133 0.60124 0.6074c0.08256 0.083 0.18259 0.125 0.30062 0.125 0.11797 0 0.21801-0.042 0.30062-0.125l3.8072-3.834c0.08256-0.083 0.12219-0.1839 0.12219-0.3027 5.5e-5 -0.1188-0.03963-0.2196-0.12219-0.3027l-0.60318-0.6055c-0.08256-0.083-0.18265-0.125-0.30062-0.125zm-18.099 2.1699c-0.48541 0-0.87471 0.394-0.87471 0.8828s0.3893 0.8828 0.87471 0.8828h10.514c0.48541 0 0.87665-0.394 0.87665-0.8828s-0.39124-0.8828-0.87665-0.8828h-10.514zm1.7533 3.1758c-0.48541 0-0.87665 0.394-0.87665 0.8828s0.39124 0.8828 0.87665 0.8828h10.514c0.48541 0 0.87665-0.394 0.87665-0.8828s-0.39124-0.8828-0.87665-0.8828h-10.514z" fill="currentColor"/>
</svg>
