<svg viewBox="0 0 22 22" xmlns="http://www.w3.org/2000/svg">
<defs>
<style id="current-color-scheme" type="text/css">.ColorScheme-Text {
        color:#f2f2f2
      }</style>
</defs>
<path class="ColorScheme-Text" d="m7.5989 3c-0.41113-7e-5 -0.82218 0.14791-1.1329 0.44404-0.62146 0.59211-0.62124 1.5666 3e-4 2.159v7e-5l5.6652 5.3975-5.6635 5.3959c-0.62147 0.59206-0.62132 1.5664 2.3e-4 2.1588 2e-5 2e-5 3e-5 3e-5 7e-5 6e-5 2e-5 3e-5 3e-5 4e-5 6e-5 7e-5 0.62159 0.59268 1.6448 0.59274 2.2663 3e-4l6.7963-6.4751c0.31063-0.29601 0.46913-0.68934 0.46906-1.0794-7e-5 -0.38975-0.15854-0.78312-0.46923-1.0793v-7e-5l-6.7986-6.4775c-0.3109-0.29621-0.7221-0.44434-1.1332-0.4444z" fill="currentColor"/>
</svg>
