<svg viewBox="0 0 22 22" xmlns="http://www.w3.org/2000/svg">
<defs>
<style id="current-color-scheme" type="text/css">.ColorScheme-Text {
        color:#dedede
      }</style>
</defs>
<path class="ColorScheme-Text" d="m10.079 3v0.00195c-0.40285 9.993e-4 -0.80404 0.15043-1.1137 0.44695-0.62014 0.59266-0.61591 1.5994 0.00781 2.1879l5.6682 5.3498-5.6272 5.3868c-0.62019 0.59265-0.61797 1.5995 0.00586 2.1879 0.6235 0.58935 1.6139 0.5836 2.2333-0.0098l6.6354-6.351 0.14068-0.13467h2e-3c0.30959-0.29637 0.47041-0.69645 0.46893-1.0949-2e-3 -0.39819-0.16506-0.79685-0.47675-1.091l-6.8269-6.4408v0.00195c-0.31189-0.29443-0.71481-0.44236-1.1177-0.44105zm-4.0777 5.5079c-1.3766 0-2.501 1.1232-2.501 2.4982 0 1.3751 1.1244 2.4982 2.501 2.4982 1.3766 0 2.501-1.1232 2.501-2.4982 0-1.3751-1.1244-2.4982-2.501-2.4982z" fill="currentColor"/>
</svg>
