<svg viewBox="0 0 22 22" xmlns="http://www.w3.org/2000/svg">
<defs>
<style id="current-color-scheme" type="text/css">.ColorScheme-Text {
        color:#dedede
      }</style>
</defs>
<path class="ColorScheme-Text" d="m8.5391 3c-0.15474 0-0.28749 0.0551-0.39844 0.16602l-0.33008 0.33007c-0.10811 0.10811-0.16211 0.23779-0.16211 0.39258 0 0.15485 0.0569 0.28949 0.16797 0.40039l2.8477 2.8516c0.11386 0.1081 0.24655 0.1621 0.39843 0.1621 0.15485 0 0.28643-0.054 0.39453-0.1621l2.8535-2.8516c0.11101-0.11095 0.16602-0.24554 0.16602-0.40039 0-0.15775-0.0551-0.28743-0.16602-0.39258l-0.33008-0.33007c-0.1052-0.11101-0.23678-0.16602-0.39453-0.16602s-0.28738 0.0551-0.39258 0.16602l-2.1309 2.125-2.1289-2.125c-0.10515-0.11096-0.23668-0.16602-0.39453-0.16602zm-1.248 4.5898c-0.1545 0-0.30935 0.0493-0.4668 0.15039-0.15745 0.101-0.26676 0.22631-0.32617 0.375l-2.1211 4.9199c-0.14859 0.3625-0.22266 0.72924-0.22266 1.0976v4.2969c0 0.1545 0.055 0.28747 0.16797 0.40039 0.11303 0.11292 0.24784 0.16992 0.40234 0.16992h12.551c0.1545 0 0.28943-0.057 0.40235-0.16992 0.11281-0.11292 0.16797-0.24589 0.16797-0.40039v-4.2969c0-0.36841-0.074-0.73515-0.22266-1.0976l-2.1211-4.9199c-0.0594-0.14869-0.16862-0.274-0.32618-0.375-0.15745-0.1011-0.3123-0.15039-0.46679-0.15039h-0.93555-4.0957-2.3867zm0.55273 1.7109h1.791 4.1387 0.38281l1.8887 4.4219c6e-3 0.0178 0.0147 0.0408 0.0234 0.0703 9e-3 0.0296 0.0154 0.0544 0.0215 0.0723h-2.8164l-0.84766 1.7109h-2.8516l-0.84766-1.7109h-2.8164c6e-3 -0.0118 0.0125-0.0366 0.0215-0.0723 9e-3 -0.0356 0.0175-0.0585 0.0234-0.0703l1.8887-4.4219z" fill="currentColor"/>
</svg>
