<svg width="22" height="22" viewBox="4.737 2.65 12.53 16.7" xmlns="http://www.w3.org/2000/svg">
<defs>
<style id="current-color-scheme" type="text/css">.ColorScheme-Text {
        color:#f2f2f2
      }</style>
</defs>
<path class="ColorScheme-Text" d="m11 2.65c-3.0633 0-5.5653 2.3782-5.5653 5.2921v1.7124c-0.39194 0.23559-0.69719 0.58969-0.69719 1.058v7.3144c0 0.7258 0.63079 1.323 1.3923 1.323h9.7403c0.76155 0 1.3924-0.59723 1.3924-1.323v-7.3144c0-0.46833-0.30549-0.82243-0.6972-1.058v-1.7124c0-2.9139-2.502-5.2921-5.5653-5.2921zm0 0.97852c2.5067 0 4.5379 1.9296 4.5379 4.3136v2.3484l0.40772 0.0815c0.1637 0.0332 0.28744 0.16863 0.28744 0.34044v7.3144c0 0.19574-0.15557 0.34452-0.36287 0.34452h-9.7403c-0.2073 0-0.36286-0.14878-0.36286-0.34452v-7.3144c0-0.17181 0.12446-0.30802 0.28743-0.34044l0.40772-0.0795v-2.3505c0-2.384 2.0312-4.3136 4.5379-4.3136zm0 0.69311c-2.0943 0-3.8081 1.6281-3.8081 3.6205v2.4239h7.6161v-2.4239c0-1.9923-1.7138-3.6205-3.808-3.6205zm0 0.97852c1.5379 0 2.7806 1.1796 2.7806 2.642v1.4454h-5.5612v-1.4454c0-1.4624 1.2426-2.642 2.7806-2.642z" fill="currentColor"/>
</svg>
