<svg viewBox="0 0 22 22" xmlns="http://www.w3.org/2000/svg">
<defs>
<style id="current-color-scheme" type="text/css">.ColorScheme-Text {
        color:#dedede
      }</style>
</defs>
<path d="m18.766 12.405-1.4366-1.4055 1.4366-1.4055c0.20828-0.19437 0.27767-0.43728 0.20828-0.72876-0.0832-0.28458-0.26362-0.46156-0.54142-0.53095l-1.9572-0.49976 0.55177-1.9364c0.0832-0.28445 0.0175-0.5275-0.19794-0.72876-0.20113-0.21519-0.44405-0.28112-0.72875-0.19781l-1.9362 0.55178-0.4999-1.9573c-0.0694-0.28458-0.24611-0.46156-0.53069-0.53095-0.2847-0.0764-0.52762-0.0104-0.72876 0.19781l-1.4056 1.4472-1.4055-1.4472c-0.20126-0.21519-0.44418-0.28112-0.72876-0.19781-0.28457 0.0694-0.46156 0.24637-0.53094 0.53095l-0.49977 1.9573-1.9364-0.55178c-0.28458-0.0833-0.52749-0.0174-0.72875 0.19781-0.21519 0.20126-0.28113 0.44418-0.19782 0.72876l0.55178 1.9364-1.9573 0.49976c-0.27755 0.0694-0.45811 0.24637-0.5413 0.53095-0.0695 0.29148 0 0.53439 0.20817 0.72876l1.4367 1.4055-1.4367 1.4055c-0.20817 0.19436-0.27755 0.43728-0.20817 0.72876 0.0832 0.28458 0.26375 0.46156 0.5413 0.53095l1.9573 0.49963-0.55178 1.9364c-0.0833 0.28458-0.0174 0.52737 0.19782 0.72876 0.20126 0.21519 0.44417 0.281 0.72875 0.19781l1.9364-0.55165 0.49977 1.9572c0.0694 0.28458 0.24637 0.46501 0.53094 0.5413 0.29148 0.0694 0.5344 0 0.72876-0.20816l1.4055-1.4367 1.4056 1.4368c0.13878 0.15244 0.31576 0.22886 0.53082 0.22886 0.0487 0 0.1145-7e-3 0.19794-0.0207 0.28458-0.0833 0.46143-0.26375 0.53082-0.5413l0.49964-1.9572 1.9363 0.55165c0.2847 0.0832 0.52762 0.0174 0.72875-0.19781 0.21532-0.20139 0.28113-0.44431 0.19794-0.72876l-0.55164-1.9364 1.957-0.49964c0.27793-0.0694 0.45824-0.24636 0.54142-0.53094 0.0695-0.29161 1.3e-4 -0.53452-0.20828-0.72889z" fill="#2ecc71"/>
</svg>
