<svg viewBox="0 0 22 22" xmlns="http://www.w3.org/2000/svg">
<defs>
<style id="current-color-scheme" type="text/css">.ColorScheme-Text {
        color:#dedede
      }</style>
</defs>
<path class="ColorScheme-Text" d="m15.734 3.0045c-1.2008-0.055197-2.4655 0.39987-3.168 1.289l-5.2438 6.6383-0.75054 0.94917c-0.74931 0.94839-0.5384 2.6378 0.4207 3.3787 0.95908 0.74098 2.6675 0.53436 3.4169-0.41403l5.2438-6.6403-0.95791-0.7402-5.2458 6.6383c-0.37466 0.47419-1.2289 0.57748-1.7084 0.20702-0.47954-0.37049-0.58402-1.2152-0.20935-1.6894l0.74854-0.94722 4.4972-5.6911 0.74856-0.94722c0.74933-0.94841 2.4578-1.157 3.4169-0.41599 0.95908 0.74095 1.168 2.4303 0.41872 3.3787l-0.74856 0.94918-5.9943 7.5875c-1.124 1.4226-3.6867 1.7325-5.1253 0.62106-1.4386-1.1115-1.754-3.6455-0.63005-5.0681l5.9944-7.5875-0.95791-0.7402-5.9943 7.5875c-1.4987 1.8968-1.0808 5.2755 0.83743 6.7575 1.9182 1.4819 5.3351 1.0668 6.8338-0.83004l6.7449-8.5347c1.124-1.4226 0.8086-3.9567-0.63004-5.0681-0.5395-0.41679-1.2368-0.63485-1.9573-0.66794z" fill="currentColor"/>
</svg>
