<svg width="22" height="22" viewBox="4.5 3 13 16" xmlns="http://www.w3.org/2000/svg">
<defs>
<style id="current-color-scheme" type="text/css">.ColorScheme-Text {
        color:#f2f2f2
      }</style>
</defs>
<path class="ColorScheme-Text" d="m11.539 3.0039c-0.22782-8e-4 -0.45486 0.08-0.6268 0.244l-2.8064 2.6733c-0.1718 0.1636-0.25967 0.3825-0.26049 0.5994-8.18e-4 0.2171 0.08581 0.4384 0.25642 0.6034l2.784 2.6907c0.34134 0.33 0.91186 0.3316 1.2556 0 0.34375-0.3276 0.34545-0.8728 0.0041-1.2028l-2.1612-2.0874 2.1755-2.0737c0.34373-0.3276 0.3474-0.8728 0.0061-1.2029-0.17068-0.1649-0.39898-0.2471-0.6268-0.2479zm-6.2273 8.1992c-0.45014 0-0.81199 0.3491-0.81199 0.781s0.36186 0.7791 0.81199 0.7791h11.376c0.45014 0 0.81199-0.3472 0.81199-0.7791s-0.36186-0.781-0.81199-0.781h-11.376zm0 3.1183c-0.45014 0-0.81199 0.3492-0.81199 0.7812 0 0.4318 0.36186 0.779 0.81199 0.779h11.376c0.45014 0 0.81199-0.3472 0.81199-0.779 0-0.432-0.36186-0.7812-0.81199-0.7812h-11.376zm0 3.1184c-0.45014 0-0.81199 0.3492-0.81199 0.7811s0.36186 0.7791 0.81199 0.7791h11.376c0.45014 0 0.81199-0.3472 0.81199-0.7791s-0.36186-0.7811-0.81199-0.7811h-11.376z" fill="currentColor"/>
</svg>
