<svg viewBox="0 0 22 22" xmlns="http://www.w3.org/2000/svg">
<defs>
<style id="current-color-scheme" type="text/css">.ColorScheme-Text {
        color:#f2f2f2
      }</style>
</defs>
<path d="m10.576 2.9883v0.0019532c-0.40269 1e-3 -0.80373 0.15054-1.1133 0.44727-0.6199 0.59308-0.61567 1.6005 0.0078125 2.1895l5.666 5.3535-5.625 5.3906c-0.61995 0.59307-0.61773 1.6007 0.0058593 2.1895 0.62326 0.58976 1.6132 0.58401 2.2324-0.009766l6.6328-6.3555 0.14063-0.13476h0.001953c0.30947-0.29658 0.47023-0.69694 0.46875-1.0957-2e-3 -0.39847-0.16499-0.79741-0.47656-1.0918l-6.8242-6.4453v0.0019531c-0.31173-0.29468-0.7145-0.44272-1.1172-0.44141zm-4.0762 5.5117c-1.376 0-2.5 1.124-2.5 2.5s1.124 2.5 2.5 2.5 2.5-1.124 2.5-2.5-1.124-2.5-2.5-2.5z" fill="#2ecc71"/>
</svg>
