<svg width="22" height="22" viewBox="9.135 3 3.73 16" xmlns="http://www.w3.org/2000/svg">
<path d="m10.996 3c-0.79451 0-1.4199 0.68382-1.4199 1.4883v8.1855c0 0.80446 0.62448 1.4902 1.4199 1.4902 0.79544 0 1.4219-0.68577 1.4219-1.4902v-8.1855c0-0.80446-0.62737-1.4883-1.4219-1.4883zm0.003906 12.271c-0.4988 0-0.96822 0.19286-1.3203 0.54492-0.35146 0.35146-0.54492 0.81827-0.54492 1.3184 0 0.5001 0.19286 0.96822 0.54492 1.3203 0.35211 0.35211 0.82155 0.54492 1.3203 0.54492 0.4988 0 0.96822-0.19286 1.3203-0.54492 0.35211-0.35211 0.54492-0.82024 0.54492-1.3203 0-0.50012-0.19353-0.96692-0.54492-1.3184-0.35211-0.35211-0.82153-0.54492-1.3203-0.54492z" fill="#fdbc4b"/>
</svg>
