<svg width="22" height="22" viewBox="3.5 3 15 16" xmlns="http://www.w3.org/2000/svg">
<defs>
<style id="current-color-scheme" type="text/css">.ColorScheme-Text {
        color:#f2f2f2
      }</style>
</defs>
<path class="ColorScheme-Text" d="m11.921 3v2e-3c0.40285 1e-3 0.80405 0.15043 1.1137 0.44695 0.62014 0.59266 0.61591 1.5994-8e-3 2.1879l-5.6682 5.3497 5.6272 5.3868c0.62019 0.59265 0.61797 1.5995-6e-3 2.1879-0.6235 0.58935-1.6138 0.58361-2.2333-0.01l-6.6354-6.351-0.14068-0.13467h-2e-3c-0.30959-0.29637-0.47041-0.69645-0.46893-1.0949 2e-3 -0.39819 0.16505-0.79685 0.47674-1.091l6.8269-6.4408v2e-3c0.31189-0.29443 0.71482-0.44236 1.1177-0.44105zm4.0778 5.5078c1.3766 0 2.501 1.1232 2.501 2.4982 0 1.3751-1.1244 2.4982-2.501 2.4982s-2.501-1.1232-2.501-2.4982c0-1.3751 1.1244-2.4982 2.501-2.4982z" fill="currentColor"/>
</svg>
