<svg viewBox="0 0 22 22" xmlns="http://www.w3.org/2000/svg">
<defs>
<style id="current-color-scheme" type="text/css">.ColorScheme-NegativeText {
        color:#da4453;
      }</style>
</defs>
<path class="ColorScheme-NegativeText" d="m11 3c-3.1554 0-5.7135 2.558-5.7135 5.7135 0 0.19722 0.016283 0.37927 0.035709 0.57135 0.015655 0.19112 0.040909 0.38414 0.071419 0.57135 0.65417 4.0159 3.321 6.8584 5.6064 9.1438 2.2854-2.2854 4.9522-5.1278 5.6064-9.1438 0.03051-0.18721 0.05576-0.38023 0.07142-0.57135 0.01954-0.19208 0.03571-0.37413 0.03571-0.57135 0-3.1554-2.558-5.7135-5.7135-5.7135zm0 3.4281c1.2622 0 2.2854 1.0232 2.2854 2.2854s-1.0232 2.2854-2.2854 2.2854c-1.2622 0-2.2854-1.0232-2.2854-2.2854s1.0232-2.2854 2.2854-2.2854z" fill="currentColor"/>
</svg>
