<svg width="22" height="22" version="1.1" viewBox="3 3 16 16" xmlns="http://www.w3.org/2000/svg">
<g transform="translate(-326 -534.36)">
<g transform="translate(-1,1)">
<g transform="translate(327,-497)">
<path transform="translate(0 1030.4)" d="m11 3c-4.432 0-8 3.568-8 8s3.568 8 8 8 8-3.568 8-8-3.568-8-8-8zm4.3457 5.5c0.049469 0 0.10286 0.0034828 0.1582 0.0097656h0.001953c0.75067 0.063472 1.2819 0.3183 1.5781 0.75781 0.32925 0.4885 0.28336 1.0846 0.22656 1.3965-0.005119 0.028143-0.028471 0.049692-0.056641 0.054688-0.028279 0.005037-0.05583-0.00657-0.070312-0.03125-0.058941-0.10057-0.15804-0.25346-0.30078-0.40625-0.34628-0.37062-0.77778-0.56641-1.2461-0.56641-0.038957-1e-7 -0.079267 0.001237-0.11914 0.0039062v2.7695c0 0.51336-0.38485 0.93491-0.91602 1.002-0.048168 0.006064-0.096417 0.009766-0.14453 0.009766-0.51243 0-0.94396-0.34705-1.002-0.80664-0.03125-0.24756 0.04654-0.49379 0.21875-0.69336 0.1722-0.19957 0.4186-0.32861 0.69336-0.36328 0.15767-0.019916 0.31795-0.005794 0.4668 0.039062v-2.8242c0-0.16222 0.13327-0.35156 0.51172-0.35156zm-4.3457 1.5c0.554 0 1 0.446 1 1s-0.446 1-1 1-1-0.446-1-1 0.446-1 1-1z" fill="#f2f2f2"/>
</g>
</g>
</g>
</svg>
