<svg viewBox="0 0 22 22" xmlns="http://www.w3.org/2000/svg">
<defs>
<style id="current-color-scheme" type="text/css">.ColorScheme-Text {
        color:#dedede
      }</style>
</defs>
<path class="ColorScheme-Text" d="m11 3c-4.432 0-8 3.568-8 8s3.568 8 8 8 8-3.568 8-8-3.568-8-8-8zm4.4141 5.502c0.014276-0.003326 0.030243-2.273e-4 0.041016 0.0097657 0.010788 0.0099782 0.015938 0.024551 0.013672 0.039062-2.94e-4 0.0018544-0.02905 0.19489 0.033203 0.45703 0.057264 0.24102 0.20563 0.59263 0.58594 0.89648 0.48634 0.38856 0.84232 0.7979 1.0566 1.2168 0.1915 0.37427 0.26528 0.7465 0.22266 1.1055-0.065639 0.55294-0.41385 1.0272-0.93164 1.2695-0.005975 0.002796-0.011235 0.003906-0.017578 0.003906-0.010758 0-0.021011-0.004213-0.029297-0.011719-0.013172-0.011935-0.019574-0.030097-0.013672-0.046875 0.18611-0.52904-0.073317-1.0524-0.26562-1.2012-0.031686 0.11865-0.13786 0.35562-0.48438 0.41016-0.012627 0.002016-0.025369-0.001495-0.035156-0.009766s-0.015449-0.020414-0.015625-0.033203c-0.003768-0.28464-0.15179-0.77246-0.52734-0.9668 0.12377 0.33133-0.035188 0.51168-0.2168 0.7168-0.20624 0.2329-0.4401 0.49673-0.37305 1.082 7.66e-4 0.003267 0.001953 0.006263 0.001953 0.009766 0 0.024386-0.020535 0.044922-0.044922 0.044922-0.006048 0-0.011853-0.001375-0.017578-0.003907-0.14813-0.065535-0.50901-0.26445-0.64648-0.68555-0.12874-0.39438-0.031447-0.87592 0.28906-1.4316 0.064447-0.11172 0.083834-0.20785 0.058594-0.29688-0.050656-0.17861-0.28298-0.30465-0.45312-0.39648-0.012892-0.006962-0.021966-0.020587-0.023437-0.035157-0.001472-0.014584 0.004381-0.02772 0.015625-0.037109 0.18089-0.15103 0.40014-0.22852 0.65039-0.22852 0.09497 0 0.19427 0.011069 0.29688 0.033203-0.19605-0.48812-0.16578-0.99746 0.085938-1.4102 0.22904-0.37555 0.72317-0.49507 0.74414-0.5zm-4.4141 1.498c0.554 0 1 0.446 1 1s-0.446 1-1 1-1-0.446-1-1 0.446-1 1-1z" fill="currentColor"/>
</svg>
