<svg viewBox="0 0 22 22" xmlns="http://www.w3.org/2000/svg">
<defs>
<style id="current-color-scheme" type="text/css">.ColorScheme-Text {
        color:#dedede;
      }</style>
</defs>
<path d="m6.6309 3c-0.60519 0-1.0938 0.4866-1.0938 1.0918s0.48856 1.0938 1.0938 1.0938 1.0918-0.48856 1.0918-1.0938-0.4866-1.0918-1.0918-1.0918zm4.3691 0c-0.60519 0-1.0918 0.4866-1.0918 1.0918s0.4866 1.0938 1.0918 1.0938 1.0918-0.48856 1.0918-1.0938-0.4866-1.0918-1.0918-1.0918zm4.3691 0c-0.60519 0-1.0918 0.4866-1.0918 1.0918s0.4866 1.0938 1.0918 1.0938c0.60519 0 1.0938-0.48856 1.0938-1.0938s-0.48856-1.0918-1.0938-1.0918z" fill="#fdbc4b"/>
<path class="ColorScheme-Text" d="m10.975 6.252c-1.5986 0-2.9648 1.0827-2.9648 3.1504 0 1.3499 0.62611 2.7198 1.4551 3.5664 0.32313 0.84759-0.2542 1.1632-0.375 1.207-1.1263 0.36423-4.1911 2.1797-4.1426 4.8242h12.105c0.054026-2.5263-2.3702-4.1663-4.2852-4.8242-0.080028-0.026172-0.58562-0.254-0.26953-1.2148h-0.003906c0.82394-0.8486 1.4531-2.2142 1.4531-3.5586 0-2.0671-1.3751-3.1504-2.9727-3.1504z" fill="currentColor"/>
</svg>
