<svg width="22" height="22" viewBox="3.569 3 14.86 16" xmlns="http://www.w3.org/2000/svg">
<defs>
<style id="current-color-scheme" type="text/css">.ColorScheme-NegativeText {
        color:#da4453;
      }</style>
</defs>
<path class="ColorScheme-NegativeText" d="m10.963 13.732c0.42422 0 0.76945 0.34503 0.76945 0.76944 0 0.42427-0.34523 0.76945-0.76945 0.76945s-0.76944-0.34518-0.76944-0.76945c0-0.42436 0.34527-0.76944 0.76944-0.76944zm0.73051-5.7022v4.2133c0 0.40338-0.32708 0.73051-0.73051 0.73051-0.40337 0-0.73051-0.32713-0.73051-0.73051v-4.2133c0-0.40343 0.32714-0.73051 0.73051-0.73051 0.40343 0 0.73051 0.32713 0.73051 0.73051zm6.7355-1.6599c-5e-3 -0.37503-0.2935-0.68484-0.66689-0.7191-3.103-0.29024-5.6353-1.9485-6.4701-2.5551-0.17447-0.12719-0.4109-0.12719-0.58537 0-0.83322 0.60657-3.3655 2.2649-6.4685 2.5551-0.3734 0.0343-0.66038 0.34407-0.6669 0.7191-0.0375 2.4475 0.35546 10.757 7.2414 12.606 0.1223 0.0326 0.25111 0.0326 0.37341 0 6.8859-1.8474 7.2788-10.158 7.243-12.606z" fill="currentColor"/>
</svg>
