<svg viewBox="0 0 22 22" xmlns="http://www.w3.org/2000/svg">
<defs>
<style id="current-color-scheme" type="text/css">.ColorScheme-Text {
        color:#f2f2f2
      }</style>
</defs>
<path class="ColorScheme-Text" d="m11 3c-0.84615 0-1.5694 0.30067-2.1719 0.90312-0.60246 0.60246-0.90625 1.3273-0.90625 2.1734v4.9234l5.9719-5.9719c-0.21797-0.59597-0.5915-1.0828-1.1203-1.4609-0.52882-0.37823-1.1199-0.56719-1.7734-0.56719zm5.5375 1.9719c-0.0832 0-0.15623 0.031073-0.22031 0.095313l-11.864 11.864c-0.06408 0.06408-0.096875 0.13868-0.096875 0.22188 0 0.0834 0.032797 0.1578 0.096875 0.22188l0.7875 0.78906c0.064081 0.06408 0.137 0.09375 0.22031 0.09375 0.083317 0 0.15779-0.02967 0.22188-0.09375l2.4422-2.4422c0.70501 0.43606 1.4576 0.69492 2.2594 0.77812v1.2703h-2.4609c-0.16663 0-0.31114 0.05944-0.43281 0.18125-0.12179 0.12178-0.18281 0.26618-0.18281 0.43281 0 0.16652 0.061023 0.31114 0.18281 0.43281 0.12167 0.12179 0.26618 0.18281 0.43281 0.18281h6.1531c0.16663 0 0.31114-0.06109 0.43281-0.18281 0.12191-0.12167 0.18281-0.26629 0.18281-0.43281 0-0.16663-0.0609-0.31103-0.18281-0.43281-0.12167-0.12178-0.26618-0.18125-0.43281-0.18125h-2.4609v-1.2703c1.3909-0.15378 2.5592-0.75516 3.5047-1.8031 0.94528-1.0479 1.4188-2.2798 1.4188-3.6969v-1.2312c0-0.16664-0.06114-0.31103-0.18281-0.43281-0.12191-0.12179-0.26774-0.18281-0.43437-0.18281-0.16664 0-0.30946 0.06093-0.43125 0.18281-0.12179 0.12178-0.18281 0.26617-0.18281 0.43281v1.2312c0 1.186-0.42121 2.1993-1.2641 3.0422s-1.858 1.2641-3.0438 1.2641c-0.69226 0-1.3485-0.16205-1.9703-0.48906l0.92344-0.92344c0.34579 0.1215 0.69485 0.18265 1.0469 0.18281 0.84553-3.44e-4 1.57-0.30114 2.1719-0.90312 0.60246-0.60234 0.90469-1.3273 0.90469-2.1734v-1.2312l3.4703-3.4703c0.06408-0.06408 0.09688-0.13856 0.09688-0.22188 0-0.083304-0.03268-0.1578-0.09688-0.22188l-0.7875-0.7875c-0.0642-0.06424-0.13844-0.095313-0.22188-0.095313zm-10.459 4.1828c-0.16675 0-0.31259 0.05943-0.43438 0.18125-0.12179 0.12178-0.18125 0.26773-0.18125 0.43437v1.2297c0 0.71162 0.13394 1.3974 0.40312 2.0578l0.97188-0.97188c-0.096181-0.38461-0.14531-0.74618-0.14531-1.0859v-1.2297c0-0.16664-0.061023-0.31259-0.18281-0.43437-0.12179-0.12179-0.26462-0.18125-0.43125-0.18125z" fill="currentColor"/>
</svg>
