<svg width="22" height="22" viewBox="5.467 3.007 11.07 15.99" xmlns="http://www.w3.org/2000/svg">
<defs>
<style id="current-color-scheme" type="text/css">.ColorScheme-Text {
        color:#f2f2f2
      }</style>
</defs>
<path class="ColorScheme-Text" d="m11 3.0074c-0.84541 0-1.5692 0.3007-2.1713 0.9026-0.60204 0.6019-0.90257 1.3259-0.90257 2.1713v4.9187c0 0.8454 0.30065 1.5695 0.90257 2.1713s1.3259 0.9026 2.1713 0.9026c0.84541 0 1.5694-0.3008 2.1713-0.9026 0.60193-0.6018 0.90257-1.3259 0.90257-2.1713v-4.9187c0-0.8454-0.30041-1.5693-0.90257-2.1713-0.60193-0.6019-1.3259-0.9026-2.1713-0.9026zm-4.9187 6.1477c-0.16661 0-0.30974 0.061-0.43142 0.1831-0.12168 0.1217-0.18307 0.2663-0.18307 0.4328v1.229c0 1.4154 0.47173 2.647 1.4163 3.694 0.94457 1.0471 2.1126 1.6473 3.5024 1.8009v1.2687h-2.4594c-0.16649 0-0.31116 0.06-0.43284 0.1817s-0.18165 0.2663-0.18165 0.4328c0 0.1664 0.05997 0.3099 0.18165 0.4314 0.12168 0.1217 0.26635 0.1831 0.43284 0.1831h6.1477c0.16649 0 0.31139-0.061 0.43284-0.1831 0.1218-0.1215 0.18165-0.265 0.18165-0.4314 0-0.1665-0.05985-0.3111-0.18165-0.4328-0.12145-0.1217-0.26635-0.1817-0.43284-0.1817h-2.4594v-1.2687c1.3896-0.1536 2.5577-0.7538 3.5024-1.8009 0.94469-1.047 1.4163-2.2786 1.4163-3.694v-1.229c0-0.1665-0.06127-0.311-0.18307-0.4328-0.12145-0.1217-0.26493-0.1831-0.43142-0.1831s-0.31116 0.061-0.43284 0.1831c-0.12168 0.1217-0.18165 0.2663-0.18165 0.4328v1.229c0 1.1849-0.42093 2.1976-1.263 3.0398-0.84199 0.8422-1.8563 1.2645-3.0412 1.2645s-2.1976-0.4223-3.0398-1.2645c-0.84211-0.842-1.2645-1.8549-1.2645-3.0398v-1.229c0-0.1665-0.05997-0.3111-0.18165-0.4328s-0.26623-0.1831-0.43284-0.1831z" fill="currentColor"/>
</svg>
