<svg width="22" height="22" viewBox="3 3 16 16" xmlns="http://www.w3.org/2000/svg">
<defs>
<style id="current-color-scheme" type="text/css">.ColorScheme-Text {
        color:#f2f2f2
      }</style>
</defs>
<path class="ColorScheme-Text" d="m4.0117 3c-0.56096 0-1.0117 0.45076-1.0117 1.0117v13.977c0 0.56096 0.45076 1.0117 1.0117 1.0117h13.977c0.56096 0 1.0117-0.45076 1.0117-1.0117v-13.977c0-0.56096-0.45076-1.0117-1.0117-1.0117h-13.977zm6.9883 3.2305c0.12016 0 0.21887 0.083776 0.29492 0.24805l1.3516 2.7344 3.0176 0.4375c0.22454 0.03607 0.33594 0.12908 0.33594 0.27734 0 0.088147-0.051949 0.18296-0.15625 0.28711l-2.1816 2.1289 0.51758 3.0039c0.004056 0.028104 0.005859 0.069017 0.005859 0.12109 0 0.084164-0.020529 0.15476-0.0625 0.21289-0.042045 0.058199-0.10327 0.08789-0.18359 0.08789-0.075976 0-0.156-0.024172-0.24023-0.072265l-2.6992-1.4199-2.6992 1.4199c-0.088147 0.048167-0.16809 0.072265-0.24023 0.072265-0.084164 0-0.14741-0.029765-0.18945-0.08789-0.042045-0.0582-0.0625-0.12873-0.0625-0.21289-1e-7 -0.023973 0.0036785-0.06496 0.011719-0.12109l0.51758-3.0039-2.1875-2.1289c-0.10017-0.10814-0.15039-0.20295-0.15039-0.28711 0-0.14826 0.11162-0.24127 0.33594-0.27734l3.0176-0.4375 1.3516-2.7344c0.076124-0.16427 0.17476-0.24805 0.29492-0.24805z" fill="currentColor"/>
</svg>
