<svg width="22" height="22" viewBox="1.667 3 18.67 16" xmlns="http://www.w3.org/2000/svg">
<defs>
<style id="current-color-scheme" type="text/css">.ColorScheme-NegativeText {
        color:#da4453;
      }</style>
</defs>
<path class="ColorScheme-NegativeText" d="m20.042 13.958c-0.19446-0.19447-0.43048-0.29164-0.70844-0.29164h-0.99982v-2.0002c0-0.36106-0.13208-0.67366-0.39584-0.93743-0.26389-0.26402-0.57663-0.39596-0.93769-0.39596h-5.3333v-2h0.99982c0.27796 0 0.51411-0.0972 0.70844-0.29164 0.19447-0.19434 0.29151-0.43049 0.29151-0.70832v-3.3333c0-0.27783-0.0972-0.51397-0.29151-0.70831-0.19446-0.19447-0.43048-0.29164-0.70844-0.29164h-3.3333c-0.27783 0-0.51385 0.0972-0.70831 0.29164-0.19447 0.19434-0.29164 0.43048-0.29164 0.70831v3.3333c0 0.27783 0.0972 0.51385 0.29164 0.70832 0.19433 0.19447 0.43048 0.29164 0.70831 0.29164h0.99995v2h-5.3333c-0.36119 0-0.67367 0.13207-0.93756 0.39596-0.26389 0.26377-0.39584 0.57637-0.39584 0.93743v2.0002h-1.0001c-0.2777 0-0.51385 0.0973-0.70831 0.29164-0.19447 0.19434-0.29164 0.43049-0.29164 0.70832v3.3333c0 0.27783 0.0972 0.51397 0.29164 0.70831 0.19446 0.19447 0.43061 0.29164 0.70831 0.29164h3.3334c0.2777 0 0.51385-0.0973 0.70832-0.29164 0.19446-0.19434 0.29163-0.43048 0.29163-0.70831v-3.3333c0-0.27783-0.0972-0.51385-0.29163-0.70832-0.19447-0.19447-0.43062-0.29164-0.70832-0.29164h-1.0001v-2.0002h5.3333v2.0002h-0.99995c-0.27783 0-0.51385 0.0973-0.70831 0.29164-0.19447 0.19434-0.29164 0.43049-0.29164 0.70832v3.3333c0 0.27783 0.0972 0.51397 0.29164 0.70831 0.19434 0.19447 0.43048 0.29164 0.70831 0.29164h3.3333c0.27796 0 0.51398-0.0973 0.70845-0.29164 0.19434-0.19446 0.29163-0.43048 0.29163-0.70831v-3.3333c0-0.27783-0.0972-0.51385-0.29163-0.70832-0.19447-0.19447-0.43049-0.29164-0.70845-0.29164h-0.99982v-2.0002h5.3335v2.0002h-1.0001c-0.2777 0-0.51398 0.0973-0.70844 0.29164-0.19434 0.19447-0.29151 0.43049-0.29151 0.70832v3.3333c0 0.27783 0.0972 0.51397 0.29151 0.70831 0.19446 0.19447 0.43074 0.29164 0.70844 0.29164h3.3334c0.2777 0 0.51372-0.0973 0.70819-0.29164 0.19446-0.19434 0.29163-0.43048 0.29163-0.70831v-3.3333c0-0.27783-0.0972-0.51398-0.29138-0.70832z" fill="currentColor"/>
</svg>
