<svg viewBox="0 0 22 22" xmlns="http://www.w3.org/2000/svg">
<defs>
<style id="current-color-scheme" type="text/css">.ColorScheme-Text {
        color:#dedede
      }</style>
</defs>
<path class="ColorScheme-Text" d="m9.5912 4.9053c-0.5193 0.14837-0.93737 0.73858-0.93737 1.3118v9.0891c-0.52659-0.29401-1.2029-0.4129-1.904-0.21864-1.2652 0.35052-2.0581 1.4834-1.7869 2.53 0.27121 1.0466 1.5176 1.6311 2.7828 1.2806 1.0094-0.27965 1.7052-1.0709 1.8162-1.9053l0.0293-8.5893 6.5616-1.874v6.7778c-0.5266-0.29401-1.2029-0.41289-1.904-0.21864-1.2652 0.35053-2.0581 1.4834-1.7869 2.53 0.27122 1.0466 1.5176 1.6311 2.7828 1.2806 1.0094-0.27965 1.7052-1.0709 1.8162-1.9053l0.0293-11.182c0-0.42993-0.24919-0.7516-0.58585-0.81208l-6.9132 1.9053z" fill="currentColor"/>
</svg>
