<svg viewBox="0 0 22 22" xmlns="http://www.w3.org/2000/svg">
<defs>
<style id="current-color-scheme" type="text/css">.ColorScheme-NegativeText {
        color:#da4453;
      }</style>
</defs>
<path class="ColorScheme-NegativeText" d="m4.5234 3c-0.42013 0-0.77861 0.1497-1.0762 0.44727-0.29759 0.29759-0.44727 0.65604-0.44727 1.0762s0.14967 0.77858 0.44727 1.0762c0.29759 0.29759 0.65604 0.44727 1.0762 0.44727 1.0503 0 2.0626 0.1359 3.0371 0.41016 0.97447 0.27425 1.8844 0.66026 2.7305 1.1562 0.84613 0.49599 1.6161 1.0908 2.3105 1.7852 0.69447 0.69438 1.2892 1.4644 1.7852 2.3105 0.49599 0.8461 0.882 1.7561 1.1562 2.7305 0.27425 0.97456 0.41211 1.9867 0.41211 3.0371 0 0.42013 0.14778 0.77858 0.44531 1.0762 0.29768 0.29762 0.65601 0.44727 1.0762 0.44727 0.42013 0 0.77858-0.14959 1.0762-0.44727 0.29759-0.29768 0.44727-0.65604 0.44727-1.0762 0-1.3305-0.17132-2.6106-0.51562-3.8418-0.34436-1.2312-0.83278-2.3833-1.4629-3.457-0.63022-1.0737-1.3845-2.0525-2.2656-2.9336-0.88119-0.88111-1.8599-1.6354-2.9336-2.2656-1.0736-0.6302-2.2258-1.1186-3.457-1.4629-1.2312-0.34427-2.5114-0.51562-3.8418-0.51562zm0 5.7598c-0.42013 0-0.77858 0.14766-1.0762 0.44531-0.29759 0.29759-0.44727 0.65799-0.44727 1.0781 0 0.42013 0.14967 0.77855 0.44727 1.0762 0.29759 0.29759 0.65604 0.44531 1.0762 0.44531 0.78191-1e-6 1.5165 0.14973 2.2051 0.44726 0.68855 0.29759 1.2892 0.70328 1.8027 1.2168 0.51349 0.51346 0.9192 1.1142 1.2168 1.8027 0.29759 0.68855 0.44727 1.4231 0.44727 2.2051 1e-6 0.42013 0.14772 0.77858 0.44531 1.0762 0.29759 0.29762 0.65604 0.44727 1.0762 0.44727 0.42025 0 0.78053-0.14967 1.0781-0.44727 0.29756-0.29768 0.44531-0.65604 0.44531-1.0762 0-1.2022-0.2304-2.3304-0.69141-3.3867-0.46095-1.0561-1.0853-1.9778-1.873-2.7656-0.78775-0.78775-1.7095-1.4121-2.7656-1.873-1.0562-0.46098-2.1847-0.69141-3.3867-0.69141zm0.66406 5.8633c-0.30343 0-0.5831 0.055176-0.83984 0.16602-0.25675 0.1109-0.48127 0.26447-0.67383 0.45703-0.19256 0.1925-0.34421 0.41894-0.45508 0.68164-0.11087 0.2625-0.16602 0.54036-0.16602 0.83203 0 0.30346 0.055148 0.58307 0.16602 0.83984 0.11087 0.25678 0.26252 0.48127 0.45508 0.67383 0.19256 0.19244 0.41708 0.34424 0.67383 0.45508 0.25675 0.11078 0.53642 0.16602 0.83984 0.16602 0.29176 0 0.56945-0.055176 0.83203-0.16602 0.26258-0.1109 0.49103-0.2626 0.68359-0.45508 0.19256-0.19259 0.34421-0.417 0.45508-0.67383 0.11087-0.25678 0.16602-0.53639 0.16602-0.83984 0-0.29173-0.055148-0.56951-0.16602-0.83203-0.11087-0.26261-0.26252-0.48914-0.45508-0.68164-0.19256-0.19256-0.42101-0.34614-0.68359-0.45703-0.26258-0.11084-0.54027-0.16602-0.83203-0.16602z" fill="currentColor"/>
</svg>
