<svg viewBox="0 0 22 22" xmlns="http://www.w3.org/2000/svg">
<defs>
<style id="current-color-scheme" type="text/css">.ColorScheme-Text {
        color:#dedede
      }</style>
</defs>
<path class="ColorScheme-Text" d="m4.3066 3c-0.69013 0-1.3066 0.52539-1.3066 1.2227v13.555c0 0.69728 0.61654 1.2226 1.3066 1.2226h13.387c0.6901 0 1.3066-0.52534 1.3066-1.2226v-13.555c0-0.69728-0.61651-1.2227-1.3066-1.2227zm3.1934 2.4707c1.1264 0 2.0293 0.90293 2.0293 2.0293 0 1.1264-0.90291 2.0293-2.0293 2.0293s-2.0293-0.90289-2.0293-2.0293c0-1.1264 0.90291-2.0293 2.0293-2.0293zm5 0h4c0.0244 0 0.0293 5e-3 0.0293 0.0295v4c0 0.0243-5e-3 0.0295-0.0293 0.0295h-4c-0.0244 0-0.0293-5e-3 -0.0293-0.0295v-4c0-0.0243 5e-3 -0.0295 0.0293-0.0295zm-6 7h2c0.0244 0 0.0293 5e-3 0.0293 0.0295v4c0 0.0243-5e-3 0.0295-0.0293 0.0295h-2c-0.0244 0-0.0293-5e-3 -0.0293-0.0295v-4c0-0.0243 5e-3 -0.0295 0.0293-0.0295zm8 0.58399 1.7383 3.4746h-3.4766z" fill="currentColor"/>
</svg>
