<svg viewBox="0 0 22 22" xmlns="http://www.w3.org/2000/svg">
<defs>
<style id="current-color-scheme" type="text/css">.ColorScheme-Text {
        color:#dedede
      }</style>
</defs>
<path class="ColorScheme-Text" d="m4.3066 3c-0.69079 0-1.3066 0.52486-1.3066 1.2227v13.553c0 0.69779 0.61585 1.2246 1.3066 1.2246h13.387c0.69079 0 1.3066-0.52682 1.3066-1.2246v-13.553c0-0.6978-0.61585-1.2227-1.3066-1.2227h-13.387zm0 0.94141h13.387c0.23615 0 0.36523 0.14477 0.36523 0.28125v13.553c0 0.13658-0.12908 0.2832-0.36523 0.2832h-13.387c-0.23616 0-0.36523-0.14662-0.36523-0.2832v-13.553c0-0.13648 0.12907-0.28125 0.36523-0.28125zm3.1934 1.0586a2.5 2.5 0 0 0-2.5 2.5 2.5 2.5 0 0 0 2.5 2.5 2.5 2.5 0 0 0 2.5-2.5 2.5 2.5 0 0 0-2.5-2.5zm5 0c-0.277 0-0.5 0.223-0.5 0.5v4c0 0.277 0.223 0.5 0.5 0.5h4c0.277 0 0.5-0.223 0.5-0.5v-4c0-0.277-0.223-0.5-0.5-0.5h-4zm-6 7c-0.277 0-0.5 0.223-0.5 0.5v4c0 0.277 0.223 0.5 0.5 0.5h2c0.277 0 0.5-0.223 0.5-0.5v-4c0-0.277-0.223-0.5-0.5-0.5h-2zm8 0-2.5 5h5l-2.5-5z" fill="currentColor"/>
</svg>
