<svg width="22" height="22" viewBox="1 4.445 20 13.11" xmlns="http://www.w3.org/2000/svg">
<defs>
<style id="current-color-scheme" type="text/css">.ColorScheme-Text {
        color:#f2f2f2
      }</style>
</defs>
<path class="ColorScheme-Text" d="m11.879 4.4453c-0.2814 0-0.50782 0.22642-0.50782 0.50781v0.61328c0 0.2814 0.22642 0.50782 0.50782 0.50782h8.6133c0.28139 0 0.50781-0.22642 0.50781-0.50782v-0.61328c0-0.28139-0.22642-0.50781-0.50781-0.50781h-8.6133zm-2.2168 0.32617c-0.1593 5.8e-4 -0.31833 0.0616-0.43945 0.1836l-3.3691 3.3945-3.3945-3.3711c-0.24389-0.24215-0.6387-0.24-0.88086 4e-3 -0.24236 0.24389-0.24022 0.63861 4e-3 0.88086l3.8359 3.8086c0.12195 0.12106 0.28013 0.18027 0.43945 0.17969 0.15925-5.8e-4 0.31832-0.0616 0.43945-0.18359l3.8086-3.8359c0.24225-0.24401 0.24205-0.63871-2e-3 -0.88086-0.12196-0.12108-0.28211-0.18026-0.44141-0.17969zm2.2168 3.5996c-0.2814 0-0.50782 0.22642-0.50782 0.50781v0.61329c0 0.28139 0.22642 0.50781 0.50782 0.50781h8.6133c0.28139 0 0.50781-0.22642 0.50781-0.50781v-0.61329c0-0.28139-0.22642-0.50781-0.50781-0.50781h-8.6133zm-10.385 3.8516c-0.27408 0-0.49414 0.22006-0.49414 0.49414v0.64063c0 0.27408 0.22006 0.49414 0.49414 0.49414h19.012c0.27408 0 0.49414-0.22006 0.49414-0.49414v-0.64063c0-0.27408-0.22006-0.49414-0.49414-0.49414h-19.012zm10.385 3.7031c-0.2814 0-0.50782 0.22641-0.50782 0.5078v0.61329c0 0.28139 0.22642 0.50782 0.50782 0.50782h8.6133c0.28139 0 0.50781-0.22643 0.50781-0.50782v-0.61329c0-0.28139-0.22642-0.5078-0.50781-0.5078h-8.6133z" fill="currentColor"/>
</svg>
