<svg width="22" height="22" version="1.1" viewBox="3 3 16 16" xmlns="http://www.w3.org/2000/svg">
<g transform="translate(-326 -534.36)">
<g transform="matrix(1.341 0 0 1.341 -483.62 -163.96)">
<path transform="matrix(.74574 0 0 .74574 603.77 520.76)" d="m8 3c-0.552 0-1 0.448-1 1v1h1v-0.5c0-0.276 0.224-0.5 0.5-0.5h9c0.27601 0 0.5 0.224 0.5 0.5v9c0 0.276-0.22399 0.5-0.5 0.5h-0.5v1h1c0.552 0 1-0.44801 1-1v-10c0-0.552-0.448-1-1-1h-10zm-4 3c-0.552 0-1 0.44801-1 1v11c0 0.552 0.448 1 1 1h11c0.552 0 1-0.448 1-1v-11c0-0.55199-0.448-1-1-1h-11zm5.5 1a3 3 0 0 1 3 3c0 1.305-0.83502 2.4142-2 2.8242v5.1758h-2v-1h-2v-2h2v-2.1758c-1.165-0.41-2-1.5192-2-2.8242a3 3 0 0 1 3-3zm0 2a1 1 0 0 0-1 1 1 1 0 0 0 1 1 1 1 0 0 0 1-1 1 1 0 0 0-1-1z" fill="#f2f2f2"/>
</g>
</g>
</svg>
