<svg viewBox="0 0 22 22" xmlns="http://www.w3.org/2000/svg">
<defs>
<style id="current-color-scheme" type="text/css">.ColorScheme-Text {
        color:#dedede;
      }
      .ColorScheme-Highlight {
        color:#1d99f3;
      }</style>
</defs>
<path class="ColorScheme-Text" d="m13 4.3333a4.6667 4.6667 0 0 0-4.6667 4.6667 4.6667 4.6667 0 0 0 0.052083 0.66667h3.9479v3.9453a4.6667 4.6667 0 0 0 0.66667 0.054688 4.6667 4.6667 0 0 0 4.6667-4.6667 4.6667 4.6667 0 0 0-4.6667-4.6667zm-0.66667 9.2786a4.6667 4.6667 0 0 1-3.9479-3.9453h-4.0521v8h8v-4.0547z" fill="currentColor" fill-opacity=".6"/>
<path class="ColorScheme-Highlight" d="m13 3a6 6 0 0 0-5.9557 5.3333h-4.0443v10.667h10.667v-4.0417a6 6 0 0 0 5.3333-5.9583 6 6 0 0 0-6-6zm0 1.3333a4.6667 4.6667 0 0 1 4.6667 4.6667 4.6667 4.6667 0 0 1-4 4.6146v-5.2813h-5.2786a4.6667 4.6667 0 0 1 4.612-4zm-8.6667 5.3333h2.7083a6 6 0 0 0 5.2917 5.2891v2.7109h-8v-8zm4.0521 0h3.9479v3.9453a4.6667 4.6667 0 0 1-3.9479-3.9453z" fill="currentColor"/>
</svg>
