<svg viewBox="0 0 22 22" xmlns="http://www.w3.org/2000/svg">
<defs>
<style id="current-color-scheme" type="text/css">.ColorScheme-Text {
        color:#dedede;
      }
      .ColorScheme-Highlight {
        color:#3daee9;
      }</style>
</defs>
<path class="ColorScheme-Text" d="m12.357 3a6.0157 6.0157 0 0 0-1.7383 0.46484l0.67383 1.168a4.6789 4.6789 0 0 1 1.0645-0.28516v-1.3477zm1.3379 0.0019531v1.3477a4.6789 4.6789 0 0 1 1.0645 0.2832l0.67188-1.1621a6.0157 6.0157 0 0 0-1.7363-0.46875zm-4.2324 1.1348a6.0157 6.0157 0 0 0-1.2754 1.2734l1.168 0.66992a4.6789 4.6789 0 0 1 0.77539-0.7832l-0.66797-1.1602zm7.127 0-0.66992 1.166a4.6789 4.6789 0 0 1 0.7832 0.77539l1.1602-0.66797a6.0157 6.0157 0 0 0-1.2734-1.2734zm1.9453 2.4297-1.168 0.67383a4.6789 4.6789 0 0 1 0.28516 1.0645h1.3477a6.0157 6.0157 0 0 0-0.46484-1.7383zm-11.014 0.0019532a6.0157 6.0157 0 0 0-0.4668 1.7363h-4.0547v10.695h10.695v-4.0527a6.0157 6.0157 0 0 0 1.7383-0.46484l-0.67383-1.166a4.6789 4.6789 0 0 1-1.0645 0.28125v-5.293h-5.293a4.6789 4.6789 0 0 1 0.28125-1.0645l-1.1621-0.67188zm-3.1855 3.0742h2.7168a6.0157 6.0157 0 0 0 5.3047 5.3027v2.7188h-8.0215v-8.0215zm4.0645 0h3.957v3.9551a4.6789 4.6789 0 0 1-3.957-3.9551zm9.25 0a4.6789 4.6789 0 0 1-0.2832 1.0645l1.1621 0.67188a6.0157 6.0157 0 0 0 0.46875-1.7363h-1.3477zm-0.95312 2.2246a4.6789 4.6789 0 0 1-0.77539 0.7832l0.66797 1.1621a6.0157 6.0157 0 0 0 1.2734-1.2754l-1.166-0.66992z" fill="currentColor"/>
<path class="ColorScheme-Text" d="m4.3359 9.6426v8.0215h8.0215v-8.0215h-8.0215z" fill="currentColor" fill-opacity=".6" stroke="naone"/>
</svg>
