<svg width="22" height="22" viewBox="3 3 16 16" xmlns="http://www.w3.org/2000/svg">
<defs>
<style id="current-color-scheme" type="text/css">.ColorScheme-Text {
        color:#f2f2f2;
      }
      .ColorScheme-Highlight {
        color:#3daee9;
      }</style>
</defs>
<path class="ColorScheme-Text" d="m12.358 3a6.0157 6.0157 0 0 0-1.7389 0.4648l0.67363 1.167a4.6789 4.6789 0 0 1 1.0653-0.28464v-1.3472zm1.3368 0.00261v1.3472a4.6789 4.6789 0 0 1 1.0653 0.28192l0.67102-1.1619a6.0157 6.0157 0 0 0-1.7363-0.46736zm-4.2324 1.1331a6.0157 6.0157 0 0 0-1.2742 1.2741l1.1671 0.67104a4.6789 4.6789 0 0 1 0.77546-0.78336l-0.6684-1.1619zm7.1279 0-0.67102 1.167a4.6789 4.6789 0 0 1 0.7833 0.77552l1.1619-0.66848a6.0157 6.0157 0 0 0-1.2741-1.2741zm1.9452 2.4308-1.1671 0.6736a4.6789 4.6789 0 0 1 0.28459 1.0653h1.3473a6.0157 6.0157 0 0 0-0.46475-1.7388zm-11.013 0.002608a6.0157 6.0157 0 0 0-0.46736 1.7363l-4.0548 4.8e-5v10.695h10.695v-4.0522a6.0157 6.0157 0 0 0 1.7389-0.4648l-0.67363-1.167a4.6789 4.6789 0 0 1-1.1279 0.28976 4.6789 4.6789 0 0 1-0.34464 0.0368 4.6789 4.6789 0 0 1-0.2611 0.01043 4.6789 4.6789 0 0 1-0.6684-0.0544 4.6789 4.6789 0 0 1-3.9582-3.9556 4.6789 4.6789 0 0 1-0.05216-0.66848 4.6789 4.6789 0 0 1 0.05488-0.66832 4.6789 4.6789 0 0 1 0.28198-1.0653l-1.1619-0.67104zm-3.1854 3.0731h2.7154a6.0157 6.0157 0 0 0 5.3055 5.3029v2.718h-8.0209v-8.0209zm13.313 0a4.6789 4.6789 0 0 1-0.28198 1.0653l1.1619 0.67104a6.0157 6.0157 0 0 0 0.46736-1.7363h-1.3473zm-0.95301 2.2245a4.6789 4.6789 0 0 1-0.77546 0.7832l0.6684 1.1619a6.0157 6.0157 0 0 0 1.2741-1.2741l-1.1671-0.67104z" fill="currentColor"/>
<path class="ColorScheme-Text" d="m4.3368 9.6423v8.0209h8.0209v-4.0653a4.6789 4.6789 0 0 1-3.9582-3.9556h-4.0627z" fill="currentColor" fill-opacity=".6" stroke="naone"/>
</svg>
