<svg width="22" height="22" viewBox="3 3 16 16" xmlns="http://www.w3.org/2000/svg">
<defs>
<style id="current-color-scheme" type="text/css">.ColorScheme-Text {
        color:#f2f2f2
      }</style>
</defs>
<path class="ColorScheme-Text" d="m12.358 3a6.0157 6.0157 0 0 0-1.7389 0.46475l0.67363 1.1671a4.6789 4.6789 0 0 1 1.0653-0.2846v-1.3473zm1.3368 0.00261v1.3473a4.6789 4.6789 0 0 1 1.0653 0.28198l0.67102-1.1619a6.0157 6.0157 0 0 0-1.7363-0.46736zm-4.2324 1.1332a6.0157 6.0157 0 0 0-1.2742 1.2742l1.1671 0.67102a4.6789 4.6789 0 0 1 0.77546-0.78329l-0.66841-1.1619zm7.1279 0-0.67102 1.1671a4.6789 4.6789 0 0 1 0.78329 0.77546l1.1619-0.66841a6.0157 6.0157 0 0 0-1.2742-1.2742zm1.9452 2.4308-1.1671 0.67363a4.6789 4.6789 0 0 1 0.2846 1.0653h1.3473a6.0157 6.0157 0 0 0-0.46475-1.7389zm-11.013 0.0026109a6.0157 6.0157 0 0 0-0.46736 1.7363h-4.0548v10.695h10.695v-4.0522a6.0157 6.0157 0 0 0 1.7389-0.46475l-0.67363-1.1671a4.6789 4.6789 0 0 1-1.7337 0.33681 4.6789 4.6789 0 0 1-4.6266-4.0104 4.6789 4.6789 0 0 1-0.052219-0.66841 4.6789 4.6789 0 0 1 0.05483-0.66841 4.6789 4.6789 0 0 1 0.28198-1.0653l-1.1619-0.67102zm-3.1854 3.0731h2.7154a6.0157 6.0157 0 0 0 5.3055 5.3029v2.718h-8.0209v-8.0209zm13.313 0a4.6789 4.6789 0 0 1-0.28198 1.0653l1.1619 0.67102a6.0157 6.0157 0 0 0 0.46736-1.7363h-1.3473zm-0.953 2.2245a4.6789 4.6789 0 0 1-0.77546 0.78329l0.66841 1.1619a6.0157 6.0157 0 0 0 1.2742-1.2742l-1.1671-0.67102z" fill="currentColor"/>
</svg>
