<svg viewBox="0 0 22 22" xmlns="http://www.w3.org/2000/svg">
<defs>
<style id="current-color-scheme" type="text/css">.ColorScheme-Text {
        color:#dedede
      }</style>
</defs>
<path class="ColorScheme-Text" d="m6.4414 3c-1.0428 0-1.9433 0.38085-2.7031 1.1406-0.74488 0.75978-1.1191 1.6518-1.1191 2.6797s0.37426 1.9219 1.1191 2.6816c0.75978 0.75978 1.6603 1.1406 2.7031 1.1406 1.0428 0 1.9368-0.38085 2.6816-1.1406 0.75978-0.75978 1.1387-1.6537 1.1387-2.6816s-0.3789-1.9199-1.1387-2.6797c-0.74488-0.75978-1.6388-1.1406-2.6816-1.1406zm8.8945 0.17969-9.9453 14.814 1.2734 0.82617 9.9219-14.793-1.25-0.84766zm0.22266 8.1777c-1.0428 0-1.9433 0.38085-2.7031 1.1406-0.74488 0.75978-1.1172 1.6537-1.1172 2.6816 0 1.0279 0.37231 1.9199 1.1172 2.6797 0.75978 0.75978 1.6603 1.1406 2.7031 1.1406 1.0428 0 1.9368-0.38085 2.6816-1.1406 0.75978-0.75978 1.1406-1.6518 1.1406-2.6797 0-1.0279-0.38085-1.9219-1.1406-2.6816-0.74488-0.75978-1.6388-1.1406-2.6816-1.1406z" fill="currentColor"/>
</svg>
