<svg viewBox="0 0 22 22" xmlns="http://www.w3.org/2000/svg">
<defs>
<style id="current-color-scheme" type="text/css">.ColorScheme-Text {
        color:#dedede
      }</style>
</defs>
<path class="ColorScheme-Text" d="m11 3c-0.22803 0-0.42513 0.083496-0.5918 0.25l-4.3809 4.3809h-3.4492c-0.2282 0-0.42513 0.083496-0.5918 0.25-0.16666 0.16666-0.25 0.36572-0.25 0.59375v5.0508c0 0.22803 0.083335 0.42725 0.25 0.59375 0.16683 0.16666 0.36376 0.25 0.5918 0.25h3.4473l4.3828 4.3809c0.16666 0.1665 0.36376 0.25 0.5918 0.25 0.2282 0 0.42513-0.083497 0.5918-0.25s0.25-0.36376 0.25-0.5918v-14.316c0-0.22803-0.083497-0.42513-0.25-0.5918-0.16683-0.1665-0.3636-0.25-0.5918-0.25zm4.8418 1.7363c-0.22803 0-0.42497 0.083335-0.5918 0.25-0.1665 0.16666-0.25 0.36376-0.25 0.5918 0 0.34221 0.17146 0.6018 0.51367 0.77734 0.49111 0.25436 0.82461 0.44667 1 0.57812 0.64922 0.47383 1.1555 1.0683 1.5195 1.7832 0.36402 0.71495 0.54492 1.4762 0.54492 2.2832s-0.18091 1.5683-0.54492 2.2832c-0.36401 0.71511-0.87047 1.3095-1.5195 1.7832-0.17539 0.13162-0.50889 0.32377-1 0.57812-0.34221 0.17555-0.51367 0.43318-0.51367 0.77539 0 0.22803 0.083497 0.42725 0.25 0.59375 0.16683 0.16683 0.36855 0.25 0.60547 0.25 0.1053 0 0.21427-0.022802 0.32812-0.066406 1.2279-0.51776 2.2153-1.3445 2.9609-2.4805 0.74563-1.1358 1.1191-2.3746 1.1191-3.7168 0-1.3422-0.37351-2.5803-1.1191-3.7168-0.74563-1.1358-1.7331-1.9629-2.9609-2.4805-0.11386-0.043766-0.22794-0.066406-0.3418-0.066406zm-1.3164 3.1055c-0.22803 0-0.42529 0.080044-0.5918 0.24219-0.1665 0.1623-0.25 0.36285-0.25 0.59961 0 0.18427 0.052745 0.33954 0.1582 0.4668 0.1053 0.12726 0.23359 0.23802 0.38281 0.33008 0.1489 0.092053 0.29804 0.19308 0.44727 0.30273s0.27556 0.26509 0.38086 0.4668c0.10497 0.20187 0.1582 0.45172 0.1582 0.75s-0.053069 0.54813-0.1582 0.75c-0.1053 0.20187-0.23164 0.35698-0.38086 0.4668-0.14922 0.10966-0.29836 0.21068-0.44727 0.30273-0.14922 0.091892-0.27752 0.20103-0.38281 0.32812-0.1053 0.12742-0.1582 0.28448-0.1582 0.46875 0 0.23692 0.083496 0.43535 0.25 0.59766 0.1665 0.1623 0.36376 0.24414 0.5918 0.24414 0.13146 0 0.24238-0.022802 0.33008-0.066406 0.61417-0.24596 1.1076-0.65586 1.4805-1.2305 0.3729-0.57444 0.55859-1.1947 0.55859-1.8613s-0.1857-1.2902-0.55859-1.8691c-0.37306-0.57897-0.8663-0.98574-1.4805-1.2227-0.087693-0.043766-0.19862-0.066406-0.33008-0.066406z" fill="currentColor"/>
</svg>
