<svg viewBox="0 0 22 22" xmlns="http://www.w3.org/2000/svg">
<defs>
<style id="current-color-scheme" type="text/css">.ColorScheme-Text {
        color:#f2f2f2
      }</style>
</defs>
<path class="ColorScheme-Text" d="m11.203 3c-0.22803 0-0.42513 0.083496-0.5918 0.25l-4.3809 4.3809h-3.4473c-0.2282 0-0.42708 0.083496-0.59375 0.25-0.16666 0.16666-0.25 0.36572-0.25 0.59375v5.0508c0 0.22803 0.083335 0.42725 0.25 0.59375 0.16683 0.16666 0.36572 0.25 0.59375 0.25h3.4453l4.3828 4.3809c0.16666 0.1665 0.36376 0.25 0.5918 0.25 0.2282 0 0.42513-0.083497 0.5918-0.25s0.25-0.36376 0.25-0.5918v-14.316c0-0.22803-0.083497-0.42513-0.25-0.5918-0.16683-0.1665-0.3636-0.25-0.5918-0.25zm3.082 4.7559c-0.16101 0-0.2974 0.057168-0.41016 0.16992l-0.82031 0.82031c-0.11268 0.11268-0.16992 0.24907-0.16992 0.41016s0.057168 0.29936 0.16992 0.41211l1.7754 1.7754-1.7754 1.7754c-0.11268 0.11275-0.16992 0.24907-0.16992 0.41016s0.057168 0.29936 0.16992 0.41211l0.82031 0.82031c0.11275 0.11275 0.24914 0.16992 0.41016 0.16992 0.16109 0 0.29936-0.057243 0.41211-0.16992l1.7754-1.7754 1.7754 1.7754c0.11275 0.11275 0.24892 0.16992 0.41016 0.16992 0.16101 0 0.29943-0.057243 0.41211-0.16992l0.82031-0.82031c0.11275-0.11268 0.16992-0.25102 0.16992-0.41211s-0.057169-0.2974-0.16992-0.41016l-1.7754-1.7754 1.7754-1.7754c0.11275-0.11268 0.16992-0.25102 0.16992-0.41211s-0.057243-0.2974-0.16992-0.41016l-0.82031-0.82031c-0.11275-0.11275-0.2511-0.16992-0.41211-0.16992-0.16116 0-0.2974 0.057168-0.41016 0.16992l-1.7754 1.7754-1.7754-1.7754c-0.11268-0.11275-0.25102-0.16992-0.41211-0.16992z" fill="currentColor"/>
</svg>
