<svg viewBox="0 0 22 22" xmlns="http://www.w3.org/2000/svg">
<defs>
<style id="current-color-scheme" type="text/css">.ColorScheme-Text {
        color:#dedede
      }</style>
</defs>
<path class="ColorScheme-Text" d="m17.095 10.619h-1.1429v-3.0477c0-0.83808-0.68572-1.5238-1.5238-1.5238h-3.0476v-1.1428c0-1.0667-0.83809-1.9048-1.9048-1.9048-1.0667 0-1.9048 0.83808-1.9048 1.9048v1.1428h-3.0476c-0.8381 0-1.5238 0.68572-1.5238 1.5238v2.8952h1.1429c1.1429 0 2.0572 0.91438 2.0572 2.0572 0 1.1429-0.91429 2.0572-2.0572 2.0572h-1.1429v2.8952c0 0.83808 0.68571 1.5238 1.5238 1.5238h2.8952v-1.1428c0-1.1429 0.91429-2.0573 2.0572-2.0573 1.1429 0 2.0572 0.91438 2.0572 2.0573v1.1428h2.8952c0.83809 0 1.5238-0.68572 1.5238-1.5238v-3.0476h1.1429c1.0667 0 1.9048-0.8382 1.9048-1.9048 0-1.0667-0.83809-1.9047-1.9048-1.9047z" fill="currentColor"/>
</svg>
