<svg width="22" height="22" viewBox="5.461 3 11.08 16" xmlns="http://www.w3.org/2000/svg">
<defs>
<style id="current-color-scheme" type="text/css">.ColorScheme-Text {
        color:#f2f2f2
      }</style>
</defs>
<path class="ColorScheme-Text" d="m11 3c-0.84619 0-1.5712 0.30181-2.1738 0.9043s-0.90234 1.3257-0.90234 2.1719v4.9238c0 0.84619 0.29986 1.5715 0.90234 2.1738s1.3276 0.90234 2.1738 0.90234 1.5713-0.29998 2.1738-0.90234 0.90234-1.3276 0.90234-2.1738v-4.9238c0-0.84619-0.29962-1.5693-0.90234-2.1719-0.60248-0.60248-1.3276-0.9043-2.1738-0.9043zm-4.9238 6.1543c-0.16676 0-0.30985 0.059846-0.43164 0.18164-0.1218 0.1218-0.18359 0.26695-0.18359 0.43359v1.2305c0 1.4167 0.47252 2.6493 1.418 3.6973 0.94545 1.048 2.1148 1.649 3.5059 1.8027v1.2695h-2.4609c-0.16664 0-0.3118 0.059846-0.43359 0.18164-0.1218 0.1218-0.18359 0.26695-0.18359 0.43359 0 0.16652 0.061799 0.30996 0.18359 0.43164 0.1218 0.1218 0.26695 0.18359 0.43359 0.18359h6.1523c0.16664 0 0.31204-0.061799 0.43359-0.18359 0.12191-0.12168 0.18164-0.26512 0.18164-0.43164 0-0.16664-0.059727-0.3118-0.18164-0.43359-0.12156-0.1218-0.26695-0.18164-0.43359-0.18164h-2.4609v-1.2695c1.3908-0.15378 2.5583-0.75473 3.5039-1.8027s1.4199-2.2806 1.4199-3.6973v-1.2305c0-0.16664-0.06168-0.31168-0.18359-0.43359-0.12156-0.1218-0.265-0.18164-0.43164-0.18164s-0.3118 0.059846-0.43359 0.18164-0.18359 0.26695-0.18359 0.43359v1.2305c0 1.186-0.42078 2.2-1.2637 3.043-0.84277 0.84301-1.857 1.2656-3.043 1.2656-1.186 0-2.2-0.42262-3.043-1.2656-0.84289-0.84277-1.2656-1.857-1.2656-3.043v-1.2305c0-0.16664-0.059846-0.3118-0.18164-0.43359-0.1218-0.1218-0.26683-0.18164-0.43359-0.18164z" fill="currentColor"/>
</svg>
