<svg width="22" height="22" viewBox="4 3 14 16" xmlns="http://www.w3.org/2000/svg">
<defs>
<style id="current-color-scheme" type="text/css">.ColorScheme-Text {
        color:#f2f2f2
      }</style>
</defs>
<path class="ColorScheme-Text" d="m4.7767 3c-0.43093 0-0.77672 0.35758-0.77672 0.80078v14.398c0 0.4432 0.34579 0.80078 0.77672 0.80078h12.447c0.43093 0 0.77673-0.35758 0.77673-0.80078v-14.398c0-0.4432-0.34579-0.80078-0.77673-0.80078h-12.447zm8.8896 5c0.13091 0 0.24262 0.04633 0.33423 0.14063l0.66847 0.6875c0.09161 0.09429 0.13679 0.20911 0.13673 0.34375 0 0.13471-0.04513 0.24947-0.13673 0.34375l-3.557 3.6562-0.66658 0.6875c-0.091674 0.094227-0.20332 0.14063-0.33424 0.14063-0.13098 0-0.24261-0.046333-0.33423-0.14063l-2.446-2.5156c-0.09168-0.094226-0.13673-0.20911-0.13673-0.34375 0-0.13471 0.045067-0.24946 0.13673-0.34375l0.66847-0.6875c0.09168-0.09429 0.20327-0.14063 0.33424-0.14063 0.13092 0 0.24256 0.04633 0.33424 0.14063l1.4433 1.4902 3.2208-3.3184c0.09162-0.094287 0.20327-0.14063 0.33425-0.14063z" fill="currentColor"/>
</svg>
