<svg width="22" height="22" version="1.1" viewBox="3 4.926 16 12.07" xmlns="http://www.w3.org/2000/svg">
<defs>
<style id="current-color-scheme" type="text/css">.ColorScheme-Text {
        color:#f2f2f2
      }</style>
</defs>
<path d="m3.5684 4.9258c-0.31477 0-0.56836 0.25555-0.56836 0.57031v10.936c0 0.31476 0.25359 0.56836 0.56836 0.56836h14.863c0.31477 0 0.56836-0.2536 0.56836-0.56836v-10.936c0-0.31476-0.25359-0.57031-0.56836-0.57031h-14.863zm6.6719 2.584c0.0531 0.0144 0.10056 0.044697 0.14453 0.091797l0.61523 0.63281 0.61523-0.63281c0.0879-0.0911 0.19381-0.1194 0.31836-0.085938 0.12449 0.0304 0.20206 0.10792 0.23242 0.23242l0.21875 0.85547 0.84766-0.24023c0.12454-0.0365 0.23038-0.0079624 0.31836 0.085938 0.0943 0.0881 0.12237 0.19392 0.085938 0.31836l-0.24024 0.84766 0.85547 0.21875c0.12152 0.0304 0.19994 0.10792 0.23633 0.23242 0.0304 0.12751 0.001056 0.23333-0.089843 0.31836l-0.62891 0.61523 0.62891 0.61523c0.0912 0.085 0.12019 0.1908 0.089843 0.31836-0.0364 0.1245-0.11475 0.20206-0.23633 0.23242l-0.85547 0.21875 0.24024 0.8457c0.0363 0.12443 0.007962 0.23221-0.085938 0.32031-0.0879 0.0941-0.19382 0.12237-0.31836 0.085938l-0.84766-0.24219-0.21875 0.85742c-0.0304 0.12142-0.10794 0.19989-0.23242 0.23633-0.0365 6e-3 -0.064638 0.009766-0.085938 0.009766-0.0941 0-0.17171-0.034803-0.23242-0.10156l-0.61523-0.62695-0.61523 0.62695c-0.085 0.0911-0.19085 0.12215-0.31836 0.091797-0.12449-0.0334-0.20206-0.11184-0.23242-0.23633l-0.21875-0.85742-0.84766 0.24219c-0.12449 0.0363-0.23033 0.007962-0.31836-0.085938-0.0941-0.0882-0.12244-0.19582-0.085938-0.32031l0.24023-0.8457-0.85547-0.21875c-0.12141-0.0304-0.19995-0.10793-0.23633-0.23242-0.0304-0.12752-0.0010563-0.23334 0.089844-0.31836l0.62891-0.61523-0.62891-0.61523c-0.0911-0.085-0.1202-0.19085-0.089844-0.31836 0.0363-0.12449 0.11492-0.20206 0.23633-0.23242l0.85547-0.21875-0.24023-0.84766c-0.0365-0.12449-0.0079624-0.23032 0.085938-0.31836 0.088-0.0941 0.19387-0.12243 0.31836-0.085938l0.84766 0.24023 0.21875-0.85547c0.0304-0.12449 0.10793-0.20206 0.23242-0.23242 0.0622-0.0182 0.12071-0.020159 0.17383-0.0058594z" color="#f2f2f2" fill="currentColor"/>
</svg>
