<svg width="22" height="22" viewBox="3.016 3 15.97 16" xmlns="http://www.w3.org/2000/svg">
<defs>
<style id="current-color-scheme" type="text/css">.ColorScheme-Text {
        color:#f2f2f2
      }</style>
</defs>
<path class="ColorScheme-Text" d="m14.984 3s-1 6e-3 -1 1.0156v0.98437h-3v1 11h1 2v0.99414s-5.7e-4 1.0059 1.0098 1.0059h3.0039s0.98633 6e-3 0.98633-0.98242v-3.0176s0.0123-1-0.98633-1h-3.0039c-9e-3 0-1.0098 0.0109-1.0098 1.0332v0.9668h-2v-10h2v1.0137s0.0106 0.98633 1.0098 0.98633h2.9707s1.0195 0.0363 1.0195-0.96484v-3.0391c0 4e-3 -0.011-0.99609-1.0195-0.99609h-2.9805zm-7.0547 0.043-4.9141 5.9785 3.3164 1.7949-0.85938 4.1836 4.916-5.9785-3.3164-1.7949 0.85742-4.1836z" fill="currentColor"/>
</svg>
