<svg width="22" height="22" version="1.1" viewBox="0 0 22 22" xmlns="http://www.w3.org/2000/svg">
<defs>
<style id="current-color-scheme" type="text/css">.ColorScheme-Text {
        color:#dedede
      }</style>
</defs>
<path d="m11 3c-4.432 0-8 3.568-8 8 0 4.432 3.568 8 8 8s8-3.568 8-8c0-4.432-3.568-8-8-8zm-3.125 3a1.875 1.875 0 0 1 1.875 1.875 1.875 1.875 0 0 1-1.875 1.875 1.875 1.875 0 0 1-1.875-1.875 1.875 1.875 0 0 1 1.875-1.875zm7.2441 0 0.88086 0.88086-9.1191 9.1191-0.88086-0.88086 9.1191-9.1191zm-0.99414 6.25a1.875 1.875 0 0 1 1.875 1.875 1.875 1.875 0 0 1-1.875 1.875 1.875 1.875 0 0 1-1.875-1.875 1.875 1.875 0 0 1 1.875-1.875z" color="#dedede" fill="currentColor"/>
</svg>
