<svg viewBox="0 0 22 22" xmlns="http://www.w3.org/2000/svg">
<defs>
<style id="current-color-scheme" type="text/css">.ColorScheme-NegativeText {
        color:#da4453;
      }</style>
</defs>
<path class="ColorScheme-NegativeText" d="m11 4.498c-1.9568 0-3.8145 0.52211-5.5742 1.5684-1.7597 1.0461-3.1615 2.4309-4.2031 4.1543-0.14877 0.2634-0.22266 0.52338-0.22266 0.7793s0.073889 0.51604 0.22266 0.7793c1.0416 1.7235 2.4434 3.1085 4.2031 4.1543 1.7597 1.0463 3.6174 1.5684 5.5742 1.5684s3.8146-0.52027 5.5742-1.5625 3.1615-2.4292 4.2031-4.1602c0.14877-0.26326 0.22266-0.52324 0.22266-0.7793 0-0.25592-0.073889-0.5159-0.22266-0.7793-1.0418-1.7234-2.4435-3.1082-4.2031-4.1543-1.7597-1.0461-3.6174-1.5684-5.5742-1.5684zm-4.3184 2.5176c-0.45384 0.78258-0.68164 1.6285-0.68164 2.5391 0 1.3924 0.48844 2.5845 1.4668 3.5742 0.97836 0.98972 2.1568 1.4844 3.5332 1.4844 1.3766 0 2.5547-0.49479 3.5332-1.4844 0.97863-0.98958 1.4668-2.1818 1.4668-3.5742 0-0.9106-0.22767-1.7566-0.68164-2.5391 1.7038 0.8804 3.121 2.2083 4.252 3.9844-0.98932 1.5428-2.2288 2.7711-3.7207 3.6855-1.4918 0.91421-3.1085 1.3711-4.8496 1.3711s-3.3578-0.45675-4.8496-1.3711-2.7331-2.1427-3.7227-3.6855c1.131-1.7762 2.5501-3.104 4.2539-3.9844z" fill="currentColor"/>
</svg>
