<svg viewBox="0 0 22 22" xmlns="http://www.w3.org/2000/svg">
<defs>
<style id="current-color-scheme" type="text/css">.ColorScheme-Text {
        color:#dedede
      }</style>
</defs>
<path class="ColorScheme-Text" d="m11 3c-1.0208 0-2.0079 0.19264-2.9629 0.57813-0.95484 0.38548-1.8038 0.92943-2.5469 1.6308l-1.3555-1.3438c-0.20841-0.21531-0.44783-0.26449-0.71875-0.14648-0.27784 0.11814-0.41602 0.32359-0.41602 0.61523v4.666c0 0.18053 0.0653 0.3368 0.19727 0.46875 0.13207 0.13195 0.28821 0.19727 0.46875 0.19727h4.668c0.29177 0 0.49527-0.13819 0.61329-0.41602 0.11801-0.2708 0.0708-0.51034-0.14454-0.71875l-1.4277-1.4375c0.48624-0.45837 1.041-0.81 1.666-1.0566 0.62509-0.24651 1.2784-0.37109 1.959-0.37109 0.72226 0 1.4121 0.14071 2.0684 0.42187 0.65629 0.28129 1.2239 0.66142 1.7031 1.1406 0.47921 0.47908 0.85934 1.0468 1.1406 1.7031 0.28116 0.65629 0.42187 1.346 0.42187 2.0684s-0.14071 1.4121-0.42187 2.0684c-0.28129 0.65629-0.66142 1.2239-1.1406 1.7031-0.4792 0.47921-1.047 0.85947-1.7031 1.1406-0.65629 0.28128-1.3462 0.42187-2.0684 0.42187-0.82647 0-1.6076-0.1819-2.3438-0.54296-0.73607-0.36107-1.3583-0.87139-1.8652-1.5312-0.0486-0.0694-0.12718-0.11107-0.23829-0.125-0.1042 0-0.19229 0.0312-0.26171 0.0937l-1.4258 1.4375c-0.0555 0.0557-0.0864 0.12803-0.0898 0.21484-3e-3 0.0869 0.0198 0.16495 0.0684 0.23437 0.75704 0.91674 1.6736 1.6255 2.75 2.1289s2.2118 0.75586 3.4062 0.75586c1.0833 0 2.1174-0.21118 3.1035-0.63477 0.98615-0.42358 1.8372-0.99388 2.5527-1.709 0.71523-0.71549 1.2853-1.5666 1.709-2.5527 0.42351-0.98611 0.63469-2.0203 0.63469-3.1035 0-1.0835-0.21118-2.1174-0.63477-3.1035-0.42346-0.98616-0.99375-1.8375-1.709-2.5527-0.71536-0.71523-1.5664-1.2853-2.5527-1.709-0.98616-0.42372-2.0202-0.63477-3.1035-0.63477z" fill="currentColor"/>
</svg>
