<svg viewBox="0 0 22 22" xmlns="http://www.w3.org/2000/svg">
<defs>
<style id="current-color-scheme" type="text/css">.ColorScheme-Text {
        color:#dedede
      }</style>
</defs>
<path class="ColorScheme-Text" d="m9.8437 3c-0.20137 0-0.32641 0.0965-0.375 0.29102-0.0903 0.34712-0.19163 0.99303-0.30273 1.9375-0.32642 0.10433-0.64169 0.23679-0.94727 0.39648l-1.4375-1.1152c-0.0903-0.0694-0.18122-0.10352-0.27148-0.10352-0.15279 0-0.48088 0.24755-0.98438 0.74414s-0.84473 0.87114-1.0254 1.1211c-0.0625 0.0903-0.0937 0.16886-0.0937 0.23829 0 0.0834 0.0341 0.16676 0.10352 0.25 0.46526 0.56256 0.8374 1.0415 1.1152 1.4375-0.17363 0.31938-0.30908 0.6396-0.40625 0.95898l-1.9375 0.29102c-0.0763 0.0139-0.14165 0.0603-0.19727 0.13671-0.0556 0.0763-0.084 0.15505-0.084 0.23829v2.3125c0 0.0904 0.0284 0.17321 0.084 0.24609 0.0556 0.073 0.12849 0.1151 0.21875 0.12891l1.9062 0.28125c0.0972 0.34022 0.23822 0.68412 0.42579 1.0312-0.12492 0.17362-0.31255 0.41831-0.5625 0.73437-0.24996 0.31606-0.42718 0.54748-0.53125 0.69336-0.0556 0.0766-0.082 0.15687-0.082 0.24023 0 0.0903 0.0237 0.16886 0.0723 0.23829 0.2708 0.37512 0.84371 0.95844 1.7188 1.75 0.0765 0.0765 0.1626 0.11523 0.25977 0.11523 0.1042 0 0.19229-0.0314 0.26171-0.0937l1.4688-1.1152c0.28487 0.14588 0.59728 0.27548 0.9375 0.38671l0.29102 1.916c7e-3 0.0903 0.0463 0.16554 0.11914 0.22461 0.0729 0.0592 0.15869 0.0879 0.25586 0.0879h2.3125c0.20163 0 0.32629-0.0965 0.375-0.29102 0.0901-0.34725 0.19163-0.99302 0.30273-1.9375 0.32642-0.1042 0.64182-0.23679 0.94727-0.39648l1.4375 1.125c0.0972 0.0624 0.18825 0.0937 0.27148 0.0937 0.15266 0 0.4786-0.24709 0.97852-0.74023 0.50017-0.49302 0.84394-0.86801 1.0312-1.125 0.0625-0.0694 0.0937-0.14802 0.0937-0.23829 0-0.0903-0.034-0.17861-0.10352-0.26171-0.49991-0.61116-0.87205-1.0902-1.1152-1.4375 0.13885-0.25699 0.2743-0.57227 0.40625-0.94727l1.9277-0.29102c0.0832-0.0139 0.15155-0.0603 0.20704-0.13671 0.0555-0.0765 0.084-0.15505 0.084-0.23829v-2.3125c1.3e-4 -0.0903-0.0282-0.17308-0.084-0.24609-0.0557-0.073-0.12848-0.1151-0.21875-0.12891l-1.9062-0.29296c-0.1042-0.33332-0.24525-0.67228-0.42578-1.0195 0.12491-0.17362 0.31254-0.41831 0.5625-0.73437s0.42705-0.54748 0.53125-0.69336c0.0556-0.0765 0.082-0.15687 0.082-0.24023 0-0.0972-0.0236-0.1729-0.0723-0.22852-0.24996-0.35429-0.82286-0.94502-1.7188-1.7715-0.0831-0.0694-0.16963-0.10352-0.25977-0.10352-0.1042 0-0.18747 0.0314-0.25 0.0937l-1.4805 1.1152c-0.28487-0.14588-0.59728-0.27561-0.9375-0.38671l-0.29102-1.916c-7e-3 -0.0903-0.0463-0.16554-0.11914-0.22461-0.073-0.0591-0.15843-0.0879-0.25586-0.0879h-2.3125zm-0.83594 5.25 4.584 2.75-4.584 2.75v-5.5z" fill="currentColor"/>
</svg>
