<svg viewBox="0 0 22 22" xmlns="http://www.w3.org/2000/svg">
<defs>
<style id="current-color-scheme" type="text/css">.ColorScheme-Text {
        color:#dedede
      }</style>
</defs>
<path class="ColorScheme-Text" d="m1.4941 4.4453c-0.27408 0-0.49414 0.22006-0.49414 0.49414v0.64063c0 0.27408 0.22006 0.49414 0.49414 0.49414h19.012c0.27408 0 0.49414-0.22006 0.49414-0.49414v-0.64063c0-0.27408-0.22006-0.49414-0.49414-0.49414h-19.012zm14.648 3.6816c-0.15925 5.8e-4 -0.31832 0.0616-0.43946 0.18359l-3.8086 3.8359c-0.24225 0.24401-0.2401 0.63871 4e-3 0.88086 0.24391 0.24215 0.63665 0.24001 0.87891-4e-3l3.3691-3.3945 3.3945 3.3711c0.24389 0.24215 0.6387 0.24 0.88085-4e-3 0.24237-0.24389 0.24023-0.63861-4e-3 -0.88086l-3.836-3.8086c-0.12195-0.12106-0.28013-0.18027-0.43945-0.17969zm-14.635 0.0215c-0.28139 0-0.50781 0.22641-0.50781 0.50781v0.61328c0 0.28139 0.22642 0.50781 0.50781 0.50781h8.6133c0.2814 0 0.50782-0.22642 0.50782-0.50781v-0.61328c0-0.2814-0.22642-0.50781-0.50782-0.50781h-8.6133zm0 3.7402c-0.28139 0-0.50781 0.22642-0.50781 0.50781v0.61328c0 0.2814 0.22642 0.50782 0.50781 0.50782h8.6133c0.2814 0 0.50782-0.22642 0.50782-0.50782v-0.61328c0-0.28139-0.22642-0.50781-0.50782-0.50781h-8.6133zm0 4.0371c-0.28139 0-0.50781 0.22642-0.50781 0.50781v0.61328c0 0.2814 0.22642 0.50782 0.50781 0.50782h8.6133c0.2814 0 0.50782-0.22642 0.50782-0.50782v-0.61328c0-0.28139-0.22642-0.50781-0.50782-0.50781h-8.6133z" fill="currentColor"/>
</svg>
