<svg viewBox="0 0 22 22" xmlns="http://www.w3.org/2000/svg">
<defs>
<style id="current-color-scheme" type="text/css">.ColorScheme-Text {
        color:#f2f2f2;
      }</style>
</defs>
<path class="ColorScheme-Text" d="m15.488 3.002c-0.033587 0.0049814-0.072328 0.020899-0.11523 0.046875-0.086099 0.052384-0.16312 0.12901-0.23242 0.23242l-1.3633 2.0352h-5.1406c-0.058178 0-0.10787 0.020243-0.15039 0.0625-0.042521 0.042339-0.064453 0.092574-0.064453 0.15039v1.2812c0 0.057816 0.021932 0.10805 0.064453 0.15039 0.042522 0.042175 0.092212 0.0625 0.15039 0.0625h3.9961l-1.998 2.9824h-1.998c-0.058178 0-0.10787 0.020162-0.15039 0.0625-0.042521 0.042257-0.064453 0.092575-0.064453 0.15039v1.2812c0 0.057734 0.021932 0.10813 0.064453 0.15039 0.042522 0.042338 0.092212 0.0625 0.15039 0.0625h0.85352l-2.127 3.1738c-0.04975-0.07598-0.10735-0.14879-0.17578-0.2168-0.2506-0.24904-0.55593-0.37305-0.91406-0.37305s-0.66347 0.12393-0.91406 0.37305c-0.2506 0.24912-0.375 0.55238-0.375 0.9082 0 0.35599 0.12432 0.65909 0.375 0.9082 0.19838 0.19708 0.4414 0.29285 0.70703 0.33398l-0.63672 0.95117c-0.069209 0.10326-0.11176 0.20384-0.12695 0.30274-0.015193 0.098895 4.766e-4 0.16526 0.048828 0.19726l1.0742 0.71094c0.04849 0.032095 0.11513 0.020752 0.20117-0.03125 0.085904-0.052092 0.16321-0.12916 0.23242-0.23242l1.6074-2.3965c0.009101 0.014616 0.0063349 0.033735 0.019531 0.046875 0.042522 0.042174 0.092212 0.0625 0.15039 0.0625h8.1641c0.058262 0 0.10779-0.020326 0.15039-0.0625 0.042521-0.042339 0.064453-0.092492 0.064453-0.15039v-1.2812c0-0.057734-0.022015-0.10822-0.064453-0.15039-0.042687-0.042174-0.092129-0.0625-0.15039-0.0625h-7.2637l2.0176-3.0117h5.2461c0.058262 0 0.10779-0.020162 0.15039-0.0625 0.042521-0.042257 0.064453-0.092657 0.064453-0.15039v-1.2812c0-0.057816-0.022015-0.10822-0.064453-0.15039-0.042687-0.042256-0.092129-0.0625-0.15039-0.0625h-4.1016l1.998-2.9824h2.1035c0.058262 0 0.10779-0.020243 0.15039-0.0625 0.042521-0.042338 0.064453-0.092574 0.064453-0.15039v-1.2812c0-0.057816-0.022015-0.10813-0.064453-0.15039-0.042687-0.042175-0.092129-0.0625-0.15039-0.0625h-0.95898l0.72852-1.0879c0.069306-0.10341 0.1116-0.20374 0.12695-0.30273 0.015121-0.098938-3.43e-4 -0.16517-0.048828-0.19727l-1.0742-0.71094c-0.024177-0.016002-0.052351-0.020606-0.085938-0.015625zm-9.2148 1.8867c-0.35814 0-0.66338 0.12596-0.91406 0.375-0.2506 0.24912-0.375 0.55043-0.375 0.90625 0 0.35591 0.12432 0.65909 0.375 0.9082 0.25068 0.24904 0.55601 0.37305 0.91406 0.37305s0.66338-0.12401 0.91406-0.37305c0.2506-0.24912 0.375-0.5523 0.375-0.9082 0-0.35582-0.1244-0.65713-0.375-0.90625-0.2506-0.24904-0.55593-0.375-0.91406-0.375zm0 4.6895c-0.35814 0-0.66338 0.12588-0.91406 0.375-0.2506 0.24904-0.375 0.55034-0.375 0.90625 0 0.35582 0.12627 0.65917 0.37695 0.9082 0.25068 0.24904 0.55405 0.37305 0.91211 0.37305s0.66338-0.12401 0.91406-0.37305c0.2506-0.24904 0.375-0.55238 0.375-0.9082 0-0.35591-0.12627-0.65721-0.37695-0.90625-0.2506-0.24904-0.55397-0.375-0.91211-0.375z" fill="currentColor"/>
</svg>
