<svg width="22" height="22" version="1.1" viewBox="3 4.058 16 13.88" xmlns="http://www.w3.org/2000/svg">
<defs>
<style id="current-color-scheme" type="text/css">.ColorScheme-Text {
        color:#f2f2f2;
      }</style>
</defs>
<path d="m11 14.458a2.4 2.4 0 0 1-2.4-2.4c0-0.896 0.488-1.68 1.2-2.088l7.768-4.496-4.424 7.664c-0.4 0.784-1.208 1.32-2.144 1.32m0-10.4c1.448 0 2.8 0.4 3.976 1.056l-1.68 0.968c-0.696-0.272-1.496-0.424-2.296-0.424a6.4 6.4 0 0 0-6.4 6.4c0 1.768 0.712 3.368 1.872 4.52h8e-3c0.312 0.312 0.312 0.816 0 1.128s-0.824 0.312-1.136 8e-3c-1.448-1.448-2.344-3.448-2.344-5.656a8 8 0 0 1 8-8m8 8c0 2.208-0.896 4.208-2.344 5.656-0.312 0.304-0.816 0.304-1.128-8e-3s-0.312-0.816 0-1.128c1.16-1.16 1.872-2.752 1.872-4.52 0-0.8-0.152-1.6-0.432-2.32l0.968-1.68c0.664 1.2 1.064 2.544 1.064 4z" fill="#f2f2f2"/>
</svg>
