<svg version="1.1" viewBox="0 0 22 22" xmlns="http://www.w3.org/2000/svg">
<defs>
<style id="current-color-scheme" type="text/css">.ColorScheme-Text {
        color:#dedede
      }</style>
</defs>
<path class="ColorScheme-Text" d="m11.016 18c1.3817 0 2.5089-1.1294 2.5089-2.5111 0-1.3817-1.1272-2.5111-2.5089-2.5111-1.3817 0-2.5111 1.1294-2.5111 2.5111 0 1.3817 1.1294 2.5111 2.5111 2.5111zm6.4553-3.5624c0.39167 0.0014 0.78316-0.14692 1.0803-0.44196 0.29724-0.29501 0.44724-0.68418 0.44866-1.0759 0.0011-0.39173-0.14464-0.78534-0.43972-1.0826l-6.453-6.4999c-0.29504-0.29704-0.68836-0.44948-1.0781-0.45088-0.39005-0.0011429-0.78322 0.14925-1.0803 0.44419l-6.4999 6.453c-0.59466 0.59009-0.59935 1.5642-0.0091 2.1584 0.59009 0.59423 1.5664 0.59898 2.1607 0.0089l5.4151-5.3771 5.3771 5.4151c0.29509 0.29712 0.68644 0.44724 1.0781 0.44865z" color="#bebebe" fill="#dedede"/>
</svg>
