<svg viewBox="0 0 22 22" xmlns="http://www.w3.org/2000/svg">
<defs>
<style id="current-color-scheme" type="text/css">.ColorScheme-Text {
        color:#dedede
      }</style>
</defs>
<path class="ColorScheme-Text" d="m13.61 10.259h-4.4944v-1.1193c0-0.99985 0.81342-1.8133 1.8133-1.8133 0.81639 0 1.536 0.54935 1.7499 1.3359 0.0701 0.25773 0.33586 0.40982 0.59364 0.33978 0.25777-0.0701 0.40988-0.33588 0.33977-0.59366-0.32817-1.2067-1.4316-2.0494-2.6833-2.0494-1.5332 0-2.7806 1.2474-2.7806 2.7806v1.1297c-0.21913 0.046-0.38423 0.24067-0.38423 0.47329v4.2333c0 0.26669 0.21698 0.48367 0.48367 0.48367h5.3623c0.26669 0 0.48367-0.21698 0.48367-0.48367v-4.2333c0-0.26672-0.21698-0.48367-0.48367-0.48367zm5.3897 0.74107c0 4.4183-3.5817 8-8 8s-8-3.5817-8-8 3.5817-8 8-8 8 3.5817 8 8z" fill="currentColor"/>
</svg>
