<svg viewBox="0 0 22 22" xmlns="http://www.w3.org/2000/svg">
<defs>
<style id="current-color-scheme" type="text/css">.ColorScheme-Text {
        color:#dedede
      }</style>
</defs>
<path class="ColorScheme-Text" d="m10.346 11.004 2.4745-2.4746c0.12568-0.12561 0.18842-0.27922 0.18842-0.46084 0-0.18161-0.0627-0.33516-0.18842-0.46077l-0.38185-0.38191c-0.12555-0.12556-0.27916-0.18836-0.46071-0.18836-0.18161 0-0.33517 0.0628-0.46084 0.18836l-3.3198 3.3147c-0.12562 0.12561-0.18843 0.27922-0.18843 0.46084 0 0.18161 0.0628 0.33516 0.18843 0.46077l3.3198 3.3147c0.12567 0.12562 0.27923 0.18843 0.46084 0.18843 0.18155 0 0.33516-0.0628 0.46071-0.18843l0.38185-0.38184c0.12568-0.12556 0.18842-0.27836 0.18842-0.45828 0-0.17986-0.0627-0.33435-0.18842-0.46334l-2.4745-2.4694zm8.6542-4e-3a8 8 0 0 1-8 8 8 8 0 0 1-8-8 8 8 0 0 1 8-8 8 8 0 0 1 8 8z" fill="currentColor"/>
</svg>
