<svg width="22" height="22" viewBox="3 3 16 16" xmlns="http://www.w3.org/2000/svg">
<defs>
<style id="current-color-scheme" type="text/css">.ColorScheme-Text {
        color:#f2f2f2
      }</style>
</defs>
<path class="ColorScheme-Text" d="m10.013 8.9998c0-0.85486 0.23057-1.6546 0.62995-2.3451 0.0968-0.16701-0.0492-0.37339-0.23623-0.32553-2.1564 0.55378-3.7161 2.5918-3.5159 4.964 0.1894 2.239 1.999 4.0666 4.2365 4.2761 1.5525 0.14539 2.9637-0.46604 3.9169-1.5049 0.12867-0.1405 0.0188-0.3685-0.17138-0.36053-0.0505 2e-3 -0.10161 3e-3 -0.15287 3e-3 -2.5996 0-4.7069-2.1073-4.7069-4.7074zm8.9873 2.0002a8 8 0 0 1-8 8 8 8 0 0 1-8-8 8 8 0 0 1 8-8 8 8 0 0 1 8 8z" fill="currentColor"/>
</svg>
