<svg width="22" height="22" viewBox="3 3 16 16" xmlns="http://www.w3.org/2000/svg">
<defs>
<style id="current-color-scheme" type="text/css">.ColorScheme-Text {
        color:#f2f2f2
      }</style>
</defs>
<path class="ColorScheme-Text" d="m19 11a8 8 0 0 1-8 8 8 8 0 0 1-8-8 8 8 0 0 1 8-8 8 8 0 0 1 8 8zm-3.6721-1.7563c-0.33787-0.67558-0.81304-1.2422-1.4257-1.6995-0.17623-0.13429-0.37557-0.18675-0.59801-0.15739-0.22244 0.02937-0.39868 0.13429-0.52879 0.3147-0.13429 0.17622-0.18566 0.37449-0.15422 0.59484 0.03131 0.22044 0.13537 0.39767 0.3116 0.53195 0.41112 0.31053 0.72921 0.69035 0.95358 1.1394 0.22453 0.44898 0.33672 0.92746 0.33672 1.4352 0 0.43653-0.08499 0.85298-0.2549 1.2496-0.16998 0.39658-0.39976 0.73963-0.68934 1.0292-0.28958 0.2895-0.63255 0.51927-1.0291 0.68926-0.39659 0.16998-0.81311 0.25504-1.2496 0.25504-0.43638 0-0.8529-0.08506-1.2495-0.25504-0.39659-0.16998-0.73963-0.39976-1.0292-0.68926-0.2895-0.28958-0.51928-0.63264-0.68926-1.0292-0.16998-0.39659-0.25497-0.81305-0.25497-1.2496 0-0.5077 0.11226-0.98611 0.33679-1.4352 0.22453-0.44897 0.54238-0.82879 0.95366-1.1394 0.17623-0.13435 0.28007-0.31158 0.3116-0.53195 0.031429-0.22028-0.019943-0.41862-0.15422-0.59484-0.13011-0.18042-0.30526-0.28534-0.52562-0.3147-0.22035-0.029371-0.42077 0.023086-0.60118 0.15739-0.61277 0.45739-1.0879 1.024-1.4258 1.6995-0.33787 0.67567-0.50677 1.3954-0.50677 2.1591 0 0.65472 0.12803 1.2799 0.38399 1.8759 0.25605 0.59594 0.60011 1.11 1.0324 1.5423 0.43221 0.43221 0.94632 0.77641 1.5422 1.0322 0.59594 0.25605 1.2212 0.38415 1.8759 0.38415 0.65464 0 1.2799-0.1281 1.8759-0.38415 0.59593-0.2559 1.11-0.60003 1.5422-1.0322 0.43221-0.43221 0.77626-0.94632 1.0323-1.5423 0.25598-0.59593 0.38392-1.2212 0.38392-1.8759 0-0.76374-0.16867-1.4834-0.50654-2.1591zm-4.3279 2.1592c0.21819 0 0.40718-0.07966 0.56649-0.23921 0.15946-0.15939 0.23936-0.3483 0.23936-0.56649v-4.0288c0-0.21827-0.07981-0.4071-0.23936-0.56649-0.15932-0.15955-0.34822-0.23928-0.56649-0.23928-0.21826 0-0.4071 0.07981-0.56656 0.23928-0.15947 0.15939-0.2392 0.3483-0.2392 0.56649v4.0288c0 0.21818 0.07973 0.4071 0.2392 0.56649 0.15947 0.15955 0.34838 0.23921 0.56656 0.23921z" fill="currentColor"/>
</svg>
