<svg width="22" height="22" viewBox="3 3 16 16" xmlns="http://www.w3.org/2000/svg">
<defs>
<style id="current-color-scheme" type="text/css">.ColorScheme-Text {
        color:#f2f2f2
      }</style>
</defs>
<path class="ColorScheme-Text" d="m4 3c-0.55399 0-1 0.446-1 1v14c0 0.554 0.44601 1 1 1h14c0.55401 0 1-0.446 1-1v-14c0-0.554-0.44599-1-1-1h-14zm6.9766 2.1816c1.4581 0 2.7129 0.99021 2.7129 2.877 0 1.227-0.57414 2.4716-1.3262 3.2461h0.003907c-0.2885 0.87699 0.17305 1.0855 0.24609 1.1094 1.7479 0.60049 3.9595 2.0985 3.9102 4.4043h-11.049c-0.044246-2.4138 2.7532-4.0719 3.7812-4.4043 0.11025-0.039967 0.63673-0.32599 0.3418-1.0996-0.75662-0.7727-1.3281-2.0238-1.3281-3.2559 1e-7 -1.8872 1.248-2.877 2.707-2.877z" fill="currentColor"/>
</svg>
