<svg viewBox="0 0 22 22" xmlns="http://www.w3.org/2000/svg">
<defs>
<style id="current-color-scheme" type="text/css">.ColorScheme-Text {
        color:#dedede
      }</style>
</defs>
<path class="ColorScheme-Text" d="m11.999 3.0906c-0.73726 0-1.7667 0.41746-2.288 0.92879l-6.23 6.1109c-0.52127 0.5113-0.52127 1.3482 0 1.8595l4.8077 4.7139c0.52127 0.51133 1.3745 0.51133 1.8958 0l1.3668-1.3407c5e-3 0.29167 0.0437 0.58279 0.12282 0.87438 0.1677 0.6183 0.4897 1.1593 0.96273 1.6205 0.47307 0.46128 1.0248 0.77174 1.6561 0.93267 0.63121 0.16077 1.2615 0.15871 1.8918-6e-3 0.63031-0.16454 1.1818-0.47836 1.6521-0.94239 0.47026-0.46402 0.7869-1.0052 0.95084-1.6244 0.16399-0.61914 0.16176-1.2394-6e-3 -1.8576-0.16779-0.61821-0.48773-1.1573-0.96076-1.6186-0.47307-0.46127-1.0269-0.77178-1.658-0.93267-0.29045-0.074-0.57962-0.1113-0.86963-0.11659l1.1192-1.0978c0.52127-0.51133 0.94688-1.5211 0.94688-2.2442v-3.9444c-2e-5 -0.72312-0.6019-1.3155-1.3391-1.3155h-4.0213zm2.2404 1.7488c0.73882 0 1.3371 0.58882 1.3371 1.3135s-0.59831 1.3116-1.3371 1.3116c-0.73881 0-1.3391-0.58685-1.3391-1.3116 0-0.72469 0.6003-1.3135 1.3391-1.3135zm1.2876 8.3532c0.0858-2.7e-4 0.15875 0.0298 0.21988 0.0894 0.0589 0.0574 0.0889 0.12771 0.0891 0.21179l4e-3 1.2028 1.2242-4e-3c0.0857-2.9e-4 0.15906 0.0281 0.2179 0.0855 0.0611 0.0596 0.0909 0.1316 0.0911 0.21568l2e-3 0.59847c2.6e-4 0.0841-0.0303 0.15571-0.0911 0.21568-0.0585 0.0577-0.13024 0.0873-0.21592 0.0874l-1.2262 4e-3 4e-3 1.2008c2.6e-4 0.0841-0.0287 0.15603-0.0872 0.21374-0.0608 0.06-0.13413 0.0891-0.21989 0.0894l-0.60814 2e-3c-0.0857 2.9e-4 -0.16077-0.0298-0.22187-0.0894-0.0588-0.0574-0.0869-0.12772-0.0872-0.21179l-4e-3 -1.2028-1.2262 4e-3c-0.0857 2.9e-4 -0.15708-0.0281-0.21592-0.0855-0.0611-0.0596-0.0928-0.13156-0.0931-0.21568l-2e-3 -0.59652c-2.6e-4 -0.0841 0.0304-0.15765 0.0911-0.21762 0.0585-0.0577 0.13017-0.0852 0.21593-0.0855l1.2262-4e-3 -4e-3 -1.2028c-3.4e-4 -0.084 0.0287-0.15408 0.0872-0.2118 0.0608-0.06 0.13413-0.0911 0.21988-0.0913l0.61013-2e-3z" fill="currentColor"/>
</svg>
