<svg width="22" height="22" viewBox="3 3 16 16" xmlns="http://www.w3.org/2000/svg">
<defs>
<style id="current-color-scheme" type="text/css">.ColorScheme-Text {
        color:#f2f2f2
      }</style>
</defs>
<path class="ColorScheme-Text" d="m4 3c-0.55402 0-1 0.44599-1 1v14c0 0.55402 0.44598 1 1 1h14c0.55401 0 1-0.44598 1-1v-14c0-0.55401-0.44599-1-1-1h-14zm8.4707 2.957c0.15111 0 0.27901 0.0524 0.38477 0.15821l0.77148 0.77148c0.10575 0.10582 0.15827 0.23365 0.1582 0.38477 0 0.15118-0.0525 0.27894-0.1582 0.38476l-4.1035 4.1055-0.77148 0.76953c-0.10582 0.10575-0.23365 0.15821-0.38477 0.15821-0.15118 0-0.27901-0.0524-0.38476-0.15821l-0.77149-0.76953-2.0527-2.0527c-0.10582-0.10575-0.1582-0.23366-0.1582-0.38477 0-0.15118 0.0524-0.2809 0.1582-0.38672l0.77148-0.76953c0.10582-0.10582 0.23359-0.16015 0.38477-0.16015 0.15111 0 0.2809 0.0543 0.38672 0.16015l1.666 1.6719 3.7188-3.7246c0.10575-0.10582 0.23359-0.15821 0.38477-0.15821zm1.2832 4.6758h1.082v2.1641h2.1641v1.082h-2.1641v2.1641h-1.082v-2.1641h-2.1641v-1.082h2.1641v-2.1641z" fill="currentColor"/>
</svg>
