<svg width="22" height="22" viewBox="5.575 3 10.85 16" xmlns="http://www.w3.org/2000/svg">
<defs>
<style id="current-color-scheme" type="text/css">.ColorScheme-Text {
        color:#f2f2f2
      }</style>
</defs>
<path class="ColorScheme-Text" d="m13.42 3.0159c-0.0711 0.0246-0.13261 0.0759-0.16797 0.14843l-0.2871 0.5918c-0.0706 0.14504-0.01 0.31869 0.13671 0.38867 0.14644 0.0699 0.32194 0.0103 0.39258-0.13476l0.28906-0.5918c0.0706-0.14504 0.01-0.31868-0.13671-0.38867-0.0732-0.035-0.15544-0.0383-0.22657-0.0137zm-4.625 0.63867c-0.0718-0.0226-0.1524-0.0194-0.22461 0.0176-0.14433 0.0741-0.20167 0.25146-0.12695 0.39453l0.30469 0.58203c0.0748 0.14303 0.25211 0.19907 0.39648 0.125 0.1443-0.074 0.20164-0.25157 0.12696-0.39453l-0.30469-0.58203c-0.0374-0.0715-0.10009-0.12001-0.17188-0.14258zm3.9707 1.0566c-0.0348 8e-3 -0.0715 0.0277-0.11133 0.0586l-1.875 1.4492c-0.15946 0.12335-0.44762 0.17357-0.64063 0.11328l-2.2676-0.70703c-0.19298-0.0602-0.2957 0.044-0.22657 0.23242l0.8125 2.2129c0.0691 0.18846 0.0296 0.4774-0.0879 0.64063l-1.3809 1.918c-0.11747 0.16319-0.048 0.29005 0.1543 0.2832l2.377-0.0801c0.20225-7e-3 0.46559 0.11815 0.58594 0.2793l1.4141 1.8945c0.12039 0.16119 0.26436 0.13409 0.32032-0.0586l0.65625-2.2637c0.0558-0.19265 0.25919-0.40128 0.45117-0.46485l2.2539-0.74804c0.19187-0.0636 0.2127-0.20617 0.0449-0.31836l-1.9707-1.3184c-0.16769-0.11224-0.3069-0.36983-0.30859-0.57032l-0.0195-2.3535c-1e-3 -0.15036-0.0772-0.22411-0.18164-0.19922zm3.3086 2.4863-0.65039 0.125c-0.15957 0.0309-0.26366 0.18378-0.23242 0.34179 0.0314 0.15806 0.1861 0.26149 0.3457 0.23047l0.65039-0.125c0.15949-0.031 0.26362-0.18569 0.23242-0.34375-0.0313-0.15805-0.18617-0.2595-0.3457-0.22851zm-9.1894 1.2246-0.64453 0.15429c-0.15791 0.0381-0.25318 0.19703-0.21485 0.35352 0.0385 0.15656 0.19749 0.25087 0.35547 0.21289l0.64258-0.1543c0.15798-0.0381 0.25517-0.19504 0.2168-0.35156-0.0384-0.15648-0.19753-0.25293-0.35547-0.21484zm2.1934 3.0098c-0.0713 0.0246-0.13278 0.0762-0.16797 0.14844l-3.3066 6.7852c-0.0704 0.14445-7e-3 0.32096 0.13867 0.39062l0.45117 0.21485c0.14577 0.0697 0.32223 0.01 0.39258-0.13477l3.3066-6.7871c0.0704-0.14446 7e-3 -0.31898-0.13867-0.38867l-0.45117-0.2168c-0.0729-0.0349-0.15337-0.0363-0.22461-0.0117zm4.4707 0.10547c-0.0707-0.0258-0.15082-0.026-0.22461 8e-3 -0.14757 0.0676-0.21271 0.24051-0.14453 0.38672l0.27734 0.5957c0.0682 0.14621 0.2449 0.21013 0.39258 0.14258 0.14754-0.0676 0.21083-0.24055 0.14258-0.38672l-0.27734-0.59569c-0.0341-0.0731-0.0953-0.12461-0.16602-0.15039z" fill="currentColor"/>
</svg>
