<svg width="22" height="22" viewBox="2.473 3 17.05 16" xmlns="http://www.w3.org/2000/svg">
<defs>
<style id="current-color-scheme" type="text/css">.ColorScheme-Text {
        color:#f2f2f2
      }</style>
</defs>
<path class="ColorScheme-Text" d="m3.2852 3c-0.44877 0-0.8125 0.36408-0.8125 0.8125v14.375c0 0.44882 0.36404 0.8125 0.8125 0.8125h15.43c0.44878 0 0.8125-0.36408 0.8125-0.8125v-14.375c0-0.44882-0.36403-0.8125-0.8125-0.8125h-15.43zm7.7148 1.1562c0.11591-0.0073252 0.2336 0.032353 0.32227 0.12109l1.9277 2.1289c0.1637 0.1643 0.1637 0.42945 0 0.59375-0.16371 0.1643-0.42984 0.1643-0.59375 0l-1.6562-1.8301-1.6562 1.8301c-0.1639 0.1643-0.42985 0.1643-0.59375 0-0.16391-0.1643-0.16391-0.42945 0-0.59375l1.9277-2.1289c0.088673-0.088777 0.20615-0.12841 0.32227-0.12109zm-0.001953 2.6367c0.38172 0 0.69141 0.31118 0.69141 0.69336s-0.30969 0.69141-0.69141 0.69141c-0.38172 0-0.69141-0.30923-0.69141-0.69141s0.30969-0.69336 0.69141-0.69336zm0 1.9785c0.38172 0 0.69141 0.30923 0.69141 0.69141 0 0.38218-0.30969 0.69141-0.69141 0.69141-0.38172 0-0.69141-0.30923-0.69141-0.69141 0-0.38218 0.30969-0.69141 0.69141-0.69141zm-2.5781 0.90234c0.17844-0.016596 0.36708 0.074838 0.52344 0.2793l3.2148 4.2051c0.31272 0.40895 0.86088 0.44444 1.2227 0.078125l0.78516-0.79688c0.36146-0.36641 0.89444-0.32214 1.1895 0.099609l2.0371 2.9121c0.29439 0.42233 0.11619 0.76367-0.39844 0.76367h-5.9941-5.7285c-0.51457 0-0.7437-0.3724-0.51172-0.83203l3.1973-6.3379c0.11583-0.22981 0.28445-0.3545 0.46289-0.37109z" fill="currentColor"/>
</svg>
