<svg viewBox="0 0 22 22" xmlns="http://www.w3.org/2000/svg">
<defs>
<style id="current-color-scheme" type="text/css">.ColorScheme-Text {
        color:#f2f2f2
      }</style>
</defs>
<path class="ColorScheme-Text" d="m8.2761 3c-1.9295 0-3.5804 1.3602-3.5804 3.9551 0 1.6941 0.75579 3.4141 1.7564 4.4766 0.39004 1.0637-0.30691 1.4587-0.45272 1.5137-1.3595 0.45711-5.0572 2.7358-4.9987 6.0547h19.998c0.049-2.3779-2.1455-3.9218-3.8791-4.541-0.0724-0.0246-0.53035-0.24013-0.24421-1.1445h-4e-3c0.7459-0.79874 1.3168-2.0842 1.3168-3.3496 0-1.9457-1.2456-2.9648-2.6919-2.9648-1.4472 0-2.6844 1.0187-2.6844 2.9648 0 1.2706 0.56637 2.5625 1.3168 3.3594 0.29253 0.7978-0.23065 1.0936-0.34 1.1348-0.11322 0.0381-0.25366 0.099-0.40388 0.16993-0.917-0.76626-1.98-1.3387-2.9455-1.6836-0.0966-0.0328-0.70651-0.31953-0.32498-1.5254h-6e-3c0.99457-1.065 1.7546-2.7776 1.7546-4.4648 0-2.5943-1.6596-3.9551-3.5879-3.9551z" fill="currentColor"/>
</svg>
