<svg viewBox="0 0 22 22" xmlns="http://www.w3.org/2000/svg">
<defs>
<style id="current-color-scheme" type="text/css">.ColorScheme-Text {
        color:#f2f2f2
      }</style>
</defs>
<g transform="translate(-544.57 -742.93)">
<path class="ColorScheme-Text" d="m563.49 752.55c-0.0558-0.073-0.1285-0.11648-0.21876-0.13028l-1.9062-0.29164c-0.10421-0.33332-0.24664-0.67355-0.42717-1.0208 0.12491-0.17363 0.31235-0.41835 0.56231-0.73441s0.42704-0.54684 0.53124-0.69272c0.0556-0.0765 0.0832-0.15624 0.0832-0.2396 0-0.0972-0.0242-0.1735-0.0729-0.22912-0.24996-0.35429-0.82288-0.94447-1.7188-1.7709-0.0831-0.0694-0.17005-0.10407-0.26019-0.10407-0.1042 0-0.18756 0.0312-0.25008 0.0936l-1.479 1.1146c-0.28486-0.14588-0.59734-0.27438-0.93756-0.38548l-0.29164-1.9166c-7e-3 -0.0903-0.0469-0.16493-0.1198-0.224-0.073-0.0591-0.15791-0.0885-0.25533-0.0885h-2.3124c-0.20137 0-0.32642 0.0972-0.375 0.29164-0.0903 0.34713-0.19102 0.99293-0.30213 1.9374-0.32641 0.10433-0.64234 0.23628-0.94792 0.39597l-1.4375-1.1146c-0.0903-0.0694-0.18053-0.10407-0.2708-0.10407-0.15279 0-0.48087 0.24816-0.98436 0.74476-0.5035 0.49659-0.84538 0.8698-1.026 1.1198-0.0625 0.0903-0.0937 0.17017-0.0937 0.2396 0 0.0834 0.0346 0.16672 0.10407 0.24996 0.46527 0.56256 0.83682 1.0416 1.1146 1.4376-0.17363 0.31938-0.30903 0.63889-0.4062 0.95828l-1.9375 0.29163c-0.0763 0.0139-0.1423 0.0591-0.19792 0.13553-0.0556 0.0763-0.0834 0.15624-0.0834 0.23948v2.3125c0 0.0904 0.0277 0.17184 0.0834 0.24472 0.0556 0.073 0.1285 0.1166 0.21877 0.13041l1.9063 0.28129c0.0972 0.34022 0.23947 0.6839 0.42703 1.031-0.12491 0.17363-0.31248 0.41835-0.56243 0.73441-0.24996 0.31606-0.42717 0.54684-0.53124 0.69272-0.0556 0.0766-0.0834 0.15624-0.0834 0.2396 0 0.0903 0.0243 0.17005 0.0729 0.23948 0.2708 0.37512 0.84372 0.95853 1.7188 1.7501 0.0765 0.0765 0.16327 0.11455 0.26044 0.11455 0.1042 0 0.19101-0.0312 0.26044-0.0936l1.4688-1.1148c0.28486 0.14588 0.59734 0.27438 0.93756 0.38561l0.29164 1.9166c7e-3 0.0903 0.0469 0.16493 0.1198 0.224 0.0729 0.0592 0.15803 0.0885 0.2552 0.0885h2.3125c0.20163 0 0.32655-0.0972 0.37526-0.29164 0.0901-0.34726 0.19076-0.99293 0.30187-1.9374 0.32641-0.1042 0.64247-0.23627 0.94792-0.39597l1.4376 1.1251c0.0972 0.0624 0.18756 0.0936 0.2708 0.0936 0.15266 0 0.47907-0.24637 0.97899-0.73951 0.50017-0.49302 0.84385-0.86814 1.0312-1.1251 0.0625-0.0694 0.0938-0.14921 0.0938-0.23948 0-0.0903-0.0347-0.17733-0.1042-0.26044-0.49992-0.61115-0.87147-1.0902-1.1146-1.4375 0.13885-0.25699 0.27438-0.57292 0.40633-0.94793l1.927-0.29151c0.0832-0.0139 0.15292-0.0592 0.20841-0.13565 0.0555-0.0765 0.0831-0.15637 0.0831-0.2396v-2.3124c1.3e-4 -0.0903-0.0275-0.17171-0.0832-0.24472zm-6.0311 3.2656c-0.52075 0.52088-1.1493 0.78132-1.8855 0.78132-0.73619 0-1.3646-0.26044-1.8855-0.78132-0.52075-0.52076-0.78119-1.1492-0.78119-1.8854 0-0.73619 0.26031-1.3646 0.78119-1.8855 0.52089-0.52075 1.1494-0.78119 1.8855-0.78119 0.7362 0 1.3647 0.26044 1.8855 0.78119 0.52076 0.52089 0.7812 1.1493 0.7812 1.8855s-0.26044 1.3646-0.7812 1.8854z" fill="currentColor"/>
</g>
</svg>
