<svg viewBox="0 0 22 22" xmlns="http://www.w3.org/2000/svg">
<defs>
<style id="current-color-scheme" type="text/css">.ColorScheme-Text {
        color:#f2f2f2
      }</style>
</defs>
<path class="ColorScheme-Text" d="m1.7093 3c-0.39346 0-0.70928 0.3368-0.70928 0.75391v14.492c0 0.41711 0.31582 0.75391 0.70928 0.75391h18.581c0.39346 0 0.70928-0.3368 0.70928-0.75391v-14.492c0-0.41711-0.31582-0.75391-0.70928-0.75391h-18.581zm11.7 1.3477h5.9912c0.23888 0 0.43109 0.20378 0.43109 0.45703v12.391c0 0.25326-0.19221 0.45703-0.43109 0.45703h-5.9912c-0.23888 0-0.4311-0.20377-0.4311-0.45703v-12.391c0-0.25325 0.19222-0.45703 0.4311-0.45703zm-8.2885 3.3184c0.14125 0 0.26228 0.0534 0.36109 0.1582l1.5567 1.6504 1.5549-1.6504c0.0988-0.10476 0.21991-0.1582 0.36109-0.1582 0.14112 0 0.26043 0.0534 0.35925 0.1582l0.72033 0.76367c0.0988 0.1047 0.14739 0.23119 0.14739 0.38086s-0.0486 0.2761-0.14739 0.38086l-1.5567 1.6504 1.5567 1.6504c0.0988 0.10476 0.14739 0.23119 0.14739 0.38086s-0.0486 0.2761-0.14739 0.38086l-0.72033 0.76367c-0.0988 0.10476-0.21813 0.1582-0.35925 0.1582-0.14118 0-0.26228-0.0535-0.36109-0.1582l-1.5549-1.6484-1.5567 1.6484c-0.0988 0.10476-0.21978 0.1582-0.36109 0.1582-0.14111 0-0.26049-0.0535-0.35925-0.1582l-0.72033-0.76367c-0.0988-0.10469-0.14739-0.23119-0.14739-0.38086s0.0486-0.2761 0.14739-0.38086l1.5567-1.6504-1.5567-1.6504c-0.0988-0.1047-0.14739-0.23119-0.14739-0.38086s0.0487-0.2761 0.14739-0.38086l0.72033-0.76367c0.0988-0.10476 0.21814-0.1582 0.35925-0.1582z" fill="currentColor"/>
</svg>
