<svg version="1.1" viewBox="0 0 22 22" xmlns="http://www.w3.org/2000/svg">
<defs>
<style id="current-color-scheme" type="text/css">.ColorScheme-Text {
        color:#f2f2f2
      }</style>
</defs>
<path d="m12.114 3a2.001 2.001 0 0 0-2.001 2.001 2.001 2.001 0 0 0 2.001 2.001 2.001 2.001 0 0 0 2.001-2.001 2.001 2.001 0 0 0-2.001-2.001zm-5.6225 2.483c-0.26404 7.337e-4 -0.50515 0.0163-0.71128 0.036476-0.35889 0.034502-0.57127 0.41565-0.41426 0.73994l0.69826 1.433c-0.77623 0.67619-1.3615 1.5027-1.6909 2.4257h-0.85198c-0.28634-0.001742-0.52109 0.23212-0.52109 0.51848v1.9098c0 0.19318 0.10802 0.36886 0.27878 0.45856l1.1047 0.5758c0.4623 1.2747 1.4209 2.3701 2.6836 3.1239v1.6909c0 0.33291 0.27153 0.60446 0.60446 0.60446h1.5476c0.23975 0 0.4583-0.1431 0.55496-0.36216l0.38821-0.89106c0.33464 0.04145 0.6729 0.06253 1.0213 0.06253 0.54856 0 1.0822-0.0528 1.5945-0.15112v0.73734c0 0.33291 0.27155 0.60446 0.60446 0.60446h1.5424c0.22251 0 0.42622-0.12121 0.53151-0.31786 0.82111-1.5421 1.7146-3.0908 2.3736-4.7054 0.33288-0.81762 0.45284-1.6855 0.38039-2.5325-0.11732-1.3662-0.73936-2.679-1.7795-3.6346-0.60718-0.55889-1.3106-0.99575-2.0661-1.3131-0.09832 0.14835-0.21104 0.28921-0.33871 0.41687-0.16906 0.16906-0.35838 0.31434-0.56538 0.4299 0.21907 0.072379 0.42866 0.15529 0.63052 0.25012 0.20507 0.096609 0.28587 0.34789 0.17196 0.54454-0.10006 0.17462-0.3192 0.24254-0.50024 0.15633-1.3765-0.65033-2.9132-0.52649-3.5877-0.42469-0.19837 0.029329-0.38853-0.096886-0.43511-0.29181v-0.00261c-0.053508-0.22078 0.096235-0.4397 0.32047-0.47419 0.12247-0.018892 0.26948-0.037435 0.43511-0.052109-0.050071-0.043287-0.099308-0.088893-0.1459-0.13548-0.23805-0.23805-0.42381-0.51543-0.55496-0.82592-0.013755-0.032832-0.028882-0.06878-0.041685-0.10161-0.20527 0.034484-0.4087 0.077592-0.60707 0.12767-0.8668-0.50465-1.8629-0.62975-2.6549-0.62791v-0.00261zm0.67481 3.9837c0.42952 0 0.77642 0.3469 0.77642 0.77642-1.91e-5 0.42952-0.3469 0.77642-0.77642 0.77642s-0.77642-0.34692-0.77642-0.77642c0-0.42952 0.3469-0.77642 0.77642-0.77642zm4.4579 0.69826h0.45856v0.53151c0.28168 0.04426 0.5083 0.1464 0.67742 0.30744 0.17297 0.15694 0.28761 0.32324 0.34392 0.50024l-0.49503 0.21104c-0.02806-0.10057-0.08975-0.1954-0.18238-0.28399-0.08854-0.09246-0.20305-0.15666-0.34392-0.1928v1.3574c0.3501 0.14487 0.62234 0.30878 0.8155 0.48982 0.1972 0.17706 0.29441 0.4135 0.29441 0.71128 0 0.33801-0.1046 0.6079-0.31786 0.80508-0.21328 0.19714-0.47818 0.31913-0.79205 0.36737v0.53151h-0.45856v-0.52109c-0.28572-0.040238-0.55061-0.15477-0.79205-0.34392-0.23742-0.18913-0.39249-0.44028-0.46898-0.75818l0.49503-0.20062c0.04829 0.19314 0.13934 0.35938 0.27618 0.50024 0.14085 0.14085 0.30471 0.22944 0.48982 0.26575v-1.4486c-0.01191 0-0.02393-3e-3 -0.03126-0.01042-0.72032-0.28168-1.0787-0.68578-1.0787-1.2089 0-0.27363 0.10104-0.51506 0.30223-0.72431 0.20121-0.2133 0.46967-0.33527 0.80768-0.36737v-0.51848zm0 1.0552c-0.16901 0.02808-0.30333 0.09229-0.40384 0.1928-0.1007 0.09657-0.15112 0.21725-0.15112 0.36216 0 0.25353 0.18476 0.46661 0.55496 0.63573v-1.1907zm0.45856 1.9619v1.2506c0.16902-0.03624 0.30333-0.1065 0.40384-0.21104 0.1007-0.10864 0.15112-0.24658 0.15112-0.41166 0-0.14085-0.04546-0.2565-0.13809-0.34913-0.09256-0.09665-0.23176-0.19019-0.41687-0.27878z" color="#f2f2f2" fill="currentColor"/>
</svg>
