<svg viewBox="0 0 22 22" xmlns="http://www.w3.org/2000/svg">
<defs>
<style id="current-color-scheme" type="text/css">.ColorScheme-Text {
        color:#f2f2f2
      }</style>
</defs>
<path class="ColorScheme-Text" d="m3.8047 6.043c-0.084 0-0.15807 0.0323-0.22266 0.0937l-0.48437 0.46094c-0.0646 0.0615-0.0977 0.13092-0.0977 0.21094 0 0.08 0.0331 0.15143 0.0977 0.21289l3.8086 3.623-3.8086 3.625c-0.0646 0.0615-0.0977 0.13115-0.0977 0.21094 0 0.08 0.0331 0.15143 0.0977 0.21289l0.48437 0.46094c0.0646 0.0616 0.13868 0.0918 0.22266 0.0918 0.084 0 0.15806-0.0303 0.22265-0.0918l4.5156-4.2969c0.0646-0.0615 0.0976-0.13298 0.0976-0.21289 0-0.0799-0.0331-0.14948-0.0976-0.21093l-4.5156-4.2969c-0.0646-0.0615-0.13867-0.0937-0.22265-0.0937zm5.582 8.7324c-0.0904 0-0.16449 0.0286-0.22266 0.084-0.058 0.0553-0.0879 0.12481-0.0879 0.21094v0.5918c0 0.086 0.0298 0.1557 0.0879 0.21093 0.0582 0.0552 0.13226 0.084 0.22266 0.084h9.3027c0.0904 0 0.16461-0.0288 0.22266-0.084 0.0581-0.0552 0.0879-0.12491 0.0879-0.21093v-0.5918c1.2e-4 -0.0861-0.0297-0.15559-0.0879-0.21093-0.058-0.0553-0.13225-0.084-0.22266-0.084h-9.3027z" fill="currentColor"/>
</svg>
