<svg viewBox="0 0 22 22" xmlns="http://www.w3.org/2000/svg">
<defs>
<style id="current-color-scheme" type="text/css">.ColorScheme-Text {
        color:#dedede
      }</style>
</defs>
<path class="ColorScheme-Text" d="m2.8926 3c-0.23637 0-0.42578 0.18941-0.42578 0.42578v6.6133c0 0.23637 0.18941 0.42774 0.42578 0.42774h9.8145c0.23637 0 0.42578-0.19136 0.42578-0.42774v-6.6133c0-0.23637-0.18941-0.42578-0.42578-0.42578h-9.8145zm11.734 0c-0.23637 0-0.42773 0.18941-0.42773 0.42578v6.6133c0 0.23637 0.19136 0.42774 0.42773 0.42774h4.4805c0.23637 0 0.42578-0.19136 0.42578-0.42774v-6.6133c0-0.23637-0.18941-0.42578-0.42578-0.42578h-4.4805zm-11.627 8.5332c-0.29547 0-0.5332 0.23774-0.5332 0.5332v6.4004c0 0.29547 0.23774 0.5332 0.5332 0.5332h16c0.29547 0 0.5332-0.23774 0.5332-0.5332v-6.4004c0-0.29547-0.23774-0.5332-0.5332-0.5332h-16z" fill="currentColor"/>
</svg>
