<svg width="22" height="22" viewBox="3.889 3.889 14.22 14.22" xmlns="http://www.w3.org/2000/svg">
<defs>
<style id="current-color-scheme" type="text/css">.ColorScheme-Text {
        color:#f2f2f2
      }</style>
</defs>
<path class="ColorScheme-Text" d="m4.6788 3.8889c-0.43772 0-0.78993 0.31785-0.78993 0.71181v12.799c0 0.39395 0.35221 0.7118 0.78993 0.7118h12.642c0.43773 0 0.78993-0.31785 0.78993-0.7118v-12.799c0-0.39396-0.3522-0.71181-0.78993-0.71181h-12.642zm6.0017 3.5556c0.15236 0.0269 0.26562 0.16998 0.26562 0.36111l-0.0139 4.9688c-0.0502 0.37087-0.36608 0.72293-0.82292 0.84722-0.57262 0.15579-1.1359-0.10431-1.2587-0.56944-0.12275-0.46514 0.2364-0.96748 0.80903-1.1233 0.31732-0.0863 0.6228-0.0334 0.86111 0.0972v-3.0122l-2.9688 0.8316-0.0139 3.8177c-0.0502 0.37081-0.36434 0.72298-0.82118 0.84722-0.57262 0.15579-1.1377-0.10436-1.2604-0.56944-0.12276-0.46519 0.23639-0.96922 0.80902-1.125 0.31734-0.0863 0.62278-0.0334 0.86111 0.0972v-4.0382c0-0.25481 0.19033-0.51736 0.42535-0.58333l3.1285-0.84722zm1.6007 0.88889h4c0.15829 0 0.28646 0.16916 0.28646 0.38021 0 0.21104-0.12817 0.38194-0.28646 0.38194h-4c-0.15828 0-0.28472-0.1709-0.28472-0.38194 0-0.21105 0.12644-0.38021 0.28472-0.38021zm0 1.5243h4c0.15829 0 0.28646 0.16916 0.28646 0.38021s-0.12817 0.38195-0.28646 0.38195h-4c-0.15828 0-0.28472-0.1709-0.28472-0.38195s0.12644-0.38021 0.28472-0.38021zm0 1.5226h4c0.15829 0 0.28646 0.1709 0.28646 0.38195 0 0.21104-0.12817 0.3802-0.28646 0.3802h-4c-0.15828 0-0.28472-0.16916-0.28472-0.3802 0-0.21105 0.12644-0.38195 0.28472-0.38195zm0 1.5243h4c0.15829 0 0.28646 0.17089 0.28646 0.38194s-0.12817 0.38021-0.28646 0.38021h-4c-0.15828 0-0.28472-0.16916-0.28472-0.38021s0.12644-0.38194 0.28472-0.38194z" fill="currentColor"/>
</svg>
