<svg version="1.1" viewBox="0 0 22 22" xmlns="http://www.w3.org/2000/svg">
<defs>
<style id="current-color-scheme" type="text/css">.ColorScheme-Text {
        color:#dedede
      }</style>
</defs>
<path class="ColorScheme-Text" d="m3.5674 4.2c-0.31477 0-0.56744 0.26942-0.56744 0.60312v11.594c0 0.3337 0.25267 0.60313 0.56744 0.60313h14.865c0.31475 0 0.56742-0.26942 0.56742-0.60313v-11.594c0-0.3337-0.25266-0.60312-0.56742-0.60312h-14.865zm5.5416 3.5594c0.9195 0 1.6625 0.78925 1.6625 1.7641 0 0.97482-0.74298 1.7625-1.6625 1.7625-0.21518 0-0.41198-0.04088-0.58806-0.10313l-0.87986 0.93282h-0.58659v0.62187h-0.58658v0.62188h-0.97864v-1.0359l2.0545-2.1781c-0.05872-0.20741-0.098744-0.41447-0.098744-0.62188 0-0.97481 0.74447-1.7641 1.664-1.7641zm5.7229 0.20468c0.08912 3.44e-4 0.17838 0.03704 0.24613 0.10938 0.13546 0.14466 0.13498 0.37821-0.0016 0.52188l-1.8983 1.9984 1.885 2.0125c0.13546 0.14464 0.1335 0.37826-0.0032 0.52187-0.13644 0.14374-0.35675 0.14322-0.49227-0.0016l-2.1297-2.275c-0.06768-0.07232-0.10202-0.16644-0.1017-0.26094 3.28e-4 -0.09445 0.03496-0.1891 0.10318-0.26094l2.1459-2.2578c0.06832-0.07176 0.15704-0.10811 0.24616-0.10778zm-5.2351 0.41875c-0.33258 0-0.58658 0.26928-0.58658 0.62188 0 0.35259 0.254 0.62187 0.58658 0.62187 0.3326 0 0.58806-0.26928 0.58806-0.62187 0-0.3526-0.25547-0.62188-0.58806-0.62188zm6.0855 1.4719a0.69761 0.73958 0 0 1 0.69712 0.73906 0.69761 0.73958 0 0 1-0.69712 0.73906 0.69761 0.73958 0 0 1-0.69713-0.73906 0.69761 0.73958 0 0 1 0.69713-0.73906z" color="#dedede" fill="currentColor"/>
</svg>
