<svg width="22" height="22" version="1.1" viewBox="3 4.2 16 12.8" xmlns="http://www.w3.org/2000/svg">
<defs>
<style id="current-color-scheme" type="text/css">.ColorScheme-Text {
        color:#f2f2f2
      }</style>
</defs>
<path class="ColorScheme-Text" d="m3.5674 4.2c-0.31477 0-0.56744 0.26942-0.56744 0.60312v11.594c0 0.3337 0.25267 0.60313 0.56744 0.60313h14.865c0.31478 0 0.56743-0.26942 0.56743-0.60313v-11.594c0-0.3337-0.25265-0.60312-0.56743-0.60312h-14.865zm5.7892 3.5594c0.9195 0 1.6625 0.78925 1.6625 1.7641 0 0.97482-0.74298 1.7625-1.6625 1.7625-0.2152 0-0.41198-0.04088-0.58806-0.10313l-0.87988 0.93282h-0.58658v0.62187h-0.58659v0.62188h-0.97863v-1.0359l2.0545-2.1781c-0.05872-0.20741-0.098744-0.41447-0.098744-0.62188 0-0.97481 0.74447-1.7641 1.664-1.7641zm6.0015 0.04064c0.0476 0 0.09298 0.02048 0.12674 0.05624l0.72512 0.76875c0.07024 0.07448 0.07024 0.19581 0 0.27031l-0.40382 0.42969-0.9801-1.0391 0.40383-0.42969c0.03376-0.03576 0.0806-0.05624 0.12822-0.05624zm-5.5136 0.58281c-0.33259 0-0.58659 0.26928-0.58659 0.62188 0 0.35259 0.254 0.62187 0.58659 0.62187 0.33258 0 0.58806-0.26928 0.58806-0.62187 0-0.3526-0.25547-0.62188-0.58806-0.62188zm4.8534 0.03752 0.98011 1.0391-0.14002 0.14843-0.9801-1.0391 0.14002-0.14843zm-0.26676 0.28438 0.9801 1.0391-0.14149 0.14844-0.9801-1.0391 0.1415-0.14843zm-0.26825 0.28281 0.9801 1.0406-2.762 2.9281c-0.01968 0.02088-0.04424 0.03584-0.07072 0.04528l-1.0921 0.38906c-0.0188 0.0064-0.03832 0.0094-0.05752 0.0094-0.04696 0-0.09253-0.01992-0.12676-0.05624-0.0484-0.05128-0.0644-0.12658-0.04272-0.19531l0.36552-1.1578c0.0089-0.02792 0.02456-0.05408 0.04416-0.07496l2.762-2.9282z" color="#f2f2f2" fill="currentColor"/>
</svg>
