<svg viewBox="0 0 22 22" xmlns="http://www.w3.org/2000/svg">
<defs>
<style id="current-color-scheme" type="text/css">.ColorScheme-Text {
        color:#dedede
      }</style>
</defs>
<path class="ColorScheme-Text" d="m3.6406 3c-0.34903 0-0.64062 0.2916-0.64062 0.64062s0.29159 0.64062 0.64062 0.64062h14.721c0.34902 0 0.63867-0.2916 0.63867-0.64062s-0.28965-0.64062-0.63867-0.64062h-14.721zm0 1.9199c-0.34903 0-0.64062 0.2916-0.64062 0.64062s0.29159 0.64062 0.64062 0.64062h7.6797c0.34902 0 0.64062-0.2916 0.64063-0.64062 0-0.34902-0.2916-0.64062-0.64063-0.64062h-7.6797zm0 3.8398c-0.34903 0-0.64062 0.2916-0.64062 0.64062s0.29159 0.64063 0.64062 0.64063h14.721c0.34902 0 0.63867-0.2916 0.63867-0.64063s-0.28965-0.64062-0.63867-0.64062h-14.721zm0 1.9199c-0.34903 0-0.64062 0.2916-0.64062 0.64062 0 0.34902 0.29159 0.64062 0.64062 0.64063h8.959c0.34902 0 0.64062-0.2916 0.64062-0.64063 0-0.34902-0.2916-0.64062-0.64062-0.64062h-8.959zm0 3.8418c-0.34903 0-0.64062 0.28965-0.64062 0.63867s0.29159 0.64062 0.64062 0.64062h14.721c0.34902 0 0.63867-0.2916 0.63867-0.64062s-0.28965-0.63867-0.63867-0.63867h-14.721zm0 1.9199c-0.34903 0-0.64062 0.28965-0.64062 0.63867s0.29159 0.64062 0.64062 0.64062h11.52c0.34902 0 0.64062-0.2916 0.64062-0.64062s-0.2916-0.63867-0.64062-0.63867h-11.52zm12.801 1.2793c-0.34903 0-0.64062 0.2916-0.64062 0.64062s0.2916 0.63867 0.64062 0.63867h1.9199c0.34902 0 0.63867-0.28965 0.63867-0.63867s-0.28965-0.64062-0.63867-0.64062h-1.9199z" fill="currentColor"/>
</svg>
