<svg width="22" height="22" viewBox="3 3 16 16" xmlns="http://www.w3.org/2000/svg">
<defs>
<style id="current-color-scheme" type="text/css">.ColorScheme-Text {
        color:#f2f2f2
      }</style>
</defs>
<path class="ColorScheme-Text" d="m4 3c-0.55402 0-1 0.44598-1 1v14c0 0.55402 0.44598 1 1 1h14c0.55402 0 1-0.44598 1-1v-14c0-0.55402-0.44598-1-1-1h-14zm7 3c0.90721 0 1.7436 0.22283 2.5098 0.66992 0.76601 0.44709 1.3732 1.0543 1.8203 1.8203 0.44693 0.76601 0.66992 1.6026 0.66992 2.5098 0 0.90705-0.22291 1.7437-0.66992 2.5098-0.44709 0.766-1.0543 1.3733-1.8203 1.8203-0.76601 0.44709-1.6026 0.66992-2.5098 0.66992s-1.7437-0.22283-2.5098-0.66992-1.3732-1.0544-1.8203-1.8203c-0.44701-0.76617-0.66992-1.6026-0.66992-2.5098 0-0.90705 0.22275-1.7437 0.66992-2.5098 0.44709-0.76609 1.0542-1.3733 1.8203-1.8203 0.76601-0.44709 1.6026-0.66992 2.5098-0.66992zm-1.4707 2.5195c-0.11723 0-0.21832 0.0406-0.30078 0.12305l-0.58594 0.58594c-0.0825 0.0825-0.12305 0.18355-0.12305 0.30078 0 0.11283 0.0406 0.21058 0.12305 0.29297l1.1797 1.1777-1.1797 1.1777c-0.0825 0.0824-0.12305 0.18014-0.12305 0.29297 0 0.11715 0.0406 0.2184 0.12305 0.30078l0.58594 0.58594c0.0825 0.0825 0.18355 0.12305 0.30078 0.12305 0.11283 0 0.2105-0.0406 0.29297-0.12305l1.1777-1.1797 1.1777 1.1797c0.0823 0.0825 0.18014 0.12305 0.29297 0.12305 0.11723 0 0.21832-0.0406 0.30078-0.12305l0.58594-0.58594c0.0825-0.0824 0.12305-0.18363 0.12305-0.30078 0-0.11283-0.0406-0.21058-0.12305-0.29297l-1.1797-1.1777 1.1797-1.1777c0.0825-0.0824 0.12305-0.18014 0.12305-0.29297 0-0.11723-0.0406-0.21832-0.12305-0.30078l-0.58594-0.58594c-0.0825-0.0825-0.18355-0.12305-0.30078-0.12305-0.11283 0-0.21066 0.0406-0.29297 0.12305l-1.1777 1.1797-1.1777-1.1797c-0.0825-0.0825-0.18014-0.12305-0.29297-0.12305z" fill="currentColor"/>
</svg>
