<svg width="22" height="22" viewBox="3 3 16 16" xmlns="http://www.w3.org/2000/svg">
<defs>
<style id="current-color-scheme" type="text/css">.ColorScheme-Text {
        color:#f2f2f2
      }</style>
</defs>
<path class="ColorScheme-Text" d="m4 3c-0.55402 0-1 0.44598-1 1v14c0 0.55402 0.44598 1 1 1h14c0.55402 0 1-0.44598 1-1v-14c0-0.55402-0.44598-1-1-1h-14zm4.0137 3.1309-0.0097657 1.7129 4.7012 1.3086-4.7148 1.2598-0.0097656 1.7109-2.9805-3.0117 3.0137-2.9805zm5.9727 3.7461 3.0137 2.9805-2.9805 3.0117-0.009765-1.7129-4.7148-1.2578 4.7012-1.3105-0.009766-1.7109z" fill="currentColor"/>
</svg>
