<svg viewBox="0 0 22 22" xmlns="http://www.w3.org/2000/svg">
<defs>
<style id="current-color-scheme" type="text/css">.ColorScheme-Text {
        color:#f2f2f2
      }</style>
</defs>
<path class="ColorScheme-Text" d="m6.46 3c-0.61921 0-1.19 0.15751-1.7129 0.4707-0.52293 0.31314-0.93568 0.73678-1.2409 1.2734-0.30523 0.53665-0.45866 1.1224-0.45866 1.7578 0 0.63545 0.15353 1.2211 0.45866 1.7578 0.30519 0.53654 0.71794 0.9622 1.2409 1.2754 0.52293 0.3132 1.0937 0.4707 1.7129 0.4707 0.61921 0 1.1919-0.1575 1.7148-0.4707 0.52287-0.31314 0.93569-0.7388 1.2409-1.2754 0.30513-0.53666 0.45866-1.1224 0.45866-1.7578 0-0.63545-0.15359-1.2212-0.45866-1.7578-0.30519-0.5366-0.718-0.96024-1.2409-1.2734-0.52299-0.31319-1.0955-0.4707-1.7148-0.4707zm5.7171 0.62304c-0.42528 0-0.78221 0.36432-0.78221 0.80078v0.19922c0 0.43645 0.35693 0.79883 0.78221 0.79883h6.0445c0.42528 0 0.77839-0.36238 0.77839-0.79883v-0.19922c0-0.43645-0.35312-0.80078-0.77839-0.80078h-6.0445zm0 4.002c-0.42528 0-0.78221 0.36628-0.78221 0.80273v0.19922c0 0.43645 0.35693 0.79883 0.78221 0.79883h6.0445c0.42528 0 0.77839-0.36238 0.77839-0.79883v-0.19922c0-0.43645-0.35312-0.80273-0.77839-0.80273h-6.0445zm-5.7628 4.3691c-0.61921 0-1.1919 0.15751-1.7148 0.4707-0.52293 0.31314-0.93568 0.73874-1.2409 1.2754-0.30523 0.53665-0.45867 1.1224-0.45867 1.7578 0 0.63545 0.15354 1.2211 0.45867 1.7578 0.30518 0.53654 0.71794 0.96025 1.2409 1.2734 0.52293 0.3132 1.0956 0.4707 1.7148 0.4707 0.61921 0 1.19-0.15751 1.7129-0.4707 0.52287-0.31314 0.93569-0.73684 1.2409-1.2734 0.30513-0.53666 0.45867-1.1224 0.45867-1.7578 0-0.63545-0.15359-1.2212-0.45867-1.7578-0.30519-0.5366-0.71799-0.9622-1.2409-1.2754-0.52299-0.31319-1.0936-0.4707-1.7129-0.4707zm5.7628 0.63477c-0.42528 0-0.78221 0.36433-0.78221 0.80078v0.20117c0 0.43645 0.35693 0.79883 0.78221 0.79883h3.1193c0.42529 0 0.7784-0.36238 0.7784-0.79883v-0.20117c0-0.43645-0.35311-0.80078-0.7784-0.80078h-3.1193zm0 4.0039c-0.42528 0-0.78221 0.36433-0.78221 0.80078v0.19922c0 0.43645 0.35693 0.79883 0.78221 0.79883h3.1193c0.42529 0 0.7784-0.36238 0.7784-0.79883v-0.19922c0-0.43645-0.35311-0.80078-0.7784-0.80078h-3.1193z" fill="currentColor"/>
</svg>
