<svg viewBox="0 0 22 22" xmlns="http://www.w3.org/2000/svg">
<defs>
<style id="current-color-scheme" type="text/css">.ColorScheme-Text {
        color:#f2f2f2
      }</style>
</defs>
<path class="ColorScheme-Text" d="m1.7093 3c-0.39345 0-0.70928 0.3368-0.70928 0.75391v14.492c0 0.41711 0.31583 0.75391 0.70928 0.75391h18.581c0.39346 0 0.70928-0.3368 0.70928-0.75391v-14.492c0-0.41711-0.31582-0.75391-0.70928-0.75391h-18.581zm0.88983 1.3477h5.9912c0.23889 0 0.43111 0.20378 0.43111 0.45703v12.391c0 0.25326-0.19222 0.45703-0.43111 0.45703h-5.9912c-0.23888 0-0.43109-0.20377-0.43109-0.45703v-12.391c0-0.25325 0.19221-0.45703 0.43109-0.45703zm11.662 3.3184h1.4038c-2e-3 0.71306 0 2.5898 0 2.5898h2.2752v1.4883h-2.2752s-8.1e-4 1.8736-2e-3 2.5898h-1.4038c9.5e-4 -0.71624 2e-3 -2.5898 2e-3 -2.5898s-1.5237-1e-3 -2.2771 0v-1.4863c0.75336-2e-3 2.2771-2e-3 2.2771-2e-3s-9.4e-4 -1.8768 0-2.5898z" fill="currentColor"/>
</svg>
