<svg version="1.1" viewBox="0 0 22 22" xmlns="http://www.w3.org/2000/svg">
<defs>
<style id="current-color-scheme" type="text/css">.ColorScheme-Text {
        color:#f2f2f2
      }</style>
</defs>
<path class="ColorScheme-Text" d="m18.409 4.3812-2.9748 0.00183c-0.32008 1.279e-4 -0.57661 0.18808-0.5764 0.42115l0.01252 13.775c2.11e-4 0.23307 0.2581 0.42128 0.57818 0.42115l2.9748-0.0018c0.32008-1.28e-4 0.57661-0.18808 0.5764-0.42115l-0.01252-13.775c-2.1e-4 -0.23307-0.25811-0.42128-0.57819-0.42115zm-6.0388 3.7653-2.9748 0.00183c-0.32008 8.87e-5 -0.57668 0.18629-0.5764 0.41935l0.01069 9.9826c2.832e-4 0.23307 0.2581 0.41946 0.57818 0.41937h2.9766c0.32008-1.01e-4 0.57669-0.18808 0.5764-0.42115l-0.012517-9.9808c-2.84e-4 -0.23307-0.2581-0.42124-0.57818-0.42115zm-8.7941 3.8224c-0.32008 5.5e-5 -0.57684 0.18808-0.5764 0.42115l0.01069 6.1869c4.386e-4 0.23307 0.25989 0.41942 0.57997 0.41936h2.9748c0.32008-5.5e-5 0.57684-0.18808 0.5764-0.42114l-0.012517-6.1869c-4.386e-4 -0.23307-0.2581-0.41942-0.57818-0.41936h-2.9748z" color="#f2f2f2" fill="currentColor"/>
</svg>
