<svg viewBox="0 0 22 22" xmlns="http://www.w3.org/2000/svg">
<defs>
<style id="current-color-scheme" type="text/css">.ColorScheme-Text {
        color:#dedede
      }</style>
</defs>
<path class="ColorScheme-Text" d="m11.041 3q3.3641 0 5.6616 2.342 2.2974 2.342 2.2974 5.658 0 1.8653-0.8 3.0881-0.77949 1.2228-2.2769 1.2228-1.5384 0-2.2974-1.513-1.0051 1.513-2.8718 1.513-1.682 0-2.8308-1.1814-1.1487-1.2021-1.1487-3.0466 0-1.8238 1.1487-3.0259 1.1487-1.2021 2.7487-1.2021 1.5795 0 2.6256 1.2228h0.082v-0.93264h1.4769v5.4093q0 0.53886 0.28717 0.9741 0.3077 0.43523 0.92309 0.43523 1.4564 0 1.4564-2.9637 0-2.7358-1.8872-4.6218-1.8872-1.886-4.5949-1.886-2.7077 0-4.5949 1.886-1.8872 1.886-1.8872 4.6218t1.8872 4.6218 4.5949 1.886q1.4564 0 2.6051-0.58031l0.57436 1.4093q-1.4359 0.66322-3.1795 0.66322-3.4051 0-5.7231-2.3212-2.3179-2.342-2.3179-5.6788 0-3.3161 2.318-5.658 2.3385-2.342 5.7231-2.342zm-1.9077 10.01q0.73846 0.72538 1.7641 0.72538t1.7436-0.72538q0.73845-0.72539 0.73845-1.9275 0-1.2021-0.73845-1.9275-0.71795-0.72539-1.7436-0.72539t-1.7641 0.72539q-0.71795 0.72538-0.71795 1.9275 0 1.2021 0.71795 1.9275z" fill="currentColor"/>
</svg>
