<svg viewBox="0 0 22 22" xmlns="http://www.w3.org/2000/svg">
<defs>
<style id="current-color-scheme" type="text/css">.ColorScheme-Text {
        color:#dedede
      }</style>
</defs>
<path class="ColorScheme-Text" d="m1.7093 3c-0.39346 0-0.70928 0.33679-0.70928 0.75391v14.492c0 0.41713 0.31582 0.7539 0.70928 0.7539h18.581c0.39346 0 0.70928-0.33677 0.70928-0.7539v-14.492c0-0.41712-0.31582-0.75391-0.70928-0.75391h-18.581zm11.266 1c0.37425 0 0.67796 0.32228 0.67796 0.71875v12.562c0 0.39647-0.30371 0.71875-0.67796 0.71875-0.3737 0-0.67797-0.32228-0.67797-0.71875v-12.562c0-0.39647 0.30427-0.71875 0.67797-0.71875zm-1.975 1.7949c0.37397 0 0.67797 0.32229 0.67797 0.71875v8.9727c0 0.39677-0.304 0.71875-0.67797 0.71875s-0.67797-0.32003-0.67797-0.7168v-8.9746c0-0.39646 0.304-0.71875 0.67797-0.71875zm-3.9499 0.89649c0.37397 0 0.67613 0.32228 0.67613 0.71875v7.1797c2.8e-4 0.39646-0.30216 0.71875-0.67613 0.71875s-0.67797-0.32229-0.67797-0.71875v-7.1797c0-0.39647 0.304-0.71875 0.67797-0.71875zm7.8998 0c0.37369 0 0.67797 0.32228 0.67797 0.71875v7.1797c0 0.39646-0.30428 0.71875-0.67797 0.71875-0.37425 0-0.67613-0.32229-0.67613-0.71875v-7.1797c0-0.39647 0.30188-0.71875 0.67613-0.71875zm-5.9248 0.89844c0.37398 0 0.67797 0.32228 0.67797 0.71875v5.3828c-2.8e-4 0.39647-0.30399 0.71875-0.67797 0.71875-0.37397 0-0.67796-0.32228-0.67796-0.71875v-5.3828c0-0.39647 0.30399-0.71875 0.67796-0.71875zm-3.9499 0.89843c0.37398 0 0.67613 0.32033 0.67613 0.7168v3.5898c0 0.39588-0.30215 0.71875-0.67613 0.71875-0.37397 0-0.67796-0.32198-0.67796-0.71875v-3.5898c0-0.39647 0.30399-0.7168 0.67796-0.7168zm11.85 0.89649c0.37397 0 0.67796 0.32228 0.67796 0.71875v1.7949c0 0.39617-0.30399 0.7168-0.67796 0.7168-0.37398 0-0.67613-0.32063-0.67613-0.7168v-1.7949c0-0.39647 0.30215-0.71875 0.67613-0.71875z" fill="currentColor"/>
</svg>
