<svg viewBox="0 0 22 22" xmlns="http://www.w3.org/2000/svg">
<defs>
<style id="current-color-scheme" type="text/css">.ColorScheme-Text {
        color:#f2f2f2
      }</style>
</defs>
<path class="ColorScheme-Text" d="m4 3c-0.55402 0-1 0.44598-1 1v14c0 0.55402 0.44598 1 1 1h14c0.55402 0 1-0.44598 1-1v-14c0-0.55402-0.44598-1-1-1h-14zm0.875 4h10.588c0.32589 0 0.58789 0.26201 0.58789 0.58789s-0.262 0.58789-0.58789 0.58789h-10.588c-0.32588 0-0.58984-0.26201-0.58984-0.58789s0.26396-0.58789 0.58984-0.58789zm0 2.3535h8.2344c0.32588 0 0.5879 0.26201 0.5879 0.58789s-0.26202 0.58789-0.5879 0.58789h-8.2344c-0.32588 0-0.58984-0.26201-0.58984-0.58789s0.26396-0.58789 0.58984-0.58789zm12.15 0.90625c0.0792 0 0.14577 0.0265 0.20117 0.082l0.4043 0.40429c0.0554 0.0555 0.084 0.12393 0.084 0.20313s-0.0286 0.14567-0.084 0.20117l-2.5547 2.5547c-0.0555 0.0554-0.12392 0.084-0.20312 0.084s-0.14577-0.0285-0.20118-0.084l-1.4785-1.4785c-0.0555-0.0554-0.084-0.12392-0.084-0.20312s0.0285-0.14568 0.084-0.20117l0.40234-0.4043c0.0555-0.0555 0.12393-0.084 0.20313-0.084s0.14567 0.0285 0.20117 0.084l0.87305 0.87695 1.9492-1.9531c0.0554-0.0554 0.12392-0.082 0.20312-0.082zm-12.15 1.4453h7.0586c0.32588 0 0.58789 0.26396 0.58789 0.58984s-0.26201 0.58789-0.58789 0.58789h-7.0586c-0.32588 0-0.58984-0.26201-0.58984-0.58789s0.26396-0.58984 0.58984-0.58984zm1.1758 2.1191h7.0586c0.32588 0 0.5879 0.26201 0.5879 0.58789s-0.26202 0.58789-0.5879 0.58789h-7.0586c-0.32587 0-0.58789-0.26201-0.58789-0.58789s0.26202-0.58789 0.58789-0.58789z" fill="currentColor"/>
<path d="m4.875 7c-0.32588 0-0.58984 0.26201-0.58984 0.58789s0.26396 0.58789 0.58984 0.58789h10.588c0.32588 0 0.58789-0.26201 0.58789-0.58789s-0.26201-0.58789-0.58789-0.58789h-10.588zm0 2.3535c-0.32588 0-0.58984 0.26201-0.58984 0.58789s0.26396 0.58789 0.58984 0.58789h8.2344c0.32588 0 0.58789-0.26201 0.58789-0.58789s-0.26201-0.58789-0.58789-0.58789h-8.2344zm12.15 0.90625c-0.0792 0-0.14769 0.0266-0.20312 0.082l-1.9492 1.9531-0.87305-0.87693c-0.0555-0.0555-0.12197-0.084-0.20117-0.084s-0.14766 0.0285-0.20312 0.084l-0.40235 0.4043c-0.0555 0.0555-0.084 0.12194-0.084 0.20117 0 0.0792 0.0285 0.1477 0.084 0.20313l1.4785 1.4785c0.0554 0.0555 0.12193 0.084 0.20117 0.084 0.0792 0 0.14766-0.0286 0.20312-0.084l2.5547-2.5547c0.0554-0.0555 0.084-0.12194 0.084-0.20118 4e-5 -0.0792-0.0286-0.14766-0.084-0.20312l-0.4043-0.4043c-0.0554-0.0555-0.12196-0.082-0.20117-0.082zm-12.15 1.4453c-0.32588 0-0.58984 0.26397-0.58984 0.58985s0.26396 0.58789 0.58984 0.58789h7.0586c0.32588 0 0.58789-0.26201 0.58789-0.58789s-0.26201-0.58985-0.58789-0.58985h-7.0586zm1.1758 2.1191c-0.32588 0-0.58789 0.26202-0.58789 0.5879 0 0.32587 0.26201 0.58789 0.58789 0.58789h7.0586c0.32588 0 0.58789-0.26202 0.58789-0.58789 0-0.32588-0.26201-0.5879-0.58789-0.5879h-7.0586z" fill="#f47750"/>
</svg>
