<svg viewBox="0 0 22 22" xmlns="http://www.w3.org/2000/svg">
<defs>
<style id="current-color-scheme" type="text/css">.ColorScheme-Text {
        color:#dedede
      }</style>
</defs>
<path class="ColorScheme-Text" d="m4 3c-0.55402 0-1 0.44598-1 1v14c0 0.55402 0.44598 1 1 1h14c0.55402 0 1-0.44598 1-1v-14c0-0.55402-0.44598-1-1-1h-14zm3 4h8c0.31657 0 0.57227 0.25569 0.57227 0.57227 0 0.31657-0.2557 0.57031-0.57227 0.57031h-8c-0.31657 0-0.57227-0.25374-0.57227-0.57031 0-0.31658 0.2557-0.57227 0.57227-0.57227zm0 2.2852h8c0.31657 0 0.57227 0.25569 0.57227 0.57226s-0.2557 0.57031-0.57227 0.57031h-8c-0.31657 0-0.57227-0.25374-0.57227-0.57031s0.2557-0.57226 0.57227-0.57226zm0 2.2871h8c0.31657 0 0.57227 0.25374 0.57227 0.57031s-0.2557 0.57226-0.57227 0.57226h-8c-0.31657 0-0.57227-0.25569-0.57227-0.57226s0.2557-0.57031 0.57227-0.57031zm0 2.2852h8c0.31657 0 0.57227 0.25374 0.57227 0.57031 0 0.31658-0.2557 0.57227-0.57227 0.57227h-8c-0.31657 0-0.57227-0.25569-0.57227-0.57227 0-0.31657 0.2557-0.57031 0.57227-0.57031z" fill="currentColor"/>
</svg>
