<svg version="1.1" viewBox="0 0 22 22" xmlns="http://www.w3.org/2000/svg">
<defs>
<style id="current-color-scheme" type="text/css">.ColorScheme-Text {
        color:#f2f2f2
      }</style>
</defs>
<path class="ColorScheme-Text" d="m4 3c-0.55402 0-1 0.44598-1 1v14c0 0.55401 0.44598 1 1 1h14c0.55401 0 1-0.44599 1-1v-14c0-0.55402-0.44599-1-1-1h-14zm10.078 4.6328c0.15112 0 0.27902 0.0524 0.38477 0.1582l0.77148 0.77149c0.10575 0.10582 0.15828 0.23365 0.15821 0.38476 0 0.15119-0.0525 0.2809-0.15821 0.38672l-4.1035 4.1035-0.77149 0.77148c-0.10582 0.10575-0.23365 0.15821-0.38476 0.15821-0.15119 0-0.28097-0.0524-0.38672-0.15821l-0.76953-0.77148-2.0527-2.0527c-0.10582-0.10575-0.1582-0.23365-0.1582-0.38476 0-0.15118 0.0524-0.27895 0.1582-0.38477l0.77149-0.77148c0.10582-0.10582 0.23358-0.1582 0.38476-0.1582 0.15112 0 0.27895 0.0524 0.38477 0.1582l1.668 1.6719 3.7188-3.7246c0.10575-0.10582 0.23358-0.1582 0.38476-0.1582z" color="#f2f2f2" fill="currentColor"/>
</svg>
