<svg viewBox="0 0 22 22" xmlns="http://www.w3.org/2000/svg">
<defs>
<style id="current-color-scheme" type="text/css">.ColorScheme-Text {
        color:#f2f2f2
      }</style>
</defs>
<path class="ColorScheme-Text" d="m3.4414 3c-0.22042 0-0.39844 0.17802-0.39844 0.39844v7.1602c0 0.22042 0.17802 0.39844 0.39844 0.39844h15.117c0.22042 0 0.39844-0.17802 0.39844-0.39844v-7.1602c0-0.22042-0.17802-0.39844-0.39844-0.39844h-15.117zm0 9.0371c-0.22042 0-0.39844 0.17802-0.39844 0.39844v6.166c0 0.22042 0.17802 0.39844 0.39844 0.39844h15.117c0.22042 0 0.39844-0.17802 0.39844-0.39844v-6.166c0-0.22042-0.17802-0.39844-0.39844-0.39844h-15.117z" fill="currentColor"/>
</svg>
