<svg viewBox="0 0 22 22" xmlns="http://www.w3.org/2000/svg">
<defs>
<style id="current-color-scheme" type="text/css">.ColorScheme-Text {
        color:#f2f2f2
      }</style>
</defs>
<path class="ColorScheme-Text" d="m3.6016 3c-0.2225 0-0.44528 0.085324-0.61523 0.25586-0.33816 0.33874-0.33816 0.88782 0 1.2266l3.4922 3.4922h-1.8867c-0.51248 0.001166-0.92578 0.39048-0.92578 0.86914 0 0.48158 0.4133 0.86914 0.92578 0.86914h3.9414c0.51306 0 0.92852-0.38756 0.92969-0.86914-0.001166-0.012244-0.0046933-0.022913-0.0058594-0.035156 0.0011661-0.015159 0.0058594-0.03329 0.0058594-0.050781v-3.8887c0-0.50432-0.38873-0.91406-0.86914-0.91406-0.47866 0.0017491-0.87109 0.40974-0.87109 0.91406v1.8945l-3.5059-3.5078c-0.17024-0.17054-0.39274-0.25586-0.61523-0.25586zm14.797 0c-0.22213-7.29e-5 -0.44362 0.085324-0.61328 0.25586l-3.5098 3.5078v-1.8945c0-0.50432-0.39164-0.91231-0.86914-0.91406-0.48158 0-0.86914 0.40974-0.86914 0.91406v3.8887c0 0.016908 0.004111 0.035623 0.00586 0.050781-0.001749 0.012244-0.004111 0.022913-0.00586 0.035156 0.001749 0.48158 0.41467 0.86914 0.92774 0.86914h3.9414c0.51365 0 0.92773-0.38756 0.92773-0.86914 0-0.47866-0.41409-0.86797-0.92773-0.86914h-1.8848l3.4902-3.4902c0.33932-0.33874 0.33932-0.88978 0-1.2285-0.16966-0.17083-0.39115-0.25579-0.61328-0.25586zm-9.8984 9.2773-3.8887 0.001953c-0.50607 0-0.91602 0.38873-0.91602 0.86914 0.0011661 0.47866 0.40995 0.86914 0.91602 0.86914h1.8945l-3.5098 3.5078c-0.3399 0.34049-0.34049 0.89056 0 1.2305 0.33932 0.33816 0.89115 0.33816 1.2305 0l3.4902-3.4922v1.8867c0.001166 0.51248 0.38989 0.92578 0.86914 0.92578 0.48041 0 0.86914-0.4133 0.86914-0.92578v-3.9434c0-0.51306-0.38814-0.92657-0.86914-0.92773-0.01341 0.001166-0.022913 0.00274-0.035156 0.003906-0.016325-0.001166-0.033873-0.005859-0.050781-0.005859zm4.9648 0.009765c-0.51365 0-0.92599 0.38619-0.92774 0.86719 0.001749 0.012826 0.004111 0.024283 0.00586 0.037109-0.001749 0.016325-0.00586 0.033874-0.00586 0.050782v3.8867c0 0.50607 0.38756 0.91602 0.86914 0.91602 0.4775-0.001166 0.87109-0.40995 0.87109-0.91602v-1.8945l3.5078 3.5098c0.33932 0.3399 0.88919 0.3399 1.2285 0 0.33932-0.33932 0.33932-0.88919 0-1.2285l-3.4922-3.4922h1.8867c0.51365-0.001167 0.92774-0.38989 0.92774-0.86914 0-0.48041-0.41409-0.86719-0.92774-0.86719h-3.9434z" fill="currentColor"/>
</svg>
