<svg version="1.1" viewBox="0 0 22 22" xmlns="http://www.w3.org/2000/svg">
<defs>
<style id="current-color-scheme" type="text/css">.ColorScheme-Text {
        color:#f2f2f2
      }</style>
</defs>
<path class="ColorScheme-Text" d="m3.5674 4.2c-0.31477 0-0.56744 0.26942-0.56744 0.60312v11.594c0 0.3337 0.25267 0.60313 0.56744 0.60313h14.865c0.31475 0 0.56742-0.26942 0.56742-0.60313v-11.594c0-0.3337-0.25266-0.60312-0.56742-0.60312h-14.865zm5.5416 3.5594c0.9195 0 1.6625 0.78925 1.6625 1.7641 0 0.97482-0.74298 1.7625-1.6625 1.7625-0.21518 0-0.41198-0.04088-0.58806-0.10313l-0.87986 0.93282h-0.58659v0.62187h-0.58658v0.62188h-0.97864v-1.0359l2.0545-2.1781c-0.05872-0.20741-0.098744-0.41447-0.098744-0.62188 0-0.97481 0.74447-1.7641 1.664-1.7641zm4.7502 0.20468c0.08913-3.36e-4 0.17936 0.036 0.2476 0.10782l2.1459 2.2578c0.06824 0.07184 0.10138 0.16649 0.1017 0.26094 3.28e-4 0.09449-0.03248 0.18861-0.10022 0.26094l-2.1312 2.275c-0.13552 0.14478-0.35582 0.1453-0.49226 0.0016-0.13645-0.14362-0.13694-0.37723-0.0016-0.52187l1.885-2.0125-1.8983-1.9984c-0.13645-0.14367-0.13694-0.37722-0.0016-0.52187 0.06776-0.0724 0.15554-0.10903 0.24466-0.10938zm-4.2623 0.41875c-0.33258 0-0.58658 0.26928-0.58658 0.62188 0 0.35259 0.254 0.62187 0.58658 0.62187 0.3326 0 0.58806-0.26928 0.58806-0.62187 0-0.3526-0.25547-0.62188-0.58806-0.62188zm3.4134 1.4719a0.69761 0.73958 0 0 1 0.69714 0.73906 0.69761 0.73958 0 0 1-0.69714 0.73906 0.69761 0.73958 0 0 1-0.69859-0.73906 0.69761 0.73958 0 0 1 0.69859-0.73906z" color="#f2f2f2" fill="currentColor"/>
</svg>
