<svg viewBox="0 0 22 22" xmlns="http://www.w3.org/2000/svg">
<defs>
<style id="current-color-scheme" type="text/css">.ColorScheme-Text {
        color:#f2f2f2
      }</style>
</defs>
<path class="ColorScheme-Text" d="m3.8878 1.8573c-0.49249 0-0.88767 0.4086-0.88767 0.9151v16.455c0 0.5065 0.39518 0.9152 0.88767 0.9152h14.224c0.49249 0 0.88767-0.4087 0.88767-0.9152v-16.455c0-0.5065-0.39518-0.9151-0.88767-0.9151h-14.224zm3.0081 4.6428c1.074 0 1.9446 0.8953 1.9446 1.9999s-0.87062 2-1.9446 2-1.9446-0.8954-1.9446-2 0.87062-1.9999 1.9446-1.9999zm4.0412 0.5714h5.5561c0.30781 0 0.55561 0.2548 0.55561 0.5714s-0.2478 0.5714-0.55561 0.5714h-5.5561c-0.3078 0-0.55561-0.2548-0.55561-0.5714s0.2478-0.5714 0.55561-0.5714zm0 2.2856h5.5561c0.30781 0 0.55561 0.2549 0.55561 0.5715 0 0.3165-0.2478 0.5714-0.55561 0.5714h-5.5561c-0.3078 0-0.55561-0.2549-0.55561-0.5714 0-0.3166 0.2478-0.5715 0.55561-0.5715zm-5.9858 2.1429h3.8892v3.9999h-3.8892v-3.9999zm5.9858 0.1428h5.5561c0.30781 0 0.55561 0.2549 0.55561 0.5714 0 0.3166-0.2478 0.5715-0.55561 0.5715h-5.5561c-0.3078 0-0.55561-0.2549-0.55561-0.5715 0-0.3165 0.2478-0.5714 0.55561-0.5714zm0 2.2857h5.5561c0.30781 0 0.55561 0.2548 0.55561 0.5714s-0.2478 0.5714-0.55561 0.5714h-5.5561c-0.3078 0-0.55561-0.2548-0.55561-0.5714s0.2478-0.5714 0.55561-0.5714z" fill="currentColor"/>
</svg>
