<svg viewBox="0 0 22 22" xmlns="http://www.w3.org/2000/svg">
<defs>
<style id="current-color-scheme" type="text/css">.ColorScheme-Text {
        color:#f2f2f2
      }</style>
</defs>
<path class="ColorScheme-Text" d="m4 3c-0.55402 0-1 0.44598-1 1v14c0 0.55402 0.44598 1 1 1h14c0.55402 0 1-0.44598 1-1v-14c0-0.55402-0.44598-1-1-1h-14zm1.4453 4.373h9.6016c0.2955 0 0.53321 0.23771 0.53321 0.5332s-0.23771 0.5332-0.53321 0.5332h-9.6016c-0.29549 0-0.5332-0.23771-0.5332-0.5332s0.23771-0.5332 0.5332-0.5332zm0 2.1328h7.4668c0.29549 0 0.5332 0.23771 0.5332 0.5332s-0.23771 0.53516-0.5332 0.53516h-7.4668c-0.29549 0-0.5332-0.23967-0.5332-0.53516s0.23771-0.5332 0.5332-0.5332zm11.018 0.82227c0.0718 0 0.13334 0.0259 0.18359 0.0762l0.36524 0.36523c0.0503 0.0503 0.0762 0.11178 0.0762 0.18359 0 0.0718-0.0259 0.13331-0.0762 0.1836l-1.9492 1.9492-0.36719 0.36718c-0.0503 0.0503-0.10982 0.0762-0.18164 0.0762-0.0718 0-0.13333-0.0259-0.18359-0.0762l-0.36719-0.36718-0.97461-0.97461c-0.0503-0.0503-0.0762-0.11178-0.0762-0.1836 0-0.0719 0.0259-0.1333 0.0762-0.18359l0.36524-0.36524c0.0503-0.0503 0.11174-0.0762 0.18359-0.0762 0.0718 0 0.1333 0.0259 0.18359 0.0762l0.79297 0.79493 1.7656-1.7695c0.0503-0.0503 0.11174-0.0762 0.18359-0.0762zm-11.018 1.3125h6.4004c0.29549 0 0.53321 0.23771 0.53321 0.5332s-0.23772 0.5332-0.53321 0.5332h-6.4004c-0.29549 0-0.5332-0.23771-0.5332-0.5332s0.23771-0.5332 0.5332-0.5332zm1.0664 1.9199h6.4004c0.29549 0 0.5332 0.23771 0.5332 0.5332s-0.23771 0.5332-0.5332 0.5332h-6.4004c-0.29549 0-0.5332-0.23771-0.5332-0.5332s0.23771-0.5332 0.5332-0.5332z" fill="currentColor"/>
</svg>
