<svg viewBox="0 0 22 22" xmlns="http://www.w3.org/2000/svg">
<defs>
<style id="current-color-scheme" type="text/css">.ColorScheme-Text {
        color:#dedede
      }</style>
</defs>
<path class="ColorScheme-Text" d="m16.324 2.9999c-0.50824 0-0.97708 0.12451-1.4062 0.375-0.42922 0.25045-0.76904 0.59031-1.0195 1.0195-0.25054 0.42922-0.375 0.89806-0.375 1.4062 0 0.50824 0.12455 0.97699 0.375 1.4062 0.25049 0.42913 0.59031 0.76904 1.0195 1.0195 0.42922 0.2505 0.89801 0.37696 1.4062 0.37696s0.97707-0.12646 1.4062-0.37696c0.42917-0.25045 0.76904-0.59035 1.0195-1.0195 0.25045-0.42922 0.375-0.89805 0.375-1.4062 0-0.50824-0.1246-0.97707-0.375-1.4062-0.25049-0.42917-0.59036-0.76904-1.0195-1.0195-0.42927-0.25049-0.89797-0.375-1.4062-0.375zm-10.523 4e-3c-0.50824 0-0.97707 0.12451-1.4062 0.375-0.42922 0.25045-0.76904 0.59031-1.0195 1.0195-0.25054 0.42922-0.375 0.89805-0.375 1.4062 0 0.50824 0.12455 0.97698 0.375 1.4062 0.25049 0.42913 0.59031 0.76903 1.0195 1.0195 0.42922 0.25049 0.89801 0.375 1.4062 0.375s0.97708-0.12451 1.4062-0.375c0.42918-0.25045 0.76904-0.59036 1.0195-1.0195 0.25045-0.42922 0.375-0.89806 0.375-1.4062 0-0.50824-0.12459-0.97708-0.375-1.4062-0.25049-0.42918-0.59035-0.76904-1.0195-1.0195-0.42926-0.2505-0.89796-0.375-1.4062-0.375zm5.2617 5.1953c-0.50824 0-0.97708 0.1245-1.4062 0.375-0.42922 0.25045-0.76904 0.59031-1.0195 1.0195-0.25054 0.42922-0.375 0.89805-0.375 1.4062 0 0.50824 0.12455 0.97699 0.375 1.4062 0.25049 0.42913 0.59031 0.76904 1.0195 1.0195 0.42922 0.2505 0.89801 0.375 1.4062 0.375s0.97708-0.1245 1.4062-0.375c0.42917-0.25045 0.76904-0.59035 1.0195-1.0195 0.25045-0.42922 0.375-0.89805 0.375-1.4062 0-0.50824-0.1246-0.97707-0.375-1.4062-0.25049-0.42917-0.59036-0.76904-1.0195-1.0195-0.42926-0.2505-0.89797-0.375-1.4062-0.375zm5.1875 5.1582c-0.50824 0-0.97708 0.12646-1.4062 0.37696-0.42922 0.25044-0.76904 0.59031-1.0195 1.0195-0.25054 0.42922-0.37695 0.89805-0.37695 1.4062 0 0.50824 0.1265 0.97698 0.37695 1.4062 0.25049 0.42913 0.59031 0.76903 1.0195 1.0195 0.42922 0.25049 0.89801 0.375 1.4062 0.375s0.97708-0.12451 1.4062-0.375c0.42917-0.25045 0.76904-0.59036 1.0195-1.0195 0.25045-0.42922 0.375-0.89806 0.375-1.4062 0-0.50824-0.1246-0.97708-0.375-1.4062-0.25049-0.42918-0.59036-0.76904-1.0195-1.0195-0.42926-0.2505-0.89797-0.37696-1.4062-0.37696zm-10.389 0.0391c-0.50824 0-0.97708 0.12646-1.4062 0.37696-0.42922 0.25044-0.76904 0.59031-1.0195 1.0195-0.25054 0.42922-0.37696 0.89805-0.37696 1.4062 0 0.50824 0.12651 0.97698 0.37696 1.4062 0.25049 0.42913 0.59031 0.76903 1.0195 1.0195 0.42922 0.25049 0.89801 0.375 1.4062 0.375s0.97707-0.12451 1.4062-0.375c0.42917-0.25045 0.76904-0.59036 1.0195-1.0195 0.25045-0.42922 0.375-0.89806 0.375-1.4062 0-0.50824-0.1246-0.97708-0.375-1.4062-0.25049-0.42918-0.59036-0.76904-1.0195-1.0195-0.42927-0.2505-0.89797-0.37696-1.4062-0.37696z" fill="currentColor"/>
</svg>
