<svg version="1.1" viewBox="0 0 22 22" xmlns="http://www.w3.org/2000/svg">
<defs>
<style id="current-color-scheme" type="text/css">.ColorScheme-Text {
        color:#dedede
      }</style>
</defs>
<path class="ColorScheme-Text" d="m3.5674 4.2c-0.31477 0-0.56743 0.26942-0.56743 0.60312v11.594c0 0.3337 0.25266 0.60313 0.56743 0.60313h14.865c0.31476 0 0.56743-0.26942 0.56743-0.60313v-11.594c0-0.3337-0.25266-0.60312-0.56743-0.60312h-14.865zm5.5416 3.5594c0.9195 0 1.6625 0.78925 1.6625 1.7641 0 0.97482-0.74298 1.7625-1.6625 1.7625-0.2152 0-0.41198-0.04088-0.58806-0.10313l-0.87988 0.93282h-0.58659v0.62187h-0.58658v0.62188h-0.97863v-1.0359l2.0545-2.1781c-0.058708-0.20741-0.098748-0.41447-0.098748-0.62188 0-0.97481 0.74447-1.7641 1.664-1.7641zm4.7502 0.20468c0.08913-3.36e-4 0.17935 0.036 0.2476 0.10782l2.1459 2.2578c0.06822 0.07184 0.10137 0.16649 0.1017 0.26094 3.25e-4 0.09449-0.03252 0.18861-0.10022 0.26094l-2.1312 2.275c-0.13552 0.14478-0.35583 0.1453-0.49226 0.0016-0.13645-0.14362-0.13694-0.37723-0.0015-0.52187l1.885-2.0125-1.8983-1.9984c-0.13647-0.14367-0.13696-0.37722-0.00154-0.52187 0.067768-0.0724 0.15553-0.10903 0.24466-0.10938zm-4.2623 0.41875c-0.33258 0-0.58659 0.26928-0.58659 0.62188 0 0.35259 0.254 0.62187 0.58659 0.62187 0.33259 0 0.58806-0.26928 0.58806-0.62187 0-0.3526-0.25547-0.62188-0.58806-0.62188zm3.3088 1.2172h0.27266c0.01147 0 0.0209 0.0032 0.0295 0.01096 0.0086 0.0072 0.01396 0.01688 0.01471 0.02816l0.03388 0.23906c0.04014 0.01392 0.07694 0.03024 0.11054 0.04848l0.17393-0.13906c0.0075-8e-3 0.01721-0.01096 0.0295-0.01096 0.01064 0 0.02113 4e-3 0.03094 0.01248 0.10563 0.1033 0.17392 0.17758 0.20339 0.22187 6e-3 0.0072 0.0075 0.016 0.0075 0.02816 0 0.0104-0.0022 0.02016-0.0088 0.02968-0.0123 0.01824-0.03388 0.0464-0.06338 0.08594-0.0295 0.03952-0.05162 0.07048-0.06633 0.09219 0.02128 0.04344 0.03781 0.08646 0.0501 0.12812l0.2255 0.03592c0.01064 0.0016 0.01849 0.0081 0.02506 0.0172 0.0068 0.0091 0.01034 0.0184 0.01034 0.02968v0.28906c0 0.0104-0.0038 0.02016-0.01034 0.02968-0.0068 0.0095-0.01374 0.01544-0.02354 0.0172l-0.22697 0.03592c-0.01554 0.04688-0.0323 0.08662-0.04867 0.11875 0.02867 0.04344 0.07222 0.1033 0.13117 0.17969 0.0082 0.0104 0.01328 0.02152 0.01328 0.0328s-0.0046 0.02104-0.01177 0.02968c-0.02211 0.03208-0.06188 0.07896-0.12086 0.14062-0.05894 0.0616-0.09843 0.09218-0.11644 0.09218-0.0098 0-0.01947-0.0032-0.03094-0.01096l-0.16947-0.14062c-0.03599 0.01992-0.0735 0.03696-0.11201 0.05-0.01313 0.11806-0.02475 0.19878-0.03539 0.24219-6e-3 0.02432-0.02045 0.03592-0.04422 0.03592h-0.27266c-0.01147 0-0.02234-0.0032-0.03094-0.01096-0.0086-0.0072-0.01245-0.0168-0.01328-0.02816l-0.03539-0.23906c-0.04014-0.01392-0.07695-0.03016-0.11053-0.04848l-0.17245 0.13907c-0.0082 8e-3 -0.01864 0.01096-0.03094 0.01096-0.01147 0-0.02196-0.0048-0.03094-0.01408-0.10318-0.09894-0.16999-0.17186-0.20192-0.21875-6e-3 -0.0087-0.0088-0.0184-0.0088-0.02968 0-0.0104 0.0022-0.02008 0.0088-0.02968 0.0123-0.01824 0.03388-0.0464 0.06338-0.08594 0.0295-0.03952 0.05162-0.07048 0.06633-0.09219-0.02211-0.04336-0.03863-0.08716-0.0501-0.12969l-0.2255-0.0344c-0.01064-0.0016-0.01849-0.0081-0.02506-0.0172-0.0068-0.0091-0.01034-0.0184-0.01034-0.02968v-0.28906c0-0.0104 0.0038-0.02016 0.01034-0.02968 0.0068-0.0095 0.01457-0.01544 0.02354-0.0172l0.22845-0.03752c0.01147-0.03992 0.02671-0.0788 0.04716-0.11875-0.03275-0.04952-0.07631-0.10937-0.13117-0.17969-0.0082-0.0104-0.01177-0.0208-0.01177-0.03128 0-0.0087 3e-3 -0.0184 0.01034-0.02968 0.02128-0.03128 0.0615-0.07856 0.12085-0.14062 0.05938-0.06208 0.09842-0.092192 0.11644-0.092192 0.01064 0 0.02181 4e-3 0.03245 0.01248l0.16949 0.13906c0.03607-0.01992 0.07206-0.03696 0.11054-0.05 0.01313-0.11806 0.02618-0.1988 0.03682-0.24219 6e-3 -0.02432 0.02045-0.03592 0.04422-0.03592z" color="#dedede" fill="currentColor"/>
</svg>
