<svg viewBox="0 0 22 22" xmlns="http://www.w3.org/2000/svg">
<defs>
<style id="current-color-scheme" type="text/css">.ColorScheme-Text {
        color:#f2f2f2
      }</style>
</defs>
<path class="ColorScheme-Text" d="m3.8887 3c-0.49244 0-0.88867 0.35758-0.88867 0.80078v14.398c0 0.4432 0.39623 0.80078 0.88867 0.80078h14.223c0.49244 0 0.88867-0.35758 0.88867-0.80078v-14.398c0-0.4432-0.39623-0.80078-0.88867-0.80078h-14.223zm1.5723 2h4.6152c0.25495 0 0.46289 0.20599 0.46289 0.46094v4.6152c0 0.25495-0.20794 0.46289-0.46289 0.46289h-4.6152c-0.25495 0-0.46094-0.20794-0.46094-0.46289v-4.6152c0-0.25495 0.20599-0.46094 0.46094-0.46094zm6.4629 0h4.6152c0.25495 0 0.46094 0.20599 0.46094 0.46094v4.6152c0 0.25495-0.20599 0.46289-0.46094 0.46289h-4.6152c-0.25495 0-0.46289-0.20794-0.46289-0.46289v-4.6152c0-0.25495 0.20794-0.46094 0.46289-0.46094zm0.46094 0.92383v3.6914h3.6914v-3.6914h-3.6914zm-6.9238 5.5371h4.6152c0.25495 0 0.46289 0.20744 0.46289 0.46289v4.6152c0 0.25495-0.20794 0.46094-0.46289 0.46094h-4.6152c-0.25495 0-0.46094-0.20599-0.46094-0.46094v-4.6152c0-0.25495 0.20599-0.46289 0.46094-0.46289zm6.4629 0h4.6152c0.25495 0 0.46143 0.20598 0.46094 0.46094v4.6152c0 0.25495-0.20794 0.46289-0.46289 0.46289h-4.6132c-0.25495 0-0.46289-0.20794-0.46289-0.46289v-4.6132c0-0.25495 0.20794-0.46289 0.46289-0.46289zm-4.7441 0.92383c0.0794 0.1361 0.1289 0.29179 0.1289 0.46093 0 0.50991-0.41392 0.92383-0.92382 0.92383-0.16915 0-0.32484-0.0495-0.46094-0.1289v1.1797c0.1361-0.0794 0.29179-0.1289 0.46094-0.1289 0.5099 0 0.92382 0.41392 0.92382 0.92382 0 0.16915-0.0495 0.32484-0.1289 0.46094h1.1797c-0.0794-0.1361-0.1289-0.29179-0.1289-0.46094 0-0.5099 0.41392-0.92382 0.92383-0.92382 0.16914 0 0.32483 0.0495 0.46093 0.1289v-1.1797c-0.1361 0.0794-0.29179 0.1289-0.46093 0.1289-0.50991 0-0.92383-0.41392-0.92383-0.92383 0-0.16914 0.0495-0.32483 0.1289-0.46093h-1.1797zm5.2051 0v0.73242l0.73242-0.73242h-0.73242zm2.0371 0-2.0371 2.0371v1.002l3.0391-3.0391h-1.002zm1.6543 0.65234-3.0391 3.0391h1.002l2.0371-2.0371v-1.002zm-8.3066 0.26953a0.92315 0.92315 0 0 1 0.92383 0.92383 0.92315 0.92315 0 0 1-0.92383 0.92383 0.92315 0.92315 0 0 1-0.92383-0.92383 0.92315 0.92315 0 0 1 0.92383-0.92383zm8.3066 2.0371-0.73242 0.73242h0.73242v-0.73242z" fill="currentColor"/>
</svg>
