<svg viewBox="0 0 22 22" xmlns="http://www.w3.org/2000/svg">
<defs>
<style id="current-color-scheme" type="text/css">.ColorScheme-Text {
        color:#dedede
      }</style>
</defs>
<path class="ColorScheme-Text" d="m1.7422 3v1.2109h3.9043l-4.0195 4.6953v1.1523h5.7051v-1.209h-4.0762l4.0195-4.6973v-1.1523h-5.5332zm3.0801 8.4805c-0.7875 0-1.4222 0.18193-1.9023 0.54688-0.48019 0.35534-0.80158 0.7454-0.96484 1.168l1.2109 0.51758c0.11524-0.31692 0.32549-0.56558 0.63281-0.74805 0.31692-0.18247 0.66663-0.27539 1.0508-0.27539 0.5186 0 0.95716 0.15964 1.3125 0.47656 0.35534 0.30732 0.5332 0.71968 0.5332 1.2383v0.20117c-0.49939-0.28811-1.1381-0.43164-1.916-0.43164-0.87394 0-1.6096 0.22034-2.2051 0.66211-0.59543 0.43217-0.89258 1.0325-0.89258 1.8008 0 0.71067 0.24865 1.2827 0.74805 1.7148 0.509 0.43217 1.1396 0.64844 1.8887 0.64844 1.018 0 1.7902-0.40423 2.3184-1.2109h0.058594v0.98047h1.2676v-4.2637c0-0.96037-0.2991-1.7042-0.89453-2.2324-0.59543-0.5282-1.3433-0.79297-2.2461-0.79297zm5.8105 1.4941c-0.18776-6.78e-4 -0.37579 0.070186-0.51953 0.21289-0.2876 0.28541-0.28943 0.74951-0.003906 1.0371l4.4883 4.5215c0.14278 0.14374 0.32988 0.21612 0.51758 0.2168 0.18779 6.79e-4 0.37579-0.070209 0.51953-0.21289l4.5215-4.4902c0.28774-0.28553 0.28957-0.74965 0.003906-1.0371-0.28541-0.28748-0.7516-0.28932-1.0391-0.003906l-4 3.9727-3.9707-4c-0.14276-0.14374-0.32982-0.21612-0.51758-0.2168zm-5.623 2.2949c0.74909 0 1.311 0.15362 1.6855 0.46094 0 0.55702-0.22636 1.0421-0.67773 1.4551-0.44177 0.40336-0.93696 0.60352-1.4844 0.60352-0.38415 0-0.72377-0.099103-1.0215-0.30078-0.29772-0.20168-0.44727-0.47653-0.44727-0.82226 0-0.37454 0.16371-0.70001 0.49023-0.97852s0.81163-0.41797 1.4551-0.41797z" fill="currentColor"/>
</svg>
