<svg width="22" height="22" viewBox="2.957 3 16.09 16" xmlns="http://www.w3.org/2000/svg">
<defs>
<style id="current-color-scheme" type="text/css">.ColorScheme-Text {
        color:#f2f2f2
      }</style>
</defs>
<path class="ColorScheme-Text" d="m3.3574 3c-0.2216 0-0.40039 0.17879-0.40039 0.40039v15.199c0 0.2216 0.17879 0.40039 0.40039 0.40039h6.1992c0.2216 0 0.40039-0.17879 0.40039-0.40039v-15.199c0-0.2216-0.17879-0.40039-0.40039-0.40039h-6.1992zm8.0859 0c-0.2216 0-0.40039 0.17879-0.40039 0.40039v15.199c0 0.2216 0.17879 0.40039 0.40039 0.40039h7.1992c0.2216 0 0.40039-0.17879 0.40039-0.40039v-15.199c0-0.2216-0.17879-0.40039-0.40039-0.40039h-7.1992z" fill="currentColor"/>
</svg>
