<svg viewBox="0 0 22 22" xmlns="http://www.w3.org/2000/svg">
<defs>
<style id="current-color-scheme" type="text/css">.ColorScheme-Text {
        color:#f2f2f2
      }</style>
</defs>
<path class="ColorScheme-Text" d="m15.576 3c-0.6353 0-1.2194 0.15563-1.7559 0.46875-0.53652 0.31306-0.96227 0.73887-1.2754 1.2754-0.31317 0.53652-0.46875 1.1226-0.46875 1.7578 0 0.6353 0.15569 1.2212 0.46875 1.7578 0.31312 0.53641 0.73887 0.96032 1.2754 1.2734 0.53652 0.31312 1.1206 0.4707 1.7559 0.4707s1.2213-0.15759 1.7578-0.4707c0.53647-0.31306 0.96227-0.73697 1.2754-1.2734 0.31306-0.53652 0.46875-1.1226 0.46875-1.7578 0-0.6353-0.15574-1.2213-0.46875-1.7578-0.31312-0.53647-0.73892-0.96227-1.2754-1.2754-0.53658-0.31312-1.1225-0.46875-1.7578-0.46875zm-9.1523 0.0039062c-0.6353 0-1.2213 0.15563-1.7578 0.46875-0.53652 0.31306-0.96227 0.73887-1.2754 1.2754-0.31317 0.53652-0.46875 1.1226-0.46875 1.7578 0 0.6353 0.15569 1.2212 0.46875 1.7578 0.31312 0.53641 0.73887 0.96032 1.2754 1.2734 0.53652 0.31312 1.1225 0.4707 1.7578 0.4707s1.2213-0.15759 1.7578-0.4707c0.53647-0.31306 0.96032-0.73697 1.2734-1.2734 0.31306-0.53652 0.46875-1.1226 0.46875-1.7578 0-0.6353-0.15574-1.2213-0.46875-1.7578-0.31312-0.53647-0.73697-0.96227-1.2734-1.2754-0.53658-0.31312-1.1225-0.46875-1.7578-0.46875zm9.0605 8.9434c-0.6353 0-1.2213 0.15759-1.7578 0.4707-0.53652 0.31306-0.96227 0.73691-1.2754 1.2734-0.31317 0.53652-0.46875 1.1226-0.46875 1.7578 0 0.6353 0.15569 1.2212 0.46875 1.7578 0.31312 0.53641 0.73887 0.96227 1.2754 1.2754 0.53652 0.31312 1.1206 0.46875 1.7559 0.46875s1.2213-0.15563 1.7578-0.46875c0.53647-0.31306 0.96227-0.73892 1.2754-1.2754 0.31306-0.53652 0.46875-1.1226 0.46875-1.7578 0-0.6353-0.15574-1.2213-0.46875-1.7578-0.31312-0.53647-0.73892-0.96032-1.2754-1.2734-0.53658-0.31312-1.1205-0.4707-1.7559-0.4707zm-8.9863 0.048828c-0.6353 0-1.2213 0.15759-1.7578 0.4707-0.53652 0.31306-0.96032 0.73691-1.2734 1.2734-0.31317 0.53652-0.4707 1.1226-0.4707 1.7578 0 0.6353 0.15764 1.2212 0.4707 1.7578 0.31312 0.53641 0.73691 0.96227 1.2734 1.2754s1.1225 0.46875 1.7578 0.46875 1.2213-0.15563 1.7578-0.46875c0.53647-0.31306 0.96032-0.73892 1.2734-1.2754 0.31306-0.53652 0.4707-1.1226 0.4707-1.7578 0-0.6353-0.1577-1.2213-0.4707-1.7578-0.31312-0.53647-0.73697-0.96032-1.2734-1.2734-0.53658-0.31312-1.1225-0.4707-1.7578-0.4707z" fill="currentColor"/>
</svg>
