<svg viewBox="0 0 22 22" xmlns="http://www.w3.org/2000/svg">
<defs>
<style id="current-color-scheme" type="text/css">.ColorScheme-Text {
        color:#f2f2f2
      }</style>
</defs>
<path class="ColorScheme-Text" d="m6.4688 3c-0.6371 0-1.2257 0.15669-1.7637 0.4707-0.53804 0.31394-0.96334 0.7393-1.2773 1.2773-0.31406 0.53804-0.4707 1.1266-0.4707 1.7637s0.15675 1.2236 0.4707 1.7617c0.314 0.53793 0.73929 0.9653 1.2773 1.2793 0.53804 0.314 1.1266 0.4707 1.7637 0.4707s1.2237-0.1567 1.7617-0.4707c0.28914-0.16873 0.5451-0.37202 0.76953-0.60547v7.0527h3.0566c0.062446 0.44291 0.20563 0.86121 0.43359 1.252 0.31401 0.53793 0.74126 0.96333 1.2793 1.2773 0.53804 0.314 1.1246 0.4707 1.7617 0.4707s1.2257-0.1567 1.7637-0.4707c0.53799-0.31395 0.96334-0.73935 1.2773-1.2773 0.31395-0.53804 0.4707-1.1266 0.4707-1.7637 0-0.63709-0.15681-1.2237-0.4707-1.7617-0.314-0.53798-0.73936-0.9653-1.2773-1.2793-0.5381-0.314-1.1265-0.4707-1.7637-0.4707-0.6371 0-1.2237 0.1567-1.7617 0.4707-0.53804 0.31395-0.9653 0.74126-1.2793 1.2793-0.23213 0.39768-0.37696 0.82166-0.4375 1.2734h-2.0527v-8h2.0117c0.060551 0.45177 0.20546 0.87572 0.4375 1.2734 0.31401 0.53793 0.7393 0.9653 1.2773 1.2793 0.53804 0.314 1.1266 0.4707 1.7637 0.4707s1.2237-0.1567 1.7617-0.4707c0.53799-0.31395 0.96333-0.74132 1.2773-1.2793 0.31394-0.53804 0.4707-1.1247 0.4707-1.7617 0-0.6371-0.15681-1.2257-0.4707-1.7637-0.314-0.53799-0.73936-0.96334-1.2773-1.2773-0.5381-0.31401-1.1246-0.4707-1.7617-0.4707s-1.2257 0.15669-1.7637 0.4707c-0.53804 0.31394-0.96334 0.7393-1.2773 1.2773-0.22806 0.3907-0.37116 0.80904-0.43359 1.252h-2.0723c-0.062429-0.44294-0.20566-0.8613-0.43359-1.252-0.314-0.53799-0.74131-0.96334-1.2793-1.2773-0.5381-0.31401-1.1246-0.4707-1.7617-0.4707z" fill="currentColor"/>
</svg>
