<svg width="22" height="22" viewBox="1 3 20 16" xmlns="http://www.w3.org/2000/svg">
<defs>
<style id="current-color-scheme" type="text/css">.ColorScheme-Text {
        color:#f2f2f2
      }</style>
</defs>
<path class="ColorScheme-Text" d="m1.7093 3c-0.39346 0-0.70928 0.33678-0.70928 0.75391v14.492c0 0.41713 0.31582 0.75391 0.70928 0.75391h18.581c0.39346 0 0.70928-0.33678 0.70928-0.75391v-14.492c0-0.41713-0.31582-0.75391-0.70928-0.75391h-18.581zm6.6194 3.3008c0.37562 0 0.72182 0.0967 1.039 0.29297 0.31716 0.19625 0.56839 0.46259 0.7535 0.79883 0.17782 0.32308 0.26571 0.67636 0.27266 1.0566v-0.27344h1.1828v0.31836c0-0.39815 0.093-0.76529 0.27819-1.1016 0.18512-0.33628 0.43631-0.60261 0.7535-0.79883 0.31716-0.19625 0.66347-0.29297 1.039-0.29297 0.37563 0 0.72183 0.0967 1.0391 0.29297 0.31716 0.19625 0.56838 0.46259 0.75349 0.79883 0.18505 0.33624 0.27635 0.70338 0.27635 1.1016 0 0.39815-0.0912 0.76529-0.27635 1.1016-0.18511 0.33624-0.43633 0.60261-0.75349 0.79883-0.31717 0.19625-0.66347 0.29492-1.0391 0.29492-0.37558 0-0.72185-0.0987-1.039-0.29492-0.31719-0.19625-0.56839-0.46262-0.7535-0.79883-0.18508-0.33631-0.27819-0.70337-0.27819-1.1016v0.30859h-1.1828v1.2539 3.7637h1.2086v0.26953c3e-3 -0.3919 0.0938-0.75423 0.27635-1.0859 0.18511-0.33628 0.43631-0.60261 0.7535-0.79883 0.31716-0.19625 0.66347-0.29492 1.039-0.29492 0.37563 0 0.72183 0.0987 1.0391 0.29492 0.31716 0.19625 0.56838 0.46258 0.75349 0.79883 0.18505 0.33624 0.2782 0.70337 0.2782 1.1016 0 0.39815-0.0931 0.76529-0.2782 1.1016-0.18511 0.33624-0.43633 0.60261-0.75349 0.79883-0.31716 0.19625-0.66347 0.29492-1.0391 0.29492-0.37558 0-0.72185-0.0987-1.039-0.29492-0.31719-0.19625-0.56839-0.46262-0.7535-0.79883-0.18257-0.33174-0.27385-0.694-0.27635-1.0859v0.32618h-1.2086-0.59137v-4.3906c0.32192-0.34246 0.53063-0.75321 0.59137-1.2539v-0.26367c-7e-3 0.38025-0.0948 0.73352-0.27266 1.0566-0.18511 0.33624-0.43634 0.60261-0.7535 0.79883-0.31716 0.19625-0.66346 0.29492-1.039 0.29492s-0.72187-0.0987-1.0391-0.29492c-0.3172-0.19625-0.56839-0.46262-0.7535-0.79883-0.18509-0.33631-0.27819-0.70337-0.27819-1.1016 0-0.39815 0.093-0.76529 0.27819-1.1016 0.18511-0.33628 0.4363-0.60261 0.7535-0.79883 0.31716-0.19625 0.66347-0.29297 1.0391-0.29297zm2.0652 2.2383c2.8e-4 -0.0155 6e-3 -0.0293 6e-3 -0.0449s-6e-3 -0.0294-6e-3 -0.0449v0.0898zm1.2086 5.582v-0.0312c-3e-5 5e-3 -2e-3 0.0102-2e-3 0.0156 0 5e-3 2e-3 0.0102 2e-3 0.0156z" fill="currentColor"/>
</svg>
