<svg version="1.1" viewBox="0 0 22 22" xmlns="http://www.w3.org/2000/svg">
<defs>
<style id="current-color-scheme" type="text/css">.ColorScheme-Text {
        color:#dedede
      }</style>
</defs>
<path class="ColorScheme-Text" d="m3.5674 4.2c-0.31477 0-0.56743 0.26944-0.56743 0.60313v11.594c0 0.33368 0.25266 0.60312 0.56743 0.60312h14.865c0.31477 0 0.56743-0.26944 0.56743-0.60312v-11.594c0-0.33368-0.25266-0.60313-0.56743-0.60313h-14.865zm8.7856 3.2c0.13692 0 0.27424 0.055208 0.37877 0.16563 0.20907 0.22085 0.20907 0.57889 0 0.8l-2.3287 2.2344 2.3287 2.2344c0.20907 0.22111 0.20907 0.57889 0 0.8-0.20907 0.22111-0.54701 0.22111-0.75608 0l-2.7104-2.5984c-0.11297-0.11962-0.16259-0.2793-0.15328-0.43594-0.00928-0.15637 0.04032-0.31633 0.15328-0.43594l2.7104-2.5984c0.10453-0.11042 0.24038-0.16563 0.3773-0.16563z" color="#dedede" fill="currentColor"/>
</svg>
