<svg width="22" height="22" version="1.1" viewBox="3 5.484 16 11.03" xmlns="http://www.w3.org/2000/svg">
<g transform="translate(-544.57 -742.93)">
<g transform="translate(0 -.53516)">
<g transform="translate(-1.5191e-7 -.48438)" fill="#f2f2f2">
<path d="m561.1 749.47c-0.8178 0-1.5257 0.72285-1.5238 1.5231-2e-3 0.80023 0.70601 1.4769 1.5238 1.4769 0.81779 0 1.4781-0.6767 1.4762-1.4769 2e-3 -0.80022-0.65839-1.5231-1.4762-1.5231z" color="#000000" style="block-progression:tb;text-decoration-line:none;text-indent:0;text-transform:none"/>
<path d="m562.1 756.47c-0.8178 0-1.5257 0.72285-1.5238 1.5231-2e-3 0.80023 0.70601 1.4769 1.5238 1.4769 0.81779 0 1.4781-0.6767 1.4762-1.4769 2e-3 -0.80022-0.65839-1.5231-1.4762-1.5231z" color="#000000" style="block-progression:tb;text-decoration-line:none;text-indent:0;text-transform:none"/>
<path d="m554.1 750.47c-0.8178 0-1.5257 0.72285-1.5238 1.5231-2e-3 0.80023 0.70601 1.4769 1.5238 1.4769 0.81779 0 1.4781-0.6767 1.4762-1.4769 2e-3 -0.80022-0.65839-1.5231-1.4762-1.5231z" color="#000000" style="block-progression:tb;text-decoration-line:none;text-indent:0;text-transform:none"/>
<path d="m556.6 757.47c-0.8178 0-1.5257 0.72285-1.5238 1.5231-2e-3 0.80023 0.70601 1.4769 1.5238 1.4769 0.81779 0 1.4781-0.6767 1.4762-1.4769 2e-3 -0.80022-0.65839-1.5231-1.4762-1.5231z" color="#000000" style="block-progression:tb;text-decoration-line:none;text-indent:0;text-transform:none"/>
<path d="m549.1 752.97c-0.8178 0-1.5257 0.72285-1.5238 1.5231-2e-3 0.80023 0.70601 1.4769 1.5238 1.4769 0.81779 0 1.4781-0.6767 1.4762-1.4769 2e-3 -0.80022-0.65839-1.5231-1.4762-1.5231z" color="#000000" style="block-progression:tb;text-decoration-line:none;text-indent:0;text-transform:none"/>
<path d="m561.35 749.44-0.71875 1.2812-3.9688 7.0625-2.125-5.9688-0.1875-0.53125-0.5 0.25-5 2.5 0.4375 0.875 4.5-2.25 2.3125 6.4688 0.375 1.0312 0.53125-0.9375 3.7812-6.7188 0.78125 5.5312 1-0.125-1-7-0.21875-1.4688z" color="#000000" style="block-progression:tb;text-decoration-line:none;text-indent:0;text-transform:none"/>
</g>
</g>
</g>
</svg>
