<svg viewBox="0 0 22 22" xmlns="http://www.w3.org/2000/svg">
<defs>
<style id="current-color-scheme" type="text/css">.ColorScheme-Text {
        color:#f2f2f2
      }</style>
</defs>
<path class="ColorScheme-Text" d="m6.625 3-3.252 0.0097656c-0.10335 3.3e-4 -0.19617 0.043528-0.26367 0.11133-0.06759 0.06777-0.10968 0.16053-0.10938 0.26367l0.0097656 3.2422c6.6e-4 0.2063 0.1702 0.37375 0.37695 0.37305 0.20673-6.6e-4 0.37367-0.16875 0.37305-0.375l-0.0097656-2.8691 2.877-0.0097656c0.2067-6.502e-4 0.3737-0.16683 0.37305-0.37305-5.7e-4 -0.20629-0.16814-0.37376-0.375-0.37305zm8.75 0c-0.20686-7.1e-4 -0.37444 0.16676-0.375 0.37305-6.5e-4 0.20622 0.16634 0.3724 0.37305 0.37305l2.877 0.0097656-0.009766 2.8691c-6.1e-4 0.20625 0.16633 0.37434 0.37305 0.375 0.20676 7e-4 0.37629-0.16675 0.37695-0.37305l0.009766-3.2422c3e-4 -0.10314-0.041785-0.1959-0.10938-0.26367-0.0675-0.0678-0.16032-0.111-0.26367-0.11133l-3.252-0.0097656zm-8.875 3c-0.27121 0-0.5 0.22879-0.5 0.5v9c0 0.27122 0.22879 0.5 0.5 0.5h9c0.27122 0 0.5-0.22878 0.5-0.5v-9c0-0.27121-0.22878-0.5-0.5-0.5h-9zm-3.1133 9c-0.20675-7e-4 -0.37629 0.16676-0.37695 0.37305l-0.0097656 3.2422c-3e-4 0.10313 0.041785 0.19589 0.10938 0.26367 0.0675 0.0678 0.16032 0.111 0.26367 0.11133l3.252 0.009766c0.20686 7.1e-4 0.37443-0.16675 0.375-0.37305 6.5e-4 -0.20621-0.16635-0.3724-0.37305-0.37305l-2.877-0.009765 0.0097656-2.8691c6.2e-4 -0.20624-0.16632-0.37433-0.37305-0.375zm15.227 0c-0.20672 6.7e-4 -0.37366 0.16876-0.37305 0.375l0.009766 2.8691-2.877 0.009765c-0.20671 6.5e-4 -0.3737 0.16684-0.37305 0.37305 5.6e-4 0.2063 0.16814 0.37376 0.375 0.37305l3.252-0.009766c0.10335-3.3e-4 0.19617-0.043528 0.26367-0.11133 0.06759-0.06778 0.10968-0.16054 0.10938-0.26367l-0.009766-3.2422c-6.6e-4 -0.20629-0.17019-0.37375-0.37695-0.37305z" fill="currentColor"/>
</svg>
