<svg viewBox="0 0 22 22" xmlns="http://www.w3.org/2000/svg">
<defs>
<style id="current-color-scheme" type="text/css">.ColorScheme-Text {
        color:#f2f2f2
      }</style>
</defs>
<path class="ColorScheme-Text" d="m6.625 3-3.252 0.0097656c-0.10335 3.3e-4 -0.19617 0.043528-0.26367 0.11133-0.06759 0.06777-0.10968 0.16053-0.10938 0.26367l0.0097656 3.2422c6.6e-4 0.2063 0.1702 0.37375 0.37695 0.37305 0.20673-6.6e-4 0.37366-0.16875 0.37305-0.375l-0.0097656-2.8691 2.877-0.0097656c0.20671-6.501e-4 0.3737-0.16683 0.37305-0.37305-5.7e-4 -0.20629-0.16813-0.37376-0.375-0.37305zm8.75 0c-0.20686-7.1e-4 -0.37444 0.16676-0.375 0.37305-6.5e-4 0.20622 0.16634 0.3724 0.37305 0.37305l2.877 0.0097656-0.009766 2.8691c-6.1e-4 0.20625 0.16633 0.37434 0.37305 0.375 0.20676 7e-4 0.37629-0.16675 0.37695-0.37305l0.009766-3.2422c3e-4 -0.10314-0.041785-0.1959-0.10938-0.26367-0.0675-0.0678-0.16032-0.111-0.26367-0.11133l-3.252-0.0097656zm-9.9746 2c-0.2216 0-0.40039 0.17879-0.40039 0.40039v11.199c0 0.2216 0.17879 0.40039 0.40039 0.40039h3.1992c0.2216 0 0.40039-0.17879 0.40039-0.40039v-11.199c0-0.2216-0.17879-0.40039-0.40039-0.40039h-3.1992zm9 3c-0.2216 0-0.40039 0.17879-0.40039 0.40039v5.1992c0 0.2216 0.17879 0.40039 0.40039 0.40039h2.1992c0.2216 0 0.40039-0.17879 0.40039-0.40039v-5.1992c0-0.2216-0.17879-0.40039-0.40039-0.40039h-2.1992zm-3.9902 0.99414c-0.10473-8e-5 -0.20878 0.039358-0.28906 0.11719h-0.001953c-0.16103 0.15543-0.15966 0.41977 0.001953 0.57422l1.3691 1.3086-1.3594 1.3164c-0.16106 0.15546-0.15976 0.41982 0.001953 0.57422 0.16162 0.15499 0.41942 0.1538 0.58008-0.001954l1.6152-1.5645 0.042969-0.041015c0.08-0.0777 0.12539-0.18273 0.125-0.28711-3.2e-4 -0.10422-0.044-0.20793-0.125-0.28516l-1.6719-1.5937c-0.08086-0.07751-0.18433-0.11711-0.28906-0.11719zm-7.0234 6.0059c-0.20675-7e-4 -0.37629 0.16676-0.37695 0.37305l-0.0097656 3.2422c-3e-4 0.10313 0.041785 0.19589 0.10938 0.26367 0.0675 0.0678 0.16032 0.111 0.26367 0.11133l3.252 0.009766c0.20686 7.1e-4 0.37443-0.16675 0.375-0.37305 6.5e-4 -0.20621-0.16635-0.3724-0.37305-0.37305l-2.877-0.009765 0.0097656-2.8691c6.2e-4 -0.20624-0.16632-0.37433-0.37305-0.375zm15.227 0c-0.20672 6.7e-4 -0.37366 0.16876-0.37305 0.375l0.009766 2.8691-2.877 0.009765c-0.20671 6.5e-4 -0.3737 0.16684-0.37305 0.37305 5.6e-4 0.2063 0.16814 0.37376 0.375 0.37305l3.252-0.009766c0.10335-3.3e-4 0.19617-0.043528 0.26367-0.11133 0.06759-0.06778 0.10968-0.16054 0.10938-0.26367l-0.009766-3.2422c-6.6e-4 -0.20629-0.17019-0.37375-0.37695-0.37305z" fill="currentColor"/>
</svg>
