<svg width="22" height="22" viewBox="3 3 16 16" xmlns="http://www.w3.org/2000/svg">
<defs>
<style id="current-color-scheme" type="text/css">.ColorScheme-Text {
        color:#f2f2f2
      }</style>
</defs>
<path class="ColorScheme-Text" d="m3 7.5313 0.0137-4.0644c4.2e-4 -0.1292 0.052-0.24558 0.13672-0.33008 0.0847-0.0844 0.20117-0.1371 0.33008-0.13672l4.0547 0.0137c0.25786 8.2e-4 0.46572 0.21029 0.46484 0.46875-8.2e-4 0.25842-0.21094 0.46757-0.46875 0.4668l-3.5859-0.0117-0.0117 3.5957c-8.1e-4 0.25841-0.211 0.46762-0.46875 0.46679-0.25787-7e-4 -0.46574-0.21017-0.46485-0.46875zm0 6.4141h2.8574l2.1426-7.9453 2.1426 7.9453h2.8574l-5 5.0547-5-5.0547zm10-10.346c0-0.3324 0.26721-0.59961 0.59961-0.59961h4.8008c0.3324 0 0.59961 0.26721 0.59961 0.59961v4.8008c0 0.3324-0.26721 0.59961-0.59961 0.59961h-4.8008c-0.3324 0-0.59961-0.26721-0.59961-0.59961v-4.8008zm1 14.918c8.2e-4 -0.25842 0.21095-0.46757 0.46875-0.4668l3.5859 0.0117 0.0117-3.5957c8.1e-4 -0.25841 0.211-0.46763 0.46875-0.4668 0.25787 6.9e-4 0.46573 0.21017 0.46484 0.46875l-0.0137 4.0645c-4.3e-4 0.12919-0.052 0.24557-0.13672 0.33007-0.0847 0.0843-0.20117 0.1371-0.33008 0.13672l-4.0547-0.0137c-0.25786-8.3e-4 -0.46573-0.21029-0.46485-0.46875z" fill="currentColor"/>
</svg>
