<svg width="22" height="22" viewBox="3 3 16 16" xmlns="http://www.w3.org/2000/svg">
<defs>
<style id="current-color-scheme" type="text/css">.ColorScheme-Text {
        color:#f2f2f2
      }</style>
</defs>
<path class="ColorScheme-Text" d="m7.5312 3-4.0645 0.013672c-0.12919 4.3e-4 -0.24558 0.051999-0.33008 0.13672-0.0843 0.0847-0.1371 0.20117-0.13672 0.33008l0.013672 4.0547c8.3e-4 0.25786 0.21029 0.46572 0.46875 0.46484 0.25842-8.2e-4 0.46757-0.21095 0.4668-0.46875l-0.011719-3.5859 3.5957-0.011719c0.25841-8.101e-4 0.46763-0.211 0.4668-0.46875-6.9e-4 -0.25787-0.21017-0.46573-0.46875-0.46484zm6.0684 0c-0.3324 0-0.59961 0.26721-0.59961 0.59961v4.8008c0 0.3324 0.26721 0.59961 0.59961 0.59961h4.8008c0.3324 0 0.59961-0.26721 0.59961-0.59961v-4.8008c0-0.3324-0.26721-0.59961-0.59961-0.59961h-4.8008zm-5.5449 6-5.0547 5 5.0547 5v-2.8574l7.9453-2.1426-7.9453-2.1426v-2.8574zm10.463 5c-0.25842 8.2e-4 -0.46757 0.21094-0.4668 0.46875l0.011719 3.5859-3.5957 0.011718c-0.25841 8.1e-4 -0.46763 0.211-0.4668 0.46875 7e-4 0.25787 0.21017 0.46573 0.46875 0.46484l4.0645-0.013672c0.1292-4.2e-4 0.24558-0.051999 0.33008-0.13672 0.0844-0.0847 0.1371-0.20117 0.13672-0.33008l-0.013672-4.0547c-8.2e-4 -0.25786-0.21029-0.46572-0.46875-0.46484z" fill="currentColor"/>
</svg>
