<svg viewBox="0 0 22 22" xmlns="http://www.w3.org/2000/svg">
<defs>
<style id="current-color-scheme" type="text/css">.ColorScheme-Text {
        color:#f2f2f2
      }</style>
</defs>
<path class="ColorScheme-Text" d="m11.019 3c-0.10786 3.9e-4 -0.2171 0.0428-0.29869 0.125l-1.6828 1.6973c-0.0817 0.0823-0.12338 0.1903-0.12299 0.29882 3.9e-4 0.10853 0.0428 0.21719 0.12494 0.29883 0.16439 0.16325 0.43414 0.16231 0.59736-2e-3l1.386-1.3965 1.3958 1.3867c0.16438 0.16329 0.43416 0.16237 0.59737-2e-3 0.16328-0.16445 0.1623-0.43439-2e-3 -0.59766l-1.6964-1.6855c-0.0822-0.0816-0.19075-0.12344-0.29868-0.12305zm-4.2772 0.10742-3.1859 0.01c-0.10129 3.3e-4 -0.19346 0.0427-0.25963 0.10937-0.0662 0.0666-0.10767 0.15839-0.10737 0.25977l0.0117 3.1875c6.5e-4 0.20279 0.16437 0.36592 0.36701 0.36523 0.20261-6.4e-4 0.36762-0.16443 0.36701-0.36718l-0.01-2.8203 2.8189-0.01c0.2026-6.4e-4 0.36766-0.16643 0.36701-0.36914-5.5e-4 -0.20278-0.16622-0.36594-0.36895-0.36524zm8.5465 0c-0.20273-7e-4 -0.36841 0.16246-0.36896 0.36524-6.4e-4 0.20271 0.16246 0.3685 0.36506 0.36914l2.8209 0.01-0.01 2.8203c-6.1e-4 0.20275 0.16244 0.36654 0.36505 0.36718 0.20264 6.9e-4 0.36831-0.16244 0.36896-0.36523l0.01-3.1875c3e-4 -0.10138-0.0412-0.19315-0.10736-0.25977-0.0662-0.0667-0.15641-0.10904-0.2577-0.10937zm-7.7247 3.9492c-0.26128 0-0.47243 0.2093-0.47243 0.4707v6.9219c0 0.2614 0.21115 0.4707 0.47243 0.4707h6.9165c0.26127 0 0.47243-0.2093 0.47243-0.4707v-6.9219c0-0.2614-0.21116-0.4707-0.47243-0.4707zm-4.0234 7.8633c-0.20264-6.9e-4 -0.36831 0.1644-0.36896 0.36719l-0.01 3.1875c-3e-4 0.10138 0.0393 0.19314 0.10542 0.25977 0.0662 0.0667 0.15834 0.10709 0.25963 0.10742l3.1859 0.01c0.20273 7e-4 0.36841-0.16245 0.36896-0.36523 6.5e-4 -0.20271-0.16245-0.36655-0.36505-0.36719l-2.8209-0.01 0.01-2.8203c6.1e-4 -0.20275-0.16244-0.3685-0.36505-0.36914zm14.893 0c-0.20261 6.4e-4 -0.36761 0.16639-0.367 0.36914l0.01 2.8203-2.8189 0.01c-0.2026 6.4e-4 -0.36765 0.16448-0.367 0.36719 5.5e-4 0.20278 0.16623 0.36789 0.36896 0.36719l3.1859-0.0117c0.10129-3.3e-4 0.19346-0.0407 0.25963-0.10742 0.0662-0.0666 0.10767-0.15839 0.10737-0.25977l-0.0117-3.1875c-6.5e-4 -0.20279-0.16436-0.36788-0.367-0.36719zm-9.0951 1.5391c-0.10845-3.7e-4 -0.21649 0.0395-0.29868 0.1211-0.0822 0.0816-0.12455 0.1903-0.12494 0.29883-3.9e-4 0.10852 0.0413 0.21662 0.12299 0.29882l1.6828 1.6973c0.0816 0.0821 0.19083 0.12461 0.29869 0.125 0.10793 3.9e-4 0.21652-0.0415 0.29868-0.12305l1.6964-1.6855c0.16426-0.16327 0.16524-0.43321 2e-3 -0.59766-0.16321-0.16432-0.43299-0.16524-0.59737-2e-3l-1.3958 1.3867-1.386-1.3965c-0.0816-0.0821-0.19023-0.12267-0.29868-0.12305z" fill="currentColor"/>
</svg>
