<svg width="16" height="16" version="1.1" xmlns="http://www.w3.org/2000/svg">
<g transform="translate(-313 212)" fill="#bebebe">
<path d="m323.82-209.08c-0.51724 0.0289-0.89399 0.45912-1.2179 0.81961-0.31299 0.40363-0.63204 0.84439-0.72013 1.3583-4.4e-4 0.15361 0.19053 0.22826 0.27388 0.34769 0.3157 0.28394 0.64079 0.71588 0.44008 1.1577-0.28282 0.56132-0.8168 0.93361-1.2288 1.3941-0.33373 0.33495-0.76097 0.7905-1.282 0.5974-0.38647-0.14676-0.61392-0.50331-0.91524-0.74631-0.4169 0.0323-0.7847 0.29108-1.1334 0.50474-0.44691 0.3241-0.90981 0.72224-1.0719 1.2696-0.0953 0.43568 0.36229 0.66962 0.64528 0.89893 0.70695 0.51212 1.6566 0.5798 2.4646 0.2866 1.3013-0.4622 2.3499-1.424 3.2734-2.4202 0.78929-0.89761 1.543-1.9501 1.6441-3.1784 0.0693-0.86385-0.37093-1.7203-1.0365-2.251l-0.0669-0.0264-0.0683-0.0122z" enable-background="new"/>
<path d="m323.91-202c-0.78136 0.64834-1.703 1.2511-2.8438 1.6562-1.6139 0.58567-3.5818 0.50692-5.1875-0.65625-0.0425-0.0301-0.0842-0.0614-0.125-0.0937 0.0583 0.0472-0.12967-0.067-0.375-0.28125l-1.375 1.375v3h14v-3l-2-2zm-0.40625 1.7969c0.38953 0 0.70313 0.3136 0.70313 0.70313s-0.3136 0.70313-0.70313 0.70313-0.70313-0.3136-0.70313-0.70313 0.3136-0.70313 0.70313-0.70313zm2 0.0234c0.37655 0 0.67969 0.30314 0.67969 0.67969s-0.30314 0.67969-0.67969 0.67969-0.67969-0.30314-0.67969-0.67969 0.30314-0.67969 0.67969-0.67969z" color="#000000" enable-background="new"/>
</g>
</svg>
