<svg width="64" height="64" version="1.1" viewBox="0 0 64 64" xmlns="http://www.w3.org/2000/svg">
<defs>
<linearGradient id="linearGradient1082" x1="40" x2="46" y1="17" y2="11" gradientTransform="translate(-.021093 -1)" gradientUnits="userSpaceOnUse">
<stop stop-color="#fefefe" offset="0"/>
<stop stop-color="#e9e9e9" offset="1"/>
</linearGradient>
<linearGradient id="linearGradient1080" x1="21.039" x2="21.039" y1="2" y2="62" gradientTransform="translate(-.021092 -1)" gradientUnits="userSpaceOnUse">
<stop stop-color="#7492e9" offset="0"/>
<stop stop-color="#3d58a5" offset="1"/>
</linearGradient>
</defs>
<image x="6.5" y="-.11648" width="51" height="64.616" image-rendering="optimizeQuality" preserveAspectRatio="none"/>
<path d="m35.979 0.99609-25 0.00391c-1.108 0-2 0.89202-2 2v55.998c0 1.108 0.89202 2 2 2h42c1.108 0 2-0.89202 2-2v-39.002c0-0.53515-0.18132-1.2447-0.55664-2.002h-14.443c-1.1081 0-2-0.892-2-2v-14.572c-0.75434-0.33232-1.4705-0.42578-2-0.42578z" fill="url(#linearGradient1080)"/>
<image x="25.783" y="1" width="29.193" height="29.006" image-rendering="optimizeQuality" opacity=".75" preserveAspectRatio="none"/>
<path d="m37.979 1.4189v14.575c0 1.108 0.89202 2.0001 2.0001 2.0001h14.465c-0.32607-0.65878-0.79761-1.3523-1.4453-2.0001l-13-13c-0.62957-0.79666-1.3298-1.2789-2.0001-1.5742z" fill="url(#linearGradient1082)" stroke-width="3.7796"/>
<path d="m22 27.004c-0.554 0-1 0.446-1 1v20c0 0.554 0.446 1 1 1h20c0.554 0 1-0.446 1-1v-20c0-0.554-0.446-1-1-1zm15.5 2.5 3 2.9961-2.5 2.5v9h-3v2h-5v-2h-4v-9.0508c-1.1624-0.23728-1.998-1.2589-2-2.4453 0-1.3807 1.1193-2.5 2.5-2.5 1.1879 1.38e-4 2.2116 0.83613 2.4492 2h6.0508zm-8.5605 3.5c-0.1999 0.9805-0.96522 1.7474-1.9453 1.9492v8.0508h3v-2h5v2h2v-8l-2-2z" fill="#fff" opacity=".75"/>
</svg>
