<svg width="64" height="64" version="1.1" xmlns="http://www.w3.org/2000/svg">
<defs>
<clipPath id="a">
<path d="m302 290a8 8 0 1 1-16 0 8 8 0 1 1 16 0z" color="#bebebe" fill="#ddd" opacity=".5" overflow="visible"/>
</clipPath>
<linearGradient id="linearGradient1082" x1="40" x2="46" y1="17" y2="11" gradientTransform="translate(-.019793 -1)" gradientUnits="userSpaceOnUse">
<stop stop-color="#fefefe" offset="0"/>
<stop stop-color="#e9e9e9" offset="1"/>
</linearGradient>
<linearGradient id="linearGradient1080" x1="21.039" x2="21.039" y1="2" y2="62" gradientTransform="translate(-9.19e-5 -1)" gradientUnits="userSpaceOnUse">
<stop stop-color="#52d0ff" offset="0"/>
<stop stop-color="#08f" offset="1"/>
</linearGradient>
</defs>
<image x="6.5" y="-.11648" width="51" height="64.616" image-rendering="optimizeQuality" preserveAspectRatio="none"/>
<path d="m36 0.99609-25 0.00391c-1.108 0-2 0.89202-2 2v55.998c0 1.108 0.89202 2 2 2h42c1.108 0 2-0.89202 2-2v-39.002c0-0.53515-0.18131-1.2447-0.55664-2.002h-14.443c-1.1081 0-2-0.892-2-2v-14.572c-0.75434-0.33232-1.4705-0.42578-2-0.42578z" fill="url(#linearGradient1080)"/>
<image x="25.783" y="1" width="29.193" height="29.006" image-rendering="optimizeQuality" opacity=".75" preserveAspectRatio="none"/>
<path d="m37.98 1.4189v14.575c0 1.108 0.89202 2.0001 2.0001 2.0001h14.465c-0.32607-0.65878-0.79761-1.3523-1.4453-2.0001l-13-13c-0.62957-0.79666-1.3298-1.2789-2.0001-1.5742z" fill="url(#linearGradient1082)" stroke-width="3.7796"/>
<g transform="translate(0,1.992)" stroke-width=".839">
<path d="m35.546 20.589-14.517 1.84 1.037 2.287 10.511-1.553 3.801 3.912 6.125-1.073zm-2.846 6.913-9.999 1.698 0.974 2.555 5.44-1.027 1.394 2.41 5.762-1.241zm-3.273 8.075-4.945 1.083 0.948 2.767 5.338-1.349z" fill="#fff"/>
</g>
<g transform="translate(-.2267 .99882)" stroke-width=".839">
<path transform="matrix(1.7399 0 0 2.0851 -462.12 -572.14)" d="m293 295.5c0 1.38-1.343 2.5-3 2.5s-3-1.12-3-2.5 1.343-2.5 3-2.5 3 1.12 3 2.5z" color="#bebebe" fill="none" opacity=".2" overflow="visible" stroke="#fff" stroke-linecap="round" stroke-width=".656"/>
<path transform="matrix(1.7399 0 0 2.0851 -462.12 -572.14)" d="m287 295.51c-7e-3 -1.38 1.33-2.504 2.987-2.51s3.006 1.109 3.013 2.49c7e-3 1.377-1.324 2.5-2.977 2.51" color="#bebebe" fill="none" overflow="visible" stroke="#fff" stroke-linecap="round" stroke-width=".656"/>
<path transform="matrix(.74566 0 0 .74467 -176.78 -171.96)" d="m287 294-3.057-5.029h6.057z" clip-path="url(#a)" fill="#fff"/>
</g>
</svg>
