<svg width="64" height="64" version="1.1" viewBox="0 0 64 64" xmlns="http://www.w3.org/2000/svg">
<defs>
<linearGradient id="linearGradient1082" x1="40" x2="46" y1="17" y2="11" gradientTransform="translate(-.021093 -1)" gradientUnits="userSpaceOnUse">
<stop stop-color="#fefefe" offset="0"/>
<stop stop-color="#e9e9e9" offset="1"/>
</linearGradient>
<linearGradient id="linearGradient1080" x1="21.039" x2="21.039" y1="2" y2="62" gradientTransform="translate(-.021092 -1)" gradientUnits="userSpaceOnUse">
<stop stop-color="#73e94f" offset="0"/>
<stop stop-color="#19c262" offset="1"/>
</linearGradient>
</defs>
<image x="6.5" y="-.11648" width="51" height="64.616" image-rendering="optimizeQuality" preserveAspectRatio="none"/>
<path d="m35.979 0.99609-25 0.00391c-1.108 0-2 0.89202-2 2v55.998c0 1.108 0.89202 2 2 2h42c1.108 0 2-0.89202 2-2v-39.002c0-0.53515-0.18132-1.2447-0.55664-2.002h-14.443c-1.1081 0-2-0.892-2-2v-14.572c-0.75434-0.33232-1.4705-0.42578-2-0.42578z" fill="url(#linearGradient1080)"/>
<image x="25.783" y="1" width="29.193" height="29.006" image-rendering="optimizeQuality" opacity=".75" preserveAspectRatio="none"/>
<path d="m37.979 1.4189v14.575c0 1.108 0.89202 2.0001 2.0001 2.0001h14.465c-0.32607-0.65878-0.79761-1.3523-1.4453-2.0001l-13-13c-0.62957-0.79666-1.3298-1.2789-2.0001-1.5742z" fill="url(#linearGradient1082)" stroke-width="3.7796"/>
<g transform="matrix(.25 0 0 .25 -5.9994 -1)" enable-background="new" fill="#fff" shape-rendering="auto">
<path d="m152 96c-33.104 0-60 26.898-60 60s26.896 60 60 60 60-26.898 60-60-26.896-60-60-60zm2e-3 6a54 54 0 0 1 54 54 54 54 0 0 1-54 54 54 54 0 0 1-54-54 54 54 0 0 1 54-54z" color="#000000" color-rendering="auto" enable-background="accumulate" image-rendering="auto" solid-color="#000000" style="isolation:auto;mix-blend-mode:normal;shape-padding:0;text-decoration-color:#000000;text-decoration-line:none;text-decoration-style:solid;text-indent:0;text-transform:none;white-space:normal"/>
<path d="m148 148v40l8 1e-5v-40z" color="#000000" color-rendering="auto" enable-background="accumulate" image-rendering="auto" solid-color="#000000" style="isolation:auto;mix-blend-mode:normal;shape-padding:0;text-decoration-color:#000000;text-decoration-line:none;text-decoration-style:solid;text-indent:0;text-transform:none;white-space:normal"/>
<path d="m152 126c-3.3137 1e-5 -6 2.6863-6 6 1e-5 3.3137 2.6863 6 6 6 3.3137-1e-5 6-2.6863 6-6-1e-5 -3.3137-2.6863-6-6-6z" color="#000000" color-rendering="auto" enable-background="accumulate" image-rendering="auto" solid-color="#000000" style="isolation:auto;mix-blend-mode:normal;shape-padding:0;text-decoration-color:#000000;text-decoration-line:none;text-decoration-style:solid;text-indent:0;text-transform:none;white-space:normal"/>
</g>
</svg>
