<svg width="64" height="64" version="1.1" viewBox="0 0 16.933 16.933" xmlns="http://www.w3.org/2000/svg">
<defs>
<linearGradient id="b" x1="-666.12" x2="-553.27" y1="413.04" y2="525.91" gradientTransform="matrix(.99884 0 0 .9987 689.01 -388.84)" gradientUnits="userSpaceOnUse"/>
<linearGradient id="c" x1="-553.27" x2="-666.12" y1="525.91" y2="413.05" gradientTransform="matrix(.99884 0 0 .9987 689.01 -388.84)" gradientUnits="userSpaceOnUse"/>
<linearGradient id="linearGradient1082" x1="40" x2="46" y1="17" y2="11" gradientTransform="matrix(.26458 0 0 .26458 -.0055806 -.26458)" gradientUnits="userSpaceOnUse">
<stop stop-color="#fefefe" offset="0"/>
<stop stop-color="#e9e9e9" offset="1"/>
</linearGradient>
<linearGradient id="linearGradient984" x1="45.801" x2="9.8016" y1="9.9999" y2="61" gradientTransform="matrix(.26458 0 0 .26458 .052471 -.26458)" gradientUnits="userSpaceOnUse">
<stop stop-color="#ededed" offset="0"/>
<stop stop-color="#fcfcfc" offset="1"/>
</linearGradient>
</defs>
<image x="1.7198" y="-.030818" width="13.493" height="17.096" image-rendering="optimizeQuality" preserveAspectRatio="none"/>
<path d="m9.525 0.26354-6.6145 0.0010345c-0.29315 0-0.52916 0.23601-0.52916 0.52916v14.816c0 0.29315 0.23601 0.52916 0.52916 0.52916h11.112c0.29315 0 0.52916-0.23601 0.52916-0.52916v-10.319c0-0.14159-0.04797-0.32932-0.14728-0.52969h-3.8213c-0.29318 0-0.52916-0.236-0.52916-0.52916v-3.8554c-0.19958-0.087925-0.38906-0.11265-0.52916-0.11265z" fill="url(#linearGradient984)" stroke-width=".26458"/>
<image x="6.8216" y=".26458" width="7.7238" height="7.6744" image-rendering="optimizeQuality" opacity=".75" preserveAspectRatio="none"/>
<path d="m10.048 0.37541v3.8562c0 0.29315 0.23601 0.52918 0.52918 0.52918h3.8271c-0.086271-0.1743-0.21103-0.35779-0.3824-0.52918l-3.4395-3.4395c-0.16657-0.21078-0.35184-0.33837-0.52918-0.4165z" fill="url(#linearGradient1082)"/>
<g transform="matrix(.049608 0 0 .049608 4.4978 6.345)" enable-background="new" fill-rule="evenodd">
<path d="m79.865 119.1c35.398 48.255 70.04-13.469 69.989-50.587-0.0602-43.886-44.541-68.414-70.018-68.414-40.892 0-79.836 33.796-79.836 80.036 0 51.396 44.64 79.865 79.836 79.865-7.9645-1.1468-34.506-6.834-34.863-67.967-0.23987-41.347 13.488-57.866 34.805-50.599 0.47743 0.17707 23.514 9.2645 23.514 38.951 0 29.56-23.427 38.715-23.427 38.715z" color="#000000" fill="url(#b)"/>
<path d="m79.823 41.401c-23.39-8.0619-52.043 11.216-52.043 49.829 0 63.048 46.721 68.77 52.384 68.77 40.892 0 79.836-33.796 79.836-80.036 0-51.396-44.64-79.865-79.836-79.865 9.7481-1.35 52.541 10.55 52.541 69.037 0 38.141-31.953 58.905-52.735 50.033-0.47743-0.17707-23.514-9.2645-23.514-38.951 0-29.56 23.367-38.818 23.367-38.818z" color="#000000" fill="url(#c)"/>
</g>
</svg>
