<svg width="64" height="64" version="1.1" viewBox="0 0 64 64" xmlns="http://www.w3.org/2000/svg">
<defs>
<linearGradient id="linearGradient1082" x1="40" x2="46" y1="17" y2="11" gradientTransform="translate(-.021093 -1)" gradientUnits="userSpaceOnUse">
<stop stop-color="#fefefe" offset="0"/>
<stop stop-color="#e9e9e9" offset="1"/>
</linearGradient>
<linearGradient id="linearGradient1080" x1="21.039" x2="21.039" y1="2" y2="62" gradientTransform="translate(-.021092 -1)" gradientUnits="userSpaceOnUse">
<stop stop-color="#8f8f8f" offset="0"/>
<stop stop-color="#515151" offset="1"/>
</linearGradient>
</defs>
<image x="6.5002" y="-.11648" width="50.998" height="64.616" image-rendering="optimizeQuality" preserveAspectRatio="none"/>
<path d="m35.979 0.99607-25 0.00391c-1.108 0-2 0.89202-2 2v55.999c0 1.108 0.89202 2 2 2h41.999c1.108 0 2-0.89202 2-2v-39.002c0-0.53515-0.18131-1.2447-0.55666-2.002h-14.443c-1.1081 0-2-0.89199-2-2v-14.572c-0.75433-0.33232-1.4705-0.42577-2-0.42577z" fill="url(#linearGradient1080)"/>
<image x="25.783" y="1" width="29.193" height="29.006" image-rendering="optimizeQuality" opacity=".75" preserveAspectRatio="none"/>
<path d="m37.977 1.4189v14.575c0 1.108 0.89202 2.0001 2.0001 2.0001h14.465c-0.32607-0.65878-0.79761-1.3523-1.4453-2.0001l-13-13c-0.62957-0.79666-1.3298-1.2789-2.0001-1.5742z" fill="url(#linearGradient1082)" stroke-width="3.7796"/>
<path d="m21 26v22h22v-22zm1 1h20v20h-20zm2 3v2h16v-2zm0 4v1h7v-1zm9 0v1h7v-1zm-9 3v1h7v-1zm9 0v1h7v-1zm-9 3v1h7v-1zm9 0v1h7v-1zm-9 3v1h7v-1zm9 0v1h7v-1z" color="#000000" color-rendering="auto" fill="#fff" image-rendering="auto" opacity=".9" shape-rendering="auto" solid-color="#000000" style="isolation:auto;mix-blend-mode:normal"/>
</svg>
