<svg width="64" height="64" version="1.1" viewBox="0 0 64 64" xmlns="http://www.w3.org/2000/svg">
<defs>
<linearGradient id="linearGradient1082" x1="40" x2="46" y1="17" y2="11" gradientTransform="translate(-.019793 -1)" gradientUnits="userSpaceOnUse">
<stop stop-color="#fefefe" offset="0"/>
<stop stop-color="#e9e9e9" offset="1"/>
</linearGradient>
<linearGradient id="linearGradient1080" x1="21.039" x2="21.039" y1="2" y2="62" gradientTransform="translate(-9.2e-5 -1)" gradientUnits="userSpaceOnUse">
<stop stop-color="#a270d1" offset="0"/>
<stop stop-color="#783aaf" offset="1"/>
</linearGradient>
</defs>
<image x="6.5" y="-.11648" width="51" height="64.616" image-rendering="optimizeQuality" preserveAspectRatio="none"/>
<path d="m36 0.99609-25 0.00391c-1.108 0-2 0.89202-2 2v55.998c0 1.108 0.89202 2 2 2h42c1.108 0 2-0.89202 2-2v-39.002c0-0.53515-0.18132-1.2447-0.55664-2.002h-14.443c-1.1081 0-2-0.892-2-2v-14.572c-0.75434-0.33232-1.4705-0.42578-2-0.42578z" fill="url(#linearGradient1080)"/>
<image x="25.783" y="1" width="29.193" height="29.006" image-rendering="optimizeQuality" opacity=".75" preserveAspectRatio="none"/>
<path d="m37.98 1.4189v14.575c0 1.108 0.89202 2.0001 2.0001 2.0001h14.465c-0.32607-0.65878-0.79761-1.3523-1.4453-2.0001l-13-13c-0.62957-0.79666-1.3298-1.2789-2.0001-1.5742z" fill="url(#linearGradient1082)" stroke-width="3.7796"/>
<path d="m32 26c-6.075 0-11 1.343-11 3v10a11 3 0 0 0 1 1.2422 11 3 0 0 0 0.0117 0.0059 11 3 0 0 0 0.47656 0.25195 11 3 0 0 0 0.0312 0.01367 11 3 0 0 0 0.55079 0.23242 11 3 0 0 0 0.0645 0.02344 11 3 0 0 0 0.58984 0.20117 11 3 0 0 0 0.13281 0.04102 11 3 0 0 0 0.65039 0.17969 11 3 0 0 0 0.0996 0.02539 11 3 0 0 0 0.77344 0.17578 11 3 0 0 0 0.0527 0.0098 11 3 0 0 0 0.81445 0.15039 11 3 0 0 0 0.13867 0.02344 11 3 0 0 0 0.7793 0.11523 11 3 0 0 0 0.2207 0.0293 11 3 0 0 0 0.73633 0.08203 11 3 0 0 0 0.36719 0.03711 11 3 0 0 0 0.53906 0.04492 11 3 0 0 0 0.5918 0.04102 11 3 0 0 0 0.49023 0.02539 11 3 0 0 0 0.57617 0.02344 11 3 0 0 0 0.4629 0.01367 11 3 0 0 0 0.84961 0.01163 11 3 0 0 0 0.95899-0.01367 11 3 0 0 0 0.41406-0.01367 11 3 0 0 0 0.7168-0.0293 11 3 0 0 0 0.3457-0.02148 11 3 0 0 0 0.70703-0.04883 11 3 0 0 0 0.31836-0.0293 11 3 0 0 0 0.76758-0.07617 11 3 0 0 0 0.17969-0.02148 11 3 0 0 0 0.80859-0.10742 11 3 0 0 0 0.21289-0.03516 11 3 0 0 0 0.67773-0.11133 11 3 0 0 0 0.3125-0.06055 11 3 0 0 0 0.59571-0.125 11 3 0 0 0 0.19531-0.04687 11 3 0 0 0 0.66211-0.16797 11 3 0 0 0 0.0137-0.0039 11 3 0 0 0 0.0234-0.0078 11 3 0 0 0 0.70117-0.21875 11 3 0 0 0 0.63672-0.24414 11 3 0 0 0 2e-3 0 11 3 0 0 0 6e-3 -2e-3 11 3 0 0 0 0.53516-0.25391 11 3 0 0 0 6e-3 -0.0039 11 3 0 0 0 0.20299-0.11522 11 3 0 0 0 1-1.2422v-10c0-1.657-4.925-3-11-3m0 16h-1v3h1v1h-8v-1h-3v3h3v-1h16v1h3v-3h-3v1h-7v-1h1v-3zm0-15c5.523 0 10 0.895 10 2s-4.477 2-10 2-10-0.895-10-2 4.477-2 10-2m-10 3.242c1.784 1.069 5.692 1.756 10 1.758 4.308-1e-3 8.216-0.688 10-1.758v3.758c0 1.105-4.477 2-10 2s-10-0.895-10-2zm0 5c1.784 1.069 5.692 1.756 10 1.758 4.308-1e-3 8.216-0.688 10-1.758v3.758a10 2 0 0 1-10 2 10 2 0 0 1-10-2v-2zm10 7.758h1v1h-1zm-10 3h1v1h-1zm19 0h1v1h-1z" fill="#fff" opacity=".75"/>
</svg>
