<svg width="64" height="64" version="1.1" viewBox="0 0 64 64" xmlns="http://www.w3.org/2000/svg">
<defs>
<style id="current-color-scheme" type="text/css">.ColorScheme-Text { color:#363636; }</style>
<linearGradient id="linearGradient1082-3" x1="40" x2="46" y1="17" y2="11" gradientTransform="translate(-.021092 -1)" gradientUnits="userSpaceOnUse">
<stop stop-color="#fefefe" offset="0"/>
<stop stop-color="#e9e9e9" offset="1"/>
</linearGradient>
<linearGradient id="linearGradient984-5" x1="45.801" x2="9.8016" y1="9.9999" y2="61" gradientTransform="translate(.19832 -1)" gradientUnits="userSpaceOnUse">
<stop stop-color="#ededed" offset="0"/>
<stop stop-color="#fcfcfc" offset="1"/>
</linearGradient>
</defs>
<image x="6.5002" y="-.11648" width="50.998" height="64.616" image-rendering="optimizeQuality" preserveAspectRatio="none"/>
<path d="m36.001 0.99607-25 0.00391c-1.108 0-2 0.89202-2 2v55.999c0 1.108 0.89202 2 2 2h41.999c1.108 0 2-0.89202 2-2v-39.002c0-0.53515-0.18131-1.2447-0.55666-2.002h-14.443c-1.1081 0-2-0.89199-2-2v-14.572c-0.75433-0.33232-1.4705-0.42577-2-0.42577z" fill="url(#linearGradient984-5)"/>
<image x="25.783" y="1" width="29.193" height="29.006" image-rendering="optimizeQuality" opacity=".75" preserveAspectRatio="none"/>
<path d="m37.977 1.4189v14.575c0 1.108 0.89202 2.0001 2.0001 2.0001h14.465c-0.32607-0.65878-0.79761-1.3523-1.4453-2.0001l-13-13c-0.62957-0.79666-1.3298-1.2789-2.0001-1.5742z" fill="url(#linearGradient1082-3)" stroke-width="3.7796"/>
<g fill="#b3b3b3">
<path class="ColorScheme-Text" d="m20 25c-2.216 0-4 1.784-4 4v18c0 2.216 1.784 4 4 4h24c2.216 0 4-1.784 4-4v-18c0-2.216-1.784-4-4-4zm0 2h2v2h-4c0-1.108 0.892-2 2-2zm4 0h16v10h-16zm18 0h2c1.108 0 2 0.892 2 2h-4zm-24 4h4v2h-4zm24 0h4v2h-4zm-24 4h4v2h-4zm24 0h4v2h-4zm-24 4h4v2h-4zm6 0h16v10h-16zm18 0h4v2h-4zm-24 4h4v2h-4zm24 0h4v2h-4zm-24 4h4v2h-2c-1.108 0-2-0.892-2-2zm24 0h4c0 1.108-0.892 2-2 2h-2z" color="#363636" stroke-width="2"/>
<circle cx="22" cy="54" r="1"/>
<circle cx="26" cy="54" r="1"/>
<circle cx="30" cy="54" r="1"/>
<circle cx="34" cy="54" r="1"/>
<circle cx="38" cy="54" r="1"/>
<circle cx="42" cy="54" r="1"/>
</g>
</svg>
