<svg width="64" height="64" version="1.1" viewBox="0 0 16.933 16.933" xmlns="http://www.w3.org/2000/svg">
<defs>
<linearGradient id="linearGradient1082" x1="40" x2="46" y1="17" y2="11" gradientTransform="matrix(.26458 0 0 .26458 -.0052368 -.26458)" gradientUnits="userSpaceOnUse">
<stop stop-color="#fefefe" offset="0"/>
<stop stop-color="#e9e9e9" offset="1"/>
</linearGradient>
<linearGradient id="linearGradient1080" x1="21.039" x2="21.039" y1="2" y2="62" gradientTransform="matrix(.26458 0 0 .26458 -2.4314e-5 -.26458)" gradientUnits="userSpaceOnUse">
<stop stop-color="#52b9ff" offset="0"/>
<stop stop-color="#006eb8" offset="1"/>
</linearGradient>
</defs>
<image x="1.7198" y="-.030818" width="13.493" height="17.096" image-rendering="optimizeQuality" preserveAspectRatio="none"/>
<path d="m9.5248 0.26354-6.6145 0.001034c-0.29315 0-0.52916 0.23601-0.52916 0.52916v14.816c0 0.29315 0.23601 0.52916 0.52916 0.52916h11.112c0.29315 0 0.52916-0.23601 0.52916-0.52916v-10.319c0-0.14159-0.04797-0.32932-0.14728-0.52969h-3.8213c-0.29318 0-0.52916-0.236-0.52916-0.52916v-3.8554c-0.19958-0.087925-0.38906-0.11265-0.52916-0.11265z" fill="url(#linearGradient1080)" stroke-width=".26458"/>
<image x="6.8216" y=".26458" width="7.7238" height="7.6744" image-rendering="optimizeQuality" opacity=".75" preserveAspectRatio="none"/>
<path d="m10.049 0.37541v3.8562c0 0.29315 0.23601 0.52918 0.52918 0.52918h3.8271c-0.086271-0.1743-0.21103-0.35779-0.3824-0.52918l-3.4395-3.4395c-0.16657-0.21078-0.35184-0.33837-0.52918-0.4165z" fill="url(#linearGradient1082)"/>
<g transform="translate(-.33229 1.3225)" fill="#fff">
<path d="m5.5003 5.2931c-0.079345 0.00999-0.13913 0.077033-0.14 0.157v2.861c0 0.084 0.072 0.158 0.156 0.158h1.43v0.529h-1.057v0.529h1.8512v-1.588h-1.7342c-0.058563-0.00254-0.10546-0.049437-0.108-0.108v-1.9c-2e-3 -0.05 0.034-0.099 0.082-0.108 0.0083-0.00102 0.016698-0.00102 0.025 0h2.944c0.054 0 0.107 0.05 0.107 0.107v0.68603h0.537v-1.166c-0.00309-0.085396-0.071604-0.15391-0.157-0.157" opacity=".5"/>
<path d="m8.1473 6.8811a0.165 0.165 0 0 0-0.143 0.157v2.86c0 0.083 0.076 0.158 0.16 0.158h1.427v0.792h1.059v-0.792h1.429a0.164 0.164 0 0 0 0.158-0.158v-2.86a0.165 0.165 0 0 0-0.158-0.158m-3.453 0.53a0.064 0.064 0 0 1 0.019999 0h2.949a0.11 0.11 0 0 1 0.106 0.106v1.905a0.11 0.11 0 0 1-0.106 0.106h-2.95a0.11 0.11 0 0 1-0.106-0.106v-1.905a0.11 0.11 0 0 1 0.087-0.107m-0.093 3.175v0.53h3.175v-0.53"/>
</g>
</svg>
