<svg width="64" height="64" version="1.1" viewBox="0 0 16.933 16.933" xmlns="http://www.w3.org/2000/svg">
<defs>
<linearGradient id="linearGradient1082" x1="40" x2="46" y1="17" y2="11" gradientTransform="matrix(.26458 0 0 .26458 -.0055807 -.26458)" gradientUnits="userSpaceOnUse">
<stop stop-color="#fefefe" offset="0"/>
<stop stop-color="#e9e9e9" offset="1"/>
</linearGradient>
<linearGradient id="linearGradient1080" x1="21.039" x2="21.039" y1="2" y2="62" gradientTransform="matrix(.26458 0 0 .26458 -.0055805 -.26458)" gradientUnits="userSpaceOnUse">
<stop stop-color="#ff885c" offset="0"/>
<stop stop-color="#ff4d0a" offset="1"/>
</linearGradient>
</defs>
<image x="1.7198" y="-.030818" width="13.493" height="17.096" image-rendering="optimizeQuality" preserveAspectRatio="none"/>
<path d="m9.5193 0.26354-6.6145 0.001034c-0.29315 0-0.52916 0.23601-0.52916 0.52916v14.816c0 0.29315 0.23601 0.52916 0.52916 0.52916h11.112c0.29315 0 0.52916-0.23601 0.52916-0.52916v-10.319c0-0.14159-0.04797-0.32932-0.14728-0.52969h-3.8213c-0.29318 0-0.52916-0.236-0.52916-0.52916v-3.8554c-0.19958-0.087925-0.38906-0.11265-0.52916-0.11265z" fill="url(#linearGradient1080)" stroke-width=".26458"/>
<image x="6.8216" y=".26458" width="7.7238" height="7.6744" image-rendering="optimizeQuality" opacity=".75" preserveAspectRatio="none"/>
<path d="m10.048 0.37541v3.8562c0 0.29315 0.23601 0.52918 0.52918 0.52918h3.8271c-0.086271-0.1743-0.21103-0.35779-0.3824-0.52918l-3.4395-3.4395c-0.16657-0.21078-0.35184-0.33837-0.52918-0.4165z" fill="url(#linearGradient1082)"/>
<g transform="translate(-28.85 .37673)" fill="#fff" opacity=".75">
<path d="m34.671 7.0315v1.7198c0 0.07329 0.059 0.13229 0.13229 0.13229h0.79374c0.07329 0 0.13229-0.059 0.13229-0.13229v-1.7198zm0.26458 1.0583h0.52916v0.52916h-0.52916z" color="#000000"/>
<path d="m35.2-0.11215v0.52916h0.52916v-0.52916zm0 0.52916h-0.52916v0.52916h0.52916zm0 0.52916v0.52916h0.52916v-0.52916zm0 0.52916h-0.52916v0.52916h0.52916zm0 0.52916v0.52916h0.52916v-0.52916zm0 0.52916h-0.52916v0.52916h0.52916zm0 0.52916v0.52916h0.52916v-0.52916zm0 0.52916h-0.52916v0.52916h0.52916zm0 0.52916v0.52916h0.52916v-0.52916zm0 0.52916h-0.52916v0.52916h0.52916zm0 0.52916v0.52916h0.52916v-0.52916zm0 0.52916h-0.52916v0.52916h0.52916zm0 0.52916v0.52916h0.52916v-0.52916z" color="#000000"/>
</g>
<path d="m5.3603 8.9872a8.6912 8.6912 0 0 0-0.013954 5.291e-4c-0.31506 0.0061542-0.62769 0.018325-0.83197 0.049093-0.92058 0.1403-1.6566 0.46262-2.1316 0.93275a1.8953 1.8953 0 0 0-0.00155 0.00156v2.7053c0.24394 0.26514 0.56551 0.51384 0.98392 0.76273 0.36676 0.21537 0.64976 0.35806 1.4645 0.72603 0.97842 0.43936 1.2763 0.61634 1.4154 0.83663 0.054152 0.08984 0.073529 0.1358 0.066145 0.24288-0.014769 0.16984-0.099313 0.2545-0.29868 0.3271-0.13415 0.04677-0.18126 0.06149-0.43357 0.06149-0.46151-0.0049-0.86774-0.09085-1.4314-0.29146a5.2083 5.2083 0 0 1-1.1146-0.54672c-0.32615-0.21291-0.35234-0.22119-0.44957-0.1695-0.019661 0.01081-0.12874 0.10817-0.20205 0.17053v0.02015c0 0.73289 0.59001 1.3229 1.3229 1.3229h5.703c0.1581-0.18973 0.26495-0.36827 0.34882-0.60409 0.096-0.26707 0.12099-0.79517 0.049609-1.1152-0.11692-0.51812-0.42836-0.98728-0.93172-1.3823-0.50458-0.39629-1.0169-0.65957-2.2463-1.1518-0.85904-0.34213-1.1813-0.52392-1.265-0.71468-0.045537-0.10215-0.018597-0.2835 0.049093-0.35242 0.13538-0.13661 0.39658-0.18582 0.73379-0.14521 0.62766 0.07753 1.4347 0.36573 2.1461 0.76326 0.13784 0.0763 0.2709 0.14009 0.29921 0.14624 0.11568 0.02954 0.18436-0.01578 0.64957-0.54622 0.56983-0.65227 0.56395-0.62629 0.25011-0.84904-0.93534-0.66949-2.0182-1.0587-3.2612-1.1756a8.6912 8.6912 0 0 0-0.86867-0.024804z" fill="#fff" opacity=".5" stroke-width="1.2307"/>
</svg>
