<svg width="64" height="64" version="1.0" xmlns="http://www.w3.org/2000/svg">
<defs>
<linearGradient id="linearGradient1082" x1="40" x2="46" y1="17" y2="11" gradientTransform="translate(-.019793 -1)" gradientUnits="userSpaceOnUse">
<stop stop-color="#fefefe" offset="0"/>
<stop stop-color="#e9e9e9" offset="1"/>
</linearGradient>
<linearGradient id="linearGradient1080" x1="21.039" x2="21.039" y1="2" y2="62" gradientTransform="translate(-9.19e-5 -1)" gradientUnits="userSpaceOnUse">
<stop stop-color="#9fe74b" offset="0"/>
<stop stop-color="#72be18" offset="1"/>
</linearGradient>
</defs>
<image x="6.5" y="-.11648" width="51" height="64.616" image-rendering="optimizeQuality" preserveAspectRatio="none"/>
<path d="m36 0.99609-25 0.00391c-1.108 0-2 0.89202-2 2v55.998c0 1.108 0.89202 2 2 2h42c1.108 0 2-0.89202 2-2v-39.002c0-0.53515-0.18131-1.2447-0.55664-2.002h-14.443c-1.1081 0-2-0.892-2-2v-14.572c-0.75434-0.33232-1.4705-0.42578-2-0.42578z" fill="url(#linearGradient1080)"/>
<image x="25.783" y="1" width="29.193" height="29.006" image-rendering="optimizeQuality" opacity=".75" preserveAspectRatio="none"/>
<path d="m37.98 1.4189v14.575c0 1.108 0.89202 2.0001 2.0001 2.0001h14.465c-0.32607-0.65878-0.79761-1.3523-1.4453-2.0001l-13-13c-0.62957-0.79666-1.3298-1.2789-2.0001-1.5742z" fill="url(#linearGradient1082)" stroke-width="3.7796"/>
<g transform="translate(0,3)" fill="#fff">
<path d="m30 10v4h4v-4zm4 4v4h4v-4zm0 4h-4v4h4zm-4 0v-4h-4v4zm0 15.969v0.031h4v-0.031z" opacity=".2"/>
<path d="m26 18v4h4v-4zm4 4v4h8v-8h-4v4zm0 4h-4v4h4z" opacity=".6"/>
<path d="m30 26v4h4v-4zm4 4v4h-4v-4h-4v4h-8l14 17 14-17-8 3e-3v-4.003z" color="#bebebe" overflow="visible"/>
</g>
</svg>
