<svg width="64" height="64" version="1.1" viewBox="0 0 16.933 16.933" xmlns="http://www.w3.org/2000/svg">
<defs>
<linearGradient id="linearGradient1082" x1="40" x2="46" y1="17" y2="11" gradientTransform="matrix(.26458 0 0 .26458 -.0052368 -.26458)" gradientUnits="userSpaceOnUse">
<stop stop-color="#fefefe" offset="0"/>
<stop stop-color="#e9e9e9" offset="1"/>
</linearGradient>
<linearGradient id="linearGradient1080" x1="21.039" x2="21.039" y1="2" y2="62" gradientTransform="matrix(.26458 0 0 .26458 -2.4288e-5 -.26458)" gradientUnits="userSpaceOnUse">
<stop stop-color="#9fe74b" offset="0"/>
<stop stop-color="#72be18" offset="1"/>
</linearGradient>
</defs>
<image x="1.7198" y="-.030818" width="13.493" height="17.096" image-rendering="optimizeQuality" preserveAspectRatio="none"/>
<path d="m9.5248 0.26354-6.6145 0.001034c-0.29315 0-0.52916 0.23601-0.52916 0.52916v14.816c0 0.29315 0.23601 0.52916 0.52916 0.52916h11.112c0.29315 0 0.52916-0.23601 0.52916-0.52916v-10.319c0-0.14159-0.04797-0.32932-0.14728-0.52969h-3.8213c-0.29318 0-0.52916-0.236-0.52916-0.52916v-3.8554c-0.19958-0.087925-0.38906-0.11265-0.52916-0.11265z" fill="url(#linearGradient1080)" stroke-width=".26458"/>
<image x="6.8216" y=".26458" width="7.7238" height="7.6744" image-rendering="optimizeQuality" opacity=".75" preserveAspectRatio="none"/>
<path d="m10.049 0.37541v3.8562c0 0.29315 0.23601 0.52918 0.52918 0.52918h3.8271c-0.086271-0.1743-0.21103-0.35779-0.3824-0.52918l-3.4395-3.4395c-0.16657-0.21078-0.35184-0.33837-0.52918-0.4165z" fill="url(#linearGradient1082)"/>
<ellipse cx="8.4665" cy="12.171" rx="2.3812" ry="1.0583" opacity=".1" stroke-linecap="round" stroke-linejoin="round" stroke-width="1.0304" style="paint-order:stroke fill markers"/>
<ellipse cx="8.4665" cy="12.171" rx="1.5875" ry=".52916" opacity=".1" stroke-linecap="round" stroke-linejoin="round" stroke-width=".59491" style="paint-order:stroke fill markers"/>
<path d="m8.4665 5.8208c-1.315 0-2.3812 1.0662-2.3812 2.3812s1.5875 3.9687 2.3812 3.9687c0.79373 0 2.3812-2.6537 2.3812-3.9687s-1.0662-2.3812-2.3812-2.3812zm0 1.0582c0.73063 0 1.323 0.59232 1.323 1.323 0 0.73063-0.59232 1.323-1.323 1.323s-1.323-0.59232-1.323-1.323c0-0.73063 0.59232-1.323 1.323-1.323z" fill="#fff" fill-rule="evenodd"/>
</svg>
