<svg width="64" height="64" version="1.1" viewBox="0 0 64 64" xmlns="http://www.w3.org/2000/svg">
<defs>
<linearGradient id="linearGradient1082" x1="40" x2="46" y1="17" y2="11" gradientTransform="translate(-.019793 -1)" gradientUnits="userSpaceOnUse">
<stop stop-color="#fefefe" offset="0"/>
<stop stop-color="#e9e9e9" offset="1"/>
</linearGradient>
<linearGradient id="linearGradient1080" x1="21.039" x2="21.039" y1="2" y2="62" gradientTransform="translate(-9.19e-5 -1)" gradientUnits="userSpaceOnUse">
<stop stop-color="#ffd133" offset="0"/>
<stop stop-color="#ff7e00" offset="1"/>
</linearGradient>
</defs>
<image x="6.5" y="-.11648" width="51" height="64.616" image-rendering="optimizeQuality" preserveAspectRatio="none"/>
<path d="m36 0.99609-25 0.00391c-1.108 0-2 0.89202-2 2v55.998c0 1.108 0.89202 2 2 2h42c1.108 0 2-0.89202 2-2v-39.002c0-0.53515-0.18131-1.2447-0.55664-2.002h-14.443c-1.1081 0-2-0.892-2-2v-14.572c-0.75434-0.33232-1.4705-0.42578-2-0.42578z" fill="url(#linearGradient1080)"/>
<image x="25.783" y="1" width="29.193" height="29.006" image-rendering="optimizeQuality" opacity=".75" preserveAspectRatio="none"/>
<path d="m37.98 1.4189v14.575c0 1.108 0.89202 2.0001 2.0001 2.0001h14.465c-0.32607-0.65878-0.79761-1.3523-1.4453-2.0001l-13-13c-0.62957-0.79666-1.3298-1.2789-2.0001-1.5742z" fill="url(#linearGradient1082)" stroke-width="3.7796"/>
<path d="m32 26c-2.77 0-5 2.23-5 5h1c0-2.216 1.784-4 4-4s4 1.784 4 4v6h-12v11h16v-11h-3v-6c0-2.77-2.23-5-5-5" color="#000000" color-rendering="auto" fill="#fddda3" image-rendering="auto" shape-rendering="auto"/>
</svg>
