<svg width="64" height="64" version="1.1" viewBox="0 0 16.933 16.933" xmlns="http://www.w3.org/2000/svg">
<defs>
<linearGradient id="linearGradient984-5" x1="45.801" x2="9.8016" y1="9.9999" y2="61" gradientTransform="matrix(.26458 0 0 .26458 .052471 -.26458)" gradientUnits="userSpaceOnUse">
<stop stop-color="#ededed" offset="0"/>
<stop stop-color="#fcfcfc" offset="1"/>
</linearGradient>
<linearGradient id="linearGradient1082-3" x1="40" x2="46" y1="17" y2="11" gradientTransform="matrix(.26458 0 0 .26458 -.0055804 -.26458)" gradientUnits="userSpaceOnUse">
<stop stop-color="#fefefe" offset="0"/>
<stop stop-color="#e9e9e9" offset="1"/>
</linearGradient>
</defs>
<image x="1.7198" y="-.030818" width="13.493" height="17.096" image-rendering="optimizeQuality" preserveAspectRatio="none"/>
<path d="m9.5251 0.26354-6.6145 0.001034c-0.29315 0-0.52916 0.23601-0.52916 0.52916v14.816c0 0.29315 0.23601 0.52916 0.52916 0.52916h11.112c0.29315 0 0.52916-0.23601 0.52916-0.52916v-10.319c0-0.14159-0.04797-0.32932-0.14728-0.52969h-3.8213c-0.29318 0-0.52916-0.236-0.52916-0.52916v-3.8554c-0.19958-0.087925-0.38906-0.11265-0.52916-0.11265z" fill="url(#linearGradient984-5)" stroke-width=".26458"/>
<image x="6.8216" y=".26458" width="7.7238" height="7.6744" image-rendering="optimizeQuality" opacity=".75" preserveAspectRatio="none"/>
<path d="m10.048 0.37541v3.8562c0 0.29315 0.23601 0.52918 0.52918 0.52918h3.8271c-0.086271-0.1743-0.21103-0.35779-0.3824-0.52918l-3.4395-3.4395c-0.16657-0.21078-0.35184-0.33837-0.52918-0.4165z" fill="url(#linearGradient1082-3)"/>
<g transform="translate(-.13229 2.9103)" fill="#b3b3b3">
<path transform="matrix(.26458 0 0 .26458 .13229 -.79373)" d="m20 28c-2.216 0-4 1.784-4 4s1.784 4 4 4h6c1.483 0 2.7584-0.80729 3.4492-2h-1.2461c-0.54683 0.6049-1.3196 1-2.2031 1h-6c-1.662 0-3-1.338-3-3s1.338-3 3-3h6c0.88351 0 1.6563 0.3951 2.2031 1h1.2461c-0.69084-1.1927-1.9662-2-3.4492-2z" style="paint-order:fill markers stroke"/>
<path transform="matrix(.26458 0 0 .26458 .13229 -.79373)" d="m38 28c-1.483 0-2.7584 0.80729-3.4492 2h1.2461c0.54683-0.6049 1.3196-1 2.2031-1h6c1.662 0 3 1.338 3 3s-1.338 3-3 3h-6c-0.88351 0-1.6563-0.3951-2.2031-1h-1.2461c0.69084 1.1927 1.9662 2 3.4492 2h6c2.216 0 4-1.784 4-4s-1.784-4-4-4z" style="paint-order:fill markers stroke"/>
</g>
<path d="m7.6728 10.318h1.5875c0.14658 0 0.26458 0.118 0.26458 0.26458s-0.118 0.26458-0.26458 0.26458h-1.5875c-0.14658 0-0.26458-0.118-0.26458-0.26458s0.118-0.26458 0.26458-0.26458z" fill="#b3b3b3" style="paint-order:fill markers stroke"/>
</svg>
