<svg width="64" height="64" version="1.1" xmlns="http://www.w3.org/2000/svg">
<defs>
<linearGradient id="c" x1="32" x2="32" y1="11" y2="53" gradientUnits="userSpaceOnUse">
<stop stop-color="#f7bd39" offset="0"/>
<stop stop-color="#f9e657" offset="1"/>
</linearGradient>
<filter id="f" x="-.06" y="-.06" width="1.12" height="1.12" color-interpolation-filters="sRGB">
<feGaussianBlur stdDeviation="0.18520833"/>
</filter>
<linearGradient id="b" x1="8.4666" x2="8.4666" y1="284.83" y2="292.24" gradientUnits="userSpaceOnUse">
<stop stop-color="#e0e0e0" offset="0"/>
<stop stop-color="#fff" offset="1"/>
</linearGradient>
<linearGradient id="linearGradient862-3" x1="7.9373" x2="7.9373" y1="15.081" y2="1.852" gradientTransform="scale(3.7796)" gradientUnits="userSpaceOnUse">
<stop stop-color="#298f38" offset="0"/>
<stop stop-color="#20df5f" offset="1"/>
</linearGradient>
<linearGradient id="linearGradient964" x1="30" x2="30" y1="10" y2="70" gradientUnits="userSpaceOnUse">
<stop offset="0"/>
<stop stop-opacity=".35" offset="1"/>
</linearGradient>
</defs>
<image x="1.5593" y="2" width="60.882" height="62.001" preserveAspectRatio="none"/>
<rect x="4" y="3.9686" width="56.002" height="56.002" rx="13.002" ry="13.002" fill="url(#linearGradient862-3)" stroke-width="3.7796"/>
<path d="m17 4v6.1719l4 4v-10.172h-4zm6 0v12.172l3.5 3.5 0.67188-0.67188h-1.1719v-15h-3zm5 0v14.172l3.1719-3.1719h-0.17188v-11h-3zm5 0v9.1719l3-3v-6.1719h-3zm5 0v7l-10.086 10.086 1.0859 1.0859 12-12v-6.1719h-3zm5 0v7l-13.436 13.436-0.56445-0.56445-0.56445 0.56445-1.9355-1.9355-1.9355 1.9355-0.56445-0.56445-0.56445 0.56445-13.436-13.436v-4.9629c-1.5272 0.97425-2.8461 2.2428-3.8457 3.7539v7.1328l-2.1543 2.1523v2.1543l3.2305 3.2305h9.5879l-7.4687-7.4688a1.5 1.5 0 0 1-1.3496-1.4922 1.5 1.5 0 0 1 1.5-1.5 1.5 1.5 0 0 1 1.5 1.5 1.5 1.5 0 0 1-0.027344 0.28711l8.6738 8.6738h28.508l7.5371-8.6152h4.2539c-0.030981-0.3642-0.082429-0.72133-0.14258-1.0762h-4.1113v-4.3086l-8.6152 9.6934h-3.2305l8.6152-9.6934v-5.2871c-1.3724-0.63374-2.877-1.019-4.4609-1.1387v6.9648l-13.436 13.436-1.4141-1.4141 12.85-12.85v-6.1719h-3zm-28 0.14844c-1.0468 0.16055-2.0525 0.44177-3 0.83398v5.1895l12 12 1.0859-1.0859-2.0859-2.0859h-2v-2l-6-6v-6.8516zm-0.23047 33.236-10.77 8.6152v0.96875c0 0.72998 0.074916 1.4402 0.18945 2.1367l6.2715-4.1816v2.1523l-5.834 3.8906c0.04552 0.14184 0.10215 0.27833 0.15234 0.41797h3.5293v5.2461c1.7776 1.5994 3.9952 2.7125 6.4609 3.1367v-11.613l6.4609-5.3848h3.2305l-6.4609 5.3848v11.816h4v-5.0996l13.436-13.436 0.56445 0.56445 0.56445-0.56445 1.9355 1.9355 1.9355-1.9355 0.56445 0.56445 0.56445-0.56445 13.436 13.436v2.3398c0.84043-0.65842 1.5971-1.416 2.252-2.2598l-12.102-12.102 1.4141-1.4141 11.814 11.814c0.72384-1.3167 1.228-2.7724 1.4609-4.3203l-7.3789-9.3906h-2.1523l-2.1543-2.1543h-12.955l0.23633 0.23633-12.463 12.463a1.5 1.5 0 0 1 0.027344 0.28711 1.5 1.5 0 0 1-1.5 1.5 1.5 1.5 0 0 1-1.5-1.5 1.5 1.5 0 0 1 1.3496-1.4922l11.494-11.494h-18.074zm21.23 6.3145-12 12v4.2715h3v-5.0996l6-6v-2h2l2.0859-2.0859-1.0859-1.0859zm5 0-1.0859 1.0859 10.086 10.086v4.7402c1.057-0.24877 2.0619-0.62271 3-1.1113v-2.8008l-12-12zm-2.5 2.5-3.5 3.5v10.271h3v-13.1h1.1719l-0.67188-0.67188zm1.5 1.5v12.271h3v-9.0996h0.17188l-3.1719-3.1719zm-7 4-4 4v4.2715h4v-8.2715zm12 1v7.2715h2c0.33725 0 0.66944-0.01992 1-0.044922v-4.2266l-3-3z" fill="url(#linearGradient964)" opacity=".1" stroke-width="1.0769"/>
<g transform="matrix(3.7796 0 0 3.7796 -1.0751e-7 -1058.6)">
<g transform="translate(0 -.0088674)">
<path transform="matrix(.26458 0 0 .26458 0 280.07)" d="m19 15.033v3.9666h-4.0001v2h4.0001v2h-4.0001v2h4.0001v2h-4.0001v2h4.0001v2h-4.0001v2h4.0001v2h-4.0001v2h4.0001v2h-4.0001v2h4.0001v2h-4.0001v2h4.0001v4.0331h2v-4.0331h2v4.0331h2v-4.0331h2v4.0331h2v-4.0331h2v4.0331h2v-4.0331h2v4.0331h2v-4.0331h2v4.0331h2v-4.0331h2v4.0331h2v-4.0331h3.9997v-2h-3.9997v-2h3.9997v-2h-3.9997v-2h3.9997v-2h-3.9997v-2h3.9997v-2h-3.9997v-2h3.9997v-2h-3.9997v-2h3.9997v-2h-3.9997v-2h3.9997v-2h-3.9997v-3.9666h-2v3.9666h-2v-3.9666h-2v3.9666h-2v-3.9666h-2v3.9666h-2v-3.9666h-2v3.9666h-2v-3.9666h-2v3.9666h-2v-3.9666h-2v3.9666h-2v-3.9666zm2 5.9666h2v2h-2zm4 0h2v2h-2zm4 0h2v2h-2zm4 0h2v2h-2zm4 0h2v2h-2zm4 0h2v2h-2zm-20 4h2v2h-2zm4 0h2v2h-2zm4 0h2v2h-2zm4 0h2v2h-2zm4 0h2v2h-2zm4 0h2v2h-2zm-20 4h2v2h-2zm4 0h2v2h-2zm4 0h2v2h-2zm4 0h2v2h-2zm4 0h2v2h-2zm4 0h2v2h-2zm-20 4h2v2h-2zm4 0h2v2h-2zm4 0h2v2h-2zm4 0h2v2h-2zm4 0h2v2h-2zm4 0h2v2h-2zm-20 4h2v2h-2zm4 0h2v2h-2zm4 0h2v2h-2zm4 0h2v2h-2zm4 0h2v2h-2zm4 0h2v2h-2zm-20 4h2v2h-2zm4 0h2v2h-2zm4 0h2v2h-2zm4 0h2v2h-2zm4 0h2v2h-2zm4 0h2v2h-2z" fill="url(#c)" stroke-width="3.0996"/>
<rect x="4.7625" y="284.83" width="7.4083" height="7.4083" rx=".52917" ry=".52915" fill-rule="evenodd" filter="url(#f)" opacity=".5"/>
<rect x="4.7625" y="284.83" width="7.4083" height="7.4083" rx=".52917" ry=".52915" fill="url(#b)" fill-rule="evenodd"/>
</g>
<g fill-rule="evenodd">
<circle cx="5.424" cy="285.49" r=".13229" opacity=".35" style="paint-order:stroke fill markers"/>
<circle cx="11.509" cy="285.49" r=".13229" opacity=".35" style="paint-order:stroke fill markers"/>
<circle cx="5.424" cy="291.58" r=".13229" opacity=".35" style="paint-order:stroke fill markers"/>
<circle cx="11.509" cy="291.58" r=".13229" opacity=".35" style="paint-order:stroke fill markers"/>
</g>
</g>
<path d="m34.603 26.001c-2.6251 0.03364-5.557 0.76408-7.9188 2.152v0.35033c5.3915-2.6772 13.042-2.6606 13.738 1.1748 0.23069 1.2495-0.48305 2.546-1.7666 3.3119v-4.2627h-1.0308v4.3321c0 0.50887 0.25871 0.9518 1.0308 1.022v-0.08077c1.5745-0.58779 3.1563-2.3888 2.6902-4.5929-0.49948-2.342-3.3679-3.4499-6.7431-3.4067zm-9.2586 2.8579v0.92103h1.0308v-0.92103zm6.0205 0.41091v3.7579c0 0.54063 0.35209 1.0887 1.1879 1.0887h0.6032v-0.80426h-0.4153c-0.24358 0-0.35647-0.12131-0.35647-0.34243v-1.8798h0.77177v-0.77967h-0.77177v-1.0404zm-6.7335 0.17209c-1.5628 1.3232-2.4112 2.9968-1.9211 4.9731 0.62507 2.5361 3.9565 3.9716 9.0426 3.4936 2.0138-0.18703 4.6491-0.81309 6.478-1.7841v-1.3794c-1.6622 0.95755-4.4109 1.7487-6.7019 1.9527-3.7255 0.33164-7.6079-0.19005-8.1515-3.0019-0.26994-1.3844 0.38685-2.8538 1.2538-3.7658zm10.677 0.80338c-1.0759 0-1.8939 0.70987-1.8939 1.965 0 1.4677 0.93747 1.9711 1.9158 1.9711 0.74972 0 1.1738-0.2285 1.5787-0.60407l-0.63041-0.57071c-0.26241 0.24381-0.48668 0.3635-0.94035 0.3635-0.57732 0-0.90698-0.36273-0.90698-0.85606h2.5936v-0.34769c0-1.0902-0.62565-1.9211-1.7165-1.9211zm-9.9645 0.06497v2.8298c0 0.50906 0.25858 0.95187 1.0308 1.022v-3.8518zm1.9422 0v3.8106h1.0194v-3.0318h0.84728c0.29982 0 0.4232 0.13881 0.4232 0.36525v2.6665h1.0238v-2.67c0-0.54248-0.30785-1.1405-1.2038-1.1405zm7.9767 0.73226c0.52485 0 0.72378 0.39866 0.74631 0.81479h-1.5778c0.01113-0.17037 0.03352-0.27579 0.10097-0.41442 0.11251-0.23001 0.38197-0.40037 0.7305-0.40037z" opacity=".25" stroke-width=".55003"/>
</svg>
