<svg width="64" height="64" version="1.1" xmlns="http://www.w3.org/2000/svg">
<defs>
<linearGradient id="linearGradient1082" x1="40" x2="46" y1="17" y2="11" gradientTransform="translate(-.021093 -1)" gradientUnits="userSpaceOnUse">
<stop stop-color="#fefefe" offset="0"/>
<stop stop-color="#e9e9e9" offset="1"/>
</linearGradient>
<linearGradient id="linearGradient1080" x1="21.039" x2="21.039" y1="2" y2="62" gradientTransform="translate(-9.2e-5 -1)" gradientUnits="userSpaceOnUse">
<stop stop-color="#ff9b52" offset="0"/>
<stop stop-color="#ff6c00" offset="1"/>
</linearGradient>
</defs>
<image x="6.5" y="-.11648" width="51" height="64.616" image-rendering="optimizeQuality" preserveAspectRatio="none"/>
<path d="m36 0.99609-25 0.00391c-1.108 0-2 0.89202-2 2v55.998c0 1.108 0.89202 2 2 2h42c1.108 0 2-0.89202 2-2v-39.002c0-0.53515-0.18132-1.2447-0.55664-2.002h-14.443c-1.1081 0-2-0.892-2-2v-14.572c-0.75434-0.33232-1.4705-0.42578-2-0.42578z" fill="url(#linearGradient1080)"/>
<image x="25.783" y="1" width="29.193" height="29.006" image-rendering="optimizeQuality" opacity=".75" preserveAspectRatio="none"/>
<path d="m37.979 1.4189v14.575c0 1.108 0.89202 2.0001 2.0001 2.0001h14.465c-0.32607-0.65878-0.79761-1.3523-1.4453-2.0001l-13-13c-0.62957-0.79666-1.3298-1.2789-2.0001-1.5742z" fill="url(#linearGradient1082)" stroke-width="3.7796"/>
<path d="m17.178 26.294a22.066 22.331 0 0 0-8.1777 1.5898v3.1836c2.4265-1.2598 4.9643-1.6913 8.1777-1.7129 0.29464-0.0032 0.5745 0.01829 0.86914 0.03125-0.04164 5.338-0.86591 16.338-3.8027 20.354-4.2467-11.062-3.7304-9.0909-0.86719 0.33398a3.334 3.3739 0 0 0-0.59961 0.42188l-1.3164-0.99805 0.6582 1.9121c-1.0419 0.15889-2.0814 0.15756-3.1191 0.15039v1.1348c0.99303-0.32071 2.0028-0.39211 3.1504 0.26367 0.04164 0.21067 0.14736 0.39467 0.24023 0.57617l-3.3906 1.3828v0.74805c1.3029-0.45113 2.5939-0.86031 3.8105-1.5234 0.19216 0.17502 0.44778 0.30054 0.7168 0.39453l-3.377 4.625c0.17952 0.21851 0.37419 0.42045 0.58789 0.60547 1.1487-1.596 1.8191-3.3727 3.4199-5.1094 0.22418 0.01945 0.48348 0.05391 0.74609 0.02148a22.483 22.752 0 0 0 0.16211 6.3203h2.248c-0.76491-2.1186-1.6258-4.2171-1.5098-6.5039 0.8519 0.33059 1.2962 0.75813 2.2441 1.4258-0.42595-0.64821-0.9474-1.0706-1.3125-1.8809a1.9985 2.0224 0 0 0 0.20508-0.41992c4.362 1.6789 8.4457 2.1504 12.875 4.8438l2.4219 1.8164a11.497 11.635 0 0 1-0.51953 0.71875h3.5742a21.877 22.14 0 0 0 0.26953-0.17578 21.858 22.12 0 0 0 3.7109-12.295c0-12.209-9.8481-22.234-22.092-22.234h-0.0039zm3.627 3.4219c7.302 1.452 13.675 7.255 15.059 14.055l-0.33008 0.42383c-0.6149 1.076-6.3794 2.9359-8.4707 3.6035-3.9937 0.86536-6.8539 2.9179-10.688 3.0605a2.8664 2.9007 0 0 0-0.83984-0.78711c2.3315-4.1939 1.5673-15.41 5.2695-20.355zm-11.805 3.1172v3.002c1.7111 4.5413 1.6459 3.6289 0-3.002zm26.297 12.816h2e-3l0.86523 0.8457c0 0.68062-0.07148 1.3461-0.18359 2.0332-0.56687 3.6267-1.2869 7.2114-2.7793 10.145l-3.1738-1.0566c-3.619-1.7826-9.0432-2.9442-12.902-5.5176 5.531-3.2119 12.103-4.5046 18.172-6.4492z" fill="#fff" stroke-width="3.0418"/>
</svg>
