<svg width="64" height="64" version="1.1" viewBox="0 0 64 64" xmlns="http://www.w3.org/2000/svg">
<defs>
<linearGradient id="linearGradient1082" x1="40" x2="46" y1="17" y2="11" gradientTransform="translate(-.019793 -1)" gradientUnits="userSpaceOnUse">
<stop stop-color="#fefefe" offset="0"/>
<stop stop-color="#e9e9e9" offset="1"/>
</linearGradient>
<linearGradient id="linearGradient1080" x1="21.039" x2="21.039" y1="2" y2="62" gradientTransform="translate(-9.2e-5 -1)" gradientUnits="userSpaceOnUse">
<stop stop-color="#a270d1" offset="0"/>
<stop stop-color="#783aaf" offset="1"/>
</linearGradient>
</defs>
<image x="6.5" y="-.11648" width="51" height="64.616" image-rendering="optimizeQuality" preserveAspectRatio="none"/>
<path d="m36 0.99609-25 0.00391c-1.108 0-2 0.89202-2 2v55.998c0 1.108 0.89202 2 2 2h42c1.108 0 2-0.89202 2-2v-39.002c0-0.53515-0.18132-1.2447-0.55664-2.002h-14.443c-1.1081 0-2-0.892-2-2v-14.572c-0.75434-0.33232-1.4705-0.42578-2-0.42578z" fill="url(#linearGradient1080)"/>
<image x="25.783" y="1" width="29.193" height="29.006" image-rendering="optimizeQuality" opacity=".75" preserveAspectRatio="none"/>
<path d="m37.98 1.4189v14.575c0 1.108 0.89202 2.0001 2.0001 2.0001h14.465c-0.32607-0.65878-0.79761-1.3523-1.4453-2.0001l-13-13c-0.62957-0.79666-1.3298-1.2789-2.0001-1.5742z" fill="url(#linearGradient1082)" stroke-width="3.7796"/>
<path d="m32 26a11 3 0 0 0-2.125 0.05859c-0.02 1e-3 -0.041 1e-3 -0.061 2e-3 -0.059 3e-3 -0.113 8e-3 -0.172 0.012a11 3 0 0 0-1.9238 0.16406 11 3 0 0 0-2e-3 0 11 3 0 0 0-1.7826 0.26335c-0.036 7e-3 -0.075 0.011-0.111 0.018a11 3 0 0 0-1.5176 0.34375c-0.037 0.01-0.077 0.017-0.113 0.027a11 3 0 0 0-1.2148 0.40039c-0.057 0.022-0.119 0.044-0.174 0.066a11 3 0 0 0-0.22266 0.10156c-0.11 0.05-0.22 0.1-0.32 0.152a11 3 0 0 0-0.19336 0.10938c-0.093 0.054-0.186 0.107-0.268 0.162a11 3 0 0 0-0.13867 0.10352c-0.079 0.06-0.155 0.12-0.221 0.182a11 3 0 0 0-0.0957 0.10156c-0.057 0.062-0.112 0.124-0.154 0.188a11 3 0 0 0-0.06836 0.12109c-0.029 0.055-0.057 0.11-0.074 0.166a11 3 0 0 0-0.047424 0.25775v10a11 3 0 0 0 1 1.2422 11 3 0 0 0 0.01172 0.0059 11 3 0 0 0 0.47656 0.25195 11 3 0 0 0 0.03125 0.01367 11 3 0 0 0 0.55078 0.23242 11 3 0 0 0 0.06445 0.02344 11 3 0 0 0 0.58984 0.20117 11 3 0 0 0 0.13281 0.04102 11 3 0 0 0 0.65039 0.17969 11 3 0 0 0 0.09961 0.02539 11 3 0 0 0 0.77344 0.17578 11 3 0 0 0 0.05273 0.0098 11 3 0 0 0 0.81445 0.15039 11 3 0 0 0 0.13867 0.02344 11 3 0 0 0 0.7793 0.11523 11 3 0 0 0 0.2207 0.0293 11 3 0 0 0 0.73633 0.08203 11 3 0 0 0 0.36719 0.03711 11 3 0 0 0 0.53906 0.04492 11 3 0 0 0 0.5918 0.04102 11 3 0 0 0 0.49023 0.02539 11 3 0 0 0 0.57617 0.02344 11 3 0 0 0 0.46289 0.01367 11 3 0 0 0 0.84962 0.011633 11 3 0 0 0 0.95898-0.01367 11 3 0 0 0 0.41406-0.01367 11 3 0 0 0 0.7168-0.0293 11 3 0 0 0 0.3457-0.02148 11 3 0 0 0 0.70703-0.04883 11 3 0 0 0 0.31836-0.0293 11 3 0 0 0 0.76758-0.07617 11 3 0 0 0 0.17969-0.02148 11 3 0 0 0 0.80859-0.10742 11 3 0 0 0 0.21289-0.03516 11 3 0 0 0 0.67773-0.11133 11 3 0 0 0 0.3125-0.06055 11 3 0 0 0 0.5957-0.125 11 3 0 0 0 0.19531-0.04687 11 3 0 0 0 0.66211-0.16797 11 3 0 0 0 0.01367-0.0039 11 3 0 0 0 0.02344-0.0078 11 3 0 0 0 0.70117-0.21875 11 3 0 0 0 0.63672-0.24414 11 3 0 0 0 2e-3 0 11 3 0 0 0 0.0059-2e-3 11 3 0 0 0 0.53516-0.25391 11 3 0 0 0 0.0059-0.0039 11 3 0 0 0 0.203-0.11522 11 3 0 0 0 1-1.2422v-4h-2.385c-1.732 0.596-4.922 1-8.615 1-5.523 0-10-0.9-10-2v-3.758c1e-3 1e-3 3e-3 1e-3 4e-3 2e-3a11 3 0 0 0 0.74414 0.37109c0.011 5e-3 0.02 9e-3 0.031 0.014a11 3 0 0 0 0.92969 0.33984 11 3 0 0 0 1.0586 0.28711c0.029 7e-3 0.058 0.013 0.088 0.02a11 3 0 0 0 2.5117 0.44141c0.036 5e-3 0.073 9e-3 0.109 0.014a11 3 0 0 0 1.3164 0.13672c0.039 3e-3 0.076 7e-3 0.115 0.01a11 3 0 0 0 1.3984 0.08594c0.108 5e-3 0.217 6e-3 0.326 0.01a11 3 0 0 0 1.368 0.025889 11 3 0 0 0 3-0.11719v-0.977a10 2 0 0 1-1 0.05273v-0.01c-0.65 0.030458-1.307 0.051458-2 0.051458-0.69 0-1.365-0.014-2.016-0.041-0.595-0.024-1.165-0.061-1.714-0.105a10 2 0 0 1-0.28906-0.02344c-0.524-0.046-1.028-0.101-1.5-0.164-0.031-4e-3 -0.065-8e-3 -0.096-0.012-0.486-0.066-0.934-0.143-1.354-0.225a10 2 0 0 1-0.13867-0.02539c-0.393-0.08-0.746-0.166-1.068-0.258a10 2 0 0 1-0.17188-0.04883c-0.293-0.089-0.544-0.183-0.764-0.281a10 2 0 0 1-0.17774-0.07813c-0.029-0.015-0.054-0.03-0.082-0.045a10 2 0 0 1-0.23242-0.14062c-0.031-0.022-0.057-0.044-0.084-0.066a10 2 0 0 1-0.13281-0.11719c-0.027-0.029-0.047-0.058-0.068-0.088a10 2 0 0 1-0.06836-0.11328c-0.023061-0.058117-0.043061-0.10812-0.043061-0.16812a10 2 0 0 1 0.19922-0.39648 10 2 0 0 1 0.62305-0.39648c0.228-0.106 0.505-0.206 0.816-0.301a10 2 0 0 1 0.10352-0.0332 10 2 0 0 1 0.0039-2e-3c0.342-0.1 0.729-0.192 1.154-0.277 0.016-3e-3 0.029-7e-3 0.045-0.01 0.422-0.084 0.884-0.161 1.375-0.229a10 2 0 0 1 0.14258-0.01953c0.456-0.061 0.946-0.113 1.451-0.158a10 2 0 0 1 0.34961-0.03125c0.512-0.041 1.044-0.074 1.594-0.098a10 2 0 0 1 0.2207-0.0098c0.62343-0.028251 1.2644-0.038251 1.9224-0.038251 0.693 0 1.353 0.021 2 0.051v-0.01a10 2 0 0 1 1 0.05273v-0.979a11 3 0 0 0-3-0.11473m0 16h-1v3h1v1h-8v-1h-3v3h3v-1h16v1h3v-3h-3v1h-7v-1h1v-3zm7-16v3h1v-1.219c0.611 0.545 1 1.331 1 2.219 0 1.662-1.338 3-3 3h-2v1h2c2.216 0 4-1.784 4-4 0-1.205-0.534-2.272-1.373-3h1.373v-1zm-17 9.24c1.784 1.07 5.692 1.759 10 1.76 4.31-1e-3 8.22-0.69 10-1.76v3.76a10 2 0 0 1-10 2 10 2 0 0 1-10-2v-2zm10 7.76h1v1h-1zm-10 3h1v1h-1zm19 0h1v1h-1z" fill="#fff" opacity=".75"/>
</svg>
