<svg width="64" height="64" version="1.1" viewBox="0 0 16.933 16.933" xmlns="http://www.w3.org/2000/svg">
<defs>
<linearGradient id="linearGradient1082" x1="40" x2="46" y1="17" y2="11" gradientTransform="matrix(.26458 0 0 .26458 -.0055807 -.26458)" gradientUnits="userSpaceOnUse">
<stop stop-color="#fefefe" offset="0"/>
<stop stop-color="#e9e9e9" offset="1"/>
</linearGradient>
<linearGradient id="linearGradient1080" x1="21.039" x2="21.039" y1="2" y2="62" gradientTransform="matrix(.26458 0 0 .26458 -.0055805 -.26458)" gradientUnits="userSpaceOnUse">
<stop stop-color="#73e94f" offset="0"/>
<stop stop-color="#19c262" offset="1"/>
</linearGradient>
</defs>
<image x="1.7198" y="-.030818" width="13.493" height="17.096" image-rendering="optimizeQuality" preserveAspectRatio="none"/>
<path d="m9.5193 0.26354-6.6145 0.001034c-0.29315 0-0.52916 0.23601-0.52916 0.52916v14.816c0 0.29315 0.23601 0.52916 0.52916 0.52916h11.112c0.29315 0 0.52916-0.23601 0.52916-0.52916v-10.319c0-0.14159-0.04797-0.32932-0.14728-0.52969h-3.8213c-0.29318 0-0.52916-0.236-0.52916-0.52916v-3.8554c-0.19958-0.087925-0.38906-0.11265-0.52916-0.11265z" fill="url(#linearGradient1080)" stroke-width=".26458"/>
<image x="6.8216" y=".26458" width="7.7238" height="7.6744" image-rendering="optimizeQuality" opacity=".75" preserveAspectRatio="none"/>
<path d="m10.048 0.37541v3.8562c0 0.29315 0.23601 0.52918 0.52918 0.52918h3.8271c-0.086271-0.1743-0.21103-0.35779-0.3824-0.52918l-3.4395-3.4395c-0.16657-0.21078-0.35184-0.33837-0.52918-0.4165z" fill="url(#linearGradient1082)"/>
<path d="m7.8424 5.1084c-0.48833-0.03224-1.0378 0.31461-1.0183 0.84901-0.05775 0.31806 0.24896 0.55539 0.23561 0.84243-0.18067 0.0792-0.31804 0.0792-0.44525 0.0792h-2.1166c0 0.61015 1e-6 1.4849 1e-6 2.095 0.16525 0.35983 0.50265-0.15404 0.76917-0.09846 0.50926-0.1066 0.96764 0.3398 0.99203 0.83311 0.06771 0.47064-0.11443 1.0824-0.64776 1.1771-0.28767 0.04857-0.59728-0.0047-0.83352-0.18047-0.28447-0.17171-0.30258 0.20506-0.27993 0.38962v2.134h2.4342c0.35983-0.16525-0.15404-0.50265-0.09846-0.76917-0.10654-0.50914 0.33976-0.96791 0.83311-0.99209 0.47065-0.06757 1.0824 0.11445 1.1771 0.64782 0.04857 0.28767-0.0047 0.59728-0.18047 0.83352-0.17171 0.28447 0.20506 0.30258 0.38962 0.27993l1.7948 1e-6v-2.4231c0.16921-0.36295 0.50633 0.16805 0.78146 0.08895 0.44172 0.08689 0.88936-0.2288 0.956-0.67343 0.11271-0.49203-0.02706-1.1447-0.56572-1.3173-0.34122-0.11621-0.68122 0.03221-0.96926 0.20758-0.26514 0.03742-0.19416-0.28348-0.20248-0.4489 0-0.50636-1e-6 -1.2773-1e-6 -1.7837l-1.852-1e-6h-0.23185c-0.36296-0.1692 0.16805-0.50633 0.08895-0.78146 0.08689-0.44172-0.2288-0.88936-0.67342-0.956-0.1106-0.02387-0.22396-0.03314-0.33697-0.03317z" color="#000000" fill="#fff"/>
</svg>
