<svg width="64" height="64" version="1.1" xmlns="http://www.w3.org/2000/svg">
<defs>
<linearGradient id="linearGradient1082" x1="40" x2="46" y1="17" y2="11" gradientTransform="translate(-.019793 -1)" gradientUnits="userSpaceOnUse">
<stop stop-color="#fefefe" offset="0"/>
<stop stop-color="#e9e9e9" offset="1"/>
</linearGradient>
<linearGradient id="linearGradient1080" x1="21.039" x2="21.039" y1="2" y2="62" gradientTransform="translate(-9.18e-5 -1)" gradientUnits="userSpaceOnUse">
<stop stop-color="#70b3ff" offset="0"/>
<stop stop-color="#0075ff" offset="1"/>
</linearGradient>
</defs>
<image x="6.5" y="-.11648" width="51" height="64.616" image-rendering="optimizeQuality" preserveAspectRatio="none"/>
<path d="m36 0.99609-25 0.00391c-1.108 0-2 0.89202-2 2v55.998c0 1.108 0.89202 2 2 2h42c1.108 0 2-0.89202 2-2v-39.002c0-0.53515-0.18131-1.2447-0.55664-2.002h-14.443c-1.1081 0-2-0.892-2-2v-14.572c-0.75434-0.33232-1.4705-0.42578-2-0.42578z" fill="url(#linearGradient1080)"/>
<image x="25.783" y="1" width="29.193" height="29.006" image-rendering="optimizeQuality" opacity=".75" preserveAspectRatio="none"/>
<path d="m37.98 1.4189v14.575c0 1.108 0.89202 2.0001 2.0001 2.0001h14.465c-0.32607-0.65878-0.79761-1.3523-1.4453-2.0001l-13-13c-0.62957-0.79666-1.3298-1.2789-2.0001-1.5742z" fill="url(#linearGradient1082)" stroke-width="3.7796"/>
<path d="m31.92 23c-1.3-0.272-2.517 1.194-3.505 0.57-0.214 0.98-1.274 0.219-1.227 1.037-1.28 0.996-2.114 2.633-2.018 4.291-0.21 1.303 0.446 2.937-0.373 4.01-0.255 1.258-0.05 2.637 0.378 3.845 0.887 1.348 2.26 2.459 2.568 4.147 0.145 1.568-1.547 2.444-2.588 3.298-1.628 1.124-3.358 1.986-5.155 2.802v3h24v-3a20.344 20.344 0 0 1-6.508-4.538c-1.306-1.254-0.04-3.048 0.787-4.176 1.096-0.922 1.665-2.271 1.677-3.704 0.364-1.411-0.73-2.474-0.475-3.907-0.035-1.817 0.231-4.002-1.291-5.325-1.714-1.492-4.027-2.266-6.27-2.35z" color="#000000" fill="#fff" overflow="visible"/>
</svg>
