<svg width="64" height="64" version="1.1" viewBox="0 0 64 64" xmlns="http://www.w3.org/2000/svg">
<defs>
<linearGradient id="linearGradient984-3" x1="45.801" x2="9.8016" y1="9.9999" y2="61" gradientTransform="translate(.19832 -1)" gradientUnits="userSpaceOnUse">
<stop stop-color="#ededed" offset="0"/>
<stop stop-color="#fcfcfc" offset="1"/>
</linearGradient>
<linearGradient id="linearGradient1082-5" x1="40" x2="46" y1="17" y2="11" gradientTransform="translate(-.021093 -1)" gradientUnits="userSpaceOnUse">
<stop stop-color="#fefefe" offset="0"/>
<stop stop-color="#e9e9e9" offset="1"/>
</linearGradient>
</defs>
<image x="6.5002" y="-.11648" width="50.998" height="64.616" image-rendering="optimizeQuality" preserveAspectRatio="none"/>
<path d="m36.001 0.99607-25 0.00391c-1.108 0-2 0.89202-2 2v55.999c0 1.108 0.89202 2 2 2h41.999c1.108 0 2-0.89202 2-2v-39.002c0-0.53515-0.18131-1.2447-0.55666-2.002h-14.443c-1.1081 0-2-0.89199-2-2v-14.572c-0.75433-0.33232-1.4705-0.42577-2-0.42577z" fill="url(#linearGradient984-3)"/>
<image x="25.783" y="1" width="29.193" height="29.006" image-rendering="optimizeQuality" opacity=".75" preserveAspectRatio="none"/>
<path d="m37.977 1.4189v14.575c0 1.108 0.89202 2.0001 2.0001 2.0001h14.465c-0.32607-0.65878-0.79761-1.3523-1.4453-2.0001l-13-13c-0.62957-0.79666-1.3298-1.2789-2.0001-1.5742z" fill="url(#linearGradient1082-5)" stroke-width="3.7796"/>
<g fill="#7b7b7b" stroke-width=".20576" aria-label="KOTLIN">
<path d="m17.997 51.024h0.81179v2.5358l2.6926-2.5358h1.0449l-2.9779 2.7971 3.1909 3.203h-1.069l-2.8815-2.8895v2.8895h-0.81179z"/>
<path d="m25.379 51.575q-0.88413 0-1.4066 0.65908-0.51842 0.65908-0.51842 1.7964 0 1.1333 0.51842 1.7924 0.52244 0.65908 1.4066 0.65908 0.88413 0 1.3985-0.65908 0.51842-0.65908 0.51842-1.7924 0-1.1373-0.51842-1.7964-0.5144-0.65908-1.3985-0.65908zm0-0.65908q1.2619 0 2.0174 0.84796 0.75553 0.84394 0.75553 2.2666 0 1.4186-0.75553 2.2666-0.75553 0.84394-2.0174 0.84394-1.2659 0-2.0255-0.84394-0.75553-0.84394-0.75553-2.2666t0.75553-2.2666q0.75954-0.84796 2.0255-0.84796z"/>
<path d="m28.59 51.024h5.0757v0.68319h-2.1299v5.3168h-0.81581v-5.3168h-2.1299z"/>
<path d="m34.449 51.024h0.81179v5.3168h2.9216v0.68319h-3.7334z"/>
<path d="m39.035 51.024h0.81179v6h-0.81179z"/>
<path d="m41.462 51.024h1.0931l2.6604 5.0194v-5.0194h0.78768v6h-1.0931l-2.6604-5.0194v5.0194h-0.78768z"/>
</g>
<path d="m21 23v22h22l-11-11 11-11zm1 1h9l-9 9zm10.414 0h8.1719l-18.586 18.586v-8.1719zm-1.1211 10.707 9.293 9.293h-18.586z" fill="#6d6fff"/>
</svg>
