<svg width="64" height="64" version="1.1" viewBox="0 0 64 64" xmlns="http://www.w3.org/2000/svg">
<defs>
<linearGradient id="linearGradient984-3" x1="45.801" x2="9.8016" y1="9.9999" y2="61" gradientTransform="translate(.19832 -1)" gradientUnits="userSpaceOnUse">
<stop stop-color="#ededed" offset="0"/>
<stop stop-color="#fcfcfc" offset="1"/>
</linearGradient>
<linearGradient id="linearGradient1082-5" x1="40" x2="46" y1="17" y2="11" gradientTransform="translate(-.021093 -1)" gradientUnits="userSpaceOnUse">
<stop stop-color="#fefefe" offset="0"/>
<stop stop-color="#e9e9e9" offset="1"/>
</linearGradient>
</defs>
<image x="6.5002" y="-.11648" width="50.998" height="64.616" image-rendering="optimizeQuality" preserveAspectRatio="none"/>
<path d="m36.001 0.99607-25 0.00391c-1.108 0-2 0.89202-2 2v55.999c0 1.108 0.89202 2 2 2h41.999c1.108 0 2-0.89202 2-2v-39.002c0-0.53515-0.18131-1.2447-0.55666-2.002h-14.443c-1.1081 0-2-0.89199-2-2v-14.572c-0.75433-0.33232-1.4705-0.42577-2-0.42577z" fill="url(#linearGradient984-3)"/>
<image x="25.783" y="1" width="29.193" height="29.006" image-rendering="optimizeQuality" opacity=".75" preserveAspectRatio="none"/>
<path d="m37.977 1.4189v14.575c0 1.108 0.89202 2.0001 2.0001 2.0001h14.465c-0.32607-0.65878-0.79761-1.3523-1.4453-2.0001l-13-13c-0.62957-0.79666-1.3298-1.2789-2.0001-1.5742z" fill="url(#linearGradient1082-5)" stroke-width="3.7796"/>
<g fill="#7b7b7b" stroke-width=".20576" aria-label="HEX">
<path d="m24.019 51.024h0.81179v2.4595h2.9498v-2.4595h0.81179v6h-0.81179v-2.8573h-2.9498v2.8573h-0.81179z"/>
<path d="m30.208 51.024h3.7937v0.68319h-2.9819v1.7763h2.8573v0.68319h-2.8573v2.1741h3.0543v0.68319h-3.866z"/>
<path d="m35.119 51.024h0.87207l1.491 2.2304 1.499-2.2304h0.87207l-1.929 2.8815 2.0576 3.1186h-0.87207l-1.6879-2.5519-1.6999 2.5519h-0.87609l2.142-3.203z"/>
</g>
<path d="m28 23v7h-7v1h7v6h-7v1h7v7h1v-7h6v7h1v-7h7v-1h-7v-6h7v-1h-7v-7h-1v7h-6v-7zm1 8h6v6h-6z" color="#000000" color-rendering="auto" image-rendering="auto" opacity=".6" shape-rendering="auto" solid-color="#000000" style="isolation:auto;mix-blend-mode:normal"/>
</svg>
