<svg width="64" height="64" version="1.1" viewBox="0 0 16.933 16.933" xmlns="http://www.w3.org/2000/svg">
<defs>
<linearGradient id="linearGradient984" x1="45.801" x2="9.8016" y1="9.9999" y2="61" gradientTransform="matrix(.26458 0 0 .26458 .052471 -.26458)" gradientUnits="userSpaceOnUse">
<stop stop-color="#ededed" offset="0"/>
<stop stop-color="#fcfcfc" offset="1"/>
</linearGradient>
<linearGradient id="linearGradient1082" x1="40" x2="46" y1="17" y2="11" gradientTransform="matrix(.26458 0 0 .26458 -.0055806 -.26458)" gradientUnits="userSpaceOnUse">
<stop stop-color="#fefefe" offset="0"/>
<stop stop-color="#e9e9e9" offset="1"/>
</linearGradient>
</defs>
<image x="1.7198" y="-.030818" width="13.493" height="17.096" image-rendering="optimizeQuality" preserveAspectRatio="none"/>
<path d="m9.525 0.26354-6.6145 0.001034c-0.29315 0-0.52916 0.23601-0.52916 0.52916v14.816c0 0.29315 0.23601 0.52916 0.52916 0.52916h11.112c0.29315 0 0.52916-0.23601 0.52916-0.52916v-10.319c0-0.14159-0.04797-0.32932-0.14728-0.52969h-3.8213c-0.29318 0-0.52916-0.236-0.52916-0.52916v-3.8554c-0.19958-0.087925-0.38906-0.11265-0.52916-0.11265z" fill="url(#linearGradient984)" stroke-width=".26458"/>
<image x="6.8216" y=".26458" width="7.7238" height="7.6744" image-rendering="optimizeQuality" opacity=".75" preserveAspectRatio="none"/>
<path d="m10.048 0.37541v3.8562c0 0.29315 0.23601 0.52918 0.52918 0.52918h3.8271c-0.086271-0.1743-0.21103-0.35779-0.3824-0.52918l-3.4395-3.4395c-0.16657-0.21078-0.35184-0.33837-0.52918-0.4165z" fill="url(#linearGradient1082)"/>
<g fill="#7b7b7b" stroke-width=".05444" aria-label="CPP">
<path d="m7.7716 13.622v0.22648q-0.10845-0.10101-0.23179-0.15098-0.12228-0.04997-0.2605-0.04997-0.2722 0-0.4168 0.16693-0.14461 0.16587-0.14461 0.4806 0 0.31367 0.14461 0.4806 0.14461 0.16587 0.4168 0.16587 0.13823 0 0.2605-0.04997 0.12334-0.04997 0.23179-0.15098v0.22435q-0.11271 0.07656-0.23924 0.11483-0.12547 0.03828-0.26582 0.03828-0.36045 0-0.56779-0.2201-0.20734-0.22116-0.20734-0.60288 0-0.38278 0.20734-0.60288 0.20734-0.22116 0.56779-0.22116 0.14248 0 0.26795 0.03828 0.12653 0.03721 0.23711 0.11271z"/>
<path d="m8.3182 13.676v0.5965h0.27007q0.14992 0 0.23179-0.07762 0.081872-0.07762 0.081872-0.22116 0-0.14248-0.081872-0.2201t-0.23179-0.07762zm-0.21478-0.1765h0.48485q0.26688 0 0.40298 0.12121 0.13716 0.12015 0.13716 0.35301 0 0.23498-0.13716 0.35513-0.1361 0.12015-0.40298 0.12015h-0.27007v0.63797h-0.21478z"/>
<path d="m9.6313 13.676v0.5965h0.27007q0.14992 0 0.23179-0.07762t0.08187-0.22116q0-0.14248-0.08187-0.2201t-0.23179-0.07762zm-0.21478-0.1765h0.48485q0.26688 0 0.40298 0.12121 0.13716 0.12015 0.13716 0.35301 0 0.23498-0.13716 0.35513-0.1361 0.12015-0.40298 0.12015h-0.27007v0.63797h-0.21478z"/>
</g>
<path d="m5.2916 7.6728h1.0583v0.52916h-1.0583s-0.52916 0-0.52916 0.52916v1.5875c0 0.52916 0.52916 0.52916 0.52916 0.52916h1.0583v0.52916h-1.0583s-1.0583 0-1.0583-1.0583v-1.5875c0-1.0583 1.0583-1.0583 1.0583-1.0583zm2.6458 0.52916h0.52916v1.0583h1.0583v0.52916h-1.0583v1.0583h-0.52916v-1.0583h-1.0583v-0.52916h1.0583zm3.1749 0h0.52916v1.0583h1.0583v0.52916h-1.0583v1.0583h-0.52916v-1.0583h-1.0583v-0.52916h1.0583z" color="#000000" fill="#2b898f" style="text-decoration-line:none;text-indent:0;text-transform:none"/>
</svg>
