<svg width="64" height="64" version="1.1" viewBox="0 0 64 64" xmlns="http://www.w3.org/2000/svg">
<defs>
<linearGradient id="linearGradient984" x1="45.801" x2="9.8016" y1="9.9999" y2="61" gradientTransform="translate(.19832 -1)" gradientUnits="userSpaceOnUse">
<stop stop-color="#ededed" offset="0"/>
<stop stop-color="#fcfcfc" offset="1"/>
</linearGradient>
<linearGradient id="linearGradient1082" x1="40" x2="46" y1="17" y2="11" gradientTransform="translate(-.021093 -1)" gradientUnits="userSpaceOnUse">
<stop stop-color="#fefefe" offset="0"/>
<stop stop-color="#e9e9e9" offset="1"/>
</linearGradient>
</defs>
<image x="6.5002" y="-.11648" width="50.998" height="64.616" image-rendering="optimizeQuality" preserveAspectRatio="none"/>
<path d="m36.001 0.99607-25 0.00391c-1.108 0-2 0.89202-2 2v55.999c0 1.108 0.89202 2 2 2h41.999c1.108 0 2-0.89202 2-2v-39.002c0-0.53515-0.18131-1.2447-0.55666-2.002h-14.443c-1.1081 0-2-0.89199-2-2v-14.572c-0.75433-0.33232-1.4705-0.42577-2-0.42577z" fill="url(#linearGradient984)"/>
<image x="25.783" y="1" width="29.193" height="29.006" image-rendering="optimizeQuality" opacity=".75" preserveAspectRatio="none"/>
<path d="m37.977 1.4189v14.575c0 1.108 0.89202 2.0001 2.0001 2.0001h14.465c-0.32607-0.65878-0.79761-1.3523-1.4453-2.0001l-13-13c-0.62957-0.79666-1.3298-1.2789-2.0001-1.5742z" fill="url(#linearGradient1082)" stroke-width="3.7796"/>
<g fill="#7b7b7b" stroke-width=".20576" aria-label="SCALA">
<path d="m22.664 51.221v0.7917q-0.46216-0.22103-0.87207-0.32954t-0.7917-0.10851q-0.6631 0-1.0248 0.2572-0.35767 0.2572-0.35767 0.73141 0 0.39786 0.23711 0.60281 0.24112 0.20094 0.90824 0.32552l0.49029 0.10047q0.90824 0.17281 1.3382 0.61085 0.43403 0.43403 0.43403 1.1654 0 0.87207-0.58674 1.3222-0.58272 0.4501-1.712 0.4501-0.42599 0-0.90824-0.09645-0.47823-0.09645-0.99263-0.28533v-0.8359q0.49431 0.2773 0.96852 0.41795 0.47421 0.14066 0.93235 0.14066 0.69524 0 1.073-0.27328t0.37776-0.77964q0-0.44206-0.27328-0.69123-0.26926-0.24916-0.88815-0.37374l-0.49431-0.09645q-0.90824-0.18084-1.3141-0.56664-0.40589-0.3858-0.40589-1.073 0-0.79571 0.55861-1.2539 0.56263-0.45814 1.5472-0.45814 0.42197 0 0.86001 0.07636t0.89618 0.22907z"/>
<path d="m28.785 51.487v0.856q-0.40991-0.38178-0.87609-0.57066-0.46216-0.18888-0.9846-0.18888-1.0288 0-1.5754 0.63094-0.54655 0.62693-0.54655 1.8165 0 1.1855 0.54655 1.8165 0.54655 0.62693 1.5754 0.62693 0.52244 0 0.9846-0.18888 0.46618-0.18888 0.87609-0.57066v0.84796q-0.42599 0.28935-0.90422 0.43403-0.47421 0.14468-1.0047 0.14468-1.3624 0-2.146-0.83188-0.78366-0.8359-0.78366-2.2786 0-1.4468 0.78366-2.2786 0.78366-0.8359 2.146-0.8359 0.53851 0 1.0127 0.14468 0.47823 0.14066 0.89618 0.42599z"/>
<path d="m32.044 51.824-1.1011 2.9859h2.2063zm-0.45814-0.79973h0.9203l2.2867 6h-0.84394l-0.54655-1.5392h-2.7046l-0.54655 1.5392h-0.856z"/>
<path d="m35.669 51.024h0.81179v5.3168h2.9216v0.68319h-3.7334z"/>
<path d="m42.449 51.824-1.1011 2.9859h2.2063zm-0.45814-0.79973h0.9203l2.2867 6h-0.84394l-0.54655-1.5392h-2.7046l-0.54655 1.5392h-0.856z"/>
</g>
<path d="m43 32c-11.921 4.372-16.851 4.113-22 4v7c7.357-0.629 14.73-0.779 22-4v-6zm-1 1.369v4.924c-6.515 2.732-13.189 3.061-20 3.609v-4.895c4.615 0.097 9.78-0.051 20-3.639" color="#4d4d4d" color-rendering="auto" fill="#892a1f" image-rendering="auto" shape-rendering="auto" solid-color="#000000" style="isolation:auto;mix-blend-mode:normal"/>
<use y="-11" width="100%" height="100%" color="#4d4d4d" color-rendering="auto" fill="#892a1f" image-rendering="auto" shape-rendering="auto" solid-color="#000000" text-rendering="auto" style="isolation:auto;mix-blend-mode:normal"/>
</svg>
