<svg width="64" height="64" version="1.1" viewBox="0 0 16.933 16.933" xmlns="http://www.w3.org/2000/svg">
<defs>
<linearGradient id="linearGradient1082" x1="40" x2="46" y1="17" y2="11" gradientTransform="matrix(.26458 0 0 .26458 -.0055806 -.26458)" gradientUnits="userSpaceOnUse">
<stop stop-color="#fefefe" offset="0"/>
<stop stop-color="#e9e9e9" offset="1"/>
</linearGradient>
<linearGradient id="linearGradient984" x1="45.801" x2="9.8016" y1="9.9999" y2="61" gradientTransform="matrix(.26458 0 0 .26458 .052471 -.26458)" gradientUnits="userSpaceOnUse">
<stop stop-color="#ededed" offset="0"/>
<stop stop-color="#fcfcfc" offset="1"/>
</linearGradient>
</defs>
<image x="1.7198" y="-.030818" width="13.493" height="17.096" image-rendering="optimizeQuality" preserveAspectRatio="none"/>
<path d="m9.525 0.26354-6.6145 0.0010345c-0.29315 0-0.52916 0.23601-0.52916 0.52916v14.816c0 0.29315 0.23601 0.52916 0.52916 0.52916h11.112c0.29315 0 0.52916-0.23601 0.52916-0.52916v-10.319c0-0.14159-0.04797-0.32932-0.14728-0.52969h-3.8213c-0.29318 0-0.52916-0.236-0.52916-0.52916v-3.8554c-0.19958-0.087925-0.38906-0.11265-0.52916-0.11265z" fill="url(#linearGradient984)" stroke-width=".26458"/>
<g transform="translate(-22.754 1.3225)">
<path d="m29.104 3.4395v0.26458h3.1749v-0.26458zm0 0.79373v0.26458h5.8207v-0.26458zm0 0.79374v0.26458h2.1166v-0.26458z" enable-background="new" fill="#76c22b"/>
<path d="m27.516 11.377v0.26458h7.4082v-0.26458z" enable-background="new" fill="#76c22b"/>
<path d="m28.574 6.6145v0.26458h4.3655v-0.26458zm0 0.79373v0.26458h1.5875v-0.26458zm0 0.79373v0.26458h3.7041v-0.26458z" enable-background="new" fill="#8f76e4"/>
<path d="m27.516 5.8207v0.26458h2.1166v-0.26458z" enable-background="new" fill="#46a926"/>
<path d="m30.162 8.9957v0.26458h1.5875v-0.26458zm-1.5875 0.79373v0.26458h3.1749v-0.26458z" enable-background="new" fill="#76c22b"/>
<path d="m27.516 8.9957v0.26458h2.1166v-0.26458zm0 1.5875v0.26458h2.1166v-0.26458z" enable-background="new" fill="#46a926"/>
<path d="m27.516 3.4395v0.26458h1.0583v-0.26458zm0 0.79373v0.26458h1.0583v-0.26458zm0 0.79374v0.26458h1.0583v-0.26458z" enable-background="new" fill="#46a926"/>
<path d="m32.279 9.7894v0.26458h1.5875v-0.26458z" enable-background="new" fill="#f22c42"/>
<path d="m30.691 7.4082v0.26458h1.5875v-0.26458z" enable-background="new" fill="#f22c42"/>
<path d="m27.516 12.171v0.26458h7.4082v-0.26458zm0 0.79374v0.26458h3.7041v-0.26458z" enable-background="new" fill="#76c22b"/>
</g>
<image x="6.8216" y=".26458" width="7.7238" height="7.6744" image-rendering="optimizeQuality" opacity=".75" preserveAspectRatio="none"/>
<path d="m10.048 0.37541v3.8562c0 0.29315 0.23601 0.52918 0.52918 0.52918h3.8271c-0.086271-0.1743-0.21103-0.35779-0.3824-0.52918l-3.4395-3.4395c-0.16657-0.21078-0.35184-0.33837-0.52918-0.4165z" fill="url(#linearGradient1082)"/>
</svg>
