<svg width="64" height="64" version="1.1" xmlns="http://www.w3.org/2000/svg">
<defs>
<linearGradient id="linearGradient984" x1="45.801" x2="9.8016" y1="9.9999" y2="61" gradientTransform="translate(.19832 -1)" gradientUnits="userSpaceOnUse">
<stop stop-color="#ededed" offset="0"/>
<stop stop-color="#fcfcfc" offset="1"/>
</linearGradient>
<linearGradient id="linearGradient1082" x1="40" x2="46" y1="17" y2="11" gradientTransform="translate(-.021093 -1)" gradientUnits="userSpaceOnUse">
<stop stop-color="#fefefe" offset="0"/>
<stop stop-color="#e9e9e9" offset="1"/>
</linearGradient>
</defs>
<image x="6.5002" y="-.11648" width="50.998" height="64.616" image-rendering="optimizeQuality" preserveAspectRatio="none"/>
<path d="m36.001 0.99607-25 0.00391c-1.108 0-2 0.89202-2 2v55.999c0 1.108 0.89202 2 2 2h41.999c1.108 0 2-0.89202 2-2v-39.002c0-0.53515-0.18131-1.2447-0.55666-2.002h-14.443c-1.1081 0-2-0.89199-2-2v-14.572c-0.75433-0.33232-1.4705-0.42577-2-0.42577z" fill="url(#linearGradient984)"/>
<image x="25.783" y="1" width="29.193" height="29.006" image-rendering="optimizeQuality" opacity=".75" preserveAspectRatio="none"/>
<path d="m37.977 1.4189v14.575c0 1.108 0.89202 2.0001 2.0001 2.0001h14.465c-0.32607-0.65878-0.79761-1.3523-1.4453-2.0001l-13-13c-0.62957-0.79666-1.3298-1.2789-2.0001-1.5742z" fill="url(#linearGradient1082)" stroke-width="3.7796"/>
<g transform="translate(0 3.3336)" fill="#f55" aria-label="SPEC">
<path d="m17.115 34.519c2.6062 0 4.1456-1.5698 4.1456-3.414 0-1.6308-0.89923-2.4995-2.2709-3.0635l-1.4784-0.62489c-0.96019-0.38103-1.768-0.67061-1.768-1.4784 0-0.74682 0.64013-1.1888 1.6308-1.1888 0.92971 0 1.6765 0.3353 2.3929 0.92971l1.1431-1.4174c-0.91447-0.92971-2.2252-1.4479-3.5359-1.4479-2.2862 0-3.9017 1.4174-3.9017 3.2616 0 1.646 1.1431 2.5605 2.2862 3.033l1.5089 0.64013c1.0059 0.42675 1.6918 0.68585 1.6918 1.5241 0 0.79254-0.62489 1.2955-1.7985 1.2955-0.99067 0-2.0576-0.50296-2.8653-1.2498l-1.2955 1.5546c1.0974 1.0516 2.6062 1.646 4.1151 1.646z"/>
<path d="m23.243 34.306h2.2557v-4.0084h1.5089c2.4233 0 4.359-1.1583 4.359-3.7341 0-2.6672-1.9204-3.5359-4.4199-3.5359h-3.7036zm2.2557-5.7916v-3.7036h1.2803c1.5546 0 2.3776 0.44199 2.3776 1.7527 0 1.2955-0.74682 1.9509-2.3014 1.9509z"/>
<path d="m33.423 34.306h7.0871v-1.8899h-4.8314v-3.0177h3.9627v-1.8899h-3.9627v-2.6062h4.6638v-1.8747h-6.9195z"/>
<path d="m47.403 34.519c1.4632 0 2.6672-0.57916 3.5969-1.6613l-1.1888-1.4022c-0.60965 0.65537-1.3717 1.1126-2.3319 1.1126-1.7832 0-2.9415-1.4784-2.9415-3.9322 0-2.4233 1.2803-3.8865 2.9873-3.8865 0.8535 0 1.5089 0.39627 2.0728 0.94495l1.1888-1.4327c-0.73158-0.76206-1.8747-1.4479-3.3073-1.4479-2.8501 0-5.243 2.1795-5.243 5.8983 0 3.7646 2.3167 5.8069 5.1668 5.8069z"/>
</g>
<g transform="translate(-.24114)" fill="#7b7b7b" stroke-width=".20576" aria-label="SPEC">
<path d="m26.03 51.221v0.7917q-0.46216-0.22103-0.87207-0.32954t-0.7917-0.10851q-0.6631 0-1.0248 0.2572-0.35767 0.2572-0.35767 0.73141 0 0.39786 0.23711 0.60281 0.24113 0.20094 0.90824 0.32552l0.49029 0.10047q0.90824 0.17281 1.3382 0.61085 0.43403 0.43403 0.43403 1.1654 0 0.87207-0.58674 1.3222-0.58272 0.4501-1.712 0.4501-0.42599 0-0.90824-0.09645-0.47823-0.09645-0.99263-0.28533v-0.8359q0.49431 0.2773 0.96852 0.41795 0.47421 0.14066 0.93235 0.14066 0.69525 0 1.073-0.27328 0.37776-0.27328 0.37776-0.77964 0-0.44206-0.27328-0.69123-0.26926-0.24916-0.88815-0.37374l-0.49431-0.09645q-0.90824-0.18084-1.3141-0.56664t-0.4059-1.073q0-0.79571 0.55861-1.2539 0.56263-0.45814 1.5472-0.45814 0.42197 0 0.86002 0.07636t0.89618 0.22907z"/>
<path d="m28.47 51.692v2.2545h1.0208q0.56665 0 0.87609-0.29337t0.30944-0.8359q0-0.53851-0.30944-0.83188t-0.87609-0.29337zm-0.81179-0.66711h1.8326q1.0087 0 1.5231 0.45814 0.51842 0.45412 0.51842 1.3342 0 0.88815-0.51842 1.3423-0.5144 0.45412-1.5231 0.45412h-1.0208v2.4113h-0.81179z"/>
<path d="m32.621 51.024h3.7937v0.68319h-2.9819v1.7763h2.8573v0.68319h-2.8573v2.1741h3.0543v0.68319h-3.866z"/>
<path d="m42.314 51.487v0.856q-0.40991-0.38178-0.87609-0.57066-0.46216-0.18888-0.9846-0.18888-1.0288 0-1.5754 0.63094-0.54655 0.62693-0.54655 1.8165 0 1.1855 0.54655 1.8165 0.54655 0.62693 1.5754 0.62693 0.52244 0 0.9846-0.18888 0.46618-0.18888 0.87609-0.57066v0.84796q-0.42599 0.28935-0.90422 0.43403-0.47421 0.14468-1.0047 0.14468-1.3624 0-2.146-0.83188-0.78366-0.8359-0.78366-2.2786 0-1.4468 0.78366-2.2786 0.78366-0.8359 2.146-0.8359 0.53851 0 1.0127 0.14468 0.47823 0.14066 0.89618 0.42599z"/>
</g>
</svg>
