<svg width="64" height="64" version="1.1" viewBox="0 0 16.933 16.933" xmlns="http://www.w3.org/2000/svg">
<defs>
<linearGradient id="linearGradient984" x1="45.801" x2="9.8016" y1="9.9999" y2="61" gradientTransform="matrix(.26458 0 0 .26458 .052471 -.26458)" gradientUnits="userSpaceOnUse">
<stop stop-color="#ededed" offset="0"/>
<stop stop-color="#fcfcfc" offset="1"/>
</linearGradient>
<linearGradient id="linearGradient1082" x1="40" x2="46" y1="17" y2="11" gradientTransform="matrix(.26458 0 0 .26458 -.0055806 -.26458)" gradientUnits="userSpaceOnUse">
<stop stop-color="#fefefe" offset="0"/>
<stop stop-color="#e9e9e9" offset="1"/>
</linearGradient>
</defs>
<image x="1.7198" y="-.030818" width="13.493" height="17.096" image-rendering="optimizeQuality" preserveAspectRatio="none"/>
<path d="m9.525 0.26354-6.6145 0.001034c-0.29315 0-0.52916 0.23601-0.52916 0.52916v14.816c0 0.29315 0.23601 0.52916 0.52916 0.52916h11.112c0.29315 0 0.52916-0.23601 0.52916-0.52916v-10.319c0-0.14159-0.04797-0.32932-0.14728-0.52969h-3.8213c-0.29318 0-0.52916-0.236-0.52916-0.52916v-3.8554c-0.19958-0.087925-0.38906-0.11265-0.52916-0.11265z" fill="url(#linearGradient984)" stroke-width=".26458"/>
<image x="6.8216" y=".26458" width="7.7238" height="7.6744" image-rendering="optimizeQuality" opacity=".75" preserveAspectRatio="none"/>
<path d="m10.048 0.37541v3.8562c0 0.29315 0.23601 0.52918 0.52918 0.52918h3.8271c-0.086271-0.1743-0.21103-0.35779-0.3824-0.52918l-3.4395-3.4395c-0.16657-0.21078-0.35184-0.33837-0.52918-0.4165z" fill="url(#linearGradient1082)"/>
<path d="m9.5992 10.252s0.30458 0.09191 0.48152 0.18144c0.0614 0.03107 0.16763 0.09307 0.24426 0.17447 0.07506 0.07972 0.11166 0.16051 0.11166 0.16051l1.2145 2.195-2.2128 8e-4 -0.90658-1.6664s-0.18577-0.31919-0.30008-0.41174c-0.09536-0.0772-0.13602-0.10468-0.23029-0.10468h-0.46095l-3.25e-4 2.1816h-1.984v-6.3487h3.075c1.092 0 2.5322 0.32672 2.5322 1.8206 0 1.4939-1.5642 1.817-1.5642 1.817zm-2.0592-2.4472v1.5872h0.94162s0.72999 0 0.77856-0.7766c0.05068-0.81043-0.77901-0.80972-0.77901-0.80972z" enable-background="new" fill="#3f51b5" fill-rule="evenodd" stroke-width=".066145"/>
</svg>
