<svg width="64" height="64" version="1.1" viewBox="0 0 16.933 16.933" xmlns="http://www.w3.org/2000/svg">
<defs>
<linearGradient id="linearGradient984" x1="45.801" x2="9.8016" y1="9.9999" y2="61" gradientTransform="matrix(.26458 0 0 .26458 .052471 -.26458)" gradientUnits="userSpaceOnUse">
<stop stop-color="#ededed" offset="0"/>
<stop stop-color="#fcfcfc" offset="1"/>
</linearGradient>
<linearGradient id="linearGradient1082" x1="40" x2="46" y1="17" y2="11" gradientTransform="matrix(.26458 0 0 .26458 -.0055806 -.26458)" gradientUnits="userSpaceOnUse">
<stop stop-color="#fefefe" offset="0"/>
<stop stop-color="#e9e9e9" offset="1"/>
</linearGradient>
</defs>
<image x="1.7198" y="-.030818" width="13.493" height="17.096" image-rendering="optimizeQuality" preserveAspectRatio="none"/>
<path d="m9.525 0.26354-6.6145 0.001034c-0.29315 0-0.52916 0.23601-0.52916 0.52916v14.816c0 0.29315 0.23601 0.52916 0.52916 0.52916h11.112c0.29315 0 0.52916-0.23601 0.52916-0.52916v-10.319c0-0.14159-0.04797-0.32932-0.14728-0.52969h-3.8213c-0.29318 0-0.52916-0.236-0.52916-0.52916v-3.8554c-0.19958-0.087925-0.38906-0.11265-0.52916-0.11265z" fill="url(#linearGradient984)" stroke-width=".26458"/>
<image x="6.8216" y=".26458" width="7.7238" height="7.6744" image-rendering="optimizeQuality" opacity=".75" preserveAspectRatio="none"/>
<path d="m10.048 0.37541v3.8562c0 0.29315 0.23601 0.52918 0.52918 0.52918h3.8271c-0.086271-0.1743-0.21103-0.35779-0.3824-0.52918l-3.4395-3.4395c-0.16657-0.21078-0.35184-0.33837-0.52918-0.4165z" fill="url(#linearGradient1082)"/>
<g fill="#7b7b7b" stroke-width=".043727" aria-label="TYPESCRIPT">
<path d="m3.2202 13.524h1.0786v0.14518h-0.45264v1.1299h-0.17337v-1.1299h-0.45264z"/>
<path d="m4.2903 13.524h0.18532l0.35357 0.52437 0.35101-0.52437h0.18532l-0.45093 0.66785v0.60721h-0.17337v-0.60721z"/>
<path d="m5.7063 13.666v0.47911h0.21692q0.12042 0 0.18618-0.06234t0.06576-0.17764q0-0.11444-0.06576-0.17678-0.06576-0.06235-0.18618-0.06235zm-0.17251-0.14177h0.38944q0.21436 0 0.32368 0.09736 0.11017 0.09651 0.11017 0.28354 0 0.18874-0.11017 0.28525-0.10932 0.09651-0.32368 0.09651h-0.21692v0.51242h-0.17251z"/>
<path d="m6.5885 13.524h0.8062v0.14518h-0.63369v0.37748h0.60721v0.14518h-0.60721v0.46203h0.64906v0.14518h-0.82158z"/>
<path d="m8.458 13.566v0.16824q-0.098213-0.04697-0.18532-0.07003-0.087111-0.02306-0.16824-0.02306-0.14091 0-0.21778 0.05466-0.076009 0.05466-0.076009 0.15543 0 0.08455 0.050388 0.1281 0.051242 0.0427 0.19301 0.06918l0.10419 0.02135q0.19301 0.03672 0.28439 0.12981 0.092235 0.09224 0.092235 0.24767 0 0.18532-0.12469 0.28098-0.12383 0.09565-0.36382 0.09565-0.090527 0-0.19301-0.0205-0.10163-0.0205-0.21094-0.06064v-0.17764q0.10505 0.05893 0.20582 0.08882 0.10078 0.02989 0.19813 0.02989 0.14775 0 0.22803-0.05807 0.080279-0.05807 0.080279-0.16568 0-0.09394-0.058074-0.14689-0.05722-0.05295-0.18874-0.07942l-0.10505-0.0205q-0.19301-0.03843-0.27927-0.12042-0.086257-0.08199-0.086257-0.22803 0-0.1691 0.11871-0.26646 0.11956-0.09736 0.3288-0.09736 0.089673 0 0.18276 0.01623t0.19045 0.04868z"/>
<path d="m9.7586 13.623v0.18191q-0.087111-0.08113-0.18618-0.12127-0.098213-0.04014-0.20924-0.04014-0.21863 0-0.33478 0.13408-0.11615 0.13323-0.11615 0.38602 0 0.25194 0.11615 0.38602 0.11615 0.13323 0.33478 0.13323 0.11102 0 0.20924-0.04014 0.099067-0.04014 0.18618-0.12127v0.1802q-0.090527 0.06149-0.19216 0.09224-0.10078 0.03074-0.21351 0.03074-0.28952 0-0.45605-0.17678-0.16654-0.17764-0.16654-0.48423 0-0.30745 0.16654-0.48423 0.16654-0.17764 0.45605-0.17764 0.11444 0 0.21522 0.03074 0.10163 0.02989 0.19045 0.09053z"/>
<path d="m10.63 14.202q0.05551 0.01879 0.10761 0.08028 0.05295 0.06149 0.1059 0.1691l0.17508 0.34844h-0.18532l-0.16312-0.32709q-0.0632-0.1281-0.12298-0.16995-0.05893-0.04185-0.16141-0.04185h-0.18789v0.53889h-0.17251v-1.2751h0.38944q0.21863 0 0.32624 0.09138t0.10761 0.27585q0 0.12042-0.05637 0.19984-0.05551 0.07942-0.16226 0.11017zm-0.43214-0.53548v0.45264h0.21692q0.12469 0 0.18789-0.05722 0.06405-0.05807 0.06405-0.16995t-0.06405-0.16824q-0.0632-0.05722-0.18789-0.05722z"/>
<path d="m11.24 13.524h0.17251v1.2751h-0.17251z"/>
<path d="m11.929 13.666v0.47911h0.21692q0.12042 0 0.18618-0.06234t0.06576-0.17764q0-0.11444-0.06576-0.17678-0.06576-0.06235-0.18618-0.06235zm-0.17251-0.14177h0.38944q0.21436 0 0.32368 0.09736 0.11017 0.09651 0.11017 0.28354 0 0.18874-0.11017 0.28525-0.10932 0.09651-0.32368 0.09651h-0.21692v0.51242h-0.17251z"/>
<path d="m12.634 13.524h1.0786v0.14518h-0.45264v1.1299h-0.17337v-1.1299h-0.45264z"/>
</g>
<path class="st1" d="m10.96 6.0704c0.26821 0.06705 0.47273 0.18607 0.66048 0.38053 0.09723 0.10393 0.24139 0.29336 0.25313 0.33862 0.0034 0.01341-0.45596 0.32186-0.73424 0.49452-0.01006 0.0067-0.05029-0.03688-0.09555-0.10393-0.13578-0.19781-0.27827-0.2833-0.4962-0.29839-0.32018-0.02179-0.52637 0.14584-0.52469 0.42579 0 0.08214 0.01174 0.13076 0.04526 0.19781 0.07041 0.14584 0.20116 0.23301 0.61186 0.4107 0.75603 0.32521 1.0796 0.53978 1.2807 0.84487 0.22463 0.3403 0.27492 0.88343 0.12237 1.2874-0.16763 0.4392-0.58337 0.73759-1.1684 0.83649-0.18104 0.03185-0.61019 0.02682-0.80464-0.0084-0.42411-0.07544-0.82643-0.28498-1.0745-0.5599-0.09723-0.10729-0.28665-0.38723-0.27492-0.40735 5e-3 -0.0067 0.04861-0.03353 0.09723-0.06202 0.04694-0.02682 0.22463-0.12908 0.39226-0.2263l0.30342-0.17602 0.0637 0.09388c0.08885 0.13578 0.2833 0.32186 0.40064 0.38388 0.33694 0.17769 0.79961 0.15255 1.0276-0.05197 0.09723-0.08885 0.13746-0.18104 0.13746-0.31683 0-0.12237-0.01509-0.17602-0.07879-0.26822-0.08214-0.11734-0.24978-0.21625-0.72585-0.42244-0.54481-0.23469-0.7795-0.38053-0.99407-0.61186-0.12405-0.13411-0.24139-0.34868-0.29001-0.52805-0.04023-0.14919-0.05029-0.52302-0.01844-0.67389 0.11231-0.52637 0.50961-0.89349 1.0829-1.0024 0.18607-0.0352 0.61857-0.02179 0.80129 0.02347zm-2.4793 0.44088 0.0034 0.4325h-1.3746v3.9059h-0.97232v-3.9059h-1.3746v-0.42411c0-0.23469 5e-3 -0.43082 0.01173-0.43585 5e-3 -0.0067 0.84152-0.01006 1.8557-0.0084l1.8456 5e-3z" enable-background="new" fill="#1a7fd4" stroke-width=".0066144"/>
</svg>
