<svg version="1.1" viewBox="0 0 64 64" xmlns="http://www.w3.org/2000/svg">
<defs>
<linearGradient id="linearGradient1082" x1="40" x2="46" y1="17" y2="11" gradientTransform="translate(-.021092 -1)" gradientUnits="userSpaceOnUse">
<stop stop-color="#fefefe" offset="0"/>
<stop stop-color="#e9e9e9" offset="1"/>
</linearGradient>
<linearGradient id="linearGradient984" x1="45.801" x2="9.8016" y1="9.9999" y2="61" gradientTransform="translate(.19832 -1)" gradientUnits="userSpaceOnUse">
<stop stop-color="#ededed" offset="0"/>
<stop stop-color="#fcfcfc" offset="1"/>
</linearGradient>
</defs>
<image x="6.5002" y="-.11648" width="50.998" height="64.616" image-rendering="optimizeQuality" preserveAspectRatio="none"/>
<path d="m36.001 0.99607-25 0.00391c-1.108 0-2 0.89202-2 2v55.999c0 1.108 0.89202 2 2 2h41.999c1.108 0 2-0.89202 2-2v-39.002c0-0.53515-0.18131-1.2447-0.55666-2.002h-14.443c-1.1081 0-2-0.89199-2-2v-14.572c-0.75433-0.33232-1.4705-0.42577-2-0.42577z" fill="url(#linearGradient984)"/>
<image x="25.783" y="1" width="29.193" height="29.006" image-rendering="optimizeQuality" opacity=".75" preserveAspectRatio="none"/>
<path d="m37.977 1.4189v14.575c0 1.108 0.89202 2.0001 2.0001 2.0001h14.465c-0.32607-0.65878-0.79761-1.3523-1.4453-2.0001l-13-13c-0.62957-0.79666-1.3298-1.2789-2.0001-1.5742z" fill="url(#linearGradient1082)" stroke-width="3.7796"/>
<g transform="matrix(3.7796 0 0 3.7796 -.19787 3.4078e-7)" fill="#7b7b7b" stroke-width=".05444" aria-label="APPORT">
<path d="m4.9941 13.44-0.29134 0.79001h0.58374zm-0.12121-0.21159h0.24349l0.605 1.5875h-0.22329l-0.14461-0.40723h-0.71558l-0.14461 0.40723h-0.22648z"/>
<path d="m6.168 13.405v0.5965h0.27007q0.14992 0 0.23179-0.07762 0.081872-0.07762 0.081872-0.22116 0-0.14248-0.081872-0.2201t-0.23179-0.07762zm-0.21478-0.1765h0.48485q0.26688 0 0.40298 0.12121 0.13716 0.12015 0.13716 0.35301 0 0.23498-0.13716 0.35513-0.1361 0.12015-0.40298 0.12015h-0.27007v0.63796h-0.21478z"/>
<path d="m7.4811 13.405v0.5965h0.27007q0.14992 0 0.23179-0.07762 0.081872-0.07762 0.081872-0.22116 0-0.14248-0.081872-0.2201t-0.23179-0.07762zm-0.21478-0.1765h0.48485q0.26688 0 0.40298 0.12121 0.13716 0.12015 0.13716 0.35301 0 0.23498-0.13716 0.35513-0.1361 0.12015-0.40298 0.12015h-0.27007v0.63796h-0.21478z"/>
<path d="m9.2238 13.375q-0.23392 0-0.37215 0.17438-0.13716 0.17438-0.13716 0.47528 0 0.29984 0.13716 0.47422 0.13823 0.17438 0.37215 0.17438t0.37002-0.17438q0.13716-0.17438 0.13716-0.47422 0-0.30091-0.13716-0.47528-0.1361-0.17438-0.37002-0.17438zm0-0.17438q0.33387 0 0.53376 0.22435 0.1999 0.22329 0.1999 0.59969 0 0.37534-0.1999 0.59969-0.1999 0.22329-0.53376 0.22329-0.33493 0-0.53589-0.22329-0.1999-0.22329-0.1999-0.59969t0.1999-0.59969q0.20096-0.22435 0.53589-0.22435z"/>
<path d="m11.046 14.072q0.06911 0.02339 0.13397 0.09995 0.06592 0.07656 0.13185 0.21053l0.21797 0.43382h-0.23073l-0.20308-0.40723q-0.07868-0.15949-0.15311-0.21159-0.07337-0.0521-0.20096-0.0521h-0.23392v0.67093h-0.21478v-1.5875h0.48485q0.2722 0 0.40617 0.11377t0.13397 0.34344q0 0.14992-0.07018 0.24881-0.06911 0.09888-0.20202 0.13716zm-0.53802-0.66667v0.56354h0.27007q0.15524 0 0.23392-0.07124 0.07975-0.0723 0.07975-0.21159t-0.07975-0.20946q-0.07868-0.07124-0.23392-0.07124z"/>
<path d="m11.428 13.229h1.3429v0.18076h-0.56354v1.4067h-0.21584v-1.4067h-0.56354z"/>
</g>
<path d="m23 21c-1.108 0-2 0.892-2 2v18c0 1.108 0.892 2 2 2h18c1.108 0 2-0.892 2-2v-18c0-1.108-0.892-2-2-2h-18zm1 4h1v1h2v-1h1v1h-1v2h1v1h-1v-1h-2v1h-1v-1h1v-2h-1v-1zm12 0h1v1h2v-1h1v1h-1v2h1v1h-1v-1h-2v1h-1v-1h1v-2h-1v-1zm-7 8h6v2h2v2h2v2h-2v-2h-2v-2h-6v2h-2v2h-2v-2h2v-2h2v-2z" color="#000000" color-rendering="auto" fill="#d00310" image-rendering="auto" opacity=".75" shape-rendering="auto" solid-color="#000000" style="isolation:auto;mix-blend-mode:normal"/>
</svg>
