<svg width="64" height="64" version="1.1" viewBox="0 0 16.933 16.933" xmlns="http://www.w3.org/2000/svg">
<defs>
<linearGradient id="linearGradient984-36" x1="45.801" x2="9.8016" y1="9.9999" y2="61" gradientTransform="matrix(.26458 0 0 .26458 .052471 -.26458)" gradientUnits="userSpaceOnUse">
<stop stop-color="#ededed" offset="0"/>
<stop stop-color="#fcfcfc" offset="1"/>
</linearGradient>
<linearGradient id="linearGradient1082-3" x1="40" x2="46" y1="17" y2="11" gradientTransform="matrix(.26458 0 0 .26458 -.0055806 -.26458)" gradientUnits="userSpaceOnUse">
<stop stop-color="#fefefe" offset="0"/>
<stop stop-color="#e9e9e9" offset="1"/>
</linearGradient>
</defs>
<image x="1.7198" y="-.030818" width="13.493" height="17.096" image-rendering="optimizeQuality" preserveAspectRatio="none"/>
<path d="m9.525 0.26354-6.6145 0.001034c-0.29315 0-0.52916 0.23601-0.52916 0.52916v14.816c0 0.29315 0.23601 0.52916 0.52916 0.52916h11.112c0.29315 0 0.52916-0.23601 0.52916-0.52916v-10.319c0-0.14159-0.04797-0.32932-0.14728-0.52969h-3.8213c-0.29318 0-0.52916-0.236-0.52916-0.52916v-3.8554c-0.19958-0.087925-0.38906-0.11265-0.52916-0.11265z" fill="url(#linearGradient984-36)" stroke-width=".26458"/>
<image x="6.8216" y=".26458" width="7.7238" height="7.6744" image-rendering="optimizeQuality" opacity=".75" preserveAspectRatio="none"/>
<path d="m10.048 0.37541v3.8562c0 0.29315 0.23601 0.52918 0.52918 0.52918h3.8271c-0.086271-0.1743-0.21103-0.35779-0.3824-0.52918l-3.4395-3.4395c-0.16657-0.21078-0.35184-0.33837-0.52918-0.4165z" fill="url(#linearGradient1082-3)"/>
<g transform="matrix(.96385 0 0 .96385 .30605 .48697)" fill="#7b7b7b" stroke-width=".05444" aria-label="HASKELL">
<path d="m3.7094 13.5h0.21478v0.65072h0.78044v-0.65072h0.21478v1.5875h-0.21478v-0.75599h-0.78044v0.75599h-0.21478z"/>
<path d="m5.8774 13.712-0.29134 0.79001h0.58374zm-0.12121-0.21159h0.24349l0.605 1.5875h-0.22329l-0.14461-0.40724h-0.71558l-0.14461 0.40724h-0.22648z"/>
<path d="m7.7881 13.552v0.20947q-0.12228-0.05848-0.23073-0.08719t-0.20947-0.02871q-0.17544 0-0.27114 0.06805-0.094632 0.06805-0.094632 0.19352 0 0.10526 0.062733 0.15949 0.063797 0.05316 0.2403 0.08612l0.12972 0.02658q0.2403 0.04572 0.35407 0.16162 0.11483 0.11483 0.11483 0.30835 0 0.23073-0.15524 0.34982-0.15418 0.11909-0.45296 0.11909-0.11271 0-0.2403-0.02552-0.12653-0.02552-0.26263-0.07549v-0.22116q0.13078 0.07337 0.25625 0.11058t0.24668 0.03721q0.18395 0 0.28389-0.0723 0.099948-0.0723 0.099948-0.20628 0-0.11696-0.072303-0.18288-0.071239-0.065913-0.23498-0.098875l-0.13078-0.025518q-0.2403-0.047848-0.34769-0.14992-0.10739-0.10208-0.10739-0.2839 0-0.21053 0.1478-0.33174 0.14886-0.12121 0.40936-0.12121 0.11164 0 0.22754 0.0202t0.23711 0.06061z"/>
<path d="m8.2188 13.5h0.21478v0.67093l0.7124-0.67093h0.27645l-0.78789 0.74004 0.84424 0.84743h-0.28283l-0.76237-0.7645v0.7645h-0.21478z"/>
<path d="m9.6467 13.5h1.0037v0.18076h-0.78895v0.46997h0.75599v0.18076h-0.75599v0.57523h0.80809v0.18076h-1.0229z"/>
<path d="m11.023 13.5h0.21478v1.4067h0.773v0.18076h-0.98778z"/>
<path d="m12.236 13.5h0.21478v1.4067h0.773v0.18076h-0.98778z"/>
</g>
<g transform="matrix(.060632 0 0 .060632 -.6724 -.72754)" enable-background="new">
<path d="m83.997 204 32-48-32-48h24l32 48-32 48z" fill="#7839b7"/>
<path d="m116 204 32-48-32-48h24l64 96h-24l-20-30-20 30z" fill="#8c59d9"/>
<path transform="matrix(1.0909,0,0,1.0909,-13.818,-14.182)" d="m179.6 160 10.666 16h21.734v-16z" fill="#8f76e4"/>
<path transform="matrix(1.0909,0,0,1.0909,-13.818,-14.182)" d="m163.6 136 10.666 16h37.734v-16z" fill="#8f76e4"/>
</g>
</svg>
