<svg width="64" height="64" version="1.1" viewBox="0 0 64 64" xmlns="http://www.w3.org/2000/svg">
<defs>
<linearGradient id="linearGradient1082" x1="40" x2="46" y1="17" y2="11" gradientTransform="translate(-.021092 -1)" gradientUnits="userSpaceOnUse">
<stop stop-color="#fefefe" offset="0"/>
<stop stop-color="#e9e9e9" offset="1"/>
</linearGradient>
<linearGradient id="linearGradient984" x1="45.801" x2="9.8016" y1="9.9999" y2="61" gradientTransform="translate(.19832 -1)" gradientUnits="userSpaceOnUse">
<stop stop-color="#ededed" offset="0"/>
<stop stop-color="#fcfcfc" offset="1"/>
</linearGradient>
</defs>
<image x="6.5002" y="-.11648" width="50.998" height="64.616" image-rendering="optimizeQuality" preserveAspectRatio="none"/>
<path d="m36.001 0.99607-25 0.00391c-1.108 0-2 0.89202-2 2v55.999c0 1.108 0.89202 2 2 2h41.999c1.108 0 2-0.89202 2-2v-39.002c0-0.53515-0.18131-1.2447-0.55666-2.002h-14.443c-1.1081 0-2-0.89199-2-2v-14.572c-0.75433-0.33232-1.4705-0.42577-2-0.42577z" fill="url(#linearGradient984)"/>
<image x="25.783" y="1" width="29.193" height="29.006" image-rendering="optimizeQuality" opacity=".75" preserveAspectRatio="none"/>
<path d="m37.977 1.4189v14.575c0 1.108 0.89202 2.0001 2.0001 2.0001h14.465c-0.32607-0.65878-0.79761-1.3523-1.4453-2.0001l-13-13c-0.62957-0.79666-1.3298-1.2789-2.0001-1.5742z" fill="url(#linearGradient1082)" stroke-width="3.7796"/>
<g transform="matrix(3.7796 0 0 3.7796 -.19787 3.4078e-7)" fill="#7b7b7b" stroke-width=".05444" aria-label="WIKI">
<path d="m6.2291 13.229h0.21691l0.33387 1.3419 0.3328-1.3419h0.24136l0.33387 1.3419 0.3328-1.3419h0.21797l-0.39873 1.5875h-0.27007l-0.33493-1.378-0.33812 1.378h-0.27007z"/>
<path d="m8.5236 13.229h0.21478v1.5875h-0.21478z"/>
<path d="m9.1659 13.229h0.21478v0.67093l0.71239-0.67093h0.27645l-0.78789 0.74004 0.84424 0.84743h-0.28283l-0.76237-0.7645v0.7645h-0.21478z"/>
<path d="m10.594 13.229h0.21478v1.5875h-0.21478z"/>
</g>
<path class="ColorScheme-Text" d="m29.154 21c-2.804 0-5.0768 2.2731-5.0768 5.0768s2.2729 5.0768 5.0768 5.0768c2.804 0 5.0768-2.2731 5.0768-5.0768s-2.2729-5.0768-5.0768-5.0768zm8.455 3.2921 0.0067 0.0066c-0.65708 0-1.2748 0.15112-1.8344 0.40325 0.09239 0.44346 0.14212 0.90215 0.14212 1.3717 0 1.8651-0.76866 3.5609-2.003 4.7895 0.77845 1.1846 2.1318 1.9799 3.6887 1.9799 2.4246 0 4.3893-1.9128 4.3893-4.2736s-1.9649-4.277-4.3893-4.277zm-8.455 10.24c-10.154 0.0057-10.154 6.7757-10.154 6.7757v1.6923h20.308v-1.6923s0-6.7863-10.154-6.7693zm8.4614 0.0033v0.0033c-0.33186 0-0.62904 0.02132-0.93538 0.03632 1.1805 0.67636 2.08 1.4843 2.7136 2.3302 1.5908 2.1323 1.6064 4.3995 1.6064 4.3995h5.0768v-1.6923s0-5.0768-8.4614-5.0768z" fill="#f9b72b" stroke-width="1.6923"/>
</svg>
