<svg width="64" height="64" version="1.1" xmlns="http://www.w3.org/2000/svg">
<defs>
<linearGradient id="linearGradient984" x1="45.801" x2="9.8016" y1="9.9999" y2="61" gradientTransform="translate(.19832 -1)" gradientUnits="userSpaceOnUse">
<stop stop-color="#ededed" offset="0"/>
<stop stop-color="#fcfcfc" offset="1"/>
</linearGradient>
<linearGradient id="linearGradient1082" x1="40" x2="46" y1="17" y2="11" gradientTransform="translate(-.021093 -1)" gradientUnits="userSpaceOnUse">
<stop stop-color="#fefefe" offset="0"/>
<stop stop-color="#e9e9e9" offset="1"/>
</linearGradient>
</defs>
<image x="6.5002" y="-.11648" width="50.998" height="64.616" image-rendering="optimizeQuality" preserveAspectRatio="none"/>
<path d="m36.001 0.99607-25 0.00391c-1.108 0-2 0.89202-2 2v55.999c0 1.108 0.89202 2 2 2h41.999c1.108 0 2-0.89202 2-2v-39.002c0-0.53515-0.18131-1.2447-0.55666-2.002h-14.443c-1.1081 0-2-0.89199-2-2v-14.572c-0.75433-0.33232-1.4705-0.42577-2-0.42577z" fill="url(#linearGradient984)"/>
<image x="25.783" y="1" width="29.193" height="29.006" image-rendering="optimizeQuality" opacity=".75" preserveAspectRatio="none"/>
<path d="m37.977 1.4189v14.575c0 1.108 0.89202 2.0001 2.0001 2.0001h14.465c-0.32607-0.65878-0.79761-1.3523-1.4453-2.0001l-13-13c-0.62957-0.79666-1.3298-1.2789-2.0001-1.5742z" fill="url(#linearGradient1082)" stroke-width="3.7796"/>
<g fill="#7b7b7b" stroke-width=".20576" aria-label="KVT">
<path d="m24.364 51.024h0.81179v2.5358l2.6926-2.5358h1.0449l-2.9779 2.7971 3.1909 3.203h-1.069l-2.8814-2.8895v2.8895h-0.81179z"/>
<path d="m31.309 57.024-2.2907-6h0.84796l1.9009 5.0516 1.9049-5.0516h0.84394l-2.2867 6z"/>
<path d="m34.56 51.024h5.0757v0.68319h-2.1299v5.3168h-0.81581v-5.3168h-2.1299z"/>
</g>
<g transform="matrix(2.0346 0 0 2.035 14.777 16.768)" opacity=".75" stroke-width=".96313">
<path d="m13.323 3.603c-0.048 0.049 2.02 4.86 2.02 4.86l-2.02 4.858s-4.86-2.568-4.86-4.859c0-2.29 4.86-4.859 4.86-4.859z" fill="#46a926" style="isolation:isolate"/>
<path d="m3.604 13.321c0.049-0.049-2.02-4.859-2.02-4.859l2.02-4.859s4.86 2.569 4.86 4.86c0 2.29-4.86 4.858-4.86 4.858z" fill="#f22c42" style="isolation:isolate"/>
<path d="m13.323 3.603c-0.048 0.049-4.86-2.019-4.86-2.019l-4.86 2.019 4.86 4.86z" fill="#ffda64" style="isolation:isolate"/>
<path d="m3.604 13.321 4.86 2.013s4.81-2.062 4.86-2.013l-4.86-4.859z" fill="#2f5fdd" style="isolation:isolate"/>
<path d="m8.464 1.587c-1e-3 1.758 0.672 3.516 2.019 4.862l2.845-2.844a6.88 6.88 0 0 0-4.861-2.018z" fill="#a6d74f" style="isolation:isolate"/>
<path d="m13.328 3.605-2.845 2.844a6.84 6.84 0 0 0 4.863 2.012 6.88 6.88 0 0 0-2.018-4.856z" fill="#76c22b" style="isolation:isolate"/>
<path d="m10.476 10.481a6.85 6.85 0 0 0-2.019 4.862h0.069a6.88 6.88 0 0 0 4.8-2.013z" fill="#1463a5" style="isolation:isolate"/>
<path d="m15.346 8.469a6.84 6.84 0 0 0-4.87 2.012l2.85 2.85a6.88 6.88 0 0 0 2.02-4.862z" fill="#2b898f" style="isolation:isolate"/>
<path d="m1.587 8.463a6.88 6.88 0 0 0 0 3e-3 6.88 6.88 0 0 0 2.014 4.857l2.85-2.848a6.839 6.839 0 0 0-4.864-2.011z" fill="#9b33ae" style="isolation:isolate"/>
<path d="m6.45 10.475-2.85 2.848a6.88 6.88 0 0 0 4.826 2.02h0.043a6.85 6.85 0 0 0-2.019-4.868z" fill="#7839b7" style="isolation:isolate"/>
<path d="m8.467 1.587a6.88 6.88 0 0 0-4.858 2.015l2.848 2.847a6.85 6.85 0 0 0 2.019-4.861 6.88 6.88 0 0 0-0.01 0z" fill="#fdc92b" style="isolation:isolate"/>
<path d="m3.609 3.602a6.88 6.88 0 0 0-2.021 4.859 6.84 6.84 0 0 0 4.869-2.012z" fill="#f34f17" style="isolation:isolate"/>
</g>
<circle cx="32" cy="33.991" r="10" fill="#fff" opacity=".35" stroke-width="1.8898" style="paint-order:fill markers stroke"/>
</svg>
