<svg width="64" height="64" version="1.1" viewBox="0 0 64 64" xmlns="http://www.w3.org/2000/svg">
<defs>
<linearGradient id="linearGradient1082" x1="40" x2="46" y1="17" y2="11" gradientTransform="translate(-.021092 -1)" gradientUnits="userSpaceOnUse">
<stop stop-color="#fefefe" offset="0"/>
<stop stop-color="#e9e9e9" offset="1"/>
</linearGradient>
<linearGradient id="linearGradient984" x1="45.801" x2="9.8016" y1="9.9999" y2="61" gradientTransform="translate(.19832 -1)" gradientUnits="userSpaceOnUse">
<stop stop-color="#ededed" offset="0"/>
<stop stop-color="#fcfcfc" offset="1"/>
</linearGradient>
</defs>
<image x="6.5002" y="-.11648" width="50.998" height="64.616" image-rendering="optimizeQuality" preserveAspectRatio="none"/>
<path d="m36.001 0.99607-25 0.00391c-1.108 0-2 0.89202-2 2v55.999c0 1.108 0.89202 2 2 2h41.999c1.108 0 2-0.89202 2-2v-39.002c0-0.53515-0.18131-1.2447-0.55666-2.002h-14.443c-1.1081 0-2-0.89199-2-2v-14.572c-0.75433-0.33232-1.4705-0.42577-2-0.42577z" fill="url(#linearGradient984)"/>
<image x="25.783" y="1" width="29.193" height="29.006" image-rendering="optimizeQuality" opacity=".75" preserveAspectRatio="none"/>
<path d="m37.977 1.4189v14.575c0 1.108 0.89202 2.0001 2.0001 2.0001h14.465c-0.32607-0.65878-0.79761-1.3523-1.4453-2.0001l-13-13c-0.62957-0.79666-1.3298-1.2789-2.0001-1.5742z" fill="url(#linearGradient1082)" stroke-width="3.7796"/>
<g transform="matrix(3.7796 0 0 3.7796 -.19787 3.4078e-7)" fill="#7b7b7b" stroke-width=".05444" aria-label="ADASRC">
<path d="m4.8511 13.44-0.29134 0.79001h0.58374zm-0.12121-0.21159h0.24349l0.605 1.5875h-0.22329l-0.14461-0.40723h-0.71558l-0.14461 0.40723h-0.22648z"/>
<path d="m6.0249 13.405v1.2345h0.25944q0.32855 0 0.4806-0.14886 0.15311-0.14886 0.15311-0.46997 0-0.31898-0.15311-0.46678-0.15205-0.14886-0.4806-0.14886zm-0.21478-0.1765h0.44126q0.46146 0 0.67731 0.19245 0.21584 0.19139 0.21584 0.59969 0 0.41042-0.21691 0.60288t-0.67624 0.19245h-0.44126z"/>
<path d="m7.9792 13.44-0.29134 0.79001h0.58374zm-0.12121-0.21159h0.24349l0.605 1.5875h-0.22329l-0.14461-0.40723h-0.71558l-0.14461 0.40723h-0.22648z"/>
<path d="m9.8899 13.281v0.20947q-0.12228-0.05848-0.23073-0.08719t-0.20946-0.02871q-0.17544 0-0.27114 0.06805-0.094631 0.06805-0.094631 0.19352 0 0.10526 0.062733 0.15949 0.063796 0.05316 0.2403 0.08613l0.12972 0.02658q0.2403 0.04572 0.35407 0.16162 0.11483 0.11483 0.11483 0.30835 0 0.23073-0.15524 0.34982-0.15417 0.11909-0.45295 0.11909-0.11271 0-0.2403-0.02552-0.12653-0.02552-0.26263-0.07549v-0.22116q0.13078 0.07337 0.25625 0.11058 0.12547 0.03722 0.24668 0.03722 0.18395 0 0.28389-0.0723 0.099948-0.0723 0.099948-0.20628 0-0.11696-0.072303-0.18288-0.071239-0.06592-0.23498-0.09889l-0.13078-0.02552q-0.2403-0.04785-0.34769-0.14992-0.10739-0.10208-0.10739-0.28389 0-0.21053 0.1478-0.33174 0.14886-0.12121 0.40936-0.12121 0.11164 0 0.22754 0.0202t0.23711 0.06061z"/>
<path d="m11.073 14.072q0.06911 0.02339 0.13397 0.09995 0.06592 0.07656 0.13185 0.21053l0.21797 0.43382h-0.23073l-0.20308-0.40723q-0.07868-0.15949-0.15311-0.21159-0.07337-0.0521-0.20096-0.0521h-0.23392v0.67093h-0.21478v-1.5875h0.48485q0.2722 0 0.40617 0.11377t0.13397 0.34344q0 0.14992-0.07018 0.24881-0.06911 0.09888-0.20202 0.13716zm-0.53802-0.66667v0.56354h0.27007q0.15524 0 0.23392-0.07124 0.07975-0.0723 0.07975-0.21159t-0.07975-0.20946q-0.07868-0.07124-0.23392-0.07124z"/>
<path d="m12.914 13.351v0.22648q-0.10845-0.10101-0.23179-0.15098-0.12228-0.04997-0.2605-0.04997-0.2722 0-0.4168 0.16693-0.1446 0.16587-0.1446 0.4806 0 0.31367 0.1446 0.4806 0.14461 0.16587 0.4168 0.16587 0.13823 0 0.2605-0.04997 0.12334-0.04997 0.23179-0.15098v0.22435q-0.11271 0.07656-0.23924 0.11483-0.12547 0.03828-0.26582 0.03828-0.36045 0-0.56779-0.2201-0.20734-0.22116-0.20734-0.60288 0-0.38278 0.20734-0.60288 0.20734-0.22116 0.56779-0.22116 0.14248 0 0.26794 0.03828 0.12653 0.03722 0.23711 0.11271z"/>
</g>
<g transform="scale(3.7796)" fill="#b3b3b3">
<g stroke-width="1.4142">
<path d="m4.7624 5.5561h7.4082v0.52916h-7.4082z" enable-background="new"/>
<path d="m4.7624 6.6145h7.4082v0.52916h-7.4082z" enable-background="new"/>
<path d="m4.7624 7.6728h7.4082v0.52916h-7.4082z" enable-background="new"/>
<path d="m4.7624 8.7311h7.4082v0.52916h-7.4082z" enable-background="new"/>
<path d="m4.7624 9.7894h7.4082v0.52916h-7.4082z" enable-background="new"/>
</g>
<path d="m4.7624 10.848h3.9687v0.52916h-3.9687z" enable-background="new" stroke-width="1.0351"/>
</g>
</svg>
