<svg width="64" height="64" version="1.1" xmlns="http://www.w3.org/2000/svg">
<defs>
<linearGradient id="linearGradient1082" x1="40" x2="46" y1="17" y2="11" gradientTransform="translate(-.021093 -1)" gradientUnits="userSpaceOnUse">
<stop stop-color="#fefefe" offset="0"/>
<stop stop-color="#e9e9e9" offset="1"/>
</linearGradient>
<linearGradient id="linearGradient1080" x1="21.039" x2="21.039" y1="2" y2="62" gradientTransform="translate(-.021092 -1)" gradientUnits="userSpaceOnUse">
<stop stop-color="#a0f795" offset="0"/>
<stop stop-color="#76c86a" offset="1"/>
</linearGradient>
</defs>
<image x="6.5002" y="-.11648" width="50.998" height="64.616" image-rendering="optimizeQuality" preserveAspectRatio="none"/>
<path d="m35.979 0.99607-25 0.00391c-1.108 0-2 0.89202-2 2v55.999c0 1.108 0.89202 2 2 2h41.999c1.108 0 2-0.89202 2-2v-39.002c0-0.53515-0.18131-1.2447-0.55666-2.002h-14.443c-1.1081 0-2-0.89199-2-2v-14.572c-0.75433-0.33232-1.4705-0.42577-2-0.42577z" fill="url(#linearGradient1080)"/>
<image x="25.783" y="1" width="29.193" height="29.006" image-rendering="optimizeQuality" opacity=".75" preserveAspectRatio="none"/>
<path d="m37.977 1.4189v14.575c0 1.108 0.89202 2.0001 2.0001 2.0001h14.465c-0.32607-0.65878-0.79761-1.3523-1.4453-2.0001l-13-13c-0.62957-0.79666-1.3298-1.2789-2.0001-1.5742z" fill="url(#linearGradient1082)" stroke-width="3.7796"/>
<g transform="matrix(3.7796 0 0 3.7796 -109.04 1.4239)" fill="#fff" opacity=".75">
<path d="m34.671 7.0315v1.7198c0 0.07329 0.059 0.13229 0.13229 0.13229h0.79374c0.07329 0 0.13229-0.059 0.13229-0.13229v-1.7198zm0.26458 1.0583h0.52916v0.52916h-0.52916z" color="#000000"/>
<path d="m35.2-0.11215v0.52916h0.52916v-0.52916zm0 0.52916h-0.52916v0.52916h0.52916zm0 0.52916v0.52916h0.52916v-0.52916zm0 0.52916h-0.52916v0.52916h0.52916zm0 0.52916v0.52916h0.52916v-0.52916zm0 0.52916h-0.52916v0.52916h0.52916zm0 0.52916v0.52916h0.52916v-0.52916zm0 0.52916h-0.52916v0.52916h0.52916zm0 0.52916v0.52916h0.52916v-0.52916zm0 0.52916h-0.52916v0.52916h0.52916zm0 0.52916v0.52916h0.52916v-0.52916zm0 0.52916h-0.52916v0.52916h0.52916zm0 0.52916v0.52916h0.52916v-0.52916z" color="#000000"/>
</g>
<path d="m14 48.999v1h12v-1zm0 2v1h10v-1zm0 2v1h12v-1zm0 2v1h7.9999v-1z" color="#000000" opacity=".15" stroke-width="3.7796"/>
<path d="m35.5 49c-1.939 0-3.5 1.561-3.5 3.5s1.561 3.5 3.5 3.5h19.5v-7z" opacity=".15" stroke-width="1.1662"/>
<g fill="#fff" stroke-width=".10288" aria-label="EXTPACK">
<path d="m35.011 51h1.8968v0.34159h-1.491v0.88814h1.4287v0.34159h-1.4287v1.0871h1.5271v0.34159h-1.933z"/>
<path d="m37.467 51h0.43603l0.74548 1.1152 0.7495-1.1152h0.43603l-0.9645 1.4407 1.0288 1.5593h-0.43603l-0.84394-1.276-0.84996 1.276h-0.43804l1.071-1.6015z"/>
<path d="m39.942 51h2.5378v0.34159h-1.065v2.6584h-0.4079v-2.6584h-1.065z"/>
<path d="m43.278 51.334v1.1273h0.51038q0.28332 0 0.43804-0.14668t0.15472-0.41795q0-0.26926-0.15472-0.41594t-0.43804-0.14668zm-0.40589-0.33356h0.91627q0.50435 0 0.76155 0.22907 0.25921 0.22706 0.25921 0.66711 0 0.44407-0.25921 0.67113-0.2572 0.22706-0.76155 0.22706h-0.51038v1.2056h-0.40589z"/>
<path d="m46.093 51.4-0.55057 1.493h1.1031zm-0.22907-0.39986h0.46015l1.1433 3h-0.42197l-0.27328-0.76959h-1.3523l-0.27327 0.76959h-0.428z"/>
<path d="m50.079 51.231v0.428q-0.20496-0.19089-0.43804-0.28533-0.23108-0.09444-0.4923-0.09444-0.5144 0-0.78767 0.31547-0.27327 0.31346-0.27327 0.90824 0 0.59276 0.27327 0.90824 0.27328 0.31346 0.78767 0.31346 0.26122 0 0.4923-0.09444 0.23309-0.09444 0.43804-0.28533v0.42398q-0.21299 0.14468-0.45211 0.21701-0.2371 0.07234-0.50234 0.07234-0.68118 0-1.073-0.41594-0.39183-0.41795-0.39183-1.1393 0-0.72337 0.39183-1.1393 0.39183-0.41795 1.073-0.41795 0.26926 0 0.50636 0.07234 0.23912 0.07033 0.44809 0.21299z"/>
<path d="m50.706 51h0.40589v1.2679l1.3463-1.2679h0.52244l-1.4889 1.3985 1.5954 1.6015h-0.53449l-1.4407-1.4447v1.4447h-0.40589z"/>
</g>
</svg>
