<svg width="64" height="64" version="1.1" xmlns="http://www.w3.org/2000/svg">
<defs>
<linearGradient id="linearGradient1082" x1="40" x2="46" y1="17" y2="11" gradientTransform="translate(-.021093 -1)" gradientUnits="userSpaceOnUse">
<stop stop-color="#fefefe" offset="0"/>
<stop stop-color="#e9e9e9" offset="1"/>
</linearGradient>
<linearGradient id="linearGradient1080" x1="21.039" x2="21.039" y1="2" y2="62" gradientTransform="translate(-.021092 -1)" gradientUnits="userSpaceOnUse">
<stop stop-color="#1fd9f3" offset="0"/>
<stop stop-color="#2095f2" offset="1"/>
</linearGradient>
</defs>
<image x="6.5002" y="-.11648" width="50.998" height="64.616" image-rendering="optimizeQuality" preserveAspectRatio="none"/>
<path d="m35.979 0.99607-25 0.00391c-1.108 0-2 0.89202-2 2v55.999c0 1.108 0.89202 2 2 2h41.999c1.108 0 2-0.89202 2-2v-39.002c0-0.53515-0.18131-1.2447-0.55666-2.002h-14.443c-1.1081 0-2-0.89199-2-2v-14.572c-0.75433-0.33232-1.4705-0.42577-2-0.42577z" fill="url(#linearGradient1080)"/>
<image x="25.783" y="1" width="29.193" height="29.006" image-rendering="optimizeQuality" opacity=".75" preserveAspectRatio="none"/>
<path d="m37.977 1.4189v14.575c0 1.108 0.89202 2.0001 2.0001 2.0001h14.465c-0.32607-0.65878-0.79761-1.3523-1.4453-2.0001l-13-13c-0.62957-0.79666-1.3298-1.2789-2.0001-1.5742z" fill="url(#linearGradient1082)" stroke-width="3.7796"/>
<g transform="matrix(3.7796 0 0 3.7796 -109.04 1.4239)" fill="#fff" opacity=".75">
<path d="m34.671 7.0315v1.7198c0 0.07329 0.059 0.13229 0.13229 0.13229h0.79374c0.07329 0 0.13229-0.059 0.13229-0.13229v-1.7198zm0.26458 1.0583h0.52916v0.52916h-0.52916z" color="#000000"/>
<path d="m35.2-0.11215v0.52916h0.52916v-0.52916zm0 0.52916h-0.52916v0.52916h0.52916zm0 0.52916v0.52916h0.52916v-0.52916zm0 0.52916h-0.52916v0.52916h0.52916zm0 0.52916v0.52916h0.52916v-0.52916zm0 0.52916h-0.52916v0.52916h0.52916zm0 0.52916v0.52916h0.52916v-0.52916zm0 0.52916h-0.52916v0.52916h0.52916zm0 0.52916v0.52916h0.52916v-0.52916zm0 0.52916h-0.52916v0.52916h0.52916zm0 0.52916v0.52916h0.52916v-0.52916zm0 0.52916h-0.52916v0.52916h0.52916zm0 0.52916v0.52916h0.52916v-0.52916z" color="#000000"/>
</g>
<path d="m14 48.999v1h12v-1zm0 2v1h10v-1zm0 2v1h12v-1zm0 2v1h7.9999v-1z" color="#000000" opacity=".15" stroke-width="3.7796"/>
<path d="m35.5 49c-1.939 0-3.5 1.561-3.5 3.5s1.561 3.5 3.5 3.5h19.5v-7z" opacity=".15" stroke-width="1.1662"/>
<g fill="#fff" stroke-width=".10288" aria-label="VBOX">
<path d="m38.145 54-1.1453-3h0.42398l0.95043 2.5258 0.95244-2.5258h0.42197l-1.1433 3z"/>
<path d="m40.593 52.567v1.0991h0.65104q0.32753 0 0.48426-0.13463 0.15874-0.13664 0.15874-0.41594 0-0.28131-0.15874-0.41393-0.15673-0.13463-0.48426-0.13463zm0-1.2338v0.90422h0.6008q0.29739 0 0.44206-0.11052 0.14668-0.11252 0.14668-0.34159 0-0.22706-0.14668-0.33958-0.14468-0.11252-0.44206-0.11252zm-0.40589-0.33356h1.0368q0.46416 0 0.71534 0.1929 0.25117 0.1929 0.25117 0.54856 0 0.27528-0.1286 0.43804t-0.37776 0.20295q0.2994 0.0643 0.46416 0.26926 0.16678 0.20295 0.16678 0.50837 0 0.40187-0.27328 0.6209-0.27327 0.21902-0.77763 0.21902h-1.077z"/>
<path d="m44.155 51.275q-0.44206 0-0.70328 0.32954-0.25921 0.32954-0.25921 0.89819 0 0.56664 0.25921 0.89618 0.26122 0.32954 0.70328 0.32954t0.69926-0.32954q0.25921-0.32954 0.25921-0.89618 0-0.56865-0.25921-0.89819-0.2572-0.32954-0.69926-0.32954zm0-0.32954q0.63094 0 1.0087 0.42398 0.37776 0.42197 0.37776 1.1333 0 0.70931-0.37776 1.1333-0.37776 0.42197-1.0087 0.42197-0.63295 0-1.0127-0.42197-0.37776-0.42197-0.37776-1.1333t0.37776-1.1333q0.37977-0.42398 1.0127-0.42398z"/>
<path d="m45.769 51h0.43603l0.74548 1.1152 0.7495-1.1152h0.43603l-0.9645 1.4407 1.0288 1.5593h-0.43603l-0.84394-1.276-0.84996 1.276h-0.43804l1.071-1.6015z"/>
</g>
</svg>
