<svg width="64" height="64" version="1.1" viewBox="0 0 16.933 16.933" xmlns="http://www.w3.org/2000/svg">
<defs>
<linearGradient id="linearGradient1082" x1="40" x2="46" y1="17" y2="11" gradientTransform="matrix(.26458 0 0 .26458 -.0055808 -.26458)" gradientUnits="userSpaceOnUse">
<stop stop-color="#fefefe" offset="0"/>
<stop stop-color="#e9e9e9" offset="1"/>
</linearGradient>
<linearGradient id="linearGradient1080" x1="21.039" x2="21.039" y1="2" y2="62" gradientTransform="matrix(.26458 0 0 .26458 -.0055805 -.26458)" gradientUnits="userSpaceOnUse">
<stop stop-color="#f5df0e" offset="0"/>
<stop stop-color="#f5990e" offset="1"/>
</linearGradient>
</defs>
<image x="1.7198" y="-.030818" width="13.493" height="17.096" image-rendering="optimizeQuality" preserveAspectRatio="none"/>
<path d="m9.5193 0.26354-6.6145 0.0010345c-0.29315 0-0.52916 0.23601-0.52916 0.52916v14.816c0 0.29315 0.23601 0.52916 0.52916 0.52916h11.112c0.29315 0 0.52916-0.23601 0.52916-0.52916v-10.319c0-0.14159-0.04797-0.32932-0.14728-0.52969h-3.8213c-0.29318 0-0.52916-0.236-0.52916-0.52916v-3.8554c-0.19958-0.087925-0.38906-0.11265-0.52916-0.11265z" fill="url(#linearGradient1080)" stroke-width=".26458"/>
<image x="6.8216" y=".26458" width="7.7238" height="7.6744" image-rendering="optimizeQuality" opacity=".75" preserveAspectRatio="none"/>
<path d="m10.048 0.37541v3.8562c0 0.29315 0.23601 0.52918 0.52918 0.52918h3.8271c-0.086271-0.1743-0.21103-0.35779-0.3824-0.52918l-3.4395-3.4395c-0.16657-0.21078-0.35184-0.33837-0.52918-0.4165z" fill="url(#linearGradient1082)"/>
<g transform="translate(-28.85 .37673)" fill="#fff" opacity=".75">
<path d="m34.671 7.0315v1.7198c0 0.07329 0.059 0.13229 0.13229 0.13229h0.79374c0.07329 0 0.13229-0.059 0.13229-0.13229v-1.7198zm0.26458 1.0583h0.52916v0.52916h-0.52916z" color="#000000"/>
<path d="m35.2-0.11215v0.52916h0.52916v-0.52916zm0 0.52916h-0.52916v0.52916h0.52916zm0 0.52916v0.52916h0.52916v-0.52916zm0 0.52916h-0.52916v0.52916h0.52916zm0 0.52916v0.52916h0.52916v-0.52916zm0 0.52916h-0.52916v0.52916h0.52916zm0 0.52916v0.52916h0.52916v-0.52916zm0 0.52916h-0.52916v0.52916h0.52916zm0 0.52916v0.52916h0.52916v-0.52916zm0 0.52916h-0.52916v0.52916h0.52916zm0 0.52916v0.52916h0.52916v-0.52916zm0 0.52916h-0.52916v0.52916h0.52916zm0 0.52916v0.52916h0.52916v-0.52916z" color="#000000"/>
</g>
<path d="m3.7041 12.964v0.26458h3.1749v-0.26458zm0 0.52916v0.26458h2.6458v-0.26458zm0 0.52916v0.26458h3.1749v-0.26458zm0 0.52916v0.26458h2.1166v-0.26458z" color="#000000" opacity=".15"/>
<path d="m9.3925 12.964c-0.51302 0-0.92602 0.41301-0.92602 0.92602s0.41301 0.92602 0.92602 0.92602h5.1593v-1.852z" opacity=".15" stroke-width=".30855"/>
<g fill="#fff" stroke-width=".02722" aria-label="OVF">
<path d="m10.21 13.566q-0.11696 0-0.18607 0.08719-0.068581 0.08719-0.068581 0.23764 0 0.14992 0.068581 0.23711 0.06911 0.08719 0.18607 0.08719t0.18501-0.08719q0.06858-0.08719 0.06858-0.23711 0-0.15045-0.06858-0.23764-0.06805-0.08719-0.18501-0.08719zm0-0.08719q0.16693 0 0.26688 0.11218 0.09995 0.11164 0.09995 0.29984 0 0.18767-0.09995 0.29984-0.09995 0.11164-0.26688 0.11164-0.16746 0-0.26794-0.11164-0.099948-0.11164-0.099948-0.29984t0.099948-0.29984q0.10048-0.11217 0.26794-0.11217z"/>
<path d="m10.93 14.287-0.30303-0.79373h0.11218l0.25146 0.66827 0.252-0.66827h0.11164l-0.3025 0.79373z"/>
<path d="m11.47 13.493h0.45614v0.09038h-0.34875v0.23392h0.31473v0.09038h-0.31473v0.37906h-0.10739z"/>
</g>
</svg>
