<svg width="64" height="64" version="1.1" viewBox="0 0 16.933 16.933" xmlns="http://www.w3.org/2000/svg">
<defs>
<linearGradient id="linearGradient1082" x1="40" x2="46" y1="17" y2="11" gradientTransform="matrix(.26458 0 0 .26458 -.0055808 -.26458)" gradientUnits="userSpaceOnUse">
<stop stop-color="#fefefe" offset="0"/>
<stop stop-color="#e9e9e9" offset="1"/>
</linearGradient>
<linearGradient id="linearGradient1080" x1="21.039" x2="21.039" y1="2" y2="62" gradientTransform="matrix(.26458 0 0 .26458 -.0055805 -.26458)" gradientUnits="userSpaceOnUse">
<stop stop-color="#70acff" offset="0"/>
<stop stop-color="#006aff" offset="1"/>
</linearGradient>
</defs>
<image x="1.7198" y="-.030818" width="13.493" height="17.096" image-rendering="optimizeQuality" preserveAspectRatio="none"/>
<path d="m9.5193 0.26354-6.6145 0.001034c-0.29315 0-0.52916 0.23601-0.52916 0.52916v14.816c0 0.29315 0.23601 0.52916 0.52916 0.52916h11.112c0.29315 0 0.52916-0.23601 0.52916-0.52916v-10.319c0-0.14159-0.04797-0.32932-0.14728-0.52969h-3.8213c-0.29318 0-0.52916-0.236-0.52916-0.52916v-3.8554c-0.19958-0.087925-0.38906-0.11265-0.52916-0.11265z" fill="url(#linearGradient1080)" stroke-width=".26458"/>
<image x="6.8216" y=".26458" width="7.7238" height="7.6744" image-rendering="optimizeQuality" opacity=".75" preserveAspectRatio="none"/>
<path d="m10.048 0.37541v3.8562c0 0.29315 0.23601 0.52918 0.52918 0.52918h3.8271c-0.086271-0.1743-0.21103-0.35779-0.3824-0.52918l-3.4395-3.4395c-0.16657-0.21078-0.35184-0.33837-0.52918-0.4165z" fill="url(#linearGradient1082)"/>
<g transform="translate(-28.85 .37673)" fill="#fff" opacity=".75">
<path d="m34.671 7.0315v1.7198c0 0.07329 0.059 0.13229 0.13229 0.13229h0.79374c0.07329 0 0.13229-0.059 0.13229-0.13229v-1.7198zm0.26458 1.0583h0.52916v0.52916h-0.52916z" color="#000000"/>
<path d="m35.2-0.11215v0.52916h0.52916v-0.52916zm0 0.52916h-0.52916v0.52916h0.52916zm0 0.52916v0.52916h0.52916v-0.52916zm0 0.52916h-0.52916v0.52916h0.52916zm0 0.52916v0.52916h0.52916v-0.52916zm0 0.52916h-0.52916v0.52916h0.52916zm0 0.52916v0.52916h0.52916v-0.52916zm0 0.52916h-0.52916v0.52916h0.52916zm0 0.52916v0.52916h0.52916v-0.52916zm0 0.52916h-0.52916v0.52916h0.52916zm0 0.52916v0.52916h0.52916v-0.52916zm0 0.52916h-0.52916v0.52916h0.52916zm0 0.52916v0.52916h0.52916v-0.52916z" color="#000000"/>
</g>
<path d="m3.7041 12.964v0.26458h3.1749v-0.26458zm0 0.52916v0.26458h2.6458v-0.26458zm0 0.52916v0.26458h3.1749v-0.26458zm0 0.52916v0.26458h2.1166v-0.26458z" color="#000000" opacity=".15"/>
</svg>
