<svg width="16" height="16" version="1.1" viewBox="1 6.5 14 3.5" xmlns="http://www.w3.org/2000/svg">
<defs>
<style id="current-color-scheme" type="text/css">.ColorScheme-Text {
        color:#bebebe;
      }</style>
</defs>
<path class="ColorScheme-Text" d="m2.75 6.5c-0.9695 0-1.75 0.7805-1.75 1.75s0.7805 1.75 1.75 1.75 1.75-0.7805 1.75-1.75-0.7805-1.75-1.75-1.75zm5.25 0c-0.9695 0-1.75 0.7805-1.75 1.75s0.7805 1.75 1.75 1.75 1.75-0.7805 1.75-1.75-0.7805-1.75-1.75-1.75zm5.25 0c-0.9695 0-1.75 0.7805-1.75 1.75s0.7805 1.75 1.75 1.75 1.75-0.7805 1.75-1.75-0.7805-1.75-1.75-1.75z" color="#bebebe" fill="currentColor"/>
</svg>
