<svg version="1.1" viewBox="0 0 16 16" xmlns="http://www.w3.org/2000/svg">
<defs>
<style id="current-color-scheme" type="text/css">.ColorScheme-Text {
        color:#bebebe;
      }</style>
</defs>
<path class="ColorScheme-Text" d="m14 6.6502c0-0.18655-0.13454-0.30246-0.40398-0.34785l-3.62-0.55193-1.6226-3.4405c-0.09126-0.20668-0.20916-0.30998-0.35336-0.30998-0.14419 0-0.262 0.1033-0.35336 0.30998l-1.6227 3.4405-3.6202 0.55193c-0.26918 0.045375-0.40381 0.1613-0.40381 0.34785 0 0.1059 0.060075 0.22692 0.18031 0.36298l2.625 2.6767-0.62014 3.7807c-0.00968 0.07064-0.014476 0.12112-0.014476 0.15128 0 0.1059 0.025276 0.19527 0.075682 0.26849 0.0504 0.07313 0.12614 0.10962 0.22713 0.10962 0.086573 0 0.1827-0.03007 0.28847-0.09068l3.2379-1.7846 3.2382 1.7846c0.10109 0.060521 0.19722 0.09068 0.28838 0.09068 0.0964 0 0.1696-0.03638 0.22006-0.10962 0.05033-0.07313 0.07559-0.1626 0.07559-0.26849 0-0.06555-0.0022-0.11591-0.0075-0.15128l-0.62021-3.7807 2.6178-2.6767c0.12516-0.13104 0.18756-0.25208 0.18756-0.36298z" color="#bebebe" fill="#363636"/>
</svg>
