<svg width="16" height="16" version="1.1" viewBox="0 0 16 16" xmlns="http://www.w3.org/2000/svg">
<defs>
<style id="current-color-scheme" type="text/css">.ColorScheme-Text { color:#5c616c; } .ColorScheme-Highlight { color:#5294e2; }</style>
</defs>
<path class="ColorScheme-Text" d="m5 0c-0.167 1.03e-4 -0.3339 0.0085816-0.5 0.025391-0.16741 0.01661-0.332 0.041509-0.49414 0.074219-0.01392 0.0028-0.027136 0.0068656-0.041016 0.0097656-0.3042 0.06461-0.60172 0.15746-0.88867 0.27734-0.00762 0.0032-0.015838 0.0046125-0.023438 0.0078125l-0.015625 0.0078125c-0.27747 0.11957-0.54353 0.26404-0.79492 0.43164-0.01628 0.0108-0.034641 0.018307-0.050781 0.029297-0.2479 0.17012-0.47996 0.36232-0.69336 0.57422-0.0148 0.0146-0.030222 0.028169-0.044922 0.042969-0.2017 0.2051-0.38533 0.42736-0.54883 0.66406-0.02328 0.0333-0.049786 0.063756-0.072266 0.097656-0.15239 0.2333-0.28502 0.47888-0.39648 0.73438-0.01927 0.0433-0.040524 0.084906-0.058594 0.12891-0.10779 0.2644-0.19274 0.53751-0.25391 0.81641-0.01167 0.0529-0.025156 0.1046-0.035156 0.1582-0.01348 0.0759-0.025156 0.15212-0.035156 0.22852-0.01186 0.0856-0.02375 0.17091-0.03125 0.25781-0.01338 0.1442-0.020604 0.28879-0.021484 0.43359 0.001886 0.2644 0.024786 0.52826 0.068359 0.78906 0.00689 0.0429 0.011529 0.086206 0.019531 0.12891 0.04711 0.2488 0.11306 0.49362 0.19727 0.73242 0.0118 0.0336 0.024619 0.066309 0.037109 0.099609 0.08974 0.2424 0.19814 0.47752 0.32422 0.70312 0.00866 0.0153 0.018544 0.029722 0.027344 0.044922 0.13172 0.2283 0.28132 0.44569 0.44727 0.65039 0.0041999 0.0051 0.0076187 0.010525 0.011719 0.015625 0.1677 0.203 0.35123 0.39241 0.54883 0.56641 0.0222 0.0197 0.043906 0.039294 0.066406 0.058594 0.199 0.1721 0.41117 0.3282 0.63477 0.4668 0.0119 0.0073 0.025109 0.012331 0.037109 0.019531 0.4859 0.2937 1.0182 0.50239 1.5742 0.61719 0.0021 5e-4 0.0037594 0.0015531 0.0058594 0.0019531v6.1055h2v-6.1016c0.2234-0.0474 0.4433-0.11 0.6582-0.1875 0.0367-0.0129 0.073075-0.025362 0.10938-0.039062 0.4201-0.159 0.81689-0.37377 1.1797-0.63867 0.03-0.0219 0.058391-0.045759 0.087891-0.068359 0.1753-0.1328 0.34175-0.27694 0.49805-0.43164 0.1607-0.1621 0.31017-0.33498 0.44727-0.51758 0.01895-0.02503 0.036207-0.050772 0.054687-0.076172 0.12274-0.16734 0.23493-0.34216 0.33594-0.52344 0.01004-0.01818 0.019497-0.036378 0.029297-0.054688 0.11193-0.20644 0.20918-0.42052 0.29102-0.64062 8e-4 -2e-3 0.0012472-0.0039593 0.0019532-0.0058593l0.0039062-0.011719c0.08178-0.22676 0.14705-0.45913 0.19531-0.69531 6e-4 -0.0026 0.0014112-0.0051125 0.0019531-0.0078125h6.1055v-2h-6.1016c-0.0564-0.2684-0.13478-0.53171-0.23438-0.78711-0.01017-0.02658-0.018697-0.053728-0.029297-0.080078-0.09389-0.23061-0.20487-0.45389-0.33203-0.66797-0.0285-0.04836-0.057851-0.095338-0.087891-0.14258-0.12882-0.20548-0.27244-0.40131-0.42969-0.58594-0.02235-0.02591-0.047452-0.048789-0.070312-0.074219-0.15521-0.17288-0.32228-0.33472-0.5-0.48438-0.02658-0.02236-0.051095-0.046559-0.078125-0.068359-0.18966-0.15108-0.39006-0.28816-0.59961-0.41016-0.04609-0.02723-0.091682-0.054318-0.13867-0.080078-0.20995-0.11577-0.42796-0.21629-0.65234-0.30078-0.043813-0.01636-0.088457-0.029762-0.13281-0.044922-0.23136-0.08043-0.46833-0.14375-0.70898-0.18945-0.01382-0.0025-0.027166-0.0054125-0.041016-0.0078125-0.28501-0.05033-0.57386-0.075815-0.86328-0.076172z" fill="#f1f6f8" fill-opacity=".85098"/>
</svg>
