<svg width="16" height="16" version="1.1" viewBox="0 0 16 16" xmlns="http://www.w3.org/2000/svg">
<defs>
<style id="current-color-scheme" type="text/css">.ColorScheme-Text { color:#5c616c; } .ColorScheme-Highlight { color:#5294e2; }</style>
</defs>
<path class="ColorScheme-Text" d="m8 1a5 5 0 0 0-5 5 5 5 0 0 0 0 0.0078125 5 5 0 0 0-2 3.9922 5 5 0 0 0 5 5 5 5 0 0 0 1.9961-0.42188 5 5 0 0 0 2.0039 0.42188 5 5 0 0 0 5-5 5 5 0 0 0-2-3.9922 5 5 0 0 0 0-0.0078125 5 5 0 0 0-5-5z" fill="#dedede" fill-opacity=".85098"/>
</svg>
