<svg width="16" height="16" version="1.1" viewBox="0 0 16 16" xmlns="http://www.w3.org/2000/svg">
<defs>
<style id="current-color-scheme" type="text/css">.ColorScheme-Text {
        color:#bebebe;
      }</style>
</defs>
<path d="m0 0h16v16h-16z" opacity="0"/>
<path class="ColorScheme-Text" d="m7 8a3 3 0 0 1-3 3 3 3 0 0 1-3-3 3 3 0 0 1 3-3 3 3 0 0 1 3 3" fill="currentColor" stroke-width=".89533"/>
<path class="ColorScheme-Text" d="m15 8a3 3 0 0 1-3 3 3 3 0 0 1-3-3 3 3 0 0 1 3-3 3 3 0 0 1 3 3z" fill="currentColor" opacity=".35" stroke-width=".89533"/>
</svg>
