<svg width="16" height="16" version="1.1" viewBox="1 1.01 14 14" xmlns="http://www.w3.org/2000/svg">
<defs>
<style id="current-color-scheme" type="text/css">.ColorScheme-Text { color:#5c616c; } .ColorScheme-Highlight { color:#5294e2; }</style>
</defs>
<path class="ColorScheme-Text" d="m3 1.0098c-1.108 0-2 0.892-2 2v10c0 1.108 0.892 2 2 2h10c1.108 0 2-0.892 2-2v-10c0-1.1082-0.892-2-2-2h-10zm3.6816 1.9902h0.31836v0.75586h-0.35352c-0.472 0-0.77832 0.079175-0.91992 0.23438-0.145 0.1517-0.21875 0.47762-0.21875 0.97852v1.3125c0 0.5538-0.074762 0.95468-0.22656 1.2051-0.1517 0.2505-0.41486 0.41971-0.78906 0.50781 0.3742 0.0953 0.63736 0.26903 0.78906 0.51953 0.1518 0.2504 0.22656 0.65097 0.22656 1.2012v1.3125c0 0.505 0.07375 0.83042 0.21875 0.98242 0.1416 0.151 0.44792 0.22852 0.91992 0.22852h0.35352v0.76172h-0.31836c-0.8394 0-1.3999-0.12962-1.6797-0.39062-0.2832-0.261-0.42383-0.7835-0.42383-1.5625v-1.2637c0-0.5326-0.091438-0.90087-0.27344-1.1055-0.1821-0.2046-0.51153-0.30664-0.99023-0.30664h-0.31445v-0.75781h0.31445c0.4787 0 0.80813-0.099681 0.99023-0.30078 0.182-0.2046 0.27344-0.5701 0.27344-1.0957v-1.2695c0-0.7796 0.14063-1.2991 0.42383-1.5566 0.2798-0.261 0.84029-0.39062 1.6797-0.39062zm2.3184 0h0.31836c0.8396 0 1.3997 0.12962 1.6797 0.39062 0.283 0.2575 0.42383 0.77704 0.42383 1.5566v1.2695c0 0.5256 0.091438 0.8911 0.27344 1.0957 0.182 0.2011 0.51124 0.30078 0.99024 0.30078h0.31445v0.75781h-0.31445c-0.479 0-0.80823 0.10204-0.99024 0.30664-0.182 0.2046-0.27344 0.57287-0.27344 1.1055v1.2637c0 0.779-0.14083 1.3015-0.42383 1.5625-0.28 0.261-0.84009 0.39062-1.6797 0.39062h-0.31836v-0.76172h0.35352c0.472 0 0.77892-0.077515 0.91992-0.22852 0.145-0.152 0.21875-0.47742 0.21875-0.98242v-1.3125c0-0.5502 0.074562-0.95077 0.22656-1.2012 0.151-0.2505 0.41506-0.42423 0.78906-0.51953-0.374-0.0881-0.63806-0.25731-0.78906-0.50781-0.152-0.2504-0.22656-0.65128-0.22656-1.2051v-1.3125c0-0.5009-0.07375-0.82682-0.21875-0.97852-0.141-0.1552-0.44792-0.23438-0.91992-0.23438h-0.35352v-0.75586z" fill="currentColor" fill-opacity=".85098"/>
</svg>
