<svg width="16" height="16" version="1.1" viewBox="0 0 16 16" xmlns="http://www.w3.org/2000/svg">
<defs>
<style id="current-color-scheme" type="text/css">.ColorScheme-Text { color:#5c616c; } .ColorScheme-Highlight { color:#5294e2; }</style>
</defs>
<path class="ColorScheme-Text" d="m7.5 0.039062v1.8125h1v-1.8125h-1zm-4.8125 1.9707-0.71875 0.7168 1.2812 1.3125 0.71875-0.75-1.2812-1.2793zm10.625 0-1.2812 1.2793 0.71875 0.75 1.2812-1.3125-0.71875-0.7168zm-5.3125 1.0293c-2.7614 0-5 2.2386-5 5 0 2.7614 2.2386 5 5 5s5-2.2386 5-5c0-2.7614-2.2386-5-5-5zm0 1v8c-2.2091 0-4-1.791-4-4 0-2.2091 1.7909-4 4-4zm-8 3.5v1h1.8125v-1h-1.8125zm14.189 0v1h1.8125v-1h-1.8125zm-10.939 4.5312-1.2812 1.2812 0.71875 0.71875 1.2812-1.2812-0.71875-0.71875zm9.5 0-0.71875 0.71875 1.2812 1.2812 0.71875-0.71875-1.2812-1.2812zm-5.25 2.1562v1.8125h1v-1.8125h-1z" fill="#f1f6f8" fill-opacity=".85098"/>
</svg>
