<svg width="16" height="16" version="1.1" viewBox="1.003 1 14 14" xmlns="http://www.w3.org/2000/svg">
<defs>
<style id="current-color-scheme" type="text/css">.ColorScheme-Text { color:#5c616c; } .ColorScheme-Highlight { color:#5294e2; }</style>
</defs>
<path class="ColorScheme-Text" d="m3.0098 1c-2.2487 0-1.998 2-1.998 2v12h13.992v-12c0-2-2-2-2-2h-1.998v4h1.998v8h-9.9941v-8h2v-4h-2zm2.998 0 2 3 1.998-3h-3.998zm0.42773 5c-1.0655 0-1.5117 0.35226-1.5117 1.2539 0 0-0.02445 0.58743-0.03125 0.74609-0.0462 0.36892-0.1754 0.67773-0.57812 0.67773h-0.30469v0.64453h0.30469c0.58855 0 0.60938 0.64423 0.60938 1.2012-5e-3 0.17393 0.013578 0.36842 0.017578 0.47656 0.0833 0.71164 0.5369 1 1.4941 1v-0.5918c-0.44951 0-0.60639-0.11831-0.66992-0.4082-0.0337-0.11597-0.037181-0.51442-0.050781-0.70508 0-0.41546-0.12201-1.0347-0.7207-1.291 0.47307-0.20257 0.64212-0.62829 0.69531-1.0039 0.0239-0.10411 0.018591-0.2223 0.025391-0.30273 0-0.86631 0.010423-1.1055 0.7207-1.1055v-0.5918zm3.1426 0v0.5918c0.71028 0 0.7207 0.23913 0.7207 1.1055 7e-3 0.0804 0.001991 0.19862 0.025391 0.30273 0.0532 0.37563 0.2242 0.80135 0.69726 1.0039-0.59869 0.25635-0.72266 0.87557-0.72266 1.291-0.0137 0.19066-0.017181 0.58911-0.050781 0.70508-0.0635 0.28989-0.22041 0.4082-0.66992 0.4082v0.5918c0.95725 0 1.4129-0.28836 1.4961-1 4e-3 -0.10814 0.022578-0.30263 0.017578-0.47656 0-0.55691 0.020855-1.2012 0.60938-1.2012h0.30273v-0.64453h-0.30273c-0.40273 0-0.53194-0.30881-0.57812-0.67773-7e-3 -0.15866-0.03125-0.74609-0.03125-0.74609 0-0.90166-0.44819-1.2539-1.5137-1.2539z" fill="currentColor" fill-opacity=".85098"/>
</svg>
