<svg width="16" height="16" version="1.1" viewBox="0 0 16 16" xmlns="http://www.w3.org/2000/svg">
<defs>
<style id="current-color-scheme" type="text/css">.ColorScheme-Text { color:#5c616c; } .ColorScheme-Highlight { color:#5294e2; }</style>
</defs>
<path class="ColorScheme-Text" d="m4 1v2h8v-2h-8zm-2 3c-0.5 0-1 0.5-1 1v4c0 0.5 0.5 1 1 1h1v-2h5.125c0.66316-0.63263 1.5508-1.0312 2.5312-1.0312 1.7815 0 3.2906 1.2798 3.625 2.9688 0.39275-0.13746 0.71875-0.53064 0.71875-0.9375v-4c0-0.5-0.5-1-1-1h-12zm8.6602 3.9395c-1.4956 0-2.7187 1.2232-2.7187 2.7187 0 1.4956 1.2232 2.7188 2.7187 2.7188 0.4871 0 0.94724-0.14835 1.3438-0.375a0.75008 0.75008 0 0 0 0.15625 0.21875l1.8438 1.8125a0.7513 0.7513 0 1 0 1.0625-1.0625l-1.8438-1.8125a0.75008 0.75008 0 0 0-0.21875-0.15625c0.22665-0.39646 0.375-0.85659 0.375-1.3438 0-1.4956-1.2232-2.7187-2.7188-2.7187zm0 1c0.95516 0 1.7188 0.76354 1.7188 1.7187s-0.76354 1.7188-1.7188 1.7188c-0.95516 0-1.7187-0.76354-1.7187-1.7188 0-0.95516 0.76354-1.7187 1.7187-1.7187zm-6.6602 0.060547v5h5.0938c-1.2537-0.5913-2.125-1.8752-2.125-3.3438 0-0.59537 0.15156-1.1564 0.40625-1.6562h-3.375z" fill="#f1f6f8" fill-opacity=".85098"/>
</svg>
