<svg width="16" height="16" version="1.1" viewBox="0 0 16 16" xmlns="http://www.w3.org/2000/svg">
<defs>
<style id="current-color-scheme" type="text/css">.ColorScheme-Text { color:#5c616c; } .ColorScheme-Highlight { color:#5294e2; }</style>
</defs>
<path class="ColorScheme-Text" d="m11 0v1.5547c-0.363 0.021-0.723 0.0411-1.1152 0.0781-1.2789 0.1228-2.6619 0.329-3.8848 0.7305v-0.3633h-4v4h0.127c-0.5694 1.3541-0.92 2.9317-1.1622 4.391-0.03542 0.213-0.05555 0.401-0.08589 0.609h-0.87891v4.012h4v-1.555c0.3633-0.021 0.7235-0.041 1.1152-0.078 1.2789-0.123 2.6619-0.329 3.8848-0.731v0.364h4v-4.0003h-0.127c0.569-1.3541 0.92-2.9317 1.162-4.3906 0.035-0.2136 0.056-0.4019 0.086-0.6094h0.879v-4.0117h-4zm0 2.5547v1.457h2.111c-0.023 0.1535-0.036 0.2905-0.062 0.4473-0.261 1.5691-0.698 3.2566-1.305 4.5527h-2.744v2.5503c-1.1634 0.424-2.6276 0.693-3.9805 0.823-0.3579 0.034-0.6855 0.052-1.0195 0.072v-1.457h-2.1113c0.0231-0.154 0.0365-0.29 0.0625-0.447 0.2605-1.5694 0.698-3.2569 1.3047-4.553h2.7441v-2.5508c1.1634-0.4239 2.6276-0.6925 3.9805-0.8222 0.3575-0.034 0.6855-0.0523 1.0195-0.0723z" fill="currentColor" fill-opacity=".85098"/>
</svg>
