<svg width="16" height="16" version="1.1" viewBox="0 0 16 16" xmlns="http://www.w3.org/2000/svg">
<defs>
<style id="current-color-scheme" type="text/css">.ColorScheme-Text { color:#5c616c; } .ColorScheme-Highlight { color:#5294e2; }</style>
</defs>
<path class="ColorScheme-Text" d="m7.6035 0c-0.10811 0-0.2151 0.02464-0.31445 0.074219l-6.8965 3.4414c-0.23974 0.1196-0.39258 0.35018-0.39258 0.64062v7.6543c0 0.26671 0.15062 0.51064 0.38867 0.63086l6.8965 3.4824c0.1004 0.050756 0.20942 0.076172 0.31836 0.076172 0.17165 0 0.3477-0.09029 0.34766-0.08984l6.8691-3.4688c0.23809-0.12022 0.38867-0.36414 0.38867-0.63086v-7.6621c0-0.26796-0.15271-0.51321-0.39258-0.63281l-6.8965-3.4414c-0.099334-0.049578-0.2083-0.074219-0.31641-0.074219zm0 1.4961 5.3145 2.6523-5.3145 2.6523-5.3125-2.6523 5.3125-2.6523zm-6.1895 3.7949 5.4824 2.7363v6.1172l-5.4824-2.7695v-6.084zm12.381 0v6.084l-5.4844 2.7695v-6.1172l5.4844-2.7363z" fill="#f1f6f8" fill-opacity=".85098"/>
</svg>
