<svg width="16" height="16" version="1.1" viewBox="0 0 22 22" xmlns="http://www.w3.org/2000/svg">
<defs>
<style id="current-color-scheme" type="text/css">.ColorScheme-Text {
        color:#bebebe;
      }</style>
</defs>
<path class="ColorScheme-Text" d="m0 7.0738v7.8525l3.9906-3.9906z" color="#000000" fill="currentColor" stroke-width=".4"/>
<path class="ColorScheme-Text" d="m22 7.0738v7.8525l-3.9906-3.9906z" color="#000000" fill="currentColor" stroke-width=".4"/>
<path d="m4 2v2h2v-2h-2zm4 0v2h2v-2h-2zm4 0v2h2v-2h-2zm4 0v2h2v-2h-2zm-12 4v2h2v-2h-2zm12 0v2h2v-2h-2zm-12 4v2h2v-2h-2zm12 0v2h2v-2h-2zm-12 4v2h2v-2h-2zm12 0v2h2v-2h-2zm-12 4v2h2v-2h-2zm4 0v2h2v-2h-2zm4 0v2h2v-2h-2zm4 0v2h2v-2h-2z" fill="#3daee9" stroke-linecap="round" stroke-linejoin="round" stroke-width="2"/>
</svg>
