<svg width="16" height="16" version="1.1" viewBox="1.489 1.489 13.02 13.02" xmlns="http://www.w3.org/2000/svg">
<defs>
<style id="current-color-scheme" type="text/css">.ColorScheme-Text {
        color:#bebebe;
      }</style>
</defs>
<path class="ColorScheme-Text" d="m1.9893 1.4893c-0.12781 0-0.25558 0.04855-0.35352 0.14648-0.19587 0.19587-0.19587 0.51116 0 0.70703l5.6562 5.6562-5.6562 5.6582c-0.19587 0.19587-0.19587 0.51116 0 0.70703s0.51116 0.19587 0.70703 0l5.6562-5.6582 5.6582 5.6582c0.19587 0.19587 0.51116 0.19587 0.70703 0s0.19587-0.51116 0-0.70703l-5.6582-5.6582 5.6582-5.6562c0.19587-0.19587 0.19587-0.51116 0-0.70703s-0.51116-0.19587-0.70703 0l-5.6582 5.6562-5.6562-5.6562c-0.097934-0.097934-0.22571-0.14648-0.35352-0.14648z" fill="currentColor" fill-opacity=".99608" stroke-linecap="round" stroke-linejoin="round" stroke-width=".42521"/>
</svg>
