<svg width="16" height="16" version="1.1" viewBox="1.998 2.008 13 13" xmlns="http://www.w3.org/2000/svg">
<defs>
<style id="current-color-scheme" type="text/css">.ColorScheme-Text { color:#5c616c; } .ColorScheme-Highlight { color:#5294e2; }</style>
</defs>
<path class="ColorScheme-Text" d="m4.498 2.0078c-1.3798 0.001073-2.498 1.12-2.498 2.5 0 1.3807 1.1193 2.5 2.5 2.5 0.44608 0 0.85613-0.13902 1.2188-0.34375l1.9688 1.8438-1.9688 1.8437c-0.36-0.205-0.7707-0.34375-1.2207-0.34375-1.3807 0-2.5 1.1193-2.5 2.5s1.1193 2.5 2.5 2.5 2.5-1.1193 2.5-2.5c0-0.22916-0.03605-0.44541-0.09375-0.65625l2.125-2.0625 4.4688 4.2187h1.5v-1l-8.0938-7.8437c0.0578-0.21084 0.09375-0.42709 0.09375-0.65625 0-1.38-1.1183-2.4989-2.498-2.5h-0.0019531zm9.002 1-3.9375 3.7188 1.3125 1.2812 4.125-4v-1h-1.5zm-9 0.5c0.55228 0 1 0.44772 1 1s-0.44772 1-1 1-1-0.44772-1-1 0.44772-1 1-1zm0 8c0.55228 0 1 0.44772 1 1s-0.44772 1-1 1-1-0.44772-1-1 0.44772-1 1-1z" fill="currentColor" fill-opacity=".85098"/>
</svg>
