<svg width="16" height="16" version="1.1" viewBox="1 1 14 14" xmlns="http://www.w3.org/2000/svg">
<defs>
<style id="current-color-scheme" type="text/css">.ColorScheme-Text { color:#5c616c; } .ColorScheme-Highlight { color:#5294e2; }</style>
</defs>
<path class="ColorScheme-Text" d="m1 1v14h8v-2h-2v-2h2v-2h-2v-2h2v-2h-2v-2h2v-2h-8zm9 1v7h1v-0.28125l3-3v2.5625l-0.71875 0.71875h1.7188v-7h-1v2.2812l-3 3v-2.5625l2.7188-2.7188h-1.4375l-1.2812 1.2812v-1.2812h-1zm-7 1h2v2h-2v-2zm0 4h2v2h-2v-2zm8 3v4l4-2-4-2zm-8 1h2v2h-2v-2z" fill="currentColor" fill-opacity=".85098"/>
</svg>
