<svg width="16" height="16" version="1.1" viewBox="1.06 1.062 13.94 13.94" xmlns="http://www.w3.org/2000/svg">
<defs>
<style id="current-color-scheme" type="text/css">.ColorScheme-Text { color:#5c616c; } .ColorScheme-Highlight { color:#5294e2; }</style>
</defs>
<path class="ColorScheme-Text" d="m8.0293 1.0625c-3.8533 0-6.9688 3.1154-6.9688 6.9688 0 3.8533 3.1154 6.9688 6.9688 6.9688 3.8533 0 6.9688-3.1154 6.9688-6.9688 0-3.8533-3.1154-6.9688-6.9688-6.9688zm-3.0293 3.9414h1c0.27614 0 0.53779 0.10028 0.71875 0.28125l1.2812 1.2773 1.2812-1.2773c0.18-0.181 0.4407-0.28125 0.7207-0.28125h1v1c0 0.27614-0.10029 0.53778-0.28125 0.71875l-1.2812 1.2773 1.2812 1.2852c0.18096 0.18097 0.28262 0.44261 0.28125 0.71875v1h-1c-0.27614 0-0.53779-0.10028-0.71875-0.28125l-1.2812-1.2852-1.2812 1.2852c-0.18 0.18-0.4407 0.2793-0.7207 0.2793h-1v-1c0-0.27614 0.10029-0.53778 0.28125-0.71875l1.2812-1.2852-1.2812-1.2773c-0.18-0.18-0.2793-0.44275-0.2793-0.71875l-0.0019531-0.99805z" fill="currentColor" fill-opacity=".85098"/>
</svg>
