<svg width="16" height="16" version="1.1" viewBox="1 1 14 14" xmlns="http://www.w3.org/2000/svg">
<defs>
<style id="current-color-scheme" type="text/css">.ColorScheme-Text { color:#5c616c; } .ColorScheme-Highlight { color:#5294e2; }</style>
</defs>
<path class="ColorScheme-Text" d="m1 1v8h2v-2h2v2h2v-2h2v2h2v-2h2v2h2v-8h-14zm2 2h2v2h-2v-2zm4 0h2v2h-2v-2zm4 0h2v2h-2v-2zm-9 7v1h1.2812l-1.2812 1.2812v1.4375l2.7188-2.7188h2.5625l-3 3h-2.2812v1h7v-1.7188l-0.71875 0.71875h-2.5625l3-3h0.28125v-1h-7zm8 1 2 4 2-4h-4z" fill="currentColor" fill-opacity=".85098"/>
</svg>
