<svg width="16" height="16" version="1.1" viewBox="1 1 14 14" xmlns="http://www.w3.org/2000/svg">
<defs>
<style id="current-color-scheme" type="text/css">.ColorScheme-Text { color:#5c616c; } .ColorScheme-Highlight { color:#5294e2; }</style>
</defs>
<path class="ColorScheme-Text" d="m15 1c-0.989 0.2035-1.9072 0.78209-2.4492 1.6172-0.188-0.0842-0.33078-0.11719-0.55078-0.11719-0.156 0-0.30431 0.030219-0.44531 0.074219-0.279 0.1042-0.52386 0.21713-0.75586 0.33203a6.5 6.5 0 0 0-3.2988-0.90625 6.5 6.5 0 0 0-6.5 6.5 6.5 6.5 0 0 0 6.5 6.5 6.5 6.5 0 0 0 6.5-6.5 6.5 6.5 0 0 0-0.79297-3.0996c0.088-0.2879 0.16375-0.59968 0.21875-0.95508 0.044-0.1415 0.074219-0.28891 0.074219-0.44531 0-0.336-0.010312-0.4712-0.19531-0.7207 0.401-0.6538 0.93731-1.0824 1.6953-1.2793v-1z" fill="currentColor" fill-opacity=".85098"/>
</svg>
