<svg width="16" height="16" version="1.1" viewBox="0 0 16 16" xmlns="http://www.w3.org/2000/svg">
<defs>
<style id="current-color-scheme" type="text/css">.ColorScheme-Text { color:#5c616c; } .ColorScheme-Highlight { color:#5294e2; }</style>
</defs>
<path class="ColorScheme-Text" d="m7 1v2h2v2h-2v2h2v2h-2v2h2v2h-2v2h8v-14h-8zm-6 1v7h1.7188l-0.7188-0.7188v-2.5624l3 3v0.2812h1v-7h-1v1.2812l-1.2812-1.2812h-1.4376l2.7188 2.7188v2.5624l-3-3v-2.2812h-1zm10 1h2v2h-2v-2zm0 4h2v2h-2v-2zm-6 3-4 2 4 2v-4zm6 1h2v2h-2v-2z" fill="#f1f6f8" fill-opacity=".85098"/>
</svg>
