<svg width="16" height="16" version="1.1" viewBox="1 1 14 14" xmlns="http://www.w3.org/2000/svg">
<defs>
<style id="current-color-scheme" type="text/css">.ColorScheme-Text { color:#5c616c; } .ColorScheme-Highlight { color:#5294e2; }</style>
</defs>
<path class="ColorScheme-Text" d="m1 1v4h2v-2h2v2h2v-2h2v2h2v-2h2v2h2v-4h-14zm0 5v1h1.2812l-1.2812 1.2812v1.4376l2.7188-2.7188h2.5624l-3 3h-2.2812v5h14v-4h-2v2h-2v-2h-2v2h-2v-2h1v-1.7188l-0.7188 0.7188h-2.5624l3-3h0.2812v-1h-7zm9 1 2 4 2-4h-4zm-7 4h2v2h-2v-2z" fill="currentColor" fill-opacity=".85098"/>
</svg>
