<svg width="16" height="16" version="1.1" viewBox="0 0 16 16" xmlns="http://www.w3.org/2000/svg">
<defs>
<style id="current-color-scheme" type="text/css">.ColorScheme-Text { color:#5c616c; } .ColorScheme-Highlight { color:#5294e2; }</style>
</defs>
<path class="ColorScheme-Text" d="m7.2793 1.0508c-1.1178 0-2.1523 0.29251-2.9551 0.91602-0.80478 0.62368-1.2695 1.5765-1.2695 2.5723 0 0.91979 0.42354 1.7849 1.0254 2.6016-0.24211 0.16584-0.47741 0.34656-0.70703 0.56055-0.2794 0.26021-0.52407 0.54441-0.72266 0.85352a1.0233 0.97743 0 0 0-0.0019531 0.0058594c-0.20359 0.32163-0.35564 0.67857-0.4707 1.0664a1.0233 0.97743 0 0 0-0.0019532 0.0097657c-0.11563 0.40727-0.16992 0.83486-0.16992 1.2754 0 0.5513 0.1474 1.0981 0.41992 1.5898a1.0233 0.97743 0 0 0 0.0058594 0.009766c0.27063 0.47508 0.63753 0.89642 1.0801 1.2441 0.45013 0.35367 0.97644 0.62414 1.5586 0.82227a1.0233 0.97743 0 0 0 0.013672 0.003906c0.60056 0.19557 1.2306 0.29297 1.875 0.29297 1.1651 0 2.2743-0.39758 3.3242-0.98828l0.75 0.79492a1.0233 0.97743 0 0 0 1.4121 0.099609l0.97461-0.77148a1.0233 0.97743 0 0 0 0.10156-1.4141l-0.77344-0.80469c0.4006-0.47929 0.81216-0.93146 1.168-1.5234a1.0233 0.97743 0 0 0-0.32617-1.3047l-0.95898-0.59961a1.0233 0.97743 0 0 0-1.4531 0.33984c-0.18994 0.32468-0.41212 0.55082-0.61719 0.82812l-1.6445-1.707c0.21463-0.12287 0.4042-0.23875 0.57031-0.36719 0.12924-0.1 0.27721-0.21706 0.44531-0.35547a1.0233 0.97743 0 0 0 0.0019532-0.0019531c0.21777-0.1803 0.40766-0.37021 0.56641-0.59766a1.0233 0.97743 0 0 0 0.011719-0.013672c0.10422-0.1556 0.20387-0.32354 0.30273-0.5 0.1449-0.25233 0.24956-0.52642 0.30859-0.80859 0.0411-0.19644 0.051447-0.4 0.060547-0.60352a1.0233 0.97743 0 0 0 0.017578-0.18164c0-0.97937-0.39931-1.9225-1.1699-2.5176-0.74319-0.57395-1.7074-0.82617-2.752-0.82617zm1.9375 1.5957 0.0058593 0.0078125c-9.999e-4 -1e-3 -0.0029062-8.632e-4 -0.0039062-0.0019531-2e-3 -1e-3 -3.531e-4 -0.0038594-0.0019531-0.0058594zm-1.9199 1.3125c0.37084 0 0.47617 0.074679 0.50977 0.10547a1.0233 0.97743 0 0 0 0.0058594 0.0058594c0.0372 0.0333 0.089844 0.075674 0.089844 0.36523 0 0.11698-0.019047 0.21124-0.060547 0.31055a1.0233 0.97743 0 0 0-0.0058594 0.011719c-0.0506 0.12563-0.10411 0.2092-0.1543 0.26758a1.0233 0.97743 0 0 0-0.011719 0.017578c-0.0421 0.0513-0.15242 0.15708-0.33008 0.28125-0.15196 0.10517-0.27416 0.17969-0.39844 0.25586-0.29603-0.41543-0.60547-0.83788-0.60547-1.1289 0-0.17332-0.010507-0.16056 0.1582-0.27734 0.20017-0.13856 0.42772-0.21484 0.80273-0.21484zm-1.1621 5.5332 1.8848 2c-0.33249 0.11227-0.6874 0.36914-1.0078 0.36914-0.56149 0-0.919-0.12696-1.2305-0.37109-0.31584-0.25253-0.38477-0.41013-0.38477-0.70703 0-0.43064 0.097511-0.69143 0.27539-0.91406a1.0233 0.97743 0 0 0 0.0039062-0.0078125c0.095-0.12041 0.31729-0.24528 0.45898-0.36914z" fill="#dedede" fill-opacity=".85098"/>
</svg>
