<svg width="16" height="16" version="1.1" viewBox="0 0 16 16" xmlns="http://www.w3.org/2000/svg">
<defs>
<style id="current-color-scheme" type="text/css">.ColorScheme-Text { color:#5c616c; } .ColorScheme-Highlight { color:#5294e2; }</style>
</defs>
<path class="ColorScheme-Text" d="m7 1.0977v2c-1.9529 0.39963-3.5066 1.9534-3.9062 3.9062h-2.0938v2h2.0938c0.39963 1.9529 1.9534 3.5066 3.9062 3.9062v2.0938h2v-2.0938c1.9529-0.39963 3.5066-1.9534 3.9062-3.9062h2.0938v-2h-2.0938c-0.39963-1.9529-1.9534-3.5066-3.9062-3.9062v-2h-2zm1 4.9062c1.1046 0 2 0.89543 2 2 0 1.1046-0.89543 2-2 2s-2-0.89543-2-2 0.89543-2 2-2z" fill="#dedede" fill-opacity=".85098"/>
</svg>
