<svg width="16" height="16" version="1.1" viewBox=".2645 .5221 3.704 3.182" xmlns="http://www.w3.org/2000/svg">
<defs>
<style id="current-color-scheme" type="text/css">.ColorScheme-Text {
        color:#bebebe;
      }</style>
</defs>
<g transform="translate(0 -292.77)">
<path transform="matrix(.26458 0 0 .26458 0 292.77)" d="m1 5v7c0 1.108 0.89199 2 2 2h10c1.108 0 2-0.89199 2-2v-7h-14zm1 1h12v6c0 0.554-0.44601 1-1 1h-10c-0.55399 0-1-0.446-1-1v-6z"/>
<path d="m3.9687 294.35v-0.26608c0-0.29316-0.2635-0.52708-0.52808-0.52712l-1.5886-1.3e-4 -0.26458-0.26458h-0.79375c-0.29316 0-0.52916 0.236-0.52916 0.52916v0.52917m0.26458-4.1e-4v-0.52918c0-0.14658 0.11862-0.27794 0.26458-0.26458h0.79375l0.26458 0.26458 1.5886 1.3e-4c0.14657 1e-5 0.2635 0.11596 0.2635 0.26254v0.26651"/>
<rect x="1.9844" y="294.75" width=".26458" height="1.0583"/>
<rect transform="rotate(90)" x="295.15" y="-2.6458" width=".26459" height="1.0583"/>
</g>
</svg>
