<svg width="16" height="16" version="1.1" viewBox="1 3 14 10" xmlns="http://www.w3.org/2000/svg">
<defs>
<style id="current-color-scheme" type="text/css">.ColorScheme-Text { color:#5c616c; } .ColorScheme-Highlight { color:#5294e2; }</style>
</defs>
<path class="ColorScheme-Text" d="m4 3v2h6c0.42816 0 1 0.61414 1 1h2c0-1.6343-1.3198-3-3-3h-6zm-3 4v2h14v-2h-14zm2 3c6e-3 0.72062 0.26893 1.4528 0.78125 2.0312 0.51232 0.57854 1.3104 0.96875 2.2188 0.96875h7v-0.84375c0.0156-0.09375 0-0.15625 0-0.15625v-2h-2v1h-5c-0.39787 0-0.56691-0.10979-0.71875-0.28125s-0.27877-0.43937-0.28125-0.71875h-2z" fill="currentColor" fill-opacity=".85098"/>
</svg>
