<svg width="16" height="16" version="1.1" viewBox="4 5 7 6" xmlns="http://www.w3.org/2000/svg">
<defs>
<style id="current-color-scheme" type="text/css">.ColorScheme-Text { color:#5c616c; } .ColorScheme-Highlight { color:#5294e2; }</style>
</defs>
<path class="ColorScheme-Text" d="m6 5c-1.1046 0-2 0.89543-2 2v2.5312h0.0019531a1.5 1.5 0 0 0 1.498 1.4688 1.5 1.5 0 0 0 1.5-1.5 1.5 1.5 0 0 0-1.5-1.5 1.5 1.5 0 0 0-0.03125 0.0019531v-0.0019531h-0.46875v-1c0-0.55228 0.44772-1 1-1v-1zm4 0c-1.1046 0-2 0.89543-2 2v2.5312h0.0019531a1.5 1.5 0 0 0 1.498 1.4688 1.5 1.5 0 0 0 1.5-1.5 1.5 1.5 0 0 0-1.5-1.5 1.5 1.5 0 0 0-0.03125 0.0019531v-0.0019531h-0.46875v-1c0-0.55228 0.44772-1 1-1v-1z" fill="currentColor" fill-opacity=".85098"/>
</svg>
