<svg width="16" height="16" version="1.1" viewBox="0 0 16 16" xmlns="http://www.w3.org/2000/svg">
<defs>
<style id="current-color-scheme" type="text/css">.ColorScheme-Text { color:#5c616c; } .ColorScheme-Highlight { color:#5294e2; }</style>
</defs>
<path class="ColorScheme-Text" d="m4.5 0c-2.3173-1e-5 -2.8536 2.556-2.9668 6h-1.5332v4h4v-4h-1.4512c0.10929-2.8711 0.52229-5 1.9512-5 1.696 0 2.6133 2.1158 2.8945 5h-1.3945v4h1.6504c0.42699 3.4818 1.6636 5.9971 3.8496 6 2.5026-1e-5 2.6875-2.5404 2.9258-6h1.5742v-4h-4v4h1.4258c-0.20543 2.899-0.35891 5-1.9258 5-1.6756-4e-3 -2.5103-2.0793-2.8555-5h1.3555v-4h-1.6133c-0.36233-3.444-1.6761-6-3.8867-6z" fill="#dedede" fill-opacity=".85098"/>
</svg>
