<svg width="16" height="16" version="1.1" viewBox="0 0 16 16" xmlns="http://www.w3.org/2000/svg">
<defs>
<style id="current-color-scheme" type="text/css">.ColorScheme-Text { color:#5c616c; } .ColorScheme-Highlight { color:#5294e2; }</style>
</defs>
<path class="ColorScheme-Text" d="m9.1504 1a1.0001 1.0001 0 0 0-0.9668 0.74219l-1.8945 7.0742-0.75977-1.3164a1.0001 1.0001 0 0 0-0.86523-0.5h-2.6621a1.0001 1.0001 0 0 0-1 1v1a1.0001 1.0001 0 0 0 1 1h1.5059l2.5996 4.5a1.0001 1.0001 0 0 0 1.832-0.24023l2.748-10.26h3.3145a1.0001 1.0001 0 0 0 1-1v-1a1.0001 1.0001 0 0 0-1-1h-4.8516z" fill="#f1f6f8" fill-opacity=".85098"/>
</svg>
