<svg width="16" height="16" version="1.1" viewBox="1.006 2 13 12" xmlns="http://www.w3.org/2000/svg">
<defs>
<style id="current-color-scheme" type="text/css">.ColorScheme-Text { color:#5c616c; } .ColorScheme-Highlight { color:#5294e2; }</style>
</defs>
<path class="ColorScheme-Text" d="m3.6309 2-2.625 7h0.8125l0.84375-2.2188h2.7188l0.8125 2.2188h0.8125l-2.5625-7h-0.8125zm6.375 0v9h1v-9h-1zm3 0v9h1v-9h-1zm-8.9687 0.84375c0.0679 0.23932 0.44246 1.3197 1.0938 3.25h-2.2188l1.125-3.25zm-2.0312 7.1562v1h1v-1h-1zm3 0v1h1v-1h-1zm-3 2 2 2 2-2h-4zm8 0 2 2 2-2h-4z" fill="currentColor" fill-opacity=".85098"/>
</svg>
