<svg width="16" height="16" version="1.1" viewBox="1 3 14 10" xmlns="http://www.w3.org/2000/svg">
<defs>
<style id="current-color-scheme" type="text/css">.ColorScheme-Text { color:#5c616c; } .ColorScheme-Highlight { color:#5294e2; }</style>
</defs>
<path class="ColorScheme-Text" d="m3.6875 3-2.6875 7h0.84375l0.84375-2.2188h2.7812l0.8125 2.2188h0.84375l-2.5938-7h-0.84375zm3.3125 0v1h4v-1h-4zm6 0v4l2-2-2-2zm-8.9062 0.84375c0.0692 0.2393 0.42935 1.3197 1.0938 3.25h-2.25l1.1562-3.25zm3.9062 2.1562v1h3v-1h-3zm1 3v1h2v-1h-2zm4 0v4l2-2-2-2zm-12 3v1h10v-1h-10z" fill="currentColor" fill-opacity=".85098"/>
</svg>
