<svg width="16" height="16" version="1.1" viewBox="0 0 16 16" xmlns="http://www.w3.org/2000/svg">
<defs>
<style id="current-color-scheme" type="text/css">.ColorScheme-Text { color:#5c616c; } .ColorScheme-Highlight { color:#5294e2; }</style>
</defs>
<path class="ColorScheme-Text" d="m6.5371 1.1953c-0.11646 6.423e-4 -0.23308 0.01618-0.34766 0.046875-0.91654 0.24559-1.422 1.4002-1.2793 2.7344-1.2522-0.48371-2.4981-0.29469-2.9727 0.52734-0.4746 0.82204-0.015719 1.9953 1.0293 2.8379-1.2266 0.54317-1.9722 1.558-1.7266 2.4746 0.24552 0.91656 1.3981 1.4184 2.7324 1.2754 0.080622-0.20864 0.17592-0.41693 0.29492-0.62305 0.47687-0.49256 1.2608-1.0637 2.0605-1.373a2 2 0 0 1-0.25977-0.57422 2 2 0 0 1 1.4141-2.4492 2 2 0 0 1 2.4492 1.4141 2 2 0 0 1-1.4141 2.4492 2 2 0 0 1-0.62695 0.064453c0.13154 0.84717 0.029583 1.8073-0.1582 2.4668v0.001953c-0.11893 0.20599-0.25184 0.39176-0.39258 0.56641 0.54351 1.2268 1.5561 1.976 2.4727 1.7305 0.91654-0.24559 1.4181-1.4001 1.2754-2.7344 1.2522 0.48372 2.4981 0.29469 2.9727-0.52734 0.47457-0.82201 0.015675-1.9973-1.0293-2.8398 1.2268-0.54351 1.9761-1.5562 1.7305-2.4727-0.2456-0.91654-1.4001-1.42-2.7344-1.2773 0.48366-1.2521 0.29469-2.4981-0.52734-2.9727-0.822-0.47458-1.9953-0.015667-2.8379 1.0293-0.47557-1.0735-1.3098-1.7799-2.125-1.7754zm-2.7207 11.945c0.0018098 0.006126 0.003957 0.013502 0.0058594 0.019531 0.020927 0.066354 0.047315 0.12952 0.074219 0.19141-0.029977-0.067675-0.057678-0.13753-0.080078-0.21094zm0.15625 0.37305c0.001178 0.002084 0.0027145 0.003788 0.0039063 0.005859-7.946e-4 -0.00193-9.679e-4 -0.004052-0.0019531-0.005859h-0.0019532zm0.0039063 0.005859c0.0013538 0.003289 0.0021788 0.006731 0.0039063 0.009766 0.03599 0.062464 0.079828 0.11609 0.12305 0.17188-0.045155-0.058134-0.089441-0.11646-0.12695-0.18164zm2.75 0.125c-0.027384 0.021799-0.054375 0.045712-0.082031 0.066407 0.0036002-0.002656 0.0081346-0.003172 0.011719-0.00586 0.024101-0.018232 0.046442-0.041419 0.070312-0.060547zm-1.1035 0.55469c-0.074757 0.016491-0.14906 0.02775-0.22266 0.035156 0.007071-7.67e-4 0.014409-0.001165 0.021484-0.001953 0.066989-0.007628 0.13323-0.018124 0.20117-0.033203zm-0.60938 0.027343c0.069988 0.009577 0.13883 0.021539 0.21094 0.021485 0.0055396-3.5e-5 0.012013-0.001818 0.017578-0.001953-0.077757 7.06e-4 -0.15327-0.009182-0.22852-0.019532z" fill="#f1f6f8" fill-opacity=".85098"/>
<path class="ColorScheme-Text" d="m6.3301 9.0957c-0.80052 0.30893-1.585 0.87972-2.0625 1.373-0.83099 1.4393-0.72714 3.0437 0.23242 3.5977 0.95957 0.55399 2.4014-0.15831 3.2324-1.5977v-0.001953c0.1877-0.65951 0.29023-1.6214 0.1582-2.4688a2 2 0 0 1-0.88867-0.26562 2 2 0 0 1-0.67188-0.63672z" fill="currentColor" opacity=".3"/>
</svg>
