<svg width="16" height="16" version="1.1" viewBox="1.501 1 13 14" xmlns="http://www.w3.org/2000/svg">
<defs>
<style id="current-color-scheme" type="text/css">.ColorScheme-Text { color:#5c616c; } .ColorScheme-Highlight { color:#5294e2; }</style>
</defs>
<path class="ColorScheme-Text" d="m8.002 1c-2.526 0-4.5742 2.041-4.5742 4.5605 0 0.44324 0.065019 0.87218 0.18359 1.2773-0.576 0.4614-2.8104 2.4601-1.8906 5.0527 0 0 0.77696-0.06585 1.416-1.2441 0.19407 0.75409 0.55588 1.4372 1.0488 2.0098-0.72211 0.2121-1.2129 0.62368-1.2129 1.0957 0 0.689 1.0444 1.248 2.3301 1.248 0.87266 0 1.6309-0.2568 2.0293-0.63672 0.21939 0.028782 0.44103 0.046875 0.66797 0.046875 0.22738 0 0.44947-0.018093 0.66797-0.046875 0.39925 0.37992 1.1586 0.63672 2.0313 0.63672 1.2861 0 2.3301-0.55949 2.3301-1.248 0-0.47158-0.49078-0.8836-1.2129-1.0957 0.49251-0.57254 0.85476-1.2557 1.0488-2.0098 0.63862 1.1778 1.416 1.2441 1.416 1.2441 0.92106-2.593-1.3151-4.5918-1.8906-5.0527 0.11902-0.40516 0.18555-0.8341 0.18555-1.2773 0-2.5191-2.0473-4.5605-4.5742-4.5605z" fill="currentColor" fill-opacity=".85098"/>
</svg>
