<svg width="16" height="16" version="1.1" viewBox="0 0 16 16" xmlns="http://www.w3.org/2000/svg">
<defs>
<style id="current-color-scheme" type="text/css">.ColorScheme-Text { color:#5c616c; } .ColorScheme-Highlight { color:#5294e2; }</style>
</defs>
<path class="ColorScheme-Text" d="m2.3438 0.9375-1.4062 1.4062 2.1133 2.1133c-2.2001 1.4746-3.0508 3.543-3.0508 3.543 0 0 2 5.0039 8 5.0039 1.1815 0 2.1912-0.20848 3.0762-0.52148l2.5801 2.5801 1.4062-1.4062-12.719-12.719zm5.6562 2.0664c-0.5239 0-1.0064 0.049641-1.4707 0.11914l1.9199 1.9199a3 3 0 0 1 2.5156 2.5156l3.1094 3.1094c1.374-1.3022 1.9258-2.6641 1.9258-2.6641 0 0-2-5-8-5zm-2.6992 3.7031 3.9961 3.9961a3 3 0 0 1-1.2969 0.30078 3 3 0 0 1-3-3 3 3 0 0 1 0.30078-1.2969z" fill="#f1f6f8" fill-opacity=".85098"/>
</svg>
