<svg width="16" height="16" version="1.1" viewBox="0 0 16 16" xmlns="http://www.w3.org/2000/svg">
<defs>
<style id="current-color-scheme" type="text/css">.ColorScheme-Text { color:#5c616c; } .ColorScheme-Highlight { color:#5294e2; }</style>
</defs>
<path class="ColorScheme-Text" d="m1 1v2h4v2h2v-4h-6zm6 4v2h4v-2h-4zm4 0h2v-2h-2v2zm0-2v-2h-2v2h2zm-4 4h-2v2h2v-2zm-2 2h-2v2h2v-2zm-2 0v-2h-2v2h2zm0-2h2v-2h-2v2zm8 2v2h2v-2h-2zm2 2v4h2v-4h-2zm-6 0v2h2v-2h-2zm2 2v2h2v-2h-2zm-6 0v2h2v-2h-2z" fill="#dedede" fill-opacity=".85098"/>
</svg>
