<svg width="16" height="16" version="1.1" viewBox="0 0 16 16" xmlns="http://www.w3.org/2000/svg">
<defs>
<style id="current-color-scheme" type="text/css">.ColorScheme-Text { color:#5c616c; } .ColorScheme-Highlight { color:#5294e2; }</style>
</defs>
<path class="ColorScheme-Text" d="m13.029 1.0312c-0.095 8.9e-4 -0.15625 0.03125-0.15625 0.03125l-11.811 2.0625c-0.9848 0.17365-0.8125 1.1562-0.8125 1.1562l0.46875 2.7188h3.0938l1.125-1.9375 2.4375 1.9375h2.3125l0.90625-1.2188 1.75 1.2188h2.5938l-0.90625-5.125c-0.13023-0.7386-0.71488-0.84642-1-0.84375h-0.001953zm-12.029 6.9688v1h1v-1h-1zm2 0v1h1v-1h-1zm2 0v1h1v-1h-1zm2 0v1h1v-1h-1zm2 0v1h1v-1h-1zm2 0v1h1v-1h-1zm2 0v1h1v-1h-1zm2 0v1h1v-1h-1zm-13.75 2 0.71875 4.1562c0.17364 0.9848 1.1562 0.8125 1.1562 0.8125l11.811-2.0938s0.98614-0.17149 0.8125-1.1562l-0.31055-1.7188h-2l0.1875 1.0625-9.8438 1.75-0.5-2.8125h-2.0312z" fill="#dedede" fill-opacity=".85098"/>
</svg>
