<svg width="16" height="16" version="1.1" viewBox="1 4 14 9" xmlns="http://www.w3.org/2000/svg">
<defs>
<style id="current-color-scheme" type="text/css">.ColorScheme-Text {
        color:#363636;
      }</style>
</defs>
<path d="m7 11.5-1.4996 2.56e-4c-1.939 3.31e-4 -3.0011-1.0585-3.0011-2.9975s1.0657-2.9935 3.0047-3.0009l1.496-0.0018847v-1.5h-2c-2.216 0-4 2-4 4v1c0 2 1.784 4 4 4h2zm2 1.5h2c2.216 0 4-2 4-4v-1c0-2-1.784-4-4-4h-2v1.5l1.4976 0.00522c1.939 0.00676 3.004 1.0582 3.004 2.9972s-1.0635 2.9941-3.0025 2.9969l-1.4992 7.17e-4z" fill="#f1f6f8" stroke-linecap="round" stroke-linejoin="round" stroke-width="5.6693"/>
<rect x="4" y="8" width="7.5" height="1" rx=".5" ry=".5" fill="#f1f6f8" stroke-linecap="round" stroke-linejoin="round" stroke-width="5.6693"/>
</svg>
