<svg width="16" height="16" version="1.1" viewBox="1 .9995 14 14" xmlns="http://www.w3.org/2000/svg">
<defs>
<style id="current-color-scheme" type="text/css">.ColorScheme-Text { color:#5c616c; } .ColorScheme-Highlight { color:#5294e2; }</style>
</defs>
<path class="ColorScheme-Text" d="m3.5 1c-1.369 0-2.5 1.1312-2.5 2.5v0.0019531c1e-3 0.7628 0.4294 1.382 1 1.8477v5.6504c0 1.645 1.3548 3 3 3-2e-4 0.564 0.4656 1.016 1.0293 1 0.2061-6e-3 0.40531-0.076219 0.57031-0.19922l2-1.5c0.533-0.4 0.533-1.1996 0-1.5996l-2-1.5c-0.6538-0.4896-1.5871-0.030844-1.5996 0.78516v-5.6367c0.5709-0.4657 0.9989-1.0847 1-1.8477v-0.0019531c0-1.3688-1.131-2.5-2.5-2.5zm6.4707 0c-0.2061 6e-3 -0.40531 0.075619-0.57031 0.19922l-2 1.5c-0.533 0.4001-0.533 1.1996 0 1.5996l2 1.5c0.6536 0.4898 1.5876 0.031544 1.5996-0.78516v5.6367c-0.571 0.466-0.999 1.0847-1 1.8477v0.001953c0 1.369 1.131 2.5 2.5 2.5s2.5-1.131 2.5-2.5v-0.001953c-1e-3 -0.763-0.429-1.3817-1-1.8477v-5.6504c0-1.645-1.355-3-3-3 0-0.5639-0.466-1.0165-1.0293-1z" fill="currentColor" fill-opacity=".85098"/>
</svg>
