<svg width="16" height="16" version="1.1" viewBox="0 0 16 16" xmlns="http://www.w3.org/2000/svg">
<defs>
<style id="current-color-scheme" type="text/css">.ColorScheme-Text { color:#5c616c; } .ColorScheme-Highlight { color:#5294e2; }</style>
</defs>
<path class="ColorScheme-Text" d="m8 0a8 8 0 0 0-8 8 8 8 0 0 0 8 8 8 8 0 0 0 8-8 8 8 0 0 0-8-8zm0 1a7 7 0 0 1 7 7 7 7 0 0 1-7 7 7 7 0 0 1-7-7 7 7 0 0 1 7-7z" fill="currentColor" fill-opacity=".85098"/>
<path class="ColorScheme-Text" d="m0.035156 7.2637c-0.0022 0.02338-0.0019062 0.046912-0.0039062 0.070312a8 8 0 0 1 0.0078125-0.058594c-9.666e-4 -0.0039-0.0029762-0.0077987-0.0039062-0.011719zm0.98047 1.1797a7 7 0 0 0 6.9844 6.5566 7 7 0 0 0 6.9766-6.5469c-1.374 0.925-3.9896 1.5469-6.9766 1.5469-2.997-1e-3 -5.6162-0.62664-6.9844-1.5566zm14.949 0.24414a8 8 0 0 1-0.054688 0.45312c0.02153-0.1504 0.041638-0.30016 0.054688-0.45312zm-15.924 0.13086a8 8 0 0 0 0.18555 1.0332c-0.08047-0.33801-0.14966-0.67984-0.18555-1.0332zm0.18555 1.0332c0.022337 0.093827 0.044698 0.18678 0.070312 0.2793a8 8 0 0 1-0.070312-0.2793zm0.070312 0.2793a8 8 0 0 0 0.33203 0.98242c-0.13373-0.31616-0.23923-0.64726-0.33203-0.98242zm15.564-0.67969a8 8 0 0 1-0.10547 0.48242c0.03963-0.15932 0.075549-0.31948 0.10547-0.48242zm-0.18359 0.7832a8 8 0 0 1-0.15234 0.45898c0.05427-0.15155 0.10711-0.30336 0.15234-0.45898zm-0.25976 0.75a8 8 0 0 1-0.20898 0.4668c0.07373-0.15366 0.14498-0.30788 0.20898-0.4668zm-14.787 0.13086c0.10393 0.24548 0.21869 0.48457 0.3457 0.7168a8 8 0 0 1-0.3457-0.7168zm14.463 0.57422a8 8 0 0 1-0.24023 0.42188c0.0833-0.13853 0.16525-0.27804 0.24023-0.42188zm-14.014 0.31055c0.095218 0.16432 0.19056 0.32968 0.29688 0.48633a8 8 0 0 1-0.29688-0.48633zm13.598 0.39844a8 8 0 0 1-0.23242 0.32617c0.07915-0.10778 0.15864-0.21437 0.23242-0.32617zm-13.062 0.40625a8 8 0 0 0 0.23828 0.31055c-0.08338-0.10008-0.15783-0.20642-0.23633-0.31055h-0.0019531zm12.602 0.22656a8 8 0 0 1-0.26953 0.30469c0.09059-0.10088 0.1841-0.19928 0.26953-0.30469zm-12.096 0.38086c0.085777 0.09312 0.16971 0.18839 0.25977 0.27734a8 8 0 0 1-0.25977-0.27734zm11.568 0.20703a8 8 0 0 1-0.27734 0.25976c0.09312-0.08578 0.18839-0.16972 0.27734-0.25976zm-11.025 0.32812c0.10088 0.09059 0.19928 0.1841 0.30469 0.26953a8 8 0 0 1-0.30469-0.26953zm10.451 0.20117a8 8 0 0 1-0.31055 0.23633c0.10413-0.0785 0.21047-0.15295 0.31055-0.23633zm-9.8398 0.29687c0.10778 0.07915 0.21437 0.15864 0.32617 0.23242a8 8 0 0 1-0.32617-0.23242zm9.2109 0.17774a8 8 0 0 1-0.48633 0.29688c0.16432-0.09522 0.32968-0.19056 0.48633-0.29688zm-8.5977 0.23047c0.13853 0.0833 0.27804 0.16525 0.42188 0.24023a8 8 0 0 1-0.42188-0.24023zm0.66016 0.35547c0.15366 0.07373 0.30788 0.14498 0.4668 0.20898a8 8 0 0 1-0.4668-0.20898zm6.5645 0.16211c-0.31477 0.13314-0.64295 0.2375-0.97656 0.33008a8 8 0 0 0 0.97656-0.33008zm-0.97656 0.33008a8 8 0 0 1-0.28516 0.074219c0.095981-0.022825 0.19055-0.047966 0.28516-0.074219zm-0.28516 0.074219c-0.33739 0.080231-0.68052 0.14778-1.0332 0.18359a8 8 0 0 0 1.0332-0.18359zm-4.5449-0.25c0.15155 0.05427 0.30336 0.10711 0.45898 0.15234a8 8 0 0 1-0.45898-0.15234zm0.75977 0.23047v0.001953a8 8 0 0 0 0.48242 0.10352c-0.16294-0.02992-0.3231-0.065839-0.48242-0.10547zm0.79297 0.1543c0.1504 0.02153 0.30016 0.041638 0.45312 0.054688a8 8 0 0 1-0.45312-0.054688z" fill="currentColor" fill-opacity=".36095" opacity=".3"/>
</svg>
