<svg width="16" height="16" version="1.1" viewBox="0 0 16 16" xmlns="http://www.w3.org/2000/svg">
<defs>
<style id="current-color-scheme" type="text/css">.ColorScheme-Text { color:#5c616c; } .ColorScheme-Highlight { color:#5294e2; }</style>
</defs>
<path class="ColorScheme-Text" d="m3 1c-1.108 0-2 0.892-2 2v10c0 1.108 0.892 2 2 2h10c1.108 2e-5 2-0.892 2-2v-4l-2-0.0058594v4.0059h-10v-10h4v-2h-4zm5 0v2h3.5859l-5.2012 5.2012 0.0058594 0.0058593a1 1 0 0 0-0.40039 0.79297 1 1 0 0 0 1 1 1 1 0 0 0 0.79297-0.39062l0.0058594 0.0058594 5.2012-5.2012v3.5859l2 0.0058594v-7.0059h-6.9902z" fill="#f1f6f8" fill-opacity=".85098"/>
</svg>
