<svg width="16" height="16" version="1.1" viewBox="0 0 16 16" xmlns="http://www.w3.org/2000/svg">
<defs>
<style id="current-color-scheme" type="text/css">.ColorScheme-Text { color:#5c616c; } .ColorScheme-Highlight { color:#5294e2; }</style>
</defs>
<path class="ColorScheme-Text" d="m4 2v2h7c1.6793 0 3 1.3207 3 3s-1.3207 3-3 3h-1v-2l-5 3 5 3v-2h1c2.7508 0.10093 5-2.2473 5-5s-2.2473-5-5-5h-7zm-2 7a2 2 0 0 0-2 2 2 2 0 0 0 2 2 2 2 0 0 0 2-2 2 2 0 0 0-2-2z" fill="#dedede" fill-opacity=".85098"/>
</svg>
