<svg width="16" height="16" version="1.1" viewBox="0 0 16 16" xmlns="http://www.w3.org/2000/svg">
<defs>
<style id="current-color-scheme" type="text/css">.ColorScheme-Text { color:#5c616c; } .ColorScheme-Highlight { color:#5294e2; }</style>
</defs>
<path class="ColorScheme-Text" d="m2 2.0039c-1.108 0-2 0.892-2 2v8c0 1.108 0.892 2 2 2h12c1.108 0 2-0.892 2-2v-8c0-1.108-0.892-2-2-2h-12zm6 1.9961c1.1046 0 2 0.8955 2 2s-0.8954 2-2 2-2-0.8955-2-2 0.8954-2 2-2zm0 5c4-0.0018 4 2.4004 4 2.4004v0.59961h-8v-0.59961s-2e-4 -2.3984 4-2.4004z" fill="currentColor" fill-opacity=".85098"/>
</svg>
