<svg width="16" height="16" version="1.1" viewBox="0 0 16 16" xmlns="http://www.w3.org/2000/svg">
<defs>
<style id="current-color-scheme" type="text/css">.ColorScheme-Text { color:#5c616c; } .ColorScheme-Highlight { color:#5294e2; }</style>
</defs>
<path class="ColorScheme-Text" d="m1.8438 1.0098c-0.2813 0.0468-0.84375 0.25-0.84375 1v11s0 1 1 1h12s1 0 1-1v-9c0-1-1-1-1-1h-5l-2-2h-5s-0.06255-0.01563-0.15625 0zm6.4648 2.9902c0.5364 0 1.029 0.0836 1.4805 0.25 0.4519 0.1631 0.84002 0.39908 1.166 0.70898 0.329 0.3066 0.58553 0.68069 0.76953 1.1211 0.183 0.4403 0.27539 0.93503 0.27539 1.4863 0 0.3099-0.039188 0.61662-0.11719 0.91992-0.074999 0.3034-0.1897 0.57696-0.3457 0.81836-0.156 0.2381-0.3538 0.43203-0.5918 0.58203-0.234 0.1473-0.51108 0.21875-0.83008 0.21875-0.1288 0-0.24983-0.012969-0.36523-0.042969-0.112-0.032-0.21555-0.077412-0.31055-0.13281-0.0951-0.0587-0.1788-0.12422-0.25-0.19922-0.068-0.0783-0.1208-0.16456-0.1582-0.25586h-0.076172c-0.0645 0.0816-0.13981 0.16203-0.22461 0.24023-0.0849 0.0751-0.17986 0.14247-0.28516 0.20117-0.1052 0.0587-0.22266 0.10463-0.35156 0.14063-0.1257 0.032-0.26271 0.048828-0.41211 0.048828-0.2817 0-0.53321-0.045519-0.75391-0.13672-0.2172-0.0946-0.39943-0.22688-0.54883-0.39648-0.1494-0.1729-0.2637-0.37703-0.3418-0.61523-0.0781-0.2414-0.11719-0.50853-0.11719-0.79883 0-0.336 0.053003-0.64333 0.1582-0.92383 0.1053-0.2806 0.25632-0.52241 0.45312-0.72461 0.1969-0.2055 0.4351-0.36371 0.7168-0.47461 0.2818-0.1142 0.59767-0.17188 0.94727-0.17188 0.1528 0 0.31171 0.0090907 0.47461 0.025391 0.163 0.0163 0.31935 0.038353 0.46875 0.064453 0.1527 0.0261 0.29533 0.055291 0.42773 0.087891 0.1324 0.0326 0.24484 0.065056 0.33984 0.097656l-0.10547 2.0488c-0.0069999 0.0718-0.011719 0.14244-0.011719 0.21094v0.13281c0 0.1371 0.01085 0.24989 0.03125 0.33789 0.0238 0.0881 0.052038 0.15678 0.085938 0.20898 0.0374 0.049 0.079247 0.084016 0.12305 0.10352 0.048 0.0196 0.097437 0.029297 0.14844 0.029297 0.119 0 0.22255-0.044712 0.31055-0.13281 0.089-0.088 0.16075-0.20547 0.21875-0.35547 0.058-0.1501 0.09986-0.32649 0.13086-0.52539 0.03-0.2023 0.046875-0.41552 0.046875-0.64062 0-0.4175-0.06436-0.78903-0.19336-1.1152s-0.31002-0.60107-0.54102-0.82617c-0.2271-0.225-0.49865-0.39627-0.81445-0.51367-0.3157-0.1175-0.65734-0.17773-1.0273-0.17773-0.5194 0-0.9778 0.0837-1.375 0.25-0.3938 0.1664-0.72604 0.39912-0.99414 0.69922-0.2648 0.2969-0.46627 0.65089-0.60547 1.0586-0.1358 0.4078-0.20312 0.85374-0.20312 1.3398 0 0.4501 0.058934 0.85022 0.17773 1.1992 0.1188 0.3458 0.2951 0.637 0.5293 0.875 0.2342 0.235 0.52243 0.41506 0.86523 0.53906 0.3429 0.12 0.7394 0.18164 1.1875 0.18164 0.1901 0 0.38564-0.012156 0.58594-0.035156 0.2002-0.023 0.3988-0.05475 0.5957-0.09375 0.2003-0.04 0.39584-0.085625 0.58594-0.14062 0.1935-0.056 0.37583-0.11664 0.54883-0.18164v0.93945c-0.3191 0.137-0.67405 0.24426-1.0645 0.32226-0.387 0.082-0.80089 0.12305-1.2422 0.12305-0.6145 0-1.165-0.083906-1.6504-0.25391-0.4821-0.166-0.888-0.40761-1.2207-0.72461-0.3327-0.316-0.58707-0.70346-0.76367-1.1602-0.1765-0.4599-0.26562-0.97995-0.26562-1.5605 0-0.4045 0.045119-0.79156 0.13672-1.1602 0.0917-0.3718 0.22524-0.71485 0.39844-1.0312 0.1731-0.3197 0.38306-0.60949 0.63086-0.86719 0.2512-0.261 0.53637-0.48136 0.85547-0.66406 0.3191-0.1859 0.67109-0.32788 1.0547-0.42578 0.3836-0.1011 0.79452-0.15234 1.2324-0.15234zm-0.11328 2.7539c-0.2003 0-0.36861 0.041447-0.50781 0.12305-0.1392 0.0815-0.2535 0.18857-0.3418 0.32227-0.0849 0.1338-0.1468 0.28804-0.1875 0.46094-0.0373 0.1696-0.056641 0.34148-0.056641 0.51758 0 0.3654 0.064359 0.62987 0.19336 0.79297 0.129 0.1598 0.29977 0.24023 0.51367 0.24023 0.1426 0 0.26529-0.03175 0.36719-0.09375 0.1052-0.0653 0.18941-0.15338 0.25391-0.26758 0.0679-0.1174 0.1204-0.25622 0.1543-0.41602 0.0373-0.1631 0.060112-0.34397 0.070312-0.54297l0.060547-1.082c-0.0679-0.0163-0.14668-0.029263-0.23828-0.039063-0.0917-0.0098-0.18615-0.015625-0.28125-0.015625z" fill="#f1f6f8" fill-opacity=".85098"/>
</svg>
