<svg width="16" height="16" version="1.1" viewBox="0 0 16 16" xmlns="http://www.w3.org/2000/svg">
<defs>
<style id="current-color-scheme" type="text/css">.ColorScheme-Text { color:#5c616c; } .ColorScheme-Highlight { color:#5294e2; }</style>
</defs>
<path class="ColorScheme-Text" d="m2 2.0039c-1.108 0-2 0.892-2 2v8c0 1.108 0.892 2 2 2h12c1.108 0 2-0.892 2-2v-8c0-1.108-0.892-2-2-2h-12zm10.525 1.9062c0.38 0.0343 0.6582 0.30859 0.6582 0.30859s0.72 0.72636 0 1.4141v0.0019531l-6.3633 6.3652-3.5371-3.5371c-0.3776-0.359-0.3776-1.0571 0-1.416 0.3776-0.359 1.0365-0.359 1.4141 0l2.1211 2.123 4.9492-4.9512c0.264-0.2642 0.52981-0.32929 0.75781-0.30859z" fill="#dedede" fill-opacity=".85098"/>
</svg>
