<svg width="16" height="16" version="1.1" viewBox="0 0 16 16" xmlns="http://www.w3.org/2000/svg">
<defs>
<style id="current-color-scheme" type="text/css">.ColorScheme-Text { color:#5c616c; } .ColorScheme-Highlight { color:#5294e2; }</style>
</defs>
<path class="ColorScheme-Text" d="m8 1.0039c-2.7614 0-5 2.2386-5 5 0 0.17259 0.01425 0.33191 0.03125 0.5 0.0137 0.16725 0.0358 0.33617 0.0625 0.5 0.57248 3.5144 2.9062 6.002 4.9062 8.002 2-2 4.3338-4.4875 4.9062-8.002 0.0267-0.16383 0.0488-0.33275 0.0625-0.5 0.0171-0.16809 0.03125-0.32741 0.03125-0.5 0-2.7614-2.2386-5-5-5zm0 3c1.1046 0 2 0.89543 2 2 0 1.1046-0.89543 2-2 2s-2-0.89543-2-2c0-1.1046 0.89543-2 2-2z" fill="#dedede" fill-opacity=".85098"/>
</svg>
