<svg width="16" height="16" viewBox="3 2 11 12" xmlns="http://www.w3.org/2000/svg">
<defs>
<style id="current-color-scheme" type="text/css">.ColorScheme-Text {
        color:#dedede;
      }
      .ColorScheme-Highlight {
        color:#3daee9;
      }</style>
</defs>
<path class="ColorScheme-Text" d="m4 2a1 1 0 0 0-1 1 1 1 0 0 0 1 1 1 1 0 0 0 1-1 1 1 0 0 0-1-1zm2 0v1h8v-1h-8zm0 2v1h6v-1h-6zm-2 4a1 1 0 0 0-1 1 1 1 0 0 0 1 1 1 1 0 0 0 1-1 1 1 0 0 0-1-1zm2 0v1h4v-1h-4zm0 2v1h3v-1h-3zm6 3v1h2v-1h-2z" fill="currentColor"/>
<path class="ColorScheme-Highlight" d="m14 12v-5l-3 2.5z" fill="currentColor"/>
</svg>
