<svg width="16" height="16" version="1.1" viewBox="0 0 16 16" xmlns="http://www.w3.org/2000/svg">
<defs>
<style id="current-color-scheme" type="text/css">.ColorScheme-Text { color:#5c616c; } .ColorScheme-Highlight { color:#5294e2; }</style>
</defs>
<path class="ColorScheme-Text" d="m5 2v2h-2.0684c-1.0697 0-1.9316 0.93907-1.9316 2.1055v5.7891c0 1.166 0.86194 2.1055 1.9316 2.1055h10.137c1.07 0 1.9316-0.93947 1.9316-2.1055v-5.7891c0-1.1664-0.86164-2.1055-1.9316-2.1055h-2.0684v2h1.998c-2e-3 9e-3 0.001953 0.026269 0.001953 0.10547v5.7891c0 0.079-0.003953 0.096469-0.001953 0.10547h-9.9941c0.0010001-9e-3 -0.0039062-0.026469-0.0039062-0.10547v-5.7891c0-0.0792 0.0049062-0.096569 0.0039062-0.10547h1.9961v2l4-3-4-3zm5 5v4h1v-4h-1z" fill="#f1f6f8" fill-opacity=".85098"/>
</svg>
