<svg width="16" height="16" version="1.1" viewBox="0 0 16 16" xmlns="http://www.w3.org/2000/svg">
<defs>
<style id="current-color-scheme" type="text/css">.ColorScheme-Text { color:#5c616c; } .ColorScheme-Highlight { color:#5294e2; }</style>
</defs>
<path class="ColorScheme-Text" d="m0 0v5l1.5-1.5 2 2-1.5 1.5h5v-5l-1.5 1.5-2-2 1.5-1.5h-5zm11 0 1.5 1.5-2 2-1.5-1.5v5h5l-1.5-1.5 2-2 1.5 1.5v-5h-5zm-9 9 1.5 1.5-2 2-1.5-1.5v5h5l-1.5-1.5 2-2 1.5 1.5v-5h-5zm7 0v5l1.5-1.5 2 2-1.5 1.5h5v-5l-1.5 1.5-2-2 1.5-1.5h-5z" fill="#dedede" fill-opacity=".85098"/>
</svg>
