<svg width="16" height="16" version="1.1" viewBox="0 0 16 16" xmlns="http://www.w3.org/2000/svg">
<defs>
<style id="current-color-scheme" type="text/css">.ColorScheme-Text { color:#5c616c; } .ColorScheme-Highlight { color:#5294e2; }</style>
</defs>
<path class="ColorScheme-Text" d="m15.496 0.99609a0.50005 0.50005 0 0 0-0.48828 0.46094c-0.39086 4.1341-2.2364 6.8008-5.1035 8.9512l-2.3262-2.3262c-0.12184-0.62281-0.27381-1.2625-0.5-1.9219-0.45294-1.3204-1.139-2.6037-2.2051-3.5684-1.0661-0.96465-2.5172-1.5879-4.373-1.5879a0.50005 0.50005 0 1 0 0 1c1.638 0 2.8051 0.51923 3.7012 1.3301 0.89607 0.81083 1.5153 1.9368 1.9316 3.1504 0.26588 0.77507 0.42687 1.5656 0.55078 2.3359l-2.6836 2.6836 3.5 3.5 3.5-3.5-0.35156-0.35156c2.969-2.2988 4.9444-5.2536 5.3555-9.6016a0.50005 0.50005 0 0 0-0.50781-0.55469z" fill="#dedede" fill-opacity=".85098"/>
</svg>
