<svg width="16" height="16" version="1.1" viewBox="0 0 16 16" xmlns="http://www.w3.org/2000/svg">
<defs>
<style id="current-color-scheme" type="text/css">.ColorScheme-Text { color:#5c616c; } .ColorScheme-Highlight { color:#5294e2; }</style>
</defs>
<path class="ColorScheme-Text" d="m12.037 1.207c-0.094827 7.665e-4 -0.15625 0.011719-0.15625 0.011719l-9.8437 1.75c-0.98481 0.17365-0.8125 1.1562-0.8125 1.1562l0.5 2.875h12.187l-0.875-4.9688c-0.13024-0.73861-0.71552-0.82652-1-0.82422zm-11.037 6.793v1h1v-1h-1zm2 0v1h1v-1h-1zm2 0v1h1v-1h-1zm2 0v1h1v-1h-1zm2 0v1h1v-1h-1zm2 0v1h1v-1h-1zm2 0v1h1v-1h-1zm2 0v1h1v-1h-1zm-12.75 2 0.71875 3.9688c0.17365 0.98481 1.1562 0.8125 1.1562 0.8125l9.8438-1.75s0.98615-0.17149 0.8125-1.1562l-0.33984-1.875h-12.189-0.0019531z" fill="#f1f6f8" fill-opacity=".85098"/>
</svg>
