<svg width="16" height="16" version="1.1" viewBox="0 0 16 16" xmlns="http://www.w3.org/2000/svg">
<defs>
<style id="current-color-scheme" type="text/css">.ColorScheme-Text { color:#5c616c; } .ColorScheme-Highlight { color:#5294e2; }</style>
</defs>
<path class="ColorScheme-Text" d="m4.9043-0.03125v0.097656c-1.352-0.14162-2.4686 0.1833-3.2754 0.82031-0.81567 0.6441-1.3051 1.5773-1.5098 2.5703-0.29378 1.4258-0.021804 3.0096 0.78516 4.2168v3.2949h4v-1.1621c0.6603 0.088 1.3431 0.14053 2.043 0.1582-4e-3 0.21521-0.017278 0.44435-0.017578 0.6543-2e-3 1.3957 0.077098 2.6561 0.55469 3.6113 0.89515 1.7903 2.7005 2.0861 4.4199 1.5781v0.16016h4v-3.7734c0.18457-0.71537 0.10335-1.4544-0.35547-2.1426-0.48313-0.72469-1.3947-0.92146-2.4414-1.0176-1.0466-0.09609-2.2983-0.055664-3.6016-0.027344-0.51656 0.01122-1.0112-0.034169-1.5312-0.037109 0.032-0.89938 0.065566-1.7833 0.072266-2.6934 6e-3 -0.801-0.020802-1.5774-0.10742-2.3086h0.96484v-4h-4zm-0.87891 1.0664c0.25019-0.01421 0.52019-0.0070993 0.81055 0.025391 0.026 0.0029 0.042959 0.014078 0.068359 0.017578v2.8906h2.0215c0.0908 0.69764 0.12712 1.4759 0.12109 2.3008-6e-3 0.87694-0.040266 1.7767-0.072266 2.6777-0.72619-0.0272-1.4213-0.082601-2.0703-0.17578v-1.8027h-3.2441c-0.56892-0.9567-0.79012-2.2059-0.5625-3.3105 0.16607-0.80593 0.55044-1.5126 1.1504-1.9863 0.44995-0.35528 1.0268-0.5941 1.7773-0.63672zm7.3809 8.9395c0.59016-9.66e-4 1.1359 0.013181 1.6094 0.056641 0.94689 0.08693 1.5367 0.32952 1.7012 0.57617 0.27437 0.41156 0.29848 0.88288 0.16016 1.3613h-2.9727v2.8027c-1.3652 0.52037-2.8211 0.42033-3.5254-0.98828-0.32863-0.65726-0.45087-1.8167-0.44922-3.1621 2.4e-4 -0.19843 0.013478-0.43492 0.017578-0.64063 0.53213-0.0029001 1.0617 0.03665 1.5801 0.02539 0.65418-0.01421 1.2887-0.03028 1.8789-0.03125z" fill="#f1f6f8" fill-opacity=".85098"/>
</svg>
