<svg width="16" height="16" viewBox="2 2 12 12" xmlns="http://www.w3.org/2000/svg">
<defs>
<style id="current-color-scheme" type="text/css">.ColorScheme-Text {
        color:#dedede;
      }
      .ColorScheme-Highlight {
        color:#3daee9;
      }</style>
</defs>
<path class="ColorScheme-Text" d="m2 2v12h12v-12h-12z" fill="currentColor"/>
<path d="m4 2-2 2 2 2 2-2-2-2zm2 2 2 2 2-2-2-2-2 2zm4 0 2 2 2-2-2-2-2 2zm2 2-2 2 2 2 2-2-2-2zm0 4-2 2 2 2 2-2-2-2zm-2 2-2-2-2 2 2 2 2-2zm-4 0-2-2-2 2 2 2 2-2zm-2-2 2-2-2-2-2 2 2 2zm2-2 2 2 2-2-2-2-2 2z" fill="#fff"/>
</svg>
