<svg width="16" height="16" version="1.1" viewBox="0 0 16 16" xmlns="http://www.w3.org/2000/svg">
<defs>
<style id="current-color-scheme" type="text/css">.ColorScheme-Text { color:#5c616c; } .ColorScheme-Highlight { color:#5294e2; }</style>
</defs>
<path class="ColorScheme-Text" d="m12 0.0039062c-1.6568 0-3 1.3432-3 3 0 0.23127 0.04425 0.44001 0.09375 0.65625l-3.2188 2c-0.51341-0.41127-1.1659-0.65625-1.875-0.65625-1.6568 0-3 1.3432-3 3s1.3432 3 3 3c0.70904 0 1.3615-0.24498 1.875-0.65625l3.2188 2c-0.0495 0.21624-0.09375 0.42498-0.09375 0.65625 0 1.6568 1.3432 3 3 3s3-1.3432 3-3-1.3432-3-3-3c-0.70904 0-1.3615 0.24498-1.875 0.65625l-3.2188-2c0.0495-0.21624 0.09375-0.42498 0.09375-0.65625s-0.04425-0.44001-0.09375-0.65625l3.2188-2c0.51341 0.41127 1.1659 0.65625 1.875 0.65625 1.6568 0 3-1.3432 3-3s-1.3432-3-3-3z" fill="#f1f6f8" fill-opacity=".85098"/>
</svg>
