<svg width="16" height="16" version="1.1" viewBox="0 0 16 16" xmlns="http://www.w3.org/2000/svg">
<defs>
<style id="current-color-scheme" type="text/css">.ColorScheme-Text { color:#5c616c; } .ColorScheme-Highlight { color:#5294e2; }</style>
</defs>
<path class="ColorScheme-Text" d="m8 4a4 4 0 0 0-4 4 4 4 0 0 0 4 4 4 4 0 0 0 4-4 4 4 0 0 0-4-4zm-4 1c-1.6569 0-3 1.3431-3 3s1.3431 3 3 3l0.027344-0.001953c-0.6358-0.839-1.0273-1.8707-1.0273-2.998 0-1.1283 0.3924-2.1589 1.0293-2.998l-0.029297-0.0019531zm8 0c-0.01042 5.967e-4 -0.02084 0.0012531-0.03125 0.0019531 0.637 0.8392 1.0312 1.8696 1.0312 2.998 0 1.1274-0.39331 2.1592-1.0293 2.998l0.029297 0.001953c1.6569 0 3-1.3431 3-3s-1.3431-3-3-3z" fill="#dedede" fill-opacity=".85098"/>
</svg>
