<svg width="16" height="16" version="1.1" viewBox="1 1 14 14" xmlns="http://www.w3.org/2000/svg">
<defs>
<style id="current-color-scheme" type="text/css">.ColorScheme-Text { color:#5c616c; } .ColorScheme-Highlight { color:#5294e2; }</style>
</defs>
<path class="ColorScheme-Text" d="m6.2344 1-0.15625 1.8438a5.5495 5.5 0 0 0-1.6211 0.92969l-1.6914-0.78906-1.7656 3.0312 1.5352 1.0566a5.5495 5.5 0 0 0-0.083984 0.92773 5.5495 5.5 0 0 0 0.080078 0.93164l-1.5312 1.0527 1.7656 3.0312 1.6875-0.78711a5.5495 5.5 0 0 0 1.625 0.92383l0.15625 1.8477h3.5312l0.15625-1.8438a5.5495 5.5 0 0 0 1.6211-0.92969l1.6914 0.78906 1.7656-3.0312-1.5352-1.0566a5.5495 5.5 0 0 0 0.083984-0.92773 5.5495 5.5 0 0 0-0.080078-0.93164l1.5312-1.0527-1.7656-3.0312-1.6875 0.78711a5.5495 5.5 0 0 0-1.625-0.92383l-0.15625-1.8477h-3.5312zm2.7656 4-0.69922 2.0996 2.6992 0.90039-4 3 0.69922-2.0996-2.6992-0.90039 4-3z" fill="currentColor" fill-opacity=".85098"/>
</svg>
