<svg width="16" height="16" version="1.1" viewBox="0 0 16 16" xmlns="http://www.w3.org/2000/svg">
<defs>
<style id="current-color-scheme" type="text/css">.ColorScheme-Text { color:#5c616c; } .ColorScheme-Highlight { color:#5294e2; }</style>
</defs>
<path class="ColorScheme-Text" d="m8 0c-0.48646 1.7025-1.6626 3.172-2.1875 4.3438-0.1837 0.3484-0.3125 0.7336-0.3125 1.1562 0 1.385 1.115 2.5 2.5 2.5s2.5-1.115 2.5-2.5c0-0.4227-0.0975-0.8079-0.28125-1.1562-0.52491-1.1718-1.7322-2.6412-2.2188-4.3438zm-4.5 8c-0.48646 1.7025-1.6626 3.172-2.1875 4.3438-0.1837 0.3484-0.3125 0.7336-0.3125 1.1562 0 1.385 1.115 2.5 2.5 2.5s2.5-1.115 2.5-2.5c0-0.4227-0.0975-0.8079-0.28125-1.1562-0.52491-1.1718-1.7322-2.6412-2.2188-4.3438zm9 0c-0.48646 1.7025-1.6626 3.172-2.1875 4.3438-0.1837 0.3484-0.3125 0.7336-0.3125 1.1562 0 1.385 1.115 2.5 2.5 2.5s2.5-1.115 2.5-2.5c0-0.4227-0.0975-0.8079-0.28125-1.1562-0.52491-1.1718-1.7322-2.6412-2.2188-4.3438z" fill="#f1f6f8" fill-opacity=".85098"/>
</svg>
