<svg width="16" height="16" version="1.1" viewBox="0 0 16 16" xmlns="http://www.w3.org/2000/svg">
<defs>
<style id="current-color-scheme" type="text/css">.ColorScheme-Text { color:#5c616c; } .ColorScheme-Highlight { color:#5294e2; }</style>
</defs>
<path class="ColorScheme-Text" d="m6 2c-1.6569 0-3 1.3432-3 3s1.3431 3 3 3 3-1.3432 3-3-1.3431-3-3-3zm5 1.9512c-0.38828 0-0.75329 0.089302-1.084 0.23828 0.0546 0.262 0.083984 0.53305 0.083984 0.81055 0 1.1021-0.45419 2.1042-1.1836 2.8301 0.4603 0.7037 1.2626 1.1738 2.1836 1.1738 1.4327 0 2.5938-1.1303 2.5938-2.5254s-1.161-2.5273-2.5938-2.5273zm-5 6.0488c-6.0002 0.0034-6 4.0039-6 4.0039v1c0.88052 0.0026 13.517-0.002006 10-0.003906-0.55226-5.5e-5 -0.99994-0.44774-1-1v-2c5.52e-5 -0.55226 0.44774-0.99994 1-1h0.1543c-0.8883-0.573-2.1992-1.001-4.1543-1zm6 0v2h-2v2h2v2h2v-2h2v-2h-2v-2h-2z" fill="currentColor" fill-opacity=".85098"/>
</svg>
