<svg width="16" height="16" version="1.1" viewBox="0 0 16 16" xmlns="http://www.w3.org/2000/svg">
<defs>
<style id="current-color-scheme" type="text/css">.ColorScheme-Text { color:#5c616c; } .ColorScheme-Highlight { color:#5294e2; }</style>
</defs>
<path class="ColorScheme-Text" d="m7 1v1.0859a6 6 0 0 0-2.4707 1.0293l-0.77148-0.77148-1.4141 1.4141 0.76953 0.76953a6 6 0 0 0-1.0234 2.4727h-1.0898v2h1.0859a6 6 0 0 0 1.0293 2.4707l-0.77148 0.77148 1.4141 1.4141 0.76953-0.76953a6 6 0 0 0 2.4727 1.0234v1.0898h2v-1.0859a6 6 0 0 0 2.4707-1.0293l0.77148 0.77148 1.4141-1.4141-0.76953-0.76953a6 6 0 0 0 1.0234-2.4727h1.0898v-2h-1.0859a6 6 0 0 0-1.0293-2.4707l0.77148-0.77148-1.4141-1.4141-0.76953 0.76953a6 6 0 0 0-2.4727-1.0234v-1.0898h-2zm-0.41406 4.1719 1.4141 1.4141 1.4141-1.4141 1.4141 1.4141-1.4141 1.4141 1.4141 1.4141-1.4141 1.4141-1.4141-1.4141-1.4141 1.4141-1.4141-1.4141 1.4141-1.4141-1.4141-1.4141 1.4141-1.4141z" fill="#f1f6f8" fill-opacity=".85098"/>
</svg>
