<svg width="16" height="16" version="1.1" viewBox="1 1 14 14" xmlns="http://www.w3.org/2000/svg">
<defs>
<style id="current-color-scheme" type="text/css">.ColorScheme-Text { color:#5c616c; } .ColorScheme-Highlight { color:#5294e2; }</style>
</defs>
<path class="ColorScheme-Text" d="m7 1v1.0859c-0.8906 0.1527-1.7351 0.5046-2.4707 1.0293l-0.77148-0.77148-1.4141 1.4141 0.76953 0.76953c-0.523 0.7367-0.87274 1.5819-1.0234 2.4727h-1.0898v2h1.0859c0.1527 0.8906 0.5046 1.7347 1.0293 2.4707l-0.77148 0.77148 1.4141 1.4141 0.76953-0.76953c0.7367 0.523 1.5819 0.87344 2.4727 1.0234v1.0898h2v-1.0859c0.8906-0.153 1.7347-0.5043 2.4707-1.0293l0.77148 0.77148 1.4141-1.4141-0.76953-0.76953c0.523-0.737 0.87344-1.5819 1.0234-2.4727h1.0898v-2h-1.0859c-0.153-0.8906-0.5043-1.7351-1.0293-2.4707l0.77148-0.77148-1.4141-1.4141-0.76953 0.76953c-0.737-0.523-1.5819-0.87274-2.4727-1.0234v-1.0898h-2zm0 5h4v4h-4l-2-2 2-2z" fill="currentColor" fill-opacity=".85098"/>
</svg>
