<svg width="16" height="16" version="1.1" viewBox="0 0 16 16" xmlns="http://www.w3.org/2000/svg">
<defs>
<style id="current-color-scheme" type="text/css">.ColorScheme-Text { color:#5c616c; } .ColorScheme-Highlight { color:#5294e2; }</style>
</defs>
<g class="ColorScheme-Text" fill="currentColor" fill-opacity=".85098">
<path d="m11.453 5.4141c0.78906 0.050782 1.1445 1.0078 0.58594 1.5664l-3.9883 4.1211c-0.35938 0.35938-0.94141 0.35938-1.3008 0l-2.3828-2.3008c-0.86719-0.86719 0.43359-2.168 1.3008-1.3008l1.7305 1.6523 3.3398-3.4727c0.1875-0.19141 0.44922-0.28516 0.71484-0.26563z"/>
<path d="m7.9961 0c-4.4023 0-7.9961 3.5938-7.9961 8s3.5938 8 7.9961 8c4.4062 0 7.9961-3.5938 7.9961-8s-3.5898-8-7.9961-8zm0 2c3.3242 0 5.9961 2.6758 5.9961 6s-2.6719 6-5.9961 6c-3.3242 0-5.9961-2.6758-5.9961-6s2.6719-6 5.9961-6z"/>
</g>
</svg>
