<svg width="16" height="16" version="1.1" viewBox="3 2 9 13" xmlns="http://www.w3.org/2000/svg">
<defs>
<style id="current-color-scheme" type="text/css">.ColorScheme-Text {
        color:#bebebe;
      }</style>
</defs>
<path class="ColorScheme-Text" d="m3 2v1h1v-1h-1zm2 0v1h1v-1h-1zm2 0v1h1v-1h-1zm2 0v1h1v-1h-1zm2 0v1h1v-1h-1zm-8 2v1h1v-1h-1zm8 0v1h1v-1h-1zm-8 2v1h1v-1h-1zm8 0v1h1v-1h-1zm-8 2v1h1v-1h-1zm8 0v1h1v-1h-1zm-8 2v1h1v-1h-1zm8 0v1h1v-1h-1zm-8 2v1h1v-1h-1zm8 0v1h1v-1h-1zm-8 2v1h1v-1h-1zm2 0v1h1v-1h-1zm2 0v1h1v-1h-1zm2 0v1h1v-1h-1zm2 0v1h1v-1h-1z" fill="currentColor"/>
</svg>
