<svg width="16" height="16" version="1.1" viewBox="0 0 16 16" xmlns="http://www.w3.org/2000/svg">
<defs>
<style id="current-color-scheme" type="text/css">.ColorScheme-Text { color:#5c616c; } .ColorScheme-Highlight { color:#5294e2; }</style>
</defs>
<path class="ColorScheme-Text" d="m1.0059 1.4941 0.013672 0.0058594a0.50005 0.50005 0 0 0-0.082031 0.99609s3.6861 0.51514 6.2988 2.1777c1.3064 0.83131 2.3077 1.9094 2.5566 3.3203 0.24898 1.4109-0.23237 3.2612-2.1797 5.6953a0.50005 0.50005 0 0 0 0.38086 0.81055c3.619 0 5.5704-1.3346 6.5352-2.7129 0.96-1.38 0.95898-2.791 0.95898-2.791a0.50005 0.50005 0 1 0-1 0s4.4e-5 1.0912-0.78516 2.2129c-0.68535 0.97907-2.1808 1.862-4.7402 2.1035 1.4315-2.1056 2.0683-3.9712 1.7988-5.498-0.31352-1.7766-1.5603-3.0716-3.0039-3.9902-2.8873-1.8374-6.7031-2.3242-6.7031-2.3242a0.50005 0.50005 0 0 0-0.048828-0.0058594z" fill="#dedede" fill-opacity=".85098"/>
</svg>
