<svg width="16" height="16" version="1.1" viewBox="0 0 16 16" xmlns="http://www.w3.org/2000/svg">
<defs>
<style id="current-color-scheme" type="text/css">.ColorScheme-Text { color:#5c616c; } .ColorScheme-Highlight { color:#5294e2; }</style>
</defs>
<path class="ColorScheme-Text" d="m14 1.5v2h1v-2h-1zm0 3v2h1v-2h-1zm-7 1.5v1h-1v2h1v1h2v-1h1v-2h-1v-1h-2zm7 1.5v2h1v-2h-1zm0 3v2h1v-2h-1zm0 3v0.5h-0.5v1h1.5v-1.5h-1zm-12.5 0.5v1h2v-1h-2zm3 0v1h2v-1h-2zm3 0v1h2v-1h-2zm3 0v1h2v-1h-2z" fill="#f1f6f8" fill-opacity=".85098"/>
</svg>
