<svg width="16" height="16" version="1.1" viewBox="0 0 16 16" xmlns="http://www.w3.org/2000/svg">
<defs>
<style id="current-color-scheme" type="text/css">.ColorScheme-Text { color:#5c616c; } .ColorScheme-Highlight { color:#5294e2; }</style>
</defs>
<path class="ColorScheme-Text" d="m1.0195 1.5a0.50005 0.50005 0 0 0-0.050781 0.0019531 0.50005 0.50005 0 0 0-0.033203 0.99609s2.6625 0.37685 5.0664 1.5098v1.9941h2.8066c0.49604 0.57783 0.84911 1.2367 0.98242 1.9922 0.24898 1.4109-0.23237 3.2612-2.1797 5.6953a0.50005 0.50005 0 0 0 0.39062 0.8125c3.619 0 5.5704-1.3346 6.5352-2.7129s0.96484-2.7871 0.96484-2.7871a0.50005 0.50005 0 1 0-1 0s4.4e-5 1.0912-0.78516 2.2129c-0.68535 0.97907-2.1808 1.862-4.7402 2.1035 1.4315-2.1056 2.0683-3.9692 1.7988-5.4961-0.2186-1.2387-0.89653-2.2402-1.7734-3.0469v-1.7734h-2.7988c-2.533-1.1514-5.1348-1.4961-5.1348-1.4961a0.50005 0.50005 0 0 0-0.048828-0.0058594z" fill="currentColor" fill-opacity=".85098"/>
</svg>
