<svg width="16" height="16" version="1.1" viewBox="0 0 16 16" xmlns="http://www.w3.org/2000/svg">
<defs>
<style id="current-color-scheme" type="text/css">.ColorScheme-Text { color:#5c616c; } .ColorScheme-Highlight { color:#5294e2; }</style>
</defs>
<path class="ColorScheme-Text" d="m12.613 0.20508a0.50005 0.50005 0 0 0-0.4707 0.57422l0.2832 2.0859-1.0371 1.0371-0.30273-2.2305a0.50005 0.50005 0 0 0-0.52148-0.43945 0.50005 0.50005 0 0 0-0.46875 0.57422l0.4043 2.9844-1.709 1.709h-2.291v1.4062l-1.2305 0.35156-0.25977-1.9219a0.50005 0.50005 0 0 0-0.52148-0.43945 0.50005 0.50005 0 0 0-0.4707 0.57227l0.28125 2.0664-1.6875 0.48242-0.24023-1.7656a0.50005 0.50005 0 0 0-0.52148-0.43945 0.50005 0.50005 0 0 0-0.4707 0.57422l0.25977 1.9102-0.77539 0.2207a0.50005 0.50005 0 1 0 0.27344 0.96094l0.63672-0.18164 0.38672 2.834-1.5137 1.5137a0.50005 0.50005 0 1 0 0.70703 0.70703l0.97461-0.97461 0.097656 0.71289a0.50005 0.50005 0 1 0 0.99023-0.13281l-0.19922-1.4688 1.5449-1.5449 0.30273 2.2305a0.50005 0.50005 0 1 0 0.99023-0.13477l-0.4043-2.9844 1.5547-1.5547h2.2949v-1.4102l1.3945-0.39844 0.24609 1.8184a0.50052 0.50052 0 0 0 0.99219-0.13281l-0.26758-1.9629 1.1348-0.32422 0.18945 1.3945a0.50006 0.50006 0 1 0 0.99024-0.13477l-0.20898-1.5371 1.166-0.33398a0.50005 0.50005 0 0 0-0.14062-0.98242 0.50005 0.50005 0 0 0-0.13281 0.021484l-1.0273 0.29297-0.35156-2.5898 1.8691-1.8691a0.50005 0.50005 0 0 0-0.36328-0.85742 0.50005 0.50005 0 0 0-0.34375 0.15039l-1.332 1.332-0.17969-1.332a0.50005 0.50005 0 0 0-0.52148-0.43945zm-0.017578 3.9043 0.26758 1.9805-1.1328 0.32227-0.17188-1.2656 1.0371-1.0371zm-1.9258 1.9258 0.08789 0.65625-1.041 0.29688 0.95313-0.95312zm-4.3867 2.9727-0.80273 0.80273-0.074219-0.55273 0.87695-0.25zm-1.8496 0.5293 0.1582 1.1621-1.543 1.543-0.30273-2.2246 1.6875-0.48047z" fill="#dedede" fill-opacity=".85098"/>
</svg>
