<svg version="1.1" viewBox="0 0 16 16" xmlns="http://www.w3.org/2000/svg">
<defs>
<style id="current-color-scheme" type="text/css">.ColorScheme-Text {
        color:#bebebe;
      }</style>
</defs>
<path d="m8.0004 3.25c-0.18145 0-0.34883 0.04445-0.50205 0.13388-0.15324 0.089413-0.27502 0.21121-0.36445 0.36445-0.089445 0.15324-0.13388 0.32061-0.13388 0.50205 0 0.18145 0.044466 0.34879 0.13388 0.50205 0.089429 0.1532 0.21121 0.27428 0.36445 0.3637 0.15324 0.089429 0.3206 0.13388 0.50205 0.13388s0.34883-0.04445 0.50205-0.13388c0.15322-0.089413 0.27428-0.21048 0.3637-0.3637 0.089413-0.15324 0.13388-0.32061 0.13388-0.50205 0-0.18145-0.04448-0.34883-0.13388-0.50205-0.089428-0.15322-0.21048-0.27502-0.3637-0.36445-0.15325-0.089429-0.32058-0.13388-0.50205-0.13388z" color="#bebebe" fill="#363636"/>
<path d="m4.2496 3.25c-0.18145 1.2e-6 -0.34808 0.045178-0.5013 0.13457-0.15324 0.08938-0.27502 0.21039-0.36445 0.36357-0.089445 0.15318-0.13388 0.3205-0.13388 0.50186 0 0.18138 0.044466 0.34866 0.13388 0.50186 0.089429 0.15315 0.21047 0.27417 0.3637 0.36357 0.15324 0.089395 0.3206 0.13457 0.50205 0.13457s0.34883-0.045178 0.50205-0.13457c0.15322-0.08938 0.27502-0.21041 0.36445-0.36357 0.089413-0.15318 0.13388-0.3205 0.13388-0.50186 0-0.18138-0.044482-0.3487-0.13388-0.50186-0.089429-0.15316-0.21123-0.27417-0.36445-0.36357-0.15325-0.089395-0.32058-0.13457-0.50205-0.13457z" color="#bebebe" fill="#363636"/>
<path d="m11.75 3.25c-0.18145 0-0.34883 0.044454-0.50205 0.13388-0.15324 0.089413-0.27502 0.21121-0.36445 0.36445-0.089444 0.15324-0.13388 0.32061-0.13388 0.50205 0 0.18145 0.04446 0.34879 0.13388 0.50205 0.08943 0.1532 0.21121 0.27428 0.36445 0.3637 0.15324 0.089429 0.3206 0.13388 0.50205 0.13388s0.34883-0.044454 0.50205-0.13388c0.15322-0.089413 0.27428-0.21048 0.3637-0.3637 0.089412-0.15324 0.13388-0.32061 0.13388-0.50205 0-0.18145-0.04448-0.34883-0.13388-0.50205-0.089429-0.15322-0.21048-0.27502-0.3637-0.36445-0.15325-0.089429-0.32058-0.13388-0.50205-0.13388z" color="#bebebe" fill="#363636"/>
<path d="m4.2496 10.75c-0.18145 0-0.34883 0.04446-0.50205 0.13388-0.15324 0.089412-0.27428 0.21047-0.3637 0.3637-0.089445 0.15324-0.13388 0.32062-0.13388 0.50204 0 0.18145 0.044466 0.34879 0.13388 0.50205 0.089429 0.1532 0.21047 0.27502 0.3637 0.36445 0.15324 0.08943 0.3206 0.13388 0.50205 0.13388s0.34883-0.04446 0.50205-0.13388c0.15322-0.08941 0.27502-0.21123 0.36445-0.36445 0.089413-0.15324 0.13388-0.32062 0.13388-0.50204 0-0.18145-0.044482-0.34883-0.13388-0.50205-0.089429-0.15322-0.21123-0.27428-0.36445-0.3637-0.15325-0.089429-0.32058-0.13388-0.50205-0.13388z" color="#bebebe" fill="#363636"/>
<path d="m8.0004 10.75c-0.18145 0-0.34883 0.04445-0.50205 0.13388-0.15324 0.089412-0.27502 0.21121-0.36445 0.36445-0.089445 0.15324-0.13388 0.32061-0.13388 0.50204 0 0.18145 0.044466 0.34879 0.13388 0.50205 0.089429 0.1532 0.21121 0.27428 0.36445 0.3637 0.15324 0.089428 0.3206 0.13388 0.50205 0.13388s0.34883-0.044448 0.50205-0.13388c0.15322-0.089413 0.27428-0.21048 0.3637-0.3637 0.089413-0.15324 0.13388-0.32062 0.13388-0.50205 0-0.18145-0.04448-0.34883-0.13388-0.50204-0.089428-0.15322-0.21048-0.27502-0.3637-0.36445-0.15325-0.089429-0.32058-0.13388-0.50205-0.13388z" color="#bebebe" fill="#363636"/>
<path d="m11.75 10.75c-0.18145 0-0.34883 0.04446-0.50205 0.13388-0.15324 0.08941-0.27502 0.21121-0.36445 0.36445-0.08944 0.15324-0.13388 0.32062-0.13388 0.50204 0 0.18145 0.04446 0.34879 0.13388 0.50205 0.08943 0.1532 0.21121 0.27428 0.36445 0.3637 0.15324 0.08943 0.3206 0.13388 0.50205 0.13388s0.34883-0.04446 0.50205-0.13388c0.15322-0.08941 0.27428-0.21048 0.3637-0.3637 0.08941-0.15324 0.13388-0.32062 0.13388-0.50205 0-0.18145-0.04448-0.34883-0.13388-0.50204-0.08943-0.15322-0.21048-0.27502-0.3637-0.36445-0.15325-0.08943-0.32058-0.13388-0.50205-0.13388z" color="#bebebe" fill="#363636"/>
<path d="m4.2496 7c-0.18145 0-0.34883 0.044454-0.50205 0.13388-0.15324 0.089413-0.27428 0.21047-0.3637 0.3637-0.089445 0.15323-0.13388 0.32061-0.13388 0.50204 0 0.18145 0.044466 0.34879 0.13388 0.50205 0.089429 0.1532 0.21047 0.27502 0.3637 0.36445 0.15324 0.08943 0.3206 0.13388 0.50205 0.13388s0.34883-0.044456 0.50205-0.13388c0.15322-0.089413 0.27502-0.21123 0.36445-0.36445 0.089413-0.15324 0.13388-0.32062 0.13388-0.50204 0-0.18145-0.044482-0.34883-0.13388-0.50205-0.089429-0.15322-0.21123-0.27428-0.36445-0.3637-0.15325-0.089429-0.32058-0.13388-0.50205-0.13388z" color="#bebebe" fill="#363636"/>
<path d="m8.0004 7c-0.18145 0-0.34883 0.044454-0.50205 0.13388-0.15324 0.089413-0.27502 0.21121-0.36445 0.36445-0.089445 0.15324-0.13388 0.32061-0.13388 0.50204 0 0.18145 0.044466 0.34879 0.13388 0.50205 0.089429 0.1532 0.21121 0.27428 0.36445 0.3637 0.15324 0.089429 0.3206 0.13388 0.50205 0.13388s0.34883-0.044448 0.50205-0.13388c0.15322-0.089413 0.27428-0.21048 0.3637-0.3637 0.089413-0.15324 0.13388-0.32061 0.13388-0.50205 0-0.18145-0.04448-0.34883-0.13388-0.50204-0.089428-0.15322-0.21048-0.27502-0.3637-0.36445-0.15325-0.089429-0.32058-0.13388-0.50205-0.13388z" color="#bebebe" fill="#363636"/>
<path d="m11.75 7c-0.18145 0-0.34883 0.044454-0.50205 0.13388-0.15324 0.089413-0.27502 0.21121-0.36445 0.36445-0.089444 0.15324-0.13388 0.32061-0.13388 0.50204 0 0.18145 0.04446 0.34879 0.13388 0.50205 0.08943 0.1532 0.21121 0.27428 0.36445 0.3637 0.15324 0.089429 0.3206 0.13388 0.50205 0.13388s0.34883-0.044456 0.50205-0.13388c0.15322-0.089414 0.27428-0.21048 0.3637-0.3637 0.089412-0.15324 0.13388-0.32061 0.13388-0.50205 0-0.18145-0.04448-0.34883-0.13388-0.50204-0.089429-0.15322-0.21048-0.27502-0.3637-0.36445-0.15325-0.089429-0.32058-0.13388-0.50205-0.13388z" color="#bebebe" fill="#363636"/>
</svg>
