<svg width="16" height="16" enable-background="new" version="1.1" viewBox="2 2 12 12" xmlns="http://www.w3.org/2000/svg">
<defs>
<style id="current-color-scheme" type="text/css">.ColorScheme-Text {
        color:#bebebe;
      }</style>
</defs>
<g transform="translate(-465 -200.97)" fill-opacity=".85098">
<path class="ColorScheme-Text" d="m473 202.97a6 6 0 0 0-6 6 6 6 0 0 0 6 6 6 6 0 0 0 6-6 6 6 0 0 0-6-6zm0 2a4 4 0 0 1 4 4 4 4 0 0 1-0.13281 1h-7.7363a4 4 0 0 1-0.13086-1 4 4 0 0 1 4-4zm-2.6387 7h5.2773a4 4 0 0 1-2.6387 1 4 4 0 0 1-2.6387-1z" fill="currentColor" fill-opacity=".85098"/>
</g>
</svg>
