<svg width="16" height="16" viewBox="1.004 2 14 12" xmlns="http://www.w3.org/2000/svg">
<defs>
<style id="current-color-scheme" type="text/css">.ColorScheme-Text {
        color:#dedede;
      }</style>
</defs>
<path class="ColorScheme-Text" d="m9 4v6h1v-0.76953a3 3 0 0 0 2 0.76953 3 3 0 0 0 3-3 3 3 0 0 0-3-3 3 3 0 0 0-2 0.76758v-0.76758h-1zm3 1a2 2 0 0 1 2 2 2 2 0 0 1-2 2 2 2 0 0 1-2-2 2 2 0 0 1 2-2zm-7.9961 3a3 3 0 0 0-3 3 3 3 0 0 0 3 3 3 3 0 0 0 2-0.76758v0.76953h1v-6h-1v0.76953a3 3 0 0 0-2-0.76953v-0.0019531zm0 1.002a2 2 0 0 1 2 2 2 2 0 0 1-2 2 2 2 0 0 1-2-2 2 2 0 0 1 2-2z" fill="currentColor"/>
<path d="m7.5 2v12h1v-2h6.5v-1h-6.5v-9h-1z" fill="#1d99f3"/>
</svg>
