<svg width="16" height="16" version="1.1" viewBox="0 0 16 16" xmlns="http://www.w3.org/2000/svg">
<defs>
<style id="current-color-scheme" type="text/css">.ColorScheme-Text { color:#5c616c; } .ColorScheme-Highlight { color:#5294e2; }</style>
</defs>
<path class="ColorScheme-Text" d="m1 1v5h2.5c0.8284 0 1.5-0.6716 1.5-1.5 0-0.5333-0.2682-1.0154-0.6875-1.2812 0.1155-0.2126 0.1875-0.45985 0.1875-0.71875 0-0.8284-0.6716-1.5-1.5-1.5h-2zm10 0v5h2.5c0.828 0 1.5-0.6716 1.5-1.5v-2c0-0.8284-0.672-1.5-1.5-1.5h-2.5zm-9 1h1c0.2761 0 0.5 0.2239 0.5 0.5s-0.2239 0.5-0.5 0.5h-1v-1zm10 0h1.5c0.276 0 0.5 0.2239 0.5 0.5v2c0 0.2761-0.224 0.5-0.5 0.5h-1.5v-3zm-6 1v1h3v-1h-3zm-4 1h1.5c0.2761 0 0.5 0.2239 0.5 0.5s-0.2239 0.5-0.5 0.5h-1.5v-1zm-1 4v2h4v-2h-4zm6 0v2h2v-2h-2zm4 0v2h4v-2h-4zm-5 4-4 1.5 4 1.5v-3zm4 0v3l4-1.5-4-1.5zm-2 1c-0.2761 0-0.5 0.224-0.5 0.5s0.2239 0.5 0.5 0.5 0.5-0.224 0.5-0.5-0.2239-0.5-0.5-0.5z" fill="#dedede" fill-opacity=".85098"/>
</svg>
