<svg width="16" height="16" version="1.1" viewBox="0 0 16 16" xmlns="http://www.w3.org/2000/svg">
<defs>
<style id="current-color-scheme" type="text/css">.ColorScheme-Text { color:#5c616c; } .ColorScheme-Highlight { color:#5294e2; }</style>
</defs>
<path class="ColorScheme-Text" d="m8 2v9.0234h3.002c0.93855 0 1.7688-0.37254 2.2988-0.95898s0.76574-1.3366 0.75586-2.0664c-0.01-0.72982-0.26222-1.4658-0.78906-2.043-0.53-0.577-1.3495-0.95508-2.2695-0.95508h-1.002v-3h-1.9961zm-5.9941 1-0.0078125 2 2.9219 0.011719h0.0019531c-0.0552 0 0.083984 0.15938 0.083984 0.082031v0.92383h-1.0039c-1.7159 0-3.0301 1.1255-3.0547 2.4844-0.0123 0.67945 0.30583 1.363 0.86133 1.8223 0.5555 0.45927 1.3154 0.69922 2.1934 0.69922h3.0039v-5.9297c0-1.1712-0.88713-2.082-2.084-2.082l-2.916-0.011719zm7.9941 4h1.002c0.42179 0 0.62551 0.12569 0.78711 0.30273 0.1616 0.17705 0.26384 0.44685 0.26758 0.72266 4e-3 0.27581-0.088595 0.52949-0.24024 0.69727-0.15162 0.16777-0.35569 0.30078-0.81445 0.30078h-1.002v-2.0234zm-5.998 1.0176h1.0039v1.0059h-1.0039c-0.51941 0-0.79379-0.13594-0.91992-0.24023-0.12614-0.10428-0.13607-0.17413-0.13477-0.24609 3e-3 -0.14393 0.084888-0.51953 1.0547-0.51953zm-1 3.2754-2.3535 2.3535a0.50005 0.50005 0 1 0 0.70703 0.70703l1.6465-1.6465 2 2 2-2 2 2 2-2 2 2 2.3535-2.3535a0.50005 0.50005 0 1 0-0.70703-0.70703l-1.6465 1.6465-2-2-2 2-2-2-2 2-2-2z" fill="currentColor" fill-opacity=".85098"/>
</svg>
