<svg width="16" height="16" version="1.1" viewBox="0 0 16 16" xmlns="http://www.w3.org/2000/svg">
<defs>
<style id="current-color-scheme" type="text/css">.ColorScheme-Text { color:#5c616c; } .ColorScheme-Highlight { color:#5294e2; }</style>
</defs>
<path class="ColorScheme-Text" d="m11 0v1.5547c-0.363 0.0213-0.72303 0.040525-1.1152 0.078125-1.2789 0.1227-2.6619 0.32897-3.8848 0.73047v-0.36328h-4v4h0.12695c-0.5694 1.3541-0.91991 2.9313-1.1621 4.3906-0.03542 0.213-0.055598 0.40238-0.085938 0.60938h-0.87891v4h1l0.5 0.011719v-0.011719h2.5v-4h-2.1113c0.0231-0.154 0.0365-0.29127 0.0625-0.44727 0.2605-1.5694 0.69799-3.2566 1.3047-4.5527h2.7441v-2.5508c1.1634-0.4239 2.6276-0.69257 3.9805-0.82227 0.3575-0.0344 0.68553-0.051966 1.0195-0.072266v1.4453h4v-4h-4zm-4 6 4.8008 9 3.1992-3.375-8-5.625z" fill="#f1f6f8" fill-opacity=".85098"/>
</svg>
