<svg width="16" height="16" version="1.1" viewBox="1.071 1.068 13.87 13.87" xmlns="http://www.w3.org/2000/svg">
<defs>
<style id="current-color-scheme" type="text/css">.ColorScheme-Text { color:#5c616c; } .ColorScheme-Highlight { color:#5294e2; }</style>
</defs>
<path class="ColorScheme-Text" d="m8.8105 1.0684a2 2 0 0 0-1.9609 1.6719 2 2 0 0 0 1.6445 2.3008 2 2 0 0 0 2.3008-1.6465 2 2 0 0 0-1.6445-2.3008 2 2 0 0 0-0.33984-0.025391zm-4.2246 1.3457a1 1 0 0 0-1 1 1 1 0 0 0 1 1 1 1 0 0 0 1-1 1 1 0 0 0-1-1zm8.3184 0.97266a1 1 0 0 0-1 1 1 1 0 0 0 1 1 1 1 0 0 0 1-1 1 1 0 0 0-1-1zm-9.8457 1.7949a2 2 0 0 0-1.9609 1.6719 2 2 0 0 0 1.6465 2.3008 2 2 0 0 0 2.3008-1.6445 2 2 0 0 0-1.6465-2.3008 2 2 0 0 0-0.33984-0.027344zm5.1855 1.4258a1 1 0 0 0-1 1 1 1 0 0 0 1 1 1 1 0 0 0 1-1 1 1 0 0 0-1-1zm4.6797 0.21094a2 2 0 0 0-1.9609 1.6719 2 2 0 0 0 1.6445 2.3008 2 2 0 0 0 2.3027-1.6445 2 2 0 0 0-1.6465-2.3008 2 2 0 0 0-0.33984-0.027344zm-9.9277 3.582a1 1 0 0 0-1 1 1 1 0 0 0 1 1 1 1 0 0 0 1-1 1 1 0 0 0-1-1zm4.1758 0.53125a2 2 0 0 0-1.959 1.6738 2 2 0 0 0 1.6445 2.3008 2 2 0 0 0 2.3008-1.6465 2 2 0 0 0-1.6445-2.3008 2 2 0 0 0-0.3418-0.027343zm4.5898 1.0684a1 1 0 0 0-1 1 1 1 0 0 0 1 1 1 1 0 0 0 1-1 1 1 0 0 0-1-1z" fill="currentColor" fill-opacity=".85098"/>
</svg>
