<svg width="16" height="16" version="1.1" viewBox=".9959 2.037 13 12.96" xmlns="http://www.w3.org/2000/svg">
<defs>
<style id="current-color-scheme" type="text/css">.ColorScheme-Text { color:#5c616c; } .ColorScheme-Highlight { color:#5294e2; }</style>
</defs>
<path class="ColorScheme-Text" d="m6.9492 2.043c-0.23122 0.04133-0.51686 0.2847-0.72461 0.64453l-5 8.6602c-0.277 0.47978-0.30628 0.97868-0.066406 1.1172l4.3301 2.5c0.23989 0.1385 0.65659-0.13741 0.93359-0.61719l5-8.6602c0.277-0.47978 0.30629-0.97676 0.066406-1.1152l-4.3301-2.5c-0.06-0.03462-0.1319-0.043067-0.20898-0.029297zm4.5469 6.9551c-0.10352 0.28441-0.24339 0.56328-0.39453 0.83594-0.77027 1.3501-1.9755 2.273-2.0918 3.125-3e-3 0.01273-0.011072 0.026383-0.013672 0.039063l0.011719 0.003906c-2e-3 0.02931-0.011719 0.058661-0.011719 0.087891 0 1.0543 1.1193 1.9082 2.5 1.9082s2.5-0.85387 2.5-1.9082c0-0.02923-0.006766-0.058591-0.009766-0.087891l0.009766-0.003906c-2e-3 -0.01264-0.010472-0.026333-0.013672-0.039063-0.11628-0.85206-1.3215-1.7769-2.0918-3.127-0.15114-0.27266-0.29102-0.54957-0.39453-0.83398z" fill="currentColor" fill-opacity=".85098"/>
</svg>
