<svg width="16" height="16" version="1.1" viewBox="0 0 16 16" xmlns="http://www.w3.org/2000/svg">
<defs>
<style id="current-color-scheme" type="text/css">.ColorScheme-Text { color:#5c616c; } .ColorScheme-Highlight { color:#5294e2; }</style>
</defs>
<path class="ColorScheme-Text" d="m5.0117 1c-0.9992 0-0.99805 0.93359-0.99805 0.93359-0.0015 0.0033999 0.0011 0.6606 0 0.74609a7 6.9998 0 0 1 2.9902-0.67969 7 6.9998 0 0 1 7 7 7 6.9998 0 0 1-3.3984 5.9941h4.3984s0.06325 0.014999 0.15625 0c0.281-0.043999 0.84375-0.23461 0.84375-0.93359v-12.125c0-0.93328-1-0.93555-1-0.93555h-9.9922zm1.9883 2c-3.2934 0-6 2.7066-6 6s2.7066 6 6 6 6-2.7066 6-6-2.7066-6-6-6zm0 4.2852c0.9417 0 1.7148 0.77313 1.7148 1.7148 0 0.94169-0.77313 1.7148-1.7148 1.7148-0.9417 0-1.7148-0.77314-1.7148-1.7148s0.77313-1.7148 1.7148-1.7148z" fill="currentColor" fill-opacity=".85098"/>
</svg>
