<svg width="16" height="16" version="1.1" viewBox="0 0 16 16" xmlns="http://www.w3.org/2000/svg">
<defs>
<style id="current-color-scheme" type="text/css">.ColorScheme-Text { color:#5c616c; } .ColorScheme-Highlight { color:#5294e2; }</style>
</defs>
<path class="ColorScheme-Text" d="m8 1c-3.866 0-7 3.134-7 7s3.134 7 7 7 7-3.134 7-7-3.134-7-7-7zm-3 4c0.5541 0 1 0.4494 1 1s-0.4459 1-1 1c-0.5542 0-1-0.4494-1-1s0.4458-1 1-1zm6 0c0.554 0 1 0.4494 1 1s-0.446 1-1 1-1-0.4494-1-1 0.446-1 1-1zm-3 5c1.5741 2e-3 3.056 0.743 4 2h-8c0.9445-1.257 2.4259-1.998 4-2z" fill="#dedede" fill-opacity=".85098"/>
</svg>
