<svg width="16" height="16" version="1.1" viewBox="0 0 16 16" xmlns="http://www.w3.org/2000/svg">
<defs>
<style id="current-color-scheme" type="text/css">.ColorScheme-Text { color:#5c616c; } .ColorScheme-Highlight { color:#5294e2; }</style>
</defs>
<path class="ColorScheme-Text" d="m2.5078 2a0.5 0.5 0 0 0 0 1h5.4961c1.6537 0 2.8897 0.46683 3.7187 1.2402 0.828 0.7735 1.2773 1.8708 1.2773 3.2598a0.5 0.5 0 0 0 1 0c0-1.611-0.5497-3.0137-1.5957-3.9902-1.045-0.9766-2.5562-1.5098-4.4004-1.5098h-5.4961zm0 3a0.5 0.5 0 0 0 0 1h3.9961c1.1826 0 1.9108 0.23644 2.3418 0.64844 0.431 0.4121 0.65625 1.0747 0.65625 2.1523a0.5 0.5 0 0 0 1 0c0-1.2224-0.274-2.2121-0.9668-2.875-0.6934-0.663-1.7154-0.92578-3.0312-0.92578h-3.9961zm8.5 4.0137v1.9941h-2.002v0.99609h2.002v1.9961l3.0039-2.4941-3.0039-2.4922zm-7.0078 1.9785v1.0293h1v-1.0293h-1zm2.0176 0v1.0293h1.9708v-1.0293h-1.9708z" fill="#f1f6f8" fill-opacity=".85098"/>
</svg>
