<svg width="24" height="24" version="1.1" viewBox="0 0 24 24" xmlns="http://www.w3.org/2000/svg">
<defs>
<style id="current-color-scheme" type="text/css">.ColorScheme-Text { color:#5c616c; } .ColorScheme-Highlight { color:#5294e2; }</style>
</defs>
<path class="ColorScheme-Text" d="m0.50781 3.0078a0.50005 0.50005 0 0 0-0.5 0.5v16.984a0.50005 0.50005 0 0 0 0.5 0.5h22.984a0.50005 0.50005 0 0 0 0.5-0.5v-16.984a0.50005 0.50005 0 0 0-0.5-0.5h-22.984zm0.5 1h6.0039v11.072h-3.0508v-2l-2.9531 2.4609v-11.533zm7.0039 0h7.9746v11.072h-7.9746v-11.072zm8.9746 0h6.0059v11.533l-2.9531-2.4609v2h-3.0527v-11.072zm-15.979 11.611 2.9531 2.4609v-2h3.0508v3.9121h-6.0039v-4.373zm21.984 0v4.373h-6.0059v-3.9121h3.0527v2l2.9531-2.4609zm-14.98 0.46094h7.9746v3.9121h-7.9746v-3.9121z" fill="#f1f6f8" fill-opacity=".85098"/>
<path class="ColorScheme-Text" d="m1 4v16h22v-16h-22z" fill="#f1f6f8" fill-opacity=".85098" opacity=".3"/>
</svg>
