<svg width="16" height="16" version="1.1" viewBox="0 0 16 16" xmlns="http://www.w3.org/2000/svg">
<defs>
<style id="current-color-scheme" type="text/css">.ColorScheme-Text { color:#5c616c; } .ColorScheme-Highlight { color:#5294e2; }</style>
</defs>
<path class="ColorScheme-Text" d="m3 1c-2.25 0-2 2-2 2v6h2v-3h4v-2h-4v-1h10v4h-6v2h8v-6c0-2-2-2-2-2h-10zm-1.1406 9c-0.96374 0-0.85547 0.85742-0.85547 0.85742v5.1426h5.9961v-5.1426c0-0.857-0.85742-0.85742-0.85742-0.85742h-4.2832zm10.141 0v2h-2v2h2v2h2v-2h2v-2h-2v-2h-2z" fill="#f1f6f8" fill-opacity=".85098"/>
</svg>
