<svg width="16" height="16" version="1.1" viewBox="1 1.004 14 14" xmlns="http://www.w3.org/2000/svg">
<defs>
<style id="current-color-scheme" type="text/css">.ColorScheme-Text { color:#5c616c; } .ColorScheme-Highlight { color:#5294e2; }</style>
</defs>
<path class="ColorScheme-Text" d="m8 1.0039c-3.8423 0-7 3.1577-7 7 0 3.8421 3.1577 7 7 7 3.842 0 7-3.1579 7-7 0-3.8423-3.158-7-7-7zm0 2.9961c1.1046 0 2 0.8955 2 2s-0.8954 2-2 2-2-0.8955-2-2 0.8954-2 2-2zm0 5c4-0.0018 4 2.4004 4 2.4004v0.59961h-8v-0.59961s-1e-4 -2.3984 4-2.4004z" fill="currentColor" fill-opacity=".85098"/>
</svg>
