<svg version="1.1" viewBox="0 0 16 16" xmlns="http://www.w3.org/2000/svg">
<defs>
<style id="current-color-scheme" type="text/css">.ColorScheme-Text {
        color:#bebebe;
      }</style>
</defs>
<g fill="#363636">
<path d="m8.0006 2c-0.27217 0-0.52324 0.066675-0.75307 0.20082-0.22985 0.13412-0.41253 0.31682-0.54667 0.54667-0.13417 0.22985-0.20082 0.48092-0.20082 0.75307 0 0.27217 0.066699 0.52319 0.20082 0.75307 0.13414 0.22981 0.31682 0.41141 0.54667 0.54556 0.22985 0.13414 0.4809 0.20082 0.75307 0.20082s0.52324-0.066675 0.75307-0.20082c0.22983-0.13412 0.41141-0.31573 0.54556-0.54556 0.13412-0.22985 0.20082-0.48092 0.20082-0.75307 0-0.27217-0.06672-0.52324-0.20082-0.75307-0.13414-0.22983-0.31573-0.41253-0.54556-0.54667-0.22988-0.13414-0.48087-0.20082-0.75307-0.20082z" color="#bebebe"/>
<path d="m3.4994 2c-0.27217 1.8e-6 -0.52212 0.067767-0.75195 0.20186-0.22985 0.13407-0.41253 0.31558-0.54667 0.54535-0.13417 0.22977-0.20082 0.48074-0.20082 0.75279 0 0.27207 0.066699 0.523 0.20082 0.75279 0.13414 0.22972 0.3157 0.41126 0.54556 0.54535 0.22985 0.13409 0.4809 0.20186 0.75307 0.20186s0.52324-0.067766 0.75307-0.20186c0.22983-0.13407 0.41253-0.31561 0.54667-0.54535 0.13412-0.22977 0.20082-0.48074 0.20082-0.75279 0-0.27207-0.066723-0.52304-0.20082-0.75279-0.13414-0.22974-0.31684-0.41126-0.54667-0.54535-0.22988-0.13409-0.48087-0.20186-0.75307-0.20186z" color="#bebebe"/>
<path d="m12.501 2c-0.27217 0-0.52324 0.06668-0.75307 0.20082-0.22985 0.13412-0.41253 0.31682-0.54667 0.54667-0.13417 0.22985-0.20082 0.48092-0.20082 0.75307 0 0.27217 0.0667 0.52319 0.20082 0.75307 0.13414 0.2298 0.31682 0.41141 0.54667 0.54556s0.4809 0.20082 0.75307 0.20082 0.52324-0.06668 0.75307-0.20082c0.22983-0.13412 0.41141-0.31573 0.54556-0.54556 0.13412-0.22985 0.20082-0.48092 0.20082-0.75307 0-0.27217-0.06672-0.52324-0.20082-0.75307-0.13414-0.22983-0.31573-0.41253-0.54556-0.54667-0.22988-0.13414-0.48087-0.20082-0.75307-0.20082z" color="#bebebe"/>
<path d="m3.4994 11c-0.27217 0-0.52324 0.06668-0.75307 0.20082-0.22985 0.13412-0.41141 0.3157-0.54556 0.54556-0.13417 0.22985-0.20082 0.48092-0.20082 0.75307 0 0.27217 0.066699 0.52319 0.20082 0.75307 0.13414 0.2298 0.3157 0.41253 0.54556 0.54667 0.22985 0.13414 0.4809 0.20082 0.75307 0.20082s0.52324-0.06668 0.75307-0.20082c0.22983-0.13412 0.41253-0.31684 0.54667-0.54667 0.13412-0.22985 0.20082-0.48092 0.20082-0.75307 0-0.27217-0.066723-0.52324-0.20082-0.75307-0.13414-0.22983-0.31684-0.41141-0.54667-0.54556-0.22988-0.13414-0.48087-0.20082-0.75307-0.20082z" color="#bebebe"/>
<path d="m8.0006 11c-0.27217 0-0.52324 0.066675-0.75307 0.20082-0.22985 0.13412-0.41253 0.31682-0.54667 0.54667-0.13417 0.22985-0.20082 0.48092-0.20082 0.75307 0 0.27217 0.066699 0.52319 0.20082 0.75307 0.13414 0.2298 0.31682 0.41141 0.54667 0.54556 0.22985 0.13414 0.4809 0.20082 0.75307 0.20082s0.52324-0.066675 0.75307-0.20082c0.22983-0.13412 0.41141-0.31573 0.54556-0.54556 0.13412-0.22985 0.20082-0.48092 0.20082-0.75307 0-0.27217-0.06672-0.52324-0.20082-0.75307-0.13414-0.22983-0.31573-0.41253-0.54556-0.54667-0.22988-0.13414-0.48087-0.20082-0.75307-0.20082z" color="#bebebe"/>
<path d="m12.501 11c-0.27217 0-0.52324 0.06668-0.75307 0.20082-0.22985 0.13412-0.41253 0.31682-0.54667 0.54667-0.13417 0.22985-0.20082 0.48092-0.20082 0.75307 0 0.27217 0.0667 0.52319 0.20082 0.75307 0.13414 0.2298 0.31682 0.41141 0.54667 0.54556s0.4809 0.20082 0.75307 0.20082 0.52324-0.06668 0.75307-0.20082c0.22983-0.13412 0.41141-0.31573 0.54556-0.54556 0.13412-0.22985 0.20082-0.48092 0.20082-0.75307 0-0.27217-0.06672-0.52324-0.20082-0.75307-0.13414-0.22983-0.31573-0.41253-0.54556-0.54667-0.22988-0.13414-0.48087-0.20082-0.75307-0.20082z" color="#bebebe"/>
<path d="m3.4994 6.5c-0.27217 0-0.52324 0.06668-0.75307 0.20082-0.22985 0.13412-0.41141 0.3157-0.54556 0.54556-0.13417 0.22985-0.20082 0.48092-0.20082 0.75307 0 0.27217 0.066699 0.52319 0.20082 0.75307 0.13414 0.2298 0.3157 0.41253 0.54556 0.54667 0.22985 0.13414 0.4809 0.20082 0.75307 0.20082s0.52324-0.06668 0.75307-0.20082c0.22983-0.13412 0.41253-0.31684 0.54667-0.54667 0.13412-0.22985 0.20082-0.48092 0.20082-0.75307 0-0.27217-0.066723-0.52324-0.20082-0.75307-0.13414-0.22983-0.31684-0.41141-0.54667-0.54556-0.22988-0.13414-0.48087-0.20082-0.75307-0.20082z" color="#bebebe"/>
<path d="m8.0006 6.5c-0.27217 0-0.52324 0.06668-0.75307 0.20082-0.22985 0.13412-0.41253 0.31682-0.54667 0.54667-0.13417 0.22985-0.20082 0.48092-0.20082 0.75307 0 0.27217 0.066699 0.52319 0.20082 0.75307 0.13414 0.2298 0.31682 0.41141 0.54667 0.54556 0.22985 0.13414 0.4809 0.20082 0.75307 0.20082s0.52324-0.066675 0.75307-0.20082c0.22983-0.13412 0.41141-0.31573 0.54556-0.54556 0.13412-0.22985 0.20082-0.48092 0.20082-0.75307 0-0.27217-0.06672-0.52324-0.20082-0.75307-0.13414-0.22983-0.31573-0.41253-0.54556-0.54667-0.22988-0.13414-0.48087-0.20082-0.75307-0.20082z" color="#bebebe"/>
<path d="m12.501 6.5c-0.27217 0-0.52324 0.06668-0.75307 0.20082-0.22985 0.13412-0.41253 0.31682-0.54667 0.54667-0.13417 0.22985-0.20082 0.48092-0.20082 0.75307 0 0.27217 0.0667 0.52319 0.20082 0.75307 0.13414 0.2298 0.31682 0.41141 0.54667 0.54556s0.4809 0.20082 0.75307 0.20082 0.52324-0.06668 0.75307-0.20082c0.22983-0.13412 0.41141-0.31573 0.54556-0.54556 0.13412-0.22985 0.20082-0.48092 0.20082-0.75307 0-0.27217-0.06672-0.52324-0.20082-0.75307-0.13414-0.22983-0.31573-0.41253-0.54556-0.54667-0.22988-0.13414-0.48087-0.20082-0.75307-0.20082z" color="#bebebe"/>
</g>
</svg>
