<svg width="16" height="16" version="1.1" viewBox="6 3.004 3 11" xmlns="http://www.w3.org/2000/svg">
<defs>
<style id="current-color-scheme" type="text/css">.ColorScheme-Text { color:#5c616c; } .ColorScheme-Highlight { color:#5294e2; }</style>
</defs>
<path class="ColorScheme-Text" d="m7.5 3.0039c-0.82235 0-1.5 0.67765-1.5 1.5s0.67765 1.5 1.5 1.5 1.5-0.67765 1.5-1.5-0.67765-1.5-1.5-1.5zm0 4c-0.82235 0-1.5 0.67765-1.5 1.5s0.67765 1.5 1.5 1.5 1.5-0.67765 1.5-1.5-0.67765-1.5-1.5-1.5zm0 4c-0.82235 0-1.5 0.67765-1.5 1.5s0.67765 1.5 1.5 1.5 1.5-0.67765 1.5-1.5-0.67765-1.5-1.5-1.5z" fill="currentColor" fill-opacity=".85098"/>
</svg>
