<svg width="16" height="16" version="1.1" viewBox="0 0 16 16" xmlns="http://www.w3.org/2000/svg">
<defs>
<style id="current-color-scheme" type="text/css">.ColorScheme-Text { color:#5c616c; } .ColorScheme-Highlight { color:#5294e2; }</style>
</defs>
<path class="ColorScheme-Text" d="m0 1v13.996c3-0.0011 6 1.49e-4 9 0.001953v-6h6v0.0019531h1v-7.9961c-5.3333 2e-3 -10.667-0.0059062-16-0.0039062zm9 2h6v1h-6v-1zm-5.5 1c0.831 0 1.5 0.66737 1.5 1.498v1.5h1v3h-5v-3h1v-1.5c0-0.83073 0.669-1.498 1.5-1.498zm0 0.99805c-0.277 0-0.5 0.22309-0.5 0.5v1.5h1v-1.5c0-0.27691-0.223-0.5-0.5-0.5zm5.5 1h6v1h-6v-1zm1 4.002v1h5v-1h-5zm0 2v1h5v-1h-5zm0 2v1h5v-1h-5z" fill="currentColor" fill-opacity=".85098"/>
</svg>
