<svg width="16" height="16" version="1.1" viewBox="0 0 16 16" xmlns="http://www.w3.org/2000/svg">
<defs>
<style id="current-color-scheme" type="text/css">.ColorScheme-Text { color:#5c616c; } .ColorScheme-Highlight { color:#5294e2; }</style>
</defs>
<path class="ColorScheme-Text" d="m2 1s-0.076201 0.0040975-0.18164 0.023438c-0.20412 0.03015-0.35869 0.1035-0.47266 0.20312-0.0221 0.01694-0.043553 0.035068-0.064453 0.054688-0.0196 0.02097-0.037688 0.042383-0.054688 0.064453-0.0996 0.11397-0.17298 0.26854-0.20312 0.47266-0.02 0.106-0.019531 0.18164-0.019531 0.18164v12c0 1 1 1 1 1h12s1 0 1-1v-12s-0.004037-0.076231-0.023437-0.18164c-0.0301-0.20412-0.1035-0.35868-0.20312-0.47266-0.0169-0.02207-0.035088-0.043483-0.054688-0.064453-0.021-0.01962-0.042653-0.037748-0.064453-0.054688-0.11397-0.09963-0.26854-0.17298-0.47266-0.20312-0.1-0.019-0.17969-0.023438-0.17969-0.023438h-12.006zm2 4h3v6h-3v-6zm4 1h4v1h-4v-1zm0 3h4v1h-4v-1z" fill="#dedede" fill-opacity=".85098"/>
</svg>
