<svg width="16" height="16" version="1.1" viewBox="0 0 16 16" xmlns="http://www.w3.org/2000/svg">
<defs>
<style id="current-color-scheme" type="text/css">.ColorScheme-Text { color:#5c616c; } .ColorScheme-Highlight { color:#5294e2; }</style>
</defs>
<path class="ColorScheme-Text" d="m7 1-7 7h2v7h8.377c-0.23386-0.47865-0.37695-1.0081-0.37695-1.5723 0-1.3977 0.82389-2.587 2-3.1602v-2.2676h2l-7-7zm0 5c1.1046 0 2 0.89547 2 2s-0.89543 2-2 2c2.9999-0.0018 3 2.4004 3 2.4004v0.59961h-6v-0.59961s-1.1e-4 -2.3986 3-2.4004c-1.1046 0-2-0.89547-2-2s0.89543-2 2-2zm6.5 4v0.85742c-1.3806 0-2.5 1.1502-2.5 2.5703 0 1.4202 1.1194 2.5723 2.5 2.5723 1.3666 0 2.4756-1.1291 2.498-2.5293a0.41663 0.42857 0 0 0 0.001953-0.042969 0.41663 0.42857 0 0 0-0.41602-0.42773 0.41663 0.42857 0 0 0-0.41797 0.42773c0 0.94677-0.74564 1.7148-1.666 1.7148s-1.666-0.76811-1.666-1.7148c0-0.94677 0.74566-1.7129 1.666-1.7129v0.85742l1.666-1.2871-1.666-1.2852z" fill="#f1f6f8" fill-opacity=".85098"/>
</svg>
