<svg version="1.1" viewBox="0 0 16 16" xmlns="http://www.w3.org/2000/svg">
<defs>
<style id="current-color-scheme" type="text/css">.ColorScheme-Text {
        color:#bebebe;
      }</style>
<style id="current-color-scheme-3" type="text/css">.ColorScheme-Text {
        color:#363636
      }</style>
<style id="current-color-scheme-35" type="text/css">.ColorScheme-Text {
        color:#363636
      }</style>
</defs>
<path d="m2.7997 2.6376c-0.71797 0-1.2997 0.58171-1.2997 1.2997 8.1e-6 0.71797 0.58172 1.2997 1.2997 1.2997 0.71797 0 1.2997-0.58171 1.2997-1.2997-8.2e-6 -0.71797-0.58172-1.2997-1.2997-1.2997z" fill="#bebebe"/>
<path d="m5.5625 3.1248c-0.4431 0-0.8125 0.3694-0.8125 0.8125s0.3694 0.8125 0.8125 0.8125h8.125c0.4431 0 0.8125-0.3694 0.8125-0.8125s-0.3694-0.81249-0.8125-0.8125h-8.125z" fill="#bebebe"/>
<path d="m2.7997 6.7001c-0.71797 0-1.2997 0.58171-1.2997 1.2997 0 0.71797 0.58171 1.2997 1.2997 1.2997 0.71797 0 1.2997-0.58171 1.2997-1.2997 0-0.71797-0.58171-1.2997-1.2997-1.2997z" fill="#bebebe"/>
<path d="m5.5625 7.1873c-0.4431 0-0.8125 0.36939-0.8125 0.8125 0 0.4431 0.3694 0.8125 0.8125 0.8125h8.125c0.4431 0 0.8125-0.3694 0.8125-0.8125 0-0.44311-0.3694-0.8125-0.8125-0.8125h-8.125z" fill="#bebebe"/>
<path d="m2.7997 10.763c-0.71797 0-1.2997 0.58171-1.2997 1.2997 0 0.71797 0.58171 1.2997 1.2997 1.2997 0.71797 0 1.2997-0.58171 1.2997-1.2997 0-0.71797-0.58171-1.2997-1.2997-1.2997z" fill="#bebebe"/>
<path d="m5.5625 11.25c-0.4431 0-0.8125 0.3694-0.8125 0.8125s0.3694 0.8125 0.8125 0.8125h8.125c0.4431 0 0.8125-0.3694 0.8125-0.8125s-0.3694-0.8125-0.8125-0.8125h-8.125z" fill="#bebebe"/>
</svg>
