<svg width="16" height="16" version="1.1" viewBox="0 0 16 16" xmlns="http://www.w3.org/2000/svg">
<defs>
<style id="current-color-scheme" type="text/css">.ColorScheme-Text { color:#5c616c; } .ColorScheme-Highlight { color:#5294e2; }</style>
</defs>
<path class="ColorScheme-Text" d="m10.029 1c-0.1471 3e-3 -0.29998 0.016962-0.45898 0.039062-0.5669 0.0788-1.2516 0.35247-2.0156 0.75977-1.5406-0.85312-2.7408-0.90508-3.748-0.64453-1.0688 0.2765-1.9377 0.72995-3.291 0.68945l-0.51562-0.015625v14.172h11.787c-0.483-0.533-0.78711-1.231-0.78711-2 0-1.184 0.70784-2.2093 1.7148-2.6953-0.487-0.137-0.97939-0.28587-1.5254-0.42188-0.979-0.245-2.0913-0.18662-3.1895 0.48438v-8.6973c0.7033-0.3855 1.2454-0.59821 1.6797-0.66211 0.2392-0.0352 0.4522-0.032159 0.6582-0.0058594 0.206 0.0265 0.40533 0.077172 0.61133 0.13867 0.535 0.1598 1.1938 0.41255 2.0508 0.56055v8.4863c0.315-0.114 0.648-0.1875 1-0.1875s0.685 0.0735 1 0.1875v-9.3418l-0.51758 0.017578c-1.516 0.0552-2.27-0.39871-3.25-0.69141-0.367-0.1098-0.76112-0.1809-1.2031-0.17188zm-4.8105 0.99414c0.4989 0.0386 1.0634 0.21933 1.7812 0.61523v8.7266c-1.1044-0.642-2.2098-0.69027-3.1836-0.44727-0.6532 0.162-1.2472 0.349-1.8164 0.5v-8.7246c0.8021-0.148 1.4741-0.38105 2.0547-0.53125 0.2311-0.0598 0.45439-0.10881 0.68359-0.13281 0.155-0.0162 0.31407-0.018659 0.48047-0.0058594zm8.7812 10.006a2 2 0 0 0-2 2 2 2 0 0 0 2 2 2 2 0 0 0 2-2 2 2 0 0 0-2-2z" fill="currentColor" fill-opacity=".85098"/>
</svg>
