<svg width="16" height="16" enable-background="new" version="1.1" xmlns="http://www.w3.org/2000/svg">
<g transform="translate(-465 331)">
<path class="error" d="m472-325v4l0.25 2h1.5l0.25-2v-4zm0 7v2h2v-2z" color="#555555" enable-background="accumulate" fill="#e74c3c"/>
<path d="m473-331c-2.0711 0-3.8347 1.2679-4.5938 3.0625-1.9278 0.2866-3.4062 1.9299-3.4062 3.9375 0 2.2091 1.7909 4 4 4h2v-6h4v6h2.5c1.933 0 3.5-1.567 3.5-3.5 0-1.7965-1.3508-3.2687-3.0938-3.4688-0.45457-2.2934-2.4794-4.0312-4.9062-4.0312z" enable-background="new" fill="#555"/>
</g>
</svg>
