<svg width="16.002" height="16.005" enable-background="new" version="1.1" xmlns="http://www.w3.org/2000/svg">
<g transform="translate(-425 331.01)">
<path d="m432.75-329.97c-2.7628 0.10144-5.3087 1.8046-6.3125 4.5625-1.2638 3.4723 0.36867 7.3246 3.6875 8.8125-0.0932-0.33746-0.14688-0.70692-0.125-1.0625 0.0277-1.0012 0.58397-1.8874 1.375-2.4688-1.5669-1.7332-2.1356-4.2465-1.2812-6.5938 0.51416-1.4126 1.4744-2.5084 2.6562-3.25zm0.1875 11.125c-0.41706 0.17181-0.75796 0.48646-0.875 0.9375-0.26517 0.82497 0.3356 1.7545 1.1875 1.875 1.796-0.074 3.4995-0.81062 4.75-2.0938v-0.15625c-1.2809 0.37459-2.6817 0.39743-4.0312-0.0937-0.362-0.13176-0.70874-0.28264-1.0312-0.46875z" color="#555555" enable-background="accumulate" fill="#555"/>
<circle transform="matrix(.93969 .34202 -.34202 .93969 363.61 -562.16)" cx="147" cy="201" r="7" d="m 154,201 c 0,3.86599 -3.13401,7 -7,7 -3.86599,0 -7,-3.13401 -7,-7 0,-3.86599 3.13401,-7 7,-7 3.86599,0 7,3.13401 7,7 z" color="#555555" enable-background="accumulate" opacity="0"/>
<path d="m436-322c-1.3117 0-2.4048 0.85843-2.8125 2.0312-1.2308 0.15597-2.1875 1.1956-2.1875 2.4688 0 1.3807 1.1193 2.5 2.5 2.5h5.5c1.1046 0 2-0.89543 2-2s-0.89543-2-2-2c0-1.6568-1.3432-3-3-3z" fill="#555"/>
</g>
</svg>
