<svg width="16" height="16" enable-background="new" version="1.1" xmlns="http://www.w3.org/2000/svg">
<defs>
<style id="current-color-scheme" type="text/css">.ColorScheme-Text {
        color:#bebebe;
      }</style>
</defs>
<g transform="translate(-485 331)">
<path d="m487.88-319a0.50005 0.50005 0 0 0-0.3125 0.28125l-1 2a0.50005 0.50005 0 1 0 0.875 0.4375l1-2a0.50005 0.50005 0 0 0-0.5625-0.71875z" color="#000000" enable-background="accumulate" style="block-progression:tb;text-indent:0;text-transform:none"/>
<path d="m490.38-319a0.50005 0.50005 0 0 0-0.3125 0.28125l-1 2a0.50005 0.50005 0 1 0 0.875 0.4375l1-2a0.50005 0.50005 0 0 0-0.5625-0.71875z" color="#000000" enable-background="accumulate" style="block-progression:tb;text-indent:0;text-transform:none"/>
<path d="m492.88-319a0.50005 0.50005 0 0 0-0.3125 0.28125l-1 2a0.50005 0.50005 0 1 0 0.875 0.4375l1-2a0.50005 0.50005 0 0 0-0.5625-0.71875z" color="#000000" enable-background="accumulate" style="block-progression:tb;text-indent:0;text-transform:none"/>
<path d="m495.38-319a0.50005 0.50005 0 0 0-0.3125 0.28125l-1 2a0.50005 0.50005 0 1 0 0.875 0.4375l1-2a0.50005 0.50005 0 0 0-0.5625-0.71875z" color="#000000" enable-background="accumulate" style="block-progression:tb;text-indent:0;text-transform:none"/>
<path d="m497.88-319a0.50005 0.50005 0 0 0-0.3125 0.28125l-1 2a0.50005 0.50005 0 1 0 0.875 0.4375l1-2a0.50005 0.50005 0 0 0-0.5625-0.71875z" color="#000000" enable-background="accumulate" style="block-progression:tb;text-indent:0;text-transform:none"/>
<path d="m493-331c-2.0711 0-3.8347 1.2679-4.5938 3.0625-1.9278 0.2866-3.4062 1.9299-3.4062 3.9375 0 2.2091 1.7909 4 4 4h8.5c1.933 0 3.5-1.567 3.5-3.5 0-1.7965-1.3508-3.2687-3.0938-3.4688-0.45457-2.2934-2.4794-4.0312-4.9062-4.0312z"/>
</g>
</svg>
