<svg width="16" height="16" version="1.1" viewBox="4.719 4.719 14.56 14.56" xmlns="http://www.w3.org/2000/svg">
<defs>
<style id="current-color-scheme" type="text/css">.ColorScheme-Text { color:#5c616c; } .ColorScheme-Highlight { color:#5294e2; }</style>
</defs>
<path class="ColorScheme-Text" d="m11.996 4.7188 0.001953 0.0019531 0.001953-0.0019531h-0.003906zm0.001953 0.0019531c-0.76726 0.75719-1.515 1.5354-2.2949 2.2793h-2.7031v2.7031c-0.7446 0.7806-1.5234 1.5289-2.2812 2.2969 0.7579 0.76805 1.5367 1.5162 2.2812 2.2969v2.7031h2.7031c0.7806 0.7446 1.5289 1.5234 2.2969 2.2812 0.76805-0.7579 1.5162-1.5367 2.2969-2.2812h2.7031v-2.7031c0.7446-0.7806 1.5234-1.5289 2.2812-2.2969-0.7579-0.76805-1.5367-1.5162-2.2812-2.2969v-2.7031h-2.7031c-0.78433-0.74387-1.5295-1.5219-2.2988-2.2793zm0.001953 2.7793c2.4853 0 4.5 2.0147 4.5 4.5s-2.0147 4.5-4.5 4.5-4.5-2.0147-4.5-4.5 2.0147-4.5 4.5-4.5zm0 1.5c-1.6568 0-3 1.3432-3 3s1.3432 3 3 3v-6z" fill="currentColor" fill-opacity=".85098"/>
</svg>
