<svg width="16" height="16" version="1.1" viewBox="1.998 2 12 12" xmlns="http://www.w3.org/2000/svg">
<defs>
<style id="current-color-scheme" type="text/css">.ColorScheme-Text { color:#5c616c; } .ColorScheme-Highlight { color:#5294e2; }</style>
</defs>
<path class="ColorScheme-Text" d="m3.2168 2c-0.66981 0-1.2188 0.5248-1.2188 1.1875v3.8125h2v-3h3v-2h-3.7812zm5.7812 0v2h3v3h2v-3.8125c0-0.6627-0.54894-1.1875-1.2188-1.1875h-3.7813zm-1 3-3 3 3 3v-2h3v-2h-3v-2zm-6 4v3.8125c0 0.6627 0.54894 1.1875 1.2188 1.1875h3.7812v-2h-3v-3h-2zm10 0v3h-3v2h3.7813c0.66981 0 1.2188-0.5248 1.2188-1.1875v-3.8125h-2z" fill="currentColor" fill-opacity=".85098"/>
</svg>
