<svg width="16" height="16" version="1.1" viewBox="2.002 2.004 12 12" xmlns="http://www.w3.org/2000/svg">
<defs>
<style id="current-color-scheme" type="text/css">.ColorScheme-Text { color:#5c616c; } .ColorScheme-Highlight { color:#5294e2; }</style>
</defs>
<path class="ColorScheme-Text" d="m3.1895 2.0039c-0.6627 0-1.1875 0.54889-1.1875 1.2188v3.7812h2v-3h3v-2h-3.8125zm5.8125 0v2h3v3h2v-3.7812c0-0.66976-0.5248-1.2188-1.1875-1.2188h-3.8125zm-3.0117 3.9961v4h4v-4h-4zm-3.9883 3.0039v3.7812c0 0.66976 0.5248 1.2188 1.1875 1.2188h3.8125v-2h-3v-3h-2zm10 0v3h-3v2h3.8125c0.6627 0 1.1875-0.54889 1.1875-1.2188v-3.7812h-2z" fill="currentColor" fill-opacity=".85098"/>
</svg>
