<svg width="22" height="22" version="1.1" xmlns="http://www.w3.org/2000/svg">
<g transform="translate(0 -26)">
<path d="m3.4949 31.245c-0.034239 0.14959-0.055934 0.30416-0.055934 0.46468 0-0.16054 0.021721-0.31508 0.055934-0.46468zm-1.2112 9.6637v2.2051c0 1.4111 1.136 2.5472 2.5472 2.5472h12.873c1.4111 0 2.5472-1.136 2.5472-2.5472v-2.2051c0 0.92234-0.48953 1.7195-1.2198 2.1664-0.22149 0.90237-1.0281 1.5705-2.0007 1.5705h-11.527c-0.97258 0-1.7792-0.66809-2.0007-1.5705-0.73026-0.44688-1.2198-1.244-1.2198-2.1664z" fill-opacity=".56863"/>
<path d="m3.4949 31.245c-0.034214 0.1496-0.055934 0.30415-0.055934 0.46468 0-0.16053 0.021695-0.3151 0.055934-0.46468zm16.757 6.5701-1.1553 1.0068v1.5533c0 1.1442-0.92111 2.0653-2.0653 2.0653h-11.527c-0.9829 0-1.7982-0.68146-2.0093-1.5984-0.72571-0.44788-1.2112-1.2432-1.2112-2.1621v2.2288c0 1.4111 1.136 2.5472 2.5472 2.5472h12.873c1.4111 0 2.5472-1.136 2.5472-2.5472z" fill-opacity=".52941"/>
<path d="m19.096 38.822-2.7601 2.4052h-11.505c-0.49223 0-0.94722-0.14517-1.336-0.38508 0.21114 0.91697 1.0264 1.5984 2.0093 1.5984h11.527c1.1442 0 2.0653-0.92111 2.0653-2.0653z" fill-opacity=".21569"/>
<path d="m5.5042 29.644c-0.28604 0-0.55949 0.05927-0.80674 0.1635-0.055954 0.02368-0.10592 0.05772-0.1592 0.08606-0.18146 0.09625-0.35081 0.21121-0.4948 0.35497-0.18665 0.18665-0.33894 0.4089-0.44317 0.65615s-0.16135 0.51855-0.16135 0.80459v6.4367c0 0.28604 0.057117 0.55734 0.16135 0.80459 0.10423 0.24725 0.25652 0.4695 0.44317 0.65615 0.093007 0.09286 0.19396 0.17793 0.30334 0.2517 4.605e-4 3.12e-4 0.00169-3.11e-4 0.00215 0 0.10939 0.07363 0.22548 0.13745 0.34851 0.18932 0.24725 0.10423 0.5207 0.1635 0.80674 0.1635h8.8226v-1.3768c0-0.82966 0.3409-1.5663 0.89495-2.061 0.55404-0.49471 1.3023-0.75296 2.104-0.75296h1.7705v-4.3112c0-0.28604-0.05712-0.55734-0.16135-0.80459s-0.25652-0.4695-0.44317-0.65615c-0.09293-0.09293-0.19402-0.17784-0.30334-0.2517-5.22e-4 -3.53e-4 -0.0017 3.51e-4 -0.0022 0-0.05928-0.03998-0.12583-0.06949-0.18932-0.10326-0.05345-0.02835-0.10305-0.06239-0.1592-0.08606-0.24725-0.10423-0.52071-0.1635-0.80674-0.1635zm11.821 7.5877c-0.54188 0-0.99104 0.17191-1.2972 0.44532s-0.48835 0.64285-0.48835 1.1574v1.3768h0.0043l3.5239-2.9796z" fill-opacity=".11765"/>
<path d="m4.8309 28.629c-1.4111 0-2.5472 1.136-2.5472 2.5472v7.5038c0 1.4111 1.136 2.5472 2.5472 2.5472h11.505l3.9154-3.412v-6.639c0-1.4111-1.136-2.5472-2.5472-2.5472zm0.67336 1.0154h11.527c0.28604 0 0.55949 0.05927 0.80674 0.1635 0.05614 0.02367 0.10574 0.05771 0.1592 0.08606 0.06349 0.03377 0.13004 0.06328 0.18932 0.10326h0.0022c0.10931 0.07385 0.2104 0.15877 0.30334 0.2517 0.01188 0.01188 0.02066 0.02656 0.03227 0.03873 0.03735 0.03925 0.06907 0.08268 0.10326 0.12478 0.0013 0.0015 3e-3 0.0028 0.0043 0.0043 3.27e-4 4.99e-4 -3.75e-4 0.0017 0 0.0022 0.05942 0.07339 0.11442 0.14896 0.1635 0.23019 0.03085 0.05129 0.05966 0.10294 0.08606 0.15705 0.01657 0.03383 0.03909 0.0641 0.05379 0.09896 0.02667 0.06326 0.04205 0.13167 0.06239 0.19792 0.0048 0.01586 0.01057 0.03131 0.01506 0.04733 0.0024 0.0085 0.0042 0.01719 0.0065 0.02582 0.0057 0.01856 0.01266 0.03666 0.01722 0.05593 0.03624 0.15369 0.06024 0.31226 0.06024 0.47759v4.3112h-1.7705c-0.80165 0-1.5499 0.25825-2.104 0.75296-0.55404 0.49471-0.89495 1.2313-0.89495 2.061v1.3768h-8.8227c-0.28604 0-0.55949-0.05927-0.80674-0.1635-0.12304-0.05187-0.23913-0.11568-0.34851-0.18932h-0.00215c-0.10938-0.073832-0.21033-0.15891-0.30334-0.25176-0.18665-0.18665-0.33894-0.4089-0.44317-0.65615s-0.16135-0.51855-0.16135-0.80459v-6.4367c0-0.28604 0.057117-0.55734 0.16135-0.80459 0.10423-0.24725 0.25652-0.4695 0.44317-0.65615 0.14399-0.14376 0.31334-0.25872 0.4948-0.35497 0.053274-0.02834 0.10324-0.06238 0.1592-0.08606 0.24725-0.10423 0.5207-0.1635 0.80674-0.1635zm11.821 7.5877h1.7426l-3.5239 2.9796h-0.0043v-1.3768c0-0.12864 0.01046-0.248 0.03227-0.35927 0.02896-0.14742 0.08265-0.27579 0.14629-0.39584 0.01711-0.03215 0.03438-0.0643 0.05379-0.09466 5.44e-4 -8.54e-4 0.0013-0.0015 0.0022-0.0022 5.25e-4 -8.21e-4 0.0017-0.0013 0.0022-0.0022 0.0713-0.11078 0.15222-0.21451 0.2517-0.30334 0.30621-0.27341 0.75536-0.44532 1.2972-0.44532z" fill-opacity=".4902"/>
<path d="m3.4949 31.245c-0.034239 0.14959-0.055934 0.30416-0.055934 0.46468 0-0.16054 0.021721-0.31508 0.055934-0.46468zm-0.010761 9.5884c0.00392 0.0024 0.00682 0.0062 0.010761 0.0086 0.060619 0.03741 0.13204 0.05559 0.19577 0.08821-0.067839-0.03452-0.13953-0.06165-0.20653-0.09681zm0.010761 2.2374c0.21114 0.91697 1.0264 1.5984 2.0093 1.5984h11.527c0.9829 0 1.7982-0.68146 2.0093-1.5984-0.38875 0.23992-0.84374 0.38509-1.336 0.38509h-12.873c-0.49223 0-0.94722-0.14517-1.336-0.38509z" fill-opacity=".31373"/>
</g>
</svg>
