<svg width="22" height="22" version="1.1" xmlns="http://www.w3.org/2000/svg">
<g transform="translate(0 -26)">
<path transform="translate(0 26)" d="m4.8691 2.9375c-0.86215 0-1.5566 0.69449-1.5566 1.5566v15.137c0 0.86215 0.69449 1.5566 1.5566 1.5566h11.949c0.86215 0 1.5566-0.69449 1.5566-1.5566v-15.137c0-0.86215-0.69449-1.5566-1.5566-1.5566h-1.5996v1.0898h1.0449c0.58515 0 1.0547 0.47149 1.0547 1.0566v13.957c0 0.58515-0.46954 1.0566-1.0547 1.0566h-10.84c-0.58515 0-1.0547-0.47149-1.0547-1.0566v-13.957c0-0.58515 0.46954-1.0566 1.0547-1.0566h0.91992v-1.0898h-1.4746z" fill-opacity=".44444"/>
<path transform="translate(0 26)" d="m5.4238 4.0273c-0.58515 0-1.0547 0.47149-1.0547 1.0566v13.957c0 0.58515 0.46954 1.0566 1.0547 1.0566h10.84c0.58515 0 1.0547-0.47149 1.0547-1.0566v-13.957c0-0.58515-0.46954-1.0566-1.0547-1.0566h-1.0449v0.0097656c0 0.56783-0.45756 1.0254-1.0254 1.0254h-6.8242c-0.56783 0-1.0254-0.45756-1.0254-1.0254v-0.0097656h-0.91992z" fill-opacity=".11111"/>
<path transform="translate(0 26)" d="m7.3691 1.2812c-0.56783 0-1.0254 0.45756-1.0254 1.0254v1.7305c0 0.56783 0.45756 1.0254 1.0254 1.0254h6.8242c0.56783 0 1.0254-0.45756 1.0254-1.0254v-1.7305c0-0.56783-0.45756-1.0254-1.0254-1.0254h-6.8242zm0.46289 0.66797h5.8984c0.39471 0 0.71289 0.31818 0.71289 0.71289v1.0195c0 0.39471-0.31818 0.71289-0.71289 0.71289h-5.8984c-0.39471 0-0.71289-0.31818-0.71289-0.71289v-1.0195c0-0.39471 0.31818-0.71289 0.71289-0.71289z" fill-opacity=".58667"/>
<rect x="7.1197" y="27.949" width="7.323" height="2.4453" rx=".71247" ry=".71247" fill-opacity=".093333"/>
<path transform="translate(0 26)" d="m5.6562 7.6562v2.7812h2.7812v-2.7812h-2.7812zm0 4.0469v2.7812h2.7812v-2.7812h-2.7812zm0 4.0469v2.7812h2.7812v-2.7812h-2.7812z" fill-opacity=".36134"/>
<path transform="translate(0 26)" d="m14.535 6.2715-4.0547 2.7031-0.32812-0.56836-0.86719 0.5 0.86133 1.4941 4.9434-3.2969-0.55469-0.83203zm0 3.9375-4.0547 2.7031-0.32812-0.56836-0.86719 0.5 0.86133 1.4941 4.9434-3.2969-0.55469-0.83203z" color="#000000" color-rendering="auto" dominant-baseline="auto" fill-opacity=".53361" image-rendering="auto" shape-rendering="auto" solid-color="#000000" style="font-feature-settings:normal;font-variant-alternates:normal;font-variant-caps:normal;font-variant-ligatures:normal;font-variant-numeric:normal;font-variant-position:normal;isolation:auto;mix-blend-mode:normal;shape-padding:0;text-decoration-color:#000000;text-decoration-line:none;text-decoration-style:solid;text-indent:0;text-orientation:mixed;text-transform:none;white-space:normal"/>
</g>
</svg>
