<svg width="22" height="22" version="1.1" xmlns="http://www.w3.org/2000/svg">
<defs>
<style id="current-color-scheme" type="text/css">.ColorScheme-Text { color:#31363b; } .ColorScheme-Highlight { color:#3daee9; }</style>
</defs>
<path class="ColorScheme-Text" d="m9 4v1h-3v12c0 0.55 0.446 1 1 1h8c0.554 0 1-0.45 1-1v-12h-3v-1h-4zm2 4c1.105 0 2 0.8954 2 2 0 1.105-0.895 2-2 2v1h-1v-2h1c0.552 0 1-0.448 1-1 0-0.5523-0.448-1-1-1s-1 0.4477-1 1h-1c0-1.1046 0.895-2 2-2zm-1 6h1v1h-1v-1z" fill="currentColor"/>
</svg>
