<svg width="16" height="16" enable-background="new" version="1.1" xmlns="http://www.w3.org/2000/svg">
<defs>
<filter color-interpolation-filters="sRGB">
<feBlend in2="BackgroundImage" mode="darken"/>
</filter>
</defs>
<g transform="translate(-365 251)">
<g transform="matrix(.75 0 0 .75 120.25 -652.02)" fill="#363636">
<g transform="matrix(1.3333 0 0 1.3333 -197.1 -163.7)" fill="#363636">
<g transform="translate(27.682 .1284)" fill="#363636">
<g transform="matrix(.97603 0 0 -.97603 8.9381 1042.1)" fill="#363636">
<g transform="translate(0 2.193e-5)" fill="#363636">
<g transform="matrix(1.0246 0 0 -1.0246 -9.1576 1067.7)">
<g transform="matrix(1.5 0 0 1.5 360.89 -1034.9)" fill="#363636">
<g transform="translate(-412.88 512)" fill="#363636">
<g transform="translate(341.8 500.25)" fill="#363636">
<g transform="translate(-392.99 -511.28)" fill="#363636">
<g transform="matrix(1.3333 0 0 1.3333 -61.89 -166)" fill="#363636">
<g transform="translate(341.8 500.25)" fill="#363636">
<g transform="translate(-392.99 -511.28)" fill="#363636">
<g transform="translate(.41988 .034845)" fill="#363636" stroke="#1f2a47">
<g transform="translate(440.36 509.63)" fill="#363636">
<g transform="matrix(.52109 0 0 .52109 -.76996 19.353)" fill="#363636" stroke="#1f2a47">
<g transform="translate(-400.5 -509.15)" fill="#363636">
<g transform="matrix(1.0037 0 0 1.0037 11.267 17.846)" fill="#363636">
<g transform="matrix(1.5263 0 0 1.5263 376.5 -1040.2)" fill="#363636">
<g transform="matrix(1.1526 0 0 1.1526 -4.8344 -156.43)" fill="#363636">
<g fill="#363636">
<g transform="matrix(.81509 0 0 .81509 -323.2 584.91)" fill="#363636">
<g transform="translate(341.8 500.25)" fill="#363636">
<g transform="translate(-392.99 -511.28)" fill="#363636">
<g transform="translate(.41988 .034845)" fill="#363636" stroke="#1f2a47">
<g transform="translate(440.36 509.63)" fill="#363636">
<g transform="matrix(.52109 0 0 .52109 -.76996 19.353)" fill="#363636" stroke="#1f2a47">
<g transform="translate(-400.5 -509.15)" fill="#363636">
<g transform="matrix(.76762 0 0 .76762 156.47 138.51)" fill="#363636" stroke="none"></g>
</g>
</g>
</g>
</g>
</g>
</g>
</g>
</g>
</g>
</g>
</g>
</g>
</g>
</g>
</g>
</g>
</g>
</g>
</g>
</g>
</g>
</g>
</g>
<g transform="matrix(.76374 0 0 -.76374 364.44 1318.3)">
<g transform="translate(.056745 .080917)">
<path d="m12.157 1046.6c0.01745 0.093-0.04526 0.1682-0.13937 0.1682h-1.9968c-0.094111 0-0.15683-0.076-0.13937-0.1682l0.31793-1.6849c-0.24067-0.2195-0.39172-0.5357-0.39172-0.887 0-0.6628 0.53734-1.2002 1.2002-1.2002 0.66285 0 1.2002 0.5374 1.2002 1.2002 0 0.3418-0.14314 0.6499-0.37247 0.8686z" fill="#363636"/>
<path d="m14.216 1040.2h-6.415v-1.9801c0-1.7686 1.4388-3.2074 3.2075-3.2074 1.7686 0 3.2075 1.4389 3.2075 3.2074zm1.7111 0.018v-1.9983c0-2.7121-2.2065-4.9187-4.9186-4.9187-2.7121 0-4.9186 2.2066-4.9186 4.9187v1.9983c-0.38761 0.081-0.67966 0.4259-0.67966 0.8373v7.4883c0 0.4717 0.38381 0.8555 0.85557 0.8555h9.4854c0.47176 0 0.85557-0.3838 0.85557-0.8555v-7.4883c0-0.4114-0.292-0.7559-0.67962-0.8373z" fill="#d33636"/>
</g>
</g>
</g>
</g>
</g>
</g>
</g>
<g transform="translate(346.25 -247.5)" enable-background="new">
<g transform="matrix(.52112 0 0 .52112 20.768 5.3453)" fill="#fff">
<g transform="matrix(.02206 0 0 .02206 -29.9 -.39149)" fill="#fff"></g>
</g>
</g>
</g>
</svg>
