<svg width="16" height="16" version="1.1" viewBox="0 0 16 16" xmlns="http://www.w3.org/2000/svg">
<g transform="matrix(.011496 0 0 .011496 -3.6274 5.4613)" fill="#363636"></g>
<circle transform="matrix(-.064329 -.99793 .99793 -.064329 0 0)" cx="-21.385" cy="-12.871" r="0" fill="#363636"/>
<text x="-16.888233" y="35.451305" fill="#363636" font-family="sans-serif" font-size="35.826px" letter-spacing="0px" stroke-width="1px" word-spacing="0px" style="line-height:125%" xml:space="preserve"><tspan x="-16.888233" y="35.451305" fill="#363636" font-family="'DejaVu Sans'"/></text>
<g transform="matrix(.024381 0 0 .024381 -52.687 5.02)" fill="#363636"></g>
<g transform="translate(12.066 -45.127)" enable-background="new" fill="#363636">
<g transform="matrix(.52112 0 0 .52112 20.768 5.3453)" fill="#363636">
<g transform="matrix(.02206 0 0 .02206 -29.9 -.39149)" fill="#363636"></g>
</g>
</g>
<g transform="translate(-10.141 -40.968)" fill="#363636"></g>
<g transform="matrix(.011496 0 0 .011496 -57.558 1.5649)" fill="#fff"></g>
<circle transform="matrix(-.064329 -.99793 .99793 -.064329 0 0)" cx="-7.9928" cy="-50.058" r="0" fill="#363636"/>
<text x="-52.602039" y="18.944498" fill="#363636" font-family="sans-serif" font-size="20.899px" letter-spacing="0px" stroke-width="1px" word-spacing="0px" style="line-height:125%" xml:space="preserve"><tspan x="-52.602039" y="18.944498" fill="#363636" font-family="'DejaVu Sans'"/></text>
<path d="m1.1245 8.3344 2.6234 3.0207c0.16688 0.19225 0.43843 0.19337 0.60644 0.0025 0.16802-0.1907 0.16901-0.50111 0.0022-0.69317l-2.3213-2.6728 2.3381-2.6535c0.16802-0.19077 0.16901-0.50115 0.0022-0.69323-0.16681-0.19216-0.43835-0.19328-0.60644-0.00251l-2.6425 2.999c-0.08401 0.095394-0.12622 0.22057-0.12661 0.34597-3.9698e-4 0.12547 0.04109 0.25108 0.12449 0.34712z" fill="#363636"/>
<path d="m14.875 7.6656-2.6234-3.0207c-0.16688-0.19225-0.43843-0.19337-0.60644-0.00251-0.16802 0.1907-0.16901 0.50111-0.0022 0.69317l2.3213 2.6728-2.3381 2.6535c-0.16802 0.19077-0.16901 0.50116-0.0022 0.69323 0.16681 0.19216 0.43835 0.19328 0.60644 0.0025l2.6425-2.999c0.08401-0.095394 0.12622-0.22057 0.12661-0.34597 3.97e-4 -0.12547-0.04109-0.25108-0.12449-0.34712z" fill="#363636"/>
<path d="m8 11.5a3.5 3.5 0 0 1-3.5-3.5 3.5 3.5 0 0 1 3.5-3.5 3.5 3.5 0 0 1 3.5 3.5 3.5 3.5 0 0 1-3.5 3.5zm-0.0872-1.5313a0.4375 0.4375 0 0 0 0.4375-0.43749 0.4375 0.4375 0 0 0-0.4375-0.4375 0.4375 0.4375 0 0 0-0.4375 0.4375 0.4375 0.4375 0 0 0 0.4375 0.43749zm-0.047-1.3125h0.0932c0.15581 0 0.28198-0.12532 0.28198-0.28113v-2.0628c0-0.15581-0.12617-0.28112-0.28198-0.28112h-0.0932c-0.15581 0-0.28113 0.12531-0.28113 0.28112v2.0628c0 0.15581 0.12532 0.28113 0.28113 0.28113z" fill="#363636" fill-rule="evenodd"/>
</svg>
