<svg width="16" height="16" version="1.1" xmlns="http://www.w3.org/2000/svg">
<g transform="matrix(.77187 0 0 .77187 -224.56 164.82)" color="#363636" fill="#1a1a1a">
<path d="m301-210.01a1 1 0 0 0-1 1v0.01c-1.764 0.456-2.998 2.168-3 3.99 0 0 0 5-1.66 5.622-0.016 0.01-0.023 0.03-0.04 0.043a0.726 0.726 0 0 0-0.161 0.175c-0.018 0.027-0.039 0.048-0.053 0.077a0.738 0.738 0 0 0-0.086 0.334c0 0.415 0.335 0.75 0.75 0.75h10.5c0.416 0 0.75-0.335 0.75-0.75a0.738 0.738 0 0 0-0.086-0.334c-0.014-0.03-0.035-0.05-0.052-0.077a0.725 0.725 0 0 0-0.162-0.175c-0.016-0.012-0.023-0.033-0.04-0.043-1.66-0.622-1.66-5.622-1.66-5.622-2e-3 -1.822-1.235-3.534-3-3.99v-0.01a1 1 0 0 0-1-1zm-1.933 13a2 2 0 0 0 1.933 1.5 2 2 0 0 0 1.936-1.5z" fill="#1a1a1a" overflow="visible" style="isolation:auto;mix-blend-mode:normal"/>
</g>
</svg>
