<svg width="16" height="16" enable-background="new" version="1.1" xmlns="http://www.w3.org/2000/svg">
<g transform="matrix(.8 0 0 .8 -434.4 318)">
<path d="m553-395-6 1.9902v7c0 2.0716 1.5749 3.5218 2.9375 4.4688 1.3626 0.94693 3.0625 1.541 3.0625 1.541s1.7043-0.61672 3.0625-1.5723c1.3582-0.95555 2.9375-2.3932 2.9375-4.4375v-7l-6-1.9902zm0 2.1074v4.8926h4v1.9902c0 1.0143-0.90506 1.9706-2.0879 2.8027-0.76991 0.54167-1.4216 0.77276-1.9121 0.97656v-5.7695h-4v-3.5664l4-1.3262z" color="#363636" enable-background="accumulate" fill="#363636" style="block-progression:tb;text-decoration-line:none;text-indent:0;text-transform:none"/>
</g>
</svg>
