<svg width="16" height="16" enable-background="new" version="1.1" xmlns="http://www.w3.org/2000/svg">
<defs>
<filter color-interpolation-filters="sRGB">
<feBlend in2="BackgroundImage" mode="darken"/>
</filter>
<style id="current-color-scheme" type="text/css">.ColorScheme-Text {
        color:#363636
      }</style>
<linearGradient id="linearGradient4160-4" x1="2" x2="46.54" y1="1028.4" y2="1031.1" gradientTransform="matrix(.27273 0 0 .27273 307.78 210.78)" gradientUnits="userSpaceOnUse"/>
</defs>
<g transform="translate(-465 331)">
<g transform="translate(465 -333.28)" enable-background="new">
<path d="m8 4c-1.574 0-2.8858 1.0301-3.375 2.4374-1.477 0.18716-2.625 1.4347-2.625 2.9626 0 1.6568 1.3432 3 3 3h6.6c1.3255 0 2.4-1.0745 2.4-2.4s-1.0745-2.4-2.4-2.4c0-1.9882-1.6118-3.6-3.6-3.6z" fill="#363636"/>
</g>
<g transform="matrix(.58333 0 0 .58333 198.94 -119.24)">
<ellipse transform="matrix(-.064329 -.99793 .99793 -.064329 0 0)" cx="314.33" cy="491.24" rx="6" ry="6" fill="url(#linearGradient4160-4)"/>
<path d="m470-348.55c-0.30124 0-0.54297 0.2418-0.54297 0.543v3.8223c0 0.3013 0.24173 0.5429 0.54297 0.5429h4e-3c0.30123 0 0.54297-0.2416 0.54297-0.5429v-3.8223c0-0.3012-0.24174-0.543-0.54297-0.543h-4e-3zm2e-3 6c-0.30219 0-0.54492 0.2428-0.54492 0.545 0 0.3021 0.24273 0.5449 0.54492 0.5449 0.30218 0 0.54492-0.2428 0.54492-0.5449 0-0.3022-0.24274-0.545-0.54492-0.545z" fill="#fff"/>
</g>
</g>
</svg>
