<svg width="16" height="16" version="1.1" xmlns="http://www.w3.org/2000/svg">
<path d="m7.5 1c-1.385 0-2.5 1.115-2.5 2.5v5c0 1.385 1.115 2.5 2.5 2.5s2.5-1.115 2.5-2.5v-5c0-1.385-1.115-2.5-2.5-2.5zm-4 6c-0.27614 0-0.5 0.22386-0.5 0.5v0.96875c0 1.9684 1.258 3.6246 3 4.25v1.2812h-0.5c-0.277 0-0.5 0.223-0.5 0.5s0.223 0.5 0.5 0.5h4c0.277 0 0.5-0.223 0.5-0.5s-0.223-0.5-0.5-0.5h-0.5v-1.2812c1.742-0.62545 3-2.2816 3-4.25v-0.96875c0-0.27614-0.22386-0.5-0.5-0.5s-0.5 0.22386-0.5 0.5c0 0.069 6e-3 0.12768 0.0312 0.1875v0.78125c0 1.9642-1.579 3.5312-3.5312 3.5312s-3.5-1.5671-3.5-3.5312v-0.96875c0-0.27614-0.22386-0.5-0.5-0.5z" color="#bebebe" fill="#bebebe" style="block-progression:tb;text-indent:0;text-transform:none"/>
</svg>
