<svg width="16" height="16" version="1.1" xmlns="http://www.w3.org/2000/svg">
<path d="m2.81 1c-0.41942 0.0441-0.76625 0.25877-0.8125 0.5l-1.0002 6.7843v2.25c0 0.277 0.223 0.5 0.5 0.5h13c0.277 0 0.5-0.223 0.5-0.5v-2.25c0-0.277-1-6.75-1-6.75-0.0606-0.27344-0.51558-0.50214-1-0.5l-9.9998-0.0343c-0.0312-5.7e-4 -0.0625-5.7e-4 -0.0937 0-0.0312-5.7e-4 -0.0625-5.7e-4 -0.0937 0zm-0.81273 8.0343h2v1h-2zm-0.5 3c-0.277 0-0.5 0.223-0.5 0.5v2c0 0.277 0.223 0.5 0.5 0.5h13c0.277 0 0.5-0.223 0.5-0.5v-2c0-0.277-0.223-0.5-0.5-0.5zm0.5 1h2v1h-2z" fill="#bebebe"/>
</svg>
