<svg width="16" height="16" version="1.1" xmlns="http://www.w3.org/2000/svg">
<g transform="translate(-333 212)" fill="#bebebe">
<path d="m335.97-211c-1.0753 0-1.9688 0.89341-1.9688 1.9688v9.0312 0.4375l0.3125 0.28125 1.6875 1.6875v-11.406h10v10h-2v2h2.0312c1.0753 0 1.9688-0.89341 1.9688-1.9688v-10.062c0-1.0753-0.89341-1.9688-1.9688-1.9688z" color="#bebebe" style="block-progression:tb;text-indent:0;text-transform:none"/>
<path d="m338-203c-0.554 0-1 0.446-1 1v4c0 0.554 0.446 1 1 1h4c0.554 0 1-0.446 1-1v-4c0-0.554-0.446-1-1-1h-4zm0 1h2v4h-2v-4z" color="#bebebe"/>
</g>
</svg>
