<svg width="24" height="24" enable-background="new" version="1.1" xmlns="http://www.w3.org/2000/svg">
<path d="m2 6c-2 0-2 0-2 2v8c0 2 0 2 2 2h7.5v-1h-7.5c-1 0-1 0-1-1v-8c0-1 0-1 1-1h8v-1h-8zm9 0-4 7h4l-1 5 4-7h-4l1-5zm0.5 0v1h7.498c1 0 1 0 1 1v8c0 1 0 1-1 1h-7.998v1h7.998c2 0 2 0 2-2v-8c0-2 0-2-2-2h-7.498zm-9.5 2v8h7.5l0.5-2h-5l3.5-6h-6.5zm9.5 0-0.5 2h5l-3.5 6h6.5v-8h-7.5zm10.5 2v4c2 0 2-4 0-4z" clip-rule="evenodd" fill="#ea9ba0" fill-rule="evenodd" stroke-linejoin="round" stroke-miterlimit="1.4142" stroke-width="1.1667"/>
</svg>
