<svg xmlns="http://www.w3.org/2000/svg" width="24" height="24" version="1.1">
<g>
<g>
<g transform="matrix(0.8547 0 0 0.8547 -71.68 -102.53)" fill="#363636" fill-rule="evenodd">
<circle cx="88.2" cy="134" r="2" />
<circle cx="93.1" cy="134" r="2" />
<circle cx="98" cy="134" r="2" />
<circle cx="102.9" cy="134" r="2" />
<circle cx="107.6" cy="134" r="2" />
</g>
</g>
<g transform="matrix(0.40377 0 0 0.40377 7.83 -402.23)" fill="#0ccc77">
<g transform="translate(.056745 .080917)" fill="#0ccc77">
<path d="m15.927 1040.2v-1.9983c0-2.7121-2.2065-4.9187-4.9186-4.9187-2.7121 0-4.9186 2.2066-4.9186 4.9187v1.9983c-0.38761 0.081-0.67966 0.4259-0.67966 0.8373v7.4883c0 0.4717 0.38381 0.8555 0.85557 0.8555h9.4854c0.47176 0 0.85557-0.3838 0.85557-0.8555v-7.4883c0-0.4114-0.292-0.7559-0.67962-0.8373zm-3.7695 6.3834c0.01745 0.093-0.04526 0.1682-0.13937 0.1682h-1.9968c-0.094111 0-0.15683-0.076-0.13937-0.1682l0.31793-1.6849c-0.24067-0.2195-0.39172-0.5357-0.39172-0.887 0-0.6628 0.53734-1.2002 1.2002-1.2002 0.66285 0 1.2002 0.5374 1.2002 1.2002 0 0.3418-0.14314 0.6499-0.37247 0.8686zm2.0584-6.4016h-6.415v-1.9801c0-1.7686 1.4388-3.2074 3.2075-3.2074 1.7686 0 3.2075 1.4389 3.2075 3.2074z" fill="#0ee686" />
</g>
</g>
</g>
</svg>
