<svg width="24" height="24" enable-background="new" version="1.1" xmlns="http://www.w3.org/2000/svg">
<path d="m8.75 19.5v1h7.5v-1z" fill="#363636"/>
<path d="m12 17.641v1.8594h1v-1.8594c-0.33328 0.032503-0.66672 0.032503-1 0z" fill="#363636"/>
<path d="m16.5 12.25c0 5.5-8 5.5-8 0h-1c0 7.25 10 7.25 10 0z" fill="#363636"/>
<path d="m12.5 3.5469c-1.662 0-3 1.338-3 3v6c0 1.662 1.338 3 3 3s3-1.338 3-3v-6c0-1.662-1.338-3-3-3zm0 0.70312c1.2465 0 2.25 1.0035 2.25 2.25v3 3c0 1.2465-1.0035 2.25-2.25 2.25s-2.25-1.0035-2.25-2.25v-3-3c0-1.2465 1.0035-2.25 2.25-2.25z" fill="#363636" style="paint-order:fill markers stroke"/>
<path d="m8.5 12.25v-2.75h-1v2.75z" fill="#363636"/>
<path d="m17.5 12.25v-2.75h-1v2.75z" fill="#363636"/>
</svg>
