<svg width="24" height="24" version="1" xmlns="http://www.w3.org/2000/svg">
<defs>
<style id="current-color-scheme" type="text/css">.ColorScheme-Text { color:#444444; } .ColorScheme-Highlight { color:#5294e2; }</style>
</defs>
<path d="m8 3.5996c-2.4253 0-4.4004 1.9751-4.4004 4.4004 2.408e-4 1.0615 0.41493 2.0653 1.1074 2.8633-0.060288 0.37554-0.10551 0.75426-0.10742 1.1348v0.001953c0 4.0822 3.3182 7.4004 7.4004 7.4004 0.38396-8.1e-4 0.76745-0.04326 1.1465-0.10352 0.79573 0.68857 1.7963 1.1018 2.8535 1.1035 2.4253 0 4.4004-1.9751 4.4004-4.4004-1.86e-4 -1.06-0.41487-2.0618-1.1055-2.8594 0.06063-0.37679 0.10361-0.75688 0.10547-1.1387v-0.001953c0-4.0822-3.3182-7.4004-7.4004-7.4004-0.38332 9.005e-4 -0.76612 0.045318-1.1445 0.10547-0.79598-0.68976-1.7973-1.1036-2.8555-1.1055zm0 0.80078c0.92681 0.00161 1.8155 0.36038 2.4844 1.002l0.14844 0.14062 0.20117-0.037109c0.38515-0.070157 0.77453-0.10455 1.166-0.10547 3.6498 0 6.5885 2.9498 6.5885 6.5996-2e-3 0.38836-0.0262 0.77622-0.09633 1.1582l-0.03711 0.20117 0.14062 0.14844c0.64385 0.67041 1.0037 1.5627 1.0039 2.4922 0 1.993-1.6066 3.5996-3.5996 3.5996-0.92677-0.0015-1.8155-0.36048-2.4844-1.002l-0.14844-0.14062-0.20117 0.03711c-0.38516 0.07006-0.77454 0.10464-1.166 0.10547-3.6492 0-6.5698-2.9507-6.5709-6.5996 0.00207-0.38836 0.00847-0.77623 0.078671-1.1582l0.037109-0.20117-0.14062-0.14844c-0.64392-0.67038-0.98167-1.5626-0.98188-2.4922 0-1.993 1.5846-3.5996 3.5776-3.5996z" color="#444444" color-rendering="auto" dominant-baseline="auto" fill="#363636" image-rendering="auto" shape-rendering="auto" solid-color="#000000" style="font-feature-settings:normal;font-variant-alternates:normal;font-variant-caps:normal;font-variant-ligatures:normal;font-variant-numeric:normal;font-variant-position:normal;isolation:auto;mix-blend-mode:normal;shape-padding:0;text-decoration-color:#000000;text-decoration-line:none;text-decoration-style:solid;text-indent:0;text-orientation:mixed;text-transform:none;white-space:normal"/>
<path class="ColorScheme-Text" d="m-22.069-4.0812" fill="currentColor"/>
</svg>
