<svg width="1e3" height="1e3" version="1.1" xmlns="http://www.w3.org/2000/svg">
<path d="m219.14 999.45c-20.582-3.2671-37.509-11.948-51.185-26.249-7.7599-8.1149-11.462-13.509-16.178-23.572-5.6204-11.994-7.8574-22.421-7.8574-36.625 0-14.204 2.237-24.631 7.8574-36.625 4.7157-10.063 8.4177-15.457 16.178-23.572 16.834-17.604 38.059-26.6 62.762-26.6 14.204 0 24.631 2.237 36.625 7.8574 10.063 4.7158 15.457 8.4177 23.572 16.178 17.604 16.834 26.6 38.059 26.6 62.762 0 24.703-8.9956 45.928-26.6 62.762-3.5853 3.4286-8.5823 7.6401-11.104 9.3589-7.1414 4.8669-19.538 10.309-28.292 12.421-9.2593 2.2337-24.612 3.1365-32.377 1.9038zm381.22-99.413c-11.85-1.8265-25.971-6.4839-47.098-15.534-33.874-14.511-49.86-18.255-78.38-18.356-29.261-0.10403-45.728 3.5936-80.755 18.134-19.828 8.231-32.303 12.943-32.764 12.375-0.12389-0.15249-0.93761-5.313-1.8083-11.468-5.7639-40.744-30.72-76.016-66.953-94.627-31.065-15.957-65.393-18.609-98.338-7.596-6.2028 2.0734-11.39 3.6433-11.527 3.4886-1.6998-1.9184-14.388-22.373-20.506-33.058-33.466-58.449-58.573-131.7-68.223-199.04-3.5648-24.876-4.3554-36.699-4.3518-65.079 7e-3 -51.646 7.0676-89.582 24.172-129.87 4.1808-9.8468 15.019-30.067 20.019-37.348l1.4592-2.1249 6.8904 3.4699c30.899 15.561 68.902 15.734 99.184 0.45335 22.691-11.45 42.308-32.185 52.235-55.213 5.7717-13.388 9.2474-29.265 9.2882-42.431l0.019-6.0692 15.913 0.54169c25.705 0.87501 45.322 5.9746 89.675 23.312 52.018 20.333 55.077 20.337 106.75 0.13204 54.135-21.168 81.639-27.528 113.53-26.251 25.67 1.0279 45.893 4.536 67.454 11.701 40.296 13.391 74.439 37.828 99.691 71.352l4.8241 6.4044-2.1091 1.4251c-46.911 31.696-78.003 74.299-89.956 123.26-3.9971 16.373-5.2271 27.219-5.1998 45.852 0.0361 24.669 2.9024 43.473 9.8703 64.751 15.858 48.425 52.547 90.344 100.25 114.54l10.676 5.4146-4.088 11.935c-17.421 50.859-42.145 95.924-82.11 149.66-18.447 24.802-37.079 44.449-52.887 55.767-25.885 18.533-53.123 24.985-84.844 20.095zm-215.26-138.08c4.1802-1.0742 14.868-4.8862 23.751-8.471 24.678-9.9589 29.637-11.028 50.828-10.953 20.459 0.0718 23.551 0.77983 49.281 11.282 18.692 7.6296 23.834 9.0036 36.224 9.6802 16.648 0.9093 31.342-3.7109 45.24-14.225 22.577-17.08 56.32-64.847 72.936-103.25 5.2719-12.184 11.578-29.33 10.924-29.702-0.20179-0.11463-2.932-1.484-6.0671-3.043-23.031-11.452-44.533-32.813-55.455-55.087-8.4095-17.152-11.485-29.716-12.217-49.91-1.2057-33.264 7.3516-57.941 29.114-83.958 6.1497-7.352 20.379-20.085 26.444-23.664 1.6983-1.002 3.0878-2.3825 3.0878-3.0677 0-1.762-6.857-10.289-14.192-17.647-13.168-13.211-30.243-23.662-48.649-29.775-12.184-4.047-20.82-5.8039-35.485-7.2194-22.43-2.165-38.792 1.2529-77.435 16.176-9.1443 3.5313-19.901 7.1473-23.905 8.0355-6.6254 1.47-7.9523 1.4878-14.788 0.19853-4.1304-0.779-16.46-4.8334-27.399-9.0098-31.699-12.102-39.274-13.93-57.416-13.851-25.767 0.11206-50.464 8.0276-73.028 23.406-10.487 7.1474-28.919 25.903-36.135 36.769-17.362 26.145-26.397 54.981-28.478 90.89-3.8709 66.803 19.419 143.44 62.217 204.73 32.832 47.019 57.223 65.523 84.45 64.07 4.7028-0.2511 11.971-1.3355 16.151-2.4097zm426.87-191.93c-20.582-3.2672-37.509-11.948-51.185-26.249-7.76-8.1149-11.462-13.509-16.178-23.572-5.6204-11.994-7.8574-22.421-7.8574-36.625s2.237-24.631 7.8574-36.625c4.7157-10.063 8.4177-15.457 16.178-23.572 16.834-17.604 38.059-26.6 62.762-26.6 14.204 0 24.631 2.237 36.625 7.8575 10.063 4.7157 15.457 8.4177 23.572 16.178 17.604 16.834 26.6 38.059 26.6 62.762s-8.9956 45.928-26.6 62.762c-3.5853 3.4285-8.5823 7.64-11.104 9.3588-7.1414 4.867-19.538 10.309-28.292 12.421-9.2592 2.2337-24.612 3.1365-32.377 1.9039zm-638.26-274.64c-27.278-3.5115-52.242-20.91-65.423-45.594-22.552-42.234-6.3971-94.934 36.048-117.6 37.299-19.917 83.583-9.8842 109.74 23.788 13.325 17.152 20.074 40.951 17.588 62.028-4.8356 41.002-35.696 72.34-76.243 77.424-8.8574 1.1106-12.787 1.1021-21.713-0.0469zm281.69-89.235c-1.2814-4.0373-0.66618-28.688 0.96981-38.858 4.1086-25.541 15.027-53.016 30.612-77.033 25.867-39.86 69.077-71.607 115.21-84.641 10.579-2.9892 24.802-5.6036 30.521-5.61 3.0983-0.0038 3.5035 0.29413 4.0377 2.9651 0.92431 4.6217 0.69943 22.736-0.4089 32.933-5.7796 53.176-36.899 107.37-79.925 139.19-27.362 20.235-56.936 31.353-86.886 32.664l-13.43 0.58773-0.69743-2.1973z" fill="#e8f1f5" fill-opacity=".68235"/>
</svg>
