<?xml version="1.0" encoding="UTF-8" standalone="no"?>
<svg
   width="16"
   height="16"
   version="1.1"
   id="svg4"
   sodipodi:docname="drive-harddisk-usb-symbolic.svg"
   inkscape:version="1.4.2 (ebf0e94, 2025-05-08)"
   xmlns:inkscape="http://www.inkscape.org/namespaces/inkscape"
   xmlns:sodipodi="http://sodipodi.sourceforge.net/DTD/sodipodi-0.dtd"
   xmlns="http://www.w3.org/2000/svg"
   xmlns:svg="http://www.w3.org/2000/svg">
  <defs
     id="defs4" />
  <sodipodi:namedview
     id="namedview4"
     pagecolor="#ffffff"
     bordercolor="#000000"
     borderopacity="0.25"
     inkscape:showpageshadow="2"
     inkscape:pageopacity="0.0"
     inkscape:pagecheckerboard="0"
     inkscape:deskcolor="#d1d1d1"
     inkscape:zoom="21.138889"
     inkscape:cx="18"
     inkscape:cy="18"
     inkscape:window-width="1920"
     inkscape:window-height="972"
     inkscape:window-x="0"
     inkscape:window-y="0"
     inkscape:window-maximized="1"
     inkscape:current-layer="svg4" />
  <g
     id="g4"
     transform="translate(-1.0976777)">
    <path
       d="m 2.8682222,12.186667 v 2.0408 c 0,0.489022 0.3937956,0.8828 0.8828,0.8828 H 14.429689 c 0.489022,0 0.8828,-0.393796 0.8828,-0.8828 v -2.032134 c -0.278445,0.153929 -0.595556,0.248263 -0.927067,0.248263 H 3.8107556 c -0.3377467,0 -0.6607112,-0.09763 -0.9427112,-0.256947 z"
       fill-opacity="0.90196"
       opacity="0.05"
       id="path1"
       style="stroke-width:0.444444" />
    <path
       d="m 4.6488,0.88888889 c -0.4890222,0 -0.8342222,0.39621331 -0.8828,0.88280001 L 2.8771111,10.672578 c -0.048591,0.486578 0.3937956,0.8828 0.8828,0.8828 H 6.1028 h 7.440889 0.888889 0.0061 c 0.489023,0 0.931423,-0.396214 0.8828,-0.8828 L 14.432564,1.7716889 c -0.0486,-0.4865778 -0.39379,-0.88280001 -0.882799,-0.88280001 h -0.0061 -0.888889 -5.6631112 z"
       fill="#e8f1f5"
       fill-opacity="0.60456"
       opacity="0.3"
       id="path2"
       style="stroke-width:0.444444" />
    <path
       d="M 4.6993333,0 C 3.6889333,0 2.9771111,0.81848889 2.8755556,1.8237778 L 1.9866667,10.620667 c -0.00267,0.02524 -0.00133,0.04965 -0.00267,0.07465 -8.889e-4,-0.02507 -0.0052,-0.04932 -0.0052,-0.07465 v 3.555555 C 1.9788,15.186622 2.7921778,16 3.8025778,16 H 14.377244 c 1.0104,0 1.823778,-0.813378 1.823778,-1.823778 v -3.188355 c 0.01729,-0.118591 0.02053,-0.241529 0.0078,-0.367191 L 15.319956,1.8237867 C 15.218422,0.81849778 14.506622,8.8888889e-6 13.496222,8.8888889e-6 H 4.6993333 Z m -0.052084,0.88888889 h 2.3428889 5.6631108 0.888889 0.0061 c 0.489022,0 0.834222,0.39621331 0.8828,0.88280001 l 0.888889,8.9008891 c 0.04858,0.486578 -0.393809,0.8828 -0.882845,0.8828 H 14.430982 13.542093 6.1012048 3.758316 c -0.4890223,0 -0.9314223,-0.396214 -0.8828,-0.8828 L 3.7644044,1.7716889 C 3.8130089,1.2851111 4.1582133,0.88888889 4.6472493,0.88888889 Z M 2.8677378,12.187556 c 0.2820178,0.15932 0.6049778,0.256946 0.9427111,0.256946 H 14.385116 c 0.331533,0 0.648622,-0.09433 0.927066,-0.248262 v 2.032133 c 0,0.489023 -0.393795,0.8828 -0.8828,0.8828 h -0.0061 -0.888889 -7.4408884 -2.3428889 c -0.4890223,0 -0.8828,-0.393795 -0.8828,-0.8828 v -2.0408 z"
       fill="#e8f1f5"
       fill-opacity="0.8251"
       opacity="0.816"
       id="path3"
       style="stroke-width:0.444444" />
    <path
       d="m 3.7964,13.337778 c -0.3315333,0 -0.6486222,0.09433 -0.9270667,0.248262 v 0.642356 c 0,0.489022 0.3937956,0.8828 0.8828,0.8828 H 14.4308 c 0.489022,0 0.8828,-0.393796 0.8828,-0.8828 v -0.633689 c -0.282018,-0.15932 -0.604978,-0.256943 -0.942711,-0.256943 H 3.7962222 Z"
       fill="#e8f1f5"
       fill-opacity="0.63498"
       opacity="0.15"
       id="path4"
       style="stroke-width:0.444444" />
  </g>
</svg>
