<svg xmlns="http://www.w3.org/2000/svg" width="36" height="36" version="1.1">
<g>
<path transform="translate(0 0)" d="m7.9863 2c-1.1003 0-1.877 0.89148-1.9863 1.9863l-2 20.027c-0.10933 1.0948 0.88604 1.9863 1.9863 1.9863h5.2715 16.742 2 0.013672c1.1003 0 2.0957-0.89148 1.9863-1.9863l-2-20.027c-0.10936-1.0948-0.88603-1.9863-1.9863-1.9863h-0.013672-2-12.742-5.2715zm10.408 1.4414c0.04014-0.0014999 0.080341 0.0031719 0.11914 0.013672 0.11749 0.03233 0.21382 0.11646 0.26172 0.22852 2e-3 0.0036999 0.003859 0.0077187 0.005859 0.011719l0.003906 0.0097656 1.2383 2.8672c0.11399 0.26406-0.079578 0.55853-0.36719 0.55859h-0.67383v7.1855c0.08868-0.0789 0.1596-0.18686 0.25-0.25976 0.72278-0.58265 1.4627-1.0576 1.9219-1.6465 7e-3 -0.05527 0.015484-0.12946 0.021484-0.22656 0.0117-0.23461 0.016672-0.54215 0.013672-0.8457-0.0025-0.24409-0.011578-0.47149-0.017578-0.68359h-0.49219c-0.22121 1.9e-4 -0.40058-0.17918-0.40039-0.40039v-2.459c-1.9e-4 -0.22121 0.17918-0.40058 0.40039-0.40039h2.4551c0.22121-1.9e-4 0.40058 0.17918 0.40039 0.40039v2.459c1.9e-4 0.22121-0.17918 0.40058-0.40039 0.40039h-0.71289c0.0057 0.20943 0.011672 0.42754 0.013672 0.67188 0.0031 0.31877 0.005134 0.6412-0.009766 0.92188-0.0074 0.1378-0.016956 0.26587-0.035156 0.38672-0.01222 0.08132-0.036501 0.26579-0.15039 0.4375-0.0047 0.0066-0.008672 0.013531-0.013672 0.019531l-0.001953 0.003906c-0.0113 0.0152-0.023709 0.029569-0.037109 0.042969l0.035156-0.042969c-0.65464 0.88896-1.5603 1.4123-2.207 1.9336-0.65283 0.52624-1.0254 0.9326-1.0254 1.7305 0 0.0256-0.002812 0.051071-0.007812 0.076172v2.0547c1e-3 0.0068 9.53e-4 0.003731 0.001953 0.019531 2e-3 0.0267 0.001047 0.053478-0.001953 0.080078v1.1758c0.79626 0.2724 1.4219 0.93523 1.4219 1.8203 0 1.1131-0.91035 2.0234-2.0234 2.0234-1.1131 0-2.0254-0.90933-2.0254-2.0234 0-0.86913 0.60339-1.5238 1.377-1.8086v-1.1816c-0.09585-0.73013-0.72707-1.3953-1.4727-2.0312-0.38015-0.32423-0.77658-0.63679-1.1074-0.98047-0.32955-0.34236-0.64834-0.7667-0.65234-1.3184-0.0034-0.49968 0.009578-0.83679 0.017578-1.2383-0.65685-0.29554-1.1621-0.88162-1.1621-1.6445 0-1.0372 0.85063-1.8828 1.8867-1.8828 1.0361 0 1.8848 0.84672 1.8848 1.8828 0 0.83635-0.60305 1.4551-1.3613 1.6992-0.0076 0.38849-0.018625 0.71312-0.015625 1.1738 2e-4 0.0287 0.063251 0.21417 0.30078 0.46094 0.24029 0.24961 0.61898 0.5529 1.0195 0.89453 0.22698 0.19359 0.43262 0.47522 0.66211 0.70508v-9.5859h-0.63477c-0.28978-0.00102-0.48239-0.30026-0.36328-0.56445l1.2969-2.8574c0.0037-0.0113 0.008672-0.022303 0.013672-0.033203 0.0627-0.13807 0.19807-0.22837 0.34961-0.23438z" fill="#e8f1f5" fill-opacity=".50588" />
<path d="m8.1 0c-2.2734 0-3.875 1.8416-4.1035 4.1035l-2 19.793c-6e-3 0.0568-3e-3 0.11172-6e-3 0.16797-2e-3 -0.0564-0.0117-0.11098-0.0117-0.16797v8c0 2.2734 1.8301 4.1035 4.1035 4.1035h23.793c2.2734 0 4.1035-1.8301 4.1035-4.1035v-7.1738c0.0389-0.26683 0.0462-0.54344 0.0176-0.82618l-2-19.793c-0.22845-2.2619-1.83-4.1035-4.1034-4.1035h-19.793zm-0.11719 2h5.2715 12.742 2 0.0137c1.1003 0 1.877 0.89148 1.9863 1.9863l2 20.027c0.1093 1.0948-0.88607 1.9863-1.9864 1.9863h-0.0137-2-16.742-5.2715c-1.1003 0-2.0957-0.89148-1.9863-1.9863l2-20.027c0.10936-1.0948 0.88607-1.9863 1.9864-1.9863zm-4.0039 25.422c0.63454 0.35847 1.3612 0.57813 2.1211 0.57813h23.793c0.74595 0 1.4594-0.21225 2.0859-0.55859v4.5723c0 1.1003-0.88604 1.9863-1.9863 1.9863h-0.0137-2-16.742-5.2715c-1.1003 0-1.9863-0.88604-1.9863-1.9863v-4.5918z" fill="#e8f1f5" fill-opacity=".83137" opacity=".813" />
<rect x="186" y="-472" width="2" height="2" fill="#f5f7f8" fill-opacity=".95" opacity=".75" />
<path transform="translate(0 0)" d="m6.0684 30.01c-0.74595 0-1.4594 0.21225-2.0859 0.55859v1.4453c0 1.1003 0.88604 1.9863 1.9863 1.9863h24.027c1.1003 0 1.9863-0.88604 1.9863-1.9863v-1.4258c-0.63454-0.35847-1.3612-0.57812-2.1211-0.57812h-23.793z" fill="#e8f1f5" fill-opacity=".9171" opacity=".2" />
</g>
</svg>
