<?xml version="1.0" encoding="UTF-8" standalone="no"?>
<svg
   width="36"
   height="36"
   version="1.1"
   id="svg3"
   sodipodi:docname="folder-visiting-symbolic.svg"
   xmlns:inkscape="http://www.inkscape.org/namespaces/inkscape"
   xmlns:sodipodi="http://sodipodi.sourceforge.net/DTD/sodipodi-0.dtd"
   xmlns="http://www.w3.org/2000/svg"
   xmlns:svg="http://www.w3.org/2000/svg">
  <defs
     id="defs3" />
  <sodipodi:namedview
     id="namedview3"
     pagecolor="#ffffff"
     bordercolor="#000000"
     borderopacity="0.25"
     inkscape:showpageshadow="2"
     inkscape:pageopacity="0.0"
     inkscape:pagecheckerboard="0"
     inkscape:deskcolor="#d1d1d1" />
  <g
     fill="#e8f1f5"
     id="g3">
    <path
       d="M 2.1211,2.9746 C 0.9459,2.9746 0,3.92048 0,5.0957 v 3.0254 4 0.74805 17.01 c 0,1.1752 0.94588,2.1211 2.1211,2.1211 h 31.758 c 1.1752,0 2.1211,-0.94588 2.1211,-2.1211 v -17.758 -4 c 0,-1.1752 -0.94588,-2.1211 -2.1211,-2.1211 H 14.3421 C 13.0374,5.949004 12.7124,5.35274 12.0008,4.41075 11.2892,3.46876 10.8334,2.97475 9.8792,2.97475 Z m 1.166,2 h 5.4258 c 1.3355,0 1.7571,1.0151 2.2718,1.5299 C 11.4994,7.0193 12.9431,8 13.7558,8 h 18.957 c 0.71285,0 1.2871,0.57426 1.2871,1.2871 v 7.7793 c -0.04097,-0.0023 -0.07952,-0.01172 -0.12109,-0.01172 h -31.758 c -0.041573,0 -0.080126,0.0094 -0.12109,0.01172 V 6.2614 c 0,-0.71285 0.57426,-1.2871 1.2871,-1.2871 z m 0,14.08 h 29.426 c 0.71285,0 1.2871,0.57426 1.2871,1.2871 v 8.3711 c 0,0.71285 -0.57426,1.2871 -1.2871,1.2871 H 3.2871 C 2.57425,29.9999 2,29.42564 2,28.7128 v -3.7676 -4.6035 c 0,-0.71285 0.57426,-1.2871 1.2871,-1.2871 z"
       fill-opacity="0.93536"
       opacity="0.75"
       id="path1" />
    <path
       d="m 3.2871,19.055 h 29.426 c 0.71285,0 1.2871,0.57426 1.2871,1.2871 v 8.3711 c 0,0.71285 -0.57426,1.2871 -1.2871,1.2871 H 3.2871 C 2.57425,30.0003 2,29.42604 2,28.7132 V 20.3421 C 2,19.62925 2.57426,19.055 3.2871,19.055 Z"
       fill-opacity="0.68235"
       opacity="0.40056"
       id="path2" />
    <path
       d="m 2,28 v 0.71289 c 0,0.71285 0.57426,1.2871 1.2871,1.2871 h 29.426 c 0.71285,0 1.2871,-0.57426 1.2871,-1.2871 V 28 h -32 z"
       fill-opacity="0.71103"
       opacity="0.3"
       id="path3" />
  </g>
</svg>
