<?xml version="1.0" encoding="UTF-8" standalone="no"?>
<svg
   width="16"
   height="16"
   version="1.1"
   id="svg5"
   sodipodi:docname="folder-download-symbolic.svg"
   inkscape:version="1.4.2 (ebf0e94, 2025-05-08)"
   xmlns:inkscape="http://www.inkscape.org/namespaces/inkscape"
   xmlns:sodipodi="http://sodipodi.sourceforge.net/DTD/sodipodi-0.dtd"
   xmlns="http://www.w3.org/2000/svg"
   xmlns:svg="http://www.w3.org/2000/svg">
  <defs
     id="defs5" />
  <sodipodi:namedview
     id="namedview5"
     pagecolor="#ffffff"
     bordercolor="#000000"
     borderopacity="0.25"
     inkscape:showpageshadow="2"
     inkscape:pageopacity="0.0"
     inkscape:pagecheckerboard="0"
     inkscape:deskcolor="#d1d1d1"
     inkscape:zoom="21.138889"
     inkscape:cx="18"
     inkscape:cy="18"
     inkscape:window-width="1920"
     inkscape:window-height="972"
     inkscape:window-x="0"
     inkscape:window-y="0"
     inkscape:window-maximized="1"
     inkscape:current-layer="svg5" />
  <g
     id="g5"
     transform="matrix(0.46376973,0,0,0.46376973,-0.34702847,-0.3476534)">
    <g
       transform="matrix(0.95833,0,0,0.95833,-422.594,-154.979)"
       id="g4">
      <path
         d="m 459.75,162.5 a 18,18 0 0 0 -18,18 18,18 0 0 0 18,18 18,18 0 0 0 18,-18 18,18 0 0 0 -18,-18 z m 0,2 a 16,16 0 0 1 16,16 16,16 0 0 1 -16,16 16,16 0 0 1 -16,-16 16,16 0 0 1 16,-16 z"
         fill="#f6fafc"
         fill-opacity="0.492"
         opacity="0.878"
         id="path1" />
      <path
         d="m 459.75,164.5 a 16,16 0 0 0 -16,16 16,16 0 0 0 16,16 16,16 0 0 0 16,-16 16,16 0 0 0 -16,-16 z m -4,6 h 8 v 10 h 6 l -10,12.5 -10,-12.5 h 6 z"
         fill="#e8f1f5"
         fill-opacity="0.68127"
         id="path2" />
      <path
         d="m 454.61,168.23 a 1.134,1.134 0 0 0 -1.1348,1.1348 v 8.8613 h -6.084 a 1.134,1.134 0 0 0 -0.88477,1.8438 l 12.357,15.449 a 1.134,1.134 0 0 0 1.7695,0 l 12.357,-15.449 a 1.134,1.134 0 0 0 -0.88476,-1.8438 h -6.0918 v -8.8613 a 1.134,1.134 0 0 0 -1.1348,-1.1348 z m 1.1367,2.2656 h 8 v 10 h 6 l -10,12.5 -10,-12.5 h 6 z"
         color="#000000"
         color-rendering="auto"
         dominant-baseline="auto"
         fill="#88c3cb"
         fill-opacity="0.067358"
         image-rendering="auto"
         shape-rendering="auto"
         solid-color="#000000"
         style="font-variant-ligatures:normal;font-variant-position:normal;font-variant-caps:normal;font-variant-numeric:normal;font-variant-alternates:normal;font-feature-settings:normal;text-indent:0;text-decoration-line:none;text-decoration-style:solid;text-decoration-color:#000000;text-transform:none;text-orientation:mixed;white-space:normal;shape-padding:0;isolation:auto;mix-blend-mode:normal"
         id="path3" />
      <path
         d="m 454.61,169.37 v 9.9961 h -7.2188 l 12.357,15.449 12.357,-15.449 h -7.2266 V 169.37 Z m 1.1367,1.1309 h 8 v 10 h 6 l -10,12.5 -10,-12.5 h 6 z"
         color="#000000"
         color-rendering="auto"
         dominant-baseline="auto"
         fill="#ffffff"
         fill-opacity="0.12"
         image-rendering="auto"
         shape-rendering="auto"
         solid-color="#000000"
         style="font-variant-ligatures:normal;font-variant-position:normal;font-variant-caps:normal;font-variant-numeric:normal;font-variant-alternates:normal;font-feature-settings:normal;text-indent:0;text-decoration-line:none;text-decoration-style:solid;text-decoration-color:#000000;text-transform:none;text-orientation:mixed;white-space:normal;shape-padding:0;isolation:auto;mix-blend-mode:normal"
         id="path4" />
    </g>
  </g>
</svg>
