<?xml version="1.0" encoding="UTF-8" standalone="no"?>
<!-- Created with Inkscape (http://www.inkscape.org/) -->

<svg
   id="svg7384"
   sodipodi:docname="folder-public-symbolic.svg"
   version="1.1"
   inkscape:version="1.4.2 (ebf0e94, 2025-05-08)"
   height="16"
   width="16"
   xmlns:inkscape="http://www.inkscape.org/namespaces/inkscape"
   xmlns:sodipodi="http://sodipodi.sourceforge.net/DTD/sodipodi-0.dtd"
   xmlns:xlink="http://www.w3.org/1999/xlink"
   xmlns="http://www.w3.org/2000/svg"
   xmlns:svg="http://www.w3.org/2000/svg"
   xmlns:rdf="http://www.w3.org/1999/02/22-rdf-syntax-ns#"
   xmlns:cc="http://creativecommons.org/ns#"
   xmlns:dc="http://purl.org/dc/elements/1.1/">
  <metadata
     id="metadata90">
    <rdf:RDF>
      <cc:Work
         rdf:about="">
        <dc:format>image/svg+xml</dc:format>
        <dc:type
           rdf:resource="http://purl.org/dc/dcmitype/StillImage" />
        <dc:title>Gnome Symbolic Icon Theme</dc:title>
      </cc:Work>
    </rdf:RDF>
  </metadata>
  <sodipodi:namedview
     inkscape:cy="9.0625005"
     pagecolor="#ffffff"
     borderopacity="1"
     showborder="true"
     inkscape:bbox-paths="false"
     guidetolerance="10"
     inkscape:window-width="1920"
     showguides="true"
     inkscape:object-nodes="true"
     inkscape:snap-bbox="true"
     inkscape:pageshadow="2"
     inkscape:guide-bbox="true"
     inkscape:snap-nodes="true"
     bordercolor="#666666"
     objecttolerance="10"
     id="namedview88"
     showgrid="false"
     inkscape:window-maximized="1"
     inkscape:window-x="0"
     inkscape:snap-global="true"
     inkscape:window-y="0"
     gridtolerance="10"
     inkscape:window-height="972"
     inkscape:snap-to-guides="true"
     inkscape:current-layer="layer13"
     inkscape:zoom="7.9999996"
     inkscape:cx="-9.4375005"
     inkscape:snap-grids="true"
     inkscape:pageopacity="1"
     inkscape:showpageshadow="2"
     inkscape:pagecheckerboard="0"
     inkscape:deskcolor="#d1d1d1">
    <inkscape:grid
       spacingx="1"
       spacingy="1"
       id="grid4866"
       empspacing="2"
       enabled="true"
       type="xygrid"
       snapvisiblegridlinesonly="true"
       visible="true"
       originx="0"
       originy="0"
       units="px" />
  </sodipodi:namedview>
  <title
     id="title9167">Gnome Symbolic Icon Theme</title>
  <defs
     id="defs7386">
    <linearGradient
       id="3"
       x1="404.32999"
       y1="542.40002"
       x2="403.76001"
       y2="525.04999"
       gradientUnits="userSpaceOnUse"
       gradientTransform="matrix(1.7590513,0,0,1.7590513,-278.68923,-749.15206)">
      <stop
         id="stop4529"
         stop-color="#289bf7" />
      <stop
         id="stop4531"
         stop-color="#4caaf4"
         offset="1" />
    </linearGradient>
    <linearGradient
       gradientUnits="userSpaceOnUse"
       y2="527.62"
       x2="400.56"
       y1="538.78003"
       x1="400.85001"
       id="4"
       xlink:href="#1"
       gradientTransform="matrix(1.7590513,0,0,1.7590513,-278.68923,-749.15206)" />
    <linearGradient
       id="2"
       x1="-701.19"
       y1="647.77002"
       x2="-704.04999"
       y2="354.29001"
       gradientUnits="userSpaceOnUse"
       gradientTransform="matrix(0.00963442,0,0,0.00963442,538.71258,153.50507)">
      <stop
         id="stop4535"
         stop-color="#9fd2fa" />
      <stop
         id="stop4537"
         stop-color="#cde8fe"
         offset="1" />
    </linearGradient>
    <linearGradient
       gradientTransform="matrix(0.40977578,0,0,0.40907594,385.56502,183.73148)"
       gradientUnits="userSpaceOnUse"
       y2="-37.783001"
       x2="59.150002"
       y1="-13.295"
       x1="59.119999"
       id="0"
       xlink:href="#1" />
    <linearGradient
       id="1">
      <stop
         id="stop4541"
         stop-color="#289bf7" />
      <stop
         id="stop4543"
         stop-color="#71b9f1"
         offset="1" />
    </linearGradient>
  </defs>
  <g
     inkscape:label="places"
     transform="matrix(0.46376812,0,0,0.46376812,-205.33334,-72.695653)"
     inkscape:groupmode="layer"
     id="layer13">
    <path
       id="path4401"
       d="M 460,156.75 A 17.25,17.25 0 0 0 442.75,174 17.25,17.25 0 0 0 460,191.25 17.25,17.25 0 0 0 477.25,174 17.25,17.25 0 0 0 460,156.75 Z m 0,1.91668 A 15.333333,15.333333 0 0 1 475.33333,174 15.333333,15.333333 0 0 1 460,189.33332 15.333333,15.333333 0 0 1 444.66667,174 15.333333,15.333333 0 0 1 460,158.66668 Z"
       style="opacity:1;fill:#e8f1f5;fill-opacity:0.638655;stroke:none;stroke-width:0.958333"
       inkscape:connector-curvature="0" />
    <path
       style="opacity:1;fill:#e8f1f5;fill-opacity:0.425;stroke:none;stroke-width:0.958333"
       d="M 18,2.6660156 C 9.53164,2.6660156 2.6660256,9.53164 2.6660156,18 2.6660256,26.46836 9.53164,33.333984 18,33.333984 26.46836,33.333984 33.333974,26.46836 33.333984,18 33.333974,9.53164 26.46836,2.6660156 18,2.6660156 Z m -3.921875,3.1972656 c 0.19272,0 0.389187,0.020094 0.585937,0.058594 1.57833,0.3124 2.613336,1.8494044 2.296876,3.4277344 -0.312431,1.5783294 -1.85512,2.6053984 -3.4375,2.2929684 -1.57833,-0.31242 -2.605379,-1.8494041 -2.292969,-3.427734 0.23534,-1.1847601 1.16366,-2.0617088 2.27539,-2.2929688 h 0.0039 c 0.18461,-0.0378 0.375529,-0.058594 0.568359,-0.058594 z M 17.785156,11.5625 c 0.18815,0.0044 0.372251,0.02937 0.550782,0.07227 l 4.017578,0.734375 c 0.11759,0.02076 0.22833,0.06048 0.33789,0.113281 l 2.923828,1.414062 c 0.66139,0.32054 0.941614,1.117927 0.621094,1.779297 -0.23128,0.47472 -0.708125,0.751953 -1.203125,0.751953 -0.19467,0 -0.393468,-0.04547 -0.580078,-0.134765 l -2.757813,-1.333985 -1.228515,-0.228515 0.945312,4.4375 c 0.0165,0.08936 0.03376,0.176325 0.0059,0.265625 l 1.701172,4.392578 3.591797,3.007812 c 0.66937,0.56398 0.757175,1.562788 0.197265,2.236328 -0.31242,0.373301 -0.762357,0.5625 -1.216797,0.5625 -0.3611,0 -0.721388,-0.11757 -1.017578,-0.36914 l -3.90039,-3.275391 C 20.570687,25.817831 20.4098,25.595156 20.3125,25.347656 l -1.214844,-3.130859 c -0.0245,3.9e-4 -0.05754,0 -0.08594,0 l -2.392578,2.095703 -0.675782,4.472656 c -0.11764,0.78308 -0.7916,1.351563 -1.5625,1.351563 -0.08126,0 -0.166846,-0.0061 -0.248047,-0.01758 -0.86423,-0.13378 -1.450172,-0.938515 -1.320312,-1.802735 l 0.761719,-5.050781 c 0.05674,-0.36922 0.241534,-0.705779 0.521484,-0.949219 l 2.324219,-2.041015 c 0,-0.0162 -0.0087,-0.03389 -0.01367,-0.05469 l -0.904297,-4.248047 -1.203125,0.941406 c -0.12571,0.09734 -0.269748,0.172004 -0.423828,0.220704 l -3.423828,1.072265 c -0.13379,0.0046 -0.270531,0.06836 -0.400391,0.06836 -0.5680397,0 -1.0870947,-0.36946 -1.2656248,-0.9375 -0.21913,-0.70194 0.1671707,-1.456652 0.8691407,-1.675782 l 3.1992191,-0.996093 3.193359,-2.496094 c 0.0245,-0.0208 0.05754,-0.03779 0.08594,-0.05859 0.29619,-0.23531 0.647436,-0.405134 1.041016,-0.490234 l 0.03906,-0.0059 c 0.19274,-0.0402 0.384045,-0.05773 0.572265,-0.05273 z"
       transform="translate(442,156)"
       id="circle4403" />
    <path
       style="color:#000000;font-style:normal;font-variant:normal;font-weight:normal;font-stretch:normal;font-size:medium;line-height:normal;font-family:sans-serif;font-variant-ligatures:normal;font-variant-position:normal;font-variant-caps:normal;font-variant-numeric:normal;font-variant-alternates:normal;font-feature-settings:normal;text-indent:0;text-align:start;text-decoration:none;text-decoration-line:none;text-decoration-style:solid;text-decoration-color:#000000;letter-spacing:normal;word-spacing:normal;text-transform:none;writing-mode:lr-tb;direction:ltr;text-orientation:mixed;dominant-baseline:auto;baseline-shift:baseline;text-anchor:start;white-space:normal;shape-padding:0;clip-rule:nonzero;display:inline;overflow:visible;visibility:visible;opacity:1;isolation:auto;mix-blend-mode:normal;color-interpolation:sRGB;color-interpolation-filters:linearRGB;solid-color:#000000;solid-opacity:1;vector-effect:none;fill:#e8f1f5;fill-opacity:0.225;fill-rule:nonzero;stroke:none;stroke-width:2;stroke-linecap:butt;stroke-linejoin:miter;stroke-miterlimit:4;stroke-dasharray:none;stroke-dashoffset:0;stroke-opacity:1;color-rendering:auto;image-rendering:auto;shape-rendering:auto;text-rendering:auto;enable-background:accumulate"
       d="m 14.078125,4.8632812 c -0.19872,0 -0.387372,0.029294 -0.576172,0.058594 h -0.09961 l -0.0918,0.019531 -0.0098,0.00195 c -1.49666,0.31133 -2.735941,1.4911918 -3.050781,3.0761718 -0.4175,2.10923 0.969748,4.185786 3.080078,4.603516 0.17601,0.0348 0.342928,-0.01225 0.517578,-0.002 l -1.466797,1.144531 -3.0253902,0.941406 c -1.2257901,0.38265 -1.9050007,1.713678 -1.5253907,2.929688 0.30771,0.97907 1.2195831,1.638672 2.2207029,1.638672 0.45329,0 0.591637,-0.07366 0.435547,-0.06836 l 0.134766,-0.0059 3.554687,-1.111328 v -0.002 c 0.24366,-0.077 0.469475,-0.201326 0.677735,-0.353516 l 0.464843,2.177734 -1.878906,1.648438 c -0.46031,0.40027 -0.760885,0.951907 -0.853515,1.554687 l -0.761719,5.052735 c -0.20905,1.3912 0.758977,2.723463 2.154297,2.939453 h 0.0078 l 0.0059,0.002 c 0.12173,0.0172 0.249981,0.02734 0.388671,0.02734 1.26188,0 2.359482,-0.933832 2.550782,-2.201172 v -0.002 l 0.621093,-4.111328 1.105469,-0.96875 0.722656,1.859375 0.002,0.002 c 0.159,0.40444 0.414004,0.759882 0.746094,1.039062 l 3.898438,3.271485 c 0.4842,0.41125 1.085422,0.607421 1.664062,0.607421 0.73292,0 1.476045,-0.314494 1.984375,-0.921874 v -0.002 h 0.002 c 0.9032,-1.08648 0.757915,-2.728552 -0.322265,-3.638672 l -0.002,-0.002 -3.394532,-2.84375 -1.570312,-4.050781 c -0.008,-0.0454 0.0099,-0.16553 0.0059,-0.1875 l -0.002,-0.01367 -0.609375,-2.861328 2.236328,1.082031 0.002,0.002 c 0.31718,0.151781 0.659999,0.232422 1.011719,0.232422 0.8689,0 1.702576,-0.491493 2.103516,-1.314453 v -0.002 c 0.55809,-1.15159 0.0613,-2.559214 -1.085938,-3.115234 l -2.923828,-1.414063 -0.002,-0.002 c -0.17344,-0.0836 -0.374736,-0.155962 -0.597656,-0.195312 l -3.607422,-0.660157 0.01953,-0.132812 -1.126953,-0.0293 c -10e-4,-3e-5 -0.0029,3e-5 -0.0039,0 -0.10419,-0.003 -0.203761,0.0222 -0.306641,0.0293 0.17778,-0.33084 0.362843,-0.6588822 0.439453,-1.0449222 v -0.00195 c 0.42247,-2.11275 -0.974974,-4.1860857 -3.083984,-4.6035157 l -0.002,-0.00195 c -0.25532,-0.05 -0.515084,-0.076172 -0.777344,-0.076172 z m 0,1 c 0.19272,0 0.389188,0.020094 0.585937,0.058594 1.578331,0.3124 2.613335,1.8494044 2.296876,3.4277344 -0.312432,1.5783294 -1.85512,2.6053984 -3.4375,2.2929684 -1.578331,-0.31242 -2.605379,-1.8494042 -2.292969,-3.427734 0.23534,-1.1847602 1.16366,-2.0617088 2.27539,-2.2929688 h 0.0039 c 0.18461,-0.0378 0.375529,-0.058594 0.568359,-0.058594 z M 17.785156,11.5625 c 0.18815,0.0044 0.372251,0.02937 0.550782,0.07227 l 4.017578,0.734375 c 0.11759,0.02076 0.22833,0.06048 0.33789,0.113281 l 2.923828,1.414062 c 0.66139,0.32054 0.941614,1.117927 0.621094,1.779297 -0.23128,0.47472 -0.708125,0.751953 -1.203125,0.751953 -0.19467,0 -0.393468,-0.04547 -0.580078,-0.134765 l -2.757813,-1.333985 -1.228515,-0.228515 0.945312,4.4375 c 0.0165,0.08936 0.03376,0.176325 0.0059,0.265625 l 1.701172,4.392578 3.591797,3.007812 c 0.66937,0.56398 0.757175,1.562788 0.197265,2.236328 -0.31242,0.373301 -0.762357,0.5625 -1.216797,0.5625 -0.3611,0 -0.721388,-0.11757 -1.017578,-0.36914 l -3.90039,-3.275391 C 20.570687,25.817831 20.4098,25.595156 20.3125,25.347656 l -1.214844,-3.130859 c -0.0245,3.9e-4 -0.05754,0 -0.08594,0 l -2.392578,2.095703 -0.675782,4.472656 c -0.11764,0.78308 -0.7916,1.351563 -1.5625,1.351563 -0.08126,0 -0.166845,-0.0061 -0.248047,-0.01758 -0.864229,-0.13378 -1.450172,-0.938515 -1.320312,-1.802735 l 0.761719,-5.050781 c 0.05674,-0.36922 0.241534,-0.705779 0.521484,-0.949219 l 2.324219,-2.041015 c 0,-0.0162 -0.0087,-0.03389 -0.01367,-0.05469 l -0.904297,-4.248047 -1.203125,0.941406 c -0.12571,0.09734 -0.269748,0.172004 -0.423828,0.220704 l -3.423828,1.072265 c -0.13379,0.0046 -0.270531,0.06836 -0.400391,0.06836 -0.5680394,0 -1.0870947,-0.36946 -1.2656248,-0.9375 -0.2191299,-0.70194 0.1671707,-1.456652 0.8691407,-1.675782 l 3.1992191,-0.996093 3.193359,-2.496094 c 0.0245,-0.0208 0.05754,-0.03779 0.08594,-0.05859 0.29619,-0.23531 0.647436,-0.405134 1.041016,-0.490234 l 0.03906,-0.0059 c 0.19274,-0.0402 0.384045,-0.05773 0.572265,-0.05273 z"
       transform="translate(442,156)"
       id="path4610" />
  </g>
</svg>
