<?xml version="1.0" encoding="UTF-8" standalone="no"?>
<svg
   width="16"
   height="16"
   version="1.1"
   id="svg1"
   sodipodi:docname="folder-publicshare-symbolic.svg"
   inkscape:version="1.4.2 (ebf0e94, 2025-05-08)"
   xmlns:inkscape="http://www.inkscape.org/namespaces/inkscape"
   xmlns:sodipodi="http://sodipodi.sourceforge.net/DTD/sodipodi-0.dtd"
   xmlns="http://www.w3.org/2000/svg"
   xmlns:svg="http://www.w3.org/2000/svg">
  <defs
     id="defs1" />
  <sodipodi:namedview
     id="namedview1"
     pagecolor="#ffffff"
     bordercolor="#000000"
     borderopacity="0.25"
     inkscape:showpageshadow="2"
     inkscape:pageopacity="0.0"
     inkscape:pagecheckerboard="0"
     inkscape:deskcolor="#d1d1d1"
     inkscape:zoom="21.138889"
     inkscape:cx="18"
     inkscape:cy="18"
     inkscape:window-width="1920"
     inkscape:window-height="972"
     inkscape:window-x="0"
     inkscape:window-y="0"
     inkscape:window-maximized="1"
     inkscape:current-layer="svg1" />
  <path
     d="M 7.9999911,0.499497 A 7.9999911,7.9999911 0 0 0 0,8.4994881 7.9999911,7.9999911 0 0 0 3.9375067,15.378147 0.55555494,0.55555494 0 0 0 4.269973,15.490125 0.55555494,0.55555494 0 0 0 4.825528,14.93457 0.55555494,0.55555494 0 0 0 4.5599016,14.460615 6.8888812,6.8888812 0 0 1 1.1111054,8.4997326 6.8888812,6.8888812 0 0 1 7.9999867,1.6108513 6.8888812,6.8888812 0 0 1 14.888868,8.4997326 6.8888812,6.8888812 0 0 1 11.439227,14.458837 l 0.0017,0.0026 a 0.55555494,0.55555494 0 0 0 -0.283853,0.483511 0.55555494,0.55555494 0 0 0 0.555555,0.555555 0.55555494,0.55555494 0 0 0 0.325519,-0.106769 A 7.9999911,7.9999911 0 0 0 16,8.4995414 7.9999911,7.9999911 0 0 0 8.0000089,0.4995503 Z m 0,2.2222198 a 5.7777714,5.7777714 0 0 0 -5.7777713,5.7777713 5.7777714,5.7777714 0 0 0 2.8454635,4.9688829 0.55555494,0.55555494 0 0 0 0.048613,0.02952 0.55555494,0.55555494 0 0 0 0.2664931,0.06944 0.55555494,0.55555494 0 0 0 0.5555549,-0.555555 0.55555494,0.55555494 0 0 0 -0.2994797,-0.493066 0.55555494,0.55555494 0 0 0 -0.00436,-0.0026 4.6666615,4.6666615 0 0 1 -2.3011974,-4.0164843 4.6666615,4.6666615 0 0 1 4.6666614,-4.6666615 4.6666615,4.6666615 0 0 1 4.6666614,4.6666615 4.6666615,4.6666615 0 0 1 -2.337686,4.0373293 0.55555494,0.55555494 0 0 0 -0.278645,0.480888 0.55555494,0.55555494 0 0 0 0.555555,0.555555 0.55555494,0.55555494 0 0 0 0.277778,-0.07552 l 8.89e-4,0.0017 A 5.7777714,5.7777714 0 0 0 13.777767,8.4995948 5.7777714,5.7777714 0 0 0 7.9999956,2.7218234 Z m 0,2.4444417 a 3.3333296,3.3333296 0 0 0 -3.3333296,3.3333296 3.3333296,3.3333296 0 0 0 1.624976,2.8567519 0.55555494,0.55555494 0 0 0 0.033853,0.01997 0.55555494,0.55555494 0 0 0 0.011285,0.0069 0.55555494,0.55555494 0 0 0 0.2630219,0.06597 A 0.55555494,0.55555494 0 0 0 7.155352,10.89357 0.55555494,0.55555494 0 0 0 6.871499,10.410059 2.2222198,2.2222198 0 0 1 5.7777669,8.4994837 2.2222198,2.2222198 0 0 1 7.9999867,6.2772639 2.2222198,2.2222198 0 0 1 10.222206,8.4994837 2.2222198,2.2222198 0 0 1 9.1084743,10.422237 l 8.889e-4,8.89e-4 a 0.55555494,0.55555494 0 0 0 -0.2690975,0.475688 0.55555494,0.55555494 0 0 0 0.555555,0.555555 0.55555494,0.55555494 0 0 0 0.2682308,-0.06944 3.3333296,3.3333296 0 0 0 0.00781,-0.0052 0.55555494,0.55555494 0 0 0 0.045138,-0.02864 A 3.3333296,3.3333296 0 0 0 11.333312,8.4995192 3.3333296,3.3333296 0 0 0 7.9999822,5.1661896 Z m 0,2.4444417 A 0.8888879,0.8888879 0 0 0 7.1111032,8.4994881 0.8888879,0.8888879 0 0 0 7.9999911,9.388376 0.8888879,0.8888879 0 0 0 8.888879,8.4994881 0.8888879,0.8888879 0 0 0 7.9999911,7.6106002 Z"
     fill="#e8f1f5"
     fill-opacity="0.68235"
     opacity="0.813"
     id="path1"
     style="stroke-width:0.444444" />
</svg>
