<svg xmlns="http://www.w3.org/2000/svg" width="36" height="36" version="1.1">
<g>
<path d="m18 0v4.1293c1.2386 0 2.4424 0.16463 3.585 0.46924l1.0699-3.9792c-1.4866-0.39991-3.0418-0.61939-4.6548-0.61939zm-4.6736 0.61939c-1.5382 0.41235-2.9893 1.0214-4.3358 1.8019l2.0646 3.5662c1.0383-0.602 2.1547-1.0711 3.341-1.389l-1.0699-3.9792zm13.664 1.8019-2.0646 3.5662c1.0536 0.60924 2.0356 1.3411 2.8905 2.196l2.9093-2.9093c-1.1087-1.1088-2.3689-2.0626-3.7351-2.853zm-21.716 2.8718c-3.2517 3.2566-5.2742 7.7411-5.2742 12.707 0 9.9415 8.0585 18 18 18s18-8.0585 18-18h-4.1293c0 7.661-6.2097 13.871-13.871 13.871s-13.871-6.2097-13.871-13.871c0-3.8305 1.5442-7.3064 4.0542-9.8165l-2.9093-2.8905zm28.304 3.7164-3.5662 2.0646c0.60108 1.0395 1.0725 2.1535 1.389 3.341l3.9792-1.0699c-0.41494-1.5336-1.0239-2.9909-1.8019-4.3358zm1.8019 4.3358c0.0879 0.32794 0.17303 0.66302 0.244 0.99477-0.0705-0.3382-0.15455-0.66397-0.244-0.99477zm-24.363-3.9416-1.7268 1.7268 8.1272 8.1272h10.774v-2.44h-9.7602l-7.414-7.414z" fill="#e8f1f5" fill-opacity=".68235" />
</g>
</svg>
