<?xml version="1.0" encoding="UTF-8" standalone="no"?>
<svg
   width="36"
   height="36"
   version="1.1"
   id="svg1"
   sodipodi:docname="folder-publicshare-symbolic.svg"
   xmlns:inkscape="http://www.inkscape.org/namespaces/inkscape"
   xmlns:sodipodi="http://sodipodi.sourceforge.net/DTD/sodipodi-0.dtd"
   xmlns="http://www.w3.org/2000/svg"
   xmlns:svg="http://www.w3.org/2000/svg">
  <defs
     id="defs1" />
  <sodipodi:namedview
     id="namedview1"
     pagecolor="#ffffff"
     bordercolor="#000000"
     borderopacity="0.25"
     inkscape:showpageshadow="2"
     inkscape:pageopacity="0.0"
     inkscape:pagecheckerboard="0"
     inkscape:deskcolor="#d1d1d1" />
  <path
     d="m 18,1 a 18,18 0 0 0 -18,18 18,18 0 0 0 8.8594,15.477 1.25,1.25 0 0 0 0.74805,0.25195 1.25,1.25 0 0 0 1.25,-1.25 1.25,1.25 0 0 0 -0.59766,-1.0664 15.5,15.5 0 0 1 -7.7598,-13.412 15.5,15.5 0 0 1 15.5,-15.5 15.5,15.5 0 0 1 15.5,15.5 15.5,15.5 0 0 1 -7.7617,13.408 l 0.0039,0.0059 a 1.25,1.25 0 0 0 -0.63867,1.0879 1.25,1.25 0 0 0 1.25,1.25 1.25,1.25 0 0 0 0.73242,-0.24023 18,18 0 0 0 8.9141,-15.512 18,18 0 0 0 -18,-18 z m 0,5 a 13,13 0 0 0 -13,13 13,13 0 0 0 6.4023,11.18 1.25,1.25 0 0 0 0.10938,0.06641 1.25,1.25 0 0 0 0.59961,0.15625 1.25,1.25 0 0 0 1.25,-1.25 1.25,1.25 0 0 0 -0.67383,-1.1094 1.25,1.25 0 0 0 -0.0098,-0.0059 10.5,10.5 0 0 1 -5.1777,-9.0371 10.5,10.5 0 0 1 10.5,-10.5 10.5,10.5 0 0 1 10.5,10.5 10.5,10.5 0 0 1 -5.2598,9.084 1.25,1.25 0 0 0 -0.62695,1.082 1.25,1.25 0 0 0 1.25,1.25 1.25,1.25 0 0 0 0.625,-0.16992 l 0.002,0.0039 a 13,13 0 0 0 6.5098,-11.25 13,13 0 0 0 -13,-13 z m 0,5.5 a 7.5,7.5 0 0 0 -7.5,7.5 7.5,7.5 0 0 0 3.6562,6.4277 1.25,1.25 0 0 0 0.07617,0.04492 1.25,1.25 0 0 0 0.02539,0.01563 1.25,1.25 0 0 0 0.5918,0.14844 1.25,1.25 0 0 0 1.25,-1.25 1.25,1.25 0 0 0 -0.63867,-1.0879 5,5 0 0 1 -2.4609,-4.2988 5,5 0 0 1 5,-5 5,5 0 0 1 5,5 5,5 0 0 1 -2.5059,4.3262 l 0.002,0.002 a 1.25,1.25 0 0 0 -0.60547,1.0703 1.25,1.25 0 0 0 1.25,1.25 1.25,1.25 0 0 0 0.60352,-0.15625 7.5,7.5 0 0 0 0.01758,-0.01172 1.25,1.25 0 0 0 0.10156,-0.06445 7.5,7.5 0 0 0 3.6367,-6.416 7.5,7.5 0 0 0 -7.5,-7.5 z m 0,5.5 a 2,2 0 0 0 -2,2 2,2 0 0 0 2,2 2,2 0 0 0 2,-2 2,2 0 0 0 -2,-2 z"
     fill="#e8f1f5"
     fill-opacity="0.68235"
     opacity="0.813"
     id="path1" />
</svg>
