<svg width="36" height="36" version="1.1" xmlns="http://www.w3.org/2000/svg">
<path d="m17.992 1-17.992 14.05 2.304 2.9474 1.0709-0.83541v17.838h11.274 6.697 11.274v-17.877l1.0943 0.85102 2.2864-2.9317-18.008-14.042zm0.007816 4.218 12.618 9.9059v17.877h-9.2726v-9.7185h-6.697v9.7185h-9.2726v-17.838l12.624-9.9449z" fill="#e8f1f5" fill-opacity=".87452" opacity=".96"/>
<path d="m26.257 3.0436c-0.19482 0-0.35175 0.15674-0.35175 0.35134v1.2395l5.3212 4.1497v-5.3892c0-0.1946-0.15693-0.35134-0.35175-0.35134h-4.6177z" fill="#f1f7f9" fill-opacity=".82129" opacity=".908"/>
<path d="m18 5.2188-12.623 9.9434v17.84h9.2734v-9.7188h6.6953v9.7188h9.2734v-17.879l-12.619-9.9043zm-3.375 6.7324h6.75v6.748h-6.75v-6.748z" fill="#e8f1f5" fill-opacity=".54753"/>
<path d="m14.625 11.951v6.748h6.75v-6.748h-6.75zm1.375 1.375h4v4h-4v-4z" fill="#e8f1f5" fill-opacity=".84791" opacity=".55"/>
</svg>
