<?xml version="1.0" encoding="UTF-8" standalone="no"?>
<svg
   width="16"
   height="16"
   version="1.1"
   id="svg5"
   sodipodi:docname="emptytrash-symbolic.svg"
   inkscape:version="1.4.2 (ebf0e94, 2025-05-08)"
   xmlns:inkscape="http://www.inkscape.org/namespaces/inkscape"
   xmlns:sodipodi="http://sodipodi.sourceforge.net/DTD/sodipodi-0.dtd"
   xmlns="http://www.w3.org/2000/svg"
   xmlns:svg="http://www.w3.org/2000/svg">
  <defs
     id="defs5" />
  <sodipodi:namedview
     id="namedview5"
     pagecolor="#ffffff"
     bordercolor="#000000"
     borderopacity="0.25"
     inkscape:showpageshadow="2"
     inkscape:pageopacity="0.0"
     inkscape:pagecheckerboard="0"
     inkscape:deskcolor="#d1d1d1"
     inkscape:zoom="21.138889"
     inkscape:cx="18"
     inkscape:cy="18"
     inkscape:window-width="1920"
     inkscape:window-height="972"
     inkscape:window-x="0"
     inkscape:window-y="0"
     inkscape:window-maximized="1"
     inkscape:current-layer="svg5" />
  <g
     id="g5"
     transform="matrix(0.47681862,0,0,0.47681862,-0.85457187,-0.9315801)">
    <g
       transform="matrix(0.96575,0,0,0.96575,-425.839,-149.581)"
       id="g4">
      <path
         d="m 460.04,156.91 c -3.1153,-0.0128 -6.2198,0.41158 -8.709,1.3027 -2.4892,0.89115 -4.4228,2.2643 -4.9707,4.2539 l 0.0488,0.0137 0.18359,1.1094 4.2188,25.73 c 0.0653,0.3971 0.33348,0.73116 0.70704,0.88086 4.8184,1.9313 12.036,1.9496 16.627,-0.01 0.35189,-0.15037 0.60593,-0.46592 0.67773,-0.84179 l 4.9395,-25.729 0.21679,-1.1309 -0.0684,-0.0566 c -0.66496,-1.92 -2.6195,-3.2624 -5.1074,-4.1543 -2.5252,-0.90528 -5.6484,-1.3563 -8.7637,-1.3691 z m 0.13086,0.93946 a 11.834,3.6019 0 0 1 11.834,3.6016 11.834,3.6019 0 0 1 -0.33398,0.83203 l -0.16602,0.9043 -0.85351,4.4473 c -6.9051,2.3642 -14.022,2.3841 -21.082,-0.10742 l -0.70703,-4.3106 -0.14454,-0.86718 a 11.834,3.6019 0 0 1 -0.38281,-0.89844 11.834,3.6019 0 0 1 11.836,-3.6016 z m -10.418,10.805 c 6.9112,2.3195 13.913,2.3028 20.682,0.10743 l -3.7383,19.461 c -3.6503,1.3337 -9.8188,1.3481 -13.734,-0.004 z"
         color="#000000"
         color-rendering="auto"
         dominant-baseline="auto"
         fill="#e8f1f5"
         fill-opacity="0.83137"
         image-rendering="auto"
         shape-rendering="auto"
         solid-color="#000000"
         style="font-variant-ligatures:normal;font-variant-position:normal;font-variant-caps:normal;font-variant-numeric:normal;font-variant-alternates:normal;font-feature-settings:normal;text-indent:0;text-decoration-line:none;text-decoration-style:solid;text-decoration-color:#000000;text-transform:none;text-orientation:mixed;white-space:normal;shape-padding:0;isolation:auto;mix-blend-mode:normal"
         id="path1" />
      <path
         d="m 460.18,158.4 a 11.834,3.6019 0 0 0 -11.793,3.3438 11.834,3.6019 0 0 0 11.793,3.3144 11.834,3.6019 0 0 0 11.791,-3.3418 A 11.834,3.6019 0 0 0 460.18,158.4 Z"
         fill="#eaf0f3"
         fill-opacity="0.43005"
         id="path2" />
      <path
         d="m 471.79,162.11 a 11.834,3.6019 0 0 1 -11.615,2.9434 11.834,3.6019 0 0 1 -11.529,-2.8164 11.834,3.6019 0 0 0 0.0762,0.11328 l 0.14454,0.86718 0.70703,4.3106 c 7.0603,2.4916 14.177,2.4716 21.082,0.10742 l 0.85351,-4.4473 0.16602,-0.9043 a 11.834,3.6019 0 0 0 0.11523,-0.17383 z"
         fill="#f0f6f9"
         fill-opacity="0.84456"
         id="path3" />
      <path
         d="m 460.18,157.85 c 0.78481,0 1.5489,0.0259 2.291,0.0703 A 11.834,3.6019 0 0 0 460.18,157.85 Z m 0,0 a 11.834,3.6019 0 0 0 -2.2324,0.0684 c 0.72444,-0.0422 1.4676,-0.0684 2.2324,-0.0684 z m 2.5234,0.0859 c 0.68931,0.0457 1.3574,0.10897 1.9961,0.18946 a 11.834,3.6019 0 0 0 -1.9961,-0.18946 z m -5.1191,0.006 a 11.834,3.6019 0 0 0 -1.9024,0.18164 c 0.60893,-0.0763 1.2474,-0.13691 1.9024,-0.18164 z m 7.2754,0.20313 c 0.65734,0.0863 1.2838,0.19094 1.873,0.31055 a 11.834,3.6019 0 0 0 -1.873,-0.31055 z m -9.4551,0.0156 a 11.834,3.6019 0 0 0 -1.7754,0.29297 c 0.55872,-0.11328 1.1552,-0.20949 1.7754,-0.29297 z m 11.41,0.31055 c 0.59281,0.12246 1.1431,0.26174 1.6524,0.41406 a 11.834,3.6019 0 0 0 -1.6524,-0.41406 z m -13.354,0.0195 a 11.834,3.6019 0 0 0 -1.6094,0.4043 c 0.49413,-0.14903 1.0355,-0.28348 1.6094,-0.4043 z m 15.113,0.42383 c 0.48295,0.14804 0.91546,0.31077 1.3086,0.48242 a 11.834,3.6019 0 0 0 -1.3086,-0.48242 z m -16.838,0.0176 a 11.834,3.6019 0 0 0 -1.3418,0.49414 c 0.39711,-0.17735 0.84967,-0.34143 1.3418,-0.49414 z m 18.338,0.54687 c 0.0768,0.0356 0.146,0.0729 0.21875,0.10938 a 11.834,3.6019 0 0 0 -0.21875,-0.10938 z m 0.60352,0.31446 c 0.0517,0.0303 0.0975,0.061 0.14648,0.0918 a 11.834,3.6019 0 0 0 -0.14648,-0.0918 z m 0.48632,0.32226 c 0.0487,0.037 0.0901,0.0756 0.13477,0.11328 a 11.834,3.6019 0 0 0 -0.13477,-0.11328 z m 0.37305,0.33203 c 0.0406,0.0426 0.0739,0.0857 0.10938,0.12891 a 11.834,3.6019 0 0 0 -0.10938,-0.12891 z m 0.27149,0.34766 c 0.029,0.0479 0.0515,0.096 0.0742,0.14453 a 11.834,3.6019 0 0 0 -0.0742,-0.14453 z m 0.20507,0.65625 c -0.001,0.0808 -0.0303,0.16141 -0.0508,0.24219 a 11.834,3.6019 0 0 1 0.002,0.004 11.834,3.6019 0 0 0 0.0488,-0.24609 z m -0.0684,0.33203 c -2.4e-4,7.5e-4 -0.002,0.001 -0.002,0.002 -0.007,0.0201 -0.004,0.0406 -0.0117,0.0606 a 11.834,3.6019 0 0 0 0.0137,-0.0625 z m -23.307,0.4375 a 11.834,3.6019 0 0 0 0.0879,0.12891 11.834,3.6019 0 0 1 -0.0566,-0.084 11.834,3.6019 0 0 1 -0.0312,-0.0449 z m 1.123,6.4336 3.209,19.564 c 3.9156,1.352 10.084,1.3376 13.734,0.004 l 3.7383,-19.461 c -6.7687,2.1954 -13.77,2.2121 -20.682,-0.10743 z"
         color="#000000"
         color-rendering="auto"
         dominant-baseline="auto"
         fill="#e8f1f5"
         fill-opacity="0.50777"
         image-rendering="auto"
         shape-rendering="auto"
         solid-color="#000000"
         style="font-variant-ligatures:normal;font-variant-position:normal;font-variant-caps:normal;font-variant-numeric:normal;font-variant-alternates:normal;font-feature-settings:normal;text-indent:0;text-decoration-line:none;text-decoration-style:solid;text-decoration-color:#000000;text-transform:none;text-orientation:mixed;white-space:normal;shape-padding:0;isolation:auto;mix-blend-mode:normal"
         id="path4" />
    </g>
  </g>
</svg>
