<svg xmlns="http://www.w3.org/2000/svg" width="16" height="16" version="1.1">
<g>
<path d="m8 0.42a7.5779 7.5779 0 0 0-7.5781 7.5762 7.5779 7.5779 0 0 0 7.5781 7.5781 7.5779 7.5779 0 0 0 7.5781-7.5781 7.5779 7.5779 0 0 0-7.5781-7.5762zm0 1.127a6.451 6.451 0 0 1 6.4512 6.4492 6.451 6.451 0 0 1-6.4512 6.4512 6.451 6.451 0 0 1-6.4512-6.4512 6.451 6.451 0 0 1 6.4512-6.4492z" fill-opacity=".60392" opacity=".885" />
<path d="m5 12 2-5 4-3-2 5z" fill-opacity=".60392" />
<path d="m8 1.55a6.451 6.451 0 0 0-6.4512 6.4492 6.451 6.451 0 0 0 6.4512 6.4512 6.451 6.451 0 0 0 6.4512-6.4512 6.451 6.451 0 0 0-6.4512-6.4492z" fill-opacity=".11765" opacity=".885" />
</g>
</svg>
