<?xml version="1.0" encoding="UTF-8" standalone="no"?>
<svg
   width="36"
   height="36"
   version="1.1"
   id="svg3"
   sodipodi:docname="mail-outbox-symbolic.svg"
   xmlns:inkscape="http://www.inkscape.org/namespaces/inkscape"
   xmlns:sodipodi="http://sodipodi.sourceforge.net/DTD/sodipodi-0.dtd"
   xmlns="http://www.w3.org/2000/svg"
   xmlns:svg="http://www.w3.org/2000/svg">
  <defs
     id="defs3" />
  <sodipodi:namedview
     id="namedview3"
     pagecolor="#ffffff"
     bordercolor="#000000"
     borderopacity="0.25"
     inkscape:showpageshadow="2"
     inkscape:pageopacity="0.0"
     inkscape:pagecheckerboard="0"
     inkscape:deskcolor="#d1d1d1" />
  <g
     id="g3">
    <path
       d="M 9.125,8 C 7.9478,8 6.7672,9.2321 6,10.125 L 0.5645,16.4512 C 0.1757,16.84 5e-5,17.21509 5e-5,17.875 v 13 C 5e-5,32.0522 0.9478,33 2.12505,33 h 31.75 c 1.1772,0 2.125,-0.94775 2.125,-2.125 V 18.219 c 0,-0.5325 -0.16667,-0.87425 -0.41992,-1.2305 l -5.5801,-6.8633 c -0.74263,-0.91346 -1.9634,-2.125 -3.1406,-2.125 h -0.62305 c 0.39573,0.60634 0.57771,1.3043 0.55859,2 h 0.10547 c 0.59134,0 1.0611,0.35481 1.4316,0.79297 l 4.5801,5.8418 c 0.8062,0.91668 0.67583,1.3652 -0.35742,1.3652 h -7.0547 -2 c 0,3.0376 -2.4624,5.5 -5.5,5.5 -3.0376,0 -5.5,-2.4624 -5.5,-5.5 h -2 -7.459 c -0.59134,0 -0.91704,-0.52379 -0.10352,-1.5039 l 4.5312,-5.4609 C 8.01493,10.37729 8.6573,10.09415 9.207,10.02947 9.1817,9.32418 9.36234,8.61507 9.76364,8.00017 H 9.12497 Z M 2,20 h 8.7793 c 0.19791,0.71453 0.50069,1.3958 0.89844,2.0215 l 0.0059,0.0098 c 0.13605,0.21234 0.28271,0.41767 0.43945,0.61523 0.15979,0.20265 0.32995,0.39692 0.50976,0.58203 0.17253,0.17748 0.35375,0.3463 0.54297,0.50586 0.19036,0.15948 0.38852,0.3094 0.59375,0.44922 0.15612,0.11025 0.31639,0.21449 0.48047,0.3125 0.15339,0.0855 0.30973,0.16567 0.46875,0.24023 l 0.0059,0.0039 c 0.1228,0.0594 0.24719,0.11538 0.37305,0.16797 l 0.0039,0.002 c 0.10196,0.0426 0.20485,0.083 0.30859,0.12109 l 0.0059,0.002 c 0.12834,0.0471 0.25795,0.0908 0.38867,0.13086 0.1048,0.0323 0.2103,0.06224 0.31641,0.08984 l 0.0078,0.002 c 0.13581,0.0351 0.27259,0.06635 0.41016,0.09375 0.10571,0.0205 0.21187,0.03869 0.31836,0.05469 0.13103,0.0211 0.26257,0.03863 0.39453,0.05273 0.12475,0.0122 0.24979,0.02144 0.375,0.02734 h 0.01367 c 0.11514,0.006 0.2304,0.0088 0.3457,0.0098 h 0.01367 c 0.12898,-5.8e-4 0.25793,-0.004 0.38672,-0.01172 0.1154,-0.005 0.23066,-0.01304 0.3457,-0.02344 0.87334,-0.086 1.7248,-0.32469 2.5156,-0.70508 l 0.01563,-0.0078 c 0.16509,-0.0774 0.32732,-0.16079 0.48633,-0.25 0.26062,-0.15331 0.51172,-0.32224 0.75195,-0.50586 0.11385,-0.086 0.22522,-0.17523 0.33398,-0.26758 1.1507,-0.97349 1.9819,-2.2703 2.3848,-3.7227 h 8.7793 v 9.9355 c -6.3e-4,0.58943 -0.47481,1.0645 -1.0645,1.0645 h -29.871 c -0.58964,0 -1.0645,-0.47481 -1.0645,-1.0645 v -9.9355 z"
       opacity="0.75"
       id="path1" />
    <path
       d="m 2,20 v 9.9356 C 2,30.52524 2.47481,31 3.0644,31 h 29.871 c 0.58964,0 1.0644,-0.47481 1.0644,-1.0644 V 20 h -8.7812 a 7.5,7.5 0 0 1 -3.4688,4.4961 7.5,7.5 0 0 1 -7.5,0 A 7.5,7.5 0 0 1 10.7791,20 H 1.9998 Z"
       opacity="0.5"
       id="path2" />
    <path
       d="m 18,3.0996 c -0.38343,0 -0.76674,0.1476 -1.0605,0.44141 l -5.3027,5.3027 c -0.58761,0.58761 -0.58761,1.5335 0,2.1211 0.5876,0.58761 1.5335,0.58761 2.1211,0 l 2.7422,-2.7422 v 10.691 c 0,0.831 0.669,1.5 1.5,1.5 0.831,0 1.5,-0.669 1.5,-1.5 v -10.691 l 2.7422,2.7422 c 0.5876,0.58761 1.5335,0.58761 2.1211,0 0.58761,-0.58761 0.58761,-1.5335 0,-2.1211 L 19.0607,3.54101 C 18.7669,3.24721 18.38358,3.0996 18.0002,3.0996 Z"
       opacity="0.75"
       id="path3" />
  </g>
</svg>
