<?xml version="1.0" encoding="UTF-8" standalone="no"?>
<svg
   width="36"
   height="36"
   version="1.1"
   id="svg2"
   sodipodi:docname="mail-inbox-symbolic.svg"
   xmlns:inkscape="http://www.inkscape.org/namespaces/inkscape"
   xmlns:sodipodi="http://sodipodi.sourceforge.net/DTD/sodipodi-0.dtd"
   xmlns="http://www.w3.org/2000/svg"
   xmlns:svg="http://www.w3.org/2000/svg">
  <defs
     id="defs2" />
  <sodipodi:namedview
     id="namedview2"
     pagecolor="#ffffff"
     bordercolor="#000000"
     borderopacity="0.25"
     inkscape:showpageshadow="2"
     inkscape:pageopacity="0.0"
     inkscape:pagecheckerboard="0"
     inkscape:deskcolor="#d1d1d1" />
  <g
     id="g2">
    <path
       d="M 9.125,5 C 7.9478,5 6.7672,6.2321 6,7.125 L 0.5645,13.4512 C 0.1757,13.84 5e-5,14.21508 5e-5,14.875 v 13 C 5e-5,29.0522 0.9478,30 2.12505,30 h 31.75 c 1.1772,0 2.125,-0.94775 2.125,-2.125 V 15.219 c 0,-0.5325 -0.16667,-0.87425 -0.41992,-1.2305 l -5.5801,-6.8633 c -0.74263,-0.91346 -1.9634,-2.125 -3.1406,-2.125 z m 0.31836,2 h 17.457 c 0.59134,0 1.0611,0.35481 1.4316,0.79297 l 4.5803,5.8418 c 0.8062,0.91669 0.67579,1.3652 -0.35746,1.3652 h -7.0549 -2 c 0,3.0376 -2.4624,5.5 -5.5,5.5 -3.0376,0 -5.5,-2.4624 -5.5,-5.5 h -2 c 0.0021,0.20412 0.01252,0.40806 0.03125,0.61133 -0.01873,-0.20327 -0.02916,-0.40721 -0.03125,-0.61133 h -7.459 c -0.59134,0 -0.91704,-0.52379 -0.10352,-1.5039 l 4.5312,-5.4609 c 0.62467,-0.75258 1.3833,-1.0352 1.9746,-1.0352 z m 16.023,8.6172 c -0.0066,0.07889 -0.01438,0.15768 -0.02344,0.23633 0.0091,-0.07865 0.01687,-0.15743 0.02344,-0.23633 z m -14.865,0.56641 c 0.0056,0.03781 0.01143,0.07557 0.01758,0.11328 -0.0061,-0.03772 -0.01201,-0.07548 -0.01758,-0.11328 z m 14.754,0.23242 c -0.0093,0.04892 -0.01904,0.09775 -0.0293,0.14648 0.01025,-0.04873 0.02002,-0.09756 0.0293,-0.14648 z m -23.355,0.58398 h 8.7793 c 0.19791,0.71453 0.50068,1.3958 0.89844,2.0215 l 0.0059,0.0098 c 0.13605,0.21234 0.28272,0.41768 0.43945,0.61523 0.1598,0.20265 0.32994,0.39692 0.50976,0.58203 0.17253,0.17748 0.35374,0.3463 0.54297,0.50586 0.19036,0.15948 0.38852,0.3094 0.59375,0.44922 0.15612,0.11025 0.31639,0.21449 0.48047,0.3125 0.15339,0.08554 0.30974,0.16567 0.46875,0.24023 l 0.0059,0.0039 c 0.1228,0.05937 0.24719,0.11538 0.37305,0.16797 l 0.0039,0.002 c 0.10196,0.04263 0.20485,0.08301 0.30859,0.12109 l 0.0059,0.002 c 0.12834,0.04715 0.25795,0.09079 0.38867,0.13086 0.1048,0.03226 0.21029,0.06221 0.31641,0.08984 l 0.0078,0.002 c 0.13582,0.03508 0.27259,0.06634 0.41016,0.09375 0.10572,0.02051 0.21186,0.03875 0.31836,0.05469 0.13102,0.02107 0.26258,0.03865 0.39453,0.05273 0.12475,0.01225 0.24979,0.02136 0.375,0.02734 h 0.01367 c 0.11514,0.0059 0.23041,0.0092 0.3457,0.0098 h 0.01367 c 0.12899,-5.8e-4 0.25794,-0.0045 0.38672,-0.01172 0.1154,-0.0051 0.23066,-0.01296 0.3457,-0.02344 0.87333,-0.08604 1.7248,-0.32469 2.5156,-0.70508 l 0.01563,-0.0078 c 0.16509,-0.07739 0.32731,-0.16078 0.48633,-0.25 0.26062,-0.15331 0.51173,-0.32224 0.75195,-0.50586 0.11385,-0.086 0.22522,-0.17523 0.33398,-0.26758 1.1508,-0.97329 1.9818,-2.2705 2.3847,-3.7229 h 8.7793 v 9.9355 c 0,0.58964 -0.47481,1.0645 -1.0645,1.0645 h -29.871 c -0.58964,0 -1.0645,-0.47481 -1.0645,-1.0645 z"
       fill-opacity="0.67281"
       id="path1" />
    <path
       d="m 2,17 v 9.9355 C 2,27.52514 2.47481,28 3.0645,28 h 29.871 C 33.52514,28 34,27.52519 34,26.9355 V 17 h -8.7812 a 7.5,7.5 0 0 1 -3.4688,4.4961 7.5,7.5 0 0 1 -7.5,0 A 7.5,7.5 0 0 1 10.7793,17 Z"
       fill-opacity="0.37327"
       id="path2" />
  </g>
</svg>
