<svg width="16" height="16" version="1.1" xmlns="http://www.w3.org/2000/svg">
<path d="m7.8763 0.94724-7.5887 5.9258 0.97177 1.2431 0.45168-0.35236v7.5238h12.335v-7.5403l0.46157 0.35894 0.96435-1.2365zm0.0033 1.7791 5.322 4.1781v7.5403h-3.911v-4.099h-2.8246v4.099h-3.911v-7.5238z" fill="#1a1a1a" fill-opacity=".57778"/>
<path d="m11.362 1.8092c-0.08217 0-0.14836 0.066111-0.14836 0.14819v0.52277l2.2444 1.7503v-2.273c0-0.082076-0.06619-0.14819-0.14836-0.14819z" fill="#1a1a1a" fill-opacity=".42222"/>
<path d="m7.8796 2.7266-5.3241 4.1939v7.5244h3.9113v-4.0991h2.8239v4.0991h3.9113v-7.5409zm-1.4235 2.8396h2.847v2.8462h-2.847z" fill="#1a1a1a" fill-opacity=".10588"/>
<path d="m6.4561 5.5662v2.8462h2.847v-2.8462zm0.57994 0.57994h1.6871v1.6871h-1.6871z" opacity=".55"/>
</svg>
