<svg width="16.014" height="16" version="1.1" xmlns="http://www.w3.org/2000/svg">
<g fill="#bebebe">
<path d="m12.91 1a1.0001 1.0001 0 0 0-0.90625 1v13a1.0001 1.0001 0 1 0 2 0v-12h1a1.0001 1.0001 0 1 0 0-2h-2a1.0001 1.0001 0 0 0-0.0937 0z" color="#000000" style="block-progression:tb;text-indent:0;text-transform:none"/>
<path d="m13 6v3h3v-3h-3zm1 1h1v1h-1v-1z" color="#000000" enable-background="new" style="block-progression:tb;text-indent:0;text-transform:none"/>
<path d="m13 10v3h3v-3h-3zm1 1h1v1h-1v-1z" color="#000000" enable-background="new" style="block-progression:tb;text-indent:0;text-transform:none"/>
<path d="m0 4v12h10v-2h1v-2h-3v2h-6v-8h3v-2h-5z" color="#000000" style="block-progression:tb;text-indent:0;text-transform:none"/>
<path d="m6 1 5.0002 4h-3.0002v4.5312h-2z"/>
<path transform="matrix(.41157 0 0 .42024 4.03 -84.5)" d="m9.625 223.69a6.0625 5.9375 0 1 1-12.125 0 6.0625 5.9375 0 1 1 12.125 0z"/>
</g>
</svg>
