<svg width="16" height="16" version="1.1" xmlns="http://www.w3.org/2000/svg">
<g fill="#bebebe">
<path d="m7.97 0c-3.3055 0-6.0239 3.0084-5.9686 5.7188 0.0616 3.0222 0.93359 4.6955 1.125 5.2812h1.4005c-1.1615-2.2915-1.0491-5.1562-1.0491-5.1562 0-2.3726 2.0066-4.3125 4.4922-4.3125 2.4855 0 4.4998 1.9206 4.4921 4.375-0.0234 1.6741-0.17168 2.2836-1.0052 4.8125h1.5707c0.2245-0.64458 0.97382-2.0655 0.97382-4.9062 0-2.8298-2.726-5.8125-6.0314-5.8125z"/>
<rect transform="matrix(-.96317 -.26888 -.30267 .95309 -313 232)" x="-243.97" y="-304.39" width="3.1448" height="5.1319" rx="1.8618" ry="1.8615"/>
<rect transform="matrix(.96317 -.26888 .30267 .95309 -313 232)" x="368.35" y="-131.65" width="3.1448" height="5.1319" rx="1.8618" ry="1.8615"/>
<rect x="8.01" y="13" width="2" height="2" rx=".99219" ry="1" color="#000000"/>
<path d="m12.59 9.41a0.50005 0.50005 0 0 0-0.0625 0.96875l1.4688 0.53125-0.0312 1.75c-5e-3 0.53205-0.13589 0.86771-0.3125 1.0625s-0.40189 0.28125-0.71875 0.28125h-3.9062a0.50005 0.50005 0 1 0 0 1h3.9062c0.54756 0 1.0927-0.21022 1.4688-0.625s0.556-1.009 0.5625-1.7188l0.0312-2.0938v-0.34375l-0.3125-0.125-1.7812-0.65625a0.50005 0.50005 0 0 0-0.3125-0.0312z" color="#000000" style="block-progression:tb;text-indent:0;text-transform:none"/>
</g>
</svg>
