<svg width="16" height="16" version="1.1" xmlns="http://www.w3.org/2000/svg">
<g fill="#bebebe">
<path d="m4.68 4c-0.93151-3e-3 -1.6852 0.76529-1.6897 1.7265 0.018 0.74437 0.0221 1.5069 0.015 2.269l2.9214 0.0153 0.0189-4.0038-1.2657-6e-3zm2.4073 0.0117-0.0189 4.0038 2.9215 0.0153c0.015-0.7651 0.03-1.5328 0.0366-2.2687 3e-3 -0.96119-0.74166-1.7388-1.6732-1.7435l-1.266-6e-3zm-4.0864 5.0809c-0.0113 0.83161-0.037 1.5005-0.0375 2.266-9e-3 2.0111 1.5518 3.6381 3.5009 3.648 1.949 0.01 3.5258-1.6012 3.5354-3.6123-0.0353-0.83655-0.046-1.5084-0.0375-2.3016z"/>
<path d="m8.06 0.01c-0.4543 0.0495-0.88397 0.2214-1.25 0.5-0.48804 0.37146-0.8125 0.95486-0.8125 1.6875-4e-3 0.26416 0.23582 0.50712 0.5 0.50712s0.50374-0.24296 0.5-0.50712c0-0.4491 0.17164-0.70389 0.4375-0.90625s0.66376-0.30023 1.0625-0.28125c0.39874 0.019 0.78428 0.15409 1.0625 0.40625s0.46875 0.5845 0.46875 1.125c0 2.1653 1.4638 3.5091 3 3.4688 0.85672-0.0225 1.6882-0.47696 2.25-1.3125l-0.5625-1c-0.37537 0.9157-1.0678 1.2954-1.7188 1.3125-0.96046 0.0252-1.9688-0.72975-1.9688-2.4688 0-0.79197-0.33682-1.4439-0.8125-1.875s-1.081-0.62738-1.6875-0.65625c-0.15162-7e-3 -0.31732-0.0165-0.46875 0zm6.9375 1.9687c-3.3e-4 0.0104-3.3e-4 0.0208 0 0.0312 0 0.0455 8.9e-4 0.0807 0 0.125l0.78125 1.375c0.0114-0.0408 0.0208-0.0833 0.0312-0.125zm0 0.375c-6e-3 0.10599-0.0201 0.21386-0.0312 0.3125l0.71875 1.2188c0.0234-0.0625 0.0415-0.12233 0.0625-0.1875zm-0.0625 0.5c-0.0138 0.0899-0.0444 0.16659-0.0625 0.25l0.65625 1.125c0.0293-0.0609 0.0669-0.12359 0.0937-0.1875zm-0.0937 0.4375c-0.0237 0.0889-0.0653 0.16899-0.0937 0.25l0.59375 1.0312c0.0401-0.0651 0.088-0.1182 0.125-0.1875z" color="#000000" style="block-progression:tb;text-indent:0;text-transform:none"/>
</g>
</svg>
