<svg width="16" height="16" version="1.1" xmlns="http://www.w3.org/2000/svg">
<g fill="#bebebe">
<path d="m4.56 2c-0.84831 0-1.5625 0.71419-1.5625 1.5625v8.875c0 0.84832 0.71417 1.5625 1.5625 1.5625h7.875c0.84834 0 1.5625-0.71416 1.5625-1.5625v-7.9062l-2.4375-2.5312zm0.4375 2h6.125l0.875 0.9375v7.0625h-7z" color="#bebebe" style="block-progression:tb;text-indent:0;text-transform:none"/>
<path d="m6.94 5c-0.51728 0-0.9375 0.42022-0.9375 0.9375v2.0312c0 0.51727 0.42022 0.9375 0.9375 0.9375h0.0625v-2.9062h1v2.9062h2.0625c0.51728 0 0.9375-0.42023 0.9375-0.9375v-2.0312c0-0.51728-0.42022-0.9375-0.9375-0.9375h-0.0625v3.0312h-1v-3.0312h-2.0625z" color="#bebebe"/>
</g>
</svg>
