<svg width="16" height="16" version="1.1" xmlns="http://www.w3.org/2000/svg">
<g fill="#bebebe">
<path d="m4.47 1c-0.82099 0-1.4688 0.64776-1.4688 1.4688v11.062c0 0.82099 0.64776 1.4688 1.4688 1.4688h7.0625c0.82099 0 1.4688-0.64776 1.4688-1.4688v-11.062c0-0.82099-0.64776-1.4688-1.4688-1.4688h-7.0625zm-0.46875 1h8v5h-8v-5zm4 6c1.6568 0 3 1.3432 3 3s-1.3432 3-3 3-3-1.3432-3-3 1.3432-3 3-3z"/>
<path transform="matrix(1.5 0 0 1.5 264.5 -380.5)" d="m-170 261a1 1 0 1 1-2 0 1 1 0 1 1 2 0z"/>
</g>
</svg>
