<svg width="16" height="16" version="1.1" xmlns="http://www.w3.org/2000/svg">
<g transform="translate(-273 214)">
<path d="m281-211c-2.8534 0-5.4683 1.1111-7.5 2.9375l1.2812 1.4375c1.8117-1.5884 3.7323-2.375 6.2188-2.375s4.3203 0.73946 6.2188 2.4062l1.2812-1.4688c-2.0317-1.8264-4.6466-2.9375-7.5-2.9375zm0 4c-1.8479 0-3.5142 0.75033-4.875 1.875l1.3438 1.4062c0.90637-0.64917 2.2986-1.2812 3.4688-1.2812 1.1984 0 2.6745 0.63427 3.5938 1.3125l1.375-1.4688c-1.3608-1.1247-3.0584-1.8438-4.9062-1.8438zm0 4c-0.88378 0-1.7648 0.47731-2.125 0.875l2.125 2.2812 2.125-2.2812c-0.3602-0.41825-1.2412-0.875-2.125-0.875z" color="#000000" fill="#bebebe"/>
</g>
</svg>
