<svg width="16" height="16" xmlns="http://www.w3.org/2000/svg">
<g fill="#363636">
<path d="M2 1c-1.108 0-2 .892-2 2v8c0 1.108.892 2 2 2h1.522l2.478 3 2-3h6c1.108 0 2-.892 2-2v-8c0-1.108-.892-2-2-2zm0 1h12c.554 0 1 .446 1 1v8c0 .554-.446 1-1 1h-6.434L638 274.4l-1.966-2.4H634c-.554 0-1-.446-1-1v-8c0-.554.446-1 1-1zm-.7 11c.153.017.322.021.524 0z" font-family="Ubuntu" font-size="15" font-weight="400" letter-spacing="0" text-anchor="middle" word-spacing="0"/>
<rect x="3" y="4" width="10" height="1" rx=".25" ry=".25"/>
<rect x="3" y="6" width="7" height="1" rx=".25" ry=".25"/>
</g>
</svg>
