<svg width="16" height="16" version="1.1" xmlns="http://www.w3.org/2000/svg">
<g fill="#363636">
<path d="m2.03 1c-0.57131 0-1.0312 0.45994-1.0312 1.0312v3.9375c0 0.57131 0.45994 1.0312 1.0312 1.0312h3.9375c0.57131 0 1.0312-0.45994 1.0312-1.0312v-3.9375c0-0.57131-0.45994-1.0312-1.0312-1.0312h-3.9375zm-0.03125 1h4v4h-4v-4z" opacity=".5"/>
<path d="m9.03 8c-0.57131 0-1.0312 0.45994-1.0312 1.0312v3.9375c0 0.57131 0.45994 1.0312 1.0312 1.0312h3.9375c0.57131 0 1.0312-0.45994 1.0312-1.0312v-3.9375c0-0.57131-0.45994-1.0312-1.0312-1.0312h-3.9375zm-0.03125 1h4v4h-4v-4z" opacity=".5"/>
<path d="m9.03 1c-0.57131 0-1.0312 0.45994-1.0312 1.0312v3.9375c0 0.57131 0.45994 1.0312 1.0312 1.0312h3.9375c0.57131 0 1.0312-0.45994 1.0312-1.0312v-3.9375c0-0.57131-0.45994-1.0312-1.0312-1.0312h-3.9375zm-0.03125 1h4v4h-4v-4z"/>
<path d="m2.03 8c-0.57131 0-1.0312 0.45994-1.0312 1.0312v3.9375c0 0.57131 0.45994 1.0312 1.0312 1.0312h3.9375c0.57131 0 1.0312-0.45994 1.0312-1.0312v-3.9375c0-0.57131-0.45994-1.0312-1.0312-1.0312h-3.9375zm-0.03125 1h4v4h-4v-4z"/>
<rect x="2" y="2" width="4" height="4" fill-rule="evenodd" opacity=".25" stop-color="#000000" stroke-linecap="round" stroke-linejoin="round" stroke-width="2" style="paint-order:stroke fill markers"/>
<rect x="9" y="2" width="4" height="4" fill-rule="evenodd" opacity=".5" stop-color="#000000" stroke-linecap="round" stroke-linejoin="round" stroke-width="2" style="paint-order:stroke fill markers"/>
<rect x="2" y="9" width="4" height="4" fill-rule="evenodd" opacity=".5" stop-color="#000000" stroke-linecap="round" stroke-linejoin="round" stroke-width="2" style="paint-order:stroke fill markers"/>
<rect x="9" y="9" width="4" height="4" fill-rule="evenodd" opacity=".25" stop-color="#000000" stroke-linecap="round" stroke-linejoin="round" stroke-width="2" style="paint-order:stroke fill markers"/>
</g>
</svg>
