<svg width="16" height="16" enable-background="new" version="1.1" viewBox="2 2 12 12" xmlns="http://www.w3.org/2000/svg">
<g transform="matrix(.019608 0 0 .019608 2 2)" fill="#363636">
<path d="m571.77 123.56c25.121-33.626 40.157-68.538 40.23-93.48-0.031-8.077-1.651-14.389-4.733-19.091-0.324-0.575-1.212-2.08-2.779-3.563-1.558-1.546-2.958-2.372-3.261-2.539-4.932-3.292-11.274-4.88-19.353-4.88-24.88 0.042-59.802 15.068-93.438 40.23-27.188 20.345-54.378 48.997-92.017 88.673-6.385 6.729-13.104 13.804-20.21 21.223-135.69-39.679-137.05-41.076-268.98-80.596-1.661-0.491-3.417-0.752-5.298-0.752-5.266 0.063-10.146 2.017-13.709 5.549l-26.061 26.071c-2.958 2.957-4.619 6.959-4.587 10.752-0.094 5.59 2.999 10.752 7.952 13.406l155.88 87.085c0.763 0.428 2.968 2.059 3.783 2.874l44.441 44.431c-41.568 43.793-78.601 86.208-107.46 123.1-2.696 3.428-5.246 6.771-7.754 10.084l-120.6-10.951c-0.585-0.073-1.244-0.126-2.08-0.126-5.528 0.115-10.93 2.3-14.942 6.176l-12.153 12.142c-2.999 2.937-4.692 6.907-4.65 10.742-0.094 5.852 3.448 11.264 8.767 13.636l84.838 40.293c0.731 0.366 2.633 1.714 3.25 2.33l7.043 6.991c-2.205 6.207-3.323 11.588-3.386 16.312-0.021 6.321 2.017 11.734 5.915 15.632l0.303 0.262 0.083 0.062c4.002 3.877 9.185 5.852 15.601 5.852 4.619-0.073 9.948-1.17 16.176-3.364l7.147 7.137c0.554 0.585 1.881 2.445 2.226 3.187l40.209 84.651c2.456 5.402 7.753 8.902 13.521 8.902h0.083c3.992 0 7.806-1.599 10.721-4.524l12.445-12.487c3.688-3.887 5.862-9.247 5.945-14.9 0-0.689-0.031-1.223-0.052-1.516l-10.982-121.04c3.302-2.487 6.646-5.047 10.083-7.722 36.949-28.903 79.374-65.968 123.08-107.47l44.473 44.515c0.721 0.689 2.403 2.895 2.895 3.814l86.918 155.6c2.654 5.026 7.764 8.13 13.428 8.13 4.044 0 7.889-1.599 10.836-4.566l26.248-26.229c3.407-3.562 5.319-8.401 5.371-13.688 0-1.776-0.25-3.5-0.71-5.12-43.209-145.95-43.258-144.31-80.63-269.04 7.545-7.189 14.702-14.034 21.547-20.481 39.535-37.515 68.082-64.6 88.374-91.726z" fill="#363636"/>
</g>
</svg>
