<svg width="16" height="16" enable-background="new" version="1.1" xmlns="http://www.w3.org/2000/svg">
<path d="m1 6v6c0 0.5 0 0.5 0.5 0.5h4.5v1h-4.5c-1.2459 0-1.5-0.25-1.5-1.5v-6.5c0-0.74742 0.75412-1 1.5-1h5v1h-5c-0.5 0-0.5 0-0.5 0.5z" fill="#363636"/>
<path d="m13 12v-6c0-0.5 0-0.5-0.5-0.5h-4v-1h4c1.2459 0 1.5 0.25 1.5 1.5v6.5c0 0.74742-0.25412 1-1 1h-5v-1h4.5c0.5 0 0.5 0 0.5-0.5z" fill="#363636"/>
<path d="m15 7.5c1.4047 0.3053 1.1021 2.9272 0 3z" fill="#363636"/>
<path d="m15 7.5h-0.5v3h0.5z" fill="#363636"/>
<path d="m2 6.5v5h10v-5z" fill="#363636"/>
<path d="m6.5 4.5h2v1h-2z" fill="#363636"/>
<path d="m5.5 12.5h3v1h-3z" fill="#363636"/>
</svg>
