<svg width="16" height="16" version="1.1" viewBox="0 0 12 12" xmlns="http://www.w3.org/2000/svg">
<path d="m7.1881 10.37a4.5 4.5 0 0 0 3.182-5.5114 4.5 4.5 0 0 0-5.5114-3.182 4.5 4.5 0 0 0-3.182 5.5114 4.5 4.5 0 0 0 5.5114 3.182zm0.041894-0.86806c-1.3935 0.41619-3.4043-0.1801-4.6465-1.9184l2.1733-0.58234-0.66521 1.117c2.6504 2.1383 4.9969-0.11199 5.0119-2.2817l0.72444-0.19411c0.1414 1.7704-1.2937 3.47-2.5979 3.8596zm2.2502-5.1571-2.1733 0.58234 0.66521-1.117c-2.6504-2.1383-4.9969 0.11199-5.0119 2.2817l-0.72444 0.19411c-0.1414-1.7704 1.2933-3.4714 2.5975-3.861 1.3935-0.41619 3.4047 0.18152 4.6469 1.9198z" fill="#1a1a1a" stroke-width=".75"/>
</svg>
