<svg width="16" height="16" enable-background="new" version="1.1" xmlns="http://www.w3.org/2000/svg">
<defs>
<filter color-interpolation-filters="sRGB">
<feBlend in2="BackgroundImage" mode="darken"/>
</filter>
</defs>
<g transform="translate(-365 251)">
<g transform="matrix(.75 0 0 .75 120.25 -652.02)" fill="#363636">
<g transform="matrix(1.3333 0 0 1.3333 -197.1 -163.7)" fill="#363636">
<g transform="matrix(1.5 0 0 1.5 405 -1038.3)">
<g transform="translate(-420.2 519.42)" fill="#363636">
<g transform="translate(341.8 500.25)" fill="#363636">
<g transform="translate(-396.62 -516.3)" fill="#363636">
<g transform="translate(431.04 -501.24)" fill="#363636">
<g transform="translate(-379.21 512.9)" fill="#363636">
<g transform="translate(341.8 500.25)" fill="#363636">
<g transform="translate(-392.99 -511.28)">
<g transform="translate(22.99 8.9703)"></g>
<g transform="translate(432.81 518.46)">
<g transform="translate(-509.71 -515.65)" fill="#363636"></g>
</g>
</g>
<g transform="matrix(.56277 0 0 .55302 -229.66 -264.94)">
<g transform="matrix(2.3627 0 0 2.4044 528.64 -1975)">
<g transform="matrix(.76566 0 0 .76566 -71.225 1017.9)" fill="#363636">
<g transform="translate(-392.99 -511.28)" fill="#363636">
<g transform="translate(.41988 .034845)" fill="#363636">
<g transform="matrix(.60498 0 0 .60498 215.59 226.86)" fill="#363636">
<g transform="matrix(1.5263 0 0 1.5263 376.5 -1040.2)" fill="#363636"></g>
</g>
</g>
</g>
</g>
</g>
<g transform="matrix(1.4808 0 0 1.5069 -45.117 -265.56)">
<g transform="translate(341.8 500.25)" fill="#363636">
<g transform="translate(-392.99 -511.28)" fill="#363636">
<g transform="translate(.41988 .034845)" fill="#363636" stroke="#1f2a47"></g>
</g>
</g>
</g>
</g>
</g>
</g>
</g>
</g>
</g>
</g>
</g>
<g transform="matrix(.75183 0 0 .75183 392.28 -251.07)">
<g transform="translate(-.0051474 3.5754e-6)" fill="#363636">
<g transform="matrix(1.2511 0 0 1.2511 1.123 -264.95)" fill="#363636">
<g transform="matrix(.033901 0 0 .033901 1.5421 1037.7)" fill="#363636">
<path d="m299.02 161.26h-185.84v-46.285c0-41.344 33.635-74.979 74.979-74.979 33.758 0 63.513 22.716 72.359 55.241 2.898 10.657 13.888 16.946 24.547 14.05 10.659-2.898 16.949-13.889 14.05-24.548-13.57-49.896-59.196-84.744-110.96-84.744-63.4 0-114.98 51.58-114.98 114.98v46.715c-9.061 1.902-15.888 9.952-15.888 19.571v175.05c0 11.028 8.972 20 20 20h221.73c11.028 0 20-8.972 20-20v-175.05c0-11.029-8.972-20-20-20z"/>
<path d="m215.02 310.91c0.408 2.162-1.058 3.931-3.258 3.931h-46.677c-2.2 0-3.666-1.769-3.258-3.931l7.432-39.387c-5.626-5.131-9.157-12.52-9.157-20.734 0-15.495 12.561-28.056 28.056-28.056s28.056 12.561 28.056 28.056c0 7.991-3.346 15.195-8.707 20.305z"/>
</g>
</g>
</g>
</g>
<g transform="translate(-252.35 -83.535)">
<g transform="translate(312.38 85.187)" fill="#363636">
<g transform="matrix(1.2025 0 0 1.2025 240.39 -722.34)" fill="#363636">
<g transform="translate(-401.01 510.63)" fill="#363636">
<g transform="matrix(.78637 0 0 .78395 93.326 112.65)" fill="#363636">
<g transform="matrix(.66776 0 0 .66983 94.696 188.8)" fill="#363636">
<g transform="translate(547.69 -328.64)" fill="#363636">
<g transform="matrix(.12614 0 0 .12614 -162.53 751.55)" fill="#363636"></g>
</g>
</g>
</g>
</g>
</g>
</g>
</g>
</g>
</g>
</g>
</svg>
