<svg xmlns="http://www.w3.org/2000/svg" width="16" height="16" enable-background="new" version="1.1">
<defs>
<filter color-interpolation-filters="sRGB">
<feBlend in2="BackgroundImage" mode="darken" />
</filter>
</defs>
<g>
<g transform="translate(-18.75 3.5)" enable-background="new">
<g transform="matrix(.52112 0 0 .52112 20.768 5.3453)" fill="#363636">
<g transform="matrix(.02206 0 0 .02206 -29.9 -.39149)" fill="#363636" />
</g>
</g>
<g transform="matrix(0.75 0 0 0.75 -244.75 -401.02)">
<g transform="matrix(.8 0 0 .8 16.543 119.92)">
<g transform="matrix(1.17 0 0 1.17 -38.953 -96.857)">
<g transform="matrix(1.3121 0 0 1.3121 -382.57 -272.07)" fill="#363636">
<g transform="matrix(.14301 0 0 .14301 554.04 610.29)" fill="#363636">
<g transform="matrix(.72142 0 0 .72142 123.08 19.201)" fill="#363636">
<path d="m121.36 2.1137-11.08-11.08c-1.52-1.521-3.368-2.281-5.54-2.281-2.173 0-4.021 0.76-5.541 2.281l-53.446 53.528-23.953-24.035c-1.521-1.521-3.368-2.281-5.54-2.281-2.173 0-4.02 0.76-5.541 2.281l-11.08 11.08c-1.521 1.521-2.281 3.368-2.281 5.541 0 2.172 0.76 4.02 2.281 5.54l29.493 29.493 11.081 11.08c1.52 1.521 3.367 2.281 5.54 2.281 2.172 0 4.019-0.761 5.54-2.281l11.081-11.08 58.986-58.986c1.52-1.521 2.281-3.368 2.281-5.541 1e-3 -2.172-0.761-4.019-2.281-5.54z" fill="#363636" />
</g>
</g>
</g>
</g>
</g>
</g>
</g>
</svg>
