<svg width="16" height="16" enable-background="new" version="1.1" xmlns="http://www.w3.org/2000/svg">
<rect y="10" width="16" height="3" rx=".053111" ry="0" fill-opacity=".94009"/>
<rect x="1" y="9" width="6" height="2" rx=".045524" fill-opacity=".94009"/>
<rect x="9" y="9" width="6" height="2" rx=".045524" fill-opacity=".94009"/>
<rect x="7" y="1" width="2" height="6" rx=".045523" fill-opacity=".94009"/>
<path transform="rotate(30)" d="m13.072-5.4378h1.909c0.02522 0 0.04552 0.020303 0.04552 0.045523l4e-6 5.9545s-0.02031 0.046125-0.04552 0.045524l-1.909-0.045524c-0.02521-6.0127e-4 -0.04552-0.020304-0.04552-0.045524v-5.909c0-0.02522 0.0203-0.045523 0.04552-0.045523z" fill-opacity=".94009"/>
<rect transform="matrix(-.86603 .5 .5 .86603 0 0)" x="-.83013" y="2.5622" width="2" height="6" rx=".045523" fill-opacity=".94009"/>
</svg>
