<svg width="16" height="16" version="1.1" viewBox="0 0 24 24" xmlns="http://www.w3.org/2000/svg">
<g transform="translate(3.3557e-6 -5.9587e-7)" fill="#363636" fill-opacity=".66667">
<path d="m7 11c-0.82843 0-1 0.44772-1 1s0.17157 1 1 1c0.052869-3.06e-4 0.10568-0.0025 0.1582-0.0065 0.038928 0.0014 0.075646 0.0065 0.11523 0.0065h9.4531c0.03826 0 0.07369-0.0052 0.11133-0.0065 0.05382 0.0041 0.10794 0.0063 0.16211 0.0065 0.82843 0 1-0.44772 1-1s-0.17157-1-1-1c-0.05287 3.06e-4 -0.10568 0.0025-0.1582 0.0065-0.038928-0.001415-0.075646-0.0065-0.11524-0.0065h-9.4531c-0.038257 0-0.073688 0.0052-0.11133 0.0065-0.053821-0.004117-0.10794-0.006286-0.16211-0.0065z"/>
<g transform="matrix(.65608 0 0 .75 -218.1 -397.02)">
<g transform="matrix(0 -1.0825 -1.0825 0 1464.7 557.15)" fill="#363636" fill-opacity=".66667">
<g transform="matrix(.00011827 .032712 -.032712 .00011827 18.269 1034.4)" fill="#363636" fill-opacity=".66667">
<path d="m345.44 248.29-194.29 194.28c-12.359 12.365-32.397 12.365-44.75 0-12.354-12.354-12.354-32.391 0-44.744l171.91-171.91-171.91-171.9c-12.354-12.359-12.354-32.394 0-44.748 12.354-12.359 32.391-12.359 44.75 0l194.29 194.28c6.177 6.18 9.262 14.271 9.262 22.366 0 8.099-3.091 16.196-9.267 22.373z" fill="#363636" fill-opacity=".66667"/>
</g>
</g>
</g>
<g transform="matrix(-.65608 0 0 -.75 242.1 421.02)">
<g transform="matrix(0 -1.0825 -1.0825 0 1464.7 557.15)" fill="#363636" fill-opacity=".66667">
<g transform="matrix(.00011827 .032712 -.032712 .00011827 18.269 1034.4)" fill="#363636" fill-opacity=".66667">
<path d="m345.44 248.29-194.29 194.28c-12.359 12.365-32.397 12.365-44.75 0-12.354-12.354-12.354-32.391 0-44.744l171.91-171.91-171.91-171.9c-12.354-12.359-12.354-32.394 0-44.748 12.354-12.359 32.391-12.359 44.75 0l194.29 194.28c6.177 6.18 9.262 14.271 9.262 22.366 0 8.099-3.091 16.196-9.267 22.373z" fill="#363636" fill-opacity=".66667"/>
</g>
</g>
</g>
</g>
</svg>
