<svg id="prefix__prefix__prefix__svg2" viewBox="0 0 16 16" version="1.1" xmlns:xlink="http://www.w3.org/1999/xlink" xmlns="http://www.w3.org/2000/svg"><defs id="prefix__prefix__prefix__defs3051"><linearGradient gradientTransform="translate(-21.787 -269.42) scale(.27273)" gradientUnits="userSpaceOnUse" y2="1031.081" x2="46.54" y1="1028.362" x1="2" id="prefix__prefix__prefix__linearGradient4160-4" xlink:href="#prefix__prefix__prefix__linearGradient3764-55-9-8"/><linearGradient id="prefix__prefix__prefix__linearGradient3764-55-9-8" x1="1" x2="47" gradientUnits="userSpaceOnUse" gradientTransform="rotate(-90 24 24)"><stop stop-color="#a0a0a0" stop-opacity="1" id="prefix__prefix__prefix__stop7-4-0-9"/><stop offset="1" stop-color="#aaa" stop-opacity="1" id="prefix__prefix__prefix__stop9-7-5-0"/></linearGradient><style type="text/css" id="current-color-scheme"/></defs><g id="prefix__prefix__prefix__g1" transform="matrix(1.33333 0 0 1.33333 -8 -11.334)"><circle id="prefix__prefix__prefix__path4136-2" cx="-15.242" cy="11.042" transform="rotate(-93.688)" opacity="1" fill="url(#prefix__prefix__prefix__linearGradient4160-4)" fill-opacity="1" r="6"/><path d="M12 9.5c2.757 0 5 2.243 5 5s-2.243 5-5 5-5-2.243-5-5 2.243-5 5-5zm0 1.69a3.29 3.29 0 00-1.665.45l4.525 4.525a3.29 3.29 0 00.45-1.665A3.314 3.314 0 0012 11.19zm0 6.62a3.29 3.29 0 001.665-.45L9.14 12.835a3.29 3.29 0 00-.45 1.665A3.314 3.314 0 0012 17.81z" id="prefix__prefix__prefix__path3" fill="#fff" fill-opacity=".859"/></g></svg>