<svg id="prefix__prefix__prefix__svg2" viewBox="0 0 16 16" version="1.1" xmlns:xlink="http://www.w3.org/1999/xlink" xmlns="http://www.w3.org/2000/svg"><defs id="prefix__prefix__prefix__defs3051"><linearGradient gradientTransform="translate(-21.787 -269.42) scale(.27273)" gradientUnits="userSpaceOnUse" y2="1031.081" x2="46.54" y1="1028.362" x1="2" id="prefix__prefix__prefix__linearGradient4160-4" xlink:href="#prefix__prefix__prefix__linearGradient5118"/><linearGradient id="prefix__prefix__prefix__linearGradient5118"><stop offset="0" id="prefix__prefix__prefix__stop5120" stop-color="red" stop-opacity="1"/><stop offset="1" id="prefix__prefix__prefix__stop5122" stop-color="#ff2a2a" stop-opacity="1"/></linearGradient><style type="text/css" id="current-color-scheme"/></defs><g id="prefix__prefix__prefix__g1" transform="matrix(1.33333 0 0 1.33333 -8 -11.334)" fill-opacity="1"><circle id="prefix__prefix__prefix__path4136-2" cx="-15.242" cy="11.042" transform="rotate(-93.688)" opacity="1" fill="url(#prefix__prefix__prefix__linearGradient4160-4)" r="6"/><path d="M11.998 11.228a.541.541 0 00-.543.543v3.822c0 .301.242.543.543.543h.004a.541.541 0 00.543-.543V11.77a.541.541 0 00-.543-.543zm.002 6a.543.543 0 00-.545.545c0 .302.243.544.545.544a.543.543 0 00.545-.544.543.543 0 00-.545-.545z" id="prefix__prefix__prefix__rect4217" opacity="1" fill="#fff"/></g></svg>