<svg version="1.1" viewBox="0 0 16 16" xmlns="http://www.w3.org/2000/svg">
<defs>
<linearGradient id="prefix__prefix__prefix__linearGradient4181" x1="399.99" x2="399.99" y1="545.14" y2="518.14" gradientTransform="translate(-159.67 -213.41) scale(.42857)" gradientUnits="userSpaceOnUse"/>
<style id="current-color-scheme" type="text/css"/>
</defs>
<g transform="matrix(1.3333 0 0 1.3333 -8 -11.333)">
<circle cx="12" cy="14.5" r="6" fill="url(#prefix__prefix__prefix__linearGradient4181)" stroke-width="1.3"/>
<path transform="matrix(.51707 0 0 .51548 -198.45 -262.03)" d="M412.39 537.333a1.023 1.023 0 00-1.454 0l-4.057 4.496-4.057-4.496a1.023 1.023 0 00-1.453 0 1.037 1.037 0 000 1.461l4.72 5.231c.216.219.506.315.79.297.284.018.574-.078.791-.297l4.72-5.231a1.038 1.038 0 000-1.461zm-5.517-4.352c.935 0 1.693-.761 1.693-1.7 0-.94-.758-1.7-1.693-1.7s-1.693.76-1.693 1.7c0 .939.758 1.7 1.693 1.7zm0 4.859c.935 0 1.693-.762 1.693-1.7 0-.94-.758-1.701-1.693-1.701s-1.693.761-1.693 1.7c0 .94.758 1.7 1.693 1.7z" fill="#363636" fill-opacity=".851" stroke-opacity=".8"/>
</g>
</svg>
