<svg width="16" height="16.003" enable-background="new" version="1.1" xmlns="http://www.w3.org/2000/svg">
<defs>
<filter color-interpolation-filters="sRGB">
<feBlend in2="BackgroundImage" mode="darken"/>
</filter>
</defs>
<g transform="translate(-385.03 235)">
<g transform="matrix(.52112 0 0 .52112 388.21 -231.62)" fill="#363636">
<g transform="matrix(.02206 0 0 .02206 -29.9 -.39149)" fill="#363636"></g>
</g>
<circle transform="matrix(-.064329 -.99793 .99793 -.064329 0 0)" cx="197.24" cy="394.25" r="0" enable-background="new" fill="#363636"/>
<text x="377.5881" y="-214.44621" enable-background="new" fill="#363636" font-family="sans-serif" font-size="20.899px" letter-spacing="0px" stroke-width="1px" word-spacing="0px" style="line-height:125%" xml:space="preserve"><tspan x="377.5881" y="-214.44621" fill="#363636" font-family="'DejaVu Sans'"/></text>
<g transform="matrix(.0067059 0 0 .0067059 397.5 -258.45)" fill="#363636"></g>
<path d="m396.03-228.2h-6v-1.2h6m0 3.6h-6v-1.2h6m-1.8 3.6h-4.2v-1.2h4.2m-1.2-7.2a0.6 0.6 0 0 1 0.6 0.6 0.6 0.6 0 0 1-0.6 0.6 0.6 0.6 0 0 1-0.6-0.6 0.6 0.6 0 0 1 0.6-0.6m4.2 0h-2.508c-0.252-0.696-0.912-1.2-1.692-1.2s-1.44 0.504-1.692 1.2h-2.508a1.2 1.2 0 0 0-1.2 1.2v8.4a1.2 1.2 0 0 0 1.2 1.2h8.4a1.2 1.2 0 0 0 1.2-1.2v-8.4a1.2 1.2 0 0 0-1.2-1.2z" fill="#363636"/>
<path d="m396.45-219.47a3.5 3.5 0 0 1-3.5-3.5 3.5 3.5 0 0 1 3.5-3.5 3.5 3.5 0 0 1 3.5 3.5 3.5 3.5 0 0 1-3.5 3.5zm-0.0872-1.5313a0.4375 0.4375 0 0 0 0.4375-0.43749 0.4375 0.4375 0 0 0-0.4375-0.4375 0.4375 0.4375 0 0 0-0.4375 0.4375 0.4375 0.4375 0 0 0 0.4375 0.43749zm-0.047-1.3125h0.0932c0.15581 0 0.28198-0.12532 0.28198-0.28113v-2.0628c0-0.15581-0.12617-0.28112-0.28198-0.28112h-0.0932c-0.15581 0-0.28113 0.12531-0.28113 0.28112v2.0628c0 0.15581 0.12532 0.28113 0.28113 0.28113z" enable-background="new" fill="#f67d42" fill-rule="evenodd"/>
</g>
</svg>
