<svg width="16" height="16" version="1.1" xmlns="http://www.w3.org/2000/svg">
<path d="m7.5 4c-2.4829 0-4.5 2.0171-4.5 4.5 0 2.4829 2.0171 4.5 4.5 4.5 2.4829 0 4.5-2.0171 4.5-4.5 0-2.4829-2.0171-4.5-4.5-4.5zm-0.081499 0.86932h0.00164c0.022901-2.159e-4 0.04581-2.159e-4 0.068711 0h0.00483c-0.76584 0.57212-1.2176 1.4714-1.2193 2.4274-0.0014727 1.678 1.3582 3.0391 3.0362 3.0394 0.54347-0.001554 1.0766-0.14888 1.5437-0.42667-1.11 2.6748-4.7457 3.0487-6.3768 0.65584-1.6312-2.3928 0.045592-5.6404 2.941-5.696z" color="#000000" fill="#666"/>
<rect y="8" width="2" height="1" ry=".33898" fill="#666"/>
<rect x="13" y="8" width="2" height="1" ry=".33898" fill="#666"/>
<rect transform="rotate(-90)" x="-3" y="7" width="2" height="1" ry=".33898" fill="#666"/>
<rect transform="rotate(-90)" x="-16" y="7" width="2" height="1" ry=".33898" fill="#666"/>
<rect transform="rotate(225)" x="-5.8172" y="-1.2311" width="2" height="1" ry=".33898" fill="#696363"/>
<rect transform="matrix(.70711 -.70711 -.70711 -.70711 0 0)" x="4.7655" y="-12.167" width="2" height="1" ry=".33898" fill="#696363"/>
<rect transform="rotate(45)" x="16.788" y=".032195" width="2" height="1" ry=".33898" fill="#696363"/>
<rect transform="matrix(-.70711 .70711 .70711 .70711 0 0)" x="6.1834" y="10.549" width="2" height="1" ry=".33898" fill="#696363"/>
</svg>
