<svg width="16" height="16" version="1.1" viewBox="1.651 3.289 12.7 10.07" xmlns="http://www.w3.org/2000/svg">
<path d="m2.1409 3.2889c-0.19536 0-0.49014 0.30023-0.49014 0.3999v6.4764c0 0.19935 0.29402 0.39948 0.3917 0.59883h1.7596v0.89824c0 0.19935 0.29067 0.49915 0.48604 0.59883h0.97822v0.19893c0 0.3987-0.098548 0.69889 0.68291 0.89824h4.1036c0.68378 0 0.58652-1.1977 0.58652-1.1977h0.87773c0.09768 0 0.48809-0.29899 0.48809-0.49834v-0.99668h1.856c0.19536 0 0.3904-0.49915 0.48809-0.59883v-6.2774c0-0.19935-0.38911-0.50039-0.58447-0.50039zm1.5185 1.9201h8.6812v1.2808h-8.6812z" fill="#363636" stroke-width="1.1604"/>
</svg>
