<svg width="16" height="16" version="1.1" xmlns="http://www.w3.org/2000/svg">
<g fill="#bebebe">
<path d="m3.63 3.01c-1.4542 0-2.625 1.0382-2.625 2.4924v7.875c0 1.4542 1.1708 2.625 2.625 2.625h8.75c1.4542 0 2.625-1.1708 2.625-2.625v-7.875c0-1.4542-1.1708-2.4924-2.625-2.4924zm0.875 0.99242h7c2.0042 0.53702 1.9805 6.8566 0 8h-7c-2.319-1.5767-1.5858-7.0845 0-8zm7.5228 11.049h-1.0457v-1.0457h1.0457z"/>
<path d="m6 331a1 1 0 1 1-2 0 1 1 0 1 1 2 0z" color="#000000" enable-background="new"/>
<path d="m6 331a1 1 0 1 1-2 0 1 1 0 1 1 2 0z" color="#000000" enable-background="new"/>
<path d="m5.34 0.66-0.6875 0.6875 2.4688 2.5 0.125 0.15625h1.3126l0.21875-0.0312 0.125-0.125 2.4375-2.5-0.6875-0.6875-2.3438 2.3438h-0.65625l-2.3125-2.3438z" color="#000000" enable-background="new" style="block-progression:tb;text-indent:0;text-transform:none"/>
</g>
</svg>
