<svg width="16" height="16" version="1.1" xmlns="http://www.w3.org/2000/svg">
<g transform="translate(-393 231)" fill="#bebebe">
<path d="m408-223c0-3.2247-1.2047-5.9819-2.946-7.2495l-1.1553 1.0398c1.4994 1.0618 2.5417 3.4526 2.5417 6.2097 0 2.7571-1.0422 5.148-2.5417 6.2097l1.1553 1.0398c1.7413-1.2676 2.946-4.0248 2.946-7.2495z" color="#bebebe"/>
<path d="m404.94-223c0-2.1808-0.82876-4.0846-2.0795-5.2855l-1.0686 0.95312c0.96536 1.0267 1.5885 2.5828 1.5885 4.3324s-0.62317 3.3057-1.5885 4.3324l1.0686 0.95312c1.2508-1.2008 2.0795-3.1047 2.0795-5.2855z" color="#bebebe"/>
<path d="m401.99-223c0-1.3257-0.43938-2.542-1.1553-3.4948l-1.0975 0.98201c0.43232 0.72272 0.69317 1.5882 0.69317 2.5128 0 0.92461-0.26085 1.79-0.69317 2.5128l1.0975 0.982c0.71592-0.95281 1.1553-2.1691 1.1553-3.4948z" color="#bebebe"/>
<path d="m393-225v4h1.6521l3.3479 3.3692v-10.738l-3.3479 3.3692z" color="#bebebe"/>
</g>
</svg>
