<svg width="16" height="16" version="1.1" xmlns="http://www.w3.org/2000/svg">
<g transform="translate(-553 252)" fill="#bebebe">
<path d="m556.16-248c-1.7455 0-3.1562 1.7909-3.1562 4s1.4108 4 3.1562 4 3.1562-1.7909 3.1562-4-1.4108-4-3.1562-4zm-0.15625 2h1v1h1v1h-1v1h-1v-1h-1v-1h1v-1z"/>
<path d="m565.84-248c-1.7455 0-3.1562 1.7909-3.1562 4s1.4108 4 3.1562 4 3.1562-1.7909 3.1562-4-1.4108-4-3.1562-4zm-1.3438 1.5c0.55228 0 1 0.44772 1 1s-0.44772 1-1 1-1-0.44772-1-1 0.44772-1 1-1zm2 2c0.55228 0 1 0.44772 1 1s-0.44772 1-1 1-1-0.44772-1-1 0.44772-1 1-1z"/>
<path d="m556-248v2h1v1h1v1h-1v1h-1v1h10l-0.0926-0.61304c-0.29201-0.17461-0.62963-0.53434-0.62963-0.89931 0-0.36496 0.35614-0.78025 0.64815-0.95486l0.07408-3.5328zm8.5 1.5c0.55228 0 1 0.44772 1 1s-0.44772 1-1 1-1-0.44772-1-1 0.44772-1 1-1z"/>
</g>
</svg>
