<svg width="128" height="128" version="1.1" viewBox="0 0 33.867 33.867" xmlns="http://www.w3.org/2000/svg" xmlns:osb="http://www.openswatchbook.org/uri/2009/osb" xmlns:xlink="http://www.w3.org/1999/xlink">
<defs>
<linearGradient id="linearGradient927">
<stop stop-color="#4d4d4d" offset="0"/>
<stop stop-color="#1a1a1a" offset="1"/>
</linearGradient>
<linearGradient id="linearGradient4639" x1="192.34" x2="192.34" y1="228.05" y2="198.89" gradientTransform="matrix(.29526 0 0 .26906 -40.363 223.73)" gradientUnits="userSpaceOnUse">
<stop stop-color="#63984b" offset="0"/>
<stop stop-color="#8dbf76" offset="1"/>
</linearGradient>
<linearGradient id="linearGradient4649" x1="167.69" x2="167.49" y1="196.79" y2="206.75" gradientTransform="matrix(.30364 0 0 .27948 -27.529 222.74)" gradientUnits="userSpaceOnUse" xlink:href="#linearGradient927"/>
<linearGradient id="linearGradient5177" x1="167.69" x2="167.49" y1="196.79" y2="206.75" gradientTransform="matrix(1.055 0 0 .8154 -165.51 117.34)" gradientUnits="userSpaceOnUse" xlink:href="#linearGradient927"/>
<linearGradient id="linearGradient5357" x1="167.69" x2="167.49" y1="196.79" y2="206.75" gradientTransform="matrix(.18925 0 0 .64511 108.75 9.1551)" gradientUnits="userSpaceOnUse" xlink:href="#linearGradient927"/>
<linearGradient id="linearGradient5361" x1="167.69" x2="167.49" y1="196.79" y2="206.75" gradientTransform="matrix(.18925 0 0 .64511 108.75 17.198)" gradientUnits="userSpaceOnUse" xlink:href="#linearGradient927"/>
<linearGradient id="linearGradient5365" x1="167.69" x2="167.49" y1="196.79" y2="206.75" gradientTransform="matrix(.18925 0 0 .64511 108.75 25.341)" gradientUnits="userSpaceOnUse" xlink:href="#linearGradient927"/>
<linearGradient id="linearGradient1045" x1="167.69" x2="167.49" y1="196.79" y2="206.75" gradientTransform="matrix(.30364 0 0 .27948 -27.529 227.53)" gradientUnits="userSpaceOnUse" xlink:href="#linearGradient927"/>
</defs>
<g transform="translate(0 -263.13)">
<g transform="matrix(1.1101 0 0 1.1194 1.1212 -35.281)" stroke-width=".89704">
<path d="m2.905 276.16v11.63h11.465v1.9035h13.203v-1.9035h1.6831v-11.63z" fill-rule="evenodd" opacity=".25"/>
<path d="m2.905 275.63v11.63h11.465v1.9035h13.203v-1.9035h1.6831v-11.63z" fill="url(#linearGradient4639)" fill-rule="evenodd"/>
<rect x="14.683" y="287.81" width=".53019" height="1.3591" fill="#f8c44e" stroke-width=".61393"/>
<rect x="15.478" y="287.81" width=".53019" height="1.3591" fill="#f8c44e" stroke-width=".61393"/>
<rect x="16.274" y="287.81" width=".53019" height="1.3591" fill="#f8c44e" stroke-width=".61393"/>
<rect x="17.069" y="287.81" width=".53019" height="1.3591" fill="#f8c44e" stroke-width=".61393"/>
<rect x="17.911" y="287.81" width=".53019" height="1.3591" fill="#f8c44e" stroke-width=".61393"/>
<rect x="18.707" y="287.81" width=".53019" height="1.3591" fill="#f8c44e" stroke-width=".61393"/>
<rect x="19.502" y="287.81" width=".53019" height="1.3591" fill="#f8c44e" stroke-width=".61393"/>
<rect x="20.297" y="287.81" width=".53019" height="1.3591" fill="#f8c44e" stroke-width=".61393"/>
<rect x="14.683" y="287.81" width=".53019" height="1.3591" fill="#f8c44e" stroke-width=".61393"/>
<rect x="15.478" y="287.81" width=".53019" height="1.3591" fill="#f8c44e" stroke-width=".61393"/>
<rect x="16.274" y="287.81" width=".53019" height="1.3591" fill="#f8c44e" stroke-width=".61393"/>
<rect x="17.069" y="287.81" width=".53019" height="1.3591" fill="#f8c44e" stroke-width=".61393"/>
<rect x="17.911" y="287.81" width=".53019" height="1.3591" fill="#f8c44e" stroke-width=".61393"/>
<rect x="18.707" y="287.81" width=".53019" height="1.3591" fill="#f8c44e" stroke-width=".61393"/>
<rect x="19.502" y="287.81" width=".53019" height="1.3591" fill="#f8c44e" stroke-width=".61393"/>
<rect x="20.297" y="287.81" width=".53019" height="1.3591" fill="#f8c44e" stroke-width=".61393"/>
<rect x="21.14" y="287.81" width=".53019" height="1.3591" fill="#f8c44e" stroke-width=".61393"/>
<rect x="21.935" y="287.81" width=".53019" height="1.3591" fill="#f8c44e" stroke-width=".61393"/>
<rect x="22.731" y="287.81" width=".53019" height="1.3591" fill="#f8c44e" stroke-width=".61393"/>
<rect x="23.526" y="287.81" width=".53019" height="1.3591" fill="#f8c44e" stroke-width=".61393"/>
<rect x="24.369" y="287.81" width=".53019" height="1.3591" fill="#f8c44e" stroke-width=".61393"/>
<rect x="25.164" y="287.81" width=".53019" height="1.3591" fill="#f8c44e" stroke-width=".61393"/>
<rect x="25.959" y="287.81" width=".53019" height="1.3591" fill="#f8c44e" stroke-width=".61393"/>
<rect x="26.754" y="287.81" width=".53019" height="1.3591" fill="#f8c44e" stroke-width=".61393"/>
<rect x="21.14" y="287.81" width=".53019" height="1.3591" fill="#f8c44e" stroke-width=".61393"/>
<rect x="21.935" y="287.81" width=".53019" height="1.3591" fill="#f8c44e" stroke-width=".61393"/>
<rect x="22.731" y="287.81" width=".53019" height="1.3591" fill="#f8c44e" stroke-width=".61393"/>
<rect x="23.526" y="287.81" width=".53019" height="1.3591" fill="#f8c44e" stroke-width=".61393"/>
<rect x="24.369" y="287.81" width=".53019" height="1.3591" fill="#f8c44e" stroke-width=".61393"/>
<rect x="25.164" y="287.81" width=".53019" height="1.3591" fill="#f8c44e" stroke-width=".61393"/>
<rect x="25.959" y="287.81" width=".53019" height="1.3591" fill="#f8c44e" stroke-width=".61393"/>
<rect x="26.754" y="287.81" width=".53019" height="1.3591" fill="#f8c44e" stroke-width=".61393"/>
<g transform="matrix(.22969 0 0 .20931 -1.0803 233.72)" fill="#f8c44e" stroke-width="4.8661">
<g transform="matrix(1 0 0 .47544 200.27 133.67)">
<rect transform="rotate(90)" x="164.02" y="84.064" width="2.3083" height="19.611"/>
<rect transform="rotate(90)" x="160.32" y="84.064" width="2.3083" height="19.611"/>
<rect transform="rotate(90)" x="167.73" y="84.064" width="2.3083" height="19.611"/>
<rect transform="rotate(90)" x="171.43" y="84.064" width="2.3083" height="19.611"/>
</g>
<g transform="matrix(1 0 0 .47544 200.27 140.58)">
<rect transform="rotate(90)" x="164.02" y="84.064" width="2.3083" height="19.611"/>
<rect transform="rotate(90)" x="160.32" y="84.064" width="2.3083" height="19.611"/>
<rect transform="rotate(90)" x="167.73" y="84.064" width="2.3083" height="19.611"/>
<rect transform="rotate(90)" x="171.43" y="84.064" width="2.3083" height="19.611"/>
</g>
</g>
<rect x="21.971" y="277.63" width="2.7774" height="2.8404" ry=".22444" fill="url(#linearGradient4649)" fill-rule="evenodd"/>
<g transform="matrix(.21866 0 0 .20931 -.77485 233.06)" fill="#f8c44e" stroke-width="5.9157">
<rect transform="rotate(90)" x="214.23" y="-82.707" width="1.2165" height="55"/>
<rect transform="rotate(90)" x="216.95" y="-82.707" width="1.2165" height="55"/>
<rect transform="rotate(90)" x="222.95" y="-82.707" width="1.2165" height="55"/>
<rect transform="rotate(90)" x="225.74" y="-82.707" width="1.2165" height="55"/>
<rect transform="rotate(90)" x="219.95" y="-82.707" width="1.2165" height="55"/>
<rect transform="rotate(90)" x="228.55" y="-82.707" width="1.2165" height="55"/>
<rect transform="rotate(90)" x="231.26" y="-82.707" width="1.2165" height="55"/>
<rect transform="rotate(90)" x="237.27" y="-82.707" width="1.2165" height="55"/>
<rect transform="rotate(90)" x="240.06" y="-82.707" width="1.2165" height="55"/>
<rect transform="rotate(90)" x="234.27" y="-82.707" width="1.2165" height="55"/>
<rect transform="rotate(90)" x="245.74" y="-82.707" width="1.2165" height="55"/>
<rect transform="rotate(90)" x="248.53" y="-82.707" width="1.2165" height="55"/>
<rect transform="rotate(90)" x="242.74" y="-82.707" width="1.2165" height="55"/>
</g>
<rect x="6.472" y="277.47" width="9.6496" height="8.2872" ry=".65483" fill="url(#linearGradient5177)" fill-rule="evenodd"/>
<g transform="matrix(.29526 0 0 .26906 -40.424 240.2)" fill-rule="evenodd" stroke-width="4.0912">
<rect x="139.6" y="135.84" width="1.7311" height="6.5564" ry=".51807" fill="url(#linearGradient5357)"/>
<rect x="139.6" y="143.89" width="1.7311" height="6.5564" ry=".51807" fill="url(#linearGradient5361)"/>
<rect x="139.6" y="152.03" width="1.7311" height="6.5564" ry=".51807" fill="url(#linearGradient5365)"/>
</g>
<path d="m0.14007 273.47h1.9758v16.454" fill="none" stroke="#4d4d4d" stroke-linecap="round" stroke-linejoin="round" stroke-width="1.7941"/>
<g transform="matrix(.43626 .0035179 -.0038604 .39756 7.8321 278.4)" enable-background="new" fill="#b3b3b3" stroke-width="4.0912">
<g transform="translate(-725,251)" fill="#b3b3b3" stroke-width="4.0912">
<path d="m730-250s-4.3e-4 3e-3 -4.3e-4 1.0034v7.1875c-0.31647-0.11352-0.64447-0.1875-1-0.1875-1.6568 0-3 1.3432-3 3s1.3432 3 3 3 3-1.3432 3-3v-7h6v4.1875c-0.31647-0.11352-0.64447-0.1875-1-0.1875-1.6568 0-3 1.3432-3 3s1.3432 3 3 3 2.9999-1.3432 3-3v-11s-4.3e-4 4e-3 -1.0004 3e-3z" fill="#b3b3b3" stroke-width="4.0912"/>
</g>
</g>
<g transform="matrix(.22969 0 0 .20931 -1.0803 238.51)" fill="#f8c44e" stroke-width="4.8661">
<g transform="matrix(1 0 0 .47544 200.27 133.67)">
<rect transform="rotate(90)" x="164.02" y="84.064" width="2.3083" height="19.611"/>
<rect transform="rotate(90)" x="160.32" y="84.064" width="2.3083" height="19.611"/>
<rect transform="rotate(90)" x="167.73" y="84.064" width="2.3083" height="19.611"/>
<rect transform="rotate(90)" x="171.43" y="84.064" width="2.3083" height="19.611"/>
</g>
<g transform="matrix(1 0 0 .47544 200.27 140.58)">
<rect transform="rotate(90)" x="164.02" y="84.064" width="2.3083" height="19.611"/>
<rect transform="rotate(90)" x="160.32" y="84.064" width="2.3083" height="19.611"/>
<rect transform="rotate(90)" x="167.73" y="84.064" width="2.3083" height="19.611"/>
<rect transform="rotate(90)" x="171.43" y="84.064" width="2.3083" height="19.611"/>
</g>
</g>
<rect x="21.971" y="282.42" width="2.7774" height="2.8404" ry=".22444" fill="url(#linearGradient1045)" fill-rule="evenodd"/>
</g>
</g>
</svg>
