<svg width="128" height="128" version="1.1" viewBox="0 0 128 128" xmlns="http://www.w3.org/2000/svg">
<defs>
<linearGradient id="linearGradient5095" x1="570.66" x2="788.53" y1="524.47" y2="862.92" gradientTransform="matrix(.2704 0 0 .2704 -132.55 -111.64)" gradientUnits="userSpaceOnUse"/>
<linearGradient id="linearGradient1096" x1="58.177" x2="60.816" y1="192.12" y2="192.12" gradientTransform="matrix(16.148 0 0 3.8777 -921.07 -1405.5)" gradientUnits="userSpaceOnUse"/>
<linearGradient id="linearGradient1508" x1="98.661" x2="99.727" y1="91.266" y2="175.41" gradientUnits="userSpaceOnUse"/>
</defs>
<rect transform="matrix(.98725 -.15918 .15918 .98725 0 0)" x="-1.1398" y="20.351" width="106.18" height="105.3" rx="7.3329" ry="7.3329" fill="none" stroke="#000" stroke-linecap="round" stroke-linejoin="round" stroke-opacity=".064394" stroke-width="1.6224" style="paint-order:fill markers stroke"/>
<rect transform="matrix(.98725 -.15918 .15918 .98725 0 0)" x="-1.1398" y="20.351" width="106.18" height="105.3" rx="7.3329" ry="7.3329" fill="none" stroke="#000" stroke-linecap="round" stroke-linejoin="round" stroke-opacity=".064394" stroke-width="1.0816" style="paint-order:fill markers stroke"/>
<rect transform="matrix(.98725 -.15918 .15918 .98725 0 0)" x="-1.1398" y="20.351" width="106.18" height="105.3" rx="7.3329" ry="7.3329" fill="url(#linearGradient5095)" stroke="#c9c9c9" stroke-linecap="round" stroke-linejoin="round" stroke-width=".5408" style="paint-order:fill markers stroke"/>
<circle cx="39.663" cy="-660.56" r="0" fill="url(#linearGradient1096)"/>
<g transform="matrix(.64757 -.11733 .11493 .63431 -15.885 -.91537)" fill="url(#linearGradient1508)" stroke="#1a1a1a" stroke-width=".47623">
<path d="m73.833 105.99c-1.0799 0.0203-2.1459 0.59385-2.7106 1.7166-0.30393 0.60428-0.34048 1.4405-0.4417 10.202-0.11626 10.057-0.01981 12.53 0.61088 15.634 1.2334 6.0705 4.4415 11.876 8.8839 16.078 2.0834 1.9705 3.0736 2.6363 6.4778 4.357 3.5322 1.7854 6.1523 2.7204 9.211 3.2866 1.1396 0.21093 2.1938 0.44707 2.3429 0.52465 0.22879 0.11932 0.26556 0.70641 0.23507 3.8104-0.07045 7.1656-0.25226 10.954-0.53914 11.24-0.22011 0.21938-1.2054 0.26298-5.9486 0.26298-6.2019 0-6.4077 0.027-7.3594 1.0377-1.3175 1.397-0.78288 4 1.0034 4.8849 0.77222 0.38251 0.78576 0.38322 16.147 0.33667l15.374-0.0466 0.68351-0.51975c0.81931-0.62281 1.3574-1.7184 1.3625-2.7758 5e-3 -0.9793-0.35804-1.6811-1.201-2.3222l-0.66366-0.50488-6.0298-0.0899c-4.8783-0.0727-6.0592-0.13792-6.1846-0.34033-0.17157-0.27718-0.37219-5.513-0.4277-11.163-0.0305-3.104 6e-3 -3.6911 0.23506-3.8104 0.14908-0.0778 1.2029-0.31335 2.3424-0.52421 3.0587-0.56626 5.6792-1.5011 9.2114-3.2866 3.3635-1.7002 4.3657-2.369 6.3623-4.246 4.5131-4.2426 7.758-10.08 8.9994-16.19 0.62912-3.0961 0.72345-5.548 0.60501-15.657-0.10915-9.3155-0.1234-9.6203-0.49222-10.276-0.98641-1.7524-3.232-2.1545-4.7805-0.85602-1.062 0.89053-1.0708 0.97764-1.1929 12.488-0.0858 8.0979-0.1733 10.873-0.38079 12.065-1.7308 9.9443-9.2809 17.632-19.409 19.765-2.1456 0.4518-7.0699 0.4518-9.2155 0-10.133-2.1336-17.679-9.8197-19.411-19.774-0.20863-1.1987-0.30006-4.0275-0.39748-12.284-0.12337-10.45-0.13656-10.745-0.5071-11.403-0.62036-1.1021-1.7137-1.6392-2.7936-1.6204zm44.992 27.207c-4e-3 8.8e-4 -9e-3 7e-3 -0.0125 0.0203-0.0355 0.12507-0.0261 0.27752 0 0.43879 0.0186-0.0379 0.0384-0.0713 0.0555-0.11256 0.0372-0.0892-0.0102-0.3531-0.0429-0.34665zm0.20484 0.55842c-0.0529 0.0588-0.10366 0.11695-0.16197 0.17847 0.0122 0.0517 0.0214 0.10107 0.0339 0.15279 0.0443-0.10952 0.0855-0.22073 0.12812-0.33126zm-20.667 9.7432c0.06686 0.0717 0.13514 0.14129 0.21024 0.20417 0.03911 0.0338-0.03358-0.10479-0.07622-0.13217-0.04277-0.027-0.08789-0.0504-0.13398-0.072z"/>
<rect x="83.093" y="66.696" width="36.934" height="79.452" rx="18.467" ry="17.391" fill-rule="evenodd"/>
</g>
</svg>
