<svg width="128" height="128" version="1.1" viewBox="0 0 128 128" xmlns="http://www.w3.org/2000/svg" xmlns:xlink="http://www.w3.org/1999/xlink">
<defs>
<linearGradient id="linearGradient884">
<stop stop-color="#a0a0a0" offset="0"/>
<stop stop-color="#a0a0a0" stop-opacity="0" offset="1"/>
</linearGradient>
<linearGradient id="linearGradient838" x1="33.596" x2="46.482" y1="13.941" y2="13.941" gradientUnits="userSpaceOnUse">
<stop stop-color="#fff" stop-opacity=".22814" offset="0"/>
<stop stop-color="#fff" stop-opacity="0" offset=".10714"/>
<stop stop-color="#fff" stop-opacity=".59316" offset=".35714"/>
<stop stop-color="#fff" stop-opacity=".11787" offset=".57738"/>
<stop stop-color="#fff" stop-opacity=".673" offset=".78571"/>
<stop stop-color="#fff" stop-opacity="0" offset=".94643"/>
<stop stop-color="#fff" stop-opacity=".26996" offset="1"/>
</linearGradient>
<linearGradient id="linearGradient860" x1="-16.108" x2="-3.605" y1="11.295" y2="11.295" gradientTransform="matrix(1.0307 0 0 1.0307 50.175 -.021045)" gradientUnits="userSpaceOnUse">
<stop stop-color="#6bc602" offset="0"/>
<stop stop-color="#abfd4c" offset="1"/>
</linearGradient>
<linearGradient id="linearGradient875" x1="20.863" x2="33.941" y1="4.8454" y2="4.8454" gradientTransform="translate(12.503)" gradientUnits="userSpaceOnUse">
<stop stop-color="#3e3e3e" offset="0"/>
<stop stop-color="#cbcbcb" offset=".21994"/>
<stop stop-color="#474747" offset=".42815"/>
<stop stop-color="#b4b4b6" stop-opacity=".99608" offset=".58651"/>
<stop stop-color="#3e3e3e" stop-opacity=".99608" offset=".78299"/>
<stop stop-color="#a0a0a1" offset="1"/>
</linearGradient>
<linearGradient id="linearGradient900" x1="15.146" x2="17.912" y1="2.8104" y2="2.8104" gradientTransform="translate(23.241)" gradientUnits="userSpaceOnUse">
<stop stop-color="#9f9f9e" offset="0"/>
<stop stop-color="#cfd0d0" offset=".16863"/>
<stop stop-color="#4d4d4d" offset=".42157"/>
<stop stop-color="#bdbdbd" offset=".68137"/>
<stop stop-color="#464646" offset=".86765"/>
<stop stop-color="#494a49" offset="1"/>
</linearGradient>
<linearGradient id="linearGradient886" x1="33.356" x2="40.569" y1="2.9831" y2="2.9288" gradientUnits="userSpaceOnUse" xlink:href="#linearGradient884"/>
<linearGradient id="linearGradient890" x1="43.251" x2="40.569" y1="-.8521" y2="2.9288" gradientUnits="userSpaceOnUse" xlink:href="#linearGradient884"/>
<linearGradient id="linearGradient937" x1="44.107" x2="39.357" y1="21.648" y2="13.634" gradientUnits="userSpaceOnUse">
<stop stop-color="#427b01" offset="0"/>
<stop stop-color="#74d702" stop-opacity="0" offset="1"/>
</linearGradient>
<radialGradient id="radialGradient951" cx="40.496" cy="24.927" r="8.5737" gradientTransform="matrix(.96662 .01498 -.0046372 .29894 1.8143 14.295)" gradientUnits="userSpaceOnUse">
<stop offset="0"/>
<stop stop-opacity="0" offset="1"/>
</radialGradient>
</defs>
<g transform="matrix(5.3128 0 0 5.3128 -150.78 -3.8265)">
<path d="m46.427 2.9831a6.5356 2.061 0 0 1-6.5303 2.061 6.5356 2.061 0 0 1-6.5409-2.0577 6.5356 2.061 0 0 1 6.5198-2.0643 6.5356 2.061 0 0 1 6.5514 2.0544" fill="#3a3a3a" style="paint-order:fill markers stroke"/>
<path d="m41.739 2.8449a1.5312 0.50781 0 0 1-1.53 0.50781 1.5312 0.50781 0 0 1-1.5325-0.50699 1.5312 0.50781 0 0 1 1.5275-0.50863 1.5312 0.50781 0 0 1 1.535 0.50617" fill-opacity=".34221" style="paint-order:fill markers stroke"/>
<path d="m33.596 3.5862c3.7459 2.4304 8.91 2.5536 12.886 0v18.562c-3.5539 2.9403-9.7669 2.7869-12.886 0z" fill="#5f6557" fill-opacity=".35784" style="paint-order:fill markers stroke"/>
<path d="m33.596 11.722c3.7459 2.4304 8.91 2.5536 12.886 0v10.427c-3.5539 2.9403-9.7669 2.7869-12.886 0z" fill="#74d702" fill-opacity=".86667" style="paint-order:fill markers stroke"/>
<path d="m51.53 21.269a10.43 3.5355 0 0 1-10.421 3.5355 10.43 3.5355 0 0 1-10.438-3.5298 10.43 3.5355 0 0 1 10.405-3.5412 10.43 3.5355 0 0 1 10.455 3.5241" fill="url(#radialGradient951)" style="paint-order:fill markers stroke"/>
<path d="m33.596 11.722c3.7459 2.4304 8.91 2.5536 12.886 0v10.427c-3.5539 2.9403-9.7669 2.7869-12.886 0z" fill="url(#linearGradient937)" style="paint-order:fill markers stroke"/>
<path d="m46.46 11.697a6.4431 2.2531 0 0 1-6.4379 2.2531 6.4431 2.2531 0 0 1-6.4483-2.2495 6.4431 2.2531 0 0 1 6.4274-2.2567 6.4431 2.2531 0 0 1 6.4586 2.2458" fill="#c0fe79" style="paint-order:fill markers stroke"/>
<path d="m46.46 11.62a6.4431 2.2531 0 0 1-6.4379 2.2531 6.4431 2.2531 0 0 1-6.4483-2.2495 6.4431 2.2531 0 0 1 6.4274-2.2567 6.4431 2.2531 0 0 1 6.4586 2.2458" fill="url(#linearGradient860)" style="paint-order:fill markers stroke"/>
<path d="m33.596 3.5862c3.7459 2.4304 8.91 2.5536 12.886 0v18.562c-3.5539 2.9403-9.7669 2.7869-12.886 0z" fill="url(#linearGradient838)" style="paint-order:fill markers stroke"/>
<path d="m46.427 2.9831a6.5356 2.061 0 0 1-6.5303 2.061 6.5356 2.061 0 0 1-6.5409-2.0577 6.5356 2.061 0 0 1 6.5198-2.0643 6.5356 2.061 0 0 1 6.5514 2.0544" fill="url(#linearGradient886)" style="paint-order:fill markers stroke"/>
<g fill="#fff" opacity=".49">
<path d="m39.272 3.2219-1.8792 1.7066c-0.94218-0.14445-1.8308-0.34242-2.5696-0.69033l3.8543-1.1122z" fill-opacity=".19011"/>
<path d="m39.272 3.2219-1.6683 1.7833c-0.94218-0.14445-2.1961-0.44062-2.9349-0.78853l3.9084-1.148z" fill-opacity=".19011"/>
<path d="m39.333 3.2558-1.5598 1.7562c-0.94218-0.14445-2.4741-0.4813-3.2128-0.82921l3.9355-1.1616z" fill-opacity=".19011"/>
<path d="m39.333 3.2558-1.3971 1.7969c-0.94218-0.14445-2.7317-0.58978-3.4705-0.93769l4.0304-1.0938z" fill-opacity=".041825"/>
<path d="m39.333 3.2558-1.2615 1.8579c-0.94218-0.14445-3.1114-0.73215-3.8501-1.0801l4.2745-1.0124z" fill-opacity=".026616"/>
<path d="m39.333 3.2558-1.2615 1.8579c-0.94218-0.14445-3.3826-0.97622-4.1213-1.3241l4.5457-0.76836z" fill-opacity=".08365"/>
<path d="m39.333 3.2558-1.2615 1.8579c-0.94218-0.14445-3.9993-0.75464-4.4755-1.5275l4.8999-0.565z" fill-opacity=".08365"/>
<path d="m39.333 3.2558-1.2615 1.8579c-0.94218-0.14445-4.5416-0.94447-4.801-1.88l5.2253-0.21246z" fill-opacity=".08365"/>
</g>
<g fill="#fdfdfd" opacity=".266">
<path d="m40.19 3.2 1.1932 2.278 2.1153-0.37966-2.9288-2.1695z"/>
<path d="m40.19 3.2 0.8678 2.3322 2.739-0.59661-3.2271-2.0068z" fill-opacity=".60076"/>
<path d="m40.19 3.2 0.4339 2.3593 3.5797-0.81356-3.6339-1.8169z" fill-opacity=".14829"/>
<path d="m40.19 3.2-0.13559 2.5763 5.0441-1.1932-4.5288-1.6542z" fill-opacity=".14068"/>
<path d="m40.19 3.2-0.40678 2.6847 5.8847-1.4644-5.0983-1.4915z" fill-opacity=".14068"/>
</g>
<path d="m46.427 2.9831a6.5356 2.061 0 0 1-6.5303 2.061 6.5356 2.061 0 0 1-6.5409-2.0577 6.5356 2.061 0 0 1 6.5198-2.0643 6.5356 2.061 0 0 1 6.5514 2.0544" fill="url(#linearGradient890)" style="paint-order:fill markers stroke"/>
<path d="m33.443 3.241c2.5433 2.5004 10.952 2.0401 12.924 0 0.02953-0.030543 0.0767 0.03421 0.0767 0.076703v1.4574c0 0.042494-0.0408 0.053972-0.0767 0.076703-3.0843 1.953-9.4996 2.3124-12.924 0-0.03522-0.023779-0.0767-0.03421-0.0767-0.076703v-1.4574c0-0.042494 0.03421-0.076703 0.0767-0.076703z" fill="url(#linearGradient875)" style="paint-order:fill markers stroke"/>
<path d="m41.149 2.3051a1.3744 0.35254 0 0 1-1.3733 0.35254 1.3744 0.35254 0 0 1-1.3755-0.35197 1.3744 0.35254 0 0 1 1.3711-0.35311 1.3744 0.35254 0 0 1 1.3777 0.3514" fill="#949494" style="paint-order:fill markers stroke"/>
<path d="m39.732 2.2056-0.42187 0.6328-0.88209-0.23011z" fill="#cfcfcf"/>
<path d="m39.732 2.2056 0.42187 0.6328 0.88209-0.23011z" fill="#cfcfcf"/>
<path d="m38.49 2.2644c0.79689 0.48701 1.6539 0.45285 2.5593 0 0.05125-0.025633 0.10342 0.046126 0.10342 0.10342v0.67451c0 0.057296-0.04894 0.085683-0.10342 0.10342-1.16 0.37771-1.8577 0.1865-2.5593 0-0.05538-0.014721-0.10342-0.046126-0.10342-0.10342v-0.67451c0-0.057296 0.05454-0.1333 0.10342-0.10342z" fill="url(#linearGradient900)" style="paint-order:fill markers stroke"/>
<path d="m38.49 2.2644c0.79689 0.48701 1.6539 0.45285 2.5593 0 0.05125-0.025633 0.10342 0.046126 0.10342 0.10342v0.67451c0 0.057296-0.04894 0.085683-0.10342 0.10342-1.16 0.37771-1.8577 0.1865-2.5593 0-0.05538-0.014721-0.10342-0.046126-0.10342-0.10342v-0.67451c0-0.057296 0.05454-0.1333 0.10342-0.10342z" fill="url(#linearGradient900)" style="paint-order:fill markers stroke"/>
<path d="m39.811 1.9531-0.07813 0.25195 0.36328-0.24219a1.3744 0.35254 0 0 0-0.28516-0.00977z" fill="#707070"/>
<path d="m46.42 2.8945c0.03967 0.054924-0.36562 0.63061-0.5625 0.74804-0.31637 0.21845-0.78684 0.42308-1.3711 0.59375-1.1685 0.34134-2.794 0.55426-4.5898 0.55469-1.7958 4.231e-4 -3.4213-0.21193-4.5918-0.55273-0.58523-0.1704-1.0573-0.37343-1.375-0.5918-0.24785-0.20737-0.48713-0.40543-0.58569-0.67371-0.02542 0.41797 0.1268 0.6002 0.47241 0.83778 0.34562 0.23758 0.83331 0.44492 1.4316 0.61914 1.1967 0.34844 2.8368 0.56097 4.6484 0.56055 1.8116-4.269e-4 3.4517-0.21348 4.6465-0.5625 0.59739-0.17451 1.0833-0.38329 1.4277-0.62109 0.30965-0.20428 0.54882-0.77378 0.44922-0.91211z" color="#000000" color-rendering="auto" dominant-baseline="auto" fill="#bfbfbf" image-rendering="auto" shape-rendering="auto" solid-color="#000000" style="font-feature-settings:normal;font-variant-alternates:normal;font-variant-caps:normal;font-variant-ligatures:normal;font-variant-numeric:normal;font-variant-position:normal;isolation:auto;mix-blend-mode:normal;paint-order:fill markers stroke;shape-padding:0;text-decoration-color:#000000;text-decoration-line:none;text-decoration-style:solid;text-indent:0;text-orientation:mixed;text-transform:none;white-space:normal"/>
<path d="m33.9 13.6 0.04102 7.6289v0.0039c0.03278 0.39887 0.08351 0.61613 0.16797 0.77148s0.19311 0.23135 0.31445 0.35156l0.0039 0.0059 0.0059 0.0039c1.2269 0.94347 3.2717 1.4844 5.4062 1.5215 2.1345 0.03713 4.3592-0.4333 5.9375-1.5547 0.1791-0.12657 0.31671-0.28321 0.40234-0.49414 0.08564-0.21093 0.12011-0.47139 0.11719-0.8125l-0.03516-4.332c-0.12022 1.2375-0.17481 3.0792-0.16406 4.334 0.0028 0.32591-0.03223 0.55879-0.10352 0.73438-0.07129 0.17558-0.17632 0.29816-0.33203 0.4082-1.5271 1.0851-3.7158 1.5542-5.8184 1.5176-2.1018-0.03657-4.1164-0.58289-5.2871-1.4824h-2e-3c-0.1245-0.12196-0.20894-0.18551-0.26952-0.29695-0.06267-0.11528-0.11268-0.30373-0.14453-0.69141-0.15605-2.3783 0.0072-5.0912-0.24023-7.6172z" color="#000000" color-rendering="auto" dominant-baseline="auto" fill="#d9efbc" fill-opacity=".41065" image-rendering="auto" shape-rendering="auto" solid-color="#000000" style="font-feature-settings:normal;font-variant-alternates:normal;font-variant-caps:normal;font-variant-ligatures:normal;font-variant-numeric:normal;font-variant-position:normal;isolation:auto;mix-blend-mode:normal;shape-padding:0;text-decoration-color:#000000;text-decoration-line:none;text-decoration-style:solid;text-indent:0;text-orientation:mixed;text-transform:none;white-space:normal"/>
</g>
</svg>
