<svg width="128" height="128" version="1.1" viewBox="0 0 33.867 33.867" xmlns="http://www.w3.org/2000/svg">
<defs>
<radialGradient id="radialGradient1084" cx="-234" cy="-83.509" r="10.59" gradientTransform="matrix(.17721 0 0 .038581 51.264 257.33)" gradientUnits="userSpaceOnUse">
<stop stop-color="#ccc" offset="0"/>
<stop stop-color="#999" offset="1"/>
</radialGradient>
<radialGradient id="radialGradient1092" cx="-234.41" cy="-75.063" r="11.895" gradientTransform="matrix(.17721 0 0 .057466 51.253 259.1)" gradientUnits="userSpaceOnUse">
<stop stop-color="#d5d9d9" offset="0"/>
<stop stop-color="#8a8a8a" offset="1"/>
</radialGradient>
<radialGradient id="radialGradient1135" cx="-136.99" cy="198.65" r="38.5" gradientTransform="matrix(.11508 0 0 .096651 37.166 246.58)" gradientUnits="userSpaceOnUse">
<stop stop-color="#2561db" stop-opacity=".94118" offset="0"/>
<stop stop-color="#0d0d0d" offset="1"/>
</radialGradient>
<filter id="filter1451" x="-.23258" y="-.24791" width="1.4652" height="1.4958" color-interpolation-filters="sRGB">
<feGaussianBlur stdDeviation="1.0607186"/>
</filter>
<filter id="filter1455" x="-.011629" y="-.012396" width="1.0233" height="1.0248" color-interpolation-filters="sRGB">
<feGaussianBlur stdDeviation="0.030455491"/>
</filter>
<filter id="filter1491" x="-.062444" y="-.06656" width="1.1249" height="1.1331" color-interpolation-filters="sRGB">
<feGaussianBlur stdDeviation="0.085527836"/>
</filter>
<filter id="filter1529" x="-.055239" y="-.06566" width="1.1105" height="1.1313" color-interpolation-filters="sRGB">
<feGaussianBlur stdDeviation="0.7624247"/>
</filter>
<filter id="filter1721" x="-.23258" y="-.24791" width="1.4652" height="1.4958" color-interpolation-filters="sRGB">
<feGaussianBlur stdDeviation="0.51209235"/>
</filter>
<filter id="filter2076" x="-.058145" y="-.061978" width="1.1163" height="1.124" color-interpolation-filters="sRGB">
<feGaussianBlur stdDeviation="0.12802309"/>
</filter>
<filter id="filter2170" x="-.19628" y="-.30877" width="1.3926" height="1.6175" color-interpolation-filters="sRGB">
<feGaussianBlur stdDeviation="2.9878037"/>
</filter>
<linearGradient id="linearGradient2392" x1="-266.56" x2="-224.49" y1="199.37" y2="199.37" gradientTransform="matrix(.15183 0 0 .15183 43.898 235.95)" gradientUnits="userSpaceOnUse">
<stop stop-color="#d9d9d9" offset="0"/>
<stop stop-color="#808080" offset="1"/>
</linearGradient>
<filter id="filter4765" x="-.12" y="-.12" width="1.24" height="1.24" color-interpolation-filters="sRGB">
<feGaussianBlur stdDeviation="0.25"/>
</filter>
<radialGradient id="radialGradient4829" cx="-234.41" cy="-75.063" r="11.895" gradientTransform="matrix(.20885 0 0 .067728 67.735 259.82)" gradientUnits="userSpaceOnUse">
<stop stop-color="#d5d9d9" offset="0"/>
<stop stop-color="#8a8a8a" offset="1"/>
</radialGradient>
<radialGradient id="radialGradient4831" cx="-234" cy="-83.509" r="10.59" gradientTransform="matrix(.20885 0 0 .045471 67.748 257.74)" gradientUnits="userSpaceOnUse">
<stop stop-color="#ccc" offset="0"/>
<stop stop-color="#999" offset="1"/>
</radialGradient>
<radialGradient id="radialGradient5210" cx="76.576" cy="227.97" r="53.544" gradientTransform="matrix(.25644 0 0 .19703 2.0324 220.55)" gradientUnits="userSpaceOnUse">
<stop stop-color="#ccc" offset="0"/>
<stop stop-color="#999" offset="1"/>
</radialGradient>
</defs>
<path d="m5.4585 6.73v0.21755h-4.5124v21.173c0 0.40028 0.88552 1.0533 3.2055 1.0154 2.32 0.0379 3.1807-0.61515 3.1807-1.0154v-0.29094h24.234c0.75055 0 1.3544-0.84856 1.3544-1.9022v-19.197h-26.107z" opacity=".25"/>
<path d="m5.4587 6.2v19.197c0 1.0536 0.60429 1.9019 1.3548 1.9019h24.752c0.75055 0 1.3548-0.84822 1.3548-1.9019v-19.197h-26.107z" fill="url(#radialGradient5210)" stroke="#666" stroke-linecap="round" stroke-linejoin="round" stroke-width=".1"/>
<path d="m0.946 6.42v21.067h7.9e-5v0.10546c0 0.40028 0.88542 1.0532 3.2054 1.0153 2.32 0.0379 3.1809-0.61504 3.1809-1.0153v-21.173z" fill="url(#linearGradient2392)" stroke="#666" stroke-linecap="round" stroke-linejoin="round" stroke-width=".1"/>
<path d="m4.3507 5.57c-0.26947 0-0.51791 0.0126-0.74711 0.0346a3.2829 0.93252 0 0 0-2.68 0.91612 3.2829 0.93252 0 0 0 3.2829 0.93252 3.2829 0.93252 0 0 0 3.0737-0.60816h22.163c1.9232 0 3.4714-0.28439 3.4714-0.63758s-1.5482-0.6375-3.4714-0.6375z" fill="#333"/>
<circle cx="29.198" cy="9.53" r=".94127" fill="#4d4d4d" stroke="#4d4d4d" stroke-linecap="round" stroke-linejoin="round" stroke-width=".091289"/>
<circle transform="matrix(.17944 0 0 .17944 45.847 -16.81)" cx="-92.783" cy="146.79" r="2.5" fill="#2d74fd" filter="url(#filter4765)"/>
<circle cx="18.922" cy="17.07" r="9.0706" fill="#666" stroke="#4d4d4d" stroke-linecap="round" stroke-linejoin="round" stroke-width=".078818"/>
<circle cx="18.922" cy="17.07" r="7.3963" fill="#333"/>
<circle cx="18.922" cy="17.07" r="6.021"/>
<circle cx="18.922" cy="17.07" r="4.8237" fill="url(#radialGradient1135)" stroke="#0d224d" stroke-linecap="round" stroke-linejoin="round" stroke-width=".23458"/>
<path d="m14.854 14.84 1.682 0.93073s0.52565-0.54835 0.88651-0.78799c0.39984-0.26552 1.2687-0.47761 1.2546-0.41398l-0.27657-2.0237s-1.862-0.18456-3.5466 2.295z" fill="#4678cc" opacity=".8"/>
<path d="m14.739 15.14 1.7973 0.79862s-0.1014 0.23155-0.14134 0.48342c-0.03651 0.23028 0.0051 0.44356 0.0051 0.44356l-2.0744-0.021s0.08291-1.1897 0.41334-1.7046z" fill="#4678cc" opacity=".8"/>
<ellipse transform="matrix(.18012 -.15609 .15609 .18012 50.855 -28.8)" cx="-228.33" cy="44.944" rx="3.083" ry="1.9028" fill="#fff" fill-opacity=".3" filter="url(#filter2076)"/>
<ellipse transform="matrix(.11819 -.10242 .10242 .11819 39.18 -13.46)" cx="-228.1" cy="51.166" rx="1.9178" ry="1.1837" fill="#fff" fill-opacity=".3" filter="url(#filter1491)"/>
<ellipse transform="matrix(.13636 -.091216 .091216 .13636 40.666 -16.09)" cx="-222.03" cy="111.72" rx="18.419" ry="11.368" fill="#fff" filter="url(#filter1529)" opacity=".2"/>
<ellipse transform="matrix(.11819 -.10242 .10242 .11819 39.929 -14.12)" cx="-235.29" cy="75.046" rx="3.667" ry="2.2633" fill="#fff" fill-opacity=".3" filter="url(#filter1455)"/>
<ellipse transform="matrix(.14383 -.12464 .12464 .14383 43.551 -21.88)" cx="-234.21" cy="88.759" rx="6.3859" ry="3.9413" fill="#fff" filter="url(#filter1451)"/>
<ellipse transform="matrix(.16131 -.095108 .095108 .16131 45.472 -20.12)" cx="-222.03" cy="111.72" rx="18.419" ry="11.368" fill="#4397ee" filter="url(#filter2170)" opacity=".45"/>
<ellipse transform="matrix(.093398 -.080938 .080938 .093398 34.526 -7.61)" cx="-228.33" cy="44.944" rx="3.083" ry="1.9028" fill="#fff" fill-opacity=".85417" filter="url(#filter1721)"/>
<ellipse transform="matrix(.079422 -.068827 .068827 .079422 33.079 -2.6)" cx="-228.1" cy="51.166" rx="1.9178" ry="1.1837" fill="#fff" fill-opacity=".3" filter="url(#filter1491)"/>
<rect x="2.2316" y="5.57" width="29.375" height=".89143" rx="3.6567" ry=".89143" fill="#666" fill-rule="evenodd"/>
<path d="m7.3145 4.99c-1.027 2.6e-4 -1.8992 0.21341-2.053 0.50147-0.032526 0.0422-0.052656 0.0944-0.052656 0.15201v0.30751c0 0.13839 0.11143 0.24973 0.24982 0.24973 0 0 0.45175 0.15641 1.8713 0.15641 1.4201 0 1.845-0.15641 1.845-0.15641 0.13838 0 0.24973-0.11134 0.24973-0.24973v-0.30751c0-0.0619-0.02314-0.11762-0.06017-0.16117-0.1679-0.2841-1.0346-0.49223-2.05-0.49231z" fill="url(#radialGradient1092)" stroke="#4d4d4d" stroke-linecap="round" stroke-linejoin="round" stroke-width=".035442"/>
<ellipse cx="7.3168" cy="5.4" rx="1.8766" ry=".40857" fill="url(#radialGradient1084)" stroke="#4d4d4d" stroke-linecap="round" stroke-linejoin="round" stroke-width=".035442"/>
<path d="m16.393 4.76c-1.2104 2.5e-4 -2.2383 0.25152-2.4197 0.59101-0.03834 0.0497-0.06206 0.11127-0.06206 0.17916v0.36243c0 0.16309 0.13133 0.29432 0.29443 0.29432 0 0 0.53242 0.18434 2.2055 0.18434 1.6737 0 2.1745-0.18434 2.1745-0.18434 0.1631 0 0.29432-0.13123 0.29432-0.29432v-0.36243c0-0.073-0.02727-0.13862-0.07091-0.18995-0.19788-0.33483-1.2193-0.58013-2.4161-0.58022z" fill="url(#radialGradient4829)" stroke="#4d4d4d" stroke-linecap="round" stroke-linejoin="round" stroke-width=".041771"/>
<ellipse cx="16.395" cy="5.24" rx="2.2118" ry=".48153" fill="url(#radialGradient4831)" stroke="#4d4d4d" stroke-linecap="round" stroke-linejoin="round" stroke-width=".041771"/>
</svg>
