<svg width="128" height="128" version="1.1" viewBox="0 0 33.867 33.867" xmlns="http://www.w3.org/2000/svg" xmlns:osb="http://www.openswatchbook.org/uri/2009/osb" xmlns:xlink="http://www.w3.org/1999/xlink">
<defs>
<linearGradient id="linearGradient5236" x1="-42" x2="-6" y1="-24" y2="-24" gradientTransform="matrix(.48939 0 0 .48939 -265.35 -7.6566)" gradientUnits="userSpaceOnUse">
<stop stop-color="#d0d0d0" offset="0"/>
<stop stop-color="#f1eeee" offset="1"/>
</linearGradient>
<linearGradient id="ButtonShadow" x1="45.448" x2="45.448" y1="92.54" y2="7.0165" gradientTransform="scale(1.0059 .99417)" gradientUnits="userSpaceOnUse">
<stop offset="0"/>
<stop stop-opacity=".58824" offset="1"/>
</linearGradient>
<filter id="filter3174" color-interpolation-filters="sRGB">
<feGaussianBlur stdDeviation="1.71"/>
</filter>
<filter id="filter3806" color-interpolation-filters="sRGB">
<feGaussianBlur stdDeviation="1.2"/>
</filter>
<linearGradient id="linearGradient5228" x1="56" x2="88" y1="72" y2="72" gradientTransform="matrix(.9375 0 0 .9375 -140.5 3.5)" gradientUnits="userSpaceOnUse">
<stop stop-color="#499119" offset="0"/>
<stop stop-color="#8fd625" offset="1"/>
</linearGradient>
<linearGradient id="linearGradient3788" x1="70" x2="70" y1="54" y2="75.095" gradientTransform="translate(0,4)" gradientUnits="userSpaceOnUse" xlink:href="#linearGradient3737"/>
<linearGradient id="linearGradient3737">
<stop stop-color="#fff" offset="0"/>
<stop stop-color="#fff" stop-opacity="0" offset="1"/>
</linearGradient>
<linearGradient id="linearGradient3812" x1="65.263" x2="65.263" y1="64.205" y2="50.069" gradientTransform="matrix(.625 0 0 .625 78.5 32.25)" gradientUnits="userSpaceOnUse">
<stop offset="0"/>
<stop stop-opacity="0" offset="1"/>
</linearGradient>
<clipPath id="clipPath3823">
<path d="m108.81 58c-1.56 0-2.81 1.254-2.81 2.812v24.375c0 1.559 1.25 2.813 2.81 2.813h24.375c1.57 0 2.82-1.254 2.82-2.812v-24.375c0-1.559-1.25-2.813-2.81-2.813h-24.375zm7.1875 4.5h10v8.75h5l-10 13.75-10-13.75h5z" fill="#fff"/>
</clipPath>
<filter id="filter3831" color-interpolation-filters="sRGB">
<feGaussianBlur stdDeviation="0.6375"/>
</filter>
<linearGradient id="linearGradient3832" x1="65.263" x2="65.263" y1="64.205" y2="50.069" gradientTransform="matrix(.625 0 0 .625 28.5 31.25)" gradientUnits="userSpaceOnUse" xlink:href="#linearGradient3737"/>
<radialGradient id="radialGradient1872" cx="-87.989" cy="191.05" r="67.677" gradientTransform="matrix(.23502 0 0 .23502 40.081 232.2)" gradientUnits="userSpaceOnUse">
<stop stop-color="#69a7cc" offset="0"/>
<stop stop-color="#325695" offset="1"/>
</radialGradient>
</defs>
<g transform="translate(0 -263.13)">
<g transform="matrix(2.0824 0 0 2.0824 -527.87 70.993)" display="none">
<path d="m11 7 37-2 37 2c3.324 0 6 2.676 6 6v73c0 3.324-2.676 6-6 6h-74c-3.324 0-6-2.676-6-6v-73c0-3.324 2.676-6 6-6z" fill="url(#ButtonShadow)" filter="url(#filter3174)" opacity=".9"/>
<rect transform="rotate(-90,2,2)" x="-86" y="56" width="30" height="30" rx="2.8125" ry="2.8125" filter="url(#filter3806)" opacity=".6"/>
<rect transform="rotate(-90)" x="-88" y="56" width="30" height="30" rx="2.8125" ry="2.8125" fill="url(#linearGradient5228)"/>
<path d="m58.812 58c-1.558 0-2.812 1.254-2.812 2.812v24.375c0 0.87307 0.41082 1.6412 1.0312 2.1562-3e-3 -0.053-0.031-0.101-0.031-0.155v-24.375c0-1.559 1.171-2.813 2.625-2.813h22.75c1.454 0 2.625 1.254 2.625 2.812v24.375c0 0.05463-0.02841 0.10241-0.03125 0.15625 0.62-0.514 1.031-1.282 1.031-2.155v-24.375c0-1.559-1.254-2.813-2.812-2.813h-24.375z" fill="url(#linearGradient3788)" opacity=".5"/>
<path transform="translate(-50)" d="m116 63.5v8.75h-5l10 13.75 10-13.75h-5v-8.75z" clip-path="url(#clipPath3823)" display="inline" fill="url(#linearGradient3812)" filter="url(#filter3831)" opacity=".6"/>
<path d="m66 62.5v8.75h-5l10 13.75 10-13.75h-5v-8.75z" display="inline" fill="url(#linearGradient3832)"/>
</g>
<text x="436.96567" y="270.64661" fill="#000000" font-family="'Bitstream Vera Sans'" font-size="6.1987px" opacity=".8" stroke-width=".48939" style="line-height:0%" xml:space="preserve"><tspan x="436.96567" y="270.64661" stroke-width=".48939"/></text>
<text x="448.69202" y="250.70787" fill="#000000" font-family="'Bitstream Vera Sans'" font-size="6.1987px" opacity=".8" stroke-width=".48939" style="line-height:0%" xml:space="preserve"><tspan x="448.69202" y="250.70787" stroke-width=".48939"/></text>
<text x="-270.99005" y="235.98782" fill="#000000" font-family="'Bitstream Vera Sans'" font-size="6.1987px" opacity=".8" stroke-width=".48939" style="line-height:0%" xml:space="preserve"><tspan x="-270.99005" y="235.98782" stroke-width=".48939"/></text>
<text x="-1163.4905" y="600.85699" fill="#000000" font-family="'Bitstream Vera Sans'" font-size="6.1987px" opacity=".8" stroke-width=".48939" style="line-height:0%" xml:space="preserve"><tspan x="-1163.4905" y="600.85699" stroke-width=".48939"/></text>
<text x="-214.95882" y="47.414158" fill="#000000" font-family="'Bitstream Vera Sans'" font-size="6.1987px" opacity=".8" stroke-width=".48939" style="line-height:0%" xml:space="preserve"><tspan x="-214.95882" y="47.414158" stroke-width=".48939"/></text>
<text x="180.27661" y="-154.93555" fill="#000000" font-family="'Bitstream Vera Sans'" font-size="6.1987px" opacity=".8" stroke-width=".48939" style="line-height:0%" xml:space="preserve"><tspan x="180.27661" y="-154.93555" stroke-width=".48939"/></text>
<text x="192.00293" y="-174.87427" fill="#000000" font-family="'Bitstream Vera Sans'" font-size="6.1987px" opacity=".8" stroke-width=".48939" style="line-height:0%" xml:space="preserve"><tspan x="192.00293" y="-174.87427" stroke-width=".48939"/></text>
<text x="-537.90979" y="-178.40276" fill="#000000" font-family="'Bitstream Vera Sans'" font-size="6.1987px" opacity=".8" stroke-width=".48939" style="line-height:0%" xml:space="preserve"><tspan x="-537.90979" y="-178.40276" stroke-width=".48939"/></text>
<text x="176.8707" y="-312.12183" fill="#000000" font-family="'Bitstream Vera Sans'" font-size="6.1987px" opacity=".8" stroke-width=".48939" style="line-height:0%" xml:space="preserve"><tspan x="176.8707" y="-312.12183" stroke-width=".48939"/></text>
<text x="904.17023" y="-5.4229913" fill="#000000" font-family="'Bitstream Vera Sans'" font-size="6.1987px" opacity=".8" stroke-width=".48939" style="line-height:0%" xml:space="preserve"><tspan x="904.17023" y="-5.4229913" stroke-width=".48939"/></text>
<text x="915.89648" y="-25.361761" fill="#000000" font-family="'Bitstream Vera Sans'" font-size="6.1987px" opacity=".8" stroke-width=".48939" style="line-height:0%" xml:space="preserve"><tspan x="915.89648" y="-25.361761" stroke-width=".48939"/></text>
<text x="185.98376" y="-28.890238" fill="#000000" font-family="'Bitstream Vera Sans'" font-size="6.1987px" opacity=".8" stroke-width=".48939" style="line-height:0%" xml:space="preserve"><tspan x="185.98376" y="-28.890238" stroke-width=".48939"/></text>
<text x="900.76428" y="-162.60925" fill="#000000" font-family="'Bitstream Vera Sans'" font-size="6.1987px" opacity=".8" stroke-width=".48939" style="line-height:0%" xml:space="preserve"><tspan x="900.76428" y="-162.60925" stroke-width=".48939"/></text>
<text x="-272.97766" y="-52.425835" fill="#000000" font-family="'Bitstream Vera Sans'" font-size="6.1987px" opacity=".8" stroke-width=".48939" style="line-height:0%" xml:space="preserve"><tspan x="-272.97766" y="-52.425835" stroke-width=".48939"/></text>
<text x="-1165.478" y="312.44342" fill="#000000" font-family="'Bitstream Vera Sans'" font-size="6.1987px" opacity=".8" stroke-width=".48939" style="line-height:0%" xml:space="preserve"><tspan x="-1165.478" y="312.44342" stroke-width=".48939"/></text>
<text x="-326.28745" y="357.89447" fill="#000000" font-family="'Bitstream Vera Sans'" font-size="6.1987px" opacity=".8" stroke-width=".48939" style="line-height:0%" xml:space="preserve"><tspan x="-326.28745" y="357.89447" stroke-width=".48939"/></text>
<text x="216.46211" y="270.20383" fill="#000000" font-family="'Bitstream Vera Sans'" font-size="6.1987px" opacity=".8" stroke-width=".48939" style="line-height:0%" xml:space="preserve"><tspan x="216.46211" y="270.20383" stroke-width=".48939"/></text>
<text x="228.18845" y="250.26509" fill="#000000" font-family="'Bitstream Vera Sans'" font-size="6.1987px" opacity=".8" stroke-width=".48939" style="line-height:0%" xml:space="preserve"><tspan x="228.18845" y="250.26509" stroke-width=".48939"/></text>
<text x="-501.72427" y="246.73659" fill="#000000" font-family="'Bitstream Vera Sans'" font-size="6.1987px" opacity=".8" stroke-width=".48939" style="line-height:0%" xml:space="preserve"><tspan x="-501.72427" y="246.73659" stroke-width=".48939"/></text>
<text x="213.05618" y="113.01754" fill="#000000" font-family="'Bitstream Vera Sans'" font-size="6.1987px" opacity=".8" stroke-width=".48939" style="line-height:0%" xml:space="preserve"><tspan x="213.05618" y="113.01754" stroke-width=".48939"/></text>
<text x="-289.91071" y="245.40825" fill="#000000" font-family="'Bitstream Vera Sans'" font-size="6.1987px" opacity=".8" stroke-width=".48939" style="line-height:0%" xml:space="preserve"><tspan x="-289.91071" y="245.40825" stroke-width=".48939"/></text>
<text x="-1182.4113" y="610.27747" fill="#000000" font-family="'Bitstream Vera Sans'" font-size="6.1987px" opacity=".8" stroke-width=".48939" style="line-height:0%" xml:space="preserve"><tspan x="-1182.4113" y="610.27747" stroke-width=".48939"/></text>
<text x="-215.96669" y="-176.21938" fill="#000000" font-family="'Bitstream Vera Sans'" font-size="6.1987px" opacity=".8" stroke-width=".48939" style="line-height:0%" xml:space="preserve"><tspan x="-215.96669" y="-176.21938" stroke-width=".48939"/></text>
<text x="179.26874" y="-378.56909" fill="#000000" font-family="'Bitstream Vera Sans'" font-size="6.1987px" opacity=".8" stroke-width=".48939" style="line-height:0%" xml:space="preserve"><tspan x="179.26874" y="-378.56909" stroke-width=".48939"/></text>
<text x="190.99507" y="-398.50781" fill="#000000" font-family="'Bitstream Vera Sans'" font-size="6.1987px" opacity=".8" stroke-width=".48939" style="line-height:0%" xml:space="preserve"><tspan x="190.99507" y="-398.50781" stroke-width=".48939"/></text>
<text x="-538.91766" y="-402.03635" fill="#000000" font-family="'Bitstream Vera Sans'" font-size="6.1987px" opacity=".8" stroke-width=".48939" style="line-height:0%" xml:space="preserve"><tspan x="-538.91766" y="-402.03635" stroke-width=".48939"/></text>
<text x="175.86281" y="-535.75543" fill="#000000" font-family="'Bitstream Vera Sans'" font-size="6.1987px" opacity=".8" stroke-width=".48939" style="line-height:0%" xml:space="preserve"><tspan x="175.86281" y="-535.75543" stroke-width=".48939"/></text>
<text x="903.16229" y="-229.05664" fill="#000000" font-family="'Bitstream Vera Sans'" font-size="6.1987px" opacity=".8" stroke-width=".48939" style="line-height:0%" xml:space="preserve"><tspan x="903.16229" y="-229.05664" stroke-width=".48939"/></text>
<text x="914.88855" y="-248.99532" fill="#000000" font-family="'Bitstream Vera Sans'" font-size="6.1987px" opacity=".8" stroke-width=".48939" style="line-height:0%" xml:space="preserve"><tspan x="914.88855" y="-248.99532" stroke-width=".48939"/></text>
<text x="184.97588" y="-252.52385" fill="#000000" font-family="'Bitstream Vera Sans'" font-size="6.1987px" opacity=".8" stroke-width=".48939" style="line-height:0%" xml:space="preserve"><tspan x="184.97588" y="-252.52385" stroke-width=".48939"/></text>
<text x="899.75641" y="-386.24292" fill="#000000" font-family="'Bitstream Vera Sans'" font-size="6.1987px" opacity=".8" stroke-width=".48939" style="line-height:0%" xml:space="preserve"><tspan x="899.75641" y="-386.24292" stroke-width=".48939"/></text>
<text x="-273.98553" y="-276.05942" fill="#000000" font-family="'Bitstream Vera Sans'" font-size="6.1987px" opacity=".8" stroke-width=".48939" style="line-height:0%" xml:space="preserve"><tspan x="-273.98553" y="-276.05942" stroke-width=".48939"/></text>
<text x="-1166.4858" y="88.809814" fill="#000000" font-family="'Bitstream Vera Sans'" font-size="6.1987px" opacity=".8" stroke-width=".48939" style="line-height:0%" xml:space="preserve"><tspan x="-1166.4858" y="88.809814" stroke-width=".48939"/></text>
<text x="-327.29532" y="134.26086" fill="#000000" font-family="'Bitstream Vera Sans'" font-size="6.1987px" opacity=".8" stroke-width=".48939" style="line-height:0%" xml:space="preserve"><tspan x="-327.29532" y="134.26086" stroke-width=".48939"/></text>
<text x="83.802536" y="252.16277" fill="#000000" font-family="'Bitstream Vera Sans'" font-size="6.1987px" opacity=".8" stroke-width=".48939" style="line-height:0%" xml:space="preserve"><tspan x="83.802536" y="252.16277" stroke-width=".48939"/></text>
<text x="95.528862" y="232.22401" fill="#000000" font-family="'Bitstream Vera Sans'" font-size="6.1987px" opacity=".8" stroke-width=".48939" style="line-height:0%" xml:space="preserve"><tspan x="95.528862" y="232.22401" stroke-width=".48939"/></text>
<text x="-525.9115" y="137.26762" fill="#000000" font-family="'Bitstream Vera Sans'" font-size="6.1987px" opacity=".8" stroke-width=".48939" style="line-height:0%" xml:space="preserve"><tspan x="-525.9115" y="137.26762" stroke-width=".48939"/></text>
<text x="-130.67609" y="-65.082085" fill="#000000" font-family="'Bitstream Vera Sans'" font-size="6.1987px" opacity=".8" stroke-width=".48939" style="line-height:0%" xml:space="preserve"><tspan x="-130.67609" y="-65.082085" stroke-width=".48939"/></text>
<text x="-118.94975" y="-85.020813" fill="#000000" font-family="'Bitstream Vera Sans'" font-size="6.1987px" opacity=".8" stroke-width=".48939" style="line-height:0%" xml:space="preserve"><tspan x="-118.94975" y="-85.020813" stroke-width=".48939"/></text>
<text x="-848.86249" y="-88.549294" fill="#000000" font-family="'Bitstream Vera Sans'" font-size="6.1987px" opacity=".8" stroke-width=".48939" style="line-height:0%" xml:space="preserve"><tspan x="-848.86249" y="-88.549294" stroke-width=".48939"/></text>
<text x="-134.082" y="-222.26836" fill="#000000" font-family="'Bitstream Vera Sans'" font-size="6.1987px" opacity=".8" stroke-width=".48939" style="line-height:0%" xml:space="preserve"><tspan x="-134.082" y="-222.26836" stroke-width=".48939"/></text>
<text x="593.21753" y="84.430466" fill="#000000" font-family="'Bitstream Vera Sans'" font-size="6.1987px" opacity=".8" stroke-width=".48939" style="line-height:0%" xml:space="preserve"><tspan x="593.21753" y="84.430466" stroke-width=".48939"/></text>
<text x="604.94373" y="64.49173" fill="#000000" font-family="'Bitstream Vera Sans'" font-size="6.1987px" opacity=".8" stroke-width=".48939" style="line-height:0%" xml:space="preserve"><tspan x="604.94373" y="64.49173" stroke-width=".48939"/></text>
<text x="-124.96893" y="60.963207" fill="#000000" font-family="'Bitstream Vera Sans'" font-size="6.1987px" opacity=".8" stroke-width=".48939" style="line-height:0%" xml:space="preserve"><tspan x="-124.96893" y="60.963207" stroke-width=".48939"/></text>
<text x="589.81158" y="-72.755821" fill="#000000" font-family="'Bitstream Vera Sans'" font-size="6.1987px" opacity=".8" stroke-width=".48939" style="line-height:0%" xml:space="preserve"><tspan x="589.81158" y="-72.755821" stroke-width=".48939"/></text>
<text x="-583.93036" y="37.427639" fill="#000000" font-family="'Bitstream Vera Sans'" font-size="6.1987px" opacity=".8" stroke-width=".48939" style="line-height:0%" xml:space="preserve"><tspan x="-583.93036" y="37.427639" stroke-width=".48939"/></text>
<text x="-1476.4308" y="402.29688" fill="#000000" font-family="'Bitstream Vera Sans'" font-size="6.1987px" opacity=".8" stroke-width=".48939" style="line-height:0%" xml:space="preserve"><tspan x="-1476.4308" y="402.29688" stroke-width=".48939"/></text>
<g transform="matrix(.44278 0 0 .44278 -343.12 -65.617)">
<text x="-664.2738" y="1159.4154" fill="#000000" font-family="'Bitstream Vera Sans'" font-size="14px" opacity=".8" style="line-height:0%" xml:space="preserve"><tspan x="-664.2738" y="1159.4154"/></text>
</g>
<text x="436.96567" y="274.18884" fill="#000000" font-family="'Bitstream Vera Sans'" font-size="6.1987px" opacity=".8" stroke-width=".48939" style="line-height:0%" xml:space="preserve"><tspan x="436.96567" y="274.18884" stroke-width=".48939"/></text>
<text x="448.69202" y="254.25011" fill="#000000" font-family="'Bitstream Vera Sans'" font-size="6.1987px" opacity=".8" stroke-width=".48939" style="line-height:0%" xml:space="preserve"><tspan x="448.69202" y="254.25011" stroke-width=".48939"/></text>
<text x="-270.99005" y="239.53004" fill="#000000" font-family="'Bitstream Vera Sans'" font-size="6.1987px" opacity=".8" stroke-width=".48939" style="line-height:0%" xml:space="preserve"><tspan x="-270.99005" y="239.53004" stroke-width=".48939"/></text>
<text x="-1163.4905" y="604.39923" fill="#000000" font-family="'Bitstream Vera Sans'" font-size="6.1987px" opacity=".8" stroke-width=".48939" style="line-height:0%" xml:space="preserve"><tspan x="-1163.4905" y="604.39923" stroke-width=".48939"/></text>
<text x="-214.95882" y="50.95639" fill="#000000" font-family="'Bitstream Vera Sans'" font-size="6.1987px" opacity=".8" stroke-width=".48939" style="line-height:0%" xml:space="preserve"><tspan x="-214.95882" y="50.95639" stroke-width=".48939"/></text>
<text x="180.27661" y="-151.3933" fill="#000000" font-family="'Bitstream Vera Sans'" font-size="6.1987px" opacity=".8" stroke-width=".48939" style="line-height:0%" xml:space="preserve"><tspan x="180.27661" y="-151.3933" stroke-width=".48939"/></text>
<text x="192.00293" y="-171.33206" fill="#000000" font-family="'Bitstream Vera Sans'" font-size="6.1987px" opacity=".8" stroke-width=".48939" style="line-height:0%" xml:space="preserve"><tspan x="192.00293" y="-171.33206" stroke-width=".48939"/></text>
<text x="-537.90979" y="-174.86053" fill="#000000" font-family="'Bitstream Vera Sans'" font-size="6.1987px" opacity=".8" stroke-width=".48939" style="line-height:0%" xml:space="preserve"><tspan x="-537.90979" y="-174.86053" stroke-width=".48939"/></text>
<text x="176.8707" y="-308.57959" fill="#000000" font-family="'Bitstream Vera Sans'" font-size="6.1987px" opacity=".8" stroke-width=".48939" style="line-height:0%" xml:space="preserve"><tspan x="176.8707" y="-308.57959" stroke-width=".48939"/></text>
<text x="904.17023" y="-1.8807873" fill="#000000" font-family="'Bitstream Vera Sans'" font-size="6.1987px" opacity=".8" stroke-width=".48939" style="line-height:0%" xml:space="preserve"><tspan x="904.17023" y="-1.8807873" stroke-width=".48939"/></text>
<text x="915.89648" y="-21.819544" fill="#000000" font-family="'Bitstream Vera Sans'" font-size="6.1987px" opacity=".8" stroke-width=".48939" style="line-height:0%" xml:space="preserve"><tspan x="915.89648" y="-21.819544" stroke-width=".48939"/></text>
<text x="185.98376" y="-25.348021" fill="#000000" font-family="'Bitstream Vera Sans'" font-size="6.1987px" opacity=".8" stroke-width=".48939" style="line-height:0%" xml:space="preserve"><tspan x="185.98376" y="-25.348021" stroke-width=".48939"/></text>
<text x="900.76428" y="-159.067" fill="#000000" font-family="'Bitstream Vera Sans'" font-size="6.1987px" opacity=".8" stroke-width=".48939" style="line-height:0%" xml:space="preserve"><tspan x="900.76428" y="-159.067" stroke-width=".48939"/></text>
<text x="-272.97766" y="-48.883617" fill="#000000" font-family="'Bitstream Vera Sans'" font-size="6.1987px" opacity=".8" stroke-width=".48939" style="line-height:0%" xml:space="preserve"><tspan x="-272.97766" y="-48.883617" stroke-width=".48939"/></text>
<text x="-1165.478" y="315.98563" fill="#000000" font-family="'Bitstream Vera Sans'" font-size="6.1987px" opacity=".8" stroke-width=".48939" style="line-height:0%" xml:space="preserve"><tspan x="-1165.478" y="315.98563" stroke-width=".48939"/></text>
<text x="-326.28745" y="361.43668" fill="#000000" font-family="'Bitstream Vera Sans'" font-size="6.1987px" opacity=".8" stroke-width=".48939" style="line-height:0%" xml:space="preserve"><tspan x="-326.28745" y="361.43668" stroke-width=".48939"/></text>
<text x="216.46211" y="273.74606" fill="#000000" font-family="'Bitstream Vera Sans'" font-size="6.1987px" opacity=".8" stroke-width=".48939" style="line-height:0%" xml:space="preserve"><tspan x="216.46211" y="273.74606" stroke-width=".48939"/></text>
<text x="228.18845" y="253.80733" fill="#000000" font-family="'Bitstream Vera Sans'" font-size="6.1987px" opacity=".8" stroke-width=".48939" style="line-height:0%" xml:space="preserve"><tspan x="228.18845" y="253.80733" stroke-width=".48939"/></text>
<text x="-501.72427" y="250.27881" fill="#000000" font-family="'Bitstream Vera Sans'" font-size="6.1987px" opacity=".8" stroke-width=".48939" style="line-height:0%" xml:space="preserve"><tspan x="-501.72427" y="250.27881" stroke-width=".48939"/></text>
<text x="213.05618" y="116.55978" fill="#000000" font-family="'Bitstream Vera Sans'" font-size="6.1987px" opacity=".8" stroke-width=".48939" style="line-height:0%" xml:space="preserve"><tspan x="213.05618" y="116.55978" stroke-width=".48939"/></text>
<text x="-289.91071" y="248.95047" fill="#000000" font-family="'Bitstream Vera Sans'" font-size="6.1987px" opacity=".8" stroke-width=".48939" style="line-height:0%" xml:space="preserve"><tspan x="-289.91071" y="248.95047" stroke-width=".48939"/></text>
<text x="-1182.4113" y="613.8197" fill="#000000" font-family="'Bitstream Vera Sans'" font-size="6.1987px" opacity=".8" stroke-width=".48939" style="line-height:0%" xml:space="preserve"><tspan x="-1182.4113" y="613.8197" stroke-width=".48939"/></text>
<text x="-215.96669" y="-172.67717" fill="#000000" font-family="'Bitstream Vera Sans'" font-size="6.1987px" opacity=".8" stroke-width=".48939" style="line-height:0%" xml:space="preserve"><tspan x="-215.96669" y="-172.67717" stroke-width=".48939"/></text>
<text x="179.26874" y="-375.02689" fill="#000000" font-family="'Bitstream Vera Sans'" font-size="6.1987px" opacity=".8" stroke-width=".48939" style="line-height:0%" xml:space="preserve"><tspan x="179.26874" y="-375.02689" stroke-width=".48939"/></text>
<text x="190.99507" y="-394.96567" fill="#000000" font-family="'Bitstream Vera Sans'" font-size="6.1987px" opacity=".8" stroke-width=".48939" style="line-height:0%" xml:space="preserve"><tspan x="190.99507" y="-394.96567" stroke-width=".48939"/></text>
<text x="-538.91766" y="-398.49411" fill="#000000" font-family="'Bitstream Vera Sans'" font-size="6.1987px" opacity=".8" stroke-width=".48939" style="line-height:0%" xml:space="preserve"><tspan x="-538.91766" y="-398.49411" stroke-width=".48939"/></text>
<text x="175.86281" y="-532.2132" fill="#000000" font-family="'Bitstream Vera Sans'" font-size="6.1987px" opacity=".8" stroke-width=".48939" style="line-height:0%" xml:space="preserve"><tspan x="175.86281" y="-532.2132" stroke-width=".48939"/></text>
<text x="903.16229" y="-225.51442" fill="#000000" font-family="'Bitstream Vera Sans'" font-size="6.1987px" opacity=".8" stroke-width=".48939" style="line-height:0%" xml:space="preserve"><tspan x="903.16229" y="-225.51442" stroke-width=".48939"/></text>
<text x="914.88855" y="-245.45312" fill="#000000" font-family="'Bitstream Vera Sans'" font-size="6.1987px" opacity=".8" stroke-width=".48939" style="line-height:0%" xml:space="preserve"><tspan x="914.88855" y="-245.45312" stroke-width=".48939"/></text>
<text x="184.97588" y="-248.98157" fill="#000000" font-family="'Bitstream Vera Sans'" font-size="6.1987px" opacity=".8" stroke-width=".48939" style="line-height:0%" xml:space="preserve"><tspan x="184.97588" y="-248.98157" stroke-width=".48939"/></text>
<text x="899.75641" y="-382.70065" fill="#000000" font-family="'Bitstream Vera Sans'" font-size="6.1987px" opacity=".8" stroke-width=".48939" style="line-height:0%" xml:space="preserve"><tspan x="899.75641" y="-382.70065" stroke-width=".48939"/></text>
<text x="-273.98553" y="-272.51715" fill="#000000" font-family="'Bitstream Vera Sans'" font-size="6.1987px" opacity=".8" stroke-width=".48939" style="line-height:0%" xml:space="preserve"><tspan x="-273.98553" y="-272.51715" stroke-width=".48939"/></text>
<text x="-1166.4858" y="92.352043" fill="#000000" font-family="'Bitstream Vera Sans'" font-size="6.1987px" opacity=".8" stroke-width=".48939" style="line-height:0%" xml:space="preserve"><tspan x="-1166.4858" y="92.352043" stroke-width=".48939"/></text>
<text x="-327.29532" y="137.8031" fill="#000000" font-family="'Bitstream Vera Sans'" font-size="6.1987px" opacity=".8" stroke-width=".48939" style="line-height:0%" xml:space="preserve"><tspan x="-327.29532" y="137.8031" stroke-width=".48939"/></text>
<text x="83.802536" y="255.70499" fill="#000000" font-family="'Bitstream Vera Sans'" font-size="6.1987px" opacity=".8" stroke-width=".48939" style="line-height:0%" xml:space="preserve"><tspan x="83.802536" y="255.70499" stroke-width=".48939"/></text>
<text x="95.528862" y="235.76624" fill="#000000" font-family="'Bitstream Vera Sans'" font-size="6.1987px" opacity=".8" stroke-width=".48939" style="line-height:0%" xml:space="preserve"><tspan x="95.528862" y="235.76624" stroke-width=".48939"/></text>
<text x="-525.9115" y="140.80986" fill="#000000" font-family="'Bitstream Vera Sans'" font-size="6.1987px" opacity=".8" stroke-width=".48939" style="line-height:0%" xml:space="preserve"><tspan x="-525.9115" y="140.80986" stroke-width=".48939"/></text>
<text x="-130.67609" y="-61.539867" fill="#000000" font-family="'Bitstream Vera Sans'" font-size="6.1987px" opacity=".8" stroke-width=".48939" style="line-height:0%" xml:space="preserve"><tspan x="-130.67609" y="-61.539867" stroke-width=".48939"/></text>
<text x="-118.94975" y="-81.4786" fill="#000000" font-family="'Bitstream Vera Sans'" font-size="6.1987px" opacity=".8" stroke-width=".48939" style="line-height:0%" xml:space="preserve"><tspan x="-118.94975" y="-81.4786" stroke-width=".48939"/></text>
<text x="-848.86249" y="-85.007103" fill="#000000" font-family="'Bitstream Vera Sans'" font-size="6.1987px" opacity=".8" stroke-width=".48939" style="line-height:0%" xml:space="preserve"><tspan x="-848.86249" y="-85.007103" stroke-width=".48939"/></text>
<text x="-134.082" y="-218.72612" fill="#000000" font-family="'Bitstream Vera Sans'" font-size="6.1987px" opacity=".8" stroke-width=".48939" style="line-height:0%" xml:space="preserve"><tspan x="-134.082" y="-218.72612" stroke-width=".48939"/></text>
<text x="593.21753" y="87.972687" fill="#000000" font-family="'Bitstream Vera Sans'" font-size="6.1987px" opacity=".8" stroke-width=".48939" style="line-height:0%" xml:space="preserve"><tspan x="593.21753" y="87.972687" stroke-width=".48939"/></text>
<text x="604.94373" y="68.033943" fill="#000000" font-family="'Bitstream Vera Sans'" font-size="6.1987px" opacity=".8" stroke-width=".48939" style="line-height:0%" xml:space="preserve"><tspan x="604.94373" y="68.033943" stroke-width=".48939"/></text>
<text x="-124.96893" y="64.50544" fill="#000000" font-family="'Bitstream Vera Sans'" font-size="6.1987px" opacity=".8" stroke-width=".48939" style="line-height:0%" xml:space="preserve"><tspan x="-124.96893" y="64.50544" stroke-width=".48939"/></text>
<text x="589.81158" y="-69.213608" fill="#000000" font-family="'Bitstream Vera Sans'" font-size="6.1987px" opacity=".8" stroke-width=".48939" style="line-height:0%" xml:space="preserve"><tspan x="589.81158" y="-69.213608" stroke-width=".48939"/></text>
<text x="-583.93036" y="40.969872" fill="#000000" font-family="'Bitstream Vera Sans'" font-size="6.1987px" opacity=".8" stroke-width=".48939" style="line-height:0%" xml:space="preserve"><tspan x="-583.93036" y="40.969872" stroke-width=".48939"/></text>
<text x="-1476.4308" y="405.83911" fill="#000000" font-family="'Bitstream Vera Sans'" font-size="6.1987px" opacity=".8" stroke-width=".48939" style="line-height:0%" xml:space="preserve"><tspan x="-1476.4308" y="405.83911" stroke-width=".48939"/></text>
<g transform="matrix(.44278 0 0 .44278 -343.12 -62.074)">
<text x="-664.2738" y="1159.4154" fill="#000000" font-family="'Bitstream Vera Sans'" font-size="14px" opacity=".8" style="line-height:0%" xml:space="preserve"><tspan x="-664.2738" y="1159.4154"/></text>
</g>
<text x="220.98546" y="88.573517" fill="#000000" font-family="'Droid Sans'" font-size="6.1987px" stroke-width=".48939" style="line-height:0%" xml:space="preserve"><tspan x="220.98546" y="88.573517"/><tspan x="220.98546" y="96.322121"/></text>
<text x="448.64355" y="-147.33609" fill="#000000" font-family="'Bitstream Vera Sans'" font-size="6.1987px" opacity=".8" stroke-width=".48939" style="line-height:0%" xml:space="preserve"><tspan x="448.64355" y="-147.33609" stroke-width=".48939"/></text>
<text x="-443.85693" y="217.53313" fill="#000000" font-family="'Bitstream Vera Sans'" font-size="6.1987px" opacity=".8" stroke-width=".48939" style="line-height:0%" xml:space="preserve"><tspan x="-443.85693" y="217.53313" stroke-width=".48939"/></text>
<text x="804.47174" y="-286.81128" fill="#000000" font-family="'Bitstream Vera Sans'" font-size="6.1987px" opacity=".8" stroke-width=".48939" style="line-height:0%" xml:space="preserve"><tspan x="804.47174" y="-286.81128" stroke-width=".48939"/></text>
<text x="816.198" y="-306.75" fill="#000000" font-family="'Bitstream Vera Sans'" font-size="6.1987px" opacity=".8" stroke-width=".48939" style="line-height:0%" xml:space="preserve"><tspan x="816.198" y="-306.75" stroke-width=".48939"/></text>
<text x="86.285286" y="-310.2785" fill="#000000" font-family="'Bitstream Vera Sans'" font-size="6.1987px" opacity=".8" stroke-width=".48939" style="line-height:0%" xml:space="preserve"><tspan x="86.285286" y="-310.2785" stroke-width=".48939"/></text>
<text x="801.0658" y="-443.99759" fill="#000000" font-family="'Bitstream Vera Sans'" font-size="6.1987px" opacity=".8" stroke-width=".48939" style="line-height:0%" xml:space="preserve"><tspan x="801.0658" y="-443.99759" stroke-width=".48939"/></text>
<g transform="matrix(1.0309 0 0 1.0309 -3.0673 -5.8555)">
<rect x="3.4968" y="261.72" width="31.811" height="31.811" ry=".91761" fill-rule="evenodd" opacity=".25"/>
<rect x="3.4968" y="261.2" width="31.811" height="31.811" ry=".91761" fill="url(#radialGradient1872)" fill-rule="evenodd"/>
<rect transform="matrix(0,-1,-1,0,0,0)" x="-286.44" y="-28.211" width="17.618" height="17.618" rx=".88091" ry="1.1011" opacity=".25" stroke-width=".48939"/>
<rect transform="matrix(0,-1,-1,0,0,0)" x="-285.91" y="-28.211" width="17.618" height="17.618" rx=".88091" ry="1.1011" fill="url(#linearGradient5236)" stroke-width=".48939"/>
<g transform="matrix(.31667 0 0 .31143 11.802 269.63)" fill="#325694">
<path d="m40.851 19.248c-1.601-7.633-16.702-8.117-26.435-2.301v0.64231c9.7209-4.9081 23.514-4.8768 24.77 2.1547 0.42295 2.3294-0.90916 4.752-3.2977 6.1459v1.8242c2.8753-1.0319 5.8143-4.3718 4.9629-8.466m-17.701 13.365c-6.717 0.608-13.716-0.349-14.696-5.504-0.4867-2.538 0.6979-5.232 2.261-6.904v-0.89492c-2.8177 2.4259-4.3482 5.4944-3.4645 9.1175 1.127 4.6494 7.1337 7.2811 16.304 6.4048 3.6309-0.34287 8.3826-1.4904 11.68-3.2706v-2.5292c-2.9969 1.7555-7.9535 3.2058-12.084 3.5797z"/>
<g transform="matrix(1.1214,0,0,1.1339,-2.2027,-4.3125)">
<path d="m34.067 19.677h-1.6573v7.0052c0 0.82275 0.41595 1.5383 1.6573 1.6518"/>
<path d="m14.323 22.237h-1.6575v4.5755c0 0.82306 0.41595 1.5384 1.6575 1.6518"/>
<rect x="12.665" y="19.89" width="1.6575" height="1.4902"/>
<path d="m24.255 28.391c-1.3439 0-1.9104-0.8857-1.9104-1.7598v-6.0768h1.6394v1.6831h1.2414v1.2602h-1.2414v3.0399c0 0.35751 0.18079 0.55357 0.57241 0.55357h0.66904v1.2999h-0.97036"/>
<path d="m28.613 23.421c-0.56038 0-0.99421 0.27525-1.1751 0.64713-0.10845 0.22414-0.1447 0.39451-0.16259 0.66997h2.5374c-0.03622-0.67282-0.35585-1.3171-1.1997-1.3171m-1.3377 2.3786c0 0.79763 0.53008 1.3849 1.4583 1.3849 0.72942 0 1.091-0.193 1.5129-0.58719l1.0126 0.92239c-0.65094 0.60723-1.332 0.97631-2.5374 0.97631-1.573 0-3.0799-0.8146-3.0799-3.1876 0-2.0293 1.3139-3.1759 3.0437-3.1759 1.7539 0 2.7602 1.3425 2.7602 3.1052v0.56203h-4.1704"/>
<path d="m18.789 23.497c0.48206 0 0.68102 0.22429 0.68102 0.59041v4.3114h1.6454v-4.3171c0-0.87708-0.49426-1.845-1.9347-1.845h-3.3932v6.162h1.6394v-4.9018"/>
</g>
</g>
<g transform="matrix(.61174 0 0 .61174 -269.9 -40.882)">
<g transform="translate(63.84 -2.1006)" fill="#fff" fill-opacity=".77551">
<path d="m427.57 543.8v1h-1v-1zm-1 1v1h-1v-1zm-1 0h-1v-1h1zm-1 0v1h-1v-1zm-1 0h-1v-1h1zm-1 0v1h-1v-1zm-1 0h-1v-1h1zm-1 0v1h-1v-1zm-1 0h-1v-1h1zm-1 0v1h-1v-1zm-1 0h-1v-1h1zm-1 0v1h-1v-1zm-1 0h-1v-1h1zm-1 0v1h-1v-1zm-1 0h-1v-1h1zm-1 0v1h-1v-1z" color="#000000" style="text-decoration-line:none;text-indent:0;text-transform:none"/>
<path d="m431.57 543.8-2 2h2z" fill-rule="evenodd"/>
<path d="m387.57 543.8v1h1v-1zm1 1v1h1v-1zm1 0h1v-1h-1zm1 0v1h1v-1zm1 0h1v-1h-1zm1 0v1h1v-1zm1 0h1v-1h-1zm1 0v1h1v-1zm1 0h1v-1h-1zm1 0v1h1v-1zm1 0h1v-1h-1zm1 0v1h1v-1zm1 0h1v-1h-1zm1 0v1h1v-1zm1 0h1v-1h-1zm1 0v1h1v-1z" color="#000000" style="text-decoration-line:none;text-indent:0;text-transform:none"/>
<path d="m432.57 521.8h-1v-1h1zm-1-1h-1v-1h1zm0-1v-1h1v1zm0-1h-1v-1h1zm0-1v-1h1v1zm0-1h-1v-1h1zm0-1v-1h1v1zm0-1h-1v-1h1zm0-1v-1h1v1zm0-1h-1v-1h1zm0-1v-1h1v1zm0-1h-1v-1h1zm0-1v-1h1v1zm0-1h-1v-1h1zm0-1v-1h1v1zm0-1h-1v-1h1z" color="#000000" style="text-decoration-line:none;text-indent:0;text-transform:none"/>
<path transform="translate(376.57 491.8)" d="m54 40v1h1v-1zm1 1v1h1v-1zm0 1h-1v1h1zm0 1v1h1v-1zm0 1h-1v1h1zm0 1v1h1v-1zm0 1h-1v1h1zm0 1v1h1v-1zm0 1h-1v1h1z" color="#000000" style="text-decoration-line:none;text-indent:0;text-transform:none"/>
</g>
</g>
</g>
</g>
</svg>
