<svg width="128" height="128" version="1.1" viewBox="0 0 33.867 33.867" xmlns="http://www.w3.org/2000/svg" xmlns:osb="http://www.openswatchbook.org/uri/2009/osb" xmlns:xlink="http://www.w3.org/1999/xlink">
<defs>
<linearGradient id="linearGradient1142" x1="-160.91" x2="-156.94" y1="127.46" y2="285.88" gradientTransform="matrix(.10012 .08996 -.08996 .10012 54.815 277.16)" gradientUnits="userSpaceOnUse">
<stop stop-color="#fcfdff" offset="0"/>
<stop stop-color="#e0e2e5" offset="1"/>
</linearGradient>
<linearGradient id="linearGradient922" x1="-64.607" x2="-64.453" y1="136.39" y2="207.24" gradientTransform="matrix(.32381 0 0 .32381 33.651 219.74)" gradientUnits="userSpaceOnUse">
<stop stop-color="#ccc" offset="0"/>
<stop stop-color="#b2b2b2" offset="1"/>
</linearGradient>
</defs>
<g transform="translate(0 -263.13)">
<g transform="matrix(1.0787 0 0 1.0787 -.4773 -20.725)">
<path d="m27.476 275.71c-1.0359-0.91016-2.2226-1.8075-3.607-1.7782-2.1204 0.0449-2.6456 0.92177-4.0855 2.297-2.9393 2.8072-6.562 7.019-8.616 10.538-0.60248 1.0322-0.33174 2.3827 0.38872 3.3331 0.55295 0.72942 1.1568 1.4482 1.828 2.0938 0.71352 0.59855 1.4926 1.1223 2.2768 1.5943 1.0218 0.615 2.3935 0.74017 3.3556 0.031 3.2798-2.4175 7.0812-6.4687 9.559-9.6906 1.2138-1.5783 2.0297-2.1941 1.8482-4.3072-0.1185-1.3796-1.1372-2.4639-2.1527-3.3968-0.13272-0.12194-0.26696-0.24004-0.39754-0.35719-0.1304-0.11734-0.26215-0.23823-0.39754-0.35718z" color="#000000" opacity=".25"/>
<rect x="1.8949" y="264.09" width="23.638" height="23.638" ry="2.7687" opacity=".25"/>
<rect x="1.8949" y="263.56" width="23.638" height="23.638" ry="2.7687" fill="url(#linearGradient922)" stroke="#808080" stroke-linecap="round" stroke-linejoin="round" stroke-width=".32381"/>
<path d="m27.476 275.18c-1.0359-0.91016-2.2226-1.8075-3.607-1.7782-2.1204 0.0449-2.6456 0.92177-4.0855 2.297-2.9393 2.8072-6.562 7.019-8.616 10.538-0.60248 1.0322-0.33174 2.3827 0.38872 3.3331 0.55295 0.72942 1.1568 1.4482 1.828 2.0938 0.71352 0.59855 1.4926 1.1223 2.2768 1.5943 1.0218 0.615 2.3935 0.74017 3.3556 0.031 3.2798-2.4175 7.0812-6.4687 9.559-9.6906 1.2138-1.5783 2.0297-2.1941 1.8482-4.3072-0.1185-1.3796-1.1372-2.4639-2.1527-3.3968-0.13272-0.12194-0.26696-0.24004-0.39754-0.35719-0.1304-0.11734-0.26215-0.23823-0.39754-0.35718z" color="#000000" fill="url(#linearGradient1142)" stroke="#808080" stroke-linejoin="round" stroke-width=".2"/>
<path d="m15.443 288.7c-0.0073-0.0101-0.01044-0.0159-0.0065-0.0134 0.0036 3e-3 0.0015-4e-3 -0.0057-0.0136-0.02706-0.0388-0.05043-0.11785-0.05802-0.19597-0.0074-0.0765 0.0071-0.26443 0.02974-0.3858 0.039-0.2086 0.12929-0.43651 0.24554-0.61979 0.07789-0.1228 0.19202-0.25204 0.29075-0.32926 0.29889-0.23369 0.68068-0.24172 0.92886-0.0195 0.05096 0.0456 0.08082 0.0858 0.12945 0.17463 0.11088 0.20229 0.11075 0.20207 0.13821 0.22664 0.02132 0.019 0.04174 0.0302 0.09986 0.0543 0.26491 0.11005 0.28233 0.11933 0.3646 0.19408 0.11167 0.1008 0.18786 0.23125 0.21496 0.36548 0.01039 0.0515 0.01508 0.12999 0.01027 0.1723l-0.0023 0.0203-0.05994-5e-3c-0.2271-0.0206-0.41458 0.0623-0.55652 0.24606-0.04656 0.0603-0.07445 0.11062-0.09871 0.17814-0.04451 0.1239-0.04264 0.29974 0.0045 0.42435 0.0081 0.0216 0.01289 0.0415 0.01055 0.0441-0.01191 0.0134-0.12175 0.0666-0.20595 0.0999-0.12976 0.0513-0.27452 0.0882-0.41774 0.10669-0.10317 0.0133-0.20742-3e-3 -0.27503-0.0425-0.01708-0.0102-0.02944-0.0148-0.02725-0.0105 0.0022 4e-3 -0.0099-5e-3 -0.02727-0.0194-0.01818-0.0162-0.02743-0.027-0.02257-0.026 0.0057 7.7e-4 0.0011-7e-3 -0.01208-0.0221-0.02262-0.0255-0.05525-0.0807-0.09928-0.16693-0.04389-0.0861-0.08718-0.14152-0.15207-0.19481-0.05713-0.0469-0.09836-0.0707-0.17633-0.10161-0.09779-0.0388-0.1524-0.0626-0.17065-0.0744-0.01086-6e-3 -0.01936-0.01-0.01994-7e-3 -6.4e-4 3e-3 -0.0055 2e-3 -0.01095-3e-3 -0.0055-5e-3 -0.01887-0.0153-0.02976-0.0232-0.01074-8e-3 -0.02569-0.0226-0.03276-0.033zm1.805-1.3126c-5.89e-4 -0.01 0.06909-0.0824 0.10332-0.10764 0.12441-0.0917 0.30487-0.13232 0.46458-0.10459 0.0674 0.0117 0.14748 0.0382 0.19645 0.0649 0.02023 0.0111 0.03665 0.0177 0.03653 0.0146 2.3e-4 -3e-3 0.0054-2.6e-4 0.01236 6e-3 7e-3 6e-3 0.01613 0.0126 0.02024 0.0143 0.01671 6e-3 -0.1016 0.11328-0.16923 0.15293-0.16215 0.095-0.38133 0.11661-0.52922 0.0522-0.05363-0.0233-0.13434-0.0787-0.13505-0.0928z" fill="#999" stroke-width=".00553"/>
</g>
</g>
</svg>
