<svg width="128" height="128" version="1.1" viewBox="0 0 33.867 33.867" xmlns="http://www.w3.org/2000/svg" xmlns:osb="http://www.openswatchbook.org/uri/2009/osb" xmlns:xlink="http://www.w3.org/1999/xlink">
<defs>
<filter id="filter4244-4" x="-.14734" y="-.16574" width="1.2947" height="1.3315" color-interpolation-filters="sRGB">
<feGaussianBlur stdDeviation="3.3624534"/>
</filter>
<linearGradient id="SVGID_11_" x1="1456.9" x2="1460.4" y1="-810.5" y2="-811.9" gradientTransform="matrix(-2.732 0 0 2.732 4027.2 2244.5)" gradientUnits="userSpaceOnUse">
<stop stop-color="#E7DDAF" offset="0"/>
<stop stop-color="#E7DDAF" stop-opacity="0" offset="1"/>
</linearGradient>
<linearGradient id="SVGID_12_" x1="1456.3" x2="1460" y1="-807.81" y2="-808.72" gradientTransform="matrix(-2.731 -.077161 -.077161 2.731 3970.8 2345.5)" gradientUnits="userSpaceOnUse">
<stop stop-color="#EAC7AE" offset="0"/>
<stop stop-color="#EAC7AE" stop-opacity="0" offset="1"/>
</linearGradient>
<linearGradient id="SVGID_13_" x1="1459.9" x2="1462.9" y1="-808.34" y2="-810.66" gradientTransform="matrix(-2.732 0 0 2.732 4027.2 2244.5)" gradientUnits="userSpaceOnUse">
<stop stop-color="#CAEFB9" offset="0"/>
<stop stop-color="#CAEFB9" stop-opacity="0" offset="1"/>
</linearGradient>
<linearGradient id="SVGID_14_" x1="1462.3" x2="1464.5" y1="-805.88" y2="-808.6" gradientTransform="matrix(-2.732 0 0 2.732 4027.2 2244.5)" gradientUnits="userSpaceOnUse">
<stop stop-color="#B1E3DA" offset="0"/>
<stop stop-color="#B1E3DA" stop-opacity="0" offset="1"/>
</linearGradient>
<linearGradient id="SVGID_15_" x1="1463.3" x2="1462.4" y1="-803.87" y2="-801.14" gradientTransform="matrix(-2.732 0 0 2.732 4027.2 2244.5)" gradientUnits="userSpaceOnUse">
<stop stop-color="#A5C5EE" offset="0"/>
<stop stop-color="#A5C5EE" stop-opacity="0" offset="1"/>
</linearGradient>
<linearGradient id="linearGradient1318" x1="-220.1" x2="-84.801" y1="138.84" y2="266.5" gradientTransform="matrix(0 -.22212 -.22212 0 64.259 241.73)" gradientUnits="userSpaceOnUse">
<stop stop-color="#383838" offset="0"/>
<stop stop-color="#4f4f4f" offset="1"/>
</linearGradient>
<linearGradient id="linearGradient1384" x1="-263.46" x2="-173.93" y1="176.74" y2="176.74" gradientTransform="matrix(.22212 0 0 .22212 70.007 227.53)" gradientUnits="userSpaceOnUse">
<stop stop-color="#f5f9fd" offset="0"/>
<stop stop-color="#c2c6ca" offset="1"/>
</linearGradient>
</defs>
<g transform="translate(0 -263.13)">
<g transform="matrix(-.97398 0 0 -.97398 -27.864 267.24)" display="none" filter="url(#filter4244-4)">
<path d="m32.027 20.525 18.936 25.572c2.4941-1.8301 5.3711-3.1885 8.5859-3.8936 0.08496-0.01953 0.16406-0.03711 0.25-0.05469l-6.6377-31.131c-7.8936 1.5332-14.533 5.0693-21.134 9.5068z" display="inline" enable-background="new    " fill="url(#SVGID_11_)" opacity=".8"/>
<g display="inline">
<path d="m43.664 13.968 12.203 29.351c2.8633-1.1729 5.9824-1.7959 9.272-1.7021 0.0874 2e-3 0.16894 0.0039 0.25635 0.0068l0.93555-31.733c-8.0303-0.41992-15.188 1.3672-22.667 4.0781z" enable-background="new    " fill="url(#SVGID_12_)" opacity=".8"/>
<path d="m21.456 30.745 25.173 19.549c1.9355-2.4121 4.3623-4.4688 7.2852-5.9824 0.07813-0.04102 0.14941-0.07813 0.22754-0.11719l-14.617-28.191c-7.2275 3.5234-12.841 8.7471-18.068 14.742z" enable-background="new    " fill="url(#SVGID_13_)" opacity=".8"/>
<path d="m14.299 42.841c19.602 6.125 21.447 19.21 34.906 4.792l-21.609-23.758c-6.0684 5.2744-9.7988 11.822-13.297 18.966z" enable-background="new    " fill="url(#SVGID_14_)" opacity=".8"/>
<path d="m18.459 34.97c-3.2324 4.7871-5.2119 9.9355-6.8984 15.42l30.977 8.1289c0.58984-2.085 1.416-4.1387 2.6465-6.0625 0.04785-0.07324 0.12305-0.18262 0.17188-0.25586z" enable-background="new    " fill="url(#SVGID_15_)" opacity=".8"/>
</g>
</g>
<g transform="matrix(1.015 0 0 1.015 -3.0284 -1.0815)">
<path d="m5.0625 261.1c-0.86071 0-1.5536 0.69292-1.5536 1.5536v29.208c0 0.86071 0.69292 1.5537 1.5536 1.5537h29.208c0.86071 0 1.5536-0.69303 1.5536-1.5537v-29.208c0-0.86071-0.69291-1.5536-1.5536-1.5536zm-0.19939 28.942h1.5548v1.1107h-1.5548zm28.556 0h1.5549v1.1107h-1.5549z" opacity=".25" stroke-width=".62145"/>
<path d="m5.0625 260.57c-0.86071 0-1.5536 0.69292-1.5536 1.5536v29.208c0 0.86071 0.69292 1.5537 1.5536 1.5537h29.208c0.86071 0 1.5536-0.69303 1.5536-1.5537v-29.208c0-0.86071-0.69291-1.5536-1.5536-1.5536zm-0.19939 28.942h1.5548v1.1107h-1.5548zm28.556 0h1.5549v1.1107h-1.5549z" fill="url(#linearGradient1318)" stroke-width=".62145"/>
<path d="m32.096 292.2v-15.163c0-0.15494-0.01082-0.30611-0.03145-0.45202-0.02063-0.14592-0.05102-0.28664-0.09022-0.42058-0.0392-0.13393-0.08718-0.26105-0.14291-0.38005-0.05573-0.119-0.11919-0.22982-0.1894-0.33093-0.0702-0.1011-0.14717-0.19258-0.2298-0.27284-0.08263-0.0803-0.17089-0.14935-0.2639-0.20582-0.093-0.0565-0.19069-0.10023-0.29201-0.12993-0.10132-0.0297-0.20635-0.0453-0.31394-0.0453h-21.751c-0.10759 0-0.21251 0.0156-0.31383 0.0453-0.10131 0.0297-0.19901 0.0735-0.29201 0.12993-0.092999 0.0565-0.18138 0.12555-0.26401 0.20582-0.082623 0.0803-0.15948 0.17174-0.22969 0.27284-0.070207 0.10111-0.13378 0.21193-0.18951 0.33093-0.055731 0.119-0.10371 0.24612-0.14291 0.38005-0.039205 0.13394-0.069596 0.27466-0.090222 0.42058-0.020635 0.14591-0.031457 0.29708-0.031457 0.45202v15.163z" fill="#fff" stroke-width=".22212"/>
<path d="m7.9827 260.57v10.875c0 0.86133 0.81349 1.5536 1.8256 1.5536h19.717c1.0107 0 1.8256-0.6923 1.8256-1.5536v-10.875z" stroke-width=".67366"/>
<path d="m8.7913 274.8c-0.10759 0-0.21251 0.0156-0.31383 0.0453-0.10131 0.0297-0.19902 0.0735-0.29202 0.12993-0.092999 0.0565-0.18137 0.12555-0.26401 0.20581-0.082626 0.0803-0.15948 0.17175-0.22969 0.27285-0.070207 0.10111-0.13378 0.21193-0.18951 0.33093-0.055731 0.119-0.10371 0.24612-0.14291 0.38005-0.039205 0.13394-0.069596 0.27466-0.090222 0.42058-0.020635 0.14591-0.031451 0.29708-0.031451 0.45202v0.0242h24.858v-0.0242c0-0.15494-0.01082-0.30611-0.03145-0.45202-0.02064-0.14592-0.05102-0.28664-0.09022-0.42058-0.03921-0.13393-0.08718-0.26105-0.14291-0.38005-0.05573-0.119-0.11919-0.22982-0.1894-0.33093-0.0702-0.1011-0.14717-0.19258-0.2298-0.27285-0.08263-0.0803-0.17089-0.14934-0.26389-0.20581-0.093-0.0565-0.1907-0.10023-0.29202-0.12993-0.10132-0.0297-0.20635-0.0453-0.31394-0.0453z" fill="#00aad4" stroke-width=".22212"/>
<path d="m11.487 260.57v10.875c0 0.86133 0.6923 1.5536 1.5536 1.5536h16.779c0.86009 0 1.5537-0.6923 1.5537-1.5536v-10.875zm12.136 1.4366h4.6773v9.3546h-4.6773z" fill="url(#linearGradient1384)" stroke-width=".62145"/>
</g>
</g>
</svg>
