<svg width="128" height="128" version="1.1" viewBox="0 0 33.867 33.867" xmlns="http://www.w3.org/2000/svg">
<defs>
<filter id="filter4244-4" x="-.14734" y="-.16574" width="1.2947" height="1.3315" color-interpolation-filters="sRGB">
<feGaussianBlur stdDeviation="3.3624534"/>
</filter>
<linearGradient id="SVGID_11_" x1="1456.9" x2="1460.4" y1="-810.5" y2="-811.9" gradientTransform="matrix(-2.732 0 0 2.732 4027.2 2244.5)" gradientUnits="userSpaceOnUse">
<stop stop-color="#E7DDAF" offset="0"/>
<stop stop-color="#E7DDAF" stop-opacity="0" offset="1"/>
</linearGradient>
<linearGradient id="SVGID_12_" x1="1456.3" x2="1460" y1="-807.81" y2="-808.72" gradientTransform="matrix(-2.731 -.077161 -.077161 2.731 3970.8 2345.5)" gradientUnits="userSpaceOnUse">
<stop stop-color="#EAC7AE" offset="0"/>
<stop stop-color="#EAC7AE" stop-opacity="0" offset="1"/>
</linearGradient>
<linearGradient id="SVGID_13_" x1="1459.9" x2="1462.9" y1="-808.34" y2="-810.66" gradientTransform="matrix(-2.732 0 0 2.732 4027.2 2244.5)" gradientUnits="userSpaceOnUse">
<stop stop-color="#CAEFB9" offset="0"/>
<stop stop-color="#CAEFB9" stop-opacity="0" offset="1"/>
</linearGradient>
<linearGradient id="SVGID_14_" x1="1462.3" x2="1464.5" y1="-805.88" y2="-808.6" gradientTransform="matrix(-2.732 0 0 2.732 4027.2 2244.5)" gradientUnits="userSpaceOnUse">
<stop stop-color="#B1E3DA" offset="0"/>
<stop stop-color="#B1E3DA" stop-opacity="0" offset="1"/>
</linearGradient>
<linearGradient id="SVGID_15_" x1="1463.3" x2="1462.4" y1="-803.87" y2="-801.14" gradientTransform="matrix(-2.732 0 0 2.732 4027.2 2244.5)" gradientUnits="userSpaceOnUse">
<stop stop-color="#A5C5EE" offset="0"/>
<stop stop-color="#A5C5EE" stop-opacity="0" offset="1"/>
</linearGradient>
<linearGradient id="linearGradient1618" x1="67.794" x2="120.87" y1="215.06" y2="276.82" gradientTransform="matrix(.2327 0 0 .2327 3.7994 225.07)" gradientUnits="userSpaceOnUse"/>
<filter id="filter4244-4-6" x="-.14734" y="-.16574" width="1.2947" height="1.3315" color-interpolation-filters="sRGB">
<feGaussianBlur stdDeviation="3.3624534"/>
</filter>
<filter id="filter1199-1" x="-.11415" y="-.12648" width="1.2283" height="1.253" color-interpolation-filters="sRGB">
<feGaussianBlur stdDeviation="2.580615"/>
</filter>
<filter id="filter1421-6" x="-.11334" y="-.12749" width="1.2267" height="1.255" color-interpolation-filters="sRGB">
<feGaussianBlur stdDeviation="2.586503"/>
</filter>
<linearGradient id="linearGradient2905" x1="-1129.7" x2="-1106.6" y1="944.53" y2="962.74" gradientTransform="matrix(0 .87559 .87454 0 -817.21 1259)" gradientUnits="userSpaceOnUse"/>
<linearGradient id="linearGradient2928" x1="-1196.7" x2="-1197.3" y1="860.46" y2="818.54" gradientTransform="matrix(.27575 0 0 .27608 -.70051 262.4)" gradientUnits="userSpaceOnUse"/>
<linearGradient id="linearGradient3844" x1="1456.9" x2="1460.4" y1="-810.5" y2="-811.9" gradientTransform="matrix(-2.732 0 0 2.732 4027.2 2244.5)" gradientUnits="userSpaceOnUse"/>
<linearGradient id="linearGradient3846" x1="1456.3" x2="1460" y1="-807.81" y2="-808.72" gradientTransform="matrix(-2.731 -.077161 -.077161 2.731 3970.8 2345.5)" gradientUnits="userSpaceOnUse"/>
<linearGradient id="linearGradient3848" x1="1459.9" x2="1462.9" y1="-808.34" y2="-810.66" gradientTransform="matrix(-2.732 0 0 2.732 4027.2 2244.5)" gradientUnits="userSpaceOnUse"/>
<linearGradient id="linearGradient3850" x1="1462.3" x2="1464.5" y1="-805.88" y2="-808.6" gradientTransform="matrix(-2.732 0 0 2.732 4027.2 2244.5)" gradientUnits="userSpaceOnUse"/>
<linearGradient id="linearGradient3852" x1="1463.3" x2="1462.4" y1="-803.87" y2="-801.14" gradientTransform="matrix(-2.732 0 0 2.732 4027.2 2244.5)" gradientUnits="userSpaceOnUse"/>
<linearGradient id="linearGradient3854" x1="-1067.4" x2="-1063.9" y1="767.72" y2="769.13" gradientTransform="matrix(2.732 0 0 -2.732 2963.2 2127.6)" gradientUnits="userSpaceOnUse"/>
<linearGradient id="linearGradient3856" x1="-1062.2" x2="-1058.5" y1="772.47" y2="773.39" gradientTransform="matrix(2.731 .077161 .077161 -2.731 2897.1 2218.6)" gradientUnits="userSpaceOnUse"/>
<linearGradient id="linearGradient3858" x1="-1070.5" x2="-1067.6" y1="765.57" y2="767.88" gradientTransform="matrix(2.732 0 0 -2.732 2963.2 2127.6)" gradientUnits="userSpaceOnUse"/>
<linearGradient id="linearGradient3860" x1="-1072.8" x2="-1070.6" y1="763.1" y2="765.83" gradientTransform="matrix(2.732 0 0 -2.732 2963.2 2127.6)" gradientUnits="userSpaceOnUse"/>
<linearGradient id="linearGradient3862" x1="-1073.9" x2="-1074.7" y1="761.09" y2="758.36" gradientTransform="matrix(2.732 0 0 -2.732 2963.2 2127.6)" gradientUnits="userSpaceOnUse"/>
<linearGradient id="linearGradient3864" x1="-1050.5" x2="-1047" y1="749.27" y2="750.66" gradientTransform="matrix(-2.732 0 0 2.732 -2788.9 -1949.3)" gradientUnits="userSpaceOnUse"/>
<linearGradient id="linearGradient3866" x1="-1044.8" x2="-1041.1" y1="754.5" y2="755.41" gradientTransform="matrix(-2.731 -.077161 -.077161 2.731 -2722.7 -2040.3)" gradientUnits="userSpaceOnUse"/>
<linearGradient id="linearGradient3868" x1="-1053.6" x2="-1050.7" y1="747.11" y2="749.42" gradientTransform="matrix(-2.732 0 0 2.732 -2788.9 -1949.3)" gradientUnits="userSpaceOnUse"/>
<linearGradient id="linearGradient3870" x1="-1055.9" x2="-1053.6" y1="744.65" y2="747.38" gradientTransform="matrix(-2.732 0 0 2.732 -2788.9 -1949.3)" gradientUnits="userSpaceOnUse"/>
<linearGradient id="linearGradient3872" x1="-1056.9" x2="-1057.8" y1="742.61" y2="739.87" gradientTransform="matrix(-2.732 0 0 2.732 -2788.9 -1949.3)" gradientUnits="userSpaceOnUse"/>
</defs>
<g transform="translate(0 -263.13)">
<g transform="matrix(-.97398 0 0 -.97398 -27.864 267.24)" display="none" filter="url(#filter4244-4)">
<path d="m32.027 20.525 18.936 25.572c2.4941-1.8301 5.3711-3.1885 8.5859-3.8936 0.08496-0.01953 0.16406-0.03711 0.25-0.05469l-6.6377-31.131c-7.8936 1.5332-14.533 5.0693-21.134 9.5068z" display="inline" enable-background="new    " fill="url(#SVGID_11_)" opacity=".8"/>
<g display="inline">
<path d="m43.664 13.968 12.203 29.351c2.8633-1.1729 5.9824-1.7959 9.272-1.7021 0.0874 2e-3 0.16894 0.0039 0.25635 0.0068l0.93555-31.733c-8.0303-0.41992-15.188 1.3672-22.667 4.0781z" enable-background="new    " fill="url(#SVGID_12_)" opacity=".8"/>
<path d="m21.456 30.745 25.173 19.549c1.9355-2.4121 4.3623-4.4688 7.2852-5.9824 0.07813-0.04102 0.14941-0.07813 0.22754-0.11719l-14.617-28.191c-7.2275 3.5234-12.841 8.7471-18.068 14.742z" enable-background="new    " fill="url(#SVGID_13_)" opacity=".8"/>
<path d="m14.299 42.841c19.602 6.125 21.447 19.21 34.906 4.792l-21.609-23.758c-6.0684 5.2744-9.7988 11.822-13.297 18.966z" enable-background="new    " fill="url(#SVGID_14_)" opacity=".8"/>
<path d="m18.459 34.97c-3.2324 4.7871-5.2119 9.9355-6.8984 15.42l30.977 8.1289c0.58984-2.085 1.416-4.1387 2.6465-6.0625 0.04785-0.07324 0.12305-0.18262 0.17188-0.25586z" enable-background="new    " fill="url(#SVGID_15_)" opacity=".8"/>
</g>
</g>
<g transform="matrix(-.94657 0 0 -.94657 -143.74 308.93)" display="none" fill="#fff" filter="url(#filter4244-4-6)" stroke-width="4.0483px">
<path d="m32.027 20.525 18.936 25.572c2.4941-1.8301 5.3711-3.1885 8.5859-3.8936 0.08496-0.01953 0.16406-0.03711 0.25-0.05469l-6.6377-31.131c-7.8936 1.5332-14.533 5.0693-21.134 9.5068z" display="inline" enable-background="new    " fill="url(#linearGradient3844)" opacity=".8"/>
<g display="inline">
<path d="m43.664 13.968 12.203 29.351c2.8633-1.1729 5.9824-1.7959 9.272-1.7021 0.0874 2e-3 0.16894 0.0039 0.25635 0.0068l0.93555-31.733c-8.0303-0.41992-15.188 1.3672-22.667 4.0781z" enable-background="new    " fill="url(#linearGradient3846)" opacity=".8"/>
<path d="m21.456 30.745 25.173 19.549c1.9355-2.4121 4.3623-4.4688 7.2852-5.9824 0.07813-0.04102 0.14941-0.07813 0.22754-0.11719l-14.617-28.191c-7.2275 3.5234-12.841 8.7471-18.068 14.742z" enable-background="new    " fill="url(#linearGradient3848)" opacity=".8"/>
<path d="m14.299 42.841c19.602 6.125 21.447 19.21 34.906 4.792l-21.609-23.758c-6.0684 5.2744-9.7988 11.822-13.297 18.966z" enable-background="new    " fill="url(#linearGradient3850)" opacity=".8"/>
<path d="m18.459 34.97c-3.2324 4.7871-5.2119 9.9355-6.8984 15.42l30.977 8.1289c0.58984-2.085 1.416-4.1387 2.6465-6.0625 0.04785-0.07324 0.12305-0.18262 0.17188-0.25586z" enable-background="new    " fill="url(#linearGradient3852)" opacity=".8"/>
</g>
</g>
<g transform="matrix(1.0159 0 0 1.0159 -.26878 -4.4455)">
<path d="m32.229 280.07c0-8.4932-6.8212-15.323-15.304-15.323-8.4831 0-15.304 6.8295-15.304 15.323 0 8.4934 6.8213 15.323 15.304 15.323 8.4832 0 15.304-6.8293 15.304-15.323zm-9.7053 0c0 3.0855-2.4554 5.6058-5.5991 5.6058-3.2052 0-5.5991-2.5826-5.5991-5.6058 0-3.0849 2.2705-5.6058 5.5991-5.6058 3.3284 0 5.5991 2.582 5.5991 5.6058z" fill="url(#linearGradient2905)" stroke="#999" stroke-width=".48593"/>
<path d="m16.948 274.27c-3.1965 0-5.7909 2.5975-5.7909 5.7978s2.5944 5.7978 5.7909 5.7978c3.1965 0 5.7909-2.5975 5.7909-5.7978s-2.5944-5.7978-5.7909-5.7978zm0 2.8989c1.5982 0 2.8954 1.2987 2.8954 2.8989 0 1.6002-1.2972 2.8989-2.8954 2.8989-1.5982 0-2.8954-1.2987-2.8954-2.8989 0-1.6002 1.2972-2.8989 2.8954-2.8989z" enable-background="new    " fill="#323232" opacity=".2"/>
<g transform="matrix(.27575 0 0 .27609 -.70051 262.4)" fill="#fff" filter="url(#filter1421-6)" stroke-width="16.371px">
<path d="m32.026 20.525 18.936 25.572c2.4946-1.8301 5.3711-3.1885 8.5859-3.8936 0.08545-0.01904 0.16455-0.03711 0.25-0.05517l-6.6372-31.13c-7.8931 1.5337-14.533 5.0693-21.134 9.5068z" enable-background="new    " fill="url(#linearGradient3854)" opacity=".8"/>
<path d="m43.664 13.967 12.202 29.352c2.8633-1.1724 5.9829-1.7954 9.2725-1.7021 0.08789 2e-3 0.16894 0.0034 0.25586 0.0068l0.93555-31.733c-8.0293-0.42041-15.188 1.3672-22.666 4.0767z" enable-background="new    " fill="url(#linearGradient3856)" opacity=".8"/>
<path d="m21.456 30.745 25.172 19.55c1.936-2.4131 4.3628-4.4697 7.2856-5.9829 0.07764-0.04004 0.14941-0.07861 0.22754-0.11768l-14.617-28.191c-7.2271 3.5239-12.84 8.7471-18.068 14.742z" enable-background="new    " fill="url(#linearGradient3858)" opacity=".8"/>
<path d="m14.299 42.841c19.602 6.1255 21.447 19.21 34.907 4.792l-21.61-23.758c-6.0684 5.2744-9.7988 11.822-13.297 18.966z" enable-background="new    " fill="url(#linearGradient3860)" opacity=".8"/>
<path d="m18.458 34.97c-3.2324 4.7866-5.2119 9.9346-6.8989 15.419l30.978 8.1289c0.58887-2.085 1.4155-4.1387 2.6465-6.062 0.04736-0.07373 0.12305-0.18311 0.1709-0.25586z" enable-background="new    " fill="url(#linearGradient3862)" opacity=".8"/>
</g>
<g transform="matrix(.27575 0 0 .27609 -.70051 262.4)" fill="#fff" filter="url(#filter1199-1)" stroke-width="16.371px">
<path d="m96.074 107.42-18.758-25.718c-2.4717 1.8408-5.3213 3.2061-8.5059 3.915-0.08398 0.01953-0.16309 0.03711-0.24805 0.05566l6.5762 31.308c7.8184-1.542 14.397-5.0976 20.936-9.5605z" enable-background="new    " fill="url(#linearGradient3864)" opacity=".8"/>
<path d="m84.546 114.02-12.088-29.518c-2.8359 1.1777-5.9287 1.8047-9.186 1.71-0.0874-2e-3 -0.16748-0.0029-0.25342-0.0059l-0.92676 31.913c7.9541 0.42285 15.045-1.375 22.454-4.0996z" enable-background="new    " fill="url(#linearGradient3866)" opacity=".8"/>
<path d="m106.55 97.145-24.937-19.661c-1.9189 2.4268-4.3223 4.4951-7.2178 6.0166-0.07715 0.04102-0.14746 0.0791-0.22363 0.11816l14.479 28.352c7.1582-3.544 12.72-8.7959 17.898-14.825z" enable-background="new    " fill="url(#linearGradient3868)" opacity=".8"/>
<path d="m113.64 84.979c-19.418-6.1592-21.247-19.318-34.58-4.8184l21.407 23.894c6.0127-5.3057 9.708-11.89 13.173-19.075z" enable-background="new    " fill="url(#linearGradient3870)" opacity=".8"/>
<path d="m109.51 92.895c3.2041-4.8145 5.1641-9.9912 6.835-15.508l-30.688-8.1748c-0.58398 2.0977-1.4033 4.1621-2.6211 6.0967-0.04687 0.07519-0.12305 0.18457-0.16992 0.25781z" enable-background="new    " fill="url(#linearGradient3872)" opacity=".8"/>
</g>
<path d="m16.961 285.85c-3.2075 0-5.7868-2.5824-5.7868-5.7937 0-3.2114 2.5793-5.7937 5.7868-5.7937 3.2075 0 5.7868 2.5824 5.7868 5.7937 0 3.2114-2.5793 5.7937-5.7868 5.7937z" enable-background="new    " fill="none" opacity=".1" stroke="url(#linearGradient2928)" stroke-width="2.9156"/>
<g transform="matrix(.27575 0 0 .27609 -.70051 262.4)" fill="#fff" filter="url(#filter1421-6)" stroke-width="16.371px">
<path d="m32.026 20.525 18.936 25.572c2.4946-1.8301 5.3711-3.1885 8.5859-3.8936 0.08545-0.01904 0.16455-0.03711 0.25-0.05517l-6.6372-31.13c-7.8931 1.5337-14.533 5.0693-21.134 9.5068z" enable-background="new    " fill="url(#linearGradient3854)" opacity=".8"/>
<path d="m43.664 13.967 12.202 29.352c2.8633-1.1724 5.9829-1.7954 9.2725-1.7021 0.08789 2e-3 0.16894 0.0034 0.25586 0.0068l0.93555-31.733c-8.0293-0.42041-15.188 1.3672-22.666 4.0767z" enable-background="new    " fill="url(#linearGradient3856)" opacity=".8"/>
<path d="m21.456 30.745 25.172 19.55c1.936-2.4131 4.3628-4.4697 7.2856-5.9829 0.07764-0.04004 0.14941-0.07861 0.22754-0.11768l-14.617-28.191c-7.2271 3.5239-12.84 8.7471-18.068 14.742z" enable-background="new    " fill="url(#linearGradient3858)" opacity=".8"/>
<path d="m14.299 42.841c19.602 6.1255 21.447 19.21 34.907 4.792l-21.61-23.758c-6.0684 5.2744-9.7988 11.822-13.297 18.966z" enable-background="new    " fill="url(#linearGradient3860)" opacity=".8"/>
<path d="m18.458 34.97c-3.2324 4.7866-5.2119 9.9346-6.8989 15.419l30.978 8.1289c0.58887-2.085 1.4155-4.1387 2.6465-6.062 0.04736-0.07373 0.12305-0.18311 0.1709-0.25586z" enable-background="new    " fill="url(#linearGradient3862)" opacity=".8"/>
</g>
<g transform="matrix(.27575 0 0 .27609 -.70051 262.4)" fill="#fff" filter="url(#filter1199-1)" stroke-width="16.371px">
<path d="m96.074 107.42-18.758-25.718c-2.4717 1.8408-5.3213 3.2061-8.5059 3.915-0.08398 0.01953-0.16309 0.03711-0.24805 0.05566l6.5762 31.308c7.8184-1.542 14.397-5.0976 20.936-9.5605z" enable-background="new    " fill="url(#linearGradient3864)" opacity=".8"/>
<path d="m84.546 114.02-12.088-29.518c-2.8359 1.1777-5.9287 1.8047-9.186 1.71-0.0874-2e-3 -0.16748-0.0029-0.25342-0.0059l-0.92676 31.913c7.9541 0.42285 15.045-1.375 22.454-4.0996z" enable-background="new    " fill="url(#linearGradient3866)" opacity=".8"/>
<path d="m106.55 97.145-24.937-19.661c-1.9189 2.4268-4.3223 4.4951-7.2178 6.0166-0.07715 0.04102-0.14746 0.0791-0.22363 0.11816l14.479 28.352c7.1582-3.544 12.72-8.7959 17.898-14.825z" enable-background="new    " fill="url(#linearGradient3868)" opacity=".8"/>
<path d="m113.64 84.979c-19.418-6.1592-21.247-19.318-34.58-4.8184l21.407 23.894c6.0127-5.3057 9.708-11.89 13.173-19.075z" enable-background="new    " fill="url(#linearGradient3870)" opacity=".8"/>
<path d="m109.51 92.895c3.2041-4.8145 5.1641-9.9912 6.835-15.508l-30.688-8.1748c-0.58398 2.0977-1.4033 4.1621-2.6211 6.0967-0.04687 0.07519-0.12305 0.18457-0.16992 0.25781z" enable-background="new    " fill="url(#linearGradient3872)" opacity=".8"/>
</g>
<path d="m31.257 272.24c-0.11306-2e-3 -0.2554 0.0147-0.44948 0.0454-0.52383 0.083-10.141 2.0164-10.443 2.0995-0.29027 0.0799-0.56608 0.29439-0.69061 0.53697l-0.09941 0.19359-0.01941 6.5276-0.01941 6.5276-0.09838 0.19258c-0.1397 0.2733-0.36929 0.41758-0.82088 0.51585-0.19738 0.043-0.65516 0.14181-1.0173 0.2197-1.2564 0.2702-1.854 0.51694-2.3309 0.96227-0.15689 0.14653-0.3469 0.37165-0.42224 0.5002-0.57097 0.97422-0.44928 2.2486 0.29209 3.0577 0.353 0.38524 0.76747 0.6149 1.3442 0.74475 0.53722 0.12094 1.6822-4e-3 2.385-0.26066 0.76443-0.27894 1.4385-0.94926 1.7102-1.7006 0.24654-0.68168 0.23045-0.25766 0.25384-6.6741 0.01562-4.2836 0.03321-5.8746 0.06581-5.9456 0.07533-0.16384 0.25545-0.30063 0.47842-0.36335 0.11716-0.0329 1.5028-0.32289 3.0793-0.64431 6.1692-1.2578 5.7534-1.184 5.9855-1.064 0.06249 0.0323 0.14437 0.11518 0.18202 0.18406 0.06428 0.1175 0.06828 0.3654 0.06479 4.019-0.0042 4.4108 0.01331 4.1545-0.30536 4.4483-0.1961 0.18076-0.29626 0.21355-1.2596 0.41237-1.6951 0.34984-2.281 0.58555-2.8286 1.1382-0.46096 0.46517-0.73595 1.1223-0.73419 1.7543 0.0032 1.1561 0.87168 2.2158 2.0134 2.4565 0.55257 0.11649 1.6451 7e-3 2.3612-0.23649 0.45642-0.15524 0.76494-0.35023 1.1287-0.71353 0.27734-0.27695 0.36344-0.39445 0.51359-0.70071 0.09922-0.20239 0.21836-0.50749 0.26474-0.67791l0.08431-0.30979 0.0096-8.2696c0.01068-9.2064 0.02968-8.5487-0.25384-8.8048-0.12878-0.11635-0.23575-0.16845-0.42417-0.17113z" fill="url(#linearGradient1618)" stroke-width=".038733"/>
<path d="m31.257 272.76c-0.11306-2e-3 -0.2554 0.0147-0.44948 0.0454-0.52383 0.083-10.141 2.0164-10.443 2.0995-0.29027 0.0799-0.56608 0.29438-0.69061 0.53697l-0.09941 0.19358-0.03882 13.055-0.09838 0.19257c-0.1397 0.27331-0.36929 0.41759-0.82088 0.51586-0.19738 0.043-0.65516 0.14181-1.0173 0.21969-1.2564 0.27021-1.854 0.51694-2.3309 0.96228-0.15689 0.14653-0.3469 0.37165-0.42224 0.50019-0.57097 0.97422-0.44928 2.2487 0.29209 3.0577 0.353 0.38524 0.76747 0.6149 1.3442 0.74475 0.53722 0.12093 1.6822-4e-3 2.385-0.26067 0.76443-0.27893 1.4385-0.94925 1.7102-1.7005 0.24654-0.68168 0.23045-0.25766 0.25384-6.6741 0.01562-4.2836 0.03321-5.8746 0.06581-5.9456 0.07533-0.16385 0.25545-0.30064 0.47842-0.36335 0.11716-0.033 1.5028-0.32289 3.0793-0.64431 6.1692-1.2578 5.7534-1.184 5.9855-1.064 0.06249 0.0323 0.14437 0.11518 0.18202 0.18406 0.06428 0.1175 0.06828 0.3654 0.06479 4.019-0.0042 4.4108 0.01331 4.1545-0.30536 4.4483-0.1961 0.18075-0.29626 0.21354-1.2596 0.41237-1.6951 0.34984-2.281 0.58555-2.8286 1.1382-0.46096 0.46517-0.73595 1.1223-0.73419 1.7543 0.0032 1.1561 0.87168 2.2158 2.0134 2.4565 0.55257 0.1165 1.6451 7e-3 2.3612-0.23648 0.45642-0.15524 0.76494-0.35024 1.1287-0.71354 0.27734-0.27695 0.36344-0.39444 0.51359-0.70071 0.09922-0.20238 0.21836-0.50748 0.26474-0.6779l0.08431-0.30979 0.0096-8.2696c0.01068-9.2064 0.02968-8.5487-0.25384-8.8048-0.12878-0.11635-0.23575-0.16844-0.42417-0.17112z" opacity=".25" stroke-width=".038733"/>
</g>
</g>
</svg>
