<svg width="512" height="512" version="1.1" viewBox="0 0 135.47 135.47" xmlns="http://www.w3.org/2000/svg" xmlns:osb="http://www.openswatchbook.org/uri/2009/osb" xmlns:xlink="http://www.w3.org/1999/xlink">
<defs>
<linearGradient id="linearGradient968" x1="-329.22" x2="-328.74" y1="137.64" y2="304.37" gradientTransform="matrix(.77323 0 0 .77323 316 57.858)" gradientUnits="userSpaceOnUse">
<stop stop-color="#e2e3e5" offset="0"/>
<stop stop-color="#c7c9cc" offset="1"/>
</linearGradient>
<linearGradient id="linearGradient1250" x1="-329.64" x2="-372.4" y1="137.99" y2="201.93" gradientTransform="matrix(.77323 0 0 .77323 322.56 63.586)" gradientUnits="userSpaceOnUse">
<stop stop-color="#808080" offset="0"/>
<stop stop-color="#4d4d4d" offset="1"/>
</linearGradient>
<filter id="filter1306" x="-.032077" y="-.019172" width="1.0642" height="1.0383" color-interpolation-filters="sRGB">
<feGaussianBlur stdDeviation="1.3319389"/>
</filter>
</defs>
<g transform="translate(0 -161.53)">
<g>
<rect transform="matrix(.77323 0 0 .77323 343.24 56.368)" x="-406.14" y="140.24" width="99.656" height="166.73" ry="12.232" fill="#808080" filter="url(#filter1306)"/>
<rect x="29.205" y="163.17" width="77.057" height="128.92" ry="9.4583" fill="url(#linearGradient968)" stroke="#808080" stroke-linecap="round" stroke-linejoin="round" stroke-width=".2"/>
<rect x="34.606" y="169.09" width="66.255" height="50.632" ry="3.4686" fill="url(#linearGradient1250)" stroke="#4d4d4d" stroke-linecap="round" stroke-linejoin="round" stroke-width=".77323"/>
<path d="m67.734 231.78a23.97 23.97 0 0 0-23.97 23.97 23.97 23.97 0 0 0 23.97 23.97 23.97 23.97 0 0 0 23.97-23.97 23.97 23.97 0 0 0-23.97-23.97zm0 15.04a8.8921 8.9303 0 0 1 8.8918 8.9301 8.8921 8.9303 0 0 1-8.8918 8.9305 8.8921 8.9303 0 0 1-8.8922-8.9305 8.8921 8.9303 0 0 1 8.8922-8.9301z" fill="#fff" stroke="#808080" stroke-linecap="round" stroke-linejoin="round" stroke-width=".15465"/>
<g fill="#808080" stroke-width=".11082" aria-label="MENU">
<path d="m61.548 236.38h0.65148l0.82463 2.199 0.82896-2.199h0.65148v3.2314h-0.42638v-2.8375l-0.83329 2.2163h-0.43937l-0.83329-2.2163v2.8375h-0.42422z"/>
<path d="m65.374 236.38h2.0432v0.36795h-1.606v0.95666h1.5389v0.36794h-1.5389v1.1709h1.6449v0.36795h-2.0821z"/>
<path d="m68.179 236.38h0.58871l1.4328 2.7033v-2.7033h0.42422v3.2314h-0.58871l-1.4328-2.7033v2.7033h-0.42422z"/>
<path d="m71.445 236.38h0.43937v1.9631q0 0.51945 0.1883 0.74888 0.1883 0.22726 0.61036 0.22726 0.41989 0 0.60819-0.22726 0.1883-0.22943 0.1883-0.74888v-1.9631h0.43937v2.0172q0 0.632-0.31384 0.95449-0.31167 0.3225-0.92203 0.3225-0.61252 0-0.92636-0.3225-0.31167-0.32249-0.31167-0.95449z"/>
</g>
<g transform="matrix(.16704 0 0 .16704 90.677 233.5)" fill="#808080">
<path d="m-236.21 104.53-26.43 18.879 26.43 18.879v-18.879zm0 18.879 2e-3 2e-3c1.8e-4 -5e-5 2.7e-4 4e-5 5.3e-4 0v-1e-3c3e-5 -3.7e-4 -9e-5 -7.2e-4 0-1e-3 -2.6e-4 1e-5 -7.9e-4 -2e-5 -1e-3 0v-5.3e-4zm0.36329-0.18035c1.9e-4 2e-3 -2.2e-4 3e-3 0 5e-3 2.6e-4 2e-3 1e-3 4e-3 2e-3 6e-3 -5.3e-4 -3e-3 -8e-4 -7e-3 -2e-3 -0.0103zm-0.34365 0.1943 1e-3 1e-3c0-3.4e-4 -2e-5 -6.9e-4 0-1e-3 -2.6e-4 -1.3e-4 -7.9e-4 1.8e-4 -1e-3 0z" color="#bebebe"/>
<path d="m-209.27 104.53-26.43 18.879 26.43 18.879v-18.879zm0 18.879 2e-3 2e-3c1.8e-4 -5e-5 2.7e-4 4e-5 5.3e-4 0v-1e-3c3e-5 -3.7e-4 -9e-5 -7.2e-4 0-1e-3 -2.6e-4 1e-5 -7.9e-4 -2e-5 -1e-3 0v-5.3e-4zm0.36329-0.18035c1.9e-4 2e-3 -2.2e-4 3e-3 0 5e-3 2.6e-4 2e-3 1e-3 4e-3 2e-3 6e-3 -5.3e-4 -3e-3 -8e-4 -7e-3 -2e-3 -0.0103zm-0.34365 0.1943 1e-3 1e-3c0-3.4e-4 -2e-5 -6.9e-4 0-1e-3 -2.6e-4 -1.3e-4 -7.9e-4 1.8e-4 -1e-3 0z" color="#bebebe"/>
<rect x="-269.08" y="104.53" width="5.8208" height="37.758" ry=".7674"/>
</g>
<g transform="matrix(.16878 0 0 .16878 107.17 239.79)" fill="#808080">
<path d="m-253.91 167.89 26.43 18.879-26.43 18.879v-18.879zm0 18.879-2e-3 2e-3c-1.8e-4 -5e-5 -2.7e-4 4e-5 -5.3e-4 0v-1e-3c-3e-5 -3.7e-4 9e-5 -7.2e-4 0-1e-3 2.6e-4 1e-5 7.9e-4 -2e-5 1e-3 0v-5.3e-4zm-0.36329-0.18035c-1.9e-4 2e-3 2.2e-4 3e-3 0 5e-3 -2.6e-4 2e-3 -1e-3 4e-3 -2e-3 6e-3 5.3e-4 -3e-3 8e-4 -7e-3 2e-3 -0.0103zm0.34365 0.1943-1e-3 1e-3c0-3.4e-4 2e-5 -6.9e-4 0-1e-3 2.6e-4 -1.3e-4 7.9e-4 1.8e-4 1e-3 0z" color="#bebebe"/>
<rect x="-226.81" y="167.89" width="5.8208" height="37.758" ry=".7674"/>
<rect x="-218.87" y="167.89" width="5.8208" height="37.758" ry=".7674"/>
</g>
<g transform="matrix(-.16704 0 0 .16704 43.853 233.5)" fill="#808080">
<path d="m-236.21 104.53-26.43 18.879 26.43 18.879v-18.879zm0 18.879 2e-3 2e-3c1.8e-4 -5e-5 2.7e-4 4e-5 5.3e-4 0v-1e-3c3e-5 -3.7e-4 -9e-5 -7.2e-4 0-1e-3 -2.6e-4 1e-5 -7.9e-4 -2e-5 -1e-3 0v-5.3e-4zm0.36329-0.18035c1.9e-4 2e-3 -2.2e-4 3e-3 0 5e-3 2.6e-4 2e-3 1e-3 4e-3 2e-3 6e-3 -5.3e-4 -3e-3 -8e-4 -7e-3 -2e-3 -0.0103zm-0.34365 0.1943 1e-3 1e-3c0-3.4e-4 -2e-5 -6.9e-4 0-1e-3 -2.6e-4 -1.3e-4 -7.9e-4 1.8e-4 -1e-3 0z" color="#bebebe"/>
<path d="m-209.27 104.53-26.43 18.879 26.43 18.879v-18.879zm0 18.879 2e-3 2e-3c1.8e-4 -5e-5 2.7e-4 4e-5 5.3e-4 0v-1e-3c3e-5 -3.7e-4 -9e-5 -7.2e-4 0-1e-3 -2.6e-4 1e-5 -7.9e-4 -2e-5 -1e-3 0v-5.3e-4zm0.36329-0.18035c1.9e-4 2e-3 -2.2e-4 3e-3 0 5e-3 2.6e-4 2e-3 1e-3 4e-3 2e-3 6e-3 -5.3e-4 -3e-3 -8e-4 -7e-3 -2e-3 -0.0103zm-0.34365 0.1943 1e-3 1e-3c0-3.4e-4 -2e-5 -6.9e-4 0-1e-3 -2.6e-4 -1.3e-4 -7.9e-4 1.8e-4 -1e-3 0z" color="#bebebe"/>
<rect x="-269.08" y="104.53" width="5.8208" height="37.758" ry=".7674"/>
</g>
</g>
</g>
</svg>
