<svg width="128" height="128" version="1.1" viewBox="0 0 33.867 33.867" xmlns="http://www.w3.org/2000/svg">
<defs>
<linearGradient id="linearGradient968" x1="-329.22" x2="-328.74" y1="137.64" y2="304.37" gradientTransform="matrix(.22357 0 0 .1987 88.717 236.44)" gradientUnits="userSpaceOnUse"/>
<linearGradient id="linearGradient1250" x1="-329.64" x2="-286.72" y1="137.99" y2="201.93" gradientTransform="matrix(.20283 0 0 .20328 83.778 237.32)" gradientUnits="userSpaceOnUse"/>
</defs>
<g transform="translate(0 -263.13)">
<g transform="matrix(.99999 0 0 .99999 .00020649 .0033906)">
<rect x="5.7932" y="263.5" width="22.28" height="33.13" ry="2.1323" fill="url(#linearGradient968)" stroke="#808080" stroke-linecap="round" stroke-linejoin="round" stroke-width=".208"/>
<path d="m16.933 280.67a7.4247 7.4413 0 0 0-7.4247 7.4413 7.4247 7.4413 0 0 0 7.4247 7.4413 7.4247 7.4413 0 0 0 7.4247-7.4413 7.4247 7.4413 0 0 0-7.4247-7.4413zm0.01811 0.32088a0.32851 0.32924 0 0 1 0.32854 0.32928 0.32851 0.32924 0 0 1-0.32854 0.32928 0.32851 0.32924 0 0 1-0.32843-0.32928 0.32851 0.32924 0 0 1 0.32843-0.32928zm-0.01811 3.4047a3.7074 3.7157 0 0 1 3.7074 3.7156 3.7074 3.7157 0 0 1-3.7074 3.7156 3.7074 3.7157 0 0 1-3.7074-3.7156 3.7074 3.7157 0 0 1 3.7074-3.7156zm-6.6489 3.4774a0.32851 0.32924 0 0 1 0.32854 0.32928 0.32851 0.32924 0 0 1-0.32854 0.32916 0.32851 0.32924 0 0 1-0.32843-0.32916 0.32851 0.32924 0 0 1 0.32843-0.32928zm13.298 0a0.32851 0.32924 0 0 1 0.32843 0.32928 0.32851 0.32924 0 0 1-0.32843 0.32916 0.32851 0.32924 0 0 1-0.32854-0.32916 0.32851 0.32924 0 0 1 0.32854-0.32928zm-6.6308 6.7001a0.32851 0.32924 0 0 1 0.32854 0.32916 0.32851 0.32924 0 0 1-0.32854 0.32928 0.32851 0.32924 0 0 1-0.32843-0.32928 0.32851 0.32924 0 0 1 0.32843-0.32916z" fill="#313131"/>
<rect x="8.2435" y="265.06" width="17.38" height="13.311" ry=".9119" fill="url(#linearGradient1250)" stroke="#4d4d4d" stroke-linecap="round" stroke-linejoin="round" stroke-width=".2"/>
</g>
</g>
</svg>
