<svg width="128" height="128" version="1.1" viewBox="0 0 33.867 33.867" xmlns="http://www.w3.org/2000/svg" xmlns:ns1="http://www.w3.org/1999/xlink">
<defs>
<linearGradient id="linearGradient927">
<stop stop-color="#4d4d4d" offset="0"/>
<stop stop-color="#1a1a1a" offset="1"/>
</linearGradient>
<linearGradient id="linearGradient4639-3" x1="192.34" x2="192.34" y1="228.05" y2="198.89" gradientTransform="matrix(.36155 0 0 .34063 -41.295 203.05)" gradientUnits="userSpaceOnUse">
<stop stop-color="#63984b" offset="0"/>
<stop stop-color="#8dbf76" offset="1"/>
</linearGradient>
<linearGradient id="linearGradient4649-8" x1="167.69" x2="167.49" y1="196.79" y2="206.75" gradientTransform="matrix(.37182 0 0 .35381 -25.578 201.81)" gradientUnits="userSpaceOnUse" ns1:href="#linearGradient927"/>
<linearGradient id="linearGradient5177-4" x1="167.69" x2="167.49" y1="196.79" y2="206.75" gradientTransform="matrix(1.2918 0 0 1.0323 -194.54 68.364)" gradientUnits="userSpaceOnUse" ns1:href="#linearGradient927"/>
<linearGradient id="linearGradient1045" x1="167.69" x2="167.49" y1="196.79" y2="206.75" gradientTransform="matrix(.37182 0 0 .35381 -25.578 207.87)" gradientUnits="userSpaceOnUse" ns1:href="#linearGradient927"/>
<linearGradient id="linearGradient1105" x1="167.69" x2="167.49" y1="196.79" y2="206.75" gradientTransform="matrix(.18925 0 0 .64511 108.75 9.1551)" gradientUnits="userSpaceOnUse" ns1:href="#linearGradient927"/>
<linearGradient id="linearGradient1107" x1="167.69" x2="167.49" y1="196.79" y2="206.75" gradientTransform="matrix(.18925 0 0 .64511 108.75 17.198)" gradientUnits="userSpaceOnUse" ns1:href="#linearGradient927"/>
<linearGradient id="linearGradient1109" x1="167.69" x2="167.49" y1="196.79" y2="206.75" gradientTransform="matrix(.18925 0 0 .64511 108.75 25.341)" gradientUnits="userSpaceOnUse" ns1:href="#linearGradient927"/>
</defs>
<g transform="matrix(.90365 0 0 .89776 -6.2217 -231.48)" stroke-width="1.1102">
<path d="m11.69 269.29v14.724h14.04v2.4098h16.168v-2.4098h2.061v-14.724z" fill-rule="evenodd" opacity=".25"/>
<path d="m11.69 268.76v14.724h14.04v2.4098h16.168v-2.4098h2.061v-14.724z" fill="url(#linearGradient4639-3)" fill-rule="evenodd" stroke="#547345" stroke-width=".22205"/>
<rect x="26.112" y="284.04" width=".64925" height="1.7206" fill="#f8c44e" stroke-width=".75984"/>
<rect x="27.086" y="284.04" width=".64925" height="1.7206" fill="#f8c44e" stroke-width=".75984"/>
<rect x="28.06" y="284.04" width=".64925" height="1.7206" fill="#f8c44e" stroke-width=".75984"/>
<rect x="29.034" y="284.04" width=".64925" height="1.7206" fill="#f8c44e" stroke-width=".75984"/>
<rect x="30.066" y="284.04" width=".64925" height="1.7206" fill="#f8c44e" stroke-width=".75984"/>
<rect x="31.04" y="284.04" width=".64925" height="1.7206" fill="#f8c44e" stroke-width=".75984"/>
<rect x="32.014" y="284.04" width=".64925" height="1.7206" fill="#f8c44e" stroke-width=".75984"/>
<rect x="32.987" y="284.04" width=".64925" height="1.7206" fill="#f8c44e" stroke-width=".75984"/>
<rect x="26.112" y="284.04" width=".64925" height="1.7206" fill="#f8c44e" stroke-width=".75984"/>
<rect x="27.086" y="284.04" width=".64925" height="1.7206" fill="#f8c44e" stroke-width=".75984"/>
<rect x="28.06" y="284.04" width=".64925" height="1.7206" fill="#f8c44e" stroke-width=".75984"/>
<rect x="29.034" y="284.04" width=".64925" height="1.7206" fill="#f8c44e" stroke-width=".75984"/>
<rect x="30.066" y="284.04" width=".64925" height="1.7206" fill="#f8c44e" stroke-width=".75984"/>
<rect x="31.04" y="284.04" width=".64925" height="1.7206" fill="#f8c44e" stroke-width=".75984"/>
<rect x="32.014" y="284.04" width=".64925" height="1.7206" fill="#f8c44e" stroke-width=".75984"/>
<rect x="32.987" y="284.04" width=".64925" height="1.7206" fill="#f8c44e" stroke-width=".75984"/>
<rect x="34.019" y="284.04" width=".64925" height="1.7206" fill="#f8c44e" stroke-width=".75984"/>
<rect x="34.993" y="284.04" width=".64925" height="1.7206" fill="#f8c44e" stroke-width=".75984"/>
<rect x="35.967" y="284.04" width=".64925" height="1.7206" fill="#f8c44e" stroke-width=".75984"/>
<rect x="36.941" y="284.04" width=".64925" height="1.7206" fill="#f8c44e" stroke-width=".75984"/>
<rect x="37.973" y="284.04" width=".64925" height="1.7206" fill="#f8c44e" stroke-width=".75984"/>
<rect x="38.947" y="284.04" width=".64925" height="1.7206" fill="#f8c44e" stroke-width=".75984"/>
<rect x="39.921" y="284.04" width=".64925" height="1.7206" fill="#f8c44e" stroke-width=".75984"/>
<rect x="40.894" y="284.04" width=".64925" height="1.7206" fill="#f8c44e" stroke-width=".75984"/>
<rect x="34.019" y="284.04" width=".64925" height="1.7206" fill="#f8c44e" stroke-width=".75984"/>
<rect x="34.993" y="284.04" width=".64925" height="1.7206" fill="#f8c44e" stroke-width=".75984"/>
<rect x="35.967" y="284.04" width=".64925" height="1.7206" fill="#f8c44e" stroke-width=".75984"/>
<rect x="36.941" y="284.04" width=".64925" height="1.7206" fill="#f8c44e" stroke-width=".75984"/>
<rect x="37.973" y="284.04" width=".64925" height="1.7206" fill="#f8c44e" stroke-width=".75984"/>
<rect x="38.947" y="284.04" width=".64925" height="1.7206" fill="#f8c44e" stroke-width=".75984"/>
<rect x="39.921" y="284.04" width=".64925" height="1.7206" fill="#f8c44e" stroke-width=".75984"/>
<rect x="40.894" y="284.04" width=".64925" height="1.7206" fill="#f8c44e" stroke-width=".75984"/>
<g transform="matrix(.28126 0 0 .26498 6.8095 215.71)" fill="#f8c44e" stroke-width="4.8371">
<g transform="matrix(1 0 0 .47544 200.27 133.67)">
<rect transform="rotate(90)" x="164.02" y="84.064" width="2.3083" height="19.611"/>
<rect transform="rotate(90)" x="160.32" y="84.064" width="2.3083" height="19.611"/>
<rect transform="rotate(90)" x="167.73" y="84.064" width="2.3083" height="19.611"/>
<rect transform="rotate(90)" x="171.43" y="84.064" width="2.3083" height="19.611"/>
</g>
<g transform="matrix(1 0 0 .47544 200.27 140.58)">
<rect transform="rotate(90)" x="164.02" y="84.064" width="2.3083" height="19.611"/>
<rect transform="rotate(90)" x="160.32" y="84.064" width="2.3083" height="19.611"/>
<rect transform="rotate(90)" x="167.73" y="84.064" width="2.3083" height="19.611"/>
<rect transform="rotate(90)" x="171.43" y="84.064" width="2.3083" height="19.611"/>
</g>
</g>
<rect x="35.037" y="271.61" width="3.4011" height="3.5959" ry=".28414" fill="#1a1a1a" fill-rule="evenodd" opacity=".25"/>
<rect x="35.037" y="271.29" width="3.4011" height="3.5959" ry=".28414" fill="url(#linearGradient4649-8)" fill-rule="evenodd"/>
<g transform="matrix(.26776 0 0 .26498 7.1836 215.18)" opacity=".25" stroke-width="5.8804">
<rect transform="rotate(90)" x="214.23" y="-82.707" width="1.2165" height="55"/>
<rect transform="rotate(90)" x="216.95" y="-82.707" width="1.2165" height="55"/>
<rect transform="rotate(90)" x="222.95" y="-82.707" width="1.2165" height="55"/>
<rect transform="rotate(90)" x="225.74" y="-82.707" width="1.2165" height="55"/>
<rect transform="rotate(90)" x="219.95" y="-82.707" width="1.2165" height="55"/>
<rect transform="rotate(90)" x="228.55" y="-82.707" width="1.2165" height="55"/>
<rect transform="rotate(90)" x="231.26" y="-82.707" width="1.2165" height="55"/>
<rect transform="rotate(90)" x="237.27" y="-82.707" width="1.2165" height="55"/>
<rect transform="rotate(90)" x="240.06" y="-82.707" width="1.2165" height="55"/>
<rect transform="rotate(90)" x="234.27" y="-82.707" width="1.2165" height="55"/>
<rect transform="rotate(90)" x="245.74" y="-82.707" width="1.2165" height="55"/>
<rect transform="rotate(90)" x="248.53" y="-82.707" width="1.2165" height="55"/>
<rect transform="rotate(90)" x="242.74" y="-82.707" width="1.2165" height="55"/>
</g>
<g transform="matrix(.26776 0 0 .26498 7.1836 214.86)" fill="#f8c44e" stroke-width="5.8804">
<rect transform="rotate(90)" x="214.23" y="-82.707" width="1.2165" height="55"/>
<rect transform="rotate(90)" x="216.95" y="-82.707" width="1.2165" height="55"/>
<rect transform="rotate(90)" x="222.95" y="-82.707" width="1.2165" height="55"/>
<rect transform="rotate(90)" x="225.74" y="-82.707" width="1.2165" height="55"/>
<rect transform="rotate(90)" x="219.95" y="-82.707" width="1.2165" height="55"/>
<rect transform="rotate(90)" x="228.55" y="-82.707" width="1.2165" height="55"/>
<rect transform="rotate(90)" x="231.26" y="-82.707" width="1.2165" height="55"/>
<rect transform="rotate(90)" x="237.27" y="-82.707" width="1.2165" height="55"/>
<rect transform="rotate(90)" x="240.06" y="-82.707" width="1.2165" height="55"/>
<rect transform="rotate(90)" x="234.27" y="-82.707" width="1.2165" height="55"/>
<rect transform="rotate(90)" x="245.74" y="-82.707" width="1.2165" height="55"/>
<rect transform="rotate(90)" x="248.53" y="-82.707" width="1.2165" height="55"/>
<rect transform="rotate(90)" x="242.74" y="-82.707" width="1.2165" height="55"/>
</g>
<rect x="16.058" y="271.4" width="11.816" height="10.491" ry=".829" fill-rule="evenodd" opacity=".25"/>
<rect x="16.058" y="271.09" width="11.816" height="10.491" ry=".829" fill="url(#linearGradient5177-4)" fill-rule="evenodd"/>
<path d="m18.659 273.19v7.3429h0.92508v-7.3429zm1.4019 0v7.3429h0.92527v-7.3429zm1.4079 0v7.3429h0.92527v-7.3429zm1.4424 0v7.3429h0.92508v-7.3429zm1.4363 0v7.3429h0.92527v-7.3429z" opacity=".25" stroke-width=".29375"/>
<path d="m18.659 272.66v7.3429h0.92508v-7.3429zm1.4019 0v7.3429h0.92527v-7.3429zm1.4079 0v7.3429h0.92527v-7.3429zm1.4424 0v7.3429h0.92508v-7.3429zm1.4363 0v7.3429h0.92527v-7.3429z" fill="#b3b3b3" stroke-width=".29375"/>
<g transform="matrix(.36155 0 0 .34063 -41.368 223.9)" fill-rule="evenodd" stroke-width="4.0668">
<rect x="139.6" y="135.84" width="1.7311" height="6.5564" ry=".51807" fill="url(#linearGradient1105)"/>
<rect x="139.6" y="143.89" width="1.7311" height="6.5564" ry=".51807" fill="url(#linearGradient1107)"/>
<rect x="139.6" y="152.03" width="1.7311" height="6.5564" ry=".51807" fill="url(#linearGradient1109)"/>
</g>
<path d="m8.3039 266.55h2.4195v20.83" fill="none" opacity=".25" stroke="#000" stroke-linecap="round" stroke-linejoin="round" stroke-width="2.2205"/>
<path d="m8.3039 266.02h2.4195v20.83" fill="none" stroke="#4d4d4d" stroke-linecap="round" stroke-linejoin="round" stroke-width="2.2205"/>
<g transform="matrix(.28126 0 0 .26498 6.8095 221.77)" fill="#f8c44e" stroke-width="4.8371">
<g transform="matrix(1 0 0 .47544 200.27 133.67)">
<rect transform="rotate(90)" x="164.02" y="84.064" width="2.3083" height="19.611"/>
<rect transform="rotate(90)" x="160.32" y="84.064" width="2.3083" height="19.611"/>
<rect transform="rotate(90)" x="167.73" y="84.064" width="2.3083" height="19.611"/>
<rect transform="rotate(90)" x="171.43" y="84.064" width="2.3083" height="19.611"/>
</g>
<g transform="matrix(1 0 0 .47544 200.27 140.58)">
<rect transform="rotate(90)" x="164.02" y="84.064" width="2.3083" height="19.611"/>
<rect transform="rotate(90)" x="160.32" y="84.064" width="2.3083" height="19.611"/>
<rect transform="rotate(90)" x="167.73" y="84.064" width="2.3083" height="19.611"/>
<rect transform="rotate(90)" x="171.43" y="84.064" width="2.3083" height="19.611"/>
</g>
</g>
<rect x="35.037" y="277.67" width="3.4011" height="3.5959" ry=".28414" fill-rule="evenodd" opacity=".25"/>
<rect x="35.037" y="277.35" width="3.4011" height="3.5959" ry=".28414" fill="url(#linearGradient1045)" fill-rule="evenodd"/>
</g>
</svg>
