<svg width="128" height="128" version="1.1" viewBox="0 0 33.867 33.867" xmlns="http://www.w3.org/2000/svg" xmlns:osb="http://www.openswatchbook.org/uri/2009/osb" xmlns:xlink="http://www.w3.org/1999/xlink">
<defs>
<linearGradient id="linearGradient965" x1="-23.585" x2="28.501" y1="124.84" y2="170.24" gradientTransform="matrix(.25202 0 0 .25202 12.941 235.25)" gradientUnits="userSpaceOnUse">
<stop stop-color="#333" offset="0"/>
<stop stop-color="#1a1a1a" offset="1"/>
</linearGradient>
<radialGradient id="radialGradient1114" cx="-74.104" cy="276.04" r="5.6027" gradientTransform="matrix(1.0755 -1.109 1.1794 1.1438 -318.67 -120.38)" gradientUnits="userSpaceOnUse" xlink:href="#linearGradient1120"/>
<linearGradient id="linearGradient1120">
<stop stop-color="#6a6a6a" offset="0"/>
<stop stop-color="#0d0d0d" offset="1"/>
</linearGradient>
</defs>
<g transform="translate(0 -263.13)">
<g transform="matrix(1.0402 0 0 1.0402 -.74021 -10.627)">
<rect x="26.297" y="263.44" width="1.3781" height=".20599" fill="#262626" fill-opacity=".99653"/>
<rect x="29.189" y="267.78" width=".43449" height=".44797" fill="#262626"/>
<rect x="29.189" y="269.29" width=".43449" height="1.0116" ry=".10353" fill="#262626"/>
<rect x="29.189" y="270.93" width=".43449" height="1.0116" ry=".10353" fill="#262626"/>
<rect x="4.4586" y="263.68" width="24.95" height="31.71" ry="1.4384" fill="#b2b2b2" fill-opacity=".98333" stroke="#808080" stroke-linecap="round" stroke-linejoin="round" stroke-width=".2"/>
<rect x="4.7106" y="264" width="24.445" height="31.07" ry="1.4094"/>
<rect x="6.9971" y="266.71" width="19.872" height="25.65" ry="0" fill="url(#linearGradient965)"/>
<g transform="matrix(.12733 0 0 .12733 -30.285 268.56)">
<g transform="matrix(1.0342 0 0 1.0342 446.63 -80.455)" fill="url(#radialGradient1114)">
<circle cx="-73.293" cy="269.83" r="5.6027" fill="url(#radialGradient1114)"/>
</g>
<rect x="368.87" y="196.83" width="3.9336" height="3.5403" ry=".86614" fill="#1a1a1a" fill-opacity=".98333" stroke="#b4b4b5" stroke-linecap="round" stroke-linejoin="round" stroke-width=".49664"/>
</g>
</g>
</g>
</svg>
