<svg width="128" height="128" version="1.1" viewBox="0 0 33.867 33.867" xmlns="http://www.w3.org/2000/svg" xmlns:osb="http://www.openswatchbook.org/uri/2009/osb" xmlns:xlink="http://www.w3.org/1999/xlink">
<defs>
<radialGradient id="radialGradient845" cx="67.733" cy="227.2" r="29.283" gradientTransform="matrix(.26132 0 0 .56581 -.76654 151.51)" gradientUnits="userSpaceOnUse">
<stop stop-color="#e5e5e5" offset="0"/>
<stop stop-color="#ccc" offset="1"/>
</radialGradient>
</defs>
<g transform="translate(0 -263.13)">
<rect x="9.2811" y="263.5" width="15.304" height="33.138" ry="1.5032" fill="url(#radialGradient845)" stroke="#808080" stroke-linecap="round" stroke-linejoin="round" stroke-width=".2"/>
<path d="m21.054 269.95c-2e-6 -0.45889-0.36754-0.9467-0.82409-0.9467l-1.5304 2e-5 -2e-5 -1.5383c0-0.45889-0.48505-0.82834-0.94183-0.82834l-1.6482 2e-5c-0.45655 0-0.94181 0.36943-0.94181 0.82835l1.9e-5 1.5383-1.5305 2e-5c-0.45678 0-0.82409 0.48779-0.82409 0.94669l2e-5 1.6567c4e-6 0.4589 0.36755 0.94671 0.82409 0.94671l1.5304-3e-5 2.1e-5 1.5383c0 0.4589 0.4853 0.82834 0.94185 0.82834l1.6482-2e-5c0.45654-2e-5 0.94183-0.36945 0.94183-0.82834l-0.0012-1.5384 1.5298-4e-5c0.4567 9e-5 0.82495-0.48723 0.82488-0.94624l-2.2e-5 -1.6567z" fill="#5b5b5b" stroke-width="2.2526"/>
<ellipse transform="rotate(90)" cx="290.89" cy="-19.288" rx="1.775" ry="1.7659" fill="#5b5b5b" stroke-width="2.2526"/>
<ellipse transform="rotate(90)" cx="286.16" cy="-19.288" rx="1.775" ry="1.7659" fill="#5b5b5b" stroke-width="2.2526"/>
<ellipse transform="rotate(90)" cx="290.89" cy="-14.579" rx="1.775" ry="1.7659" fill="#5b5b5b" stroke-width="2.2526"/>
<ellipse transform="rotate(90)" cx="286.16" cy="-14.579" rx="1.775" ry="1.7659" fill="#5b5b5b" stroke-width="2.2526"/>
</g>
</svg>
