<svg width="16" height="16" version="1.1" xmlns="http://www.w3.org/2000/svg">
<g fill="#bebebe">
<path d="m4.19 0c-1.2016 0-2.1875 0.98758-2.1875 2.1875v11.625c0 1.1999 0.9859 2.1875 2.1875 2.1875h7.625c1.2016 0 2.1875-0.98758 2.1875-2.1875v-11.625c0-1.1999-0.9859-2.1875-2.1875-2.1875h-7.625zm0 2h7.625c0.1238 0 0.1875 0.0566 0.1875 0.1875v11.625c0 0.1309-0.0637 0.1875-0.1875 0.1875h-7.625c-0.1238 0-0.1875-0.0566-0.1875-0.1875v-11.625c0-0.1309 0.0637-0.1875 0.1875-0.1875z" color="#bebebe" style="block-progression:tb;text-indent:0;text-transform:none"/>
<path d="m5 3v1h1v-1zm2 0v1h4v-1zm3 1-5 5.9375 3 0.0625-2 4 5-6h-3z" color="#000000" enable-background="new"/>
</g>
</svg>
