<svg xmlns="http://www.w3.org/2000/svg" width="36" height="36" version="1.1">
<g>
<path transform="translate(0 0)" d="m2.1211 1.9746c-1.1752 0-2.1211 0.94588-2.1211 2.1211v3.0254 4 0.74805 17.01c0 1.1752 0.94588 2.1211 2.1211 2.1211h31.758c1.1752 0 2.1211-0.94588 2.1211-2.1211v-17.758-4c0-1.1752-0.94588-2.1211-2.1211-2.1211h-19.537c-1.3047-0.051046-1.6297-0.64731-2.3413-1.5893s-1.1674-1.436-2.1216-1.436zm1.166 2h5.4258c1.3355 0 1.7571 1.0151 2.2718 1.5299s1.9584 1.4955 2.7711 1.4955h18.957c0.71285 0 1.2871 0.57426 1.2871 1.2871v7.7793c-0.04097-0.0023-0.07952-0.01172-0.12109-0.01172h-31.758c-0.041573 0-0.080126 0.0094-0.12109 0.01172v-10.805c0-0.71285 0.57426-1.2871 1.2871-1.2871zm0 14.08h29.426c0.71285 0 1.2871 0.57426 1.2871 1.2871v8.3711c0 0.71285-0.57426 1.2871-1.2871 1.2871h-29.426c-0.71285 0-1.2871-0.57426-1.2871-1.2871v-3.7676-4.6035c0-0.71285 0.57426-1.2871 1.2871-1.2871z" opacity=".75" />
<path transform="translate(0 0)" d="m3.2871 18.055h29.426c0.71285 0 1.2871 0.57426 1.2871 1.2871v8.3711c0 0.71285-0.57426 1.2871-1.2871 1.2871h-29.426c-0.71285 0-1.2871-0.57426-1.2871-1.2871v-8.3711c0-0.71285 0.57426-1.2871 1.2871-1.2871z" fill-opacity=".90196" opacity=".2" />
<path transform="translate(0 0)" d="m2 27v0.71289c0 0.71285 0.57426 1.2871 1.2871 1.2871h29.426c0.71285 0 1.2871-0.57426 1.2871-1.2871v-0.71289h-32z" opacity=".3" />
</g>
</svg>
