<svg xmlns="http://www.w3.org/2000/svg" width="36" height="36" version="1.1">
<g>
<g>
<g fill-rule="evenodd">
<path transform="translate(0 0.208)" d="m74.334 2.8535-32.35 14.32 10.961 3.9766v9.6348l5.9219-5.7461 8.75 7.6914 6.7168-29.877zm-2.209 2.8301-5.5684 23.51-8.5742-7.248 14.143-16.262zm-3.4473 1.1484-15.025 12.551-7.248-2.3867 22.273-10.164zm-6.4531 7.5137-5.4414 6.8164-2.0703 5.4238v-5.877l7.5117-6.3633z" opacity=".75" />
<path d="m46.4 17.208 22.274-10.165-15.026 12.551z" opacity=".1" />
<path d="m57.98 22.158 14.142-16.263-5.5685 23.511z" opacity=".1" />
<path d="m54.71 20.918v5.8778l2.0708-5.424 5.4422-6.8178z" opacity=".4" />
</g>
</g>
</g>
</svg>
