<svg xmlns="http://www.w3.org/2000/svg" width="36" height="36" version="1.1">
<g>
<path transform="translate(0 0)" d="m9.125 4c-1.1772 0-2.3578 1.2321-3.125 2.125l-5.4355 6.3262c-0.3888 0.3888-0.56445 0.76388-0.56445 1.4238v13c0 1.1772 0.94775 2.125 2.125 2.125h31.75c1.1772 0 2.125-0.94775 2.125-2.125v-12.656c0-0.5325-0.16667-0.87425-0.41992-1.2305l-5.5801-6.8633c-0.74263-0.91346-1.9634-2.125-3.1406-2.125zm0.31836 2h17.457c0.59134 0 1.0611 0.35481 1.4316 0.79297l4.5803 5.8418c0.8062 0.91669 0.67579 1.3652-0.35746 1.3652h-7.0549-2c0 3.0376-2.4624 5.5-5.5 5.5s-5.5-2.4624-5.5-5.5h-2c0.0021 0.20412 0.01252 0.40806 0.03125 0.61133-0.018732-0.20327-0.029157-0.40721-0.03125-0.61133h-7.459c-0.59134 0-0.91704-0.52379-0.10352-1.5039l4.5312-5.4609c0.62467-0.75258 1.3833-1.0352 1.9746-1.0352zm16.023 8.6172c-0.0066 0.07889-0.01438 0.15768-0.02344 0.23633 0.0091-0.07865 0.01687-0.15743 0.02344-0.23633zm-14.865 0.56641c0.0056 0.03781 0.01143 0.07557 0.01758 0.11328-0.0061-0.03772-0.01201-0.07548-0.01758-0.11328zm14.754 0.23242c-0.0093 0.04892-0.01904 0.09775-0.0293 0.14648 0.01025-0.04873 0.02002-0.09756 0.0293-0.14648zm-23.355 0.58398h8.7793c0.19791 0.71453 0.50068 1.3958 0.89844 2.0215l0.0059 0.0098c0.13605 0.21234 0.28272 0.41768 0.43945 0.61523 0.1598 0.20265 0.32994 0.39692 0.50976 0.58203 0.17253 0.17748 0.35374 0.3463 0.54297 0.50586 0.19036 0.15948 0.38852 0.3094 0.59375 0.44922 0.15612 0.11025 0.31639 0.21449 0.48047 0.3125 0.15339 0.08554 0.30974 0.16567 0.46875 0.24023l0.0059 0.0039c0.1228 0.05937 0.24719 0.11538 0.37305 0.16797l0.0039 2e-3c0.10196 0.04263 0.20485 0.08301 0.30859 0.12109l0.0059 2e-3c0.12834 0.04715 0.25795 0.09079 0.38867 0.13086 0.1048 0.03226 0.21029 0.06221 0.31641 0.08984l0.0078 2e-3c0.13582 0.03508 0.27259 0.06634 0.41016 0.09375 0.10572 0.02051 0.21186 0.03875 0.31836 0.05469 0.13102 0.02107 0.26258 0.03865 0.39453 0.05273 0.12475 0.01225 0.24979 0.02136 0.375 0.02734h0.01367c0.11514 0.0059 0.23041 0.0092 0.3457 0.0098h0.01367c0.12899-5.8e-4 0.25794-0.0045 0.38672-0.01172 0.1154-0.0051 0.23066-0.01296 0.3457-0.02344 0.87333-0.08604 1.7248-0.32469 2.5156-0.70508l0.01563-0.0078c0.16509-0.07739 0.32731-0.16078 0.48633-0.25 0.26062-0.15331 0.51173-0.32224 0.75195-0.50586 0.11385-0.086 0.22522-0.17523 0.33398-0.26758 1.1508-0.97329 1.9818-2.2705 2.3847-3.7229h8.7793v9.9355c0 0.58964-0.47481 1.0645-1.0645 1.0645h-29.871c-0.58964 0-1.0645-0.47481-1.0645-1.0645z" fill-opacity=".67281" />
<path transform="translate(0 0)" d="m2 16v9.9355c0 0.58964 0.47481 1.0645 1.0645 1.0645h29.871c0.58964 0 1.0645-0.47481 1.0645-1.0645v-9.9355h-8.7812a7.5 7.5 0 0 1-3.4688 4.4961 7.5 7.5 0 0 1-7.5 0 7.5 7.5 0 0 1-3.4707-4.4961h-8.7793z" fill-opacity=".37327" />
</g>
</svg>
