<svg xmlns="http://www.w3.org/2000/svg" width="36" height="36" version="1.1">
<g>
<path transform="translate(0 0)" d="m9.125 6c-1.1772 0-2.3578 1.2321-3.125 2.125l-5.4355 6.3262c-0.3888 0.3888-0.56445 0.76389-0.56445 1.4238v13c0 1.1772 0.94775 2.125 2.125 2.125h31.75c1.1772 0 2.125-0.94775 2.125-2.125v-12.656c0-0.5325-0.16667-0.87425-0.41992-1.2305l-5.5801-6.8633c-0.74263-0.91346-1.9634-2.125-3.1406-2.125h-0.62305c0.39573 0.60634 0.57771 1.3043 0.55859 2h0.10547c0.59134 0 1.0611 0.35481 1.4316 0.79297l4.5801 5.8418c0.8062 0.91668 0.67583 1.3652-0.35742 1.3652h-7.0547-2c0 3.0376-2.4624 5.5-5.5 5.5s-5.5-2.4624-5.5-5.5h-2-7.459c-0.59134 0-0.91704-0.52379-0.10352-1.5039l4.5312-5.4609c0.54623-0.65808 1.1886-0.94122 1.7383-1.0059-0.0253-0.70529 0.15534-1.4144 0.55664-2.0293h-0.63867zm-7.125 12h8.7793c0.19791 0.71453 0.50069 1.3958 0.89844 2.0215l0.00586 0.009766c0.13605 0.21234 0.28271 0.41767 0.43945 0.61523 0.15979 0.20265 0.32995 0.39692 0.50976 0.58203 0.17253 0.17748 0.35375 0.3463 0.54297 0.50586 0.19036 0.15948 0.38852 0.3094 0.59375 0.44922 0.15612 0.11025 0.31639 0.21449 0.48047 0.3125 0.15339 0.0855 0.30973 0.16567 0.46875 0.24023l0.005859 0.003906c0.1228 0.0594 0.24719 0.11538 0.37305 0.16797l0.003906 0.001953c0.10196 0.0426 0.20485 0.083 0.30859 0.12109l0.00586 0.001953c0.12834 0.0471 0.25795 0.090801 0.38867 0.13086 0.1048 0.0323 0.2103 0.062244 0.31641 0.089844l0.007812 0.001953c0.13581 0.0351 0.27259 0.06635 0.41016 0.09375 0.10571 0.0205 0.21187 0.038688 0.31836 0.054688 0.13103 0.0211 0.26257 0.038634 0.39453 0.052734 0.12475 0.0122 0.24979 0.021444 0.375 0.027344h0.013672c0.11514 6e-3 0.2304 0.008766 0.3457 0.009766h0.013672c0.12898-5.8e-4 0.25793-0.003999 0.38672-0.011719 0.1154-5e-3 0.23066-0.013038 0.3457-0.023438 0.87334-0.086 1.7248-0.32469 2.5156-0.70508l0.015625-0.007812c0.16509-0.0774 0.32732-0.16079 0.48633-0.25 0.26062-0.15331 0.51172-0.32224 0.75195-0.50586 0.11385-0.086 0.22522-0.17523 0.33398-0.26758 1.1507-0.97349 1.9819-2.2703 2.3848-3.7227h8.7793v9.9355c-6.3e-4 0.58943-0.47481 1.0645-1.0645 1.0645h-29.871c-0.58964 0-1.0645-0.47481-1.0645-1.0645v-9.9355z" opacity=".75" />
<path d="m2 18v9.9356c0 0.58964 0.47481 1.0644 1.0644 1.0644h29.871c0.58964 0 1.0644-0.47481 1.0644-1.0644v-9.9356h-8.7812a7.5 7.5 0 0 1-3.4688 4.4961 7.5 7.5 0 0 1-7.5 0 7.5 7.5 0 0 1-3.4707-4.4961h-8.7793z" opacity=".5" />
<path transform="translate(0 0)" d="m18 1.0996c-0.38343 0-0.76674 0.1476-1.0605 0.44141l-5.3027 5.3027c-0.58761 0.58761-0.58761 1.5335 0 2.1211 0.5876 0.58761 1.5335 0.58761 2.1211 0l2.7422-2.7422v10.691c0 0.831 0.669 1.5 1.5 1.5s1.5-0.669 1.5-1.5v-10.691l2.7422 2.7422c0.5876 0.58761 1.5335 0.58761 2.1211 0 0.58761-0.58761 0.58761-1.5335 0-2.1211l-5.3027-5.3027c-0.2938-0.2938-0.67712-0.44141-1.0605-0.44141z" opacity=".75" />
</g>
</svg>
