<svg xmlns="http://www.w3.org/2000/svg" width="36" height="36" version="1.1">
<g>
<path d="m17.94 0.28c-3.1913-0.0132-6.3715 0.42161-8.9214 1.3345-2.5499 0.91289-4.5307 2.3196-5.0919 4.3576l0.05 0.014 0.18806 1.1364 4.3216 26.358c0.067 0.40679 0.34162 0.74899 0.72429 0.90235 4.936 1.9784 12.33 1.9972 17.032-0.0106 0.36048-0.15404 0.62071-0.47728 0.69426-0.86231l5.0599-26.356 0.22209-1.1584-0.0701-0.058c-0.68118-1.9668-2.6834-3.342-5.232-4.2556-2.5868-0.92735-5.7861-1.3894-8.9774-1.4025zm0.13405 0.96237a12.123 3.6897 0 0 1 12.123 3.6894 12.123 3.6897 0 0 1-0.34214 0.85232l-0.17005 0.92635-0.87433 4.5557c-7.0735 2.4218-14.364 2.4423-21.596-0.11004l-0.72427-4.4157-0.14807-0.88833a12.123 3.6897 0 0 1-0.39214-0.92035 12.123 3.6897 0 0 1 12.125-3.6894zm-10.672 11.068c7.0798 2.3761 14.252 2.359 21.186 0.11005l-3.8294 19.936c-3.7393 1.3662-10.058 1.381-14.069-4e-3z" color="#000000" color-rendering="auto" dominant-baseline="auto" fill="#555" fill-opacity=".76263" image-rendering="auto" shape-rendering="auto" solid-color="#000000" style="font-feature-settings:normal;font-variant-alternates:normal;font-variant-caps:normal;font-variant-ligatures:normal;font-variant-numeric:normal;font-variant-position:normal;isolation:auto;mix-blend-mode:normal;shape-padding:0;text-decoration-color:#000000;text-decoration-line:none;text-decoration-style:solid;text-indent:0;text-orientation:mixed;text-transform:none;white-space:normal" />
<path d="m18.08 1.81a12.123 3.6897 0 0 0-12.081 3.4253 12.123 3.6897 0 0 0 12.081 3.3953 12.123 3.6897 0 0 0 12.079-3.4233 12.123 3.6897 0 0 0-12.079-3.3973z" fill-opacity=".097778" />
<path d="m29.97 5.61a12.123 3.6897 0 0 1-11.899 3.0152 12.123 3.6897 0 0 1-11.81-2.8851 12.123 3.6897 0 0 0 0.0781 0.11605l0.14807 0.88833 0.72427 4.4157c7.2325 2.5523 14.523 2.5319 21.596 0.11004l0.87433-4.5557 0.17005-0.92635a12.123 3.6897 0 0 0 0.11806-0.17807z" fill-opacity=".35111" />
<path d="m18.08 1.25c0.80396 0 1.5867 0.0265 2.3469 0.072a12.123 3.6897 0 0 0-2.3469-0.072zm0 0a12.123 3.6897 0 0 0-2.2869 0.0701c0.74211-0.0432 1.5034-0.0701 2.2869-0.0701zm2.585 0.0881c0.70613 0.0468 1.3905 0.11163 2.0448 0.19408a12.123 3.6897 0 0 0-2.0448-0.19408zm-5.244 6e-3a12.123 3.6897 0 0 0-1.9487 0.18606c0.62378-0.0782 1.2778-0.14025 1.9487-0.18606zm7.4528 0.20808c0.67336 0.0884 1.3151 0.1956 1.9187 0.31813a12.123 3.6897 0 0 0-1.9187-0.31813zm-9.6857 0.016a12.123 3.6897 0 0 0-1.8187 0.30012c0.57234-0.11605 1.1834-0.21459 1.8187-0.30012zm11.688 0.31813c0.60725 0.12544 1.1709 0.26811 1.6926 0.42416a12.123 3.6897 0 0 0-1.6926-0.42416zm-13.679 0.0199a12.123 3.6897 0 0 0-1.6486 0.41416c0.50617-0.15266 1.0608-0.2904 1.6486-0.41416zm15.482 0.43416c0.49471 0.15165 0.93778 0.31836 1.3405 0.49419a12.123 3.6897 0 0 0-1.3405-0.49419zm-17.249 0.018a12.123 3.6897 0 0 0-1.3745 0.5062c0.4068-0.18168 0.8704-0.34976 1.3745-0.5062zm18.785 0.56021c0.0787 0.0365 0.14957 0.0747 0.22409 0.11205a12.123 3.6897 0 0 0-0.22409-0.11205zm0.61825 0.32213c0.053 0.031 0.0999 0.0625 0.15004 0.0941a12.123 3.6897 0 0 0-0.15004-0.0941zm0.49817 0.33012c0.0499 0.0379 0.0923 0.0775 0.13806 0.11604a12.123 3.6897 0 0 0-0.13806-0.11604zm0.38216 0.34013c0.0416 0.0435 0.0757 0.0878 0.11204 0.13206a12.123 3.6897 0 0 0-0.11204-0.13208zm0.2781 0.35614c0.0297 0.0491 0.0528 0.0983 0.0761 0.14806a12.123 3.6897 0 0 0-0.0761-0.14806zm0.21008 0.67226c-1e-3 0.0827-0.031 0.16535-0.0521 0.24809a12.123 3.6897 0 0 1 2e-3 4e-3 12.123 3.6897 0 0 0 0.05-0.25211zm-0.0701 0.34013c-2.5e-4 7.6e-4 -2e-3 9.9e-4 -2e-3 2e-3 -7e-3 0.0205-4e-3 0.0416-0.012 0.0621a12.123 3.6897 0 0 0 0.014-0.0641zm-23.875 0.44816a12.123 3.6897 0 0 0 0.0901 0.13206 12.123 3.6897 0 0 1-0.058-0.086 12.123 3.6897 0 0 1-0.0319-0.046zm1.1504 6.5905 3.2872 20.042c4.011 1.385 10.33 1.3702 14.069 4e-3l3.8294-19.936c-6.9338 2.2489-14.106 2.266-21.186-0.11005z" color="#000000" color-rendering="auto" dominant-baseline="auto" fill-opacity=".10084" image-rendering="auto" shape-rendering="auto" solid-color="#000000" style="font-feature-settings:normal;font-variant-alternates:normal;font-variant-caps:normal;font-variant-ligatures:normal;font-variant-numeric:normal;font-variant-position:normal;isolation:auto;mix-blend-mode:normal;shape-padding:0;text-decoration-color:#000000;text-decoration-line:none;text-decoration-style:solid;text-indent:0;text-orientation:mixed;text-transform:none;white-space:normal" />
<path d="m15.67 3.27-3.8492 3.006 1.6076 2.0593a12.123 3.6897 0 0 0 4.4977 0.28383l1.1933-0.93227z" fill="#747474" fill-opacity=".20168" />
<path d="m18.93 2.89-2.2851 5.1171 1.3818 0.61738a12.123 3.6897 0 0 0 0.0456 0 12.123 3.6897 0 0 0 3.7291-0.18439l1.589-3.5571z" fill="#747474" fill-opacity=".20168" />
<path d="m25.72 1-4.5122 5.1337 2.37 2.0821a12.123 3.6897 0 0 0 5.0301-1.475l1.589-1.8065z" fill="#747474" fill-opacity=".20168" />
<path d="m13.47 1.53-6.7642 0.99442 0.60287 4.0958a12.123 3.6897 0 0 0 3.6649 1.301l3.3624-0.49514z" fill="#747474" fill-opacity=".20168" />
<rect x="312.71" y="370.86" width="5.1303" height="4.8574" fill="#747474" fill-opacity=".14706" />
<rect x="436.55" y="222.62" width="6.253" height="5.9204" fill="#747474" fill-opacity=".14706" />
<rect x="395.2" y="-296.28" width="4.3175" height="4.0879" fill="#747474" fill-opacity=".14706" />
<rect x="401.84" y="-284.87" width="4.3175" height="4.0879" fill="#747474" fill-opacity=".14706" />
<rect x="402.29" y="-293.95" width="4.3175" height="4.0879" fill="#747474" fill-opacity=".14706" />
<rect x="36.827" y="-488.35" width="2.9498" height="2.7929" fill="#747474" fill-opacity=".14706" />
</g>
</svg>
