<svg width="22" height="22" version="1.1" viewBox="0 0 22 22" xmlns="http://www.w3.org/2000/svg">
<path d="m18.045 16.142c-0.28592 0.66054-0.62436 1.2686-1.0165 1.8276-0.5345 0.76207-0.97214 1.2896-1.3094 1.5825-0.52283 0.48082-1.083 0.72706-1.6829 0.74106-0.43064 0-0.94996-0.12254-1.5545-0.37112-0.60651-0.24741-1.1639-0.36995-1.6735-0.36995-0.5345 0-1.1077 0.12254-1.7209 0.36995-0.61409 0.24858-1.1088 0.37812-1.487 0.39096-0.57523 0.024514-1.1486-0.22874-1.7209-0.7609-0.36528-0.3186-0.82217-0.86477-1.3695-1.6385-0.58725-0.82626-1.0701-1.7844-1.4483-2.8767-0.40508-1.1799-0.60814-2.3224-0.60814-3.4285 0-1.267 0.27379-2.3599 0.82217-3.2756 0.43098-0.73558 1.0043-1.3158 1.722-1.7418 0.71761-0.42597 1.493-0.64304 2.328-0.65692 0.45689 0 1.056 0.14133 1.8006 0.41908 0.74247 0.27869 1.2192 0.42001 1.4282 0.42001 0.15627 0 0.68586-0.16525 1.5837-0.4947 0.84902-0.30553 1.5656-0.43204 2.1526-0.3822 1.5907 0.12837 2.7857 0.75542 3.5805 1.8851-1.4226 0.86197-2.1263 2.0693-2.1123 3.618 0.01284 1.2064 0.45048 2.2102 1.3106 3.0073 0.38979 0.36995 0.82509 0.65587 1.3094 0.85894-0.10503 0.3046-0.2159 0.59636-0.33377 0.87644zm-3.6481-14.356c0 0.94554-0.34544 1.8284-1.034 2.6455-0.83093 0.97144-1.836 1.5328-2.9259 1.4442-0.01389-0.11344-0.02195-0.23282-0.02195-0.35828 0-0.90772 0.39516-1.8792 1.0969-2.6734 0.35034-0.40216 0.79592-0.73655 1.3363-1.0033 0.53917-0.26277 1.0492-0.40809 1.5288-0.43297 0.01401 0.1264 0.01984 0.25281 0.01984 0.37822z" fill="#fff" stroke-width=".1167"/>
</svg>
