<svg width="22" height="22" enable-background="new" version="1.1" xmlns="http://www.w3.org/2000/svg">
<rect x="1.1667" y="2" width="20" height="20" opacity="0" stroke-width=".083333" style="paint-order:fill markers stroke"/>
<path d="m11 4.965c-3.4432 0-6.8864 1.076-9.8992 3.228l0.8608 0.8608c6.0256-3.9274 12.131-3.9941 18.077 0l0.8608-0.8608c-3.0128-2.152-6.456-3.228-9.8992-3.228zm0 4.035c-2.5824 0-5.1648 0.8608-7.3168 2.5824l0.8608 0.8608c4.304-3.0128 8.608-3.0397 12.912 0l0.8608-0.8608c-2.152-1.7216-4.7344-2.5824-7.3168-2.5824zm0 3.6584c-1.7216 0-3.4432 0.6456-4.7344 1.9368l0.8608 0.8608c2.5824-2.3542 5.1648-2.152 7.7472 5e-6l0.8608-0.86081c-1.2912-1.2912-3.0128-1.9368-4.7344-1.9368zm0 3.8736c-0.6456 0-1.2912 0.2152-1.7216 0.6456l1.7216 2.152 1.7216-2.152c-0.4304-0.4304-1.076-0.6456-1.7216-0.6456z" fill="#f2f2f2" fill-opacity=".43137" stroke-width="1.2155"/>
<path d="m19.689 17.007v-0.80502c0-1.0926-0.88888-1.9815-1.9815-1.9815-1.0926 0-1.9815 0.88893-1.9815 1.9815v0.80502c-0.15615 0.03264-0.2738 0.17158-0.2738 0.33731v3.0167c0 0.19002 0.15462 0.34464 0.34467 0.34464h3.8212c0.19005 0 0.34467-0.15461 0.34467-0.34464v-3.0167c0-0.16573-0.11764-0.30452-0.27379-0.33731zm-0.68933-0.0072h-2.5843v-0.79769c0-0.71248 0.57964-1.2921 1.2921-1.2921 0.71249 0 1.2921 0.57966 1.2921 1.2921z" enable-background="new" fill="#f2f2f2" stroke-width=".40285"/>
<path d="m11 12.658c-1.7216 0-3.4432 0.6456-4.7344 1.9368l0.8608 0.8608c2.5824-2.3542 5.1648-2.152 7.7472 5e-6l0.8608-0.86081c-1.2912-1.2912-3.0128-1.9368-4.7344-1.9368zm0 3.8736c-0.6456 0-1.2912 0.2152-1.7216 0.6456l1.7216 2.152 1.7216-2.152c-0.4304-0.4304-1.076-0.6456-1.7216-0.6456z" fill="#f2f2f2" stroke-width="1.2155"/>
</svg>
