<svg width="24" height="24" enable-background="new" version="1.1" xmlns="http://www.w3.org/2000/svg">
<path d="m2 6c-2 0-2 0-2 2v8c0 2 0 2 2 2h16.998c2 0 2 0 2-2v-8c0-2 0-2-2-2h-16.998zm0 1h16.998c1 0 1 0 1 1v8c0 1 0 1-1 1h-16.998c-1 0-1 0-1-1v-8c0-1 0-1 1-1zm0 1v8h17v-8h-17zm8.2383 1.0723c0.94541 0 1.5684 0.51266 1.5684 1.3457 0 1.1023-1.4769 1.5485-1.3301 2.7266h-0.66016c-0.20193-1.3127 1.2559-1.7936 1.2559-2.6855 0-0.44597-0.30123-0.81445-0.88867-0.81445-0.40386 0-0.7721 0.1834-1.0566 0.48633l-0.43164-0.36133c0.38551-0.4039 0.89128-0.69727 1.543-0.69727zm11.762 0.92773v4c2 0 2-4 0-4zm-11.836 3.8516c0.3029 0 0.55078 0.21736 0.55078 0.53711 0 0.30292-0.24788 0.52344-0.55078 0.52344-0.3029 0-0.54102-0.22051-0.54102-0.52344 0-0.31975 0.23812-0.53711 0.54102-0.53711z" clip-rule="evenodd" fill="#363636" fill-rule="evenodd" stroke-linejoin="round" stroke-miterlimit="1.4142" stroke-width="1.1667"/>
</svg>
