<svg width="24" height="24" version="1.0" xmlns="http://www.w3.org/2000/svg">
<path d="m8.0631 5.2641-1.1413-1.1441c-1.9132 1.4561-3.1788 3.7205-3.2981 6.2794h1.6006c0.11937-2.1185 1.2083-3.9759 2.8388-5.1353zm10.713 5.1353h1.6006c-0.11937-2.5589-1.3849-4.8233-3.3044-6.2794l-1.144 1.1441c1.6396 1.1594 2.7285 3.0168 2.8479 5.1353zm-1.5755 0.40137c0-2.4563-1.7032-4.5127-4.0011-5.0558v-0.54514c0-0.66311-0.53468-1.1999-1.1992-1.1999-0.66451 0-1.1992 0.53678-1.1992 1.1999v0.54514c-2.2979 0.54307-4.0011 2.6001-4.0011 5.0558v4.3996l-1.5999 1.5985v0.79993h13.6v-0.79993l-1.5999-1.5985v-4.3996zm-5.2002 9.1992c0.11238 0 0.21568-7e-3 0.32108-0.03213 0.51793-0.10329 0.95139-0.46348 1.1503-0.94511 0.08026-0.18987 0.12913-0.39856 0.12913-0.62333h-3.2011c0 0.88022 0.72037 1.6006 1.6006 1.6006z" fill="#f2f2f2"/>
<g transform="matrix(.011496 0 0 .011496 -79.19 48.925)" fill="#fff"></g>
</svg>
