<svg width="24" height="24" version="1.1" xmlns="http://www.w3.org/2000/svg">
<g transform="matrix(.67748 0 0 .67748 44.623 3.7376)" fill="#f2f2f2">
<g transform="matrix(1.4761 0 0 1.4761 -65.058 -5.2217)">
<g transform="matrix(.15 0 0 .15 .7 5.8)" fill="#f2f2f2">
<path d="m64 48h-8v-16h8c8.836 0 16-7.164 16-16s-7.164-16-16-16c-8.837 0-16 7.164-16 16v8h-16v-8c0-8.836-7.164-16-16-16s-16 7.164-16 16 7.164 16 16 16h8v16h-8c-8.836 0-16 7.164-16 16s7.164 16 16 16c8.837 0 16-7.164 16-16v-8h16v7.98c0 8e-3 -1e-3 0.014-1e-3 0.02 0 8.836 7.164 16 16 16s16-7.164 16-16-7.163-15.998-15.999-16zm0-40c4.418 0 8 3.582 8 8s-3.582 8-8 8h-8v-8c0-4.418 3.582-8 8-8zm-56 8c0-4.418 3.582-8 8-8s8 3.582 8 8v8h-8c-4.418 0-8-3.583-8-8zm8 56c-4.418 0-8-3.582-8-8s3.582-8 8-8h8v8c0 4.418-3.582 8-8 8zm16-24v-16h16v16h-16zm32 24c-4.418 0-8-3.582-8-8v-8h7.999c4.418 0 8 3.582 8 8s-3.581 8-7.999 8z" fill="#f2f2f2"/>
</g>
</g>
<g transform="matrix(.78094 0 0 .78094 -442.15 -373.61)">
<g transform="matrix(.57033 0 0 .57033 112.73 218.17)" fill="#f2f2f2">
<g transform="matrix(.14755 0 0 .14755 466.33 483.83)" fill="#f2f2f2">
<g transform="matrix(12.102 0 0 12.102 126.58 93.771)" fill="#f2f2f2">
<g transform="matrix(.56002 0 0 .56002 -115.67 -283.31)" fill="#f2f2f2">
<g transform="matrix(1.6797 0 0 1.6797 -112.05 207.48)" opacity=".8">
<g transform="matrix(2.0105 0 0 2.0105 -218 -194.19)" fill="#f2f2f2">
<g transform="matrix(.085372 0 0 .085372 206.58 178.27)" fill="#f2f2f2">
<g fill="#f2f2f2"></g>
</g>
</g>
</g>
<path d="m417.39 482.3h18.917c-0.53309 3.4158-2.3442 7.0544-5.3886 10.824-1.9404-3.1083-3.1883-6.1229-3.9-8.1302-0.17983-0.50654-0.65853-0.84508-1.1955-0.84508h-3.1128c-0.40446 0-0.78492 0.19295-1.024 0.51934-0.23871 0.3267-0.30751 0.74716-0.18527 1.1334 0.73756 2.3225 2.4364 6.8819 5.577 11.515-3.7099 3.6066-7.4054 6.2058-8.8351 7.1635-0.56893 0.38142-0.73244 1.1459-0.36894 1.7266l1.5622 2.4984c0.18079 0.28894 0.47134 0.49342 0.80476 0.56669 0.0896 0.0202 0.18048 0.0298 0.27071 0.0298 0.24607 0 0.48862-0.0717 0.69693-0.20831 1.4722-0.96764 5.2919-3.6094 9.2917-7.4413 1.4799 1.5423 4.9594 4.2456 7.0211 5.745 0.31455 0.22878 0.71741 0.30014 1.0928 0.19423 0.37502-0.10687 0.67964-0.38015 0.82748-0.73981l1.1654-2.8488c0.23423-0.57245 0.0208-1.2319-0.50525-1.5574-1.3433-0.83324-3.8722-2.5445-5.9364-4.7684 4.532-5.3038 7.1165-10.474 7.6854-15.375h0.99867c0.70045 0 1.2684-0.56797 1.2684-1.2687v-3.3813c0-0.70045-0.56765-1.2684-1.2684-1.2684h-9.8786v-1.7362c0-0.70076-0.56765-1.2687-1.2684-1.2687h-3.1647c-0.70044 0-1.2684 0.56766-1.2684 1.2687v1.7362h-9.8786c-0.70044 0-1.2684 0.56766-1.2684 1.2684v3.3813c-3.2e-4 0.69885 0.56766 1.2668 1.2681 1.2668z"/>
</g>
</g>
</g>
</g>
</g>
</g>
<g transform="matrix(.011496 0 0 .011496 -52.139 52.179)" fill="#fff"></g>
</svg>
