<svg width="16" height="16" enable-background="new" version="1.1" xmlns="http://www.w3.org/2000/svg">
<defs>
<filter color-interpolation-filters="sRGB">
<feBlend in2="BackgroundImage" mode="darken"/>
</filter>
</defs>
<g transform="translate(-365 251)">
<g transform="translate(346.25 -247.5)" enable-background="new">
<g transform="matrix(.52112 0 0 .52112 20.768 5.3453)" fill="#363636">
<g transform="matrix(.02206 0 0 .02206 -29.9 -.39149)" fill="#363636"></g>
</g>
</g>
<g transform="translate(324.04 -243.34)"></g>
<g transform="matrix(.67671 0 0 .67671 364.88 -251.12)" fill="#565656" fill-opacity=".34902">
<g transform="matrix(1.2274 0 0 1.2274 -401.61 -657.18)" fill="#565656" fill-opacity=".34902">
<g transform="matrix(.11545 0 0 .11545 328.57 537.95)" fill="#565656" fill-opacity=".34902">
<path d="m143.72 86.139c-1.521-1.521-3.367-2.281-5.541-2.281h-7.82v-15.644c0-2.824-1.033-5.269-3.096-7.332-2.064-2.065-4.51-3.097-7.334-3.097h-41.714v-15.643h7.82c2.174 0 4.021-0.76 5.541-2.281 1.521-1.52 2.28-3.367 2.28-5.54v-26.071c0-2.173-0.76-4.02-2.28-5.54-1.521-1.521-3.367-2.281-5.541-2.281h-26.071c-2.173 0-4.019 0.76-5.54 2.281-1.521 1.52-2.281 3.367-2.281 5.54v26.071c0 2.173 0.76 4.019 2.281 5.54 1.52 1.521 3.367 2.281 5.54 2.281h7.821v15.643h-41.714c-2.825 0-5.269 1.033-7.333 3.097-2.064 2.063-3.096 4.508-3.096 7.332v15.644h-7.822c-2.172 0-4.019 0.761-5.54 2.281s-2.281 3.367-2.281 5.54v26.071c0 2.173 0.76 4.02 2.281 5.54 1.521 1.521 3.368 2.281 5.54 2.281h26.072c2.172 0 4.019-0.761 5.54-2.281s2.281-3.367 2.281-5.54v-26.071c0-2.173-0.76-4.019-2.281-5.54s-3.368-2.281-5.54-2.281h-7.822v-15.644h41.714v15.644h-7.821c-2.173 0-4.019 0.761-5.54 2.281s-2.281 3.367-2.281 5.54v26.071c0 2.173 0.76 4.02 2.281 5.54 1.52 1.521 3.367 2.281 5.54 2.281h26.071c2.174 0 4.02-0.761 5.541-2.281 1.52-1.521 2.281-3.367 2.281-5.54v-26.071c0-2.173-0.76-4.019-2.281-5.54s-3.367-2.281-5.541-2.281h-7.82v-15.644h41.715v15.644h-7.822c-2.172 0-4.02 0.761-5.541 2.281-1.52 1.521-2.28 3.367-2.28 5.54v26.071c0 2.173 0.76 4.02 2.28 5.54 1.521 1.521 3.369 2.281 5.541 2.281h26.072c2.172 0 4.018-0.761 5.539-2.281s2.281-3.367 2.281-5.54v-26.071c0-2.173-0.76-4.02-2.279-5.54z" fill="#565656" fill-opacity=".34902"/>
</g>
</g>
</g>
<g transform="matrix(.52005 0 0 -.52005 369.02 -236.16)" enable-background="new" fill="#363636">
<g transform="matrix(.875 0 0 .875 -478.12 -651.69)" fill="#363636">
<g transform="translate(217.57 209.57)" fill="#363636">
<g transform="matrix(.66667 0 0 .66667 70.952 189.83)">
<path transform="matrix(1.5 0 0 1.5 384.07 515.3)" d="m11 3a8 8 0 0 0-8 8 8 8 0 0 0 8 8 8 8 0 0 0 8-8 8 8 0 0 0-8-8zm-0.19922 3.5a1 1 0 0 1 1 1 1 1 0 0 1-1 1 1 1 0 0 1-1-1 1 1 0 0 1 1-1zm-0.10742 3h0.21289c0.35614 0 0.64453 0.28644 0.64453 0.64258v4.7148c0 0.35614-0.28839 0.64258-0.64453 0.64258h-0.21289c-0.35614 0-0.64258-0.28644-0.64258-0.64258v-4.7148c0-0.35614 0.28644-0.64258 0.64258-0.64258z" fill="#e74c3c" fill-rule="evenodd"/>
<g transform="translate(-4.4108e-7 .39078)" fill="#363636" stroke="#363636" stroke-width=".6"></g>
</g>
</g>
</g>
</g>
</g>
</svg>
