<svg width="16" height="16" enable-background="new" version="1.1" xmlns="http://www.w3.org/2000/svg">
<defs>
<filter color-interpolation-filters="sRGB">
<feBlend in2="BackgroundImage" mode="darken"/>
</filter>
</defs>
<g transform="translate(-445 435)">
<path d="m449.5-431c-2.4853 0-4.5 2.0147-4.5 4.5s2.0147 4.5 4.5 4.5c1.9047-3e-3 3.6014-1.2042 4.2363-3l3.2637-4e-3v2h3v-2.0039l1 4e-3v-3l-7.2637 4e-3c-0.6349-1.7958-2.3316-2.9973-4.2363-3zm0 3c0.82843 0 1.5 0.67157 1.5 1.5s-0.67157 1.5-1.5 1.5-1.5-0.67157-1.5-1.5 0.67157-1.5 1.5-1.5z" enable-background="new" fill="#f2f2f2"/>
</g>
</svg>
