<svg width="24" height="24" version="1.1" xmlns="http://www.w3.org/2000/svg">
<g transform="matrix(.90331 0 0 .90331 61.835 .98348)" fill="#363636">
<g transform="matrix(1.4761 0 0 1.4761 -65.058 -5.2217)" fill="#363636">
<g transform="matrix(.15 0 0 .15 .7 5.8)" fill="#363636">
<path d="m64 48h-8v-16h8c8.836 0 16-7.164 16-16s-7.164-16-16-16c-8.837 0-16 7.164-16 16v8h-16v-8c0-8.836-7.164-16-16-16s-16 7.164-16 16 7.164 16 16 16h8v16h-8c-8.836 0-16 7.164-16 16s7.164 16 16 16c8.837 0 16-7.164 16-16v-8h16v7.98c0 8e-3 -1e-3 0.014-1e-3 0.02 0 8.836 7.164 16 16 16s16-7.164 16-16-7.163-15.998-15.999-16zm0-40c4.418 0 8 3.582 8 8s-3.582 8-8 8h-8v-8c0-4.418 3.582-8 8-8zm-56 8c0-4.418 3.582-8 8-8s8 3.582 8 8v8h-8c-4.418 0-8-3.583-8-8zm8 56c-4.418 0-8-3.582-8-8s3.582-8 8-8h8v8c0 4.418-3.582 8-8 8zm16-24v-16h16v16h-16zm32 24c-4.418 0-8-3.582-8-8v-8h7.999c4.418 0 8 3.582 8 8s-3.581 8-7.999 8z" fill="#363636"/>
</g>
</g>
</g>
</svg>
