<svg width="36" height="36" version="1.1" xmlns="http://www.w3.org/2000/svg">
<g transform="translate(-442,-156)">
<path transform="translate(442,156)" d="m4.1035 1c-2.2734 0-4.1035 1.8301-4.1035 4.1035v18.896h2 32 1.9336v1.5508c0.034366-0.21454 0.066406-0.42977 0.066406-0.6543v-19.793c0-2.2734-1.8301-4.1035-4.1035-4.1035h-27.793zm-1.1035 3h30v17h-30v-17z" fill="#e8f1f5" fill-opacity=".93156" opacity=".81"/>
<rect x="445" y="160" width="30" height="17" rx="0" ry="0" fill="#e8f1f5" fill-opacity=".68235" opacity=".2"/>
<path transform="translate(442,156)" d="m0 24v0.89648c0 2.2734 1.8301 4.1035 4.1035 4.1035h27.793c2.0489 0 3.7235-1.4915 4.0371-3.4492v-1.5508h-1.9336v1.0137c0 1.1003-0.88604 1.9863-1.9863 1.9863h-28.027c-1.1003 0-1.9863-0.88604-1.9863-1.9863v-1.0137h-2z" fill="#e8f1f5" fill-opacity=".8403" opacity=".707"/>
<circle cx="460" cy="181.5" r=".75" opacity=".2"/>
<rect x="453" y="189.5" width="14" height="1.5" fill="#e8f1f5" fill-opacity=".88593" opacity=".844"/>
<path transform="translate(442,156)" d="m14.25 29v1.5c2.8e-4 2.0804-2.2068 2.7484-3.25 3h14c-1.0432-0.25156-3.2503-0.91956-3.25-3v-1.5h-0.25-7-0.25z" fill="#e8f1f5" fill-opacity=".77567" opacity=".3"/>
<rect x="456.25" y="185" width="7.5" height="1.5" fill="#e8f1f5" fill-opacity=".68235" opacity=".3"/>
</g>
</svg>
