<svg width="36" height="36" version="1.1" xmlns="http://www.w3.org/2000/svg">
<g transform="translate(-442,-156)">
<path transform="translate(442,156)" d="m3.9824 27.422v4.5918c0 1.1003 0.88604 1.9863 1.9863 1.9863h0.03125v-6h0.10352c-0.18998 0-0.3776-0.012868-0.5625-0.039062-0.5547-0.078582-1.0827-0.27021-1.5586-0.53906zm28 0.019531c-0.6265 0.34634-1.34 0.55859-2.0859 0.55859h-3.8965v6h3.9961c1.1003 0 1.9863-0.88604 1.9863-1.9863v-4.5723zm-22.982 0.55859v6h7v-6h-7zm9 0v6h2v-6h-2zm4 0v6h2v-6h-2z" fill="#e8e8e8" fill-opacity=".76863" opacity=".3"/>
<path d="m449.99 158c-1.1003 0-1.877 0.89148-1.9863 1.9863l-2 20.027c-0.10933 1.0948 0.88604 1.9863 1.9863 1.9863h5.2715 16.742 2 0.0137c1.1003 0 2.0957-0.89148 1.9863-1.9863l-2-20.027c-0.10936-1.0948-0.88606-1.9863-1.9864-1.9863h-0.0137-2-12.742-5.2715zm19.004 1.9805 1.0098 12.02c0 4.4183-4.4772 8-10 8s-10-3.5817-10-8 4.4772-8 10-8c0.85672 0 1.6888 0.0859 2.4824 0.24805l6.5078-4.2676z" fill="#e8f1f5" fill-opacity=".40659"/>
<path d="m467.6 162.41-5.2109 3.3652c-0.75696-0.18031-1.559-0.27734-2.3906-0.27734-4.5564 0-8.25 2.9102-8.25 6.5s3.6936 6.5 8.25 6.5 8.25-2.9102 8.25-6.5l-0.64844-9.5879zm-7.6016 6.6113a4 2.9785 0 0 1 4 2.9785 4 2.9785 0 0 1-4 2.9785 4 2.9785 0 0 1-4-2.9785 4 2.9785 0 0 1 4-2.9785z" fill="#fff" fill-opacity=".11787" opacity=".1"/>
<path d="m468.99 159.98-6.5078 4.2676c-0.79358-0.16212-1.6257-0.24805-2.4824-0.24805-5.5228 0-10 3.5817-10 8s4.4772 8 10 8 10-3.5817 10-8l-1.0098-12.02zm-1.3887 2.4316 0.64844 9.5879c0 3.5898-3.6936 6.5-8.25 6.5s-8.25-2.9102-8.25-6.5 3.6936-6.5 8.25-6.5c0.83167 0 1.6337 0.097 2.3906 0.27734l5.2109-3.3652z" fill="#e8f1f5" fill-opacity=".80769"/>
<path d="m460 169.02a4 2.9785 0 0 0-4 2.9785 4 2.9785 0 0 0 4 2.9785 4 2.9785 0 0 0 4-2.9785 4 2.9785 0 0 0-4-2.9785zm0 1.1875a2.4052 1.791 0 0 1 2.4043 1.791 2.4052 1.791 0 0 1-2.4043 1.791 2.4052 1.791 0 0 1-2.4043-1.791 2.4052 1.791 0 0 1 2.4043-1.791z" fill="#e8f1f5" fill-opacity=".78571"/>
<path transform="translate(442,156)" d="m8.1035 0c-2.2734 0-3.875 1.8416-4.1035 4.1035l-2 19.793c-6e-3 0.0568-0.0028594 0.11172-0.0058594 0.16797-2e-3 -0.0564-0.011719-0.11098-0.011719-0.16797v8c0 2.2734 1.8301 4.1035 4.1035 4.1035h23.793c2.2734 0 4.1035-1.8301 4.1035-4.1035v-7.1738c0.0389-0.26683 0.046178-0.54343 0.017578-0.82617l-2-19.793c-0.22845-2.2619-1.8301-4.1035-4.1035-4.1035h-19.793zm-0.11719 2h5.2715 12.742 2 0.013672c1.1003 0 1.877 0.89148 1.9863 1.9863l2 20.027c0.1093 1.0948-0.88604 1.9863-1.9863 1.9863h-0.013672-2-16.742-5.2715c-1.1003 0-2.0957-0.89148-1.9863-1.9863l2-20.027c0.10936-1.0948 0.88604-1.9863 1.9863-1.9863zm-4.0039 25.422c0.63454 0.35847 1.3612 0.57812 2.1211 0.57812h-0.10352v6h-0.03125c-1.1003 0-1.9863-0.88604-1.9863-1.9863v-4.5918zm28 0.019531v4.5723c0 1.1003-0.88604 1.9863-1.9863 1.9863h-0.013672-2-1.9824v-6h3.8965c0.74595 0 1.4594-0.21225 2.0859-0.55859zm-22.982 0.55859h7v6h-4.7598-2.2402v-6zm9 0h2v6h-2v-6zm4 0h2v6h-2v-6z" fill="#e8f1f5" fill-opacity=".82967"/>
<rect x="452" y="160" width="12" height="2" fill="#e8f1f5" fill-opacity=".5"/>
<rect transform="rotate(90)" x="186" y="-472" width="2" height="2" fill="#f7f7f7" fill-opacity=".76863" opacity=".75"/>
</g>
</svg>
