<svg width="36" height="36" version="1.1" xmlns="http://www.w3.org/2000/svg">
<g transform="translate(-442,-156)">
<path d="m444 163v6 22h12 10v-16-1.7988l-10.201-10.201h-1.7988-10zm2 2h5.9375c1.1852 0 2.0625 1.0416 2.0625 2.375v7.625h8.0352c0.9857 0 1.9648 1.2186 1.9648 2.1191v11.881h-8-10v-19.799-4.2012zm10 1.2012 6.7988 6.7988h-6.7988v-6.7988z" fill="#edf4f7" fill-opacity=".85932"/>
<path d="m454 157v6h1.7988l0.20117 0.20117v-4.2012h5.9375c1.1852 0 2.0625 1.0416 2.0625 2.375v7.625h8.0344c0.9857 0 1.9656 1.2177 1.9656 2.1182v11.882h-8v2h10v-16-1.7988l-10.201-10.201h-1.7988zm12 3.2012 6.7988 6.7988h-6.7988z" fill="#edf4f7" fill-opacity=".85932"/>
<path d="m446 165v24h18v-14h-10v-10h-8z" fill="#e8f1f5" fill-opacity=".58935" fill-rule="evenodd"/>
<path d="m456 159v4.2012l10 10v1.7988 8h8v-11.881c0-0.90055-0.97915-2.1191-1.9648-2.1191h-8.0352v-7.625c0-1.3334-0.87731-2.375-2.0625-2.375h-5.9375z" fill="#e8f1f5" fill-opacity=".56654" fill-rule="evenodd"/>
</g>
</svg>
