<svg width="36" height="36" version="1.1" xmlns="http://www.w3.org/2000/svg">
<g transform="translate(-442,-156)" fill="#e8f1f5">
<path transform="translate(442,156)" d="m7.5 15.875v16.125h21.875v-16.125h-21.875zm10.938 1.8105a3.8125 3.8125 0 0 1 3.8125 3.8125 3.8125 3.8125 0 0 1-2.2871 3.4883l1.6738 5.2031h-6.3984l1.6719-5.1992a3.8125 3.8125 0 0 1-2.2852-3.4922 3.8125 3.8125 0 0 1 3.8125-3.8125z" fill-opacity=".56863"/>
<path d="m460.63 157.05c-5.2379-6e-3 -10.305 4.2614-11.029 11.826h-0.0977c-1.636 0-3 1.364-3 3v16.125c0 1.636 1.364 3 3 3h21.875c1.636 0 3-1.364 3-3v-16.125c0-1.5398-1.2126-2.8232-2.7188-2.9707-0.71492-7.5655-5.7855-11.849-11.029-11.855zm-4e-3 3c3.6183 5e-3 7.3866 2.6499 8.0234 8.8262h-16.043c0.6346-6.196 4.4002-8.8303 8.0195-8.8262zm-11.123 11.826h21.875v16.125h-21.875z" color="#000000" color-rendering="auto" dominant-baseline="auto" fill-opacity=".89412" image-rendering="auto" shape-rendering="auto" solid-color="#000000" style="font-feature-settings:normal;font-variant-alternates:normal;font-variant-caps:normal;font-variant-ligatures:normal;font-variant-numeric:normal;font-variant-position:normal;isolation:auto;mix-blend-mode:normal;shape-padding:0;text-decoration-color:#000000;text-decoration-line:none;text-decoration-style:solid;text-indent:0;text-orientation:mixed;text-transform:none;white-space:normal"/>
</g>
</svg>
