<svg width="36" height="36" version="1.1" xmlns="http://www.w3.org/2000/svg">
<path d="m13.461 2.25c-2.0014 0-3.1723 0.21727-4.3516 1.3965-1.1792 1.1792-1.8593 3.1035-3.502 3.1035h-1.3359c-2.3662 0-4.2715 1.9052-4.2715 4.2715v16.207c0 2.3662 1.9052 4.2715 4.2715 4.2715h27.457c2.3662 0 4.2715-1.9052 4.2715-4.2715v-16.207c0-2.3662-1.9053-4.2715-4.2715-4.2715h-1.3359c-1.6427 0-2.3227-1.9243-3.502-3.1035-1.1792-1.1792-2.3501-1.3965-4.3516-1.3965h-9.0781zm0.10547 2.25h8.8672c1.283 0 2.6929 0.53862 3.7969 1.6426 1.104 1.104 1.646 2.8574 3.4414 2.8574h1.877c1.2189 0 2.2012 0.98224 2.2012 2.2012v15.848c0 1.2189-0.98223 2.2012-2.2012 2.2012h-27.098c-1.2189 0-2.2012-0.98224-2.2012-2.2012v-15.848c0-1.2189 0.98224-2.2012 2.2012-2.2012h1.877c1.7954 0 2.3375-1.7535 3.4414-2.8574 1.104-1.104 2.5139-1.6426 3.7969-1.6426zm4.4336 7.7754a5.625 5.625 0 0 0-5.625 5.625 5.625 5.625 0 0 0 5.625 5.625 5.625 5.625 0 0 0 5.625-5.625 5.625 5.625 0 0 0-5.625-5.625zm0 2.25a3.375 3.375 0 0 1 3.375 3.375 3.375 3.375 0 0 1-3.375 3.375 3.375 3.375 0 0 1-3.375-3.375 3.375 3.375 0 0 1 3.375-3.375z" fill="#e8f1f5" fill-opacity=".85932"/>
<path d="m13.566 4.5c-1.283 0-2.6929 0.53862-3.7969 1.6426-1.104 1.104-1.6461 2.8574-3.4414 2.8574h-1.877c-1.2189 0-2.2012 0.98224-2.2012 2.2012v15.848c0 1.2189 0.98224 2.2012 2.2012 2.2012h27.098c1.2189 0 2.2012-0.98224 2.2012-2.2012v-15.848c0-1.2189-0.98223-2.2012-2.2012-2.2012h-1.877c-1.7954 0-2.3374-1.7535-3.4414-2.8574-1.104-1.104-2.5139-1.6426-3.7969-1.6426h-8.8672zm4.4336 2.1504a11.25 11.25 0 0 1 11.25 11.25 11.25 11.25 0 0 1-11.25 11.25 11.25 11.25 0 0 1-11.25-11.25 11.25 11.25 0 0 1 11.25-11.25zm0 7.875a3.375 3.375 0 0 0-3.375 3.375 3.375 3.375 0 0 0 3.375 3.375 3.375 3.375 0 0 0 3.375-3.375 3.375 3.375 0 0 0-3.375-3.375z" fill="#e8f1f5" fill-opacity=".60076"/>
<path d="m18 6.6504a11.25 11.25 0 0 0-11.25 11.25 11.25 11.25 0 0 0 11.25 11.25 11.25 11.25 0 0 0 11.25-11.25 11.25 11.25 0 0 0-11.25-11.25zm0 2.25a9 9 0 0 1 9 9 9 9 0 0 1-9 9 9 9 0 0 1-9-9 9 9 0 0 1 9-9z" fill="#e8f1f5" fill-opacity=".85932"/>
</svg>
