<svg width="36" height="36" version="1.1" xmlns="http://www.w3.org/2000/svg">
<g transform="translate(-442,-156)" fill="#e8f1f5">
<path d="m444.12 157c-1.1752 0-2.1211 0.94505-2.1211 2.1192v24.762c0 1.1742 0.94588 2.1192 2.1211 2.1192h31.758c1.1752 0 2.1211-0.94505 2.1211-2.1192v-21.739c0-1.1742-0.94588-2.1192-2.1211-2.1192h-19.537c-1.3047-0.0511-1.6297-0.64674-2.3413-1.588-0.71161-0.94121-1.1674-1.4348-2.1216-1.4348zm1.166 1.9982h5.4258c1.3355 0 1.7571 1.0142 2.2718 1.5285s1.9584 1.4942 2.7711 1.4942h18.957c0.71285 0 1.2871 0.57376 1.2871 1.286v0.72397c-0.041-2e-3 -0.0795-0.0117-0.12109-0.0117h-31.758c-0.0416 0-0.0801 9e-3 -0.12109 0.0117v-3.7467c0-0.71222 0.57426-1.286 1.2871-1.286zm0 7.0192h29.426c0.71285 0 1.2871 0.57375 1.2871 1.286v15.412c0 0.71222-0.57426 1.286-1.2871 1.286h-29.426c-0.71285 0-1.2871-0.57376-1.2871-1.286v-15.412c0-0.71223 0.57426-1.286 1.2871-1.286z" fill-opacity=".88593" opacity=".75"/>
<path d="m445.29 166.02h29.426c0.71285 0 1.2871 0.57375 1.2871 1.286v15.412c0 0.71222-0.57426 1.286-1.2871 1.286h-29.426c-0.71285 0-1.2871-0.57376-1.2871-1.286v-15.412c0-0.71223 0.57426-1.286 1.2871-1.286z" fill-opacity=".68235"/>
<path d="m444 182v0.71227c0 0.71222 0.57426 1.286 1.2871 1.286h29.426c0.71285 0 1.2871-0.57376 1.2871-1.286v-0.71227z" fill-opacity=".68235" opacity=".3"/>
<rect x="442" y="188.5" width="36" height="2.5" rx="1.25" ry="1.25" fill-opacity=".78707" opacity=".75"/>
<rect transform="rotate(90)" x="186" y="-461.25" width="2.5" height="2.5" rx="0" ry="0" fill-opacity=".68235" opacity=".75"/>
</g>
</svg>
