<svg width="36" height="36" version="1.1" xmlns="http://www.w3.org/2000/svg">
<path d="m18 0a18 18 0 0 0-18 18 18 18 0 0 0 8.8594 15.477 1.25 1.25 0 0 0 0.74805 0.25195 1.25 1.25 0 0 0 1.25-1.25 1.25 1.25 0 0 0-0.59766-1.0664 15.5 15.5 0 0 1-7.7598-13.412 15.5 15.5 0 0 1 15.5-15.5 15.5 15.5 0 0 1 15.5 15.5 15.5 15.5 0 0 1-7.7617 13.408l0.003907 0.005859a1.25 1.25 0 0 0-0.63867 1.0879 1.25 1.25 0 0 0 1.25 1.25 1.25 1.25 0 0 0 0.73242-0.24023 18 18 0 0 0 8.9141-15.512 18 18 0 0 0-18-18zm0 5a13 13 0 0 0-13 13 13 13 0 0 0 6.4023 11.18 1.25 1.25 0 0 0 0.10938 0.066406 1.25 1.25 0 0 0 0.59961 0.15625 1.25 1.25 0 0 0 1.25-1.25 1.25 1.25 0 0 0-0.67383-1.1094 1.25 1.25 0 0 0-0.009766-0.00586 10.5 10.5 0 0 1-5.1777-9.0371 10.5 10.5 0 0 1 10.5-10.5 10.5 10.5 0 0 1 10.5 10.5 10.5 10.5 0 0 1-5.2598 9.084 1.25 1.25 0 0 0-0.62695 1.082 1.25 1.25 0 0 0 1.25 1.25 1.25 1.25 0 0 0 0.625-0.16992l0.001953 0.003906a13 13 0 0 0 6.5098-11.25 13 13 0 0 0-13-13zm0 5.5a7.5 7.5 0 0 0-7.5 7.5 7.5 7.5 0 0 0 3.6562 6.4277 1.25 1.25 0 0 0 0.076172 0.044922 1.25 1.25 0 0 0 0.02539 0.015625 1.25 1.25 0 0 0 0.5918 0.14844 1.25 1.25 0 0 0 1.25-1.25 1.25 1.25 0 0 0-0.63867-1.0879 5 5 0 0 1-2.4609-4.2988 5 5 0 0 1 5-5 5 5 0 0 1 5 5 5 5 0 0 1-2.5059 4.3262l0.001953 0.001953a1.25 1.25 0 0 0-0.60547 1.0703 1.25 1.25 0 0 0 1.25 1.25 1.25 1.25 0 0 0 0.60352-0.15625 7.5 7.5 0 0 0 0.017578-0.011719 1.25 1.25 0 0 0 0.10156-0.064453 7.5 7.5 0 0 0 3.6367-6.416 7.5 7.5 0 0 0-7.5-7.5zm0 5.5a2 2 0 0 0-2 2 2 2 0 0 0 2 2 2 2 0 0 0 2-2 2 2 0 0 0-2-2z" fill="#e8f1f5" fill-opacity=".68235" opacity=".813"/>
</svg>
