<svg width="36" height="36" version="1.1" xmlns="http://www.w3.org/2000/svg">
<g transform="translate(-442,-156)" fill="#e8f1f5">
<path d="m453.59 156c-0.8804 0-1.752 1.0917-2.5898 2.0273s-2 2.4665-2 3.6602v27.66c0 1.469 1.1833 2.6523 2.6523 2.6523h16.695c1.469 0 2.6523-1.1833 2.6523-2.6523v-27.66c0-1.1936-1.1621-2.7245-2-3.6602s-1.7094-2.0273-2.5898-2.0273h-3-4.8203-5zm1.7578 1.4785h1.9648 5.375 1.9648c0.77887 0 1.5034 0.29368 2.0566 0.9375l1.4199 1.6875c0.68099 0.90875 0.87109 1.4249 0.87109 2.375h-6.1875-5.625-6.1875c0-0.95012 0.1901-1.4662 0.87109-2.375l1.4199-1.6875c0.55321-0.64382 1.2778-0.9375 2.0566-0.9375zm-4.3477 6.5215h18v26h-18v-26z" fill-opacity=".88462"/>
<rect x="451" y="164" width="18" height="26" rx="0" ry="0" fill-opacity=".57143"/>
<ellipse cx="460" cy="159.66" rx="2.5312" ry=".78125" fill-opacity=".68235"/>
<path d="m460.08 158.85s0.22097-0.46404 0.7292-0.59662c0.50824-0.13258-0.22097 0.83969-0.7292 0.59662z" fill-opacity=".68235" fill-rule="evenodd"/>
</g>
</svg>
