<svg width="36" height="36" version="1.1" xmlns="http://www.w3.org/2000/svg">
<g transform="translate(-442,-156)">
<g transform="matrix(.96575 0 0 .96575 16.161 6.4188)">
<path d="m460.04 156.91c-3.1153-0.0128-6.2198 0.41158-8.709 1.3027-2.4892 0.89115-4.4228 2.2643-4.9707 4.2539l0.0488 0.0137 0.18359 1.1094 4.2188 25.73c0.0653 0.3971 0.33348 0.73116 0.70704 0.88086 4.8184 1.9313 12.036 1.9496 16.627-0.01 0.35189-0.15037 0.60593-0.46592 0.67773-0.84179l4.9395-25.729 0.21679-1.1309-0.0684-0.0566c-0.66496-1.92-2.6195-3.2624-5.1074-4.1543-2.5252-0.90528-5.6484-1.3563-8.7637-1.3691zm0.13086 0.93946a11.834 3.6019 0 0 1 11.834 3.6016 11.834 3.6019 0 0 1-0.33398 0.83203l-0.16602 0.9043-0.85351 4.4473c-6.9051 2.3642-14.022 2.3841-21.082-0.10742l-0.70703-4.3106-0.14454-0.86718a11.834 3.6019 0 0 1-0.38281-0.89844 11.834 3.6019 0 0 1 11.836-3.6016zm-10.418 10.805c6.9112 2.3195 13.913 2.3028 20.682 0.10743l-3.7383 19.461c-3.6503 1.3337-9.8188 1.3481-13.734-4e-3z" color="#000000" color-rendering="auto" dominant-baseline="auto" fill="#e8f1f5" fill-opacity=".83137" image-rendering="auto" shape-rendering="auto" solid-color="#000000" style="font-feature-settings:normal;font-variant-alternates:normal;font-variant-caps:normal;font-variant-ligatures:normal;font-variant-numeric:normal;font-variant-position:normal;isolation:auto;mix-blend-mode:normal;shape-padding:0;text-decoration-color:#000000;text-decoration-line:none;text-decoration-style:solid;text-indent:0;text-orientation:mixed;text-transform:none;white-space:normal"/>
<path d="m460.18 158.4a11.834 3.6019 0 0 0-11.793 3.3438 11.834 3.6019 0 0 0 11.793 3.3144 11.834 3.6019 0 0 0 11.791-3.3418 11.834 3.6019 0 0 0-11.791-3.3164z" fill="#eaf0f3" fill-opacity=".43005"/>
<path d="m471.79 162.11a11.834 3.6019 0 0 1-11.615 2.9434 11.834 3.6019 0 0 1-11.529-2.8164 11.834 3.6019 0 0 0 0.0762 0.11328l0.14454 0.86718 0.70703 4.3106c7.0603 2.4916 14.177 2.4716 21.082 0.10742l0.85351-4.4473 0.16602-0.9043a11.834 3.6019 0 0 0 0.11523-0.17383z" fill="#f0f6f9" fill-opacity=".84456"/>
<path d="m460.18 157.85c0.78481 0 1.5489 0.0259 2.291 0.0703a11.834 3.6019 0 0 0-2.291-0.0703zm0 0a11.834 3.6019 0 0 0-2.2324 0.0684c0.72444-0.0422 1.4676-0.0684 2.2324-0.0684zm2.5234 0.0859c0.68931 0.0457 1.3574 0.10897 1.9961 0.18946a11.834 3.6019 0 0 0-1.9961-0.18946zm-5.1191 6e-3a11.834 3.6019 0 0 0-1.9024 0.18164c0.60893-0.0763 1.2474-0.13691 1.9024-0.18164zm7.2754 0.20313c0.65734 0.0863 1.2838 0.19094 1.873 0.31055a11.834 3.6019 0 0 0-1.873-0.31055zm-9.4551 0.0156a11.834 3.6019 0 0 0-1.7754 0.29297c0.55872-0.11328 1.1552-0.20949 1.7754-0.29297zm11.41 0.31055c0.59281 0.12246 1.1431 0.26174 1.6524 0.41406a11.834 3.6019 0 0 0-1.6524-0.41406zm-13.354 0.0195a11.834 3.6019 0 0 0-1.6094 0.4043c0.49413-0.14903 1.0355-0.28348 1.6094-0.4043zm15.113 0.42383c0.48295 0.14804 0.91546 0.31077 1.3086 0.48242a11.834 3.6019 0 0 0-1.3086-0.48242zm-16.838 0.0176a11.834 3.6019 0 0 0-1.3418 0.49414c0.39711-0.17735 0.84967-0.34143 1.3418-0.49414zm18.338 0.54687c0.0768 0.0356 0.146 0.0729 0.21875 0.10938a11.834 3.6019 0 0 0-0.21875-0.10938zm0.60352 0.31446c0.0517 0.0303 0.0975 0.061 0.14648 0.0918a11.834 3.6019 0 0 0-0.14648-0.0918zm0.48632 0.32226c0.0487 0.037 0.0901 0.0756 0.13477 0.11328a11.834 3.6019 0 0 0-0.13477-0.11328zm0.37305 0.33203c0.0406 0.0426 0.0739 0.0857 0.10938 0.12891a11.834 3.6019 0 0 0-0.10938-0.12891zm0.27149 0.34766c0.029 0.0479 0.0515 0.096 0.0742 0.14453a11.834 3.6019 0 0 0-0.0742-0.14453zm0.20507 0.65625c-1e-3 0.0808-0.0303 0.16141-0.0508 0.24219a11.834 3.6019 0 0 1 2e-3 4e-3 11.834 3.6019 0 0 0 0.0488-0.24609zm-0.0684 0.33203c-2.4e-4 7.5e-4 -2e-3 1e-3 -2e-3 2e-3 -7e-3 0.0201-4e-3 0.0406-0.0117 0.0606a11.834 3.6019 0 0 0 0.0137-0.0625zm-23.307 0.4375a11.834 3.6019 0 0 0 0.0879 0.12891 11.834 3.6019 0 0 1-0.0566-0.084 11.834 3.6019 0 0 1-0.0312-0.0449zm1.123 6.4336 3.209 19.564c3.9156 1.352 10.084 1.3376 13.734 4e-3l3.7383-19.461c-6.7687 2.1954-13.77 2.2121-20.682-0.10743z" color="#000000" color-rendering="auto" dominant-baseline="auto" fill="#e8f1f5" fill-opacity=".50777" image-rendering="auto" shape-rendering="auto" solid-color="#000000" style="font-feature-settings:normal;font-variant-alternates:normal;font-variant-caps:normal;font-variant-ligatures:normal;font-variant-numeric:normal;font-variant-position:normal;isolation:auto;mix-blend-mode:normal;shape-padding:0;text-decoration-color:#000000;text-decoration-line:none;text-decoration-style:solid;text-indent:0;text-orientation:mixed;text-transform:none;white-space:normal"/>
</g>
</g>
</svg>
