<svg xmlns="http://www.w3.org/2000/svg" width="36" height="36" version="1.1">
<g>
<path d="m3.98 27.42v4.5918c0 1.1003 0.88604 1.9863 1.9863 1.9863h24.027c1.1003 0 1.9863-0.88604 1.9863-1.9863v-4.5723c-0.6265 0.34634-1.34 0.55859-2.0859 0.55859h-23.793c-0.75993 0-1.4866-0.21966-2.1211-0.57813z" fill-opacity=".90196" opacity=".05" />
<path transform="translate(0 0)" d="m7.9863 2c-1.1003 0-1.877 0.89148-1.9863 1.9863l-2 20.027c-0.10933 1.0948 0.88604 1.9863 1.9863 1.9863h5.2715 16.742 2 0.013672c1.1003 0 2.0957-0.89148 1.9863-1.9863l-2-20.027c-0.10936-1.0948-0.88603-1.9863-1.9863-1.9863h-0.013672-2-12.742-5.2715z" fill="#e8f1f5" fill-opacity=".60456" opacity=".3" />
<path d="m8.1 0c-2.2734 0-3.875 1.8416-4.1035 4.1035l-2 19.793c-6e-3 0.0568-3e-3 0.11172-6e-3 0.16797-2e-3 -0.0564-0.0117-0.11098-0.0117-0.16797v8c0 2.2734 1.8301 4.1035 4.1035 4.1035h23.793c2.2734 0 4.1035-1.8301 4.1035-4.1035v-7.1738c0.0389-0.26683 0.0462-0.54344 0.0176-0.82618l-2-19.793c-0.22845-2.2619-1.83-4.1035-4.1034-4.1035h-19.793zm-0.11719 2h5.2715 12.742 2 0.0137c1.1003 0 1.877 0.89148 1.9863 1.9863l2 20.027c0.1093 1.0948-0.88607 1.9863-1.9864 1.9863h-0.0137-2-16.742-5.2715c-1.1003 0-2.0957-0.89148-1.9863-1.9863l2-20.027c0.10936-1.0948 0.88607-1.9863 1.9864-1.9863zm-4.0039 25.422c0.63454 0.35847 1.3612 0.57813 2.1211 0.57813h23.793c0.74595 0 1.4594-0.21225 2.0859-0.55859v4.5723c0 1.1003-0.88604 1.9863-1.9863 1.9863h-0.0137-2-16.742-5.2715c-1.1003 0-1.9863-0.88604-1.9863-1.9863v-4.5918z" fill="#e8f1f5" fill-opacity=".8251" opacity=".816" />
<path transform="translate(0 0)" d="m6.0684 30.01c-0.74595 0-1.4594 0.21225-2.0859 0.55859v1.4453c0 1.1003 0.88604 1.9863 1.9863 1.9863h24.027c1.1003 0 1.9863-0.88604 1.9863-1.9863v-1.4258c-0.63454-0.35847-1.3612-0.57812-2.1211-0.57812h-23.793z" fill="#e8f1f5" fill-opacity=".63498" opacity=".15" />
<rect x="186" y="-472" width="2" height="2" fill="#e8f1f5" fill-opacity=".90114" opacity=".75" />
</g>
</svg>
