<svg xmlns="http://www.w3.org/2000/svg" width="36" height="36" version="1.1">
<g fill="#e8f1f5">
<path d="m2.12 1.97c-1.1752 0-2.1211 0.94588-2.1211 2.1211v24.783c0 1.1752 0.94588 2.1211 2.1211 2.1211h31.758c1.1752 0 2.1211-0.94588 2.1211-2.1211v-21.758c0-1.1752-0.94588-2.1211-2.1211-2.1211h-19.537c-1.3047-0.0511-1.6297-0.64731-2.3413-1.5894s-1.1674-1.436-2.1216-1.436zm1.166 2h5.4258c1.3355 0 1.7571 1.0151 2.2718 1.5299s1.9584 1.4955 2.7711 1.4955h18.957c0.71285 0 1.2871 0.57426 1.2871 1.2871v0.72461c-0.041-2e-3 -0.0795-0.0117-0.12109-0.0117h-31.758c-0.0416 0-0.0801 9e-3 -0.12109 0.0117v-3.75c0-0.71285 0.57426-1.2871 1.2871-1.2871zm0 7.0254h29.426c0.71285 0 1.2871 0.57426 1.2871 1.2871v15.426c0 0.71285-0.57426 1.2871-1.2871 1.2871h-29.426c-0.71285 0-1.2871-0.57426-1.2871-1.2871v-15.426c0-0.71285 0.57426-1.2871 1.2871-1.2871z" fill-opacity=".91255" opacity=".75" />
<path d="m3.29 11h29.426c0.71285 0 1.2871 0.57426 1.2871 1.2871v15.426c0 0.71285-0.57426 1.2871-1.2871 1.2871h-29.426c-0.71285 0-1.2871-0.57426-1.2871-1.2871v-15.426c0-0.71285 0.57426-1.2871 1.2871-1.2871z" fill-opacity=".68235" />
<path d="m2 27v0.71289c0 0.71285 0.57426 1.2871 1.2871 1.2871h29.426c0.71285 0 1.2871-0.57426 1.2871-1.2871v-0.71289z" fill-opacity=".68235" opacity=".3" />
<path transform="translate(0 0)" d="m16.5 13v4.5h-4.5v3h4.5v4.5h3v-4.5h4.5v-3h-4.5v-4.5h-3z" fill-opacity=".95817" opacity=".75" />
</g>
</svg>
