<svg width="36" height="36" version="1.1" xmlns="http://www.w3.org/2000/svg">
<g transform="translate(-442,-156)">
<g transform="matrix(.95833 0 0 .95833 19.406 1.0208)">
<path d="m459.75 162.5a18 18 0 0 0-18 18 18 18 0 0 0 18 18 18 18 0 0 0 18-18 18 18 0 0 0-18-18zm0 2a16 16 0 0 1 16 16 16 16 0 0 1-16 16 16 16 0 0 1-16-16 16 16 0 0 1 16-16z" fill="#f6fafc" fill-opacity=".492" opacity=".878"/>
<path d="m459.75 164.5a16 16 0 0 0-16 16 16 16 0 0 0 16 16 16 16 0 0 0 16-16 16 16 0 0 0-16-16zm-4 6h8v10h6l-10 12.5-10-12.5h6z" fill="#e8f1f5" fill-opacity=".68127"/>
<path d="m454.61 168.23a1.134 1.134 0 0 0-1.1348 1.1348v8.8613h-6.084a1.134 1.134 0 0 0-0.88477 1.8438l12.357 15.449a1.134 1.134 0 0 0 1.7695 0l12.357-15.449a1.134 1.134 0 0 0-0.88476-1.8438h-6.0918v-8.8613a1.134 1.134 0 0 0-1.1348-1.1348zm1.1367 2.2656h8v10h6l-10 12.5-10-12.5h6z" color="#000000" color-rendering="auto" dominant-baseline="auto" fill="#88c3cb" fill-opacity=".067358" image-rendering="auto" shape-rendering="auto" solid-color="#000000" style="font-feature-settings:normal;font-variant-alternates:normal;font-variant-caps:normal;font-variant-ligatures:normal;font-variant-numeric:normal;font-variant-position:normal;isolation:auto;mix-blend-mode:normal;shape-padding:0;text-decoration-color:#000000;text-decoration-line:none;text-decoration-style:solid;text-indent:0;text-orientation:mixed;text-transform:none;white-space:normal"/>
<path d="m454.61 169.37v9.9961h-7.2188l12.357 15.449 12.357-15.449h-7.2266v-9.9961zm1.1367 1.1309h8v10h6l-10 12.5-10-12.5h6z" color="#000000" color-rendering="auto" dominant-baseline="auto" fill="#fff" fill-opacity=".12" image-rendering="auto" shape-rendering="auto" solid-color="#000000" style="font-feature-settings:normal;font-variant-alternates:normal;font-variant-caps:normal;font-variant-ligatures:normal;font-variant-numeric:normal;font-variant-position:normal;isolation:auto;mix-blend-mode:normal;shape-padding:0;text-decoration-color:#000000;text-decoration-line:none;text-decoration-style:solid;text-indent:0;text-orientation:mixed;text-transform:none;white-space:normal"/>
</g>
</g>
</svg>
