<svg width="36" height="36" version="1.1" xmlns="http://www.w3.org/2000/svg">
<g transform="translate(-442,-156)" fill="#e8f1f5">
<path d="m442 162 1 7h2.1543l2.8457 18h23.998l2.8418-18h2.1602l1-7h-36zm2.4844 2h31.125l-0.60937 3h-30l-0.51563-3zm2.3242 5h26.012l-2.6348 16h-20.467l-2.9102-16z" fill-opacity=".904"/>
<path d="m444.44 164 0.51562 3h30l0.60938-3h-31.125z" fill-opacity=".68235" opacity=".2"/>
<path transform="translate(442,156)" d="m4.8086 13 2.9102 16h20.652l2.6348-16h-26.197z" fill-opacity=".508"/>
<path d="m464.04 171.8c-0.24406-0.0306-0.49319 0.084-0.6243 0.31109l-3.9002 6.7578-2.0724-3.5891c-0.17479-0.30278-0.55964-0.40437-0.86241-0.22956l-0.33468 0.19094c-0.30278 0.1748-0.40649 0.55965-0.23169 0.86242l2.8383 4.9149c0.13821 0.23936 0.40236 0.2987 0.6629 0.29821 0.26057-4.9e-4 0.52293-0.0594 0.66077-0.29821l4.6682-8.0836c0.17482-0.30277 0.0711-0.68761-0.23169-0.86243l-0.33467-0.19308c-0.0756-0.0437-0.15678-0.0692-0.23813-0.0794z" fill-opacity=".88" opacity=".7"/>
</g>
</svg>
