<svg width="36" height="36" version="1.1" xmlns="http://www.w3.org/2000/svg">
<g transform="translate(-442,-156)" fill="#e8f1f5">
<path d="m446.1 160c-2.2734 0-4.1035 1.8301-4.1035 4.1035v19.793c0 2.2734 1.8301 4.1035 4.1035 4.1035h27.793c2.2734 0 4.1035-1.8301 4.1035-4.1035v-19.793c0-2.2734-1.8301-4.1035-4.1035-4.1035h-27.793zm-0.11719 2h28.027c1.1003 0 1.9863 0.88604 1.9863 1.9863v0.0137h-32v-0.0137c0-1.1003 0.88604-1.9863 1.9863-1.9863zm-1.9863 4h32v18.014c0 1.1003-0.88604 1.9863-1.9863 1.9863h-28.027c-1.1003 0-1.9863-0.88604-1.9863-1.9863v-18.014z" fill-opacity=".88973"/>
<path d="m444 166v18.014c0 1.1003 0.88604 1.9863 1.9863 1.9863h6.0137v-4h16v4h6.0137c1.1003 0 1.9863-0.88604 1.9863-1.9863v-18.014h-32z" fill-opacity=".68235"/>
<path d="m450.97 181c-0.53864 0-0.97266 0.43402-0.97266 0.97266v4.0273h2v-4h4v4h2v-4h4v4h2v-4h4v4h2v-4.0273c0-0.53864-0.43402-0.97266-0.97266-0.97266h-18.055z" fill-opacity=".85932" opacity=".5"/>
</g>
</svg>
