<svg width="16" height="16" version="1.1" viewBox="1.523 1.523 9 9" xmlns="http://www.w3.org/2000/svg">
<path d="m10.37 7.1881a4.5 4.5 0 0 0-3.182-5.5114 4.5 4.5 0 0 0-5.5114 3.182 4.5 4.5 0 0 0 3.182 5.5114 4.5 4.5 0 0 0 5.5114-3.182zm-0.73081-0.47031c-0.33631 1.4149-1.8581 2.8582-3.9847 3.0648l0.58234-2.1733 0.63472 1.1346c3.177-1.2261 2.4015-4.3835 0.52997-5.4812l0.19411-0.72444c1.6039 0.76274 2.3583 2.8554 2.0435 4.1796zm-3.341-4.5273-0.58234 2.1733-0.63472-1.1346c-3.177 1.2261-2.4015 4.3835-0.52997 5.4812l-0.19411 0.72444c-1.6039-0.76274-2.3597-2.8558-2.0449-4.18 0.33631-1.4149 1.8595-2.8578 3.9861-3.0644z" fill="#363636" stroke-width=".75"/>
</svg>
