<svg width="16" height="16" version="1.1" viewBox="1.524 1.523 9 9" xmlns="http://www.w3.org/2000/svg">
<path d="m9.9206 8.2734a4.5 4.5 0 0 0-1.6471-6.1471 4.5 4.5 0 0 0-6.1471 1.6471 4.5 4.5 0 0 0 1.6471 6.1471 4.5 4.5 0 0 0 6.1471-1.6471zm-0.58419-0.64343c-0.69104 1.2796-2.5346 2.2799-4.6421 1.9291l1.125-1.9486 0.31944 1.2602c3.3861-0.36207 3.4542-3.6126 1.9306-5.1573l0.375-0.64952c1.3518 1.1519 1.5389 3.3685 0.89213 4.5661zm-2.0554-5.2377-1.125 1.9486-0.31944-1.2602c-3.3861 0.36207-3.4542 3.6126-1.9306 5.1573l-0.375 0.64952c-1.3518-1.1519-1.5402-3.3692-0.8934-4.5668 0.69104-1.2796 2.5358-2.2791 4.6434-1.9283z" fill="#363636" stroke-width=".75"/>
</svg>
