<svg width="16" height="16" enable-background="new" version="1.1" xmlns="http://www.w3.org/2000/svg">
<path d="m7.0449 1c-0.02522 0-0.044922 0.019702-0.044922 0.044922v5.9102c0 0.02522 0.019702 0.044922 0.044922 0.044922h1.9102c0.02522 0 0.044922-0.019702 0.044922-0.044922v-5.9102c0-0.02522-0.019702-0.044922-0.044922-0.044922h-1.9102zm-5.084 0.82617-1.6543 0.95508c-0.021841 0.01261-0.028235 0.040659-0.015625 0.0625l2.9551 5.1172c0.01261 0.021841 0.038706 0.028235 0.060547 0.015625l1.6543-0.95312c0.021841-0.01261 0.028235-0.040659 0.015625-0.0625l-2.9531-5.1172c-0.01261-0.021841-0.040659-0.030188-0.0625-0.017578zm12.078 0c-0.021841-0.01261-0.049889-0.0042631-0.0625 0.017578l-2.9531 5.1172c-0.012611 0.021841-0.005907 0.049374 0.015624 0.0625l1.6309 0.99414c0.021532 0.013126 0.0625-0.017578 0.0625-0.017578l2.9766-5.1562c0.01261-0.021841 0.006217-0.04989-0.015625-0.0625l-1.6543-0.95508zm-12.994 7.1738c-0.02522 0-0.044922 0.019702-0.044922 0.044922v0.95508h-0.94727c-0.029423 0-0.052734 0.023311-0.052734 0.052734v2.8945c9.2519e-18 0.029423 0.023311 0.052734 0.052734 0.052734h15.895c0.029423 0 0.052734-0.023311 0.052734-0.052734v-2.8945c0-0.029423-0.023311-0.052734-0.052734-0.052734h-0.94727v-0.95508c0-0.02522-0.019702-0.044922-0.044922-0.044922h-5.9102c-0.02522 0-0.044922 0.019702-0.044922 0.044922v0.95508h-2v-0.95508c0-0.02522-0.019702-0.044922-0.044922-0.044922h-5.9102z" fill-opacity=".3451"/>
</svg>
