<svg width="16" height="16" version="1.1" viewBox=".9824 4.494 14.04 7.012" xmlns="http://www.w3.org/2000/svg">
<path d="m5.0833 7.4167c-0.48325 0-0.58333 0.26117-0.58333 0.58333 0 0.32217 0.10008 0.58333 0.58333 0.58333 0.03084-1.785e-4 0.061645-0.00146 0.092285-0.00379 0.022708 8.167e-4 0.044127 0.00379 0.06722 0.00379h5.5143c0.02232 0 0.04299-0.00303 0.06494-0.00379 0.03139 0.00239 0.06296 0.00367 0.09456 0.00379 0.48325 0 0.58333-0.26117 0.58333-0.58333 0-0.32217-0.10008-0.58333-0.58333-0.58333-0.03084 1.785e-4 -0.06164 0.00146-0.09228 0.00379-0.02271-8.254e-4 -0.04413-0.00379-0.06722-0.00379h-5.5143c-0.022317 0-0.042985 0.00303-0.064941 0.00379-0.031396-0.0024-0.062963-0.00367-0.094564-0.00379z" fill="#363636" fill-opacity=".66667"/>
<g transform="matrix(.38271 0 0 .4375 -126.22 -230.6)" fill="#363636" fill-opacity=".66667">
<g transform="matrix(0 -1.0825 -1.0825 0 1464.7 557.15)" fill="#363636" fill-opacity=".66667">
<g transform="matrix(.00011827 .032712 -.032712 .00011827 18.269 1034.4)" fill="#363636" fill-opacity=".66667">
<path d="m345.44 248.29-194.29 194.28c-12.359 12.365-32.397 12.365-44.75 0-12.354-12.354-12.354-32.391 0-44.744l171.91-171.91-171.91-171.9c-12.354-12.359-12.354-32.394 0-44.748 12.354-12.359 32.391-12.359 44.75 0l194.29 194.28c6.177 6.18 9.262 14.271 9.262 22.366 0 8.099-3.091 16.196-9.267 22.373z" fill="#363636" fill-opacity=".66667"/>
</g>
</g>
</g>
<g transform="matrix(-.38271 0 0 -.4375 142.22 246.6)" fill="#363636" fill-opacity=".66667">
<g transform="matrix(0 -1.0825 -1.0825 0 1464.7 557.15)" fill="#363636" fill-opacity=".66667">
<g transform="matrix(.00011827 .032712 -.032712 .00011827 18.269 1034.4)" fill="#363636" fill-opacity=".66667">
<path d="m345.44 248.29-194.29 194.28c-12.359 12.365-32.397 12.365-44.75 0-12.354-12.354-12.354-32.391 0-44.744l171.91-171.91-171.91-171.9c-12.354-12.359-12.354-32.394 0-44.748 12.354-12.359 32.391-12.359 44.75 0l194.29 194.28c6.177 6.18 9.262 14.271 9.262 22.366 0 8.099-3.091 16.196-9.267 22.373z" fill="#363636" fill-opacity=".66667"/>
</g>
</g>
</g>
</svg>
