<svg width="16" height="16" version="1.1" xmlns="http://www.w3.org/2000/svg">
<path d="m2.4922 2.8184-0.69727 0.7168 10.889 10.543 0.69531-0.71875-2.2695-2.1973c0.55297-0.74702 0.89063-1.6625 0.89062-2.6621 0-2.4829-2.0171-4.5-4.5-4.5-1.0519 0-2.0035 0.38001-2.7676 0.98828l-2.2402-2.1699zm4.9258 2.0508h0.0019531c0.022901-2.159e-4 0.045458-2.159e-4 0.068359 0h0.0058594c-0.56741 0.42388-0.95926 1.028-1.127 1.7012l-1.0352-1.002c0.57118-0.4218 1.2813-0.68378 2.0859-0.69922zm-3.8066 1.4082c-0.37763 0.65838-0.61133 1.4101-0.61133 2.2227 0 2.4829 2.0171 4.5 4.5 4.5 0.86448 0 1.6655-0.25614 2.3516-0.67969l-0.62109-0.60156c-1.5461 0.83096-3.6282 0.49705-4.7539-1.1543-0.80633-1.1828-0.80207-2.5718-0.24414-3.6836l-0.62109-0.60352zm7.2422 3.6328c-0.098906 0.23835-0.21914 0.458-0.35547 0.6582l-0.36328-0.34961c0.2509-0.071385 0.49235-0.17395 0.71875-0.30859z" color="#000000" fill="#666" opacity=".4"/>
<rect y="8" width="2" height="1" ry=".33898" fill="#666" opacity=".4"/>
<rect x="13" y="8" width="2" height="1" ry=".33898" fill="#666" opacity=".4"/>
<rect transform="rotate(-90)" x="-3" y="7" width="2" height="1" ry=".33898" fill="#666" opacity=".4"/>
<rect transform="rotate(-90)" x="-16" y="7" width="2" height="1" ry=".33898" fill="#666" opacity=".4"/>
<rect transform="matrix(.70711 -.70711 -.70711 -.70711 0 0)" x="4.7655" y="-12.167" width="2" height="1" ry=".33898" fill="#666" opacity=".4"/>
<rect transform="matrix(-.70711 .70711 .70711 .70711 0 0)" x="6.1834" y="10.549" width="2" height="1" ry=".33898" fill="#666" opacity=".4"/>
</svg>
