<svg width="128" height="128" version="1.1" viewBox="0 0 33.867 33.867" xmlns="http://www.w3.org/2000/svg">
<defs>
<linearGradient id="linearGradient897" x1="2686" x2="2686" y1="1088.8" y2="1770.4" gradientTransform="matrix(.042779 0 0 .042779 -95.919 -44.867)" gradientUnits="userSpaceOnUse"/>
<radialGradient id="radialGradient898" cx="60.636" cy="20.456" r="17.304" gradientTransform="translate(-43.433 -3.9449)" gradientUnits="userSpaceOnUse"/>
<radialGradient id="radialGradient993" cx="16.969" cy="4.4334" r="13.696" gradientTransform="matrix(4.8886 0 0 1.5421 -65.724 -.93385)" gradientUnits="userSpaceOnUse"/>
<linearGradient id="linearGradient891" x1="22.234" x2="22.655" y1="14.934" y2="23.007" gradientTransform="matrix(.86462 0 0 .86462 2.6074 3.1878)" gradientUnits="userSpaceOnUse"/>
</defs>
<g>
<circle cx="17.203" cy="16.512" r="17.304" fill="url(#radialGradient898)" opacity=".30973" stroke-linecap="square" stroke-linejoin="round" stroke-width="3"/>
<circle cx="17.203" cy="16.512" r="15.118" fill="url(#linearGradient897)" stroke="#b1aaaa" stroke-linecap="square" stroke-opacity=".99216" stroke-width=".057556"/>
<circle cx="17.203" cy="16.512" r="13.102" fill="url(#radialGradient993)"/>
<path d="m6.7839 11.842v7.5898h4.0479v-7.5898zm12.144 0-7.5898 7.5898h3.5419v4.5539h4.0479zm4.5539 0a4.0479 4.0479 0 0 0-4.0479 4.0479 4.0479 4.0479 0 0 0 4.0479 4.0479 4.0479 4.0479 0 0 0 4.0479-4.0479 4.0479 4.0479 0 0 0-4.0479-4.0479z" fill="url(#linearGradient891)" stroke-width=".50598"/>
</g>
</svg>
