<svg width="128" height="128" version="1.1" viewBox="0 0 33.867 33.867" xmlns="http://www.w3.org/2000/svg">
<defs>
<linearGradient id="linearGradient897" x1="2686" x2="2686" y1="1088.8" y2="1770.4" gradientTransform="matrix(.042779 0 0 .042779 -95.919 -44.867)" gradientUnits="userSpaceOnUse"/>
<radialGradient id="radialGradient898" cx="60.636" cy="20.456" r="17.304" gradientTransform="translate(-43.433 -3.9449)" gradientUnits="userSpaceOnUse"/>
<radialGradient id="radialGradient993" cx="16.968" cy="4.6709" r="13.696" gradientTransform="matrix(4.8886 0 0 1.5421 -65.724 -.93385)" gradientUnits="userSpaceOnUse"/>
<linearGradient id="linearGradient886" x1="13.364" x2="13.364" y1="13.921" y2="24.149" gradientTransform="translate(.2461 -.59327)" gradientUnits="userSpaceOnUse"/>
</defs>
<circle cx="17.203" cy="16.512" r="17.304" fill="url(#radialGradient898)" opacity=".30973" stroke-linecap="square" stroke-linejoin="round" stroke-width="3"/>
<circle cx="17.203" cy="16.512" r="15.118" fill="url(#linearGradient897)" stroke="#b1aaaa" stroke-linecap="square" stroke-opacity=".99216" stroke-width=".057556"/>
<circle cx="17.203" cy="16.512" r="13.102" fill="url(#radialGradient993)"/>
<g transform="translate(.2461 -.59327)" fill="#372a4c" fill-opacity=".10052" opacity=".33366" stroke-width="1.048">
<path d="m16.503 12.622c-2.0438-0.0044-3.6891 2.397-4.5205 5.0114-0.94213 2.9623-2.6347 4.035-4.2205 4.4426l10.665 4.75e-4 0.65866-1.2851-2.4561-0.03064c-2.161-0.18453-2.5915-2.3166-2.4659-2.9955 0.20773-1.3322 0.88645-3.4267 2.3389-5.1432zm0.78733 0-0.65867 1.2851 2.4561 0.03064c2.161 0.18453 2.5915 2.3166 2.4659 2.9955-0.20773 1.3322-0.88628 3.4267-2.3387 5.1432 2.0438 0.0044 3.6891-2.397 4.5205-5.0114 0.94213-2.9623 2.6347-4.0348 4.2204-4.4424z"/>
<path d="m16.566 13.086c-2.0438-0.0044-3.6891 2.397-4.5205 5.0114-0.94213 2.9623-2.6347 4.035-4.2205 4.4426l10.665 4.75e-4 0.65866-1.2851-2.4561-0.03064c-2.161-0.18453-2.5915-2.3166-2.4659-2.9955 0.20773-1.3322 0.88645-3.4267 2.3389-5.1432zm0.78733 0-0.65867 1.2851 2.4561 0.03064c2.161 0.18453 2.5915 2.3166 2.4659 2.9955-0.20773 1.3322-0.88628 3.4267-2.3387 5.1432 2.0438 0.0044 3.6891-2.397 4.5205-5.0114 0.94213-2.9623 2.6347-4.0348 4.2204-4.4424z"/>
<path d="m16.66 13.426c-2.0438-0.0044-3.6891 2.397-4.5205 5.0114-0.94213 2.9623-2.6347 4.035-4.2205 4.4426l10.665 4.75e-4 0.65866-1.2851-2.4561-0.03064c-2.161-0.18453-2.5915-2.3166-2.4659-2.9955 0.20773-1.3322 0.88645-3.4267 2.3389-5.1432zm0.78733 0-0.65867 1.2851 2.4561 0.03064c2.161 0.18453 2.5915 2.3166 2.4659 2.9955-0.20773 1.3322-0.88628 3.4267-2.3387 5.1432 2.0438 0.0044 3.6891-2.397 4.5205-5.0114 0.94213-2.9623 2.6347-4.0348 4.2204-4.4424z"/>
<path d="m17.066 13.875c-2.0438-0.0044-3.6891 2.397-4.5205 5.0114-0.94213 2.9623-2.6347 4.035-4.2205 4.4426l10.665 4.75e-4 0.65866-1.2851-2.4561-0.03064c-2.161-0.18453-2.5915-2.3166-2.4659-2.9955 0.20773-1.3322 0.88645-3.4267 2.3389-5.1432zm0.78733 0-0.65867 1.2851 2.4561 0.03064c2.161 0.18453 2.5915 2.3166 2.4659 2.9955-0.20773 1.3322-0.88628 3.4267-2.3387 5.1432 2.0438 0.0044 3.6891-2.397 4.5205-5.0114 0.94213-2.9623 2.6347-4.0348 4.2204-4.4424z"/>
<path d="m17.46 14.434c-2.0438-0.0044-3.6891 2.397-4.5205 5.0114-0.94213 2.9623-2.6347 4.035-4.2205 4.4426l10.665 4.75e-4 0.65866-1.2851-2.4561-0.03064c-2.161-0.18453-2.5915-2.3166-2.4659-2.9955 0.20773-1.3322 0.88645-3.4267 2.3389-5.1432zm0.78733 0-0.65867 1.2851 2.4561 0.03064c2.161 0.18453 2.5915 2.3166 2.4659 2.9955-0.20773 1.3322-0.88628 3.4267-2.3387 5.1432 2.0438 0.0044 3.6891-2.397 4.5205-5.0114 0.94213-2.9623 2.6347-4.0348 4.2204-4.4424z"/>
<path d="m18.118 14.921c-2.0438-0.0044-3.6891 2.397-4.5205 5.0114-0.94213 2.9623-2.6347 4.035-4.2205 4.4426l10.665 4.75e-4 0.65866-1.2851-2.4561-0.03064c-2.161-0.18453-2.5915-2.3166-2.4659-2.9955 0.20773-1.3322 0.88645-3.4267 2.3389-5.1432zm0.78733 0-0.65867 1.2851 2.4561 0.03064c2.161 0.18453 2.5915 2.3166 2.4659 2.9955-0.20773 1.3322-0.88628 3.4267-2.3387 5.1432 2.0438 0.0044 3.6891-2.397 4.5205-5.0114 0.94213-2.9623 2.6347-4.0348 4.2204-4.4424z"/>
</g>
<path d="m15.841 11.762c-2.0439-0.0044-3.6891 2.397-4.5205 5.0114-0.94213 2.9623-2.6347 4.035-4.2205 4.4426l10.665 4.75e-4 0.65866-1.2851-2.4561-0.03064c-2.161-0.18453-2.5915-2.3166-2.4659-2.9955 0.20773-1.3322 0.88645-3.4267 2.3389-5.1432zm0.78733 0-0.65867 1.2851 2.4561 0.03064c2.161 0.18453 2.5915 2.3166 2.4659 2.9955-0.20773 1.3322-0.88628 3.4267-2.3387 5.1432 2.0438 0.0044 3.6891-2.397 4.5205-5.0114 0.94213-2.9623 2.6347-4.0348 4.2204-4.4424z" fill="url(#linearGradient886)" stroke-width="1.048"/>
</svg>
