<svg width="128" height="128" version="1.1" viewBox="0 0 128 128" xmlns="http://www.w3.org/2000/svg">
<defs>
<linearGradient id="linearGradient825" x1="-741.83" x2="-741.83" y1="959.05" y2="93.836" gradientTransform="matrix(.13668 0 0 .13668 162.31 -5.9893)" gradientUnits="userSpaceOnUse"/>
<linearGradient id="linearGradient835" x1="-738.76" x2="-738.76" y1="931.43" y2="152.13" gradientTransform="matrix(.13668 0 0 .13668 162.31 -5.9893)" gradientUnits="userSpaceOnUse"/>
<linearGradient id="linearGradient843" x1="14.109" x2="14.109" y1="12.57" y2="27.52" gradientTransform="matrix(3.7795 0 0 3.7795 -.046853 -.077197)" gradientUnits="userSpaceOnUse"/>
</defs>
<circle cx="63.592" cy="64.286" r="61.38" fill="url(#linearGradient825)"/>
<circle cx="63.592" cy="64.286" r="55.09" fill="url(#linearGradient835)"/>
<image x="16.73" y="20.954" width="103" height="103" opacity=".235"/>
<path d="m72.643 27.125a6.1867 6.1867 0 0 0-4.1929 1.8086l-40.209 40.209a6.1867 6.1867 0 0 0 4.3775 10.563h34.023v15.465a6.1867 6.1867 0 1 0 12.372 0v-15.465h15.465a6.1867 6.1867 0 1 0 0-12.372h-15.465v-34.023a6.1867 6.1867 0 0 0-6.3706-6.186zm-6.0015 21.12v19.09h-19.09z" color="#000000" color-rendering="auto" dominant-baseline="auto" fill="url(#linearGradient843)" image-rendering="auto" shape-rendering="auto" solid-color="#000000" style="font-feature-settings:normal;font-variant-alternates:normal;font-variant-caps:normal;font-variant-ligatures:normal;font-variant-numeric:normal;font-variant-position:normal;isolation:auto;mix-blend-mode:normal;shape-padding:0;text-decoration-color:#000000;text-decoration-line:none;text-decoration-style:solid;text-indent:0;text-orientation:mixed;text-transform:none;white-space:normal"/>
</svg>
