<svg width="128" height="128" version="1.1" viewBox="0 0 128 128" xmlns="http://www.w3.org/2000/svg">
<defs>
<linearGradient id="linearGradient825" x1="-741.83" x2="-741.83" y1="959.05" y2="93.836" gradientTransform="matrix(.13668 0 0 .13668 162.31 -5.9893)" gradientUnits="userSpaceOnUse"/>
<linearGradient id="linearGradient835" x1="-738.76" x2="-738.76" y1="931.43" y2="152.13" gradientTransform="matrix(.13668 0 0 .13668 162.31 -5.9893)" gradientUnits="userSpaceOnUse"/>
<clipPath>
<rect width="384" height="384"/>
</clipPath>
<clipPath>
<rect width="384" height="384"/>
</clipPath>
<clipPath>
<rect width="384" height="384"/>
</clipPath>
<clipPath>
<rect width="384" height="384"/>
</clipPath>
<clipPath>
<rect width="384" height="384"/>
</clipPath>
<clipPath>
<rect width="384" height="384"/>
</clipPath>
<clipPath>
<rect width="384" height="384"/>
</clipPath>
<clipPath>
<rect width="384" height="384"/>
</clipPath>
<clipPath>
<rect width="384" height="384"/>
</clipPath>
<clipPath>
<rect width="384" height="384"/>
</clipPath>
<clipPath>
<rect width="384" height="384"/>
</clipPath>
<clipPath>
<rect width="384" height="384"/>
</clipPath>
<clipPath>
<rect width="384" height="384"/>
</clipPath>
<clipPath>
<rect width="384" height="384"/>
</clipPath>
<linearGradient id="linearGradient948" x1="122.34" x2="84.091" y1="117.04" y2="71.02" gradientTransform="translate(-833.29 -293.54)" gradientUnits="userSpaceOnUse"/>
<clipPath>
<rect width="384" height="384"/>
</clipPath>
<clipPath>
<rect width="384" height="384"/>
</clipPath>
<linearGradient id="linearGradient1194" x1="122.34" x2="84.091" y1="117.04" y2="71.02" gradientTransform="translate(-988.32 -283.8)" gradientUnits="userSpaceOnUse"/>
<clipPath>
<rect width="384" height="384"/>
</clipPath>
<clipPath>
<rect width="384" height="384"/>
</clipPath>
<clipPath>
<rect width="384" height="384"/>
</clipPath>
<clipPath>
<rect width="384" height="384"/>
</clipPath>
<clipPath>
<rect width="384" height="384"/>
</clipPath>
<clipPath>
<rect width="384" height="384"/>
</clipPath>
<clipPath>
<rect width="384" height="384"/>
</clipPath>
<clipPath>
<rect width="384" height="384"/>
</clipPath>
<linearGradient id="linearGradient980" x1="-23.078" x2="-23.078" y1="20.654" y2="19.144" gradientTransform="translate(39.693 -2.3347)" gradientUnits="userSpaceOnUse"/>
<linearGradient id="linearGradient1008" x1="-13.189" x2="-13.189" y1="26.464" y2="19.188" gradientTransform="translate(30.434 -.097557)" gradientUnits="userSpaceOnUse"/>
</defs>
<circle cx="63.592" cy="64.286" r="61.38" fill="url(#linearGradient825)"/>
<circle cx="63.592" cy="64.286" r="55.09" fill="url(#linearGradient835)"/>
<style><![CDATA[.B{clip-path:url(#C)}.C{fill:#3e2723}.D{fill-opacity:.15}.E{fill-opacity:.2}]]></style>
<style><![CDATA[.B{clip-path:url(#C)}.C{fill:#3e2723}.D{fill-opacity:.15}.E{fill-opacity:.2}]]></style>
<style><![CDATA[.B{clip-path:url(#C)}.C{fill:#3e2723}.D{fill-opacity:.15}.E{fill-opacity:.2}]]></style>
<style><![CDATA[.B{clip-path:url(#C)}.C{fill:#3e2723}.D{fill-opacity:.15}.E{fill-opacity:.2}]]></style>
<style><![CDATA[.B{clip-path:url(#C)}.C{fill:#3e2723}.D{fill-opacity:.15}.E{fill-opacity:.2}]]></style>
<style><![CDATA[.B{clip-path:url(#C)}.C{fill:#3e2723}.D{fill-opacity:.15}.E{fill-opacity:.2}]]></style>
<style><![CDATA[.B{clip-path:url(#C)}.C{fill:#3e2723}.D{fill-opacity:.15}.E{fill-opacity:.2}]]></style>
<style><![CDATA[.B{clip-path:url(#C)}.C{fill:#3e2723}.D{fill-opacity:.15}.E{fill-opacity:.2}]]></style>
<style><![CDATA[.B{clip-path:url(#C)}.C{fill:#3e2723}.D{fill-opacity:.15}.E{fill-opacity:.2}]]></style>
<style><![CDATA[.B{clip-path:url(#C)}.C{fill:#3e2723}.D{fill-opacity:.15}.E{fill-opacity:.2}]]></style>
<style><![CDATA[.B{clip-path:url(#C)}.C{fill:#3e2723}.D{fill-opacity:.15}.E{fill-opacity:.2}]]></style>
<style><![CDATA[.B{clip-path:url(#C)}.C{fill:#3e2723}.D{fill-opacity:.15}.E{fill-opacity:.2}]]></style>
<style><![CDATA[.B{clip-path:url(#C)}.C{fill:#3e2723}.D{fill-opacity:.15}.E{fill-opacity:.2}]]></style>
<g transform="matrix(3.7795 0 0 3.7795 -2.3316 -.59545)">
<image transform="matrix(.26458 0 0 .26458 6.8792 8.7312)" width="77" height="46"/>
<g transform="translate(23.372 -4.5945)">
<path d="m-12.683 14.521c-0.58793 0-1.0355 0.47356-1.0614 1.0609l-0.23409 5.2984c-0.02299 0.5202 0.08691 0.67438 0.57361 0.67438h14.393c0.4867 0 0.59661-0.15418 0.57361-0.67438l-0.2341-5.2984c-0.02597-0.58736-0.4735-1.0609-1.0614-1.0609z" fill="#fff" fill-rule="evenodd"/>
<image x="-13.905" y="14.57" width="15.346" height="6.8792" opacity=".661"/>
</g>
<rect x="8.9614" y="17.416" width="16.404" height=".76451" rx=".38226" ry=".38226" fill="url(#linearGradient980)" fill-rule="evenodd"/>
<image transform="matrix(.26458 0 0 .26458 12.435 17.462)" width="36" height="37"/>
<path d="m17.164 18.484c-0.24132 0-0.43563 0.19431-0.43563 0.43563v6.3888c2.14e-4 0.0033 3.97e-4 0.0065 5.29e-4 0.0098 2.7e-5 0.21378-0.17328 0.38708-0.38706 0.38706h-2.6629c-0.24132 0-0.43563 0.19431-0.43563 0.43563 0 0.24132 0.19432 0.43563 0.43563 0.43563h6.9696c0.24132 0 0.43563-0.19431 0.43563-0.43563 0-0.24132-0.19431-0.43563-0.43563-0.43563h-2.6624c-0.21378 2.7e-5 -0.38708-0.17328-0.38706-0.38706 9.5e-5 -0.0045 2.65e-4 -9e-3 5.29e-4 -0.01344v-6.3851c0-0.24132-0.19431-0.43563-0.43563-0.43563z" fill="url(#linearGradient1008)" fill-rule="evenodd"/>
</g>
</svg>
