<svg width="128" height="128" version="1.1" viewBox="0 0 33.867 33.867" xmlns="http://www.w3.org/2000/svg">
<defs>
<linearGradient id="linearGradient912" x1="132.21" x2="132.21" y1="42.152" y2="70.68" gradientTransform="matrix(.97573 0 0 .97573 -111.89 -37.234)" gradientUnits="userSpaceOnUse"/>
<linearGradient id="linearGradient1070" x1="11.644" x2="18.677" y1="16.301" y2="16.301" gradientUnits="userSpaceOnUse"/>
<linearGradient id="linearGradient1080" x1="12.651" x2="15.52" y1="10.85" y2="15.361" gradientUnits="userSpaceOnUse"/>
<linearGradient id="linearGradient1088" x1="14.921" x2="13.759" y1="18.404" y2="22.211" gradientUnits="userSpaceOnUse"/>
<linearGradient id="linearGradient1117" x1="11.64" x2="24.367" y1="16.301" y2="16.301" gradientUnits="userSpaceOnUse"/>
<linearGradient id="linearGradient1012" x1="27.756" x2="27.756" y1="23.969" y2="22.332" gradientUnits="userSpaceOnUse"/>
<linearGradient id="linearGradient1153" x1="38.364" x2="39.951" y1="15.17" y2="15.17" gradientTransform="matrix(3.775 0 0 3.775 -121.15 -30.801)" gradientUnits="userSpaceOnUse"/>
<radialGradient id="radialGradient3771-9" cx="24.249" cy="24.25" r="9.6332" gradientTransform="matrix(.90099 0 0 .90099 3.0284 2.9757)" gradientUnits="userSpaceOnUse"/>
<radialGradient id="radialGradient3815-1" cx="24.249" cy="24.25" r="9.6332" gradientTransform="matrix(1.0025 0 0 1.0025 -.10157 -.1047)" gradientUnits="userSpaceOnUse"/>
<linearGradient id="linearGradient1359" x1="28.106" x2="24.258" y1="28.512" y2="18.759" gradientUnits="userSpaceOnUse"/>
<linearGradient id="linearGradient1367" x1="23.698" x2="27.001" y1="21.332" y2="27.42" gradientUnits="userSpaceOnUse"/>
</defs>
<g transform="matrix(.97573 0 0 .97573 -65.83 -36.915)" fill="none" opacity=".13962" stroke="#000" stroke-linecap="round" stroke-linejoin="round" stroke-opacity=".02">
<rect x="69.84" y="40.71" width="29.811" height="29.811" rx="6.6099" ry="6.6099" stroke-width=".1"/>
<rect x="69.84" y="40.71" width="29.811" height="29.811" rx="6.6099" ry="6.6099" stroke-width=".2"/>
<rect x="69.84" y="40.71" width="29.811" height="29.811" rx="6.6099" ry="6.6099" stroke-width=".3"/>
<rect x="69.84" y="40.71" width="29.811" height="29.811" rx="6.6099" ry="6.6099" stroke-width=".4"/>
<rect x="69.84" y="40.71" width="29.811" height="29.811" rx="6.6099" ry="6.6099" stroke-width=".5"/>
<rect x="69.84" y="40.71" width="29.811" height="29.811" rx="6.6099" ry="6.6099" stroke-width=".6"/>
<rect x="69.84" y="40.71" width="29.811" height="29.811" rx="6.6099" ry="6.6099" stroke-width=".7"/>
<rect x="69.84" y="40.71" width="29.811" height="29.811" rx="6.6099" ry="6.6099" stroke-width=".8"/>
<rect x="69.84" y="40.71" width="29.811" height="29.811" rx="6.6099" ry="6.6099"/>
<rect x="69.84" y="40.71" width="29.811" height="29.811" rx="6.6099" ry="6.6099" stroke-width="1.2"/>
<rect x="69.84" y="40.71" width="29.811" height="29.811" rx="6.6099" ry="6.6099" stroke-width="1.4"/>
<rect x="69.84" y="40.71" width="29.811" height="29.811" rx="6.6099" ry="6.6099" stroke-width="1.6"/>
<rect x="69.84" y="40.71" width="29.811" height="29.811" rx="6.6099" ry="6.6099" stroke-width="1.8"/>
<rect x="69.84" y="40.71" width="29.811" height="29.811" rx="6.6099" ry="6.6099" stroke-width="2"/>
<rect x="69.84" y="40.71" width="29.811" height="29.811" rx="6.6099" ry="6.6099" stroke-width="2.2"/>
<rect x="69.84" y="40.71" width="29.811" height="29.811" rx="6.6099" ry="6.6099" stroke-width="2.6"/>
<rect x="69.84" y="40.71" width="29.811" height="29.811" rx="6.6099" ry="6.6099" stroke-width="3"/>
<rect x="69.84" y="40.71" width="29.811" height="29.811" rx="6.6099" ry="6.6099" stroke-width="3.4"/>
<rect x="69.84" y="40.71" width="29.811" height="29.811" rx="6.6099" ry="6.6099" stroke-width="3.8"/>
<rect x="69.84" y="40.71" width="29.811" height="29.811" rx="6.6099" ry="6.6099" stroke-width="4.2"/>
<rect x="69.84" y="40.71" width="29.811" height="29.811" rx="6.6099" ry="6.6099" stroke-width="4.6"/>
<rect x="69.84" y="40.71" width="29.811" height="29.811" rx="6.6099" ry="6.6099" stroke-width="5"/>
</g>
<rect x="2.2835" y="2.4875" width="29.087" height="29.087" rx="6.4495" ry="6.4495" fill="url(#linearGradient912)" stroke-linecap="round" stroke-linejoin="round" stroke-width="2.6877"/>
<image x="10.054" y="7.6729" width="17.727" height="19.315" opacity=".41952"/>
<path d="m12.959 9.1508c-0.72405-0.014103-1.3185 0.56919-1.3181 1.2934v11.711c-1e-3 0.99589 1.0769 1.619 1.9394 1.121l10.143-5.8576c0.85959-0.4981 0.85959-1.7393 0-2.2374l-10.143-5.8583c-0.18928-0.10877-0.40303-0.16783-0.6213-0.17169z" color="#000000" color-rendering="auto" dominant-baseline="auto" fill="url(#linearGradient1117)" image-rendering="auto" shape-rendering="auto" solid-color="#000000" stop-color="#000000" style="font-feature-settings:normal;font-variant-alternates:normal;font-variant-caps:normal;font-variant-east-asian:normal;font-variant-ligatures:normal;font-variant-numeric:normal;font-variant-position:normal;font-variation-settings:normal;inline-size:0;isolation:auto;mix-blend-mode:normal;paint-order:stroke markers fill;shape-margin:0;shape-padding:0;text-decoration-color:#000000;text-decoration-line:none;text-decoration-style:solid;text-indent:0;text-orientation:mixed;text-transform:none;white-space:normal"/>
<path d="m12.959 9.1508c-0.72405-0.014103-1.3185 0.56919-1.3181 1.2934v11.711c-1e-3 0.99589 1.0769 1.619 1.9394 1.121l5.0713-2.9288-5.0713-11.024c-0.18928-0.10877-0.40303-0.16783-0.6213-0.17169z" color="#000000" color-rendering="auto" dominant-baseline="auto" fill="url(#linearGradient1088)" image-rendering="auto" shape-rendering="auto" solid-color="#000000" stop-color="#000000" style="font-feature-settings:normal;font-variant-alternates:normal;font-variant-caps:normal;font-variant-east-asian:normal;font-variant-ligatures:normal;font-variant-numeric:normal;font-variant-position:normal;font-variation-settings:normal;inline-size:0;isolation:auto;mix-blend-mode:normal;paint-order:stroke markers fill;shape-margin:0;shape-padding:0;text-decoration-color:#000000;text-decoration-line:none;text-decoration-style:solid;text-indent:0;text-orientation:mixed;text-transform:none;white-space:normal"/>
<path d="m12.959 9.1508c-0.72405-0.014103-1.3185 0.56919-1.3181 1.2934v5.8553l7.0107-4.0478-5.0713-2.9291c-0.18928-0.10877-0.40303-0.16783-0.6213-0.17169z" color="#000000" color-rendering="auto" dominant-baseline="auto" fill="url(#linearGradient1080)" image-rendering="auto" shape-rendering="auto" solid-color="#000000" stop-color="#000000" style="font-feature-settings:normal;font-variant-alternates:normal;font-variant-caps:normal;font-variant-east-asian:normal;font-variant-ligatures:normal;font-variant-numeric:normal;font-variant-position:normal;font-variation-settings:normal;inline-size:0;isolation:auto;mix-blend-mode:normal;paint-order:stroke markers fill;shape-margin:0;shape-padding:0;text-decoration-color:#000000;text-decoration-line:none;text-decoration-style:solid;text-indent:0;text-orientation:mixed;text-transform:none;white-space:normal"/>
<image transform="matrix(.26458 0 0 .26458 10.054 7.6729)" width="59" height="64" opacity=".46589"/>
<path d="m11.644 16.301 7.0329-4.0605v8.1209z" fill="url(#linearGradient1070)" style="paint-order:stroke markers fill"/>
<g transform="translate(.63229 -.30569)">
<g transform="translate(-1.2921 1.2876)" fill-rule="evenodd">
<circle cx="27.436" cy="22.975" r="1.1509" fill="#fff" fill-opacity=".47826"/>
<g transform="translate(-.10858 -.025057)">
<circle cx="27.545" cy="23" r=".99219" fill="url(#linearGradient1012)"/>
<path d="m27.032 22.55c-0.03216 0.03216-0.03159 0.08395 5.6e-4 0.11611l0.33332 0.33332-0.33332 0.33333c-0.03216 0.03216-0.03272 0.08395-5.6e-4 0.11611l0.06334 0.06334c0.03216 0.03216 0.08451 0.03216 0.11667 0l0.33332-0.33332 0.33332 0.33332c0.03216 0.03216 0.08339 0.03216 0.11555 0l0.06334-0.06334c0.03216-0.03216 0.03272-0.08395 5.6e-4 -0.11611l-0.33332-0.33332 0.33332-0.33332c0.03216-0.03216 0.03159-0.08395-5.6e-4 -0.11611l-0.06334-0.06334c-0.03216-0.03216-0.08339-0.03216-0.11555 0l-0.33332 0.33332-0.33332-0.33332c-0.03216-0.03216-0.08451-0.03216-0.11667 0z" fill="#646464"/>
</g>
</g>
<path d="m23.671 22.808v4.994a2.9963 2.3234 0 0 0 2.9963 2.3233 2.9963 2.3234 0 0 0 2.9964-2.3233v-4.994z" fill="#797a7a" stroke-width="3.775"/>
<path d="m23.671 22.808v4.994a2.9963 2.3234 0 0 0 2.9963 2.3233 2.9963 2.3234 0 0 0 2.9964-2.3233v-4.994z" fill="url(#linearGradient1153)" stroke-width="3.775"/>
</g>
<g transform="matrix(3.6128 0 0 3.3645 -111.6 -26.184)">
<g transform="matrix(.05375 0 0 .044041 31.743 9.0969)" fill="#233242">
<circle cx="132.52" cy="121.26" r="3.2659" fill="#233242" style="paint-order:fill markers stroke"/>
</g>
<g transform="matrix(.051852 0 0 .038807 31.995 9.7217)" fill="#c2dfea">
<circle cx="132.52" cy="121.26" r="3.2659" fill="#c2dfea" style="paint-order:fill markers stroke"/>
</g>
<path d="m38.87 14.332a0.018949 0.082758 2.5757 0 0-0.02016 0.05529 0.10469 0.018949 23.938 0 0-0.07906-0.01498 0.10469 0.018949 23.938 0 0 0.05219 0.04289 0.018949 0.10469 66.062 0 0-0.05219 0.04237 0.018949 0.10469 66.062 0 0 0.07648-0.01447 0.018949 0.082758 2.5757 0 0 0.01499 0.05426 0.018949 0.082758 2.5757 0 0 0.02067-0.05478 0.10469 0.018949 23.938 0 0 0.07906 0.01499 0.10469 0.018949 23.938 0 0-0.05219-0.04237 0.018949 0.10469 66.062 0 0 0.05219-0.04289 0.018949 0.10469 66.062 0 0-0.077 0.01447 0.018949 0.082758 2.5757 0 0-0.01499-0.05478z" fill="#1a1c20"/>
</g>
<path d="m24.877 16.145a8.6794 8.6794 0 0 0-8.6793 8.6793 8.6794 8.6794 0 0 0 8.6793 8.6795 8.6794 8.6794 0 0 0 8.6795-8.6795 8.6794 8.6794 0 0 0-8.6795-8.6793z" fill="url(#radialGradient3771-9)" stroke-width="2.0503"/>
<path d="m24.208 14.549a9.6575 9.6575 0 0 0-9.6573 9.6573 9.6575 9.6575 0 0 0 9.6573 9.6575 9.6575 9.6575 0 0 0 9.6575-9.6575 9.6575 9.6575 0 0 0-9.6575-9.6573z" fill="url(#radialGradient3815-1)" opacity=".172" stroke-width="2.2813"/>
<path d="m32.567 24.194a7.6912 7.6912 0 0 1-7.6912 7.6912 7.6912 7.6912 0 0 1-7.6912-7.6912 7.6912 7.6912 0 0 1 7.6912-7.6912 7.6912 7.6912 0 0 1 7.6912 7.6912z" fill="url(#linearGradient1359)" stroke-width="1.938"/>
<path d="m26.915 22.211c0.19051-0.03842 0.2801 0.02686 0.283 0.24177l5e-3 2.6399c-0.01466 0.31219-0.04496 0.45516-0.4041 0.51262-1.271 0.18918-1.5213 0.61142-1.5136 1.1711 0.0077 0.55738 0.46656 0.97536 1.0893 0.9126 0.5461-0.06074 0.93888-0.20178 1.1889-0.70686 0.09678-0.19024 0.10476-0.56828 0.11285-0.97597l-0.0035-5.4051c-1.58e-4 -0.304-0.05189-0.43897-0.27237-0.44339h1.5e-5c-0.07349-0.0015-0.16574 0.0117-0.28105 0.03776l-3.9894 0.79844c-0.32256 0.06895-0.38502 0.2491-0.37741 0.53367l5e-3 4.4419c-0.01466 0.31219-0.04843 0.48359-0.40758 0.54105-1.271 0.18918-1.5178 0.58277-1.5101 1.1424 0.0077 0.55738 0.4594 1.004 1.0821 0.94125 0.5461-0.06074 0.95299-0.21979 1.203-0.72487 0.09678-0.19024 0.12963-0.58581 0.10569-0.98639l-5e-3 -3.5334c1e-3 -0.24734-0.04086-0.38496 0.28691-0.45294z" fill="url(#linearGradient1367)"/>
</svg>
