<svg width="128" height="128" version="1.1" viewBox="0 0 33.867 33.867" xmlns="http://www.w3.org/2000/svg">
<defs>
<linearGradient id="linearGradient2134" x1="17.016" x2="17.016" y1="3.2937" y2="8.9837" gradientTransform="translate(.089581 262.96)" gradientUnits="userSpaceOnUse"/>
<linearGradient id="linearGradient929" x1="18.593" x2="18.593" y1="289.28" y2="270.52" gradientUnits="userSpaceOnUse"/>
<linearGradient id="linearGradient931" x1="17.796" x2="17.796" y1="30.659" y2="8.9701" gradientTransform="translate(.089581 262.96)" gradientUnits="userSpaceOnUse"/>
</defs>
<g transform="translate(0 -263.13)">
<image x="-.0057709" y="263.06" width="33.867" height="33.867" preserveAspectRatio="none"/>
<rect x="2.3838" y="265.45" width="29.087" height="29.087" rx="6.4495" ry="6.4495" fill="url(#linearGradient931)" stroke-linecap="round" stroke-linejoin="round" stroke-width="2.6877"/>
<path d="m8.8333 265.45h16.189c3.573 0 6.4495 2.8765 6.4495 6.4495h-29.087c0-3.573 2.8765-6.4495 6.4495-6.4495z" fill="url(#linearGradient2134)" stroke-linecap="round" stroke-linejoin="round" stroke-width="2.6877"/>
<g transform="matrix(.90705 .0036414 -.0036414 .90705 41.823 31.783)">
<circle cx="-38.526" cy="261.91" r="1.336" fill="#ff295f" style="paint-order:fill markers stroke"/>
<circle cx="-34.572" cy="261.91" r="1.336" fill="#f89c22" style="paint-order:fill markers stroke"/>
<circle cx="-30.619" cy="261.91" r="1.336" fill="#2ecc9a" style="paint-order:fill markers stroke"/>
<path transform="matrix(.26458 0 0 .26458 0 263.13)" d="m-150.61-5.2949a5.0494 5.0494 0 0 0-0.0508 0.66992 5.0494 5.0494 0 0 0 5.0488 5.0508 5.0494 5.0494 0 0 0 5.0508-5.0508 5.0494 5.0494 0 0 0-0.0508-0.66602 5.0494 5.0494 0 0 1-5 4.377 5.0494 5.0494 0 0 1-4.998-4.3809z" fill="#e6175d" fill-opacity=".80303" style="paint-order:fill markers stroke"/>
<path transform="matrix(.26458 0 0 .26458 0 263.13)" d="m-145.61-9.6738a5.0494 5.0494 0 0 0-5.0488 5.0488 5.0494 5.0494 0 0 0 0.0586 0.72656 5.0494 5.0494 0 0 1 4.9902-4.332 5.0494 5.0494 0 0 1 4.9922 4.3242 5.0494 5.0494 0 0 0 0.0586-0.71875 5.0494 5.0494 0 0 0-5.0508-5.0488z" fill="#ff6b5b" fill-opacity=".39773" style="paint-order:fill markers stroke"/>
<path transform="matrix(.26458 0 0 .26458 0 263.13)" d="m-125.67-5.3184a5.0494 5.0494 0 0 1-4.9941 4.3594 5.0494 5.0494 0 0 1-4.9961-4.3574 5.0494 5.0494 0 0 0-0.0547 0.69141 5.0494 5.0494 0 0 0 5.0508 5.0508 5.0494 5.0494 0 0 0 5.0488-5.0508 5.0494 5.0494 0 0 0-0.0547-0.69336z" fill="#ec8a07" style="paint-order:fill markers stroke"/>
<path transform="matrix(.26458 0 0 .26458 0 263.13)" d="m-130.67-9.6738a5.0494 5.0494 0 0 0-5.0508 5.0488 5.0494 5.0494 0 0 0 0.0449 0.61133 5.0494 5.0494 0 0 1 5.0059-4.4219 5.0494 5.0494 0 0 1 5.0059 4.4355 5.0494 5.0494 0 0 0 0.043-0.625 5.0494 5.0494 0 0 0-5.0488-5.0488z" fill="#f9aa42" fill-opacity=".85145" style="paint-order:fill markers stroke"/>
<path transform="matrix(.26458 0 0 .26458 0 263.13)" d="m-110.72-5.2969a5.0494 5.0494 0 0 1-5 4.3828 5.0494 5.0494 0 0 1-5-4.3789 5.0494 5.0494 0 0 0-0.0488 0.66797 5.0494 5.0494 0 0 0 5.0488 5.0508 5.0494 5.0494 0 0 0 5.0488-5.0508 5.0494 5.0494 0 0 0-0.0488-0.67188z" fill="#27ae85" style="paint-order:fill markers stroke"/>
<path transform="matrix(.26458 0 0 .26458 0 263.13)" d="m-115.72-9.6738a5.0494 5.0494 0 0 0-5.0488 5.0488 5.0494 5.0494 0 0 0 0.0488 0.67188 5.0494 5.0494 0 0 1 5-4.3809 5.0494 5.0494 0 0 1 5 4.377 5.0494 5.0494 0 0 0 0.0488-0.66797 5.0494 5.0494 0 0 0-5.0488-5.0488z" fill="#50d8b5" fill-opacity=".77536" style="paint-order:fill markers stroke"/>
</g>
<g transform="matrix(.98653 .0039605 -.0039605 .98653 47.071 11.142)" fill="none" stroke="#000" stroke-linecap="round" stroke-linejoin="round" stroke-opacity=".064394">
<rect x="-27.81" y="260.42" width="10.47" height="2.603" rx="1.3015" ry="1.3015" stroke-width=".1" style="paint-order:fill markers stroke"/>
<rect x="-27.81" y="260.42" width="10.47" height="2.603" rx="1.3015" ry="1.3015" stroke-width=".2" style="paint-order:fill markers stroke"/>
<rect x="-27.81" y="260.42" width="10.47" height="2.603" rx="1.3015" ry="1.3015" stroke-width=".3" style="paint-order:fill markers stroke"/>
</g>
<rect transform="rotate(.23002)" x="19.679" y="267.87" width="10.329" height="2.568" rx="1.284" ry="1.284" fill="#fff" fill-opacity=".85145" style="paint-order:fill markers stroke"/>
<path d="m28.548 270.18c-0.11651 0.11557-0.25515 0.20882-0.40912 0.27301-0.15397 0.0642-0.32328 0.0993-0.50111 0.0986l-7.7609-0.0312c-0.17782-7.4e-4 -0.34685-0.0372-0.5003-0.10261-0.15345-0.0654-0.29135-0.15978-0.40692-0.27629 0.38552 0.069 0.79866 0.17434 1.2383 0.17553l7.0471 0.0194c0.46861 1e-3 0.90181-0.0962 1.293-0.1562z" fill="#ccc" fill-opacity=".85145" style="paint-order:fill markers stroke"/>
<path d="m15.782 274.76v9.3062h-3.9184l2.9388-8.3266h-2.9388l-2.9388 8.3266v2.449h6.8572v4.898h2.9388v-4.898h1.4694s5.3878 0 5.3878-6.8572c0-4.898-5.3878-4.898-5.3878-4.898h-1.4694zm2.9388 2.449h1.4694s2.449 0 2.449 2.449c0 4.4082-2.449 4.4082-2.449 4.4082h-1.4694z" fill="url(#linearGradient929)" stroke-width=".4898"/>
</g>
</svg>
