<svg width="128" height="128" version="1.1" viewBox="0 0 33.867 33.867" xmlns="http://www.w3.org/2000/svg">
<defs>
<linearGradient id="linearGradient1441" x1="16.61" x2="16.61" y1="30.626" y2="3.4048" gradientTransform="translate(-.018709 -.049892)" gradientUnits="userSpaceOnUse"/>
<linearGradient id="linearGradient867" x1="18.482" x2="18.482" y1="12.113" y2="38.192" gradientUnits="userSpaceOnUse"/>
</defs>
<g transform="matrix(.97573 0 0 .97573 -65.767 -37.253)" fill="none" opacity=".29676" stroke="#000" stroke-linecap="round" stroke-linejoin="round" stroke-opacity=".02">
<rect x="69.84" y="40.71" width="29.811" height="29.811" rx="6.6099" ry="6.6099" stroke-width=".1"/>
<rect x="69.84" y="40.71" width="29.811" height="29.811" rx="6.6099" ry="6.6099" stroke-width=".2"/>
<rect x="69.84" y="40.71" width="29.811" height="29.811" rx="6.6099" ry="6.6099" stroke-width=".3"/>
<rect x="69.84" y="40.71" width="29.811" height="29.811" rx="6.6099" ry="6.6099" stroke-width=".4"/>
<rect x="69.84" y="40.71" width="29.811" height="29.811" rx="6.6099" ry="6.6099" stroke-width=".5"/>
<rect x="69.84" y="40.71" width="29.811" height="29.811" rx="6.6099" ry="6.6099" stroke-width=".6"/>
<rect x="69.84" y="40.71" width="29.811" height="29.811" rx="6.6099" ry="6.6099" stroke-width=".7"/>
<rect x="69.84" y="40.71" width="29.811" height="29.811" rx="6.6099" ry="6.6099" stroke-width=".8"/>
<rect x="69.84" y="40.71" width="29.811" height="29.811" rx="6.6099" ry="6.6099"/>
<rect x="69.84" y="40.71" width="29.811" height="29.811" rx="6.6099" ry="6.6099" stroke-width="1.2"/>
<rect x="69.84" y="40.71" width="29.811" height="29.811" rx="6.6099" ry="6.6099" stroke-width="1.4"/>
<rect x="69.84" y="40.71" width="29.811" height="29.811" rx="6.6099" ry="6.6099" stroke-width="1.6"/>
<rect x="69.84" y="40.71" width="29.811" height="29.811" rx="6.6099" ry="6.6099" stroke-width="1.8"/>
<rect x="69.84" y="40.71" width="29.811" height="29.811" rx="6.6099" ry="6.6099" stroke-width="2"/>
<rect x="69.84" y="40.71" width="29.811" height="29.811" rx="6.6099" ry="6.6099" stroke-width="2.2"/>
<rect x="69.84" y="40.71" width="29.811" height="29.811" rx="6.6099" ry="6.6099" stroke-width="2.6"/>
<rect x="69.84" y="40.71" width="29.811" height="29.811" rx="6.6099" ry="6.6099" stroke-width="3"/>
<rect x="69.84" y="40.71" width="29.811" height="29.811" rx="6.6099" ry="6.6099" stroke-width="3.4"/>
<rect x="69.84" y="40.71" width="29.811" height="29.811" rx="6.6099" ry="6.6099" stroke-width="3.8"/>
<rect x="69.84" y="40.71" width="29.811" height="29.811" rx="6.6099" ry="6.6099" stroke-width="4.2"/>
<rect x="69.84" y="40.71" width="29.811" height="29.811" rx="6.6099" ry="6.6099" stroke-width="4.6"/>
<rect x="69.84" y="40.71" width="29.811" height="29.811" rx="6.6099" ry="6.6099" stroke-width="5"/>
</g>
<rect x="2.3776" y="2.4687" width="29.087" height="29.087" rx="6.4495" ry="6.4495" fill="url(#linearGradient1441)" stroke-linecap="round" stroke-linejoin="round" stroke-width="2.6877"/>
<image x="5.273" y="3.6543" width="23.019" height="24.342" opacity=".346"/>
<path d="m16.863 7.586c-4.7483 0-8.6445 3.1112-8.6445 6.9483 0 1.8841 0.94014 3.5923 2.4655 4.8438l0.90165 2.001v0.30659c0 1.1236 1.6705 2.3109 2.5906 3.2183 0.92014 0.90746 1.0899 1.5348 2.4999 1.5348h0.49164c1.41 0 1.7539-0.62732 2.6741-1.5348 0.92014-0.90746 2.4165-2.0948 2.4165-3.2183v-0.55695l0.78554-1.66c1.5925-1.2591 2.5798-3.0039 2.5798-4.9345 0-3.8371-3.8963-6.9483-8.7026-6.9483zm-3.6955 10.54c1.1378-0.05079 2.8897 1.4759 2.5253 2.7884-0.39587 0.71161-1.6536 0.84157-2.5435 0.34651-0.84105-0.49502-1.5281-2.4907-0.09071-3.124 0.03533-5e-3 0.07214-0.0092 0.10885-0.01087zm7.5977 0c0.07579-0.0032 0.14885 9.79e-4 0.16146 0.01087 1.4954 0.63329 0.80839 2.629-0.03266 3.124-0.88991 0.49506-2.1476 0.3651-2.5435-0.34651-0.35264-1.2701 1.2779-2.7408 2.4147-2.7884z" fill="url(#linearGradient867)" fill-rule="evenodd" stroke-width=".64818"/>
</svg>
