<svg width="128" height="128" version="1.1" viewBox="0 0 33.867 33.867" xmlns="http://www.w3.org/2000/svg">
<defs>
<linearGradient id="linearGradient2134" x1="17.016" x2="17.016" y1="3.2937" y2="8.9837" gradientTransform="translate(.089581 262.96)" gradientUnits="userSpaceOnUse"/>
<linearGradient id="linearGradient931" x1="17.796" x2="17.796" y1="30.659" y2="8.9701" gradientTransform="translate(.089581 262.96)" gradientUnits="userSpaceOnUse"/>
<radialGradient id="radialGradient941" cx="25.067" cy="278.9" r="2.667" gradientTransform="translate(0 -.00012464)" gradientUnits="userSpaceOnUse"/>
<radialGradient id="radialGradient955" cx="20.326" cy="284.33" r="2.667" gradientTransform="matrix(.9824 -5.7673e-7 1.7514e-7 .70581 .3748 82.758)" gradientUnits="userSpaceOnUse"/>
<radialGradient id="radialGradient967" cx="16.919" cy="288.78" r="2.667" gradientTransform="matrix(1.1517 0 0 1.116 -2.5734 -33.479)" gradientUnits="userSpaceOnUse"/>
<radialGradient id="radialGradient3771-9" cx="24.249" cy="24.25" r="9.6332" gradientTransform="matrix(.90099 0 0 .90099 3.2883 266.43)" gradientUnits="userSpaceOnUse"/>
<linearGradient id="linearGradient1112" x1="20.886" x2="29.962" y1="282.74" y2="294.47" gradientUnits="userSpaceOnUse"/>
<linearGradient id="linearGradient1120" x1="25.557" x2="25.557" y1="283.21" y2="292.18" gradientUnits="userSpaceOnUse"/>
<linearGradient id="linearGradient1128" x1="12.665" x2="12.665" y1="277.78" y2="279.94" gradientUnits="userSpaceOnUse"/>
<linearGradient id="linearGradient1136" x1="22.232" x2="22.232" y1="277.75" y2="279.27" gradientUnits="userSpaceOnUse"/>
<linearGradient id="linearGradient1144" x1="13.495" x2="13.495" y1="282.41" y2="283.89" gradientUnits="userSpaceOnUse"/>
<linearGradient id="linearGradient1154" x1="17.294" x2="17.294" y1="282.44" y2="283.81" gradientUnits="userSpaceOnUse"/>
<linearGradient id="linearGradient1162" x1="9.6875" x2="9.6875" y1="287.13" y2="288.57" gradientUnits="userSpaceOnUse"/>
<linearGradient id="linearGradient1170" x1="13.797" x2="13.797" y1="287.1" y2="288.58" gradientUnits="userSpaceOnUse"/>
</defs>
<g transform="translate(0 -263.13)">
<image x="-.0057709" y="263.06" width="33.867" height="33.867" preserveAspectRatio="none"/>
<rect x="2.3838" y="265.45" width="29.087" height="29.087" rx="6.4495" ry="6.4495" fill="url(#linearGradient931)" stroke-linecap="round" stroke-linejoin="round" stroke-width="2.6877"/>
<path d="m8.8333 265.45h16.189c3.573 0 6.4495 2.8765 6.4495 6.4495h-29.087c0-3.573 2.8765-6.4495 6.4495-6.4495z" fill="url(#linearGradient2134)" stroke-linecap="round" stroke-linejoin="round" stroke-width="2.6877"/>
<g transform="matrix(.90705 .0036414 -.0036414 .90705 41.823 31.783)">
<circle cx="-38.526" cy="261.91" r="1.336" fill="#ff295f" style="paint-order:fill markers stroke"/>
<circle cx="-34.572" cy="261.91" r="1.336" fill="#f89c22" style="paint-order:fill markers stroke"/>
<circle cx="-30.619" cy="261.91" r="1.336" fill="#2ecc9a" style="paint-order:fill markers stroke"/>
<path transform="matrix(.26458 0 0 .26458 0 263.13)" d="m-150.61-5.2949a5.0494 5.0494 0 0 0-0.0508 0.66992 5.0494 5.0494 0 0 0 5.0488 5.0508 5.0494 5.0494 0 0 0 5.0508-5.0508 5.0494 5.0494 0 0 0-0.0508-0.66602 5.0494 5.0494 0 0 1-5 4.377 5.0494 5.0494 0 0 1-4.998-4.3809z" fill="#e6175d" fill-opacity=".80303" style="paint-order:fill markers stroke"/>
<path transform="matrix(.26458 0 0 .26458 0 263.13)" d="m-145.61-9.6738a5.0494 5.0494 0 0 0-5.0488 5.0488 5.0494 5.0494 0 0 0 0.0586 0.72656 5.0494 5.0494 0 0 1 4.9902-4.332 5.0494 5.0494 0 0 1 4.9922 4.3242 5.0494 5.0494 0 0 0 0.0586-0.71875 5.0494 5.0494 0 0 0-5.0508-5.0488z" fill="#ff6b5b" fill-opacity=".39773" style="paint-order:fill markers stroke"/>
<path transform="matrix(.26458 0 0 .26458 0 263.13)" d="m-125.67-5.3184a5.0494 5.0494 0 0 1-4.9941 4.3594 5.0494 5.0494 0 0 1-4.9961-4.3574 5.0494 5.0494 0 0 0-0.0547 0.69141 5.0494 5.0494 0 0 0 5.0508 5.0508 5.0494 5.0494 0 0 0 5.0488-5.0508 5.0494 5.0494 0 0 0-0.0547-0.69336z" fill="#ec8a07" style="paint-order:fill markers stroke"/>
<path transform="matrix(.26458 0 0 .26458 0 263.13)" d="m-130.67-9.6738a5.0494 5.0494 0 0 0-5.0508 5.0488 5.0494 5.0494 0 0 0 0.0449 0.61133 5.0494 5.0494 0 0 1 5.0059-4.4219 5.0494 5.0494 0 0 1 5.0059 4.4355 5.0494 5.0494 0 0 0 0.043-0.625 5.0494 5.0494 0 0 0-5.0488-5.0488z" fill="#f9aa42" fill-opacity=".85145" style="paint-order:fill markers stroke"/>
<path transform="matrix(.26458 0 0 .26458 0 263.13)" d="m-110.72-5.2969a5.0494 5.0494 0 0 1-5 4.3828 5.0494 5.0494 0 0 1-5-4.3789 5.0494 5.0494 0 0 0-0.0488 0.66797 5.0494 5.0494 0 0 0 5.0488 5.0508 5.0494 5.0494 0 0 0 5.0488-5.0508 5.0494 5.0494 0 0 0-0.0488-0.67188z" fill="#27ae85" style="paint-order:fill markers stroke"/>
<path transform="matrix(.26458 0 0 .26458 0 263.13)" d="m-115.72-9.6738a5.0494 5.0494 0 0 0-5.0488 5.0488 5.0494 5.0494 0 0 0 0.0488 0.67188 5.0494 5.0494 0 0 1 5-4.3809 5.0494 5.0494 0 0 1 5 4.377 5.0494 5.0494 0 0 0 0.0488-0.66797 5.0494 5.0494 0 0 0-5.0488-5.0488z" fill="#50d8b5" fill-opacity=".77536" style="paint-order:fill markers stroke"/>
</g>
<g transform="matrix(.98653 .0039605 -.0039605 .98653 47.071 11.142)" fill="none" stroke="#000" stroke-linecap="round" stroke-linejoin="round" stroke-opacity=".064394">
<rect x="-27.81" y="260.42" width="10.47" height="2.603" rx="1.3015" ry="1.3015" stroke-width=".1" style="paint-order:fill markers stroke"/>
<rect x="-27.81" y="260.42" width="10.47" height="2.603" rx="1.3015" ry="1.3015" stroke-width=".2" style="paint-order:fill markers stroke"/>
<rect x="-27.81" y="260.42" width="10.47" height="2.603" rx="1.3015" ry="1.3015" stroke-width=".3" style="paint-order:fill markers stroke"/>
</g>
<rect transform="rotate(.23002)" x="19.679" y="267.87" width="10.329" height="2.568" rx="1.284" ry="1.284" fill="#fff" fill-opacity=".85145" style="paint-order:fill markers stroke"/>
<path d="m28.548 270.18c-0.11651 0.11557-0.25515 0.20882-0.40912 0.27301-0.15397 0.0642-0.32328 0.0993-0.50111 0.0986l-7.7609-0.0312c-0.17782-7.4e-4 -0.34685-0.0372-0.5003-0.10261-0.15345-0.0654-0.29135-0.15978-0.40692-0.27629 0.38552 0.069 0.79866 0.17434 1.2383 0.17553l7.0471 0.0194c0.46861 1e-3 0.90181-0.0962 1.293-0.1562z" fill="#ccc" fill-opacity=".85145" style="paint-order:fill markers stroke"/>
<g fill="#003c94" fill-opacity=".24167" stroke-linecap="round" stroke-linejoin="round" stroke-width=".5">
<rect x="7.0384" y="278.11" width="17.984" height="1.5475" rx=".77374" ry=".77374" style="paint-order:stroke markers fill"/>
<rect x="7.6922" y="278.64" width="17.984" height="1.5475" rx=".77374" ry=".77374" style="paint-order:stroke markers fill"/>
<rect x="8.4631" y="278.89" width="17.984" height="1.5475" rx=".77374" ry=".77374" style="paint-order:stroke markers fill"/>
</g>
<rect x="6.5732" y="277.73" width="20.709" height="1.5475" rx=".77374" ry=".77374" fill="url(#linearGradient1128)" stroke-linecap="round" stroke-linejoin="round" stroke-width=".5" style="paint-order:stroke markers fill"/>
<g fill="#003cc7" stroke-linecap="round" stroke-linejoin="round" stroke-width=".5">
<rect x="6.8219" y="282.74" width="14.064" height="1.5475" rx=".77374" ry=".77374" fill-opacity=".24392" style="paint-order:stroke markers fill"/>
<rect x="7.216" y="283.03" width="14.064" height="1.5475" rx=".77374" ry=".77374" fill-opacity=".17387" style="paint-order:stroke markers fill"/>
<rect x="7.7517" y="283.33" width="14.064" height="1.5475" rx=".77374" ry=".77374" fill-opacity=".10992" style="paint-order:stroke markers fill"/>
</g>
<rect x="6.5732" y="282.39" width="15.656" height="1.5475" rx=".77374" ry=".77374" fill="url(#linearGradient1144)" stroke-linecap="round" stroke-linejoin="round" stroke-width=".5" style="paint-order:stroke markers fill"/>
<g transform="matrix(.70132 0 0 1 1.9623 4.5014)" fill="#003cc7" stroke-linecap="round" stroke-linejoin="round" stroke-width=".5">
<rect x="6.8219" y="282.74" width="14.064" height="1.5475" rx=".77374" ry=".77374" fill-opacity=".24392" style="paint-order:stroke markers fill"/>
<rect x="7.216" y="283.03" width="14.064" height="1.5475" rx=".77374" ry=".77374" fill-opacity=".17387" style="paint-order:stroke markers fill"/>
<rect x="7.7517" y="283.33" width="14.064" height="1.5475" rx=".77374" ry=".77374" fill-opacity=".10992" style="paint-order:stroke markers fill"/>
</g>
<rect x="6.5732" y="287.05" width="11.997" height="1.5475" rx=".77374" ry=".77374" fill="url(#linearGradient1162)" stroke-linecap="round" stroke-linejoin="round" stroke-width=".5" style="paint-order:stroke markers fill"/>
<circle cx="24.881" cy="279.03" r="1.9015" fill="none" stroke="#074fb9" stroke-linecap="round" stroke-linejoin="round" stroke-opacity=".6625" stroke-width="1.6294" style="paint-order:stroke markers fill"/>
<circle cx="24.703" cy="278.41" r="1.167" fill="url(#radialGradient941)" stroke="url(#linearGradient1136)" stroke-linecap="round" stroke-linejoin="round" stroke-width="3" style="paint-order:stroke markers fill"/>
<circle cx="19.85" cy="283.67" r="1.9015" fill="none" stroke="#074fb9" stroke-linecap="round" stroke-linejoin="round" stroke-opacity=".6625" stroke-width="1.6294" style="paint-order:stroke markers fill"/>
<circle cx="19.671" cy="283.12" r="1.167" fill="url(#radialGradient955)" stroke="url(#linearGradient1154)" stroke-linecap="round" stroke-linejoin="round" stroke-width="3" style="paint-order:stroke markers fill"/>
<circle cx="16.214" cy="288.79" r="1.9015" fill="none" stroke="#074fb9" stroke-linecap="round" stroke-linejoin="round" stroke-opacity=".6625" stroke-width="1.6294" style="paint-order:stroke markers fill"/>
<circle cx="16.125" cy="288.08" r="1.167" fill="url(#radialGradient967)" stroke="url(#linearGradient1170)" stroke-linecap="round" stroke-linejoin="round" stroke-width="3" style="paint-order:stroke markers fill"/>
<path d="m25.136 279.6a8.6794 8.6794 0 0 0-8.6793 8.6793 8.6794 8.6794 0 0 0 8.6793 8.6795 8.6794 8.6794 0 0 0 8.6795-8.6795 8.6794 8.6794 0 0 0-8.6795-8.6793z" fill="url(#radialGradient3771-9)" stroke-width="2.0503"/>
<path d="m32.827 287.65a7.6912 7.6912 0 0 1-7.6912 7.6912 7.6912 7.6912 0 0 1-7.6912-7.6912 7.6912 7.6912 0 0 1 7.6912-7.6912 7.6912 7.6912 0 0 1 7.6912 7.6912z" fill="url(#linearGradient1112)" stroke-width="1.938"/>
<path d="m25.137 283.48-3.2025 8.3459h1.4949l0.53603-1.3967h2.3419l0.53466 1.3967h1.4949zm0 3.8981 0.63423 1.6545h-1.2698z" fill="url(#linearGradient1120)" stroke-width=".48346"/>
</g>
</svg>
