<svg width="128" height="128" version="1.1" viewBox="0 0 128 128" xmlns="http://www.w3.org/2000/svg" xmlns:xlink="http://www.w3.org/1999/xlink">
<defs>
<linearGradient id="linearGradient856" x1="86.345" x2="97.988" y1="58.765" y2="56.894" gradientUnits="userSpaceOnUse">
<stop offset="0"/>
<stop stop-opacity=".054902" offset=".8249"/>
<stop stop-opacity=".027451" offset=".90864"/>
<stop stop-opacity=".019608" offset=".92884"/>
<stop stop-opacity=".011765" offset=".95191"/>
<stop stop-opacity="0" offset="1"/>
</linearGradient>
<linearGradient id="linearGradient980" x1="116.56" x2="109.39" y1="90.71" y2="9.5853" gradientUnits="userSpaceOnUse">
<stop stop-color="#390a8d" offset="0"/>
<stop stop-color="#81359d" offset="1"/>
</linearGradient>
<linearGradient id="linearGradient1098" x1="-61.906" x2="-79.228" y1="110.36" y2="8.3432" gradientTransform="translate(126.75 10.223)" gradientUnits="userSpaceOnUse">
<stop stop-color="#4100c2" offset="0"/>
<stop stop-color="#8d3ce3" offset="1"/>
</linearGradient>
</defs>
<linearGradient id="a" x1="484.08" x2="486.81" y1="104.42" y2="183.26" gradientTransform="matrix(1.311 -.19918 .19918 1.311 -605.29 -33.841)" gradientUnits="userSpaceOnUse">
<stop stop-color="#9743e7" offset="0"/>
<stop stop-color="#4100c2" offset="1"/>
</linearGradient>
<filter x="-.29025" y="-.31562" width="1.5805" height="1.6312" color-interpolation-filters="sRGB">
<feGaussianBlur stdDeviation="23.878758"/>
</filter>
<rect transform="rotate(3.9056)" x="76.693" y="1.2864" width="48.913" height="103.18" ry="6.286" fill="url(#linearGradient980)" stroke-width=".25065"/>
<path d="m111.99 60.593 4.3868-0.63975 2.0295 13.917-4.5122 0.65803-1.4578-9.9965-24.416 3.5607 1.4578 9.9965-4.5122 0.65803-2.0295-13.917 3.6097-0.52642q1.6087-2.6618 2.337-7.1469 0.74984-4.5133 0.63756-11.778l-0.14278-12.741 18.149-2.6468zm-4.6626 0.67997-3.8912-26.682-9.4004 1.3709 0.0866 9.1956q0.0515 6.8486-0.45835 11.252-0.50988 4.4032-1.7282 7.1082z" fill="#fff"/>
<path d="m9.2363 12.225 74.092-11.257 17.505 115.21-74.092 11.257z" fill="url(#a)" stroke-width=".25065"/>
<path d="m84.25 7.041 15.877 104.51 11.801 0.80664c3.4744 0.23719 6.462-2.3694 6.6992-5.8438l6.1719-90.4c0.2372-3.4744-2.3694-6.462-5.8438-6.6992l-34.705-2.3691z" fill="url(#linearGradient856)"/>
<path d="m9.2363 12.225 74.092-11.257 17.505 115.21-74.092 11.257z" fill="url(#linearGradient1098)" stroke-width=".25065"/>
<path d="m71.131 60.722q0.77894 5.3413-0.7658 9.6702-1.5483 4.3044-5.148 7.0063-3.5997 2.7019-8.7135 3.4477l-13.211 1.9266-5.0346-34.522 11.682-1.7036q8.9742-1.3088 14.48 2.3923 5.5278 3.6729 6.7105 11.783zm-4.813 0.7019q-0.93616-6.4193-5.0354-9.2496-4.0778-2.8584-10.896-1.864l-6.7933 0.9907 3.9412 27.025 7.8712-1.1479q3.8855-0.56664 6.5754-2.6604 2.715-2.0975 3.8369-5.4639 1.1219-3.3665 0.50017-7.6297z" fill="#fff"/>
</svg>
