<svg width="128" height="128" version="1.1" viewBox="0 0 33.867 33.867" xmlns="http://www.w3.org/2000/svg">
<defs>
<linearGradient id="linearGradient4112" x1="14.722" x2="14.722" y1="30.259" y2="3.1307" gradientTransform="translate(-.017489 -.048758)" gradientUnits="userSpaceOnUse"/>
<linearGradient id="linearGradient1056" x1="227.34" x2="33.52" y1="208.52" y2="237.77" gradientUnits="userSpaceOnUse"/>
<linearGradient id="linearGradient1107" x1="-94.011" x2="-200.41" y1="98.718" y2="138.09" gradientTransform="matrix(.14979 .028105 -.028105 .14979 45.2 -4.991)" gradientUnits="userSpaceOnUse"/>
<linearGradient id="linearGradient853" x1="-42.954" x2="-30.426" y1="110.33" y2="110.33" gradientTransform="matrix(.15241 0 0 .15241 34.107 -9.3923)" gradientUnits="userSpaceOnUse"/>
<linearGradient id="linearGradient882" x1="165.05" x2="176.52" y1="35.245" y2="39.464" gradientTransform="matrix(.14952 .029543 -.029543 .14952 .99371 2.4336)" gradientUnits="userSpaceOnUse"/>
<linearGradient id="linearGradient1285" x1="227.34" x2="33.52" y1="208.52" y2="237.77" gradientTransform="translate(-240.34 -80.283)" gradientUnits="userSpaceOnUse"/>
</defs>
<rect x="2.2768" y="2.4362" width="29.087" height="29.087" rx="6.4495" ry="6.4495" fill="url(#linearGradient4112)" stroke-linecap="round" stroke-linejoin="round" stroke-width="2.6877"/>
<image x="4.3568" y="4.908" width="24.871" height="24.342" preserveAspectRatio="none"/>
<path d="m25.435 17.131c-0.37782-0.37217-1.2158-0.5693-2.4909-0.58606-0.86314-0.01379-1.902 0.0659-2.9947 0.2194-0.48929-0.28232-0.99352-0.5895-1.3894-0.95946-1.0649-0.99435-1.9537-2.3746-2.5076-3.8924 0.0361-0.14176 0.06682-0.26637 0.09541-0.39345 0 0 0.5998-3.407 0.44103-4.5588-0.02184-0.15798-0.03529-0.20387-0.07778-0.32668l-0.0521-0.13326c-0.16313-0.37628-0.48302-0.77495-0.98454-0.75325l-0.29411-0.01379-0.0082-1.464e-4c-0.55925 0-1.0151 0.28603-1.1347 0.71355-0.36369 1.3408 0.01159 3.3468 0.69166 5.9449l-0.17408 0.42327c-0.48696 1.187-1.0972 2.3826-1.6356 3.4372l-0.07 0.13738c-0.56643 1.1085-1.0804 2.0496-1.5463 2.8466l-0.48106 0.25442c-0.03503 0.01782-0.85947 0.45446-1.0528 0.5715-1.6405 0.97952-2.7276 2.0915-2.9079 2.9738-0.057407 0.28149-0.014671 0.64184 0.27721 0.80876l0.46527 0.23409c0.20183 0.10166 0.41466 0.15236 0.63271 0.15236 1.1684 0 2.5249-1.4555 4.3935-4.7166 2.1575-0.70241 4.6138-1.2861 6.7666-1.6082 1.6406 0.92374 3.6584 1.5653 4.9319 1.5653 0.22612 0 0.42104-0.02197 0.57945-0.06322 0.24425-0.06456 0.45012-0.204 0.57562-0.3929 0.24706-0.37189 0.29719-0.88403 0.2301-1.4085-0.01998-0.15552-0.14432-0.34798-0.2788-0.47932zm-17.452 6.2172c0.21305-0.58263 1.0565-1.7343 2.3035-2.7562 0.0784-0.06322 0.27152-0.24452 0.44836-0.41254-1.3041 2.0799-2.1774 2.9089-2.7519 3.1688zm7.3861-17.009c0.3756 0 0.58923 0.94682 0.60698 1.8343 0.01771 0.8876-0.18987 1.5105-0.44736 1.9714-0.21326-0.68236-0.31633-1.7579-0.31633-2.4613 0 0-0.01568-1.3444 0.1567-1.3444zm-2.2033 12.121c0.26163-0.46832 0.53384-0.9622 0.812-1.486 0.67805-1.2823 1.1063-2.2856 1.4252-3.1104 0.6343 1.1541 1.4242 2.1351 2.3529 2.9212 0.11583 0.09751 0.23856 0.19658 0.36746 0.29482-1.8884 0.37367-3.5205 0.82811-4.9575 1.3804zm11.906-0.10581c-0.11502 0.0714-0.44448 0.11399-0.65642 0.11399-0.68395 0-1.5302-0.31268-2.7165-0.82126 0.45581-0.03442 0.87378-0.05089 1.2486-0.05089 0.68602 0 0.88924 0 1.5601 0.16802 0.67082 0.17118 0.67928 0.51875 0.5643 0.59061z" fill="#e81956" stroke-width="1.3738"/>
<image x="-.11284" y=".046597" width="33.867" height="33.867" preserveAspectRatio="none"/>
<g transform="translate(-2.9876 1.4463)">
<g transform="matrix(.14979 .028105 -.028105 .14979 11.456 -23.771)">
<path d="m32.727 264.76c33.174-10.217 52.744-24.541 107.9-28.124 30.47-10.738 14.63-46.533-9.2044-44.488-59.05-3.6799-92.453 11.293-138.07 17.386z" fill="url(#linearGradient1056)"/>
</g>
<path d="m28.459 7.2186c-0.11651 0.11557-0.25515 0.20882-0.40912 0.27301-0.15397 0.064165-0.32328 0.099291-0.50111 0.098579l-7.7609-0.031157c-0.17782-7.409e-4 -0.34685-0.037167-0.5003-0.10261-0.15345-0.065441-0.29135-0.15978-0.40692-0.27629 0.38552 0.06899 0.79866 0.17433 1.2383 0.17553l7.0471 0.01941c0.46861 0.00132 0.90181-0.096258 1.293-0.1562z" fill="#ccc" fill-opacity=".85145" style="paint-order:fill markers stroke"/>
<path d="m23.366 8.1705c-5.8007-1.1351-10.159-0.74168-14.83-0.67993l-0.34797 3.924 18.129 1.4622c0.94195-0.35143 1.8385-0.74039 2.6056-1.2368-0.32515-1.4492-1.513-2.7688-3.1819-2.936-0.81955-0.20727-1.6099-0.38373-2.3752-0.53348z" fill="url(#linearGradient1107)" opacity=".731"/>
<g transform="matrix(.14979 .028105 -.028105 .14979 45.2 -4.991)">
<path d="m-84.61 136.14a12.294 8.1356 0 0 1-12.284 8.1356 12.294 8.1356 0 0 1-12.304-8.1225 12.294 8.1356 0 0 1 12.264-8.1487 12.294 8.1356 0 0 1 12.323 8.1093l-12.294 0.0263z" fill-opacity="0" opacity=".731" style="paint-order:fill markers stroke"/>
<path d="m-85.418 136.23a12.432 7.6836 0 0 1-12.422 7.6836 12.432 7.6836 0 0 1-12.442-7.6712 12.432 7.6836 0 0 1 12.402-7.696 12.432 7.6836 0 0 1 12.462 7.6588l-12.432 0.0248z" fill="#ffc40f" fill-opacity=".098859" opacity=".731" style="paint-order:fill markers stroke"/>
<path d="m-84.875 133.88a12.432 7.6836 0 0 1-12.422 7.6836 12.432 7.6836 0 0 1-12.442-7.6712 12.432 7.6836 0 0 1 12.402-7.696 12.432 7.6836 0 0 1 12.462 7.6588l-12.432 0.0248z" fill="#ffc40f" fill-opacity=".098859" opacity=".731" style="paint-order:fill markers stroke"/>
<path d="m-83.791 138.03a12.432 7.6836 0 0 1-12.422 7.6836 12.432 7.6836 0 0 1-12.442-7.6712 12.432 7.6836 0 0 1 12.402-7.696 12.432 7.6836 0 0 1 12.462 7.6588l-12.432 0.0248z" fill="#ffc40f" fill-opacity=".098859" opacity=".731" style="paint-order:fill markers stroke"/>
<path d="m-88.31 133.51a12.432 7.6836 0 0 1-12.422 7.6836 12.432 7.6836 0 0 1-12.442-7.6712 12.432 7.6836 0 0 1 12.402-7.696 12.432 7.6836 0 0 1 12.462 7.6588l-12.432 0.0248z" fill="#ffc40f" fill-opacity=".098859" opacity=".731" style="paint-order:fill markers stroke"/>
<path d="m-91.203 137.85a12.432 7.6836 0 0 1-12.422 7.6836 12.432 7.6836 0 0 1-12.442-7.6712 12.432 7.6836 0 0 1 12.402-7.696 12.432 7.6836 0 0 1 12.462 7.6588l-12.432 0.0248z" fill="#ffc40f" fill-opacity=".098859" opacity=".731" style="paint-order:fill markers stroke"/>
<path d="m-89.034 142.19a12.432 7.6836 0 0 1-12.422 7.6836 12.432 7.6836 0 0 1-12.442-7.6712 12.432 7.6836 0 0 1 12.402-7.696 12.432 7.6836 0 0 1 12.462 7.6588l-12.432 0.0248z" fill="#ffc40f" fill-opacity=".098859" opacity=".731" style="paint-order:fill markers stroke"/>
<path d="m-88.31 133.51a12.432 7.6836 0 0 1-12.422 7.6836 12.432 7.6836 0 0 1-12.442-7.6712 12.432 7.6836 0 0 1 12.402-7.696 12.432 7.6836 0 0 1 12.462 7.6588l-12.432 0.0248z" fill="#ffc40f" fill-opacity=".098859" opacity=".731" style="paint-order:fill markers stroke"/>
<path d="m-85.237 141.83a12.432 7.6836 0 0 1-12.422 7.6836 12.432 7.6836 0 0 1-12.442-7.6712 12.432 7.6836 0 0 1 12.402-7.696 12.432 7.6836 0 0 1 12.462 7.6588l-12.432 0.0248z" fill="#ffc40f" fill-opacity=".098859" opacity=".731" style="paint-order:fill markers stroke"/>
<path d="m-85.237 141.83a12.432 7.6836 0 0 1-12.422 7.6836 12.432 7.6836 0 0 1-12.442-7.6712 12.432 7.6836 0 0 1 12.402-7.696 12.432 7.6836 0 0 1 12.462 7.6588l-12.432 0.0248z" fill="#ff720f" fill-opacity=".098859" opacity=".731" style="paint-order:fill markers stroke"/>
<path d="m-89.034 142.19a12.432 7.6836 0 0 1-12.422 7.6836 12.432 7.6836 0 0 1-12.442-7.6712 12.432 7.6836 0 0 1 12.402-7.696 12.432 7.6836 0 0 1 12.462 7.6588l-12.432 0.0248z" fill="#ff720f" fill-opacity=".098859" opacity=".731" style="paint-order:fill markers stroke"/>
<path d="m-89.034 144.72a12.432 7.6836 0 0 1-12.422 7.6836 12.432 7.6836 0 0 1-12.442-7.6712 12.432 7.6836 0 0 1 12.402-7.696 12.432 7.6836 0 0 1 12.462 7.6588l-12.432 0.0248z" fill="#ff720f" fill-opacity=".098859" opacity=".731" style="paint-order:fill markers stroke"/>
<path d="m-89.847 147.07a12.432 7.6836 0 0 1-12.422 7.6836 12.432 7.6836 0 0 1-12.442-7.6712 12.432 7.6836 0 0 1 12.402-7.696 12.432 7.6836 0 0 1 12.462 7.6588l-12.432 0.0248z" fill="#ff720f" fill-opacity=".098859" opacity=".731" style="paint-order:fill markers stroke"/>
<path d="m-85.056 132.07a12.432 7.6836 0 0 1-12.422 7.6836 12.432 7.6836 0 0 1-12.442-7.6712 12.432 7.6836 0 0 1 12.402-7.696 12.432 7.6836 0 0 1 12.462 7.6588l-12.432 0.0248z" fill="#ff720f" fill-opacity=".098859" opacity=".731" style="paint-order:fill markers stroke"/>
</g>
<rect transform="rotate(30.829)" x="27.561" y="-4.5016" width="1.9656" height="23.848" rx=".92771" ry=".45128" fill="url(#linearGradient853)" style="paint-order:fill markers stroke"/>
<path d="m26.789 10.702 0.09409 0.05739c0.43878 0.26761 0.68556 0.65389 0.55704 0.86833l-2.825 4.7136c-0.44341-0.4325-0.86922-0.87886-1.6781-1.0235l2.825-4.7136c0.12852-0.21444 0.58822-0.16983 1.027 0.09778z" fill="url(#linearGradient882)" style="paint-order:fill markers stroke"/>
<g transform="matrix(.10021 .018802 -.018802 .10021 10.495 2.0288)" fill="#fff">
<path d="m62.457 71.28c0.39296-0.39296-12.133-7.6807-11.577-7.6807s-11.97 7.2877-11.577 7.6807c0.39296 0.39296 7.6807-12.133 7.6807-11.577s-7.2877-11.97-7.6807-11.577c-0.39296 0.39296 12.133 7.6807 11.577 7.6807s11.97-7.2877 11.577-7.6807-7.6807 12.133-7.6807 11.577 7.2877 11.97 7.6807 11.577z" opacity=".731" style="paint-order:fill markers stroke"/>
<path d="m58.116 59.524c-0.0052-0.21042-4.5589 3.0174-4.4138 2.8649 0.14512-0.15246-2.8542 4.5549-2.6438 4.5497 0.21042-0.0052-3.0174-4.5589-2.8649-4.4138s-4.5549-2.8542-4.5497-2.6438c0.0052 0.21042 4.5589-3.0174 4.4138-2.8649-0.14512 0.15246 2.8542-4.5549 2.6438-4.5497-0.21042 0.0052 3.0174 4.5589 2.8649 4.4138-0.15246-0.14512 4.5549 2.8542 4.5497 2.6438z" opacity=".731" style="paint-order:fill markers stroke"/>
</g>
<g transform="matrix(.10021 .018802 -.018802 .10021 13.539 6.0889)" fill="#fff">
<path d="m62.457 71.28c0.39296-0.39296-12.133-7.6807-11.577-7.6807s-11.97 7.2877-11.577 7.6807c0.39296 0.39296 7.6807-12.133 7.6807-11.577s-7.2877-11.97-7.6807-11.577c-0.39296 0.39296 12.133 7.6807 11.577 7.6807s11.97-7.2877 11.577-7.6807-7.6807 12.133-7.6807 11.577 7.2877 11.97 7.6807 11.577z" opacity=".731" style="paint-order:fill markers stroke"/>
<path d="m58.116 59.524c-0.0052-0.21042-4.5589 3.0174-4.4138 2.8649 0.14512-0.15246-2.8542 4.5549-2.6438 4.5497 0.21042-0.0052-3.0174-4.5589-2.8649-4.4138s-4.5549-2.8542-4.5497-2.6438c0.0052 0.21042 4.5589-3.0174 4.4138-2.8649-0.14512 0.15246 2.8542-4.5549 2.6438-4.5497-0.21042 0.0052 3.0174 4.5589 2.8649 4.4138-0.15246-0.14512 4.5549 2.8542 4.5497 2.6438z" opacity=".731" style="paint-order:fill markers stroke"/>
</g>
<g transform="matrix(.077071 .01446 -.015081 .080376 15.96 4.1213)" fill="#fff">
<path d="m62.457 71.28c0.39296-0.39296-12.133-7.6807-11.577-7.6807s-11.97 7.2877-11.577 7.6807c0.39296 0.39296 7.6807-12.133 7.6807-11.577s-7.2877-11.97-7.6807-11.577c-0.39296 0.39296 12.133 7.6807 11.577 7.6807s11.97-7.2877 11.577-7.6807-7.6807 12.133-7.6807 11.577 7.2877 11.97 7.6807 11.577z" opacity=".731" style="paint-order:fill markers stroke"/>
<path d="m58.116 59.524c-0.0052-0.21042-4.5589 3.0174-4.4138 2.8649 0.14512-0.15246-2.8542 4.5549-2.6438 4.5497 0.21042-0.0052-3.0174-4.5589-2.8649-4.4138s-4.5549-2.8542-4.5497-2.6438c0.0052 0.21042 4.5589-3.0174 4.4138-2.8649-0.14512 0.15246 2.8542-4.5549 2.6438-4.5497-0.21042 0.0052 3.0174 4.5589 2.8649 4.4138-0.15246-0.14512 4.5549 2.8542 4.5497 2.6438z" opacity=".731" style="paint-order:fill markers stroke"/>
</g>
<g transform="matrix(.077071 .01446 -.015081 .080376 18.554 7.6212)" fill="#fff">
<path d="m62.457 71.28c0.39296-0.39296-12.133-7.6807-11.577-7.6807s-11.97 7.2877-11.577 7.6807c0.39296 0.39296 7.6807-12.133 7.6807-11.577s-7.2877-11.97-7.6807-11.577c-0.39296 0.39296 12.133 7.6807 11.577 7.6807s11.97-7.2877 11.577-7.6807-7.6807 12.133-7.6807 11.577 7.2877 11.97 7.6807 11.577z" opacity=".731" style="paint-order:fill markers stroke"/>
<path d="m58.116 59.524c-0.0052-0.21042-4.5589 3.0174-4.4138 2.8649 0.14512-0.15246-2.8542 4.5549-2.6438 4.5497 0.21042-0.0052-3.0174-4.5589-2.8649-4.4138s-4.5549-2.8542-4.5497-2.6438c0.0052 0.21042 4.5589-3.0174 4.4138-2.8649-0.14512 0.15246 2.8542-4.5549 2.6438-4.5497-0.21042 0.0052 3.0174 4.5589 2.8649 4.4138-0.15246-0.14512 4.5549 2.8542 4.5497 2.6438z" opacity=".731" style="paint-order:fill markers stroke"/>
</g>
<g transform="matrix(.052294 .0098116 -.0098116 .052294 21.566 7.0533)" fill="#fff">
<path d="m62.457 71.28c0.39296-0.39296-12.133-7.6807-11.577-7.6807s-11.97 7.2877-11.577 7.6807c0.39296 0.39296 7.6807-12.133 7.6807-11.577s-7.2877-11.97-7.6807-11.577c-0.39296 0.39296 12.133 7.6807 11.577 7.6807s11.97-7.2877 11.577-7.6807-7.6807 12.133-7.6807 11.577 7.2877 11.97 7.6807 11.577z" opacity=".731" style="paint-order:fill markers stroke"/>
<path d="m58.116 59.524c-0.0052-0.21042-4.5589 3.0174-4.4138 2.8649 0.14512-0.15246-2.8542 4.5549-2.6438 4.5497 0.21042-0.0052-3.0174-4.5589-2.8649-4.4138s-4.5549-2.8542-4.5497-2.6438c0.0052 0.21042 4.5589-3.0174 4.4138-2.8649-0.14512 0.15246 2.8542-4.5549 2.6438-4.5497-0.21042 0.0052 3.0174 4.5589 2.8649 4.4138-0.15246-0.14512 4.5549 2.8542 4.5497 2.6438z" opacity=".731" style="paint-order:fill markers stroke"/>
</g>
<g transform="matrix(.052294 .0098116 -.0098116 .052294 24 9.7067)" fill="#fff">
<path d="m62.457 71.28c0.39296-0.39296-12.133-7.6807-11.577-7.6807s-11.97 7.2877-11.577 7.6807c0.39296 0.39296 7.6807-12.133 7.6807-11.577s-7.2877-11.97-7.6807-11.577c-0.39296 0.39296 12.133 7.6807 11.577 7.6807s11.97-7.2877 11.577-7.6807-7.6807 12.133-7.6807 11.577 7.2877 11.97 7.6807 11.577z" opacity=".731" style="paint-order:fill markers stroke"/>
<path d="m58.116 59.524c-0.0052-0.21042-4.5589 3.0174-4.4138 2.8649 0.14512-0.15246-2.8542 4.5549-2.6438 4.5497 0.21042-0.0052-3.0174-4.5589-2.8649-4.4138s-4.5549-2.8542-4.5497-2.6438c0.0052 0.21042 4.5589-3.0174 4.4138-2.8649-0.14512 0.15246 2.8542-4.5549 2.6438-4.5497-0.21042 0.0052 3.0174 4.5589 2.8649 4.4138-0.15246-0.14512 4.5549 2.8542 4.5497 2.6438z" opacity=".731" style="paint-order:fill markers stroke"/>
</g>
<g transform="matrix(.033595 .0063032 -.0063032 .033595 25.691 9.0539)" fill="#fff">
<path d="m62.457 71.28c0.39296-0.39296-12.133-7.6807-11.577-7.6807s-11.97 7.2877-11.577 7.6807c0.39296 0.39296 7.6807-12.133 7.6807-11.577s-7.2877-11.97-7.6807-11.577c-0.39296 0.39296 12.133 7.6807 11.577 7.6807s11.97-7.2877 11.577-7.6807-7.6807 12.133-7.6807 11.577 7.2877 11.97 7.6807 11.577z" opacity=".731" style="paint-order:fill markers stroke"/>
<path d="m58.116 59.524c-0.0052-0.21042-4.5589 3.0174-4.4138 2.8649 0.14512-0.15246-2.8542 4.5549-2.6438 4.5497 0.21042-0.0052-3.0174-4.5589-2.8649-4.4138s-4.5549-2.8542-4.5497-2.6438c0.0052 0.21042 4.5589-3.0174 4.4138-2.8649-0.14512 0.15246 2.8542-4.5549 2.6438-4.5497-0.21042 0.0052 3.0174 4.5589 2.8649 4.4138-0.15246-0.14512 4.5549 2.8542 4.5497 2.6438z" opacity=".731" style="paint-order:fill markers stroke"/>
</g>
<g transform="matrix(.033595 .0063032 -.0063032 .033595 26.016 10.303)" fill="#fff">
<path d="m62.457 71.28c0.39296-0.39296-12.133-7.6807-11.577-7.6807s-11.97 7.2877-11.577 7.6807c0.39296 0.39296 7.6807-12.133 7.6807-11.577s-7.2877-11.97-7.6807-11.577c-0.39296 0.39296 12.133 7.6807 11.577 7.6807s11.97-7.2877 11.577-7.6807-7.6807 12.133-7.6807 11.577 7.2877 11.97 7.6807 11.577z" opacity=".731" style="paint-order:fill markers stroke"/>
<path d="m58.116 59.524c-0.0052-0.21042-4.5589 3.0174-4.4138 2.8649 0.14512-0.15246-2.8542 4.5549-2.6438 4.5497 0.21042-0.0052-3.0174-4.5589-2.8649-4.4138s-4.5549-2.8542-4.5497-2.6438c0.0052 0.21042 4.5589-3.0174 4.4138-2.8649-0.14512 0.15246 2.8542-4.5549 2.6438-4.5497-0.21042 0.0052 3.0174 4.5589 2.8649 4.4138-0.15246-0.14512 4.5549 2.8542 4.5497 2.6438z" opacity=".731" style="paint-order:fill markers stroke"/>
</g>
<g transform="matrix(.033595 .0063032 -.0063032 .033595 27.485 9.4263)" fill="#fff">
<path d="m62.457 71.28c0.39296-0.39296-12.133-7.6807-11.577-7.6807s-11.97 7.2877-11.577 7.6807c0.39296 0.39296 7.6807-12.133 7.6807-11.577s-7.2877-11.97-7.6807-11.577c-0.39296 0.39296 12.133 7.6807 11.577 7.6807s11.97-7.2877 11.577-7.6807-7.6807 12.133-7.6807 11.577 7.2877 11.97 7.6807 11.577z" opacity=".731" style="paint-order:fill markers stroke"/>
<path d="m58.116 59.524c-0.0052-0.21042-4.5589 3.0174-4.4138 2.8649 0.14512-0.15246-2.8542 4.5549-2.6438 4.5497 0.21042-0.0052-3.0174-4.5589-2.8649-4.4138s-4.5549-2.8542-4.5497-2.6438c0.0052 0.21042 4.5589-3.0174 4.4138-2.8649-0.14512 0.15246 2.8542-4.5549 2.6438-4.5497-0.21042 0.0052 3.0174 4.5589 2.8649 4.4138-0.15246-0.14512 4.5549 2.8542 4.5497 2.6438z" opacity=".731" style="paint-order:fill markers stroke"/>
</g>
<g transform="matrix(.024245 .004549 -.004549 .024245 25.108 10.077)" fill="#fff">
<path d="m62.457 71.28c0.39296-0.39296-12.133-7.6807-11.577-7.6807s-11.97 7.2877-11.577 7.6807c0.39296 0.39296 7.6807-12.133 7.6807-11.577s-7.2877-11.97-7.6807-11.577c-0.39296 0.39296 12.133 7.6807 11.577 7.6807s11.97-7.2877 11.577-7.6807-7.6807 12.133-7.6807 11.577 7.2877 11.97 7.6807 11.577z" opacity=".731" style="paint-order:fill markers stroke"/>
<path d="m58.116 59.524c-0.0052-0.21042-4.5589 3.0174-4.4138 2.8649 0.14512-0.15246-2.8542 4.5549-2.6438 4.5497 0.21042-0.0052-3.0174-4.5589-2.8649-4.4138s-4.5549-2.8542-4.5497-2.6438c0.0052 0.21042 4.5589-3.0174 4.4138-2.8649-0.14512 0.15246 2.8542-4.5549 2.6438-4.5497-0.21042 0.0052 3.0174 4.5589 2.8649 4.4138-0.15246-0.14512 4.5549 2.8542 4.5497 2.6438z" opacity=".731" style="paint-order:fill markers stroke"/>
</g>
<g transform="matrix(.024245 .004549 -.004549 .024245 24.695 8.6956)" fill="#fff">
<path d="m62.457 71.28c0.39296-0.39296-12.133-7.6807-11.577-7.6807s-11.97 7.2877-11.577 7.6807c0.39296 0.39296 7.6807-12.133 7.6807-11.577s-7.2877-11.97-7.6807-11.577c-0.39296 0.39296 12.133 7.6807 11.577 7.6807s11.97-7.2877 11.577-7.6807-7.6807 12.133-7.6807 11.577 7.2877 11.97 7.6807 11.577z" opacity=".731" style="paint-order:fill markers stroke"/>
<path d="m58.116 59.524c-0.0052-0.21042-4.5589 3.0174-4.4138 2.8649 0.14512-0.15246-2.8542 4.5549-2.6438 4.5497 0.21042-0.0052-3.0174-4.5589-2.8649-4.4138s-4.5549-2.8542-4.5497-2.6438c0.0052 0.21042 4.5589-3.0174 4.4138-2.8649-0.14512 0.15246 2.8542-4.5549 2.6438-4.5497-0.21042 0.0052 3.0174 4.5589 2.8649 4.4138-0.15246-0.14512 4.5549 2.8542 4.5497 2.6438z" opacity=".731" style="paint-order:fill markers stroke"/>
</g>
<g transform="matrix(.024245 .004549 -.004549 .024245 26.955 9.0496)" fill="#fff">
<path d="m62.457 71.28c0.39296-0.39296-12.133-7.6807-11.577-7.6807s-11.97 7.2877-11.577 7.6807c0.39296 0.39296 7.6807-12.133 7.6807-11.577s-7.2877-11.97-7.6807-11.577c-0.39296 0.39296 12.133 7.6807 11.577 7.6807s11.97-7.2877 11.577-7.6807-7.6807 12.133-7.6807 11.577 7.2877 11.97 7.6807 11.577z" opacity=".731" style="paint-order:fill markers stroke"/>
<path d="m58.116 59.524c-0.0052-0.21042-4.5589 3.0174-4.4138 2.8649 0.14512-0.15246-2.8542 4.5549-2.6438 4.5497 0.21042-0.0052-3.0174-4.5589-2.8649-4.4138s-4.5549-2.8542-4.5497-2.6438c0.0052 0.21042 4.5589-3.0174 4.4138-2.8649-0.14512 0.15246 2.8542-4.5549 2.6438-4.5497-0.21042 0.0052 3.0174 4.5589 2.8649 4.4138-0.15246-0.14512 4.5549 2.8542 4.5497 2.6438z" opacity=".731" style="paint-order:fill markers stroke"/>
</g>
<g transform="matrix(.052294 .0098116 -.0098116 .052294 22.072 9.5872)" fill="#fff">
<path d="m62.457 71.28c0.39296-0.39296-12.133-7.6807-11.577-7.6807s-11.97 7.2877-11.577 7.6807c0.39296 0.39296 7.6807-12.133 7.6807-11.577s-7.2877-11.97-7.6807-11.577c-0.39296 0.39296 12.133 7.6807 11.577 7.6807s11.97-7.2877 11.577-7.6807-7.6807 12.133-7.6807 11.577 7.2877 11.97 7.6807 11.577z" opacity=".731" style="paint-order:fill markers stroke"/>
<path d="m58.116 59.524c-0.0052-0.21042-4.5589 3.0174-4.4138 2.8649 0.14512-0.15246-2.8542 4.5549-2.6438 4.5497 0.21042-0.0052-3.0174-4.5589-2.8649-4.4138s-4.5549-2.8542-4.5497-2.6438c0.0052 0.21042 4.5589-3.0174 4.4138-2.8649-0.14512 0.15246 2.8542-4.5549 2.6438-4.5497-0.21042 0.0052 3.0174 4.5589 2.8649 4.4138-0.15246-0.14512 4.5549 2.8542 4.5497 2.6438z" opacity=".731" style="paint-order:fill markers stroke"/>
</g>
<g transform="matrix(.14979 .028105 -.028105 .14979 45.2 -4.991)" fill="#fff" fill-opacity=".20532">
<path transform="rotate(26.065)" d="m-22.534 166.39a11.299 13.379 0 0 1-11.29 13.379 11.299 13.379 0 0 1-11.309-13.357 11.299 13.379 0 0 1 11.272-13.4 11.299 13.379 0 0 1 11.327 13.335l-11.299 0.0432z" opacity=".731" style="paint-order:fill markers stroke"/>
<path transform="rotate(26.065)" d="m-21.502 166.21a12.281 14.541 0 0 1-12.271 14.541 12.281 14.541 0 0 1-12.291-14.518 12.281 14.541 0 0 1 12.252-14.565 12.281 14.541 0 0 1 12.311 14.494l-12.281 0.047z" opacity=".731" style="paint-order:fill markers stroke"/>
<path transform="rotate(26.065)" d="m-20.505 166.35a13.319 15.769 0 0 1-13.308 15.769 13.319 15.769 0 0 1-13.329-15.744 13.319 15.769 0 0 1 13.286-15.795 13.319 15.769 0 0 1 13.351 15.718l-13.319 0.0509z" opacity=".731" style="paint-order:fill markers stroke"/>
</g>
<g transform="matrix(.14979 .028105 -.028105 .14979 11.456 -23.771)" opacity=".081">
<path transform="translate(240.34 80.283)" d="m-103.11 122.74c-1.7043-0.0778-3.0172 0.38809-3.373 1.3496l-12.514 33.814c0.60194-5e-3 1.174 0.0247 1.7266 0.0762 3.9465-0.48373 8.0796-0.91236 12.465-1.2637l10.383-28.057c0.56934-1.5384-1.4891-3.7309-4.6426-4.9258l-0.67578-0.25586c-1.1825-0.44809-2.3466-0.69158-3.3691-0.73829z" fill="url(#linearGradient1285)"/>
</g>
</g>
</svg>
