<svg width="128" height="128" version="1.1" viewBox="0 0 128 128" xmlns="http://www.w3.org/2000/svg">
<defs>
<linearGradient id="linearGradient825" x1="-741.83" x2="-741.83" y1="959.05" y2="93.836" gradientTransform="matrix(.13668 0 0 .13668 162.31 -5.9893)" gradientUnits="userSpaceOnUse"/>
<linearGradient id="linearGradient835" x1="-738.76" x2="-738.76" y1="931.43" y2="152.13" gradientTransform="matrix(.13668 0 0 .13668 162.31 -5.9893)" gradientUnits="userSpaceOnUse"/>
<linearGradient id="linearGradient4476" x2="1" gradientTransform="matrix(.15092 -.48119 .48119 .15092 11.345 16.022)" gradientUnits="userSpaceOnUse"/>
<linearGradient id="linearGradient4490" x2="1" gradientTransform="matrix(11.019 -10.254 10.254 11.019 7.3443 25.237)" gradientUnits="userSpaceOnUse"/>
<linearGradient id="linearGradient1219" x1="11.186" x2="11.186" y1="8.4478" y2="25.173" gradientTransform="translate(4.744 -.93544)" gradientUnits="userSpaceOnUse"/>
<linearGradient id="linearGradient4480-5" x2="1" gradientTransform="matrix(0 -4.0061 4.0061 0 16.177 10.173)" gradientUnits="userSpaceOnUse"/>
</defs>
<circle cx="63.592" cy="64.286" r="61.38" fill="url(#linearGradient825)"/>
<circle cx="63.592" cy="64.286" r="55.09" fill="url(#linearGradient835)"/>
<style><![CDATA[.B{clip-path:url(#C)}.C{fill:#3e2723}.D{fill-opacity:.15}.E{fill-opacity:.2}]]></style>
<image x="11.153" y="18.756" width="101" height="104" opacity=".207"/>
<g transform="matrix(3.7795 0 0 3.7795 1.3039 -.6952)" clip-rule="evenodd" fill-rule="evenodd" stroke-linejoin="round" stroke-miterlimit="1.4142">
<path d="m11.134 15.924c0-0.12617 0.20932-0.22848 0.47261-0.22848 0.01368 0 0.02721 1.52e-4 0.04074 7.6e-4 0.01079 4.56e-4 0.36012 0 0.36012 0l-0.62873 1.6978-0.70352-0.27545s0.45878-1.0685 0.45878-1.1947z" fill="url(#linearGradient4476)" stroke-width=".15201"/>
<path d="m14.85 7.5602c0.02311-0.063086 0.06461-0.10504 0.11188-0.10504 0.03511 0 0.06719 0.02341 0.09075 0.061413l1.0641 1.6496c0.02645 0.0418 0.0982 0.04667 0.13058-3.05e-4l1.0867-1.6493c0.02356-0.038003 0.05564-0.061413 0.0909-0.061413 0.04728 0 0.08862 0.041956 0.11173 0.10504l-2.91e-4 -0.00152 7.1372 17.746c0.03876 0.0868 0.02326 0.11401-0.07768 0.04743l-10.497-6.3443-6.4372 6.4215s7.1822-17.853 7.1881-17.869z" fill="url(#linearGradient1219)" stroke-width=".15201"/>
<path d="m11.659 19.656 4.1468-10.933 0.7061-0.0015 5.4141 13.74-7.1484-4.4941z" fill="#fff" fill-opacity=".2" stroke-width=".15201"/>
<path d="m11.607 16.168h11.182c0.07373-3.04e-4 0.06947 0.02417-7.6e-4 0.06947l-15.353 9.4268c-0.09319 0.05701-0.11447 0.03253-0.06704-0.06977l3.7657-9.6702s-0.03511 0.22133 0.47261 0.24368z" fill="url(#linearGradient4490)" stroke-width=".15201"/>
<path d="m17.435 7.4516h-2.484l1.2261 1.876z" fill="url(#linearGradient4480-5)" stroke-width=".15201"/>
<g transform="matrix(.15201 0 0 .15201 6.2133 6.9973)">
<g fill="#fff" opacity=".35">
<path d="m29.355 65.54c0.089 1.261 1.32 1.653 2.59 1.669l61.472-0.554-83.717 49.311z"/>
<path d="m70.611 3-4.892 7.623-4.665-7.623z"/>
</g>
</g>
</g>
</svg>
