<svg width="128" height="128" version="1.1" viewBox="0 0 33.867 33.867" xmlns="http://www.w3.org/2000/svg">
<defs>
<clipPath>
<rect width="384" height="384"/>
</clipPath>
<clipPath>
<rect width="384" height="384"/>
</clipPath>
<linearGradient id="linearGradient948" x1="122.34" x2="84.091" y1="117.04" y2="71.02" gradientTransform="matrix(.26458 0 0 .26458 -73.214 269.23)" gradientUnits="userSpaceOnUse"/>
<linearGradient id="linearGradient993" x1="-33.316" x2="-21.756" y1="267.26" y2="285.73" gradientUnits="userSpaceOnUse"/>
<clipPath>
<rect width="384" height="384"/>
</clipPath>
<clipPath>
<rect width="384" height="384"/>
</clipPath>
<linearGradient id="linearGradient1194" x1="122.34" x2="84.091" y1="117.04" y2="71.02" gradientTransform="matrix(.26458 0 0 .26458 -114.23 271.81)" gradientUnits="userSpaceOnUse"/>
<linearGradient id="linearGradient1249" x1="20.019" x2="30.204" y1="283.64" y2="294.32" gradientUnits="userSpaceOnUse"/>
<radialGradient id="radialGradient1275" cx="93.66" cy="97.691" r="35.387" gradientTransform="matrix(.99999 .0051079 -.0058242 1.1402 .57072 -13.393)" gradientUnits="userSpaceOnUse"/>
</defs>
<g transform="translate(0 -263.13)">
<g transform="matrix(.97507 -.15 .15 .97507 22.55 10.715)" fill="none" opacity=".389" stroke="#000" stroke-linecap="round" stroke-linejoin="round" stroke-opacity=".039216">
<rect transform="rotate(-.018651)" x="-61.945" y="253.77" width="25.83" height="29.567" rx="1.4423" ry="1.4423" opacity="1" stroke-width=".15" style="paint-order:fill markers stroke"/>
<rect transform="rotate(-.018651)" x="-61.945" y="253.77" width="25.83" height="29.567" rx="1.4423" ry="1.4423" opacity="1" stroke-width=".3" style="paint-order:fill markers stroke"/>
<rect transform="rotate(-.018651)" x="-61.945" y="253.77" width="25.83" height="29.567" rx="1.4423" ry="1.4423" opacity="1" stroke-width=".45" style="paint-order:fill markers stroke"/>
<rect transform="rotate(-.018651)" x="-61.945" y="253.77" width="25.83" height="29.567" rx="1.4423" ry="1.4423" opacity="1" stroke-width=".6" style="paint-order:fill markers stroke"/>
<rect transform="rotate(-.018651)" x="-61.945" y="253.77" width="25.83" height="29.567" rx="1.4423" ry="1.4423" opacity="1" stroke-width=".85" style="paint-order:fill markers stroke"/>
<rect transform="rotate(-.018651)" x="-61.945" y="253.77" width="25.83" height="29.567" rx="1.4423" ry="1.4423" opacity="1" style="paint-order:fill markers stroke"/>
</g>
<rect transform="rotate(-8.764)" x="-40.457" y="264.37" width="25.483" height="29.169" rx="1.4229" ry="1.4229" fill="url(#linearGradient993)" style="paint-order:fill markers stroke"/>
<g class="st0" transform="matrix(.26458 0 0 .26458 -90.714 55.959)" display="none">
<image transform="matrix(.5743 0 0 .5743 67.921 100.17)" width="1253" height="1280" display="inline" overflow="visible"></image>
<path class="st3" d="m526 358.9s10 48.7 12.7 58-8.7-21.3-12.7-20-5.3 59.7 0 69.2 7.7 18.1 7.7 18.1l-17.1 42.4v72.2l-95.9 93.3-10.7-14.5 17.7-49.3 23.7-52.7s8.7-56.7 2-77.3c-6.7-20.7-6-13.3-6-13.3s-8.5 30-9.6 40.7 0 27.3 0 27.3-5.1-5.3-7.1-14.7c-2-9.3 3.5-15.9 7.1-29.9s-0.9-36.1 0-37.3 88.2-112.2 88.2-112.2z" display="inline" fill="#117c13"/>
<path class="st9" d="m656 146.8s-13.4-11-19.4 34 154.5 149.2 141 187.8-69 19.1-133.5 115.1-52.5 214.5-34.5 237c13.9 17.3 16.5-0.1 17-8.9 0.2-3.9 2.1-7.6 5.3-10 4.9-3.7 13.3-6.5 24.1 2.4 18.1 15-21.4-22.1-13.9-89.6s68.1-154.9 98.1-168.4 64.4-24.6 76.5-42.7c11.5-17.3 12.6-60.1-12-92.3-24.6-32.1-63.6-68.6-112.5-111-17.3-15-19.1-39.1-24-45-4-4.7-12.2-8.4-12.2-8.4z" display="inline" fill="#560505"/>
<g class="st10" display="inline">
<path class="st11" d="m783.1 557.7v0.1c-0.4 1.9-5.3 22.1-11.4 32.2-2.8 4.8-6 7.3-9 4.7-3.3-2.8-6.8-4.5-10.3-5.5-9.4-2.7-18.6-0.2-21.8 1-0.8 0.3-1.3 0.5-1.3 0.5s-33.8 21.2-5.8-19.5c38.9-56.5 25-164.5-38.3-192.4-61.8-27.3-62.6-109.7-70.7-152.9-8.2-43.6 27.6-82.7 27.6-82.7l14.4 4 21.1 6c-21.6 9.5-20.9 77.2 0.5 140 5.5 16.1 9 19.9 15.5 28.5 26.6 35.3 66.3 30.6 85.6 81.9 23.9 63.7 3.9 154.1 3.9 154.1z" fill="#c90000"/>
<path class="st12" d="m646.9 144.5 14.2 4 7.6 2.1c-1.2 0.5 6.7 4.1 5.9 5.7-17.8 13.7-16.7 74.4 2 132.4 0.7 2.3 1.5 4.5 2.2 6.6 4.4 12.4 7.6 17 12.5 23.4 1.1 1.4 2.2 2.8 3.4 4.3 26.6 33.8 65.4 29.9 84.4 80.5 24 63.8 3.9 154.1 3.9 154.1v0.1c-0.4 1.9-5.3 22.1-11.4 32.2-2.3 3.8-4.7 6-7.2 4.7-2.7-1.5-5.7-2.5-8.6-3.6-7.3-2.8-14.5-1.7-17.7-1.1-0.6 0.1-1 0.3-1.1 0.2-3.1-0.9-28.7 14.1-11.1-12.7 3-5 6.3-11.1 10.2-18.4 29.7-56.6 14.7-149.3-40.9-178-4.2-2.1-8.2-4.3-12.1-6.6-52.7-29.9-54.9-104.3-62.3-145.9-0.5-2.7-0.8-5.3-1.1-7.8-4.3-38.7 24.3-72.6 27.2-76.2z" display="none" fill="#ac0000"/>
<path class="st13" d="m651.7 145.9 14 3.9 7.5 2.1c-2.4 1.1 0.1 4.5-1.5 7.5-14.8 18.2-12.5 76.4 5.8 131.5 0.8 2.3 1.5 4.5 2.3 6.5 4.4 11.7 7.7 15.9 12.8 22.8 1.1 1.4 2.2 2.8 3.4 4.3 26.5 32.3 64.6 29.2 83.3 79.1 24 63.8 3.9 154.1 3.9 154.1v0.1c-0.4 1.9-5.3 22.1-11.4 32.2-1.7 2.9-3.6 4.7-5.5 4.6-2.3-0.1-4.6-0.5-7-1.8-5.1-2.8-10.4-3.2-13.7-3.2-0.4 0-0.7 0.1-0.9 0-6.3-1.8-23.6 7-16.5-5.9 2.1-4.4 5.4-10.4 10.4-18.6 33.2-54.5 20.7-149.6-33.5-181.8-4-2.4-8.1-4.6-12.2-6.7-55.5-27.8-58.6-102.3-65.8-145.4-0.5-2.7-0.9-5.3-1.2-7.9-5.5-37 20-70.2 25.8-77.4z" display="none" fill="#c40000"/>
<path class="st14" d="m783.1 557.7v0.1c-0.4 1.9-5.3 22.1-11.4 32.2-2.8 4.8-6 7.3-9 4.7-3.3-2.8-6.8-4.5-10.3-5.5-9.4-2.7-18.6-0.2-21.8 1 1.2-3.8 4.4-9.8 10.5-18.8 38.9-56.6 25-164.5-38.3-192.4-61.8-27.3-62.6-109.8-70.7-152.9-6.7-35.5 15.8-68.1 24.4-78.9l21.1 6c-21.6 9.5-20.9 77.2 0.5 140 5.5 16.1 9 19.9 15.5 28.5 26.6 35.3 66.3 30.6 85.6 81.9 23.9 63.7 3.9 154.1 3.9 154.1z" display="none" fill="#d00"/>
<path class="st15" d="m685.1 151.8c0 0.8-0.1 1.7-0.2 2.4-3.5 24.9-34.3 3.3-34.3 3.3s-35.8-8.4-19.6-23.8c1.4-1.4 3.3-2.8 5.6-4.2 34.5-21.9 18.3 5.3 28.5 7 11.7 2 21.6-10.6 20 15.3z" fill="#b20000"/>
<path class="st16" d="m685.1 154c-0.1 0.9-0.1 1.8-0.2 2.6-6.4 17.5-32.2-1.7-32.2-1.7s-28.7-7.1-21.6-20.2c1.4-1.5 3.3-3 5.6-4.5 34.5-23.5 18.3 5.7 28.5 7.5 11.6 2 21.5-11.5 19.9 16.3z" display="none" fill="#ad0505"/>
<path class="st17" d="m685.1 156.2c0 1-0.1 1.9-0.2 2.8-9.3 10-30.2-6.8-30.2-6.8s-21.7-5.8-23.7-16.7c1.4-1.5 3.3-3.2 5.6-4.8 34.5-25 18.3 6 28.5 8 11.7 2.2 21.6-12.2 20 17.5z" display="none" fill="#cc0606"/>
</g>
</g>
<g class="st18" transform="matrix(.26458 0 0 .26458 -90.714 55.959)" display="none" opacity=".27">
<image transform="matrix(.5924 -.026595 .027027 .6021 62.32 126.41)" width="1130" height="1280" display="inline" overflow="visible"></image>
</g>
<path d="m20.041 268.2c-0.02372 0.13284-0.04121 0.21584-0.06631 0.33693-0.0037 0.0174-0.0061 0.0292-0.01027 0.0489 1e-4 3.4e-4 2.48e-4 6.7e-4 3.36e-4 2e-3 -1.32e-4 6.7e-4 -2.14e-4 7.6e-4 -3.36e-4 2e-3 -0.05746 0.25995-0.09028 0.39129-0.1669 0.65125 0.21724 1.2028 0.22816 2.4412 0.11695 3.6537-0.59904 0.54161-1.2226 1.1188-1.6739 1.7808-0.98509 1.4475-1.6117 3.2809-2.8841 4.5314-0.51717 0.50623-1.1192 0.94666-1.7376 1.3352 0.32563 0.0492 0.68675 0.0822 1.0124 0.0137-0.65673 0.42688-1.3927 0.83463-1.929 1.4038-0.26543 0.27911-0.54179 0.56099-0.799 0.85104 0.20796-0.13134 0.45415-0.27924 0.7059-0.28193 0.41593-5e-3 1.2122-0.48157 1.2122-0.48157s-1.4994 0.99608-2.1151 1.6118c-0.35025 0.35026-0.74705 0.68126-1.0481 1.0808-0.27094 0.36118-0.27359 0.35574-0.27359 0.35574 0.50623-0.19155 1.0179-0.39122 1.5488-0.50889-0.21344 0.0794-0.31742 0.11756-0.5336 0.19144-0.47065 0.19155-1.0097 0.33666-1.412 0.57745-0.72514 0.43508-1.4449 1.5515-1.9483 2.2876-0.26816 0.38856-0.70871 0.71973-0.92762 1.1192-0.12587 0.22985-0.11225 0.47061-0.082145 0.53081 0.22165 0.41867 1.3299 0.7716 1.9374 0.92483 0.73061 0.18061 1.4968 0.2628 2.2493 0.29291 0.44602-0.0958 0.90852-0.28467 1.2369-0.60756 0.44603-0.43782 1.0891-0.8619 1.3464-1.4283 0.14776-0.32015 0.37484-0.50621 0.38306-0.51167-0.33657 0.5719-0.70598 1.1247-1.1055 1.65-0.19154 0.24901-0.45424 0.5637-0.45424 0.5637 0.44602-0.16418 0.91115-0.43239 1.349-0.50627 0.2709-0.0465 0.56928-0.17525 0.77725-0.37226 0.22165-0.2107 0.55813-0.29272 0.75515-0.50889 0.54454-0.59926 0.9112-1.5132 1.4311-2.1426 0.06567-0.0793 0.22437-0.28736 0.34477-0.45702 0.09577-0.13681 0.17247-0.25165 0.17247-0.25165-0.27637 0.64304-0.55275 1.297-0.85922 1.9208-0.0027 5e-3 -0.0055 0.0111-0.0082 0.0165-0.09304 0.17239-0.22997 0.34208-0.37227 0.49531-0.01915 0.0219-0.03828 0.0409-0.05743 0.0628-0.02463 0.0273-0.01099 0.0273 0.02732 5e-3 0.55548-0.301 1.048-0.75786 1.5789-1.119 0.01642-0.0109 0.03291-0.0191 0.04386-0.0274 0.39677-0.23532 0.74969-0.654 1.0425-0.98784 0.27637-0.31468 0.41603-0.50634 0.48992-0.95511 0.0027-0.0137 0.0027-0.0246 0.0054-0.0383 0.0903-0.64852 0.18615-1.2997 0.32023-1.9428 0.02736-0.13408 0.04919-0.24629 0.06561-0.33659 0-0.011 0.0028-0.0245 0.0056-0.0355 0.0027-0.0219 0.0081-0.0466 0.01079-0.0658 0.0027-0.011 0.0028-0.0192 0.0056-0.0301 0.0027-0.0192 0.0054-0.0356 0.0082-0.0492v-3e-3c0-8e-3 0.0054-0.0383 0.0082-0.0493 0.0055-0.0301 0.04107-0.13419 0.04107-0.13419s0.0028 0.0246 0.0028 0.0383v0.0275c-0.02189 1.1356-0.20255 2.3587-0.03289 3.4752 0.12587 0.82638 0.1998 0.65664 0.1998 0.65664 0.07388-0.97414-0.02461-2.1589 0.28734-3.0455 0.2107-0.59926 0.54719-1.2477 0.65664-1.8935 0.11219-0.6622 0.10953-1.3682 0.09311-2.0469-0.02189-0.87836-0.07666-1.765-0.19979-2.6407 0.11493 0.41593 0.28459 0.85386 0.30648 1.2807 0.02189 0.40498 0.03291 0.82351 0.04386 1.2367 0.09304-0.50897 0.16402-1.0535 0.1093-1.5707-0.05199-0.47612 0.03842-0.96319-0.01358-1.4311-0.06841-0.61295-0.09024-1.2752-0.29273-1.858-0.18759-0.54957-0.42788-1.0991-0.57728-1.6511 0.0049-0.0681 0.01041-0.1363 0.01358-0.20415 0.07387-1.6198 0.06555-3.2504-0.36391-4.8374-1.4e-5 -5e-5 1.5e-5 -1.1e-4 0-1.7e-4 2.4e-5 -1.3e-4 -2.4e-5 -2.1e-4 0-3.4e-4z" fill="#fff" stroke-width=".027364"/>
<path transform="matrix(.26458 0 0 .26458 0 263.13)" d="m86.807 45.451a45.227 45.227 0 0 0-45.227 45.227 45.227 45.227 0 0 0 10.83 29.287l55.383-8.5371c2.9446-0.45394 4.95-3.1902 4.4961-6.1348l-8.7226-56.584a45.227 45.227 0 0 0-16.76-3.2578z" fill="url(#radialGradient1275)"/>
<circle cx="25.122" cy="288.46" r="8.0129" fill="url(#linearGradient1249)"/>
<path d="m21.213 283.18 0.46208 0.0989q-0.06192 0.17648-0.1462 0.33155l2.2105-0.0471 0.03686 1.729-3.2829 0.07 0.0061 0.28451 3.8738-0.0826 0.0075 0.35017-3.8738 0.0826 0.0061 0.28452 3.9175-0.0835q-0.03533 1.424-0.18247 1.7118-0.12479 0.3092-0.49684 0.31713-0.17508 4e-3 -0.54854-0.054l-0.09687-0.43585q0.4172 0.0569 0.5923 0.0531 0.13132-3e-3 0.17229-0.13504 0.0624-0.15459 0.08657-1.0747l-3.8738 0.0826-0.06438-3.0202 1.0286-0.0219q0.10476-0.22119 0.16575-0.44146zm-0.74921 0.80423 0.0075 0.35017 2.8451-0.0607-0.0075-0.35016zm0.01446 0.67845 0.0075 0.35017 2.8451-0.0607-0.0075-0.35016zm0.98634 2.1029 0.43772-9e-3 0.01259 0.59091 1.0724-0.0228-0.01166-0.54715 0.41583-9e-3 0.01912 0.89732-2.9765 0.0635 0.0079 0.37204-0.43772 9e-3 -0.02659-1.2475 0.43772-9e-3 0.0112 0.52524 1.0505-0.0224z" fill="#fff" stroke-width=".22952"/>
<path d="m26.213 289.44c-0.08059 2e-3 -0.1441 0.0687-0.14236 0.14941l0.0043 0.20022-1.1372 0.0241c-0.08059 2e-3 -0.1441 0.068-0.14239 0.14863l0.0083 0.38937c0.0017 0.0804 0.06797 0.14414 0.14857 0.14241l2.1769-0.0462c-0.05299 0.39435-0.25286 0.81789-0.59395 1.2591-0.23086-0.35292-0.38148-0.69741-0.46826-0.92663-0.02191-0.0578-0.07805-0.095-0.13983-0.0938l-0.35768 8e-3c-0.04641 3.7e-4 -0.0901 0.0241-0.11681 0.0624-0.02665 0.0382-0.03364 0.0863-0.01861 0.13045 0.09055 0.26541 0.29721 0.78558 0.6699 1.311-0.41806 0.42402-0.83692 0.7328-0.99908 0.84648-0.06453 0.0453-0.08181 0.1335-0.03858 0.19943l0.18666 0.28368c0.02152 0.0327 0.05526 0.0555 0.09381 0.063 0.01041 2e-3 0.02048 2e-3 0.03081 2e-3 0.02837-1e-3 0.05631-9e-3 0.07993-0.0257 0.16704-0.11492 0.59974-0.42861 1.0506-0.87927 0.17405 0.17383 0.58096 0.47683 0.82184 0.64432 0.03675 0.0256 0.08334 0.0326 0.1262 0.02 0.0429-0.0133 0.07789-0.0459 0.09402-0.0876l0.12654-0.33057c0.02559-0.0664-8.27e-4 -0.14142-0.06199-0.17759-0.15661-0.0926-0.45156-0.28317-0.6945-0.53403 0.5085-0.62133 0.7929-1.2231 0.8464-1.7884l0.11552-2e-3c0.08059-2e-3 0.1441-0.068 0.14239-0.14863l-0.0083-0.38936c-0.0018-0.0805-0.06795-0.14412-0.14857-0.1424l-1.1372 0.0241-0.0043-0.20023c-0.0018-0.0807-0.06795-0.1449-0.14858-0.1432zm2.7763 0.40084c-0.06421 1e-3 -0.11982 0.0448-0.13729 0.10661l-0.90142 3.1892c-0.01254 0.0445-0.0035 0.092 0.02501 0.12874 0.02829 0.0366 0.07216 0.0576 0.11849 0.0566l0.50315-0.0111c0.06552-1e-3 0.12186-0.0466 0.13805-0.10993l0.20078-0.78589 0.99091-0.021 0.25198 0.7797c0.01981 0.0613 0.07811 0.10196 0.14252 0.10063l0.53397-0.0113c0.04635-3.9e-4 0.09014-0.0237 0.11684-0.0616 0.02674-0.0379 0.03338-0.0866 0.01861-0.13043l-1.0487-3.147c-0.0203-0.0608-0.07769-0.10196-0.14168-0.10063zm0.38211 0.57831 0.0093 5.1e-4 0.42081 1.3934-0.76586 0.0163z" fill="#fff" stroke-width=".036827"/>
</g>
<style type="text/css">.st0{display:none;}
	.st1{fill:#E5E5E5;}
	.st2{fill:#B7B7B7;}
	.st3{display:inline;fill:#117C13;}
	.st4{fill:#0C0C0C;}
	.st5{fill:#117C13;}
	.st6{fill:#2B2B2B;}
	.st7{fill:#4E4F4E;}
	.st8{fill:#666666;}
	.st9{display:inline;fill:#560505;}
	.st10{display:inline;}
	.st11{fill:#C90000;}
	.st12{display:none;fill:#AC0000;}
	.st13{display:none;fill:#C40000;}
	.st14{display:none;fill:#DD0000;}
	.st15{fill:#B20000;}
	.st16{display:none;fill:#AD0505;}
	.st17{display:none;fill:#CC0606;}
	.st18{display:none;opacity:0.27;}</style>
</svg>
