<svg width="128" height="128" version="1.1" viewBox="0 0 128 128" xml:space="preserve" xmlns="http://www.w3.org/2000/svg">
<style type="text/css">
	.st0{fill:url(#SVGID_1_);}
	.st1{fill:url(#SVGID_2_);}
	.st2{fill:url(#SVGID_3_);}
</style>
<radialGradient id="SVGID_1_" cx="512" cy="512" r="447" gradientTransform="translate(0,-896)" gradientUnits="userSpaceOnUse">
	<stop stop-color="#A7D7EC" offset="0"/>
	<stop stop-color="#A2CFEB" offset="1"/>
</radialGradient>

<radialGradient id="SVGID_2_" cx="508.12" cy="108.69" r="794.71" gradientTransform="translate(0,-896)" gradientUnits="userSpaceOnUse">
	<stop stop-color="#4D5E66" offset="0"/>
	<stop stop-color="#1A2327" offset="1"/>
</radialGradient>

<g transform="matrix(.13911 0 0 .13911 -7.0001 118.56)"><circle class="st0" cx="512" cy="-384" r="447" fill="url(#SVGID_1_)"/><circle class="st1" cx="512" cy="-384" r="409" fill="url(#SVGID_2_)"/><g transform="translate(0,-896)">
	
		<image transform="matrix(.48 0 0 .48 277.56 285.24)" width="977" height="974" opacity=".25" overflow="visible">
	</image>
	
		
			
				<radialGradient id="SVGID_3_" cx="512" cy="513" r="200.74" gradientUnits="userSpaceOnUse">
					<stop stop-color="#A7D7EC" offset="0"/>
					<stop stop-color="#A2CFEB" offset="1"/>
				</radialGradient>
				<path class="st2" d="m340.5 408c33.2-53.8 91.3-91.3 158.3-95.5-35.9 59.6-71.7 119.2-107.6 178.8zm184.2-95.5c64.4 4.2 120.8 38.5 154.6 89.2h-207.9zm167.2 111.3c13.7 26.9 21.1 57 21.1 89.2 0 29.5-6.3 57.5-17.4 82.8-34.3-57.5-68.6-115-103.4-172zm-9 194.7c-32.7 53.8-90.7 90.7-157.2 95l107.1-178.8zm-183 95c-64.9-3.7-120.8-38-155.1-88.6h208.4zm-167.8-110.8c-13.7-26.9-21.1-57.5-21.1-89.7 0-29 6.3-57 17.4-82.3l103.4 172z" fill="url(#SVGID_3_)"/>
			
		
	
</g></g>
</svg>
