<svg width="128" height="128" version="1.1" viewBox="0 0 33.867 33.867" xmlns="http://www.w3.org/2000/svg">
<defs>
<linearGradient id="linearGradient897" x1="2686" x2="2686" y1="1088.8" y2="1770.4" gradientTransform="matrix(.042779 0 0 .042779 -95.919 -44.867)" gradientUnits="userSpaceOnUse"/>
<radialGradient id="radialGradient898" cx="60.636" cy="20.456" r="17.304" gradientTransform="translate(-43.433 -3.9449)" gradientUnits="userSpaceOnUse"/>
<radialGradient id="radialGradient993" cx="17.203" cy="2.8168" r="13.696" gradientTransform="matrix(2.1691 0 0 1.6119 -20.112 -1.7235)" gradientUnits="userSpaceOnUse"/>
<linearGradient id="linearGradient946" x1="31.833" x2="32.167" y1="51.559" y2="11.098" gradientTransform="matrix(.53757 0 0 .53757 .61302 -.66296)" gradientUnits="userSpaceOnUse">
<stop stop-color="#f9f9f9" offset="0"/>
<stop stop-color="#f0fee6" offset="1"/>
</linearGradient>
</defs>
<circle cx="17.203" cy="16.512" r="17.304" fill="url(#radialGradient898)" opacity=".30973" stroke-linecap="square" stroke-linejoin="round" stroke-width="3"/>
<circle cx="17.203" cy="16.512" r="15.118" fill="url(#linearGradient897)" stroke="#b1aaaa" stroke-linecap="square" stroke-opacity=".99216" stroke-width=".057556"/>
<circle cx="17.203" cy="16.512" r="13.696" fill="url(#radialGradient993)"/>
<image x="6.6744" y="5.416" width="23.548" height="23.548" opacity=".28432"/>
<path d="m17.815 6.8631a9.6763 9.6763 0 0 0-7.8303 4.0117l1.3878 0.83458a8.0636 8.0636 0 0 1 6.4428-3.2335 8.0636 8.0636 0 0 1 8.0636 8.0636 8.0636 8.0636 0 0 1-8.0636 8.0636 8.0636 8.0636 0 0 1-6.4428-3.2287l-1.3894 0.83378a9.6763 9.6763 0 0 0 7.8325 4.0076 9.6763 9.6763 0 0 0 9.6763-9.6763 9.6763 9.6763 0 0 0-9.6763-9.6763zm-9.6763 4.0318v11.289l9.6763-5.6445zm9.6763 0a5.6445 5.6445 0 0 0-4.356 2.0635l1.4047 0.84265a4.0318 4.0318 0 0 1 2.9513-1.2934 4.0318 4.0318 0 0 1 4.0318 4.0318 4.0318 4.0318 0 0 1-4.0318 4.0318 4.0318 4.0318 0 0 1-2.9529-1.2934l-1.4047 0.84426a5.6445 5.6445 0 0 0 4.3576 2.0619 5.6445 5.6445 0 0 0 5.6445-5.6445 5.6445 5.6445 0 0 0-5.6445-5.6445z" fill="url(#linearGradient946)" stroke-width=".53757"/>
</svg>
