<svg width="128" height="128" version="1.1" viewBox="0 0 33.867 33.867" xmlns="http://www.w3.org/2000/svg">
<defs>
<linearGradient id="linearGradient897" x1="2686" x2="2686" y1="1088.8" y2="1770.4" gradientTransform="matrix(.042779 0 0 .042779 -95.919 -44.867)" gradientUnits="userSpaceOnUse"/>
<radialGradient id="radialGradient898" cx="60.636" cy="20.456" r="17.304" gradientTransform="translate(-43.433 -3.9449)" gradientUnits="userSpaceOnUse"/>
<radialGradient id="radialGradient993" cx="16.968" cy="4.6709" r="13.696" gradientTransform="matrix(4.8886 0 0 1.8641 -65.724 -2.4383)" gradientUnits="userSpaceOnUse"/>
<linearGradient id="linearGradient1319" x1="8.5748" x2="23.294" y1="17.073" y2="52.14" gradientTransform="translate(.40722 -1.3004)" gradientUnits="userSpaceOnUse"/>
</defs>
<circle cx="17.203" cy="16.512" r="17.304" fill="url(#radialGradient898)" opacity=".30973" stroke-linecap="square" stroke-linejoin="round" stroke-width="3"/>
<circle cx="17.203" cy="16.512" r="15.118" fill="url(#linearGradient897)" stroke="#b1aaaa" stroke-linecap="square" stroke-opacity=".99216" stroke-width=".057556"/>
<circle cx="17.203" cy="16.512" r="13.102" fill="url(#radialGradient993)"/>
<g transform="translate(.40722 -1.3004)" fill="#2d024e" fill-rule="evenodd" stroke-width="2.0222">
<path d="m15.6 8.803c-3.6764 0.17391-6.554 3.5085-6.4064 5.3204 0.14155 1.7654 4.6127 3.3144 4.5601 3.367-0.91404 0.77249-1.5167 1.2942-2.2811 1.9919-1.8362 1.6784-3.1041 2.9221-2.461 4.6693 0.74215 2.0141 2.366 1.9312 4.2709 1.5571 4.918-0.97066 13.009-7.191 12.598-9.4842-0.33367-1.8584-4.8574-5.5287-7.5307-6.8432a5.6582 5.6582 0 0 0-2.7502-0.57835zm0.76035 3.185c0.45904-0.04247 0.99493 0.07279 1.5915 0.364 1.3043 0.62891 2.6552 2.3033 0 3.2558-0.72193 0.25884-3.0374-0.62284-2.9666-1.8463 0.0627-1.1284 0.60666-1.7007 1.3751-1.7735z" fill-opacity=".076791"/>
<path d="m16.45 9.9979c-3.6764 0.17391-6.554 3.5085-6.4064 5.3204 0.14155 1.7654 4.6127 3.3144 4.5601 3.367-0.91404 0.77249-1.5167 1.2942-2.2811 1.9919-1.8362 1.6784-3.1041 2.9221-2.461 4.6693 0.74215 2.0141 2.366 1.9312 4.2709 1.5571 4.918-0.97066 13.009-7.191 12.598-9.4842-0.33367-1.8584-4.8574-5.5287-7.5307-6.8432a5.6582 5.6582 0 0 0-2.7502-0.57835zm0.76035 3.185c0.45904-0.04247 0.99493 0.07279 1.5915 0.364 1.3043 0.62891 2.6552 2.3033 0 3.2558-0.72193 0.25884-3.0374-0.62284-2.9666-1.8463 0.0627-1.1284 0.60666-1.7007 1.3751-1.7735z" fill-opacity=".030703"/>
<path d="m15.795 9.1007c-3.6764 0.17391-6.554 3.5085-6.4064 5.3204 0.14155 1.7654 4.6127 3.3144 4.5601 3.367-0.91404 0.77249-1.5167 1.2942-2.2811 1.9919-1.8362 1.6784-3.1041 2.9221-2.461 4.6693 0.74215 2.0141 2.366 1.9312 4.2709 1.5571 4.918-0.97066 13.009-7.191 12.598-9.4842-0.33367-1.8584-4.8574-5.5287-7.5307-6.8432a5.6582 5.6582 0 0 0-2.7502-0.57835zm0.76035 3.185c0.45904-0.04247 0.99493 0.07279 1.5915 0.364 1.3043 0.62891 2.6552 2.3033 0 3.2558-0.72193 0.25884-3.0374-0.62284-2.9666-1.8463 0.0627-1.1284 0.60666-1.7007 1.3751-1.7735z" fill-opacity=".063652"/>
<path d="m16.145 9.5186c-3.6764 0.17391-6.554 3.5085-6.4064 5.3204 0.14155 1.7654 4.6127 3.3144 4.5601 3.367-0.91404 0.77249-1.5167 1.2942-2.2811 1.9919-1.8362 1.6784-3.1041 2.9221-2.461 4.6693 0.74215 2.0141 2.366 1.9312 4.2709 1.5571 4.918-0.97066 13.009-7.191 12.598-9.4842-0.33367-1.8584-4.8574-5.5287-7.5307-6.8432a5.6582 5.6582 0 0 0-2.7502-0.57835zm0.76035 3.185c0.45904-0.04247 0.99493 0.07279 1.5915 0.364 1.3043 0.62891 2.6552 2.3033 0 3.2558-0.72193 0.25884-3.0374-0.62284-2.9666-1.8463 0.0627-1.1284 0.60666-1.7007 1.3751-1.7735z" fill-opacity=".063652"/>
<path d="m16.734 10.53c-3.6764 0.17391-6.554 3.5085-6.4064 5.3204 0.14155 1.7654 4.6127 3.3144 4.5601 3.367-0.91404 0.77249-1.5167 1.2942-2.2811 1.9919-1.8362 1.6784-3.1041 2.9221-2.461 4.6693 0.74215 2.0141 2.366 1.9312 4.2709 1.5571 4.918-0.97066 13.009-7.191 12.598-9.4842-0.33367-1.8584-4.8574-5.5287-7.5307-6.8432a5.6582 5.6582 0 0 0-2.7502-0.57835zm0.76035 3.185c0.45904-0.04247 0.99493 0.07279 1.5915 0.364 1.3043 0.62891 2.6552 2.3033 0 3.2558-0.72193 0.25884-3.0374-0.62284-2.9666-1.8463 0.0627-1.1284 0.60666-1.7007 1.3751-1.7735z" fill-opacity=".030703"/>
</g>
<path d="m15.74 7.2172c-3.6764 0.17391-6.554 3.5085-6.4064 5.3204 0.14155 1.7654 4.6127 3.3144 4.5601 3.367-0.91404 0.77249-1.5167 1.2942-2.2811 1.9919-1.8362 1.6784-3.1041 2.9221-2.461 4.6693 0.74215 2.0141 2.366 1.9312 4.2709 1.5571 4.918-0.97066 13.009-7.191 12.598-9.4842-0.33367-1.8584-4.8574-5.5287-7.5307-6.8432a5.6582 5.6582 0 0 0-2.7502-0.57835zm0.76035 3.185c0.45904-0.04247 0.99493 0.07279 1.5915 0.364 1.3043 0.62891 2.6552 2.3033 0 3.2558-0.72193 0.25884-3.0374-0.62284-2.9666-1.8463 0.0627-1.1284 0.60666-1.7007 1.3751-1.7735z" fill="url(#linearGradient1319)" fill-rule="evenodd" stroke-width="2.0222"/>
</svg>
