<svg width="128" height="128" version="1.1" viewBox="0 0 33.867 33.867" xmlns="http://www.w3.org/2000/svg">
<defs>
<linearGradient id="linearGradient897" x1="2686" x2="2686" y1="1088.8" y2="1770.4" gradientTransform="matrix(.042779 0 0 .042779 -96.062 -44.406)" gradientUnits="userSpaceOnUse"/>
<radialGradient id="radialGradient867" cx="17.06" cy="4.6972" r="13.696" gradientTransform="matrix(4.6514 0 0 1.6235 -62.293 -2.9287)" gradientUnits="userSpaceOnUse"/>
<linearGradient id="linearGradient889" x1="69.906" x2="69.906" y1="52.122" y2="130.46" gradientUnits="userSpaceOnUse"/>
</defs>
<image x="-.24453" y="-.33573" width="34.608" height="34.608" opacity=".41188"/>
<circle cx="17.06" cy="16.973" r="15.118" fill="url(#linearGradient897)" stroke="#b1aaaa" stroke-linecap="square" stroke-opacity=".99216" stroke-width=".057556"/>
<circle cx="17.06" cy="16.973" r="13.696" fill="url(#radialGradient867)"/>
<g transform="matrix(1.6725 0 0 1.6725 -12.706 -11.754)" fill="#700303" fill-opacity=".25015" aria-label="T">
<g fill="#700303" fill-opacity=".25015">
<path transform="scale(.26458)" d="m53.88 49.474c-0.52216-1.85e-4 -0.9455 0.42316-0.94531 0.94531v8.4526c-1.85e-4 0.52216 1.3458 0.9455 1.8679 0.94531h7.8097l0.04147 20.916c-1.85e-4 0.52216 0.42315 0.9455 0.94531 0.94531h8.4106c0.52216 1.85e-4 0.9455-0.42315 0.94531-0.94531v-20.777h8.7188c0.5214-8.92e-4 0.94355-0.42392 0.94336-0.94531v-8.5916c1.86e-4 -0.5214-0.42196-0.94442-0.94336-0.94531z" color="#000000" color-rendering="auto" dominant-baseline="auto" fill="#700303" fill-opacity=".25015" image-rendering="auto" shape-rendering="auto" solid-color="#000000" stop-color="#000000" style="font-feature-settings:normal;font-variant-alternates:normal;font-variant-caps:normal;font-variant-east-asian:normal;font-variant-ligatures:normal;font-variant-numeric:normal;font-variant-position:normal;font-variation-settings:normal;inline-size:0;isolation:auto;mix-blend-mode:normal;shape-margin:0;shape-padding:0;text-decoration-color:#000000;text-decoration-line:none;text-decoration-style:solid;text-indent:0;text-orientation:mixed;text-transform:none;white-space:normal"/>
</g>
</g>
<g transform="matrix(1.6725 0 0 1.6725 -13.136 -12.701)" aria-label="T">
<g>
<path transform="scale(.26458)" d="m54.803 51.533a0.94498 0.94498 0 0 0-0.94531 0.94531v7.4395a0.94498 0.94498 0 0 0 0.94531 0.94531h8.7402v20.773a0.94498 0.94498 0 0 0 0.94531 0.94531h7.5215a0.94498 0.94498 0 0 0 0.94531-0.94531v-20.773h8.7188a0.94498 0.94498 0 0 0 0.94336-0.94531v-7.4395a0.94498 0.94498 0 0 0-0.94336-0.94531z" color="#000000" color-rendering="auto" dominant-baseline="auto" fill="url(#linearGradient889)" image-rendering="auto" shape-rendering="auto" solid-color="#000000" stop-color="#000000" style="font-feature-settings:normal;font-variant-alternates:normal;font-variant-caps:normal;font-variant-east-asian:normal;font-variant-ligatures:normal;font-variant-numeric:normal;font-variant-position:normal;font-variation-settings:normal;inline-size:0;isolation:auto;mix-blend-mode:normal;shape-margin:0;shape-padding:0;text-decoration-color:#000000;text-decoration-line:none;text-decoration-style:solid;text-indent:0;text-orientation:mixed;text-transform:none;white-space:normal"/>
</g>
</g>
</svg>
