<svg width="128" height="128" version="1.1" viewBox="0 0 33.867 33.867" xmlns="http://www.w3.org/2000/svg">
<defs>
<linearGradient id="linearGradient897" x1="2686" x2="2686" y1="1088.8" y2="1770.4" gradientTransform="matrix(.042779 0 0 .042779 -96.062 -44.406)" gradientUnits="userSpaceOnUse"/>
<radialGradient id="radialGradient867" cx="17.06" cy="4.6972" r="13.696" gradientTransform="matrix(4.6514 0 0 1.6235 -62.293 -2.9287)" gradientUnits="userSpaceOnUse"/>
<linearGradient id="linearGradient1049" x1="13.303" x2="13.303" y1="10.879" y2="49.316" gradientUnits="userSpaceOnUse"/>
</defs>
<image x="-.24453" y="-.33573" width="34.608" height="34.608" opacity=".41188"/>
<circle cx="17.06" cy="16.973" r="15.118" fill="url(#linearGradient897)" stroke="#b1aaaa" stroke-linecap="square" stroke-opacity=".99216" stroke-width=".057556"/>
<circle cx="17.06" cy="16.973" r="13.696" fill="url(#radialGradient867)"/>
<g transform="translate(.46018 .6416)" fill="#dc3c05" fill-opacity=".27387" stroke="#4de793" stroke-linecap="round" stroke-linejoin="round" stroke-width="1.3" aria-label="S">
<g fill="#dc3c05" fill-opacity=".27387">
<path d="m16.812 10.094c-1.5426 0-2.8205 0.34404-3.7475 1.1166-0.92563 0.77136-1.3941 1.9268-1.3941 3.2626 0 1.0802 0.33508 2.041 1.0174 2.7365 4.99e-4 7.01e-4 9.99e-4 0.0014 0.0015 0.0021 0.6884 0.69502 1.6893 1.1368 2.9639 1.4099l1.1925 0.26331c0.68498 0.1511 1.112 0.35855 1.1667 0.40473 0.0019 0.0014 0.0039 0.0028 0.0058 0.0042 0.09179 0.07583 0.1277 0.12553 0.1277 0.3546 0 0.2272-0.02358 0.27457-0.22532 0.40103-0.19976 0.12522-0.5965 0.23534-1.1968 0.23534-0.59551 0-1.2234-0.09053-1.8885-0.27914-0.66022-0.19393-1.354-0.48387-2.0838-0.87172-0.44225-0.23539-0.97588 0.08526-0.97567 0.58624l-0.44426 2.0953c1.38e-4 0.27755 0.17295 0.52572 0.43322 0.62213 0.79811 0.2958 2.0421 1.0342 2.8452 1.1858 0.8043 0.15186 1.6098 0.22743 2.4115 0.22743 1.6983 0 3.0528-0.32888 4.0066-1.1129 5.35e-4 -6.99e-4 0.0011-0.0014 0.0016-0.0021 0.95744-0.7881 1.42-2.0112 1.42-3.4642 0-1.1292-0.33482-2.1164-1.0427-2.8041-0.71088-0.69057-1.7732-1.113-3.1729-1.3941l-1.3123-0.26331h-0.0021c-0.57518-0.11828-0.9404-0.27754-1.0274-0.33877-0.07998-0.06176-0.0934-0.06904-0.0934-0.22373 0-0.24542 0.01884-0.26818 0.19735-0.37095 0.1797-0.10346 0.62713-0.2174 1.3044-0.2174 0.49676 0 1.0369 0.06795 1.6194 0.20738 0.5814 0.13914 1.1842 0.34702 1.8089 0.62635 0.43932 0.19669 0.93537-0.12496 0.93504-0.6063l-0.2746-2.9862c4.28e-4 -0.3009-0.2016-0.56445-0.49228-0.64219-0.76609-0.20392-1.2354 0.0952-1.959-0.0052h-0.0042c-0.72363-0.10553-1.4309-0.15931-2.1218-0.15931z" color="#000000" color-rendering="auto" dominant-baseline="auto" fill="#dc3c05" fill-opacity=".27387" image-rendering="auto" shape-rendering="auto" solid-color="#000000" stop-color="#000000" stroke="none" style="font-feature-settings:normal;font-variant-alternates:normal;font-variant-caps:normal;font-variant-east-asian:normal;font-variant-ligatures:normal;font-variant-numeric:normal;font-variant-position:normal;font-variation-settings:normal;inline-size:0;isolation:auto;mix-blend-mode:normal;shape-margin:0;shape-padding:0;text-decoration-color:#000000;text-decoration-line:none;text-decoration-style:solid;text-indent:0;text-orientation:mixed;text-transform:none;white-space:normal"/>
</g>
</g>
<g fill="url(#linearGradient1049)" stroke="#4de793" stroke-linecap="round" stroke-linejoin="round" stroke-width="1.3" aria-label="S">
<g fill="url(#linearGradient1049)">
<path d="m16.812 10.094c-1.5426 0-2.8205 0.34404-3.7475 1.1166-0.92563 0.77136-1.3941 1.9268-1.3941 3.2626 0 1.0802 0.33508 2.041 1.0174 2.7365a0.66379 0.66379 0 0 0 0.0015 0.0021c0.6884 0.69502 1.6893 1.1368 2.9639 1.4099l1.1925 0.26331c0.68498 0.1511 1.112 0.35855 1.1667 0.40473a0.66379 0.66379 0 0 0 0.0058 0.0042c0.09179 0.07583 0.1277 0.12553 0.1277 0.3546 0 0.2272-0.02358 0.27457-0.22532 0.40103-0.19976 0.12522-0.5965 0.23534-1.1968 0.23534-0.59551 0-1.2234-0.09053-1.8885-0.27914-0.66022-0.19393-1.354-0.48387-2.0838-0.87172a0.66379 0.66379 0 0 0-0.97567 0.58624v2.6088a0.66379 0.66379 0 0 0 0.43322 0.62213c0.79811 0.2958 1.5978 0.52062 2.4009 0.67226 0.8043 0.15186 1.6098 0.22743 2.4115 0.22743 1.6983 0 3.0528-0.32888 4.0066-1.1129a0.66379 0.66379 0 0 0 0.0016-0.0021c0.95744-0.7881 1.42-2.0112 1.42-3.4642 0-1.1292-0.33482-2.1164-1.0427-2.8041-0.71088-0.69057-1.7732-1.113-3.1729-1.3941l-1.3123-0.26331h-0.0021c-0.57518-0.11828-0.9404-0.27754-1.0274-0.33877-0.07998-0.06176-0.0934-0.06904-0.0934-0.22373 0-0.24542 0.01884-0.26818 0.19735-0.37095 0.1797-0.10346 0.62713-0.2174 1.3044-0.2174 0.49676 0 1.0369 0.06795 1.6194 0.20738 0.5814 0.13914 1.1842 0.34702 1.8089 0.62635a0.66379 0.66379 0 0 0 0.93504-0.6063v-2.5349a0.66379 0.66379 0 0 0-0.49228-0.64219c-0.76609-0.20392-1.51-0.35608-2.2336-0.45644h-0.0042c-0.72363-0.10558-1.4309-0.15936-2.1218-0.15936z" color="#000000" color-rendering="auto" dominant-baseline="auto" fill="url(#linearGradient1049)" image-rendering="auto" shape-rendering="auto" solid-color="#000000" stop-color="#000000" stroke="none" style="font-feature-settings:normal;font-variant-alternates:normal;font-variant-caps:normal;font-variant-east-asian:normal;font-variant-ligatures:normal;font-variant-numeric:normal;font-variant-position:normal;font-variation-settings:normal;inline-size:0;isolation:auto;mix-blend-mode:normal;shape-margin:0;shape-padding:0;text-decoration-color:#000000;text-decoration-line:none;text-decoration-style:solid;text-indent:0;text-orientation:mixed;text-transform:none;white-space:normal"/>
</g>
</g>
</svg>
