<svg width="128" height="128" version="1.1" viewBox="0 0 33.867 33.867" xmlns="http://www.w3.org/2000/svg">
<defs>
<linearGradient id="linearGradient897" x1="2686" x2="2686" y1="1088.8" y2="1770.4" gradientTransform="matrix(.042779 0 0 .042779 -96.062 -44.406)" gradientUnits="userSpaceOnUse"/>
<radialGradient id="radialGradient867" cx="17.06" cy="4.6972" r="13.696" gradientTransform="matrix(4.6514 0 0 1.6235 -62.293 -2.9287)" gradientUnits="userSpaceOnUse"/>
<linearGradient id="linearGradient967" x1="11.569" x2="11.569" y1="10.679" y2="58.889" gradientUnits="userSpaceOnUse"/>
</defs>
<image x="-.24453" y="-.33573" width="34.608" height="34.608" opacity=".41188"/>
<circle cx="17.06" cy="16.973" r="15.118" fill="url(#linearGradient897)" stroke="#b1aaaa" stroke-linecap="square" stroke-opacity=".99216" stroke-width=".057556"/>
<circle cx="17.06" cy="16.973" r="13.696" fill="url(#radialGradient867)"/>
<g transform="translate(1.2829 .39896)" fill="#00753b" fill-opacity=".46963" stroke="#4de793" stroke-linecap="round" stroke-linejoin="round" aria-label="P">
<g fill="#00753b" fill-opacity=".46963">
<path d="m11.686 10.128c-0.27611-9.9e-5 -0.50004 0.2236-0.50023 0.49971l-0.16969 12.322c-9.8e-5 0.27631 0.39361 0.89378 0.66992 0.89368h3.6606c0.27611-1.87e-4 0.49981-0.22412 0.49971-0.50023v-3.9104h1.6645c1.6918 0 3.0594-0.3757 4.0406-1.1891 0.9853-0.81786 1.4847-2.0242 1.4847-3.467 0-1.4375-0.50029-2.639-1.4862-3.451-0.98077-0.81777-2.3485-1.1973-4.039-1.1973zm4.1603 3.3771h1.3146c0.55554 0 0.90995 0.12791 1.1426 0.33383 0.23164 0.20506 0.3514 0.47131 0.3514 0.93741 0 0.4641-0.12104 0.7342-0.35347 0.94516-0.23263 0.20536-0.58584 0.33435-1.1405 0.33435h-1.3146z" color="#000000" color-rendering="auto" dominant-baseline="auto" fill="#00753b" fill-opacity=".46963" image-rendering="auto" shape-rendering="auto" solid-color="#000000" stop-color="#000000" stroke="none" style="font-feature-settings:normal;font-variant-alternates:normal;font-variant-caps:normal;font-variant-east-asian:normal;font-variant-ligatures:normal;font-variant-numeric:normal;font-variant-position:normal;font-variation-settings:normal;inline-size:0;isolation:auto;mix-blend-mode:normal;shape-margin:0;shape-padding:0;text-decoration-color:#000000;text-decoration-line:none;text-decoration-style:solid;text-indent:0;text-orientation:mixed;text-transform:none;white-space:normal"/>
</g>
</g>
<g transform="translate(.72301)" fill="url(#linearGradient967)" stroke="#4de793" stroke-linecap="round" stroke-linejoin="round" aria-label="P">
<g fill="url(#linearGradient967)">
<path d="m12.069 10.128a0.50005 0.50005 0 0 0-0.50023 0.49971v12.715a0.50005 0.50005 0 0 0 0.50023 0.50023h3.2773a0.50005 0.50005 0 0 0 0.49971-0.50023v-3.9104h1.6645c1.6918 0 3.0594-0.3757 4.0406-1.1891 0.9853-0.81786 1.4847-2.0242 1.4847-3.467 0-1.4375-0.50029-2.639-1.4862-3.451-0.98077-0.81777-2.3485-1.1973-4.039-1.1973zm3.777 3.3771h1.3146c0.55554 0 0.90995 0.12791 1.1426 0.33383 0.23164 0.20506 0.3514 0.47131 0.3514 0.93741 0 0.4641-0.12104 0.7342-0.35347 0.94516-0.23263 0.20536-0.58584 0.33435-1.1405 0.33435h-1.3146z" color="#000000" color-rendering="auto" dominant-baseline="auto" fill="url(#linearGradient967)" image-rendering="auto" shape-rendering="auto" solid-color="#000000" stop-color="#000000" stroke="none" style="font-feature-settings:normal;font-variant-alternates:normal;font-variant-caps:normal;font-variant-east-asian:normal;font-variant-ligatures:normal;font-variant-numeric:normal;font-variant-position:normal;font-variation-settings:normal;inline-size:0;isolation:auto;mix-blend-mode:normal;shape-margin:0;shape-padding:0;text-decoration-color:#000000;text-decoration-line:none;text-decoration-style:solid;text-indent:0;text-orientation:mixed;text-transform:none;white-space:normal"/>
</g>
</g>
</svg>
