<svg width="128" height="128" version="1.1" viewBox="0 0 33.867 33.867" xmlns="http://www.w3.org/2000/svg">
<defs>
<linearGradient id="linearGradient1453" x1="6.4053" x2="13.119" y1="4.7679" y2="11.907" gradientTransform="translate(.035115 -.076866)" gradientUnits="userSpaceOnUse"/>
<linearGradient id="linearGradient1481" x1="18.838" x2="17.877" y1="30.953" y2="5.912" gradientTransform="translate(.035115 -.076866)" gradientUnits="userSpaceOnUse"/>
<radialGradient id="radialGradient1473" cx="2.3963" cy="2.5186" r="14.544" gradientTransform="translate(.035115 -.076866)" gradientUnits="userSpaceOnUse"/>
<radialGradient id="radialGradient1463" cx="13.091" cy="12.879" r="7.2719" gradientTransform="matrix(3.5015 3.3115 -4.8352 5.1126 27.519 -98.338)" gradientUnits="userSpaceOnUse"/>
</defs>
<g transform="matrix(.97573 0 0 .97573 -65.713 -37.28)" fill="none" opacity=".295" stroke="#000" stroke-linecap="round" stroke-linejoin="round" stroke-opacity=".02">
<rect x="69.84" y="40.71" width="29.811" height="29.811" rx="6.6099" ry="6.6099" stroke-width=".1"/>
<rect x="69.84" y="40.71" width="29.811" height="29.811" rx="6.6099" ry="6.6099" stroke-width=".2"/>
<rect x="69.84" y="40.71" width="29.811" height="29.811" rx="6.6099" ry="6.6099" stroke-width=".3"/>
<rect x="69.84" y="40.71" width="29.811" height="29.811" rx="6.6099" ry="6.6099" stroke-width=".4"/>
<rect x="69.84" y="40.71" width="29.811" height="29.811" rx="6.6099" ry="6.6099" stroke-width=".5"/>
<rect x="69.84" y="40.71" width="29.811" height="29.811" rx="6.6099" ry="6.6099" stroke-width=".6"/>
<rect x="69.84" y="40.71" width="29.811" height="29.811" rx="6.6099" ry="6.6099" stroke-width=".7"/>
<rect x="69.84" y="40.71" width="29.811" height="29.811" rx="6.6099" ry="6.6099" stroke-width=".8"/>
<rect x="69.84" y="40.71" width="29.811" height="29.811" rx="6.6099" ry="6.6099"/>
<rect x="69.84" y="40.71" width="29.811" height="29.811" rx="6.6099" ry="6.6099" stroke-width="1.2"/>
<rect x="69.84" y="40.71" width="29.811" height="29.811" rx="6.6099" ry="6.6099" stroke-width="1.4"/>
<rect x="69.84" y="40.71" width="29.811" height="29.811" rx="6.6099" ry="6.6099" stroke-width="1.6"/>
<rect x="69.84" y="40.71" width="29.811" height="29.811" rx="6.6099" ry="6.6099" stroke-width="1.8"/>
<rect x="69.84" y="40.71" width="29.811" height="29.811" rx="6.6099" ry="6.6099" stroke-width="2"/>
<rect x="69.84" y="40.71" width="29.811" height="29.811" rx="6.6099" ry="6.6099" stroke-width="2.2"/>
<rect x="69.84" y="40.71" width="29.811" height="29.811" rx="6.6099" ry="6.6099" stroke-width="2.6"/>
<rect x="69.84" y="40.71" width="29.811" height="29.811" rx="6.6099" ry="6.6099" stroke-width="3"/>
<rect x="69.84" y="40.71" width="29.811" height="29.811" rx="6.6099" ry="6.6099" stroke-width="3.4"/>
<rect x="69.84" y="40.71" width="29.811" height="29.811" rx="6.6099" ry="6.6099" stroke-width="3.8"/>
<rect x="69.84" y="40.71" width="29.811" height="29.811" rx="6.6099" ry="6.6099" stroke-width="4.2"/>
<rect x="69.84" y="40.71" width="29.811" height="29.811" rx="6.6099" ry="6.6099" stroke-width="4.6"/>
<rect x="69.84" y="40.71" width="29.811" height="29.811" rx="6.6099" ry="6.6099" stroke-width="5"/>
</g>
<rect x="2.4314" y="2.4417" width="29.087" height="29.087" rx="6.4495" ry="6.4495" fill="url(#linearGradient1453)" stroke-linecap="round" stroke-linejoin="round" stroke-width="2.688"/>
<path d="m16.975 2.4417h8.0943c3.573 0 6.4495 2.8765 6.4495 6.4495v16.189c0 3.573-2.8765 6.4495-6.4495 6.4495h-16.189c-3.573 0-6.4495-2.8765-6.4495-6.4495v-8.0943c1.4407-6.4517 6.14-13.629 14.544-14.544z" fill="url(#linearGradient1481)" stroke-linecap="round" stroke-linejoin="round" stroke-width="2.688"/>
<image x="1.8872" y="10.771" width="29.633" height="19.579" opacity=".303"/>
<path d="m28.242 5.1611v2.188c-3.1543-0.16652-6.3229-0.26384-9.509-0.27285-3.7956-0.010737-7.6158 0.1036-11.468 0.37362-0.073649 0.080754-0.14807 0.16086-0.22014 0.24288l5.291e-4 0.00672c7.1596-0.51361 14.212-0.48487 21.197-0.11524v3.2215c-0.04187-0.01034-0.0875-0.02007-0.1447-0.02894-0.17747-0.02752-0.43547-0.05187-0.7674-0.07286-0.66384-0.04198-1.6209-0.0731-2.7761-0.09509-2.3103-0.04397-5.4125-0.0507-8.5318-0.03411-3.1193 0.01659-6.2547 0.05783-8.6305 0.11007-1.0214 0.02246-1.8577 0.04705-2.5358 0.07286-0.086499 0.14936-0.17067 0.29958-0.25321 0.45062 0.016772 0.34747 0.033706 0.70808 0.049093 1.1498 0.057284 1.6445 0.10208 3.8257 0.12196 5.9893 0.019881 2.1636 0.014229 4.3106-0.033073 5.887-0.023651 0.78819-0.057368 1.4337-0.10284 1.864-0.022733 0.21515-0.04946 0.37848-0.074931 0.4687-0.012737 0.04511-0.029691 0.07156-0.025321 0.06615 0.0022-0.0027 0.014433-0.01651 0.042375-0.02222 0.02794-0.0057 0.058906 0.0063 0.068213 0.01344l-0.14108 0.18604c0.02737 0.0208 0.074755 0.03869 0.11989 0.02946 0.045135-0.0093 0.073458-0.036 0.091984-0.05891 0.037052-0.04583 0.05211-0.09202 0.06873-0.1509 0.033242-0.11775 0.05879-0.28575 0.082166-0.50694 0.046747-0.4424 0.081166-1.0915 0.1049-1.8826 0.047474-1.5821 0.052971-3.7303 0.033073-5.8958-0.019899-2.1654-0.065607-4.3476-0.12299-5.995-0.018137-0.5207-0.037506-0.96134-0.057361-1.3581 0.68107-0.02617 1.5341-0.05163 2.5699-0.07441 2.374-0.05221 5.5078-0.09195 8.6258-0.10852 3.1181-0.01658 6.2208-0.0097 8.5276 0.03411 1.1534 0.02195 2.1077 0.05354 2.7647 0.09508 0.32848 0.02077 0.58305 0.04395 0.74621 0.06925 0.08158 0.01265 0.14176 0.02723 0.16795 0.03669 0.0065 0.0024 0.01111 0.0046 0.01241 0.0052 0.0013 5.29e-4 -7.93e-4 -8.46e-4 -0.0067-0.0062-6e-3 -0.0054-0.01807-0.01591-0.02532-0.03772-0.0073-0.0218-0.0058-0.0522 0.0021-0.0708l0.02998 0.0124v18.27h0.23409v-21.62c0.5971 0.032253 1.1939 0.06625 1.7901 0.10335l0.01447-0.23409c-0.60106-0.037401-1.2025-0.07142-1.8045-0.10387v-2.2004z" color="#000000" color-rendering="auto" dominant-baseline="auto" fill="#7a7d77" image-rendering="auto" shape-rendering="auto" solid-color="#000000" style="font-feature-settings:normal;font-variant-alternates:normal;font-variant-caps:normal;font-variant-ligatures:normal;font-variant-numeric:normal;font-variant-position:normal;isolation:auto;mix-blend-mode:normal;shape-padding:0;text-decoration-color:#000000;text-decoration-line:none;text-decoration-style:solid;text-indent:0;text-orientation:mixed;text-transform:none;white-space:normal"/>
<path d="m13.275 25.478c-3.1388 0.01695-6.2981 0.24089-9.4453 0.37109l0.00586 0.15234c6.3005-0.26066 12.634-0.89288 18.721 0.49805l0.03516-0.14844c-3.0594-0.69913-6.1776-0.89-9.3164-0.87305z" color="#000000" color-rendering="auto" dominant-baseline="auto" fill="#353533" image-rendering="auto" shape-rendering="auto" solid-color="#000000" style="font-feature-settings:normal;font-variant-alternates:normal;font-variant-caps:normal;font-variant-ligatures:normal;font-variant-numeric:normal;font-variant-position:normal;isolation:auto;mix-blend-mode:normal;shape-padding:0;text-decoration-color:#000000;text-decoration-line:none;text-decoration-style:solid;text-indent:0;text-orientation:mixed;text-transform:none;white-space:normal"/>
<path d="m16.975 2.4417h8.0943c3.573 0 6.4495 2.8765 6.4495 6.4495v16.189c0 3.573-2.8765 6.4495-6.4495 6.4495h-16.189c-3.573 0-6.4495-2.8765-6.4495-6.4495v-8.0943c1.4407-6.4517 6.14-13.629 14.544-14.544z" fill="url(#radialGradient1473)" stroke-linecap="round" stroke-linejoin="round" stroke-width="2.688"/>
<path d="m29.888 12.51-26.183 16.138 26.183-0.1113zm-3.6172 6.6779v5.3424h-8.8481z" fill="#6db922" fill-opacity=".835"/>
<path d="m5.6156 27.919v0.72972zm1.3034 0v0.72972zm1.3034 0v0.72972zm1.3036 0v0.72972zm1.3034 0v0.72972zm1.3034 0v0.72972zm1.3034 0v0.72972zm1.3034 0v0.72972zm1.3034 0v0.72972zm1.3034 0v0.72972zm1.3036 0v0.72972zm1.3034 0v0.72972zm1.3034 0v0.72972zm1.3034 0v0.72972zm1.3034 0v0.72972zm1.3034 0v0.72972zm1.3034 0v0.72972zm1.3036 0v0.72972zm1.3034 0v0.72972z" fill="none" stroke="#62a224" stroke-opacity=".9098" stroke-width=".16657"/>
<path d="m11.764 14.302c-0.04331-2.69e-4 -0.08536 0.0016-0.12617 0.0054-0.34434 0.03181-0.63869 0.27519-0.85299 0.5765-0.2143 0.30131-0.35323 0.66601-0.36262 0.99441-0.01042 0.36437 0.25446 0.72711 0.5034 1.0176 0.02328 0.02717 0.02362 0.021 0.04671 0.04672-0.0027 1.36e-4 -0.0069 0.0011-0.0095 0.0013-0.22628 0.01106-0.37443 0.0073-0.41696 0.0073v0.24503c0.01558 0 0.19373 0.0054 0.42904-0.0061 0.05998-3e-3 0.14824-0.02129 0.21611-0.0267 0.08373 0.07944 0.23295 0.23549 0.23295 0.23549l0.15986-0.18623s-0.07195-0.07455-0.08644-0.0874c0.11356-0.01534 0.20689-0.01556 0.32543-0.04099 0.3088-0.06625 0.62295-0.16973 0.8781-0.34228s0.45268-0.42303 0.49482-0.7567c0.07902-0.62562-0.15186-1.0766-0.48275-1.3443-0.28952-0.23428-0.6458-0.3372-0.94897-0.3391zm-0.0023 0.24662c0.24618 3e-3 0.55886 0.09048 0.79737 0.28348 0.27258 0.22057 0.46289 0.56693 0.39281 1.1219-0.03241 0.2566-0.17466 0.43865-0.38931 0.58381-0.21465 0.14516-0.50163 0.24414-0.79165 0.30636-0.17623 0.03781-0.32837 0.04395-0.49101 0.06007-0.07332-0.07353-0.08506-0.07209-0.16844-0.16939-0.2347-0.27389-0.44947-0.62356-0.44302-0.84918 0.0075-0.26158 0.12931-0.59584 0.31717-0.85998s0.43658-0.45118 0.67502-0.47321c0.03204-3e-3 0.06589-0.0043 0.10106-0.0038zm2.6457 0.30795v1.6466h1.023v-0.18528h-0.81295v-1.4613zm2.4528 0v1.6466h0.16939v-0.15128c0.08883 0.1355 0.2136 0.20308 0.37469 0.20308 0.15658 0 0.28166-0.05863 0.37501-0.17606 0.09335-0.11894 0.13983-0.27622 0.13983-0.47194 0-0.19121-0.04505-0.34273-0.13538-0.45414-0.09033-0.11141-0.21398-0.16717-0.37056-0.16717-0.15809 0-0.27997 0.06502-0.3658 0.1945v-0.62354zm2.4662 0v1.6466h0.18941v-1.6466zm1.5649 0.04545c-0.03463 0.12346-0.07536 0.20246-0.12204 0.23708-0.04667 0.03463-0.14676 0.06147-0.30033 0.08104v0.14238h0.35467v1.1406h0.19863v-1.6011zm-4.7992 0.38359c-0.30714 0-0.46513 0.12828-0.47416 0.38423h0.18973c0.0075-0.07227 0.03397-0.12514 0.07913-0.15827 0.04517-0.03463 0.1113-0.0518 0.19863-0.0518 0.08431 0 0.14901 0.01501 0.19418 0.04513 0.04667 0.03011 0.06992 0.07372 0.06992 0.13094v0.04958c0 0.03915-0.0143 0.06878-0.0429 0.08835s-0.07972 0.03387-0.1535 0.0429c-0.0542 0.0075-0.09174 0.01256-0.11282 0.01557-0.02108 3e-3 -0.0543 0.0083-0.09947 0.01589-0.04517 0.0075-0.07664 0.01432-0.09471 0.02034-0.01807 0.0045-0.04451 0.01275-0.07913 0.02479-0.03313 0.01054-0.05708 0.02195-0.07215 0.034-0.01355 0.01205-0.03104 0.02778-0.05212 0.04736-0.02108 0.01807-0.03609 0.03844-0.04513 0.06102-0.0075 0.02108-0.01504 0.04576-0.02256 0.07436-0.0061 0.0286-0.0092 0.06039-0.0092 0.09502 0 0.1069 0.03498 0.19196 0.10424 0.2552 0.07076 0.06324 0.1655 0.09471 0.28444 0.09471 0.14153 0 0.27556-0.0579 0.40202-0.17384 0.0075 0.06022 0.02614 0.10384 0.05625 0.13094 0.03161 0.0286 0.0777 0.0429 0.13793 0.0429 0.03313 0 0.07602-0.0068 0.12871-0.02034v-0.14238c-0.01354 3e-3 -0.02713 0.0048-0.04068 0.0048-0.06775 0-0.1017-0.03107-0.1017-0.0928v-0.69536c0-0.10539-0.03754-0.18542-0.11282-0.23962-0.07528-0.0557-0.18606-0.08358-0.3321-0.08358zm2.5046 0c-0.16411 0-0.29566 0.05895-0.39503 0.17638-0.09786 0.11593-0.14714 0.27105-0.14714 0.46527 0 0.19422 0.04824 0.3479 0.1446 0.46082 0.09636 0.11141 0.22751 0.16685 0.39312 0.16685 0.1355 0 0.24773-0.0361 0.33656-0.10837 0.08883-0.07227 0.1453-0.17307 0.16939-0.30255h-0.18973c-0.05269 0.15809-0.15597 0.23708-0.30954 0.23708-0.1069 0-0.19124-0.03683-0.25298-0.1106-0.06022-0.07377-0.09169-0.17242-0.09471-0.29588h0.87174c0-0.4592-0.17548-0.689-0.52629-0.689zm-0.0023 0.17416c0.09485 0 0.17313 0.03466 0.23486 0.10392 0.06173 0.06926 0.09248 0.15504 0.09248 0.25742h-0.66612c0.0075-0.10991 0.04219-0.19745 0.10392-0.26219 0.06173-0.06624 0.14001-0.09916 0.23486-0.09916zm-1.2172 0.0023c0.10539 0 0.18902 0.04218 0.25075 0.12649 0.06324 0.08431 0.09471 0.19726 0.09471 0.33878 0 0.134-0.03251 0.24303-0.09725 0.32734-0.06324 0.08281-0.14583 0.12426-0.24821 0.12426-0.09937 0-0.17908-0.04146-0.23931-0.12426-0.06023-0.08431-0.09057-0.19582-0.09057-0.33433 0-0.13851 0.03036-0.24898 0.09057-0.33179 0.06022-0.08431 0.13994-0.12649 0.23931-0.12649zm-1.0277 0.45605v0.21229c0 0.06324-0.03291 0.1229-0.09915 0.17861-0.06624 0.0542-0.15131 0.08136-0.2552 0.08136-0.07377 0-0.13096-0.01678-0.17161-0.04989-0.04065-0.03313-0.06102-0.07961-0.06102-0.13983 0-0.06022 0.02252-0.10703 0.06769-0.14015 0.04517-0.03463 0.09557-0.05644 0.15128-0.06546 0.0557-0.0091 0.12112-0.01974 0.1964-0.03178 0.07679-0.01204 0.13398-0.02706 0.17162-0.04513zm-4.8472 2.975c-0.04331-2.7e-4 -0.08536 0.0016-0.12617 0.0054-0.34435 0.03181-0.63869 0.27519-0.85299 0.5765-0.2143 0.30131-0.35323 0.66601-0.36262 0.99441-0.01042 0.36437 0.25414 0.72679 0.50309 1.0173 0.02328 0.02717 0.02394 0.02132 0.04703 0.04703-0.0027 1.37e-4 -0.0069 0.0012-0.0095 0.0013-0.22628 0.01106-0.37443 7e-3 -0.41696 7e-3v0.24503c0.01558 0 0.19341 0.0054 0.42872-0.0061 0.05998-3e-3 0.14856-0.02098 0.21643-0.02638 0.08373 0.07944 0.23295 0.23549 0.23295 0.23549l0.15986-0.18623s-0.07227-0.07487-0.08676-0.08772c0.11356-0.01534 0.20721-0.01525 0.32575-0.04068 0.30879-0.06625 0.62295-0.16973 0.8781-0.34228 0.25515-0.17254 0.45268-0.42303 0.49482-0.7567 0.07902-0.62562-0.15218-1.0766-0.48306-1.3443-0.28952-0.23428-0.64548-0.3372-0.94865-0.3391zm-0.0025 0.24662c0.24618 3e-3 0.55918 0.09048 0.79769 0.28348 0.27258 0.22057 0.46257 0.56693 0.39249 1.1219-0.03241 0.2566-0.17434 0.43865-0.38899 0.58381-0.21465 0.14516-0.50164 0.24414-0.79165 0.30636-0.17623 0.03781-0.32868 0.04394-0.49133 0.06007-0.07332-0.07353-0.08474-0.07209-0.16812-0.16939-0.23471-0.27389-0.44947-0.62356-0.44302-0.84918 0.0075-0.26158 0.12899-0.59584 0.31685-0.85998 0.18786-0.26414 0.43659-0.45118 0.67502-0.47321 0.03204-3e-3 0.06589-0.0043 0.10106-0.0038zm0.14969 0.75256a0.72641 0.5666 0 0 0-0.7265 0.56665 0.72641 0.5666 0 0 0 0.7265 0.56633 0.72641 0.5666 0 0 0 0.72619-0.56633 0.72641 0.5666 0 0 0-0.72619-0.56665z" color="#000000" color-rendering="auto" dominant-baseline="auto" fill="#666" image-rendering="auto" shape-rendering="auto" solid-color="#000000" style="font-feature-settings:normal;font-variant-alternates:normal;font-variant-caps:normal;font-variant-ligatures:normal;font-variant-numeric:normal;font-variant-position:normal;isolation:auto;mix-blend-mode:normal;shape-padding:0;text-decoration-color:#000000;text-decoration-line:none;text-decoration-style:solid;text-indent:0;text-orientation:mixed;text-transform:none;white-space:normal"/>
<path d="m8.8346 11.869c-3.0311 0.08508-5.6458 1.2714-6.4032 5.1165 1.5069-7.3104 6.6305-13.589 14.544-14.544-4.1784 0.43023-5.1352 3.4118-4.8901 6.1808 0.02362 2.2501-1.1421 3.152-3.2504 3.2465z" fill="url(#radialGradient1463)" stroke-linecap="round" stroke-linejoin="round" stroke-width="2.688"/>
</svg>
