<svg width="128" height="128" version="1.1" viewBox="0 0 33.867 33.867" xmlns="http://www.w3.org/2000/svg">
<defs>
<linearGradient id="linearGradient897" x1="2686" x2="2686" y1="1088.8" y2="1770.4" gradientTransform="matrix(.042779 0 0 .042779 -95.919 -44.867)" gradientUnits="userSpaceOnUse"/>
<radialGradient id="radialGradient898" cx="60.636" cy="20.456" r="17.304" gradientTransform="translate(-43.433 -3.9449)" gradientUnits="userSpaceOnUse"/>
<radialGradient id="radialGradient993" cx="16.968" cy="4.6709" r="13.696" gradientTransform="matrix(4.8886 0 0 1.8641 -65.724 -2.4383)" gradientUnits="userSpaceOnUse"/>
<linearGradient id="b" x1="-1.2256" x2="1" y1=".013014" y2="1.1102e-16" gradientTransform="matrix(.10138 -17.338 17.338 .10138 16.113 25.299)" gradientUnits="userSpaceOnUse">
<stop stop-color="#c22aff" offset="0"/>
<stop stop-color="#fff" offset="1"/>
</linearGradient>
</defs>
<circle cx="17.203" cy="16.512" r="17.304" fill="url(#radialGradient898)" opacity=".30973" stroke-linecap="square" stroke-linejoin="round" stroke-width="3"/>
<circle cx="17.203" cy="16.512" r="15.118" fill="url(#linearGradient897)" stroke="#b1aaaa" stroke-linecap="square" stroke-opacity=".99216" stroke-width=".057556"/>
<circle cx="17.203" cy="16.512" r="13.102" fill="url(#radialGradient993)"/>
<path d="m11.076 8.4598-0.56675 2.8338v12.469h2.8338v1.7003h2.267l1.7003-1.7003h2.267l5.6675-5.6675v-9.6348zm1.7003 1.1335h11.335v7.8881l-2.267 2.3135h-3.9673l-2.267 2.267v-2.267h-2.8338zm3.4005 2.8338v4.534h1.7003v-4.534zm3.9673 0v4.534h1.7003v-4.534z" fill="#22005c" fill-opacity=".039538" stroke-width=".56675"/>
<path d="m11.46 8.9663-0.56675 2.8338v12.469h2.8338v1.7003h2.267l1.7003-1.7003h2.267l5.6675-5.6675v-9.6348zm1.7003 1.1335h11.335v7.8881l-2.267 2.3135h-3.9673l-2.267 2.267v-2.267h-2.8338zm3.4005 2.8338v4.534h1.7003v-4.534zm3.9673 0v4.534h1.7003v-4.534z" fill="#22005c" fill-opacity=".039538" stroke-width=".56675"/>
<path d="m11.46 8.9663-0.13255 3.298v12.469h2.8338v1.7003h2.267l1.7003-1.7003h2.267l5.6675-5.6675v-9.6348l-2.313-0.33662zm2.1345 1.5977h11.335v7.8881l-2.267 2.3135h-3.9673l-2.267 2.267v-2.267h-2.8338zm3.4005 2.8338v4.534h1.7003v-4.534zm3.9673 0v4.534h1.7003v-4.534z" fill="#22005c" fill-opacity=".025764" stroke-width=".56675"/>
<path d="m10.714 7.9604-0.56675 2.8338v12.469h2.8338v1.7003h2.267l1.7003-1.7003h2.267l5.6675-5.6675v-9.6348zm1.7003 1.1335h11.335v7.8881l-2.267 2.3135h-3.9673l-2.267 2.267v-2.267h-2.8338zm3.4005 2.8338v4.534h1.7003v-4.534zm3.9673 0v4.534h1.7003v-4.534z" fill="url(#b)" stroke-width=".56675"/>
</svg>
