<svg width="128" height="128" version="1.1" viewBox="0 0 33.867 33.867" xmlns="http://www.w3.org/2000/svg">
<defs>
<radialGradient id="radialGradient876" cx="16.674" cy="4.6989" r="14.544" gradientTransform="matrix(-3.747 0 0 -1.5458 79.152 11.963)" gradientUnits="userSpaceOnUse"/>
<linearGradient id="linearGradient884" x1="21.8" x2="17.885" y1="25.014" y2="6.6761" gradientUnits="userSpaceOnUse"/>
</defs>
<rect x="2.2943" y="2.485" width="29.087" height="29.087" rx="6.4495" ry="6.4495" fill="url(#radialGradient876)" stroke-linecap="round" stroke-linejoin="round" stroke-width="2.6877"/>
<image x="-.095351" y=".095354" width="33.867" height="33.867" preserveAspectRatio="none"/>
<path d="m25.017 8.8586a1.0001 1.0001 0 0 0-0.69298 0.29352l-2.7239 2.7239c-1.2955-1.0065-2.9194-1.6087-4.6803-1.6087-4.2132 0-7.6502 3.4369-7.6502 7.6502 0 1.7609 0.60222 3.3849 1.6087 4.6803l-1.6521 1.6521-1.4196-1.4201a1 1 0 0 0-1.4144 0 1 1 0 0 0 0 1.4159l2.127 2.1249a1.0001 1.0001 0 0 0 1.4144 0l2.3642-2.3647c1.2857 0.97906 2.8878 1.5622 4.6219 1.5622 4.2132 1e-6 7.6502-3.4375 7.6502-7.6507 0-1.7341-0.58265-3.3358-1.5617-4.6214l2.0226-2.0231 1.7012 1.7012a1 1 0 0 0 1.4165 0 1 1 0 0 0 0-1.4139l-2.4102-2.4081a1.0001 1.0001 0 0 0-0.678-0.293 1.0001 1.0001 0 0 0-0.04341-5.17e-4zm-8.0972 3.4086c3.1324 0 5.6503 2.5179 5.6503 5.6503s-2.5179 5.6508-5.6503 5.6508c-3.1324 0-5.6503-2.5185-5.6503-5.6508-1e-6 -3.1324 2.5179-5.6503 5.6503-5.6503z" color="#000000" color-rendering="auto" dominant-baseline="auto" fill-opacity=".10729" image-rendering="auto" shape-rendering="auto" solid-color="#000000" stop-color="#000000" style="font-feature-settings:normal;font-variant-alternates:normal;font-variant-caps:normal;font-variant-east-asian:normal;font-variant-ligatures:normal;font-variant-numeric:normal;font-variant-position:normal;font-variation-settings:normal;inline-size:0;isolation:auto;mix-blend-mode:normal;shape-margin:0;shape-padding:0;text-decoration-color:#000000;text-decoration-line:none;text-decoration-style:solid;text-indent:0;text-orientation:mixed;text-transform:none;white-space:normal"/>
<path d="m24.989 9.7915c-0.2604 0.00388-0.50902 0.10919-0.69298 0.29352l-2.7239 2.7239c-1.2955-1.0065-2.9194-1.6087-4.6803-1.6087-4.2132 0-7.6502 3.4369-7.6502 7.6502 0 1.7609 0.60222 3.3849 1.6087 4.6803l-1.6521 1.6521-1.4196-1.4201c-0.39054-0.39064-1.484-1.7418-1.8746-1.3511-0.39167 0.39072 0.068502 2.3764 0.46017 2.7671l2.127 2.1249c0.39057 0.39058 1.0238 0.39058 1.4144 0l2.3642-2.3647c1.2857 0.97906 2.8878 1.5622 4.6219 1.5622 4.2132 1e-6 7.6502-3.4375 7.6502-7.6507 0-1.7341-0.58265-3.3358-1.5617-4.6214l2.0226-2.0231 1.7012 1.7012c0.39078 0.39202 1.0257 0.39202 1.4165 0 0.39029-0.39048 0.07869-2.5027-0.31161-2.8932l-2.0986-0.92883c-0.18033-0.1806-0.42289-0.28542-0.678-0.29301-0.01447-4.864e-4 -0.02894-6.588e-4 -0.04341-5.17e-4zm-8.0972 3.4086c3.1324 0 5.6503 2.5179 5.6503 5.6503s-2.5179 5.6508-5.6503 5.6508c-3.1324 0-5.6503-2.5185-5.6503-5.6508-1e-6 -3.1324 2.5179-5.6503 5.6503-5.6503z" color="#000000" color-rendering="auto" dominant-baseline="auto" fill-opacity=".10729" image-rendering="auto" shape-rendering="auto" solid-color="#000000" stop-color="#000000" style="font-feature-settings:normal;font-variant-alternates:normal;font-variant-caps:normal;font-variant-east-asian:normal;font-variant-ligatures:normal;font-variant-numeric:normal;font-variant-position:normal;font-variation-settings:normal;inline-size:0;isolation:auto;mix-blend-mode:normal;shape-margin:0;shape-padding:0;text-decoration-color:#000000;text-decoration-line:none;text-decoration-style:solid;text-indent:0;text-orientation:mixed;text-transform:none;white-space:normal"/>
<path d="m24.585 8.1262a1.0001 1.0001 0 0 0-0.69298 0.29352l-2.7239 2.7239c-1.2955-1.0065-2.9194-1.6087-4.6803-1.6087-4.2132 0-7.6502 3.4369-7.6502 7.6502 0 1.7609 0.60222 3.3849 1.6087 4.6803l-1.6521 1.6521-1.4196-1.4201a1 1 0 0 0-1.4144 0 1 1 0 0 0 0 1.4159l2.127 2.1249a1.0001 1.0001 0 0 0 1.4144 0l2.3642-2.3647c1.2857 0.97906 2.8878 1.5622 4.6219 1.5622 4.2132 1e-6 7.6502-3.4375 7.6502-7.6507 0-1.7341-0.58265-3.3358-1.5617-4.6214l2.0226-2.0231 1.7012 1.7012a1 1 0 0 0 1.4165 0 1 1 0 0 0 0-1.4139l-2.4102-2.4081a1.0001 1.0001 0 0 0-0.678-0.293 1.0001 1.0001 0 0 0-0.04341-5.17e-4zm-8.0972 3.4086c3.1324 0 5.6503 2.5179 5.6503 5.6503s-2.5179 5.6508-5.6503 5.6508c-3.1324 0-5.6503-2.5185-5.6503-5.6508-1e-6 -3.1324 2.5179-5.6503 5.6503-5.6503z" color="#000000" color-rendering="auto" dominant-baseline="auto" fill="url(#linearGradient884)" image-rendering="auto" shape-rendering="auto" solid-color="#000000" stop-color="#000000" style="font-feature-settings:normal;font-variant-alternates:normal;font-variant-caps:normal;font-variant-east-asian:normal;font-variant-ligatures:normal;font-variant-numeric:normal;font-variant-position:normal;font-variation-settings:normal;inline-size:0;isolation:auto;mix-blend-mode:normal;shape-margin:0;shape-padding:0;text-decoration-color:#000000;text-decoration-line:none;text-decoration-style:solid;text-indent:0;text-orientation:mixed;text-transform:none;white-space:normal"/>
</svg>
