<svg xmlns="http://www.w3.org/2000/svg" xmlns:ns1="http://www.w3.org/1999/xlink" width="128" height="128" version="1.1" viewBox="0 0 33.867 33.867">
<defs>
<linearGradient id="linearGradient849">
<stop stop-color="#1187fe" offset="0" />
<stop stop-color="#4dbdf6" offset="1" />
</linearGradient>
<linearGradient id="linearGradient834" x1="337.43" x2="337.43" y1="193.77" y2="240.67" gradientUnits="userSpaceOnUse">
<stop stop-color="#089912" offset="0" />
<stop stop-color="#66d84c" offset="1" />
</linearGradient>
<linearGradient id="linearGradient851" x1="245.49" x2="245.21" y1="207.9" y2="199.15" gradientTransform="translate(-15.234 .80181)" gradientUnits="userSpaceOnUse" ns1:href="#linearGradient849" />
<linearGradient id="linearGradient859" x1="337.43" x2="337.43" y1="193.77" y2="222.77" gradientUnits="userSpaceOnUse">
<stop stop-color="#de742e" offset="0" />
<stop stop-color="#f3b747" offset="1" />
</linearGradient>
<linearGradient id="linearGradient869" x1="245.49" x2="245.21" y1="207.9" y2="199.15" gradientTransform="translate(40.328 37.088)" gradientUnits="userSpaceOnUse" ns1:href="#linearGradient849" />
<linearGradient id="linearGradient877" x1="337.43" x2="337.43" y1="193.77" y2="224.77" gradientUnits="userSpaceOnUse">
<stop stop-color="#1e54ec" offset="0" />
<stop stop-color="#45c6bb" offset="1" />
</linearGradient>
<linearGradient id="linearGradient895" x1="167.01" x2="167.02" y1="271.5" y2="282.99" gradientTransform="translate(20.725 7.4309)" gradientUnits="userSpaceOnUse">
<stop stop-color="#4bbbf8" offset="0" />
<stop stop-color="#1489fa" offset="1" />
</linearGradient>
</defs>
<g>
<g>
<rect x="1.044" y="4.97" width="31.657" height="27.818" ry="1.5769" fill="#131313" stroke="#3a3a3a" stroke-width=".4361" />
<path d="m3.233 6.902v23.416h27.318v-23.416h-14.204z" fill="#262626" stroke-width=".26458" />
<g transform="matrix(0.2333 0 0 0.2333 -42.824 -31.078)">
<g>
<rect x="262.252" y="188.725" width="43.832" height="52.786" rx="1.5807" ry="1.5807" fill="url(#linearGradient834)" style="paint-order:stroke markers fill" />
<path d="m263.832 188.725h40.671c0.8757 0 1.5807 0.70499 1.5807 1.5807v2.8522h-43.832v-2.8522c0-0.8757 0.70499-1.5807 1.5807-1.5807z" fill="#cecece" style="paint-order:stroke markers fill" />
</g>
<g>
<rect x="202.25" y="170.951" width="55.726" height="34.344" rx="1.5807" ry="1.5807" fill="url(#linearGradient859)" style="paint-order:stroke markers fill" />
<path d="m203.83 170.951h52.564c0.8757 0 1.5807 0.70499 1.5807 1.5807v2.8522h-55.726v-2.8522c0-0.8757 0.70499-1.5807 1.5807-1.5807z" fill="#cecece" style="paint-order:stroke markers fill" />
</g>
<circle cx="230.09" cy="203.69" r="5.2076" fill="url(#linearGradient851)" stroke="#fcfefd" stroke-linecap="round" stroke-linejoin="round" stroke-width="3" style="paint-order:stroke markers fill" />
<circle cx="285.65" cy="239.98" r="5.2076" fill="url(#linearGradient869)" stroke="#fcfefd" stroke-linecap="round" stroke-linejoin="round" stroke-width="3" style="paint-order:stroke markers fill" />
<g>
<rect x="206.13" y="215.452" width="48.376" height="36.482" rx="1.5807" ry="1.5807" fill="url(#linearGradient877)" style="paint-order:stroke markers fill" />
<path d="m207.71 215.452h45.214c0.8757 0 1.5807 0.70499 1.5807 1.5807v2.8522h-48.376v-2.8522c0-0.8757 0.70499-1.5807 1.5807-1.5807z" fill="#cecece" style="paint-order:stroke markers fill" />
</g>
<rect transform="rotate(-9.2337)" x="183.36" y="278.52" width="9.6329" height="12.33" rx="0" ry="0" fill="url(#linearGradient895)" stroke="#fcfefd" stroke-linecap="round" stroke-width="3" style="paint-order:stroke markers fill" />
</g>
</g>
</g>
</svg>
