<svg width="128" height="128" version="1.1" viewBox="0 0 128 128" xmlns="http://www.w3.org/2000/svg">
<defs>
<linearGradient id="linearGradient825" x1="-741.83" x2="-741.83" y1="959.05" y2="93.836" gradientTransform="matrix(.1342 0 0 .1342 160.37 -5.4564)" gradientUnits="userSpaceOnUse"/>
<linearGradient id="linearGradient835" x1="-738.76" x2="-738.76" y1="931.43" y2="152.13" gradientTransform="matrix(.1342 0 0 .1342 160.37 -5.4564)" gradientUnits="userSpaceOnUse"/>
<linearGradient id="linearGradient5093" x1="59.76" x2="81.131" y1="50.451" y2="73.796" gradientTransform="matrix(1.9556 0 0 1.9556 -74.481 -57.065)" gradientUnits="userSpaceOnUse"/>
</defs>
<g transform="translate(-138.41 -15.501)" fill="none" opacity=".445" stroke="#000" stroke-linecap="round" stroke-linejoin="round" stroke-opacity=".031373">
<circle cx="202.16" cy="79.683" r="60.269" opacity="1" stroke-width=".5"/>
<circle cx="202.16" cy="79.683" r="60.269" opacity="1"/>
<circle cx="202.16" cy="79.683" r="60.269" opacity="1" stroke-width="1.5"/>
<circle cx="202.16" cy="79.683" r="60.269" opacity="1" stroke-width="2"/>
<circle cx="202.16" cy="79.683" r="60.269" opacity="1" stroke-width="2.5"/>
<circle cx="202.16" cy="79.683" r="60.269" opacity="1" stroke-width="3"/>
<circle cx="202.16" cy="79.683" r="60.269" opacity="1" stroke-width="3.5"/>
<circle cx="202.16" cy="79.683" r="60.269" opacity="1" stroke-width="4"/>
<circle cx="202.16" cy="79.683" r="60.269" opacity="1" stroke-width="4.5"/>
<circle cx="202.16" cy="79.683" r="60.269" opacity="1" stroke-width="5.5"/>
<circle cx="202.16" cy="79.683" r="60.269" opacity="1" stroke-width="6.5"/>
</g>
<circle cx="63.433" cy="63.547" r="60.269" fill="url(#linearGradient825)"/>
<circle cx="63.433" cy="63.547" r="54.093" fill="url(#linearGradient835)"/>
<path d="m52.062 67.712c0 8.92 0.16838 12.034-5.554 12.034-5.7222 0-10.266 1.8513-10.266 7.0686 0 5.2173 5.3856 7.7417 8.7516 7.7417 3.366 0 10.014-2.3561 10.014-9.4247v-31.976l28.611-6.6478v24.488s0.3366 2.9454-3.4501 2.9454c-3.7867 0-12.118-1.094-12.118 6.9004 0 7.9942 8.0785 7.4895 9.3407 7.4895 1.2623 0 9.4249-1.3464 9.4249-10.855v-44.936l-34.922 6.732z" fill="url(#linearGradient5093)" stroke-width="1.9556"/>
</svg>
