<svg width="128" height="128" version="1.1" viewBox="0 0 33.867 33.867" xmlns="http://www.w3.org/2000/svg">
<defs>
<linearGradient id="linearGradient897" x1="2686" x2="2686" y1="1088.8" y2="1770.4" gradientTransform="matrix(.042779 0 0 .042779 -95.919 -44.867)" gradientUnits="userSpaceOnUse"/>
<radialGradient id="radialGradient898" cx="60.636" cy="20.456" r="17.304" gradientTransform="translate(-43.433 -3.9449)" gradientUnits="userSpaceOnUse"/>
<linearGradient id="linearGradient916" x1="-25.107" x2="-25.001" y1="-2.0276" y2="-4.1102" gradientUnits="userSpaceOnUse"/>
<linearGradient id="linearGradient896" x1="-28.79" x2="-26.694" y1=".31938" y2="-.94711" gradientUnits="userSpaceOnUse"/>
<linearGradient id="linearGradient938" x1="-32.276" x2="-30.992" y1="5.1797" y2="6.6501" gradientUnits="userSpaceOnUse"/>
<radialGradient id="radialGradient926" cx="-29.387" cy="2.1289" r="5.3265" gradientUnits="userSpaceOnUse"/>
<linearGradient id="linearGradient906" x1="-27.649" x2="-26.733" y1="14.469" y2="-7.1482" gradientUnits="userSpaceOnUse"/>
<linearGradient id="linearGradient947" x1="19.128" x2="19.128" y1="5.6444" y2="28.757" gradientUnits="userSpaceOnUse"/>
</defs>
<circle cx="17.203" cy="16.512" r="17.304" fill="url(#radialGradient898)" opacity=".30973" stroke-linecap="square" stroke-linejoin="round" stroke-width="3"/>
<circle cx="17.203" cy="16.512" r="15.118" fill="url(#linearGradient897)" stroke="#b1aaaa" stroke-linecap="square" stroke-opacity=".99216" stroke-width=".057556"/>
<circle cx="17.203" cy="16.512" r="13.696" fill="url(#linearGradient947)"/>
<image x="7.6058" y="2.4668" width="19.05" height="29.633" opacity=".43801"/>
<g transform="matrix(1.0476 0 0 1.0476 44.828 12.388)" stroke-width=".40973">
<path d="m-24.532-6.4369c-0.31173 0.59242-0.68924 0.90465-0.93899 1.5069-0.33282 0.80252-0.73401 2.7097-0.73401 2.7097l0.80006 1.218 0.88475 0.58577c-0.16484-1.72-0.26272-3.1923-0.23652-4.9211 0.0045-0.29113 0.17287-0.81078 0.2247-1.0992z" fill="url(#linearGradient916)"/>
<path d="m-25.531-8.6955s-2.4856 2.5575-2.2753 4.5342c0.17128 1.6097 3.3957 6.8236 4.4198 10.09l-3.0856 0.28143c-0.58803-0.6861-2.5694-4.2261-2.3782-8.1557 0.11088-2.2792 0.78958-4.6895 3.3192-6.7499z" fill="url(#linearGradient896)"/>
<path d="m-31.791 4.1344c0.07137 1.1132-0.41041 1.7227-0.28392 2.785 0.05429 0.45597 0.39622 0.73799 0.60536 1.1273l0.14008-0.85468c0.01161-0.06662 0.02171-0.13192 0.03294-0.20012l0.21513-1.3108 0.0091-0.0113-0.0067-0.0025v-8.19e-4c0-0.65854-0.31653-1.0449-0.71209-1.5322z" fill="url(#linearGradient938)"/>
<circle transform="rotate(-7.0122)" cx="-27.679" cy="5.5856" r="5.3265" fill="url(#radialGradient926)"/>
<path d="m-25.532-8.6955c-4.3596 4.603-1.7608 6.7907 0.04482 10.056 0.43772 0.82607 0.94091 2.1107 1.0915 2.8056 1.2994 0.65549 2.3049 1.8334 2.7208 3.2922 9.01e-4 0.0026 0.0023 0.0053 0.0033 0.0081 0.01069 0.03088 0.02022 0.0614 0.03041 0.09284 0.02482 0.08116 0.04613 0.16354 0.06722 0.24647 0.02687 0.10222 0.05372 0.20279 0.07362 0.31049 9.01e-4 0.0048 0.0023 0.0096 0.0033 0.0144 0.02139 0.11329 0.04014 0.22806 0.05442 0.3441 0.0063 0.05113 4e-3 0.09197 0.0081 0.14084 0.0011 0.01722 6.97e-4 0.03546 0.0017 0.05281 0.01068 0.16351 0.01007 0.31577-0.0048 0.45454-0.01301 0.26762-0.04311 0.54303-0.11043 0.83706-0.04167 0.15329-0.10139 0.29408-0.15525 0.43853-2e-3 0.0048-0.0028 0.01115-0.0048 0.016-1.77e-4 4.51e-4 1.75e-4 0.0011 0 0.0017-0.66322 1.7595-2.1853 2.8645-3.6875 3.2026-2.2973 0.39378-4.2343-0.82917-4.7006-2.5448-0.09104-0.56576 0.05115-1.3254 0.37931-1.5173-0.1895 0.06498-0.41986 0.13849-0.69621 0.39532-0.4654 0.43252-0.2975 0.58752-0.90587 0.75543 0.30875-0.85772-1.466-1.7939-1.2868-2.9769-0.30142 1.6411 0.237 3.3685 1.2965 4.7348 1.4716 1.8977 3.9413 2.8879 6.5692 2.1938 3.0624-0.75349 4.8948-2.759 5.4984-5.261 0.34856-1.4448 0.2398-2.9348-0.07682-4.1853-0.25803-1.0185-0.7842-2.0927-1.5766-3.0794-2.0001-2.4905-4.6565-3.3272-5.4833-5.6001-0.45299-2.0384 0.65593-4.7266 0.84666-5.2288z" fill="url(#linearGradient906)"/>
<path d="m-21.443 3.4138 0.63818 1.4086c0.01177 0.03362 0.02341 0.06715 0.03481 0.10095l0.29357 1.0698c0.31974 1.5126 0.27475 3.0916-0.19146 4.3257-0.67278 1.7811-1.7842 3.1736-3.322 3.8094-2.6916 1.1127-6.1903 0.23442-7.635-2.5794 0.05779 0.26378 0.13124 0.52154 0.22046 0.77394 1.4572 1.976 3.9805 3.2575 6.6708 2.5469 3.0624-0.75349 4.8883-2.9701 5.4919-5.4721 0.03743-0.15516 0.06795-0.3106 0.09514-0.46645-4e-6 -3.83e-4 5e-6 -7.78e-4 0-0.0012-0.0037-0.29324-0.02002-0.58819-0.05685-0.88534-0.10733-0.85309-0.35376-1.6731-0.71825-2.4379l7e-3 -0.0046-0.06266-0.1079c-0.16846-0.33992-0.35962-0.66831-0.57439-0.98287l-0.03133-0.05454z" fill="#ffa647" fill-opacity=".72396"/>
</g>
</svg>
