<svg width="128" height="128" version="1.1" viewBox="0 0 33.867 33.867" xmlns="http://www.w3.org/2000/svg">
<defs>
<linearGradient id="linearGradient897" x1="2686" x2="2686" y1="1088.8" y2="1770.4" gradientTransform="matrix(.042779 0 0 .042779 -95.919 -44.867)" gradientUnits="userSpaceOnUse"/>
<radialGradient id="radialGradient898" cx="60.636" cy="20.456" r="17.304" gradientTransform="translate(-43.433 -3.9449)" gradientUnits="userSpaceOnUse"/>
<radialGradient id="radialGradient993" cx="16.968" cy="4.6709" r="13.696" gradientTransform="matrix(4.8886 0 0 1.8641 -65.724 -2.4383)" gradientUnits="userSpaceOnUse"/>
<linearGradient id="linearGradient1001" x1="26.704" x2="26.704" y1="63.898" y2="173.1" gradientUnits="userSpaceOnUse"/>
</defs>
<circle cx="17.203" cy="16.512" r="17.304" fill="url(#radialGradient898)" opacity=".30973" stroke-linecap="square" stroke-linejoin="round" stroke-width="3"/>
<circle cx="17.203" cy="16.512" r="15.118" fill="url(#linearGradient897)" stroke="#b1aaaa" stroke-linecap="square" stroke-opacity=".99216" stroke-width=".057556"/>
<circle cx="17.203" cy="16.512" r="13.102" fill="url(#radialGradient993)"/>
<g transform="matrix(.91537 0 0 .91537 1.5177 2.4149)">
<path d="m26.657 8.7803c-1.4995-0.031167-3.8116 1.1742-4.887 2.5409-0.07146-0.04222-0.14263-0.14116-0.14263-0.25373 0.04287-0.42216-0.18581-0.7736-0.50023-0.95653-0.64313-0.32366-1.2579-3.2e-4 -1.5152 0.46406-0.07146 0.11258-0.18573 0.18329-0.28577 0.14108-0.11433 0-0.21446-0.11286-0.21446-0.21136-0.07146-0.3518-0.28572-0.63288-0.61443-0.7736-0.686-0.28144-1.4008 0.11246-1.5152 0.74569-0.04287 0.11258-0.11441 0.21084-0.21446 0.21084-0.11433 0.04222-0.21431-0.04206-0.28577-0.14056-0.21438-0.32366-0.57133-0.53485-0.92863-0.53485-0.57167 0-1.0866 0.46445-1.1152 1.0273v0.08423c0 0.11258-0.07117 0.21152-0.14263 0.25373h-0.04289c-1.1862-1.5198-4.0733-2.9133-5.5025-2.4489-1.1576 0.39402-0.61415 5.995 0.57206 7.5148 0.21438 0.28144 0.4002 0.49232 0.54312 0.63304-0.04287 0.11257-0.14302 0.21136-0.25735 0.21136-0.18579 0-0.35731 0.07036-0.50023 0.18293-0.75746 0.7036-0.32906 1.7027 0.4284 1.8857 0.11433 0.04222 0.21446 0.14064 0.21446 0.25322 0 0.11257-0.07119 0.25298-0.18552 0.28112-0.14292 0.07036-0.28616 0.14092-0.40049 0.28164-0.57167 0.81618-4.6e-5 1.7306 0.786 1.7306 0.11433 0 0.21447 0.07036 0.25735 0.18293 0.04287 0.11258 0.04302 0.21128-0.07131 0.28164-0.21437 0.21108-0.32865 0.49267-0.28577 0.77411 0.04287 0.39401 0.28558 0.74581 0.68575 0.91467 0.21438 0.11257 0.429 0.11249 0.64337 0.07028 0.11433-0.04222 0.21431 8.6e-5 0.28577 0.11266 0.07146 0.07036 0.07148 0.21076 0.04289 0.28112-0.11433 0.21108-0.14277 0.46461-0.07131 0.70383 0.11433 0.39402 0.40012 0.67509 0.786 0.7736 0.35729 0.07036 0.6145-0.04179 0.786-0.11214 0.07146-0.04222-0.47195 1.2803-0.85783 2.1668-0.11433 0.28144 0.18581 0.60529 0.50023 0.46457 1.1862-0.53474 3.1729-1.4496 3.1729-1.3792 0.07146 0.74581 0.92911 1.2804 1.758 0.74569 0.18579-0.11257 0.28579-0.32361 0.32866-0.49248 0.04287-0.11258 0.14285-0.21084 0.28577-0.21084 0.14292 0 0.25719 0.07012 0.28577 0.21084 0.04287 0.18293 0.11443 0.32369 0.25735 0.4222 0.82892 0.63324 1.7579 0.11261 1.8293-0.67541 0-0.11257 0.07119-0.211 0.18552-0.25321 0.11433-0.04222 0.21483-8e-5 0.28629 0.07028 0.21438 0.21108 0.47122 0.35192 0.75706 0.35192 0.35729 0 0.71477-0.18305 0.92914-0.53485 0.14292-0.21108 0.18602-0.42188 0.14314-0.70332 0-0.11258 0.04274-0.21128 0.1142-0.28164 0.07146-0.07036 0.21431-0.07036 0.28577 0 0.21438 0.11257 0.47173 0.18302 0.71468 0.11266 0.40017-0.07036 0.71456-0.39389 0.82889-0.74569 0.07146-0.2533 0.04302-0.49291-0.07131-0.74621-0.04287-0.11258-0.04285-0.21076 0.04289-0.28112 0.08575-0.07036 0.18573-0.11265 0.28577-0.11265 0.25725 0.04222 0.47137 0.0423 0.68575-0.07028 0.32871-0.14072 0.54297-0.42231 0.61443-0.77411 0.07146-0.3518-0.04281-0.67545-0.28577-0.91467-0.07146-0.07036-0.11418-0.18313-0.07131-0.28164 0.04287-0.0985 0.14301-0.18294 0.25735-0.18294 0.25725 0 0.54319-0.07004 0.71469-0.28112 0.61454-0.63324 0.3284-1.4916-0.3576-1.773-0.11433-0.04222-0.18552-0.14092-0.18552-0.28164 0-0.12665 0.09961-0.22531 0.21394-0.22531 0.21438-0.04222 0.4002-0.1404 0.54312-0.28112 0.57167-0.74581 0.1146-1.6604-0.64286-1.773-0.11433 0-0.21446-0.11286-0.21446-0.21136v-0.07028c0.11433-0.11258 0.21417-0.25349 0.35708-0.46457 1.1576-1.5198 1.6865-7.1204 0.54312-7.5566-0.17507-0.058047-0.37232-0.087531-0.58653-0.091984zm-0.87592 1.7803c0.09359 0.0074 0.18161 0.02374 0.262 0.05013 0.64313 0.21108 0.52892 3.0114-0.1142 3.898-0.11434 0.14072-0.25757 0.23942-0.40049 0.28164-0.07146 0-0.09976-0.07043-0.14263-0.11266-0.07146-0.07036-0.07146-0.21128 0-0.28164 0.11433-0.16886 0.18552-0.35168 0.18552-0.56276 0.04288-0.2533-0.07154-0.49248-0.21446-0.67541-0.21438-0.28144-0.50018-0.4222-0.82889-0.4222-0.14292 0-0.28548-8e-5 -0.4284 0.07028-0.10004 0.04222-0.21483 8e-5 -0.28629-0.07028s-0.11418-0.16854-0.07131-0.28112c0.07146-0.21108 0.07146-0.42247 0-0.63355-0.02858-0.18294-0.10014-0.29551-0.25735-0.36587 0.70029-0.55408 1.6413-0.94646 2.2965-0.89452zm-15.418 0.02015c0.66461 0.01983 1.5772 0.4229 2.2159 0.93741-0.10004 0.11258-0.17159 0.25306-0.21446 0.39377-0.07146 0.21108-0.07146 0.42247 0 0.63355 0.04287 0.0985 1.47e-4 0.21076-0.07131 0.28112-0.07146 0.07036-0.17196 0.11302-0.28629 0.0708-0.21438-0.08444-0.42848-0.11274-0.64286-0.04237-0.38588 0.11258-0.71454 0.42196-0.786 0.81597-0.04288 0.28144-2.74e-4 0.56319 0.18552 0.81649 0.04287 0.07036 0.07146 0.16855 0 0.28112-0.04287 0.04221-0.07133 0.07043-0.1142 0.11265-0.25725-0.042216-0.42862-0.14083-0.57154-0.35191-0.65742-0.88653-0.7718-3.6869-0.12867-3.898 0.12059-0.03958 0.26056-0.05522 0.41393-0.05064zm3.3869 7.3784a1.4122 1.4122 0 0 1 0.0083 0 1.4122 1.4122 0 0 1 1.4123 1.4123 1.4122 1.4122 0 0 1-1.4123 1.4123 1.4122 1.4122 0 0 1-1.4123-1.4123 1.4122 1.4122 0 0 1 1.404-1.4123zm8.4734 0a1.4122 1.4122 0 0 1 0.0083 0 1.4122 1.4122 0 0 1 1.4123 1.4123 1.4122 1.4122 0 0 1-1.4123 1.4123 1.4122 1.4122 0 0 1-1.4123-1.4123 1.4122 1.4122 0 0 1 1.404-1.4123zm-4.2287 0.70642c0.70612-6e-3 1.4123 0.19521 1.4123 0.62167 0 0.85292-0.65305 1.4965-1.4123 1.4965-0.80482 0-1.4118-0.69191-1.4118-1.4965 0-0.40232 0.70568-0.61563 1.4118-0.62167z" fill="#1b007e" fill-opacity=".073251" stroke-width=".35306"/>
<path d="m26.128 7.7531c-1.4995-0.031167-3.8116 1.1742-4.887 2.5409-0.07146-0.04222-0.14263-0.14116-0.14263-0.25373 0.04287-0.42216-0.18581-0.7736-0.50023-0.95653-0.64313-0.32366-1.2579-3.206e-4 -1.5152 0.46405-0.07146 0.11258-0.18573 0.18329-0.28577 0.14108-0.11433 0-0.21446-0.11286-0.21446-0.21136-0.07146-0.3518-0.28572-0.63288-0.61443-0.7736-0.686-0.28144-1.4008 0.11246-1.5152 0.74569-0.04287 0.11258-0.11441 0.21084-0.21446 0.21084-0.11433 0.04222-0.21431-0.04206-0.28577-0.14056-0.21438-0.32366-0.57133-0.53485-0.92863-0.53485-0.57167 0-1.0866 0.46445-1.1152 1.0273v0.08423c0 0.11258-0.07117 0.21152-0.14263 0.25373h-0.04289c-1.1862-1.5198-4.0733-2.9133-5.5025-2.4489-1.1576 0.39402-0.61415 5.995 0.57206 7.5148 0.21438 0.28144 0.4002 0.49232 0.54312 0.63304-0.04287 0.11257-0.14302 0.21136-0.25735 0.21136-0.18579 0-0.35731 0.07036-0.50023 0.18293-0.75746 0.7036-0.32906 1.7027 0.4284 1.8857 0.11433 0.04222 0.21446 0.14064 0.21446 0.25322 0 0.11257-0.07119 0.25298-0.18552 0.28112-0.14292 0.07036-0.28616 0.14092-0.40049 0.28164-0.57167 0.81618-4.6e-5 1.7306 0.786 1.7306 0.11433 0 0.21447 0.07036 0.25735 0.18293 0.04287 0.11258 0.04302 0.21128-0.07131 0.28164-0.21438 0.21108-0.32865 0.49267-0.28577 0.77411 0.04287 0.39401 0.28558 0.74581 0.68575 0.91467 0.21438 0.11257 0.429 0.11249 0.64337 0.07028 0.11433-0.04222 0.21431 8.6e-5 0.28577 0.11266 0.07146 0.07036 0.07148 0.21076 0.04289 0.28112-0.11433 0.21108-0.14277 0.46461-0.07131 0.70383 0.11433 0.39402 0.40012 0.67509 0.786 0.7736 0.35729 0.07036 0.6145-0.04179 0.786-0.11214 0.07146-0.04222-0.47195 1.2803-0.85783 2.1668-0.11433 0.28144 0.18581 0.60529 0.50023 0.46457 1.1862-0.53474 3.1729-1.4496 3.1729-1.3792 0.07146 0.74581 0.92911 1.2804 1.758 0.74569 0.18579-0.11257 0.28579-0.32361 0.32866-0.49248 0.04287-0.11258 0.14285-0.21084 0.28577-0.21084 0.14292 0 0.25719 0.07012 0.28577 0.21084 0.04287 0.18293 0.11443 0.32369 0.25735 0.4222 0.82892 0.63324 1.7579 0.11261 1.8293-0.67541 0-0.11257 0.07119-0.211 0.18552-0.25321 0.11433-0.04222 0.21483-8e-5 0.28629 0.07028 0.21438 0.21108 0.47122 0.35192 0.75706 0.35192 0.35729 0 0.71477-0.18305 0.92914-0.53485 0.14292-0.21108 0.18602-0.42188 0.14314-0.70332 0-0.11258 0.04274-0.21128 0.1142-0.28164 0.07146-0.07036 0.21431-0.07036 0.28577 0 0.21438 0.11257 0.47173 0.18302 0.71468 0.11266 0.40017-0.07036 0.71456-0.39389 0.82889-0.74569 0.07146-0.2533 0.04302-0.49291-0.07131-0.74621-0.04287-0.11258-0.04285-0.21076 0.04289-0.28112 0.08575-0.07036 0.18573-0.11265 0.28577-0.11265 0.25725 0.04222 0.47137 0.0423 0.68575-0.07028 0.32871-0.14072 0.54297-0.42231 0.61443-0.77411 0.07146-0.3518-0.04281-0.67545-0.28577-0.91467-0.07146-0.07036-0.11418-0.18313-0.07131-0.28164 0.04287-0.0985 0.14301-0.18294 0.25735-0.18294 0.25725 0 0.54319-0.07004 0.71469-0.28112 0.61454-0.63324 0.3284-1.4916-0.3576-1.773-0.11433-0.04222-0.18552-0.14092-0.18552-0.28164 0-0.12665 0.09961-0.22531 0.21394-0.22531 0.21438-0.04222 0.4002-0.1404 0.54312-0.28112 0.57167-0.74581 0.1146-1.6604-0.64286-1.773-0.11433 0-0.21446-0.11286-0.21446-0.21136v-0.07028c0.11433-0.11258 0.21417-0.25349 0.35708-0.46457 1.1576-1.5198 1.6865-7.1204 0.54312-7.5566-0.17507-0.058047-0.37232-0.087531-0.58653-0.091984zm-0.87592 1.7803c0.09359 0.00742 0.18161 0.023741 0.262 0.050126 0.64313 0.21108 0.52892 3.0114-0.1142 3.898-0.11434 0.14072-0.25757 0.23942-0.40049 0.28164-0.07146 0-0.09976-0.07043-0.14263-0.11266-0.07146-0.07036-0.07146-0.21128 0-0.28164 0.11433-0.16886 0.18552-0.35168 0.18552-0.56276 0.04288-0.2533-0.07154-0.49248-0.21446-0.67541-0.21438-0.28144-0.50018-0.4222-0.82889-0.4222-0.14292 0-0.28548-8e-5 -0.4284 0.07028-0.10004 0.04222-0.21483 8e-5 -0.28629-0.07028s-0.11418-0.16854-0.07131-0.28112c0.07146-0.21108 0.07146-0.42247 0-0.63355-0.02858-0.18294-0.10014-0.29551-0.25735-0.36587 0.70029-0.55408 1.6413-0.94646 2.2965-0.89452zm-15.418 0.020154c0.66461 0.01983 1.5772 0.4229 2.2159 0.93741-0.10004 0.11258-0.17159 0.25306-0.21446 0.39377-0.07146 0.21108-0.07146 0.42247 0 0.63355 0.04287 0.0985 1.47e-4 0.21076-0.07131 0.28112-0.07146 0.07036-0.17196 0.11302-0.28629 0.0708-0.21438-0.08444-0.42848-0.11274-0.64286-0.04237-0.38588 0.11258-0.71454 0.42196-0.786 0.81597-0.04288 0.28144-2.74e-4 0.56319 0.18552 0.81649 0.04287 0.07036 0.07146 0.16855 0 0.28112-0.04287 0.04221-0.07133 0.07043-0.1142 0.11265-0.25725-0.04222-0.42862-0.14084-0.57154-0.35192-0.65742-0.88653-0.7718-3.6869-0.12867-3.898 0.12059-0.039577 0.26056-0.055219 0.41393-0.050643zm3.3869 7.3784a1.4122 1.4122 0 0 1 0.0083 0 1.4122 1.4122 0 0 1 1.4123 1.4123 1.4122 1.4122 0 0 1-1.4123 1.4123 1.4122 1.4122 0 0 1-1.4123-1.4123 1.4122 1.4122 0 0 1 1.404-1.4123zm8.4734 0a1.4122 1.4122 0 0 1 0.0083 0 1.4122 1.4122 0 0 1 1.4123 1.4123 1.4122 1.4122 0 0 1-1.4123 1.4123 1.4122 1.4122 0 0 1-1.4123-1.4123 1.4122 1.4122 0 0 1 1.404-1.4123zm-4.2287 0.70642c0.70612-6e-3 1.4123 0.19521 1.4123 0.62167 0 0.85292-0.65305 1.4965-1.4123 1.4965-0.80482 0-1.4118-0.69191-1.4118-1.4965 0-0.40232 0.70568-0.61563 1.4118-0.62167z" fill="#1b007e" fill-opacity=".057433" stroke-width=".35306"/>
<path d="m26.343 8.0347c-1.4995-0.031167-3.8116 1.1742-4.887 2.5409-0.07146-0.04222-0.14263-0.14116-0.14263-0.25373 0.04287-0.42216-0.18581-0.7736-0.50023-0.95653-0.64313-0.32366-1.2579-3.206e-4 -1.5152 0.46405-0.07146 0.11258-0.18573 0.18329-0.28577 0.14108-0.11433 0-0.21446-0.11286-0.21446-0.21136-0.07146-0.3518-0.28572-0.63288-0.61443-0.7736-0.686-0.28144-1.4008 0.11246-1.5152 0.74569-0.04287 0.11258-0.11441 0.21084-0.21446 0.21084-0.11433 0.04222-0.21431-0.04206-0.28577-0.14056-0.21438-0.32366-0.57133-0.53485-0.92863-0.53485-0.57167 0-1.0866 0.46445-1.1152 1.0273v0.08423c0 0.11258-0.07117 0.21152-0.14263 0.25373h-0.04289c-1.1862-1.5198-4.0733-2.9133-5.5025-2.4489-1.1576 0.39402-0.61415 5.995 0.57206 7.5148 0.21438 0.28144 0.4002 0.49232 0.54312 0.63304-0.04287 0.11257-0.14302 0.21136-0.25735 0.21136-0.18579 0-0.35731 0.07036-0.50023 0.18293-0.75746 0.7036-0.32906 1.7027 0.4284 1.8857 0.11433 0.04222 0.21446 0.14064 0.21446 0.25322 0 0.11257-0.07119 0.25298-0.18552 0.28112-0.14292 0.07036-0.28616 0.14092-0.40049 0.28164-0.57167 0.81618-4.6e-5 1.7306 0.786 1.7306 0.11433 0 0.21447 0.07036 0.25735 0.18293 0.04287 0.11258 0.04302 0.21128-0.07131 0.28164-0.21438 0.21108-0.32865 0.49267-0.28577 0.77411 0.04287 0.39401 0.28558 0.74581 0.68575 0.91467 0.21438 0.11257 0.429 0.11249 0.64337 0.07028 0.11433-0.04222 0.21431 8.6e-5 0.28577 0.11266 0.07146 0.07036 0.07148 0.21076 0.04289 0.28112-0.11433 0.21108-0.14277 0.46461-0.07131 0.70383 0.11433 0.39402 0.40012 0.67509 0.786 0.7736 0.35729 0.07036 0.6145-0.04179 0.786-0.11214 0.07146-0.04222-0.47195 1.2803-0.85783 2.1668-0.11433 0.28144 0.18581 0.60529 0.50023 0.46457 1.1862-0.53474 3.1729-1.4496 3.1729-1.3792 0.07146 0.74581 0.92911 1.2804 1.758 0.74569 0.18579-0.11257 0.28579-0.32361 0.32866-0.49248 0.04287-0.11258 0.14285-0.21084 0.28577-0.21084 0.14292 0 0.25719 0.07012 0.28577 0.21084 0.04287 0.18293 0.11443 0.32369 0.25735 0.4222 0.82892 0.63324 1.7579 0.11261 1.8293-0.67541 0-0.11257 0.07119-0.211 0.18552-0.25321 0.11433-0.04222 0.21483-8e-5 0.28629 0.07028 0.21438 0.21108 0.47122 0.35192 0.75706 0.35192 0.35729 0 0.71477-0.18305 0.92914-0.53485 0.14292-0.21108 0.18602-0.42188 0.14314-0.70332 0-0.11258 0.04274-0.21128 0.1142-0.28164 0.07146-0.07036 0.21431-0.07036 0.28577 0 0.21438 0.11257 0.47173 0.18302 0.71468 0.11266 0.40017-0.07036 0.71456-0.39389 0.82889-0.74569 0.07146-0.2533 0.04302-0.49291-0.07131-0.74621-0.04287-0.11258-0.04285-0.21076 0.04289-0.28112 0.08575-0.07036 0.18573-0.11265 0.28577-0.11265 0.25725 0.04222 0.47137 0.0423 0.68575-0.07028 0.32871-0.14072 0.54297-0.42231 0.61443-0.77411 0.07146-0.3518-0.04281-0.67545-0.28577-0.91467-0.07146-0.07036-0.11418-0.18313-0.07131-0.28164 0.04287-0.0985 0.14301-0.18294 0.25735-0.18294 0.25725 0 0.54319-0.07004 0.71469-0.28112 0.61454-0.63324 0.3284-1.4916-0.3576-1.773-0.11433-0.04222-0.18552-0.14092-0.18552-0.28164 0-0.12665 0.09961-0.22531 0.21394-0.22531 0.21438-0.04222 0.4002-0.1404 0.54312-0.28112 0.57167-0.74581 0.1146-1.6604-0.64286-1.773-0.11433 0-0.21446-0.11286-0.21446-0.21136v-0.07028c0.11433-0.11258 0.21417-0.25349 0.35708-0.46457 1.1576-1.5198 1.6865-7.1204 0.54312-7.5566-0.17507-0.058047-0.37232-0.087531-0.58653-0.091984zm-0.87592 1.7803c0.09359 0.00742 0.18161 0.023741 0.262 0.050126 0.64313 0.21108 0.52892 3.0114-0.1142 3.898-0.11434 0.14072-0.25757 0.23942-0.40049 0.28164-0.07146 0-0.09976-0.07043-0.14263-0.11266-0.07146-0.07036-0.07146-0.21128 0-0.28164 0.11433-0.16886 0.18552-0.35168 0.18552-0.56276 0.04288-0.2533-0.07154-0.49248-0.21446-0.67541-0.21438-0.28144-0.50018-0.4222-0.82889-0.4222-0.14292 0-0.28548-8e-5 -0.4284 0.07028-0.10004 0.04222-0.21483 8e-5 -0.28629-0.07028s-0.11418-0.16854-0.07131-0.28112c0.07146-0.21108 0.07146-0.42247 0-0.63355-0.02858-0.18294-0.10014-0.29551-0.25735-0.36587 0.70029-0.55408 1.6413-0.94646 2.2965-0.89452zm-15.418 0.020154c0.66461 0.01983 1.5772 0.4229 2.2159 0.93741-0.10004 0.11258-0.17159 0.25306-0.21446 0.39377-0.07146 0.21108-0.07146 0.42247 0 0.63355 0.04287 0.0985 1.47e-4 0.21076-0.07131 0.28112-0.07146 0.07036-0.17196 0.11302-0.28629 0.0708-0.21438-0.08444-0.42848-0.11274-0.64286-0.04237-0.38588 0.11258-0.71454 0.42196-0.786 0.81597-0.04288 0.28144-2.74e-4 0.56319 0.18552 0.81649 0.04287 0.07036 0.07146 0.16855 0 0.28112-0.04287 0.04221-0.07133 0.07043-0.1142 0.11265-0.25725-0.04222-0.42862-0.14084-0.57154-0.35192-0.65742-0.88653-0.7718-3.6869-0.12867-3.898 0.12059-0.039577 0.26056-0.055219 0.41393-0.050643zm3.3869 7.3784a1.4122 1.4122 0 0 1 0.0083 0 1.4122 1.4122 0 0 1 1.4123 1.4123 1.4122 1.4122 0 0 1-1.4123 1.4123 1.4122 1.4122 0 0 1-1.4123-1.4123 1.4122 1.4122 0 0 1 1.404-1.4123zm8.4734 0a1.4122 1.4122 0 0 1 0.0083 0 1.4122 1.4122 0 0 1 1.4123 1.4123 1.4122 1.4122 0 0 1-1.4123 1.4123 1.4122 1.4122 0 0 1-1.4123-1.4123 1.4122 1.4122 0 0 1 1.404-1.4123zm-4.2287 0.70642c0.70612-6e-3 1.4123 0.19521 1.4123 0.62167 0 0.85292-0.65305 1.4965-1.4123 1.4965-0.80482 0-1.4118-0.69191-1.4118-1.4965 0-0.40232 0.70568-0.61563 1.4118-0.62167z" fill="#1b007e" fill-opacity=".10436" stroke-width=".35306"/>
<path d="m25.871 7.3872c-1.4995-0.031167-3.8116 1.1742-4.887 2.5409-0.07146-0.04222-0.14263-0.14116-0.14263-0.25373 0.04287-0.42216-0.18581-0.7736-0.50023-0.95653-0.64313-0.32366-1.2579-3.206e-4 -1.5152 0.46405-0.07146 0.11258-0.18573 0.18329-0.28577 0.14108-0.11433 0-0.21446-0.11286-0.21446-0.21136-0.07146-0.3518-0.28572-0.63288-0.61443-0.7736-0.686-0.28144-1.4008 0.11246-1.5152 0.74569-0.04287 0.11258-0.11441 0.21084-0.21446 0.21084-0.11433 0.04222-0.21431-0.04206-0.28577-0.14056-0.21438-0.32366-0.57133-0.53485-0.92863-0.53485-0.57167 0-1.0866 0.46445-1.1152 1.0273v0.084233c0 0.11258-0.07117 0.21151-0.14263 0.25373h-0.04289c-1.1862-1.5198-4.0733-2.9133-5.5025-2.4489-1.1576 0.39402-0.61415 5.995 0.57206 7.5148 0.21438 0.28144 0.4002 0.49232 0.54312 0.63304-0.04287 0.11257-0.14302 0.21136-0.25735 0.21136-0.18579 0-0.35731 0.07036-0.50023 0.18293-0.75746 0.7036-0.32906 1.7027 0.4284 1.8857 0.11433 0.04222 0.21446 0.14064 0.21446 0.25322 0 0.11257-0.07119 0.25298-0.18552 0.28112-0.14292 0.07036-0.28616 0.14092-0.40049 0.28164-0.57167 0.81618-4.6e-5 1.7306 0.786 1.7306 0.11433 0 0.21447 0.07036 0.25735 0.18293 0.04287 0.11258 0.04302 0.21128-0.07131 0.28164-0.21438 0.21108-0.32865 0.49267-0.28577 0.77411 0.04287 0.39401 0.28558 0.74581 0.68575 0.91467 0.21438 0.11257 0.429 0.11249 0.64337 0.07028 0.11433-0.04222 0.21431 8.6e-5 0.28577 0.11266 0.07146 0.07036 0.07148 0.21076 0.04289 0.28112-0.11433 0.21108-0.14277 0.46461-0.07131 0.70383 0.11433 0.39402 0.40012 0.67509 0.786 0.7736 0.35729 0.07036 0.6145-0.04179 0.786-0.11214 0.07146-0.04222-0.47195 1.2803-0.85783 2.1668-0.11433 0.28144 0.18581 0.60529 0.50023 0.46457 1.1862-0.53474 3.1729-1.4496 3.1729-1.3792 0.07146 0.74581 0.92911 1.2804 1.758 0.74569 0.18579-0.11257 0.28579-0.32361 0.32866-0.49248 0.04287-0.11258 0.14285-0.21084 0.28577-0.21084 0.14292 0 0.25719 0.07012 0.28577 0.21084 0.04287 0.18293 0.11443 0.32369 0.25735 0.4222 0.82892 0.63324 1.7579 0.11261 1.8293-0.67541 0-0.11257 0.07119-0.211 0.18552-0.25321 0.11433-0.04222 0.21483-8e-5 0.28629 0.07028 0.21438 0.21108 0.47122 0.35192 0.75706 0.35192 0.35729 0 0.71477-0.18305 0.92914-0.53485 0.14292-0.21108 0.18602-0.42188 0.14314-0.70332 0-0.11258 0.04274-0.21128 0.1142-0.28164 0.07146-0.07036 0.21431-0.07036 0.28577 0 0.21438 0.11257 0.47173 0.18302 0.71468 0.11266 0.40017-0.07036 0.71456-0.39389 0.82889-0.74569 0.07146-0.2533 0.04302-0.49291-0.07131-0.74621-0.04287-0.11258-0.04285-0.21076 0.04289-0.28112 0.08575-0.07036 0.18573-0.11265 0.28577-0.11265 0.25725 0.04222 0.47137 0.0423 0.68575-0.07028 0.32871-0.14072 0.54297-0.42231 0.61443-0.77411 0.07146-0.3518-0.04281-0.67545-0.28577-0.91467-0.07146-0.07036-0.11418-0.18313-0.07131-0.28164 0.04287-0.0985 0.14301-0.18294 0.25735-0.18294 0.25725 0 0.54319-0.07004 0.71469-0.28112 0.61454-0.63324 0.3284-1.4916-0.3576-1.773-0.11433-0.04222-0.18552-0.14092-0.18552-0.28164 0-0.12665 0.09961-0.22531 0.21394-0.22531 0.21438-0.04222 0.4002-0.1404 0.54312-0.28112 0.57167-0.74581 0.1146-1.6604-0.64286-1.773-0.11433 0-0.21446-0.11286-0.21446-0.21136v-0.07028c0.11433-0.11258 0.21417-0.25349 0.35708-0.46457 1.1576-1.5198 1.6865-7.1204 0.54312-7.5566-0.17507-0.058047-0.37232-0.087531-0.58653-0.091984zm-0.87592 1.7803c0.09359 0.00742 0.18161 0.023741 0.262 0.050126 0.64313 0.21108 0.52892 3.0114-0.1142 3.898-0.11434 0.14072-0.25757 0.23942-0.40049 0.28164-0.07146 0-0.09976-0.07043-0.14263-0.11266-0.07146-0.07036-0.07146-0.21128 0-0.28164 0.11433-0.16886 0.18552-0.35168 0.18552-0.56276 0.04288-0.2533-0.07154-0.49248-0.21446-0.67541-0.21438-0.28144-0.50018-0.4222-0.82889-0.4222-0.14292 0-0.28548-8e-5 -0.4284 0.07028-0.10004 0.04222-0.21483 8e-5 -0.28629-0.07028s-0.11418-0.16854-0.07131-0.28112c0.07146-0.21108 0.07146-0.42247 0-0.63355-0.02858-0.18294-0.10014-0.29551-0.25735-0.36587 0.70029-0.55408 1.6413-0.94646 2.2965-0.89452zm-15.418 0.020154c0.66461 0.01983 1.5772 0.4229 2.2159 0.93741-0.10004 0.11258-0.17159 0.25306-0.21446 0.39377-0.07146 0.21108-0.07146 0.42247 0 0.63355 0.04287 0.0985 1.47e-4 0.21076-0.07131 0.28112-0.07146 0.07036-0.17196 0.11302-0.28629 0.0708-0.21438-0.08444-0.42848-0.11274-0.64286-0.04237-0.38588 0.11258-0.71454 0.42196-0.786 0.81597-0.04288 0.28144-2.74e-4 0.56319 0.18552 0.81649 0.04287 0.07036 0.07146 0.16855 0 0.28112-0.04287 0.04221-0.07133 0.07043-0.1142 0.11265-0.25725-0.04222-0.42862-0.14084-0.57154-0.35192-0.65742-0.88653-0.7718-3.6869-0.12867-3.898 0.12059-0.039577 0.26056-0.055219 0.41393-0.050643zm3.3869 7.3784a1.4122 1.4122 0 0 1 0.0083 0 1.4122 1.4122 0 0 1 1.4123 1.4123 1.4122 1.4122 0 0 1-1.4123 1.4123 1.4122 1.4122 0 0 1-1.4123-1.4123 1.4122 1.4122 0 0 1 1.404-1.4123zm8.4734 0a1.4122 1.4122 0 0 1 0.0083 0 1.4122 1.4122 0 0 1 1.4123 1.4123 1.4122 1.4122 0 0 1-1.4123 1.4123 1.4122 1.4122 0 0 1-1.4123-1.4123 1.4122 1.4122 0 0 1 1.404-1.4123zm-4.2287 0.70642c0.70612-6e-3 1.4123 0.19521 1.4123 0.62167 0 0.85292-0.65305 1.4965-1.4123 1.4965-0.80482 0-1.4118-0.69191-1.4118-1.4965 0-0.40232 0.70568-0.61563 1.4118-0.62167z" fill="#1b007e" fill-opacity=".23265" stroke-width=".35306"/>
<path class="st3" d="m22.698 10.062c0.07146 0.21108 0.07146 0.42216 0 0.63324-0.04287 0.11258 0 0.21108 0.07146 0.28144 0.07146 0.07036 0.18579 0.11258 0.28583 0.07036 0.14292-0.07036 0.28584-0.07036 0.42875-0.07036 0.32871 0 0.61454 0.14072 0.82892 0.42216 0.14292 0.18294 0.25725 0.42216 0.21438 0.67545 0 0.21108-0.07146 0.39402-0.18579 0.56288-0.07146 0.07036-0.07146 0.21108 0 0.28144 0.04287 0.04222 0.07146 0.11257 0.14292 0.11257 0.14292-0.04222 0.28583-0.14072 0.40017-0.28144 0.64313-0.88653 0.75746-3.6869 0.11433-3.8979-0.64313-0.21108-1.7579 0.21108-2.5582 0.84432 0.15721 0.07036 0.22867 0.18294 0.25725 0.36587z" fill="#c23ef5" fill-opacity=".99216" stroke-width=".35306"/>
<path class="st3" d="m9.6057 13.122c0.04287-0.04222 0.07146-0.07036 0.11433-0.11257 0.07146-0.11257 0.04287-0.21108 0-0.28144-0.18579-0.2533-0.22867-0.53473-0.18579-0.81617 0.07146-0.39402 0.40017-0.7036 0.78604-0.81617 0.21438-0.07036 0.42875-0.04222 0.64313 0.04222 0.11433 0.04222 0.21438 0 0.28584-0.07036s0.11433-0.18294 0.07146-0.28144c-0.07146-0.21108-0.07146-0.42216 0-0.63324 0.04287-0.14072 0.11433-0.28144 0.21438-0.39401-0.78604-0.63324-1.9865-1.0976-2.6297-0.88653-0.64313 0.21108-0.52879 3.0114 0.12862 3.8979 0.14292 0.21108 0.31442 0.30958 0.57167 0.3518z" fill="#c23ef5" fill-opacity=".99216" stroke-width=".35306"/>
<circle class="st3" cx="12.714" cy="17.612" r="1.4122" fill="#b138f0" fill-opacity=".98431" stroke-width=".35306"/>
<path class="st3" d="m18.363 17.528c0 0.85292-0.65297 1.4966-1.4122 1.4966-0.80482 0-1.4122-0.69199-1.4122-1.4966 0-0.80464 2.8245-0.85292 2.8245 0z" fill="#b138f0" fill-opacity=".98431" stroke-width=".35306"/>
<circle class="st3" cx="21.188" cy="17.612" r="1.4122" fill="#b138f0" fill-opacity=".98431" stroke-width=".35306"/>
<path transform="scale(.26458)" d="m96.807 26.537c-5.6672-0.1178-14.406 4.4379-18.471 9.6035-0.27009-0.15957-0.53906-0.5335-0.53906-0.95898 0.16203-1.5956-0.70227-2.9238-1.8906-3.6152-2.4307-1.2233-4.7543-0.0012-5.7266 1.7539-0.27009 0.42551-0.70197 0.69276-1.0801 0.5332-0.43211 0-0.81055-0.42656-0.81055-0.79883-0.27008-1.3296-1.0799-2.392-2.3223-2.9238-2.5928-1.0637-5.2944 0.42504-5.7266 2.8184-0.16203 0.42551-0.43242 0.79688-0.81055 0.79688-0.43211 0.15957-0.81-0.15897-1.0801-0.53125-0.81024-1.2233-2.1594-2.0215-3.5098-2.0215-2.1606 0-4.1068 1.7554-4.2148 3.8828v0.31836c0 0.42551-0.26899 0.79943-0.53906 0.95898h-0.16211c-4.4833-5.744-15.395-11.011-20.797-9.2559-4.3753 1.4892-2.3212 22.658 2.1621 28.402 0.81024 1.0637 1.5126 1.8607 2.0527 2.3926-0.16203 0.42546-0.54053 0.79883-0.97266 0.79883-0.70221 0-1.3505 0.26593-1.8906 0.69141-2.8628 2.6593-1.2437 6.4355 1.6191 7.127 0.43212 0.15957 0.81055 0.53155 0.81055 0.95703 0 0.42546-0.26905 0.95613-0.70117 1.0625-0.54016 0.26593-1.0815 0.5326-1.5137 1.0645-2.1606 3.0848-1.75e-4 6.541 2.9707 6.541 0.43212 0 0.81061 0.26592 0.97266 0.69141 0.16203 0.42551 0.16258 0.79852-0.26953 1.0645-0.81024 0.79778-1.2421 1.8621-1.0801 2.9258 0.16203 1.4892 1.0794 2.8188 2.5918 3.457 0.81024 0.42546 1.6214 0.42516 2.4316 0.26562 0.43212-0.15957 0.80999 3.24e-4 1.0801 0.42578 0.27008 0.26593 0.27017 0.79656 0.16211 1.0625-0.43212 0.79778-0.5396 1.756-0.26953 2.6602 0.43212 1.4892 1.5123 2.5515 2.9707 2.9238 1.3504 0.26593 2.3225-0.15794 2.9707-0.42383 0.27008-0.15957-1.7838 4.8388-3.2422 8.1895-0.43211 1.0637 0.70227 2.2877 1.8906 1.7559 4.4833-2.021 11.992-5.4788 11.992-5.2129 0.27008 2.8188 3.5116 4.8394 6.6445 2.8184 0.70221-0.42546 1.0801-1.2231 1.2422-1.8613 0.16203-0.42551 0.53992-0.79688 1.0801-0.79688 0.54016 0 0.97205 0.26502 1.0801 0.79688 0.16203 0.6914 0.43248 1.2234 0.97266 1.5957 3.1329 2.3933 6.644 0.42562 6.9141-2.5527 0-0.42546 0.26906-0.79747 0.70117-0.95703 0.43212-0.15957 0.81195-3.03e-4 1.082 0.26562 0.81024 0.79778 1.781 1.3301 2.8613 1.3301 1.3504 0 2.7015-0.69185 3.5117-2.0215 0.54016-0.79778 0.70306-1.5945 0.54102-2.6582 0-0.42551 0.16155-0.79852 0.43164-1.0645 0.27008-0.26593 0.81-0.26593 1.0801 0 0.81024 0.42546 1.7829 0.69174 2.7012 0.42578 1.5124-0.26593 2.7007-1.4887 3.1328-2.8184 0.27008-0.95734 0.16258-1.863-0.26953-2.8203-0.16203-0.42551-0.16195-0.79658 0.16211-1.0625 0.32409-0.26593 0.70197-0.42578 1.0801-0.42578 0.97229 0.15957 1.7816 0.15987 2.5918-0.26562 1.2424-0.53186 2.0522-1.5961 2.3223-2.9258 0.27008-1.3296-0.16179-2.5529-1.0801-3.457-0.27009-0.26593-0.43156-0.69215-0.26953-1.0645 0.16203-0.37228 0.54052-0.69141 0.97266-0.69141 0.97229 0 2.053-0.26472 2.7012-1.0625 2.3227-2.3933 1.2412-5.6375-1.3516-6.7012-0.43212-0.15957-0.70117-0.5326-0.70117-1.0645 0-0.47866 0.37646-0.85156 0.80859-0.85156 0.81024-0.15957 1.5126-0.53064 2.0527-1.0625 2.1606-2.8188 0.43315-6.2757-2.4297-6.7012-0.43212 0-0.81055-0.42656-0.81055-0.79883v-0.26562c0.43212-0.42551 0.80945-0.95808 1.3496-1.7559 4.3753-5.744 6.374-26.912 2.0527-28.561-0.6617-0.21939-1.4072-0.33083-2.2168-0.34766zm-3.3105 6.7285c0.35374 0.02805 0.6864 0.08973 0.99023 0.18945 2.4307 0.79778 1.9991 11.382-0.43164 14.732-0.43213 0.53186-0.97351 0.90488-1.5137 1.0645-0.27007 0-0.37704-0.26621-0.53906-0.42578-0.27008-0.26592-0.27008-0.79853 0-1.0645 0.43212-0.63822 0.70117-1.3292 0.70117-2.127 0.16205-0.95734-0.27039-1.8613-0.81055-2.5527-0.81024-1.0637-1.8904-1.5957-3.1328-1.5957-0.54016 0-1.079-3.02e-4 -1.6191 0.26562-0.37811 0.15958-0.81195 3.03e-4 -1.082-0.26562-0.27008-0.26592-0.43156-0.63699-0.26953-1.0625 0.27009-0.79778 0.27009-1.5967 0-2.3945-0.10803-0.69141-0.37848-1.1169-0.97266-1.3828 2.6468-2.0942 6.2035-3.5772 8.6797-3.3809zm-58.273 0.07617c2.5119 0.07495 5.9612 1.5984 8.375 3.543-0.37812 0.42548-0.64852 0.95643-0.81055 1.4883-0.27008 0.79778-0.27008 1.5967 0 2.3945 0.16203 0.3723 5.54e-4 0.79657-0.26953 1.0625-0.27008 0.26593-0.64991 0.42715-1.082 0.26758-0.81024-0.31914-1.6195-0.42608-2.4297-0.16016-1.4584 0.42548-2.7006 1.5948-2.9707 3.084-0.16205 1.0637-1e-3 2.1286 0.70117 3.0859 0.16203 0.26593 0.27008 0.63704 0 1.0625-0.16203 0.15954-0.26961 0.26621-0.43164 0.42578-0.97229-0.15955-1.62-0.5323-2.1602-1.3301-2.4847-3.3507-2.917-13.935-0.48633-14.732 0.45576-0.14958 0.98478-0.2087 1.5645-0.19141zm12.801 27.887a5.3376 5.3376 0 0 1 0.03125 0 5.3376 5.3376 0 0 1 5.3379 5.3379 5.3376 5.3376 0 0 1-5.3379 5.3379 5.3376 5.3376 0 0 1-5.3379-5.3379 5.3376 5.3376 0 0 1 5.3066-5.3379zm32.025 0a5.3376 5.3376 0 0 1 0.03125 0 5.3376 5.3376 0 0 1 5.3379 5.3379 5.3376 5.3376 0 0 1-5.3379 5.3379 5.3376 5.3376 0 0 1-5.3379-5.3379 5.3376 5.3376 0 0 1 5.3066-5.3379zm-15.982 2.6699c2.6688-0.02281 5.3379 0.7378 5.3379 2.3496 0 3.2236-2.4682 5.6562-5.3379 5.6562-3.0418 0-5.3359-2.6151-5.3359-5.6562 0-1.5206 2.6672-2.3268 5.3359-2.3496z" fill="url(#linearGradient1001)" stroke-width="1.3344"/>
<image transform="matrix(.26458 0 0 .26458 5.8208 5.8208)" width="81" height="81" opacity=".50101"/>
</g>
</svg>
