<svg xmlns="http://www.w3.org/2000/svg" width="128" height="128" version="1.1" viewBox="0 0 128 128" xml:space="preserve">
<style type="text/css">
	.st0{fill:#007D5A;}
	.st1{fill:#073C34;}
	.st2{fill:url(#SVGID_1_);}
	.st3{fill:url(#SVGID_2_);}
	.st4{fill:#FFF293;}
	.st5{fill:url(#SVGID_3_);}
</style>
<g transform="matrix(.14584 0 0 .14584 -10.902 124.28)">
<g>
<path class="st0" d="m871.7 -581.3c0-8.9 6.1-16.3 14.3-18.5v-189.2h-747.9v189.2c8.2 2.1 14.3 9.6 14.3 18.5s-6.1 16.3-14.3 18.5v571.8h747.9v-571.8c-8.3-2.2-14.3-9.6-14.3-18.5z" fill="#007d5a" />
<path class="st1" d="m863.4 -581.3c0-10.3 5.7-19.3 14.1-24v-174.7h-731v174.7c8.4 4.7 14.1 13.6 14.1 24 0 10.3-5.7 19.3-14.1 24v557.3h731v-557.3c-8.4-4.7-14.1-13.7-14.1-24z" fill="#073c34" />
<linearGradient id="SVGID_1_" x1="193.94" x2="826.77" y1="836.45" y2="168.12" gradientUnits="userSpaceOnUse">
<stop stop-color="#8B8B8B" offset="0" />
<stop stop-color="#ACADAD" offset=".05" />
<stop stop-color="#C2C4C3" offset=".95" />
<stop stop-color="#B9BAB9" offset=".9632" />
<stop stop-color="#9FA09F" offset=".9855" />
<stop stop-color="#8B8B8B" offset="1" />
</linearGradient>
<path class="st2" d="m751.7 -741.7h-479.4c-46.9 0-85 38.1-85 85v522.4c0 46.9 38.1 85 85 85h479.3c46.9 0 85-38.1 85-85v-522.4c0.1-46.9-38-85-84.9-85z" fill="url(#SVGID_1_)" />
<linearGradient id="SVGID_2_" x1="217" x2="808" y1="173.1" y2="829.1" gradientUnits="userSpaceOnUse">
<stop stop-color="#E0E1E0" offset="0" />
<stop stop-color="#ACADAD" stop-opacity="0" offset=".05" />
<stop stop-color="#C2C4C3" stop-opacity="0" offset=".9444" />
<stop stop-color="#E0E1E0" offset="1" />
</linearGradient>
<path class="st3" d="m751.7 -741.7h-479.4c-46.9 0-85 38.1-85 85v522.4c0 46.9 38.1 85 85 85h479.3c46.9 0 85-38.1 85-85v-522.4c0.1-46.9-38-85-84.9-85z" fill="url(#SVGID_2_)" />
<circle class="st4" cx="213.2" cy="-766" r="6" fill="#fff293" />
<circle class="st4" cx="167.2" cy="-757" r="10.3" fill="#fff293" />
<circle class="st4" cx="220.9" cy="-777.4" r="6" fill="#fff293" />
<circle class="st4" cx="227.3" cy="-766" r="6" fill="#fff293" />
<circle class="st4" cx="235.1" cy="-777.4" r="6" fill="#fff293" />
<circle class="st4" cx="491.8" cy="-766" r="6" fill="#fff293" />
<circle class="st4" cx="499.5" cy="-777.4" r="6" fill="#fff293" />
<circle class="st4" cx="505.9" cy="-766" r="6" fill="#fff293" />
<circle class="st4" cx="513.6" cy="-777.4" r="6" fill="#fff293" />
<circle class="st4" cx="592.8" cy="-766" r="6" fill="#fff293" />
<circle class="st4" cx="600.5" cy="-777.4" r="6" fill="#fff293" />
<circle class="st4" cx="606.9" cy="-766" r="6" fill="#fff293" />
<circle class="st4" cx="614.6" cy="-777.4" r="6" fill="#fff293" />
<circle class="st4" cx="676.1" cy="-766" r="6" fill="#fff293" />
<circle class="st4" cx="683.8" cy="-777.4" r="6" fill="#fff293" />
<circle class="st4" cx="690.2" cy="-766" r="6" fill="#fff293" />
<circle class="st4" cx="698" cy="-777.4" r="6" fill="#fff293" />
<circle class="st4" cx="743.5" cy="-766" r="6" fill="#fff293" />
<circle class="st4" cx="751.1" cy="-777.4" r="6" fill="#fff293" />
<circle class="st4" cx="757.5" cy="-766" r="6" fill="#fff293" />
<circle class="st4" cx="765.3" cy="-777.4" r="6" fill="#fff293" />
<circle class="st4" cx="808.4" cy="-766" r="6" fill="#fff293" />
<circle class="st4" cx="816.1" cy="-777.4" r="6" fill="#fff293" />
<circle class="st4" cx="822.5" cy="-766" r="6" fill="#fff293" />
<circle class="st4" cx="830.3" cy="-777.4" r="6" fill="#fff293" />
<circle class="st4" cx="866.1" cy="-705.9" r="6" fill="#fff293" />
<circle class="st4" cx="877.5" cy="-713.1" r="6" fill="#fff293" />
<circle class="st4" cx="866.1" cy="-692.7" r="6" fill="#fff293" />
<circle class="st4" cx="877.5" cy="-699" r="6" fill="#fff293" />
<circle class="st4" cx="866.1" cy="-720" r="6" fill="#fff293" />
<circle class="st4" cx="877.5" cy="-726.3" r="6" fill="#fff293" />
<circle class="st4" cx="873.5" cy="-775.7" r="6" fill="#fff293" />
<circle class="st4" cx="402.8" cy="-13.6" r="5.5" fill="#fff293" />
<circle class="st4" cx="408.3" cy="-2.8" r="5.5" fill="#fff293" />
<circle class="st4" cx="421.9" cy="-2.8" r="5.5" fill="#fff293" />
<circle class="st4" cx="435.3" cy="-2.8" r="5.5" fill="#fff293" />
<circle class="st4" cx="448.6" cy="-2.8" r="5.5" fill="#fff293" />
<circle class="st4" cx="462.2" cy="-2.8" r="5.5" fill="#fff293" />
<circle class="st4" cx="475.3" cy="-2.8" r="5.5" fill="#fff293" />
<circle class="st4" cx="488.5" cy="-2.8" r="5.5" fill="#fff293" />
<circle class="st4" cx="501.6" cy="-2.8" r="5.5" fill="#fff293" />
<circle class="st4" cx="514.7" cy="-2.8" r="5.5" fill="#fff293" />
<circle class="st4" cx="527.9" cy="-2.8" r="5.5" fill="#fff293" />
<circle class="st4" cx="541.2" cy="-2.8" r="5.5" fill="#fff293" />
<circle class="st4" cx="554.4" cy="-2.8" r="5.5" fill="#fff293" />
<circle class="st4" cx="567.5" cy="-2.8" r="5.5" fill="#fff293" />
<circle class="st4" cx="580.9" cy="-2.8" r="5.5" fill="#fff293" />
<circle class="st4" cx="594.3" cy="-2.8" r="5.5" fill="#fff293" />
<circle class="st4" cx="607.5" cy="-2.8" r="5.5" fill="#fff293" />
<circle class="st4" cx="621.2" cy="-2.8" r="5.5" fill="#fff293" />
<circle class="st4" cx="634.4" cy="-2.8" r="5.5" fill="#fff293" />
<circle class="st4" cx="647.3" cy="-2.8" r="5.5" fill="#fff293" />
<circle class="st4" cx="660.9" cy="-2.8" r="5.5" fill="#fff293" />
<circle class="st4" cx="674.3" cy="-2.8" r="5.5" fill="#fff293" />
<circle class="st4" cx="686.8" cy="-2.8" r="5.5" fill="#fff293" />
<circle class="st4" cx="701" cy="-2.8" r="5.5" fill="#fff293" />
<circle class="st4" cx="713.7" cy="-2.8" r="5.5" fill="#fff293" />
<circle class="st4" cx="726.8" cy="-2.8" r="5.5" fill="#fff293" />
<circle class="st4" cx="740.7" cy="-2.8" r="5.5" fill="#fff293" />
<circle class="st4" cx="753.6" cy="-2.8" r="5.5" fill="#fff293" />
<circle class="st4" cx="766.7" cy="-2.8" r="5.5" fill="#fff293" />
<circle class="st4" cx="780.6" cy="-2.8" r="5.5" fill="#fff293" />
<circle class="st4" cx="793.5" cy="-2.8" r="5.5" fill="#fff293" />
<circle class="st4" cx="806.3" cy="-2.8" r="5.5" fill="#fff293" />
<circle class="st4" cx="820.3" cy="-2.8" r="5.5" fill="#fff293" />
<circle class="st4" cx="833.3" cy="-2.8" r="5.5" fill="#fff293" />
<circle class="st4" cx="415.5" cy="-13.6" r="5.5" fill="#fff293" />
<circle class="st4" cx="428.7" cy="-13.6" r="5.5" fill="#fff293" />
<circle class="st4" cx="197.1" cy="-13.6" r="5.5" fill="#fff293" />
<circle class="st4" cx="202.6" cy="-2.8" r="5.5" fill="#fff293" />
<circle class="st4" cx="216.2" cy="-2.8" r="5.5" fill="#fff293" />
<circle class="st4" cx="229.6" cy="-2.8" r="5.5" fill="#fff293" />
<circle class="st4" cx="209.9" cy="-13.6" r="5.5" fill="#fff293" />
<circle class="st4" cx="223" cy="-13.6" r="5.5" fill="#fff293" />
<circle class="st4" cx="148.6" cy="-84.4" r="5.5" fill="#fff293" />
<circle class="st4" cx="159.5" cy="-78.9" r="5.5" fill="#fff293" />
<circle class="st4" cx="159.5" cy="-65.3" r="5.5" fill="#fff293" />
<circle class="st4" cx="159.5" cy="-51.9" r="5.5" fill="#fff293" />
<circle class="st4" cx="148.6" cy="-71.7" r="5.5" fill="#fff293" />
<circle class="st4" cx="148.6" cy="-58.6" r="5.5" fill="#fff293" />
<circle class="st4" cx="442.7" cy="-13.6" r="5.5" fill="#fff293" />
<circle class="st4" cx="455.5" cy="-13.6" r="5.5" fill="#fff293" />
<circle class="st4" cx="468.4" cy="-13.6" r="5.5" fill="#fff293" />
<circle class="st4" cx="482.2" cy="-13.6" r="5.5" fill="#fff293" />
<circle class="st4" cx="495.1" cy="-13.6" r="5.5" fill="#fff293" />
<circle class="st4" cx="508" cy="-13.6" r="5.5" fill="#fff293" />
<circle class="st4" cx="521.9" cy="-13.6" r="5.5" fill="#fff293" />
<circle class="st4" cx="535" cy="-13.6" r="5.5" fill="#fff293" />
<circle class="st4" cx="548.2" cy="-13.6" r="5.5" fill="#fff293" />
<circle class="st4" cx="561.8" cy="-13.6" r="5.5" fill="#fff293" />
<circle class="st4" cx="574.8" cy="-13.6" r="5.5" fill="#fff293" />
<circle class="st4" cx="588" cy="-13.6" r="5.5" fill="#fff293" />
<circle class="st4" cx="601.4" cy="-13.6" r="5.5" fill="#fff293" />
<circle class="st4" cx="614.7" cy="-13.6" r="5.5" fill="#fff293" />
<circle class="st4" cx="627.7" cy="-13.6" r="5.5" fill="#fff293" />
<circle class="st4" cx="641.3" cy="-13.6" r="5.5" fill="#fff293" />
<circle class="st4" cx="654.2" cy="-13.6" r="5.5" fill="#fff293" />
<circle class="st4" cx="667.5" cy="-13.6" r="5.5" fill="#fff293" />
<circle class="st4" cx="681.2" cy="-13.6" r="5.5" fill="#fff293" />
<circle class="st4" cx="694.4" cy="-13.6" r="5.5" fill="#fff293" />
<circle class="st4" cx="707.3" cy="-13.6" r="5.5" fill="#fff293" />
<circle class="st4" cx="721.2" cy="-13.6" r="5.5" fill="#fff293" />
<circle class="st4" cx="734" cy="-13.6" r="5.5" fill="#fff293" />
<circle class="st4" cx="747.1" cy="-13.6" r="5.5" fill="#fff293" />
<circle class="st4" cx="761.2" cy="-13.6" r="5.5" fill="#fff293" />
<circle class="st4" cx="773.9" cy="-13.6" r="5.5" fill="#fff293" />
<circle class="st4" cx="787" cy="-13.6" r="5.5" fill="#fff293" />
<circle class="st4" cx="800.7" cy="-13.6" r="5.5" fill="#fff293" />
<circle class="st4" cx="813.7" cy="-13.6" r="5.5" fill="#fff293" />
<circle class="st4" cx="826.5" cy="-13.6" r="5.5" fill="#fff293" />
<circle class="st4" cx="866.7" cy="-478.9" r="5.5" fill="#fff293" />
<circle class="st4" cx="877.5" cy="-473.4" r="5.5" fill="#fff293" />
<circle class="st4" cx="877.5" cy="-459.8" r="5.5" fill="#fff293" />
<circle class="st4" cx="877.5" cy="-446.5" r="5.5" fill="#fff293" />
<circle class="st4" cx="877.5" cy="-433.2" r="5.5" fill="#fff293" />
<circle class="st4" cx="877.5" cy="-419.5" r="5.5" fill="#fff293" />
<circle class="st4" cx="877.5" cy="-406.4" r="5.5" fill="#fff293" />
<circle class="st4" cx="877.5" cy="-393.3" r="5.5" fill="#fff293" />
<circle class="st4" cx="877.5" cy="-380.1" r="5.5" fill="#fff293" />
<circle class="st4" cx="877.5" cy="-367" r="5.5" fill="#fff293" />
<circle class="st4" cx="877.5" cy="-353.9" r="5.5" fill="#fff293" />
<circle class="st4" cx="877.5" cy="-340.5" r="5.5" fill="#fff293" />
<circle class="st4" cx="877.5" cy="-327.3" r="5.5" fill="#fff293" />
<circle class="st4" cx="877.5" cy="-314.2" r="5.5" fill="#fff293" />
<circle class="st4" cx="877.5" cy="-300.8" r="5.5" fill="#fff293" />
<circle class="st4" cx="877.5" cy="-287.4" r="5.5" fill="#fff293" />
<circle class="st4" cx="877.5" cy="-274.2" r="5.5" fill="#fff293" />
<circle class="st4" cx="877.5" cy="-260.6" r="5.5" fill="#fff293" />
<circle class="st4" cx="877.5" cy="-247.3" r="5.5" fill="#fff293" />
<circle class="st4" cx="877.5" cy="-234.4" r="5.5" fill="#fff293" />
<circle class="st4" cx="877.5" cy="-220.8" r="5.5" fill="#fff293" />
<circle class="st4" cx="877.5" cy="-207.4" r="5.5" fill="#fff293" />
<circle class="st4" cx="877.5" cy="-195" r="5.5" fill="#fff293" />
<circle class="st4" cx="877.5" cy="-180.7" r="5.5" fill="#fff293" />
<circle class="st4" cx="877.5" cy="-168" r="5.5" fill="#fff293" />
<circle class="st4" cx="877.5" cy="-155" r="5.5" fill="#fff293" />
<circle class="st4" cx="877.5" cy="-141" r="5.5" fill="#fff293" />
<circle class="st4" cx="877.5" cy="-128.2" r="5.5" fill="#fff293" />
<circle class="st4" cx="877.5" cy="-115" r="5.5" fill="#fff293" />
<circle class="st4" cx="877.5" cy="-101.2" r="5.5" fill="#fff293" />
<circle class="st4" cx="877.5" cy="-88.3" r="5.5" fill="#fff293" />
<circle class="st4" cx="877.5" cy="-75.5" r="5.5" fill="#fff293" />
<circle class="st4" cx="877.5" cy="-61.5" r="5.5" fill="#fff293" />
<circle class="st4" cx="877.5" cy="-48.4" r="5.5" fill="#fff293" />
<circle class="st4" cx="874.4" cy="-8.1" r="5.5" fill="#fff293" />
<circle class="st4" cx="866.7" cy="-466.2" r="5.5" fill="#fff293" />
<circle class="st4" cx="866.7" cy="-453.1" r="5.5" fill="#fff293" />
<circle class="st4" cx="866.7" cy="-439.1" r="5.5" fill="#fff293" />
<circle class="st4" cx="866.7" cy="-426.2" r="5.5" fill="#fff293" />
<circle class="st4" cx="866.7" cy="-413.3" r="5.5" fill="#fff293" />
<circle class="st4" cx="866.7" cy="-399.5" r="5.5" fill="#fff293" />
<circle class="st4" cx="866.7" cy="-386.6" r="5.5" fill="#fff293" />
<circle class="st4" cx="866.7" cy="-373.8" r="5.5" fill="#fff293" />
<circle class="st4" cx="866.7" cy="-359.9" r="5.5" fill="#fff293" />
<circle class="st4" cx="866.7" cy="-346.7" r="5.5" fill="#fff293" />
<circle class="st4" cx="866.7" cy="-333.5" r="5.5" fill="#fff293" />
<circle class="st4" cx="866.7" cy="-319.9" r="5.5" fill="#fff293" />
<circle class="st4" cx="866.7" cy="-306.9" r="5.5" fill="#fff293" />
<circle class="st4" cx="866.7" cy="-293.8" r="5.5" fill="#fff293" />
<circle class="st4" cx="866.7" cy="-280.4" r="5.5" fill="#fff293" />
<circle class="st4" cx="866.7" cy="-267" r="5.5" fill="#fff293" />
<circle class="st4" cx="866.7" cy="-254.1" r="5.5" fill="#fff293" />
<circle class="st4" cx="866.7" cy="-240.4" r="5.5" fill="#fff293" />
<circle class="st4" cx="866.7" cy="-227.6" r="5.5" fill="#fff293" />
<circle class="st4" cx="866.7" cy="-214.2" r="5.5" fill="#fff293" />
<circle class="st4" cx="866.7" cy="-200.5" r="5.5" fill="#fff293" />
<circle class="st4" cx="866.7" cy="-187.3" r="5.5" fill="#fff293" />
<circle class="st4" cx="866.7" cy="-174.4" r="5.5" fill="#fff293" />
<circle class="st4" cx="866.7" cy="-160.5" r="5.5" fill="#fff293" />
<circle class="st4" cx="866.7" cy="-147.7" r="5.5" fill="#fff293" />
<circle class="st4" cx="866.7" cy="-134.7" r="5.5" fill="#fff293" />
<circle class="st4" cx="866.7" cy="-120.6" r="5.5" fill="#fff293" />
<circle class="st4" cx="866.7" cy="-107.8" r="5.5" fill="#fff293" />
<circle class="st4" cx="866.7" cy="-94.7" r="5.5" fill="#fff293" />
<circle class="st4" cx="866.7" cy="-81" r="5.5" fill="#fff293" />
<circle class="st4" cx="866.7" cy="-68" r="5.5" fill="#fff293" />
<circle class="st4" cx="866.7" cy="-55.2" r="5.5" fill="#fff293" />
<linearGradient id="SVGID_3_" x1="222.67" x2="813.6" y1="500.54" y2="500.54" gradientUnits="userSpaceOnUse">
<stop stop-color="#E0E1E0" offset="0" />
<stop stop-color="#DEDFDE" offset=".5808" />
<stop stop-color="#D8D9D7" offset=".79" />
<stop stop-color="#CECDCC" offset=".9386" />
<stop stop-color="#C7C6C4" offset="1" />
</linearGradient>
<path class="st5" d="m763.3 -707.7h-502.6c-21 0-38 17-38 38v548.4c0 21 17 38 38 38h502.7c21 0 38-17 38-38v-548.4c-0.1-21-17.1-38-38.1-38z" fill="url(#SVGID_3_)" />
</g>
</g>
</svg>
