<svg width="128" height="128" version="1.1" viewBox="0 0 33.867 33.867" xmlns="http://www.w3.org/2000/svg">
<defs>
<linearGradient id="linearGradient897" x1="2686" x2="2686" y1="1088.8" y2="1770.4" gradientTransform="matrix(.042779 0 0 .042779 -95.919 -44.867)" gradientUnits="userSpaceOnUse"/>
<linearGradient id="linearGradient881" x1="2641.2" x2="2641.2" y1="1203.4" y2="1689.9" gradientTransform="matrix(.043916 0 0 .043916 -98.906 -47.216)" gradientUnits="userSpaceOnUse"/>
<linearGradient id="linearGradient920" x1="2502.3" x2="2509.9" y1="1494.9" y2="1393.4" gradientTransform="translate(1531.8 -843.24)" gradientUnits="userSpaceOnUse"/>
<linearGradient id="linearGradient928" x1="2543.9" x2="2769.3" y1="1247.9" y2="1394.6" gradientTransform="translate(1531.8 -843.24)" gradientUnits="userSpaceOnUse"/>
<linearGradient id="linearGradient939" x1="2566.6" x2="2859.4" y1="1484.7" y2="1563.1" gradientTransform="translate(1531.8 -843.24)" gradientUnits="userSpaceOnUse"/>
<radialGradient id="radialGradient898" cx="60.636" cy="20.456" r="17.304" gradientTransform="translate(-43.433 -3.9449)" gradientUnits="userSpaceOnUse"/>
</defs>
<circle cx="17.203" cy="16.512" r="17.304" fill="url(#radialGradient898)" opacity=".30973" stroke-linecap="square" stroke-linejoin="round" stroke-width="3"/>
<circle cx="17.203" cy="16.512" r="15.118" fill="url(#linearGradient897)" stroke="#b1aaaa" stroke-linecap="square" stroke-opacity=".99216" stroke-width=".057556"/>
<circle cx="17.203" cy="16.512" r="13.696" fill="url(#linearGradient881)"/>
<g transform="matrix(.042779 0 0 .042779 -161.44 -8.7706)">
<image transform="translate(3823,236)" width="706" height="710"/>
<path d="m4177.9 339.05c-139.46-6e-4 -252.51 113.05-252.51 252.51-6e-4 139.46 113.05 252.51 252.51 252.51 85.337-2e-4 164.9-43.102 211.51-114.58 4.3227-14.663-4.8634-20.023-16.111-13.742 0 0-40.444 22.512-105.81 19.854-41.802-1.7-116.06-29.871-143.59-103.89-27.528-74.022 30.546-121.12 86.199-91.795s22.521 85.313 15.99 91.029c-12.596 12.626-7.7614 21.249-2.3653 25.354 40.106 23.382 86.143 29.692 135.31 9.7523 22.914-9.6955 40.25-24.447 56.829-52.692 12.337-21.018 13.053-48.978 8.3868-77.19-25.911-115.24-128.24-197.12-246.36-197.12z" fill="url(#linearGradient920)"/>
<path d="m4177.9 339.05c-129.3-5e-4 -273.17 111.57-250.12 292.54 10.672-237.59 310.43-159.33 313.14-54.049 0.2979 1.561 0.5199 3.1215 0.6679 4.6758 0.9919 8.7743 0.4354 17.26-1.8164 25.066l-1.5332 1.1094c-3.8612 11.705-9.7597 20.472-12.139 22.555-12.596 12.626-7.7614 21.249-2.3653 25.354 40.106 23.382 86.142 29.692 135.31 9.7519 22.914-9.6955 40.251-24.447 56.83-52.691 12.337-21.018 13.053-48.978 8.3868-77.189-25.911-115.24-128.24-197.12-246.36-197.12z" fill="url(#linearGradient928)"/>
<path d="m4163.2 532.16c-1.0431 0.3553-2.0649 0.7244-3.0879 1.0918 1.0267-0.2834 2.0672-0.5331 3.1153-0.7617 0.012-3e-3 0.023-5e-3 0.035-8e-3zm-14.666 5.6895c-142.22 62.249-80.936 311.59 103.08 295.23 55.927-17.076 105.01-53.312 137.79-103.59 0.2703-0.9171 0.4868-1.7968 0.6543-2.6406 0.084-0.4216 0.1557-0.8333 0.2148-1.2363 0.2364-1.6131 0.2786-3.0761 0.1484-4.3867-0.065-0.6544-0.1742-1.2705-0.3222-1.8477-2e-4 -6e-4 1e-4 -1e-3 0-2e-3 -0.074-0.2889-0.1582-0.5665-0.252-0.8359-0.1876-0.5388-0.4133-1.0382-0.6758-1.498-0.2624-0.4599-0.5609-0.8801-0.8925-1.2598-0.1659-0.1899-0.3414-0.3695-0.5235-0.5391-0.3641-0.3392-0.7586-0.639-1.1836-0.8965-0.8494-0.5145-1.816-0.864-2.875-1.0449-6e-4 -1e-4 0 1e-4 0 0-1.3247-0.2259-2.7954-0.1871-4.3692 0.125-0.5371 0.1066-1.0891 0.2513-1.6484 0.4219-1.4073 0.4293-2.8756 1.0557-4.3848 1.8984 0 0-35.546 19.785-93.848 20.068-1.9434 9e-3 -3.9128-2e-3 -5.9063-0.0371-1.9935-0.0354-4.012-0.0947-6.0547-0.1777-2.6126-0.1063-5.3524-0.3151-8.1992-0.6329-1.4228-0.1588-2.8736-0.3451-4.3476-0.5586-7e-4 0 0 1e-4 0 0-1.4747-0.2135-2.9729-0.4552-4.4941-0.7246-3.0418-0.5386-6.1725-1.1899-9.3711-1.9589-6e-4 -2e-4 0 1e-4 0 0-1.599-0.3845-3.2147-0.8004-4.8457-1.2442-6e-4 -2e-4 0 2e-4 0 0-9.7892-2.6639-20.11-6.4067-30.441-11.357-6e-4 -3e-4 0 2e-4 0 0-1.7214-0.825-3.4425-1.6856-5.1621-2.5781-5e-4 -3e-4 0 2e-4 0 0-3.4397-1.7855-6.8701-3.7084-10.273-5.7715-5e-4 -3e-4 0 3e-4 0 0-2.5524-1.5474-5.0887-3.1746-7.6016-4.8828-5e-4 -3e-4 0 3e-4 0 0-4.1884-2.8473-8.3098-5.9216-12.328-9.2305-4e-4 -3e-4 0 3e-4 0 0-0.8034-0.6615-1.6018-1.3332-2.3965-2.0137-4e-4 -3e-4 0 3e-4 0 0-1.5898-1.3612-3.1611-2.7615-4.7129-4.1992-3e-4 -3e-4 0 3e-4 0 0-0.7757-0.7187-1.5453-1.4475-2.3106-2.1855-3e-4 -4e-4 0 3e-4 0 0-0.766-0.7388-1.5244-1.4879-2.2793-2.2461-2.2635-2.2734-4.4776-4.6344-6.6309-7.086-0.7178-0.8173-1.4284-1.645-2.1328-2.4824-1.4088-1.6748-2.7912-3.3904-4.1426-5.1465-2.027-2.6341-3.9868-5.3594-5.8711-8.1797-1.8842-2.8203-3.6928-5.7356-5.4179-8.7461-1.1504-2.0074-2.2624-4.0568-3.336-6.1503-0.5364-1.046-1.0637-2.1023-1.58-3.17-3e-4 -5e-4 2e-4 -1e-3 0-2e-3 -1.0329-2.136-2.0258-4.3154-2.9747-6.5391-0.9491-2.2242-1.8545-4.4935-2.7148-6.8066-0.4809-1.2931-0.9303-2.5752-1.3594-3.8516-0.1372-0.4081-0.2625-0.8123-0.3945-1.2187-0.2852-0.8781-0.5633-1.7533-0.8242-2.6231-0.1368-0.4558-0.2663-0.9098-0.3965-1.3633-0.2405-0.8376-0.4693-1.6703-0.6875-2.5-0.1123-0.4269-0.2256-0.8544-0.332-1.2793-0.2363-0.9426-0.4562-1.8786-0.6641-2.8105-0.064-0.2852-0.1343-0.5732-0.1953-0.8574-0.2663-1.241-0.5099-2.4742-0.7266-3.6953-0.024-0.1325-0.042-0.2624-0.064-0.3946-0.1839-1.0604-0.3491-2.1132-0.4961-3.1582-0.054-0.3848-0.099-0.7657-0.1485-1.1484-0.103-0.8008-0.1976-1.5973-0.2793-2.3887-0.042-0.4037-0.081-0.8058-0.1171-1.207-0.074-0.8152-0.1346-1.6249-0.1856-2.4297-0.022-0.3434-0.045-0.6879-0.062-1.0293-0.047-0.9086-0.077-1.8084-0.096-2.7031 0-0.2336-0.019-0.4705-0.022-0.7032-0.015-1.1206-0.01-2.2298 0.024-3.3281 0.01-0.1975 0.017-0.3911 0.023-0.5879 0.03-0.9026 0.074-1.7986 0.1328-2.6855 0.02-0.2985 0.045-0.5939 0.068-0.8906 0.062-0.7884 0.1344-1.5702 0.2187-2.3457 0.034-0.3096 0.068-0.6184 0.1055-0.9258 0.097-0.7992 0.2058-1.59 0.3262-2.375 0.037-0.238 0.069-0.4782 0.1074-0.7149 0.1638-1.0029 0.3449-1.9976 0.5469-2.9765 0-0.0213 0.01-0.0432 0.012-0.0645 0.2129-1.0273 0.4473-2.0387 0.7011-3.0391 0.04-0.1584 0.088-0.3129 0.129-0.4707 0.2105-0.8058 0.4332-1.6028 0.6699-2.3906 0.074-0.2475 0.1516-0.4926 0.2285-0.7383 0.2301-0.7352 0.4721-1.4627 0.7246-2.1816 0.073-0.2078 0.1439-0.4166 0.2187-0.623 0.2796-0.7713 0.574-1.5315 0.879-2.2832 0.06-0.149 0.1163-0.3011 0.1777-0.4493 0.7497-1.8087 1.5732-3.5589 2.4648-5.25 0.073-0.138 0.149-0.2729 0.2227-0.4101 0.376-0.7001 0.7646-1.3893 1.1641-2.0684 0.1-0.1693 0.1997-0.3378 0.3007-0.5058 0.4016-0.6678 0.8144-1.3241 1.2383-1.9707 0.084-0.1286 0.1668-0.259 0.252-0.3868 0.51-0.765 1.0336-1.5174 1.5742-2.2519 1.1377-1.5458 2.3432-3.021 3.6094-4.4278 0.035-0.0391 0.07-0.0781 0.1054-0.1171 0.5798-0.6406 1.1743-1.2643 1.7793-1.875 0.079-0.0799 0.1588-0.159 0.2383-0.2383 0.5846-0.5831 1.1801-1.152 1.7871-1.7071 0.073-0.0665 0.1437-0.135 0.2168-0.2011 2.0589-1.8629 4.2426-3.5624 6.5371-5.0938 0.059-0.0397 0.1201-0.0777 0.1797-0.1172 0.6992-0.4628 1.4079-0.9106 2.127-1.3418 0.087-0.0519 0.1728-0.1047 0.2597-0.1562 0.7603-0.4503 1.5312-0.8844 2.3125-1.2988 0.01-5e-3 0.017-9e-3 0.025-0.0137z" fill="url(#linearGradient939)"/>
</g>
</svg>
