<svg width="128" height="128" version="1.1" viewBox="0 0 33.867 33.867" xmlns="http://www.w3.org/2000/svg">
<defs>
<linearGradient id="linearGradient897" x1="2686" x2="2686" y1="1088.8" y2="1770.4" gradientTransform="matrix(.042779 0 0 .042779 -95.919 -44.867)" gradientUnits="userSpaceOnUse"/>
<radialGradient id="radialGradient898" cx="60.636" cy="20.456" r="17.304" gradientTransform="translate(-43.433 -3.9449)" gradientUnits="userSpaceOnUse"/>
<radialGradient id="radialGradient993" cx="16.968" cy="3.7659" r="13.696" gradientTransform="matrix(4.8886 0 0 1.8641 -65.724 -2.4383)" gradientUnits="userSpaceOnUse"/>
<linearGradient id="linearGradient2612" x1="21.668" x2="21.668" y1="41.595" y2="223.35" gradientTransform="matrix(.26458 0 0 .26458 8.2232 -.91119)" gradientUnits="userSpaceOnUse"/>
</defs>
<circle cx="17.203" cy="16.512" r="17.304" fill="url(#radialGradient898)" opacity=".30973" stroke-linecap="square" stroke-linejoin="round" stroke-width="3"/>
<circle cx="17.203" cy="16.512" r="15.118" fill="url(#linearGradient897)" stroke="#b1aaaa" stroke-linecap="square" stroke-opacity=".99216" stroke-width=".057556"/>
<circle cx="17.203" cy="16.512" r="13.102" fill="url(#radialGradient993)"/>
<g transform="translate(-.069968 -.83707)" fill="#002d0a" fill-opacity=".032218" opacity=".4227">
<g transform="translate(-5.2457 .33228)">
<path d="m14.882 9.1611a1.0001 1.0001 0 0 0-0.35915 0.09612 1.0001 1.0001 0 0 0-0.56637 0.9002v11.353a1.0001 1.0001 0 0 0 0.293 0.70745l2.3652 2.3632a1.0001 1.0001 0 0 0 1.7074-0.70693v-6.4787l1.9317 1.5782a1.0001 1.0001 0 0 0 1.6325-0.77566v-3.3104a1.0001 1.0001 0 0 0-0.37672-0.78135l-5.9299-4.7305a1.0001 1.0001 0 0 0-0.69763-0.21497zm15.275 0a1.0001 1.0001 0 0 0-0.69815 0.21497l-5.9314 4.7305a1.0001 1.0001 0 0 0-0.37517 0.78135v3.3104a1.0001 1.0001 0 0 0 1.6309 0.77566l1.9337-1.5782v6.4787a1.0001 1.0001 0 0 0 1.7069 0.70693l2.3652-2.3632a1.0001 1.0001 0 0 0 0.293-0.70745v-11.353a1.0001 1.0001 0 0 0-0.56637-0.9002 1.0001 1.0001 0 0 0-0.35864-0.09612z" color="#000000" fill="#002d0a" fill-opacity=".032218" stroke-linecap="round" stroke-linejoin="round" stroke-width="2" style="-inkscape-stroke:none"/>
</g>
<g transform="translate(-4.8741 .90316)">
<path d="m14.882 9.1611a1.0001 1.0001 0 0 0-0.35915 0.09612 1.0001 1.0001 0 0 0-0.56637 0.9002v11.353a1.0001 1.0001 0 0 0 0.293 0.70745l2.3652 2.3632a1.0001 1.0001 0 0 0 1.7074-0.70693v-6.4787l1.9317 1.5782a1.0001 1.0001 0 0 0 1.6325-0.77566v-3.3104a1.0001 1.0001 0 0 0-0.37672-0.78135l-5.9299-4.7305a1.0001 1.0001 0 0 0-0.69763-0.21497zm15.275 0a1.0001 1.0001 0 0 0-0.69815 0.21497l-5.9314 4.7305a1.0001 1.0001 0 0 0-0.37517 0.78135v3.3104a1.0001 1.0001 0 0 0 1.6309 0.77566l1.9337-1.5782v6.4787a1.0001 1.0001 0 0 0 1.7069 0.70693l2.3652-2.3632a1.0001 1.0001 0 0 0 0.293-0.70745v-11.353a1.0001 1.0001 0 0 0-0.56637-0.9002 1.0001 1.0001 0 0 0-0.35864-0.09612z" color="#000000" fill="#002d0a" fill-opacity=".032218" stroke-linecap="round" stroke-linejoin="round" stroke-width="2" style="-inkscape-stroke:none"/>
</g>
<g transform="translate(-4.5267 1.5665)">
<path d="m14.882 9.1611a1.0001 1.0001 0 0 0-0.35915 0.09612 1.0001 1.0001 0 0 0-0.56637 0.9002v11.353a1.0001 1.0001 0 0 0 0.293 0.70745l2.3652 2.3632a1.0001 1.0001 0 0 0 1.7074-0.70693v-6.4787l1.9317 1.5782a1.0001 1.0001 0 0 0 1.6325-0.77566v-3.3104a1.0001 1.0001 0 0 0-0.37672-0.78135l-5.9299-4.7305a1.0001 1.0001 0 0 0-0.69763-0.21497zm15.275 0a1.0001 1.0001 0 0 0-0.69815 0.21497l-5.9314 4.7305a1.0001 1.0001 0 0 0-0.37517 0.78135v3.3104a1.0001 1.0001 0 0 0 1.6309 0.77566l1.9337-1.5782v6.4787a1.0001 1.0001 0 0 0 1.7069 0.70693l2.3652-2.3632a1.0001 1.0001 0 0 0 0.293-0.70745v-11.353a1.0001 1.0001 0 0 0-0.56637-0.9002 1.0001 1.0001 0 0 0-0.35864-0.09612z" color="#000000" fill="#002d0a" fill-opacity=".032218" stroke-linecap="round" stroke-linejoin="round" stroke-width="2" style="-inkscape-stroke:none"/>
</g>
<g transform="translate(-4.0791 2.2873)">
<path d="m14.882 9.1611a1.0001 1.0001 0 0 0-0.35915 0.09612 1.0001 1.0001 0 0 0-0.56637 0.9002v11.353a1.0001 1.0001 0 0 0 0.293 0.70745l2.3652 2.3632a1.0001 1.0001 0 0 0 1.7074-0.70693v-6.4787l1.9317 1.5782a1.0001 1.0001 0 0 0 1.6325-0.77566v-3.3104a1.0001 1.0001 0 0 0-0.37672-0.78135l-5.9299-4.7305a1.0001 1.0001 0 0 0-0.69763-0.21497zm15.275 0a1.0001 1.0001 0 0 0-0.69815 0.21497l-5.9314 4.7305a1.0001 1.0001 0 0 0-0.37517 0.78135v3.3104a1.0001 1.0001 0 0 0 1.6309 0.77566l1.9337-1.5782v6.4787a1.0001 1.0001 0 0 0 1.7069 0.70693l2.3652-2.3632a1.0001 1.0001 0 0 0 0.293-0.70745v-11.353a1.0001 1.0001 0 0 0-0.56637-0.9002 1.0001 1.0001 0 0 0-0.35864-0.09612z" color="#000000" fill="#002d0a" fill-opacity=".032218" stroke-linecap="round" stroke-linejoin="round" stroke-width="2" style="-inkscape-stroke:none"/>
</g>
<g transform="translate(-3.4555 3.1556)">
<path d="m14.882 9.1611a1.0001 1.0001 0 0 0-0.35915 0.09612 1.0001 1.0001 0 0 0-0.56637 0.9002v11.353a1.0001 1.0001 0 0 0 0.293 0.70745l2.3652 2.3632a1.0001 1.0001 0 0 0 1.7074-0.70693v-6.4787l1.9317 1.5782a1.0001 1.0001 0 0 0 1.6325-0.77566v-3.3104a1.0001 1.0001 0 0 0-0.37672-0.78135l-5.9299-4.7305a1.0001 1.0001 0 0 0-0.69763-0.21497zm15.275 0a1.0001 1.0001 0 0 0-0.69815 0.21497l-5.9314 4.7305a1.0001 1.0001 0 0 0-0.37517 0.78135v3.3104a1.0001 1.0001 0 0 0 1.6309 0.77566l1.9337-1.5782v6.4787a1.0001 1.0001 0 0 0 1.7069 0.70693l2.3652-2.3632a1.0001 1.0001 0 0 0 0.293-0.70745v-11.353a1.0001 1.0001 0 0 0-0.56637-0.9002 1.0001 1.0001 0 0 0-0.35864-0.09612z" color="#000000" fill="#002d0a" fill-opacity=".032218" stroke-linecap="round" stroke-linejoin="round" stroke-width="2" style="-inkscape-stroke:none"/>
</g>
<g transform="translate(-2.5922 4.1167)">
<path d="m14.882 9.1611a1.0001 1.0001 0 0 0-0.35915 0.09612 1.0001 1.0001 0 0 0-0.56637 0.9002v11.353a1.0001 1.0001 0 0 0 0.293 0.70745l2.3652 2.3632a1.0001 1.0001 0 0 0 1.7074-0.70693v-6.4787l1.9317 1.5782a1.0001 1.0001 0 0 0 1.6325-0.77566v-3.3104a1.0001 1.0001 0 0 0-0.37672-0.78135l-5.9299-4.7305a1.0001 1.0001 0 0 0-0.69763-0.21497zm15.275 0a1.0001 1.0001 0 0 0-0.69815 0.21497l-5.9314 4.7305a1.0001 1.0001 0 0 0-0.37517 0.78135v3.3104a1.0001 1.0001 0 0 0 1.6309 0.77566l1.9337-1.5782v6.4787a1.0001 1.0001 0 0 0 1.7069 0.70693l2.3652-2.3632a1.0001 1.0001 0 0 0 0.293-0.70745v-11.353a1.0001 1.0001 0 0 0-0.56637-0.9002 1.0001 1.0001 0 0 0-0.35864-0.09612z" color="#000000" fill="#002d0a" fill-opacity=".032218" stroke-linecap="round" stroke-linejoin="round" stroke-width="2" style="-inkscape-stroke:none"/>
</g>
</g>
<g transform="translate(-5.3156 -.50479)" fill="#ababab">
<path d="m14.882 9.1611a1.0001 1.0001 0 0 0-0.35915 0.09612 1.0001 1.0001 0 0 0-0.56637 0.9002v11.353a1.0001 1.0001 0 0 0 0.293 0.70745l2.3652 2.3632a1.0001 1.0001 0 0 0 1.7074-0.70693v-6.4787l1.9317 1.5782a1.0001 1.0001 0 0 0 1.6325-0.77566v-3.3104a1.0001 1.0001 0 0 0-0.37672-0.78135l-5.9299-4.7305a1.0001 1.0001 0 0 0-0.69763-0.21497zm15.275 0a1.0001 1.0001 0 0 0-0.69815 0.21497l-5.9314 4.7305a1.0001 1.0001 0 0 0-0.37517 0.78135v3.3104a1.0001 1.0001 0 0 0 1.6309 0.77566l1.9337-1.5782v6.4787a1.0001 1.0001 0 0 0 1.7069 0.70693l2.3652-2.3632a1.0001 1.0001 0 0 0 0.293-0.70745v-11.353a1.0001 1.0001 0 0 0-0.56637-0.9002 1.0001 1.0001 0 0 0-0.35864-0.09612z" color="#000000" fill="url(#linearGradient2612)" stroke-linecap="round" stroke-linejoin="round" stroke-width="2" style="-inkscape-stroke:none"/>
</g>
</svg>
