<svg xmlns="http://www.w3.org/2000/svg" width="128" height="128" version="1.1" viewBox="0 0 33.867 33.867">
<defs>
<linearGradient id="linearGradient1025" x1="-218.42" x2="-219.89" y1="84.454" y2="220.39" gradientTransform="matrix(.21334 0 0 .21334 62.321 247.64)" gradientUnits="userSpaceOnUse">
<stop stop-color="#d4e8ee" offset="0" />
<stop stop-color="#757574" offset="1" />
</linearGradient>
<linearGradient id="linearGradient1028" x1="47.637" x2="47.805" y1="270.31" y2="277.86" gradientUnits="userSpaceOnUse">
<stop stop-color="#de742d" offset="0" />
<stop stop-color="#efb246" offset="1" />
</linearGradient>
<linearGradient id="linearGradient1036" x1="48.047" x2="48.047" y1="281.91" y2="288.19" gradientUnits="userSpaceOnUse">
<stop stop-color="#2055ec" offset="0" />
<stop stop-color="#44c0b7" offset="1" />
</linearGradient>
<linearGradient id="linearGradient1044" x1="60.933" x2="60.946" y1="274.75" y2="285.97" gradientUnits="userSpaceOnUse">
<stop stop-color="#089a12" offset="0" />
<stop stop-color="#66d84c" offset="1" />
</linearGradient>
</defs>
<g>
<g>
<rect x="0.264579" y="2.605" width="33.338" height="29.184" ry="1.5425" opacity=".25" />
<rect x="0.264579" y="2.075" width="33.338" height="29.184" ry="1.5425" fill="url(#linearGradient1025)" />
<rect x="0.691239" y="2.455" width="32.484" height="28.437" ry="1.1979" />
<rect x="2.7154" y="4.485" width="28.436" height="24.38" fill="#262626" />
<g opacity=".25">
<rect x="4.099" y="6.366" width="13.531" height="8.469" ry=".32156" opacity="1" />
<circle cx="11.039" cy="14.356" r="1.4174" opacity="1" />
<rect x="18.999" y="10.696" width="10.77" height="12.964" ry=".37798" opacity="1" />
<rect x="5.044" y="17.306" width="11.878" height="8.9887" ry=".34129" opacity="1" />
<path transform="matrix(0.26458 0 0 0.26458 -36.99 -0.384)" d="m160.16 66.85c-0.71462 0-1.2891 0.5764-1.2891 1.291v3.1875h44.893v-3.1875c0-0.71462-0.57445-1.291-1.2891-1.291z" opacity="1" />
<rect x="1.6915" y="291.68" width="2.6838" height="3.488" opacity="1" />
<circle cx="24.552" cy="23.196" r="1.4174" opacity="1" />
<path transform="matrix(0.26458 0 0 0.26458 -36.99 -0.384)" d="m156.51 25.5c-0.6733 0-1.2168 0.54155-1.2168 1.2148v2.8848c0 0.08964 0.0725 0.16211 0.16211 0.16211h50.82c0.0896 0 0.16211-0.07247 0.16211-0.16211v-2.8848c0-0.6733-0.5435-1.2148-1.2168-1.2148z" opacity="1" />
<path transform="matrix(0.26458 0 0 0.26458 -36.99 -0.384)" d="m213.04 41.881c-0.79143 0-1.4297 0.63631-1.4297 1.4277v2.7188c0 0.069 0.056 0.125 0.125 0.125h40.457c0.069 0 0.12305-0.056 0.12305-0.125v-2.7188c0-0.79143-0.63631-1.4277-1.4277-1.4277z" opacity="1" />
</g>
<g>
<rect x="4.099" y="5.836" width="13.531" height="8.469" ry=".32156" fill="url(#linearGradient1028)" />
<circle cx="11.039" cy="13.826" r="1.4174" fill="#30a3fc" stroke="#f9f9f9" stroke-width=".3" />
<rect x="18.999" y="10.166" width="10.77" height="12.964" ry=".37798" fill="url(#linearGradient1044)" />
<rect x="5.044" y="16.776" width="11.878" height="8.9887" ry=".34129" fill="url(#linearGradient1036)" />
<path transform="matrix(0.26458 0 0 0.26458 -36.99 -0.914)" d="m160.16 66.85c-0.71462 0-1.2891 0.5764-1.2891 1.291v3.1875h44.893v-3.1875c0-0.71462-0.57445-1.291-1.2891-1.291z" fill="#e5e5e5" />
<rect x="1.6915" y="291.68" width="2.6838" height="3.488" fill="#34a6fc" stroke="#fff" stroke-width=".3" />
<circle cx="24.552" cy="22.666" r="1.4174" fill="#34a6fc" stroke="#f9f9f9" stroke-width=".3" />
<path transform="matrix(0.26458 0 0 0.26458 -36.99 -0.914)" d="m156.51 25.5c-0.6733 0-1.2168 0.54155-1.2168 1.2148v2.8848c0 0.08964 0.0725 0.16211 0.16211 0.16211h50.82c0.0896 0 0.16211-0.07247 0.16211-0.16211v-2.8848c0-0.6733-0.5435-1.2148-1.2168-1.2148z" fill="#e5e5e5" />
<path transform="matrix(0.26458 0 0 0.26458 -36.99 -0.914)" d="m213.04 41.881c-0.79143 0-1.4297 0.63631-1.4297 1.4277v2.7188c0 0.069 0.056 0.125 0.125 0.125h40.457c0.069 0 0.12305-0.056 0.12305-0.125v-2.7188c0-0.79143-0.63631-1.4277-1.4277-1.4277z" fill="#e5e5e5" />
</g>
</g>
</g>
</svg>
