<svg width="128" height="128" version="1.1" viewBox="0 0 33.867 33.867" xmlns="http://www.w3.org/2000/svg">
<defs>
<linearGradient id="linearGradient4112" x1="14.722" x2="14.722" y1="30.259" y2="3.1307" gradientTransform="translate(.054729 -.034432)" gradientUnits="userSpaceOnUse"/>
<linearGradient id="linearGradient880" x1="17.286" x2="17.286" y1="9.7718" y2="24.214" gradientUnits="userSpaceOnUse"/>
</defs>
<rect x="2.349" y="2.4505" width="29.087" height="29.087" rx="6.4495" ry="6.4495" fill="url(#linearGradient4112)" stroke-linecap="round" stroke-linejoin="round" stroke-width="2.6877"/>
<image x="-.040623" y=".060923" width="33.867" height="33.867" preserveAspectRatio="none"/>
<path d="m17.855 11.459c-3.3147-0.01424-6.6536 0.76594-9.3953 2.3818a1.4643 1.3 0 0 0-0.40905 1.8 1.4643 1.3 0 0 0 2.0308 0.36563c4.3233-2.5479 11.261-2.4428 15.404 0a1.4643 1.3 0 0 0 2.0308-0.36563 1.4643 1.3 0 0 0-0.40905-1.8c-2.6451-1.5598-5.9373-2.3677-9.252-2.3818zm-0.06336 4.8647c-2.2186-0.0088-4.423 0.58132-6.2402 1.7675a1.4643 1.3 0 0 0-0.31179 1.8153 1.4643 1.3 0 0 0 2.048 0.27928c2.5279-1.65 6.4228-1.6644 9.103 0.06612a1.4643 1.3 0 0 0 2.048-0.28668 1.4643 1.3 0 0 0-0.32346-1.8158c-1.8712-1.2082-4.105-1.8166-6.3236-1.8257zm-0.16062 5.1134c-0.83784-0.0051-1.6439 0.11142-2.5182 0.36415-0.36975 0.11615-0.50469 0.52509-0.29178 0.85264l2.4265 2.8387c0.21263 0.32857 0.74609 0.32857 0.95871 0l2.4832-2.8387c0.30666-0.3442 0.15244-0.68658-0.34847-0.85264-1.0023-0.23251-1.8721-0.3591-2.7099-0.36415z" color="#000000" color-rendering="auto" dominant-baseline="auto" fill="#0062dd" fill-opacity=".39424" image-rendering="auto" shape-rendering="auto" solid-color="#000000" style="font-feature-settings:normal;font-variant-alternates:normal;font-variant-caps:normal;font-variant-ligatures:normal;font-variant-numeric:normal;font-variant-position:normal;isolation:auto;mix-blend-mode:normal;shape-padding:0;text-decoration-color:#000000;text-decoration-line:none;text-decoration-style:solid;text-indent:0;text-orientation:mixed;text-transform:none;white-space:normal"/>
<path d="m16.959 9.5167c-3.082-0.014924-6.1866 0.80216-8.7359 2.4944a1.3615 1.3615 0 0 0-0.38034 1.8852 1.3615 1.3615 0 0 0 1.8883 0.38292c4.0199-2.6684 10.471-2.5583 14.323 0a1.3615 1.3615 0 0 0 1.8883-0.38292 1.3615 1.3615 0 0 0-0.38034-1.8852c-2.4594-1.6336-5.5205-2.4797-8.6026-2.4944zm-0.05891 5.0948c-2.0629-0.0092-4.1125 0.60881-5.8022 1.851a1.3615 1.3615 0 0 0-0.2899 1.9012 1.3615 1.3615 0 0 0 1.9043 0.29249c2.3505-1.728 5.972-1.7431 8.4641 0.06925a1.3615 1.3615 0 0 0 1.9043-0.30024 1.3615 1.3615 0 0 0-0.30076-1.9017c-1.7399-1.2653-3.8168-1.9025-5.8797-1.912zm-0.14934 5.3552c-0.77904-0.0053-1.5285 0.11669-2.3415 0.38137-0.3438 0.12165-0.46926 0.54993-0.2713 0.89297l2.2562 2.9729c0.1977 0.34411 0.69372 0.34411 0.89142 0l2.3089-2.9729c0.28513-0.36047 0.14174-0.71905-0.32401-0.89297-0.93192-0.24351-1.7407-0.37608-2.5197-0.38137z" color="#000000" color-rendering="auto" dominant-baseline="auto" fill="url(#linearGradient880)" image-rendering="auto" shape-rendering="auto" solid-color="#000000" style="font-feature-settings:normal;font-variant-alternates:normal;font-variant-caps:normal;font-variant-ligatures:normal;font-variant-numeric:normal;font-variant-position:normal;isolation:auto;mix-blend-mode:normal;shape-padding:0;text-decoration-color:#000000;text-decoration-line:none;text-decoration-style:solid;text-indent:0;text-orientation:mixed;text-transform:none;white-space:normal"/>
</svg>
