<svg enable-background="new 0 0 128 128" version="1.1" viewBox="0 0 128 128" xml:space="preserve" xmlns="http://www.w3.org/2000/svg"><g transform="matrix(.96875 0 0 .96875 2 2)"><circle cx="64" cy="64" r="61.9" fill="#e0d92d"/><path d="m64 128c-35.3 0-64-28.7-64-64s28.7-64 64-64 64 28.7 64 64-28.7 64-64 64zm0-123.9c-33 0-59.9 26.9-59.9 59.9s26.9 59.9 59.9 59.9 59.9-26.9 59.9-59.9-26.9-59.9-59.9-59.9z" fill="#8e7409"/><path d="m64 107.4c-5.6 0-10.2-4.6-10.2-10.2s4.6-10.2 10.2-10.2 10.2 4.6 10.2 10.2-4.6 10.2-10.2 10.2zm0-26.1c-8.3 0-8.3-7.3-8.3-10.2l-3.7-40.2v-0.1c0-5.6 5.4-10.2 12-10.2s12 4.6 12 10.2v0.1l-3.7 40.3c0 2.8 0 10.1-8.3 10.1z" fill="#fff"/><path d="m64 21.9c5.9 0 10.7 4 10.7 8.8l-3.7 40.3c0 4.9-1.1 8.8-7 8.8s-6.9-4-6.9-8.8l-3.7-40.3c-0.1-4.8 4.7-8.8 10.6-8.8m0 66.4c4.9 0 8.9 4 8.9 8.8 0 4.9-4 8.9-8.9 8.9s-8.9-4-8.9-8.9c0-4.8 4-8.8 8.9-8.8m0-69.1c-3.5 0-6.8 1.1-9.3 3.2-2.7 2.2-4.1 5.2-4.1 8.4v0.1 0.1l3.7 40.1c0 2.3 0.2 5.2 1.7 7.6 1.6 2.6 4.3 3.9 8 3.9s6.4-1.3 8-3.9c1.5-2.3 1.7-5.3 1.7-7.6l3.7-40.1v-0.1-0.1c0-3.2-1.5-6.2-4.1-8.4-2.5-2.1-5.8-3.2-9.3-3.2zm0 66.4c-6.4 0-11.6 5.2-11.6 11.6s5.2 11.6 11.6 11.6 11.6-5.2 11.6-11.6-5.2-11.6-11.6-11.6z" fill="#8e7409"/></g></svg>
