<svg enable-background="new 0 0 128 128" version="1.1" viewBox="0 0 128 128" xml:space="preserve" xmlns="http://www.w3.org/2000/svg"><g transform="matrix(.96875 0 0 .96875 2 2)"><path d="m64 2.1c34.2 0 61.9 27.7 61.9 61.9s-27.7 61.9-61.9 61.9-61.9-27.7-61.9-61.9 27.7-61.9 61.9-61.9z" fill="#5eb220"/><path d="m64 128c-35.3 0-64-28.7-64-64s28.7-64 64-64 64 28.7 64 64-28.7 64-64 64zm0-123.9c-33 0-59.9 26.9-59.9 59.9s26.9 59.9 59.9 59.9 59.9-26.9 59.9-59.9-26.9-59.9-59.9-59.9z" fill="#3a9804"/><polygon points="35.9 63.8 53 77.3 87.1 31 100.3 40.7 61.3 93.9 56.2 100.7 25.7 76.8" fill="#fff"/><path d="m87.3 32.4 11.6 8.6-4.3 5.8-34.2 46.4-4.4 6-5.8-4.6-17.4-13.5-5.7-4.4 8.9-11.4 5.7 4.4 11.5 9 29.8-40.5 4.3-5.8m-0.5-2.9-1.2 1.7-4.3 5.8-28.5 38.8-9.8-7.7-5.7-4.4-1.6-1.3-1.3 1.6-8.9 11.4-1.2 1.6 1.6 1.3 5.7 4.4 17.4 13.6 5.8 4.6 1.7 1.3 1.3-1.7 38.5-52.5 4.3-5.8 1.2-1.7-1.7-1.2-11.6-8.5-1.7-1.3z" fill="#3a9804"/></g></svg>
