<svg enable-background="new 0 0 128 128" version="1.1" viewBox="0 0 128 128" xml:space="preserve" xmlns="http://www.w3.org/2000/svg"><g transform="matrix(.96875 0 0 .96875 2 2)"><circle cx="64" cy="64" r="61.9" fill="#b23015"/><path d="m64 128c-35.3 0-64-28.7-64-64s28.7-64 64-64 64 28.7 64 64-28.7 64-64 64zm0-123.9c-33 0-59.9 26.9-59.9 59.9s26.9 59.9 59.9 59.9 59.9-26.9 59.9-59.9-26.9-59.9-59.9-59.9z" fill="#981d05"/><path d="m41.8 95.2c-2.4 0-4.4-0.9-6.2-2.6-1.7-1.7-2.7-3.9-2.8-6.4-0.1-2.6 0.7-4.8 2.5-6.8l15.5-15.4-15.4-15.4c-1.9-1.9-2.7-4-2.5-6.5 0.2-2.3 1.1-4.5 2.7-6.3 1.9-1.9 4-2.9 6.3-2.9h0.6c2.4 0.2 4.5 1.1 6.4 2.8l15.1 15 15.4-15.2c1.8-1.8 3.9-2.7 6.3-2.7h0.2c2.4 0.1 4.6 1 6.5 2.8 1.7 1.7 2.6 3.9 2.6 6.5s-0.9 4.8-2.6 6.6l-15 15.3 15.1 15.2c1.7 1.7 2.6 3.9 2.7 6.5s-0.8 5-2.7 6.9c-1.7 1.7-4 2.6-6.6 2.6s-4.9-1-6.8-3l-15.1-14.8-15.1 15.2c-1.7 1.5-3.8 2.4-6.4 2.6h-0.7z" fill="#fff"/><path d="m41.9 34.1h0.5c2 0.2 3.9 1 5.5 2.5l16 16 16.4-16.2c1.5-1.5 3.3-2.3 5.3-2.3h0.2c2.1 0 4 0.8 5.6 2.4 1.5 1.5 2.2 3.3 2.2 5.6 0 2.2-0.7 4.1-2.2 5.7l-16 16.2 16 16.2c1.5 1.5 2.3 3.3 2.3 5.6 0.1 2.3-0.7 4.2-2.3 5.9-1.5 1.5-3.3 2.2-5.6 2.2s-4.2-0.9-5.9-2.6l-15.9-15.8-16 16.2c-1.5 1.3-3.3 2.1-5.5 2.2h-0.6c-2 0-3.7-0.7-5.2-2.2s-2.3-3.3-2.4-5.5 0.6-4.1 2.2-5.7l16.2-16.5-16.4-16.4c-1.6-1.6-2.3-3.4-2.1-5.4 0.2-2.1 0.9-3.9 2.3-5.6 1.8-1.6 3.5-2.5 5.4-2.5m0-2.7c-2.6 0-5 1.1-7.2 3.3l-0.2 0.2c-1.8 2.1-2.8 4.5-3 7.1-0.2 2.9 0.8 5.5 2.9 7.6l14.5 14.4-14.5 14.5c-2.1 2.2-3.1 4.8-2.9 7.8 0.2 2.9 1.2 5.3 3.2 7.3s4.4 3 7.2 3h0.8c2.8-0.2 5.2-1.2 7.2-2.9l0.2-0.2 13.9-14.1 14 13.8c2.2 2.3 4.8 3.4 7.8 3.4s5.6-1 7.6-3c2.2-2.2 3.3-4.9 3.1-7.9-0.1-3-1.2-5.5-3.1-7.5l-14.1-14.2 14.1-14.2c2-2.1 3-4.6 3-7.6s-1-5.5-3-7.5c-2.2-2-4.7-3.1-7.4-3.2h-0.2c-2.8 0-5.2 1-7.3 3.1l-14.5 14.2-14.1-14.1v-0.1l-0.1-0.1c-2.1-1.9-4.5-2.9-7.2-3.2-0.2 0.1-0.5 0.1-0.7 0.1z" fill="#981d05"/></g></svg>
