<svg enable-background="new 0 0 128 128" version="1.1" viewBox="0 0 128 128" xml:space="preserve" xmlns="http://www.w3.org/2000/svg"><g transform="matrix(.96875 0 0 .96875 2 2)"><circle cx="64" cy="64" r="61.934" fill="#2268ab"/><path d="m64 128c-35.289 0-64-28.711-64-64s28.711-64 64-64 64 28.711 64 64-28.711 64-64 64zm0-123.87c-33.011 0-59.868 26.855-59.868 59.868s26.857 59.868 59.868 59.868 59.868-26.855 59.868-59.868-26.857-59.868-59.868-59.868z" fill="#114999"/><path d="m85.311 53.564c-3.957-8.111-12.221-13.307-21.264-13.307-1.375 0-2.764 0.121-4.125 0.364-8.236 1.448-15.172 7.237-18.111 15.105l-0.264 0.705-14.818 2.616 0.346-1.871c2.836-15.363 15.068-27.507 30.436-30.216 2.164-0.38 4.361-0.575 6.543-0.575 12.025 0 23.222 5.73 30.3 15.411l4.771-6.193 1.889 21.721 0.325 1.479-0.046 4e-3v7e-3l-23.129 4.048 7.147-9.298z" fill="#fff"/><path d="m64.053 27.711c12.314 0 23.643 6.318 30.25 16.325l3.8-4.938 1.6 18.411c7e-3 0.048 0.025 0.111 0.036 0.159l-0.025 3e-3 0.014 0.074-18.446 3.232 5.568-7.243c-3.996-8.916-12.936-14.798-22.803-14.798-1.436 0-2.889 0.125-4.353 0.38-9.054 1.595-16.114 7.893-19.121 15.948l-12.197 2.152c2.672-14.457 14.061-26.452 29.368-29.152 2.117-0.373 4.227-0.553 6.309-0.553m0-2.647c-2.257 0-4.536 0.2-6.768 0.595-7.957 1.405-15.164 5.177-20.846 10.911-5.55 5.605-9.239 12.65-10.664 20.368l-0.693 3.745 3.754-0.661 12.196-2.152 1.49-0.264 0.528-1.415c1.343-3.602 3.6-6.819 6.525-9.307 3.014-2.557 6.668-4.273 10.575-4.962 1.289-0.225 2.596-0.343 3.896-0.343 8.264 0 15.839 4.602 19.704 11.845l-4.564 5.941-4.143 5.386 6.697-1.168 18.443-3.232 1.371-0.24 1.393-0.173-0.625-2.82-1.582-18.248-0.593-6.761-4.143 5.377-1.65 2.145c-3.222-3.998-7.236-7.363-11.775-9.832-5.679-3.097-12.09-4.735-18.526-4.735z" fill="#114999"/><path d="m64.032 101.54c-11.982 0-23.157-5.701-30.254-15.341l-4.825 6.289-1.918-21.98c-7e-3 -0.032-0.011-0.063-0.014-0.087l-0.147-1.245 13.597-2.398 0.018 0.096 9.422-1.653-7.093 9.234c3.979 8.048 12.221 13.207 21.211 13.207 1.368 0 2.761-0.12 4.125-0.362 8.154-1.439 15.068-7.148 18.036-14.902l0.268-0.704 14.857-2.62-0.361 1.884c-1.411 7.411-4.986 14.168-10.336 19.541-5.475 5.498-12.411 9.121-20.057 10.466-2.157 0.382-4.354 0.575-6.529 0.575z" fill="#fff"/><path d="m46.793 67.111-5.518 7.182c4.021 8.855 12.918 14.691 22.754 14.691 1.432 0 2.89-0.123 4.353-0.384 8.975-1.581 15.997-7.784 19.043-15.732l12.232-2.159c-2.743 14.366-14.086 26.268-29.325 28.957-2.118 0.37-4.221 0.554-6.3 0.554-12.278 0-23.582-6.291-30.204-16.255l-3.85 5.019-1.632-18.652c-7e-3 -0.025-7e-3 -0.052-0.011-0.073l11.054-1.948c4e-3 0.029 0.018 0.059 0.025 0.095l7.379-1.295m6.239-3.779-6.697 1.173-4.764 0.834-0.014-0.093-2.629 0.463-11.05 1.948-2.471 0.432 0.304 2.487c4e-3 0.029 7e-3 0.059 0.011 0.095l1.622 18.545 0.589 6.779 4.143-5.398 1.711-2.23c3.225 3.986 7.239 7.329 11.761 9.784 5.675 3.084 12.068 4.713 18.486 4.713 2.25 0 4.525-0.2 6.761-0.591 7.914-1.398 15.097-5.145 20.765-10.841 5.535-5.559 9.232-12.555 10.696-20.223l0.718-3.768-3.775 0.668-12.232 2.156-1.475 0.259-0.536 1.402c-1.361 3.55-3.618 6.723-6.529 9.173-2.996 2.522-6.629 4.218-10.503 4.902-1.29 0.225-2.6 0.343-3.893 0.343-8.214 0-15.764-4.564-19.65-11.746l4.511-5.872 4.14-5.394z" fill="#114999"/></g></svg>
