<svg enable-background="new 0 0 128 128" version="1.1" viewBox="0 0 128 128" xml:space="preserve" xmlns="http://www.w3.org/2000/svg"><g transform="matrix(.96875 0 0 .96875 2 2)"><path d="m64 2.1c34.2 0 61.9 27.7 61.9 61.9s-27.7 61.9-61.9 61.9-61.9-27.7-61.9-61.9 27.7-61.9 61.9-61.9z" fill="#5eb220"/><path d="m64 128c-35.3 0-64-28.7-64-64s28.7-64 64-64 64 28.7 64 64-28.7 64-64 64zm0-123.9c-33 0-59.9 26.9-59.9 59.9s26.9 59.9 59.9 59.9 59.9-26.9 59.9-59.9-26.9-59.9-59.9-59.9z" fill="#3a9804"/></g><g transform="matrix(.96875 0 0 .96875 .50025 -1002)"><path d="m83.9 1059.9c-7.9 0-14.2 6.4-14.2 14.2 0 0.4 0 0.9 0.1 1.3l-27.4 14c-2.5-2.1-5.7-3.4-9.2-3.4-7.9 0-14.2 6.4-14.2 14.2 0 7.9 6.4 14.2 14.2 14.2 3.2 0 6.1-1 8.5-2.8l28.2 14.3c0 0.2-0.1 0.5-0.1 0.8 0 7.9 6.4 14.2 14.2 14.2s14.2-6.4 14.2-14.2c0-7.9-6.4-14.2-14.2-14.2-3.7 0-7.1 1.4-9.6 3.7l-27.2-13.9c0.1-0.7 0.2-1.4 0.2-2.2 0-0.4-0.1-0.8-0.1-1.2l27.5-14c2.5 2.1 5.7 3.4 9.2 3.4 7.9 0 14.2-6.4 14.2-14.2-0.1-7.9-6.5-14.3-14.3-14.2z" fill="#fff"/><path d="m83.9 1141.9c-8.4 0-15.2-6.8-15.2-15.1v-0.2l-27.1-13.8c-2.5 1.7-5.4 2.6-8.5 2.6-8.3 0-15.1-6.8-15.1-15.1s6.8-15.1 15.1-15.1c3.4 0 6.7 1.1 9.4 3.2l26.3-13.4v-0.8c0-8 6.2-14.6 14.1-15.1l1-0.1c8.3 0 15.1 6.8 15.1 15.1 0 8.4-6.8 15.2-15.1 15.2-3.4 0-6.7-1.1-9.3-3.2l-26.4 13.4v0.7c0 0.6-0.1 1.1-0.1 1.7l26.1 13.3c2.7-2.3 6.2-3.5 9.7-3.5 8.3 0 15.1 6.8 15.1 15.2 0 8.2-6.8 15-15.1 15zm-42.5-31.3 29.2 14.9-0.1 0.9v0.4c0 7.3 6 13.3 13.3 13.3s13.3-6 13.3-13.3-6-13.3-13.3-13.3c-3.3 0-6.5 1.2-9 3.5l-0.5 0.4-28.3-14.5 0.1-0.6c0.1-0.7 0.2-1.4 0.2-2.1v-0.8l-0.1-1 28.5-14.5 0.5 0.4c2.4 2 5.5 3.2 8.6 3.2 7.3 0 13.3-6 13.3-13.3 0-7.1-5.6-12.9-12.6-13.3h-0.7c-7.3 0-13.3 6-13.3 13.3 0 0.4 0 0.7 0.1 1.1l0.1 0.6-0.5 0.4-28 14.3-0.5-0.4c-2.4-2-5.5-3.2-8.6-3.2-7.3 0-13.3 6-13.3 13.3s6 13.3 13.3 13.3c2.9 0 5.6-0.9 7.9-2.6l0.4-0.4z" fill="#3a9804"/><path d="m83.9 1141.2c-8 0-14.4-6.5-14.4-14.4v-0.5-0.2l-28-14.2c-2.4 1.8-5.4 2.7-8.5 2.7-7.9 0-14.4-6.5-14.4-14.4s6.5-14.4 14.4-14.4c3.4 0 6.7 1.2 9.3 3.4l27.2-13.9v-0.1c0-0.4-0.1-0.7-0.1-1.1 0-7.9 6.4-14.3 14.2-14.4v-0.1h0.2c7.9 0 14.4 6.5 14.4 14.4 0 8-6.5 14.4-14.4 14.4-3.4 0-6.6-1.2-9.2-3.3l-27.2 13.9v0.2c0 0.3 0.1 0.6 0.1 0.9 0 0.7-0.1 1.4-0.2 2.1l27 13.8c2.6-2.4 6.1-3.7 9.6-3.7 7.9 0 14.4 6.5 14.4 14.4 0 8-6.5 14.5-14.4 14.5zm-42.4-29.8 28.4 14.4v0.1 0.3 0.5c0 7.7 6.3 14 14.1 14 7.7 0 14-6.3 14-14 0-7.8-6.3-14.1-14-14.1-3.5 0-6.9 1.3-9.5 3.7l-0.1 0.1-0.1-0.1-27.3-14v-0.1c0.1-0.7 0.2-1.4 0.2-2.2 0-0.3 0-0.6-0.1-0.9v-0.3-0.1l0.1-0.1 27.6-14 0.1 0.1c2.5 2.1 5.8 3.3 9.1 3.3 7.7 0 14-6.3 14-14.1 0-7.7-6.2-13.9-13.8-14v0.1h-0.2c-7.8 0-14.1 6.3-14.1 14 0 0.4 0 0.7 0.1 1v0.3l-0.1 0.1-27.5 14-0.1-0.1c-2.5-2.2-5.8-3.3-9.1-3.3-7.7 0-14 6.3-14 14s6.3 14 14 14c2.9 0.2 5.8-0.7 8.3-2.6z" fill="#fff"/><path d="m83.9 1142.1c-8.5 0-15.3-6.9-15.3-15.3v-0.1l-26.9-13.7c-2.5 1.7-5.5 2.6-8.6 2.6-8.4 0-15.3-6.9-15.3-15.3s6.9-15.3 15.3-15.3c3.4 0 6.7 1.1 9.4 3.2l26.1-13.3v-0.7c0-8 6.2-14.6 14.1-15.3l1-0.1c8.6 0 15.5 6.9 15.5 15.3 0 8.5-6.9 15.3-15.3 15.3-3.4 0-6.7-1.1-9.3-3.2l-26.2 13.3v0.6c0 0.5 0 1-0.1 1.6l25.8 13.2c2.7-2.3 6.2-3.5 9.7-3.5 8.4 0 15.3 6.9 15.3 15.3 0.1 8.5-6.8 15.4-15.2 15.4zm-42.6-31.7 0.7 0.3 28.8 14.7-0.1 1.1v0.4c0 7.2 5.9 13.1 13.1 13.1s13.1-5.9 13.1-13.1-5.9-13.1-13.1-13.1c-3.3 0-6.4 1.2-8.8 3.4l-0.5 0.4-0.6-0.2-28-14.3 0.1-0.6c0.1-0.8 0.2-1.5 0.2-2.2v-0.8l-0.1-1 0.5-0.4 28.2-14.4 0.5 0.4c2.5 2.1 5.5 3.2 8.6 3.2 7.2 0 13.1-5.9 13.1-13.1 0-6.9-5.5-12.7-12.3-13.1h-0.6c-7.5 0-13.4 5.9-13.4 13.1 0 0.3 0 0.7 0.1 1l0.1 1-0.5 0.3-28.2 14.4-0.5-0.4c-2.4-2.1-5.5-3.2-8.6-3.2-7.2 0-13.1 5.9-13.1 13.1s5.9 13.1 13.1 13.1c2.9 0 5.6-0.9 7.8-2.5l0.4-0.6z" fill="#3a9804"/></g></svg>
