<svg width="128" height="128" viewBox="0 0 128 128" xmlns="http://www.w3.org/2000/svg">
<defs>
<linearGradient id="bg" x2="0" y2="128" gradientUnits="userSpaceOnUse">
<stop stop-color="#1e2a4c" offset="0"/>
<stop stop-color="#0b1122" offset="1"/>
</linearGradient>
<linearGradient id="bgh" x2="0" y2="56" gradientUnits="userSpaceOnUse">
<stop stop-color="#fff" stop-opacity=".13" offset="0"/>
<stop stop-color="#fff" stop-opacity="0" offset="1"/>
</linearGradient>
<linearGradient id="blu" x2="0" y1="32" y2="56" gradientUnits="userSpaceOnUse">
<stop stop-color="#6dd4ee" offset="0"/>
<stop stop-color="#3aacd8" offset="1"/>
</linearGradient>
<linearGradient id="grn" x2="0" y1="52" y2="76" gradientUnits="userSpaceOnUse">
<stop stop-color="#a0dc54" offset="0"/>
<stop stop-color="#74ba2c" offset="1"/>
</linearGradient>
<linearGradient id="org" x2="0" y1="72" y2="96" gradientUnits="userSpaceOnUse">
<stop stop-color="#f88c52" offset="0"/>
<stop stop-color="#e0602a" offset="1"/>
</linearGradient>
<linearGradient id="shn" x2="0" y2="1">
<stop stop-color="#fff" stop-opacity=".4" offset="0"/>
<stop stop-color="#fff" stop-opacity=".06" offset=".5"/>
<stop stop-color="#fff" stop-opacity="0" offset="1"/>
</linearGradient>
<filter id="lsh" x="-6%" y="-12%" width="112%" height="148%" color-interpolation-filters="sRGB">
<feDropShadow dx="0" dy="4" flood-color="#000000" flood-opacity=".3" stdDeviation="3"/>
</filter>
</defs>
<rect width="128" height="128" rx="28" ry="28" fill="url(#bg)"/>
<rect width="128" height="56" rx="28" ry="28" fill="url(#bgh)"/>
<rect x="16" y="72" width="96" height="24" rx="12" ry="12" fill="url(#org)" filter="url(#lsh)"/>
<rect x="16" y="72" width="96" height="24" rx="12" ry="12" fill="url(#shn)"/>
<rect x="16" y="52" width="96" height="24" rx="12" ry="12" fill="url(#grn)" filter="url(#lsh)"/>
<rect x="16" y="52" width="96" height="24" rx="12" ry="12" fill="url(#shn)"/>
<rect x="16" y="32" width="96" height="24" rx="12" ry="12" fill="url(#blu)" filter="url(#lsh)"/>
<rect x="16" y="32" width="96" height="24" rx="12" ry="12" fill="url(#shn)"/>
</svg>
