<svg width="64" height="64" version="1" xmlns="http://www.w3.org/2000/svg">
<path d="m59.999 44.5v2c0 1.724-1.3872 3.434-3.1093 3.5h-25.889l-6.9998 8-6.9999-8h-9.8898c-1.724 0-3.1099-1.776-3.1099-3.5v-2c0 1.724 1.386 3.5 3.1099 3.5h9.8898l6.9999 8 6.9998-8h25.889c1.7234-0.066 3.1105-1.776 3.1105-3.5z" opacity=".2"/>
<path d="m56.888 7c1.7236 0 3.1111 1.7764 3.1111 3.5v35c0 1.724-1.3888 3.434-3.1111 3.5h-17.791l-6.9954-3.6344-6.8897 1.5022-6.7796-1.7225-7.6859 0.77093c-1.7154 0.17206-2.2601-1.3357-2.2309-3.0595l0.44053-25.969c0.029234-1.7234 2.9811-2.7716 4.5437-3.5l13.703-6.3877z" fill="#3c6eac"/>
<path d="m7.1133 7c-1.724 0-3.1133 1.7764-3.1133 3.5v35c0 1.724 1.3893 3.5 3.1133 3.5h9.8867l7 8 7-8h8.7812c1.7106-1.1462 3.4242-2.416 5.1406-3.8398 7.7176-6.7115 10.066-19.097 2.9102-27.102-4.8944-5.4741-13.646-7.1175-19.347-1.8789-3.7932 3.4863-4.9193 9.7984-1.1602 13.746 2.424 2.5459 6.5695 3.288 9.2298 0.66016 1.6542-1.6341 2.1246-4.9298 0.33594-6.6562-1.0645-1.0279-2.9306-1.316-4.0078-0.14062-0.6127 0.6645-0.77475 2.2188-0.03126 2.8555 0.39444 0.3367 1.0685 0.42358 1.4219-0.02344 0.17344-0.21918 0.22178-0.5929-0.03516-0.77344-0.11548-0.07988-0.30332-0.09764-0.38672 0.03516-0.0234 0.05146-0.02824 0.13846 0.03516 0.17188 0.0234 0.0132 0.07032 0.015 0.07032-0.0118v-0.0196-4e-3c-0.0334-0.0098 0-0.0184 0-0.0196 0.0234-0.0112 0.05468 0.012 0.05468 0.03516 0.0134 0.0666-0.04938 0.12722-0.10938 0.14062-0.15694 0.0357-0.26738-0.1142-0.30078-0.25-0.05172-0.30646 0.23923-0.53689 0.51953-0.57031 0.5663-0.06612 0.98344 0.47074 1.0234 0.98828 0.07508 0.97522-0.85359 1.6754-1.7539 1.7148-1.5941 0.07028-2.7049-1.4504-2.7383-2.9297-0.04272-2.4844 2.342-4.2009 4.668-4.1875 3.7408 0.02102 6.2894 3.6159 6.1992 7.1289-0.13648 5.4475-5.3971 9.1452-10.547 8.93-7.7379-0.32313-13.387-7.8352-12.973-15.164 0.37767-6.7009 4.7835-11.988 10.527-14.836z" fill="#47f6f4"/>
<path d="m7.1113 7c-1.724 0-3.1113 1.7764-3.1113 3.5v1c0-1.7236 1.3874-3.5 3.1113-3.5h49.777c1.7236 0 3.1094 1.7764 3.1094 3.5v-1c0-1.7236-1.3858-3.5-3.1094-3.5h-49.777z" fill="#fff" opacity=".1"/>
<path d="m26.74 8c-4.8478 2.9989-8.4029 7.8506-8.7402 13.836-0.02696 0.47704-0.02528 0.95508-2e-3 1.4316 0.0035-0.14388-0.0062-0.28785 2e-3 -0.43164 0.37767-6.7009 4.7835-11.988 10.527-14.836zm8.5801 12.941c-2.3259-0.0134-4.7107 1.703-4.668 4.1875 3e-3 0.132 0.02521 0.26303 0.04492 0.39453 0.31728-2.1525 2.4918-3.5943 4.623-3.582 3.4799 0.01955 5.9258 3.1324 6.1777 6.3945 0.0051-0.08944 0.01922-0.17521 0.02148-0.26563 0.0902-3.513-2.4584-7.1079-6.1992-7.1289zm-10.32 3.5605c-0.11745 2.305 0.4006 4.613 2.125 6.4238 2.424 2.5459 6.7694 3.288 9.4297 0.66016 1.0361-1.0235 1.6062-2.699 1.4492-4.2324-0.11296 1.2232-0.63567 2.4288-1.4492 3.2324-2.6603 2.6279-7.0056 1.8858-9.4297-0.66016-1.4746-1.5486-2.02-3.4608-2.125-5.4238zm9.1211 0.85352c-0.2803 0.03342-0.57125 0.26386-0.51953 0.57031 0.0334 0.1358 0.14384 0.2857 0.30078 0.25 0.06-0.0134 0.12278-0.07402 0.10938-0.14062 0-0.02316-0.03129-0.04636-0.05469-0.03516 0 0.0012-0.0334 0.0097 0 0.01953v0.0039 0.01953c0 0.0268-0.04691 0.02492-0.07031 0.01172-0.0634-0.03342-0.05856-0.12042-0.03516-0.17188 0.0834-0.1328 0.27124-0.11504 0.38672-0.03516 0.175 0.12297 0.2017 0.33501 0.15039 0.52734 0.29756 0.06864 0.53321 0.30114 0.6582 0.58594 0.075-0.18918 0.11477-0.39485 0.09766-0.61719-0.04-0.51754-0.45714-1.0544-1.0234-0.98828zm-1.7109 0.45312c-0.13417 0.67556-0.02512 1.4365 0.44141 1.8359 0.39444 0.3367 1.0685 0.42358 1.4219-0.02344 0.17344-0.21918 0.22179-0.5929-0.03516-0.77344-0.04726-0.03269-0.10859-0.04496-0.16797-0.05078-0.06663 0.04156-0.1403 0.06145-0.21484 0.08203-0.0011 0.0016-0.0028 0.0022-0.0039 0.0039-0.0234 0.05146-0.02824 0.13845 0.03516 0.17188 0.0234 0.0132 0.07031 0.01508 0.07031-0.01172v-0.01953-0.0039c-0.0334-0.0098 0-0.01833 0-0.01953 0.0234-0.0112 0.05469 0.012 0.05469 0.03516 0.0134 0.0666-0.04937 0.12722-0.10938 0.14062-0.15694 0.0357-0.26738-0.1142-0.30078-0.25-2.33e-4 -0.0014 2.2e-4 -0.0025 0-0.0039-0.26969-0.0019-0.54668-0.10379-0.75-0.27734-0.23751-0.20338-0.37389-0.50418-0.44141-0.83594zm19.693 4.5488c-0.24052 5.5363-2.8715 11.054-7.1816 14.803-1.7164 1.4239-3.4301 2.6937-5.1406 3.8398h1.4141c1.2409-0.88165 2.4826-1.8079 3.7266-2.8398 4.5699-3.9742 7.2354-9.9373 7.1816-15.803z" opacity=".2"/>
</svg>
