<svg width="128" height="128" version="1.1" viewBox="0 0 33.867 33.867" xmlns="http://www.w3.org/2000/svg">
<defs>
<radialGradient id="radialGradient898" cx="60.636" cy="20.456" r="17.304" gradientTransform="translate(-43.433 -3.9449)" gradientUnits="userSpaceOnUse"/>
<radialGradient id="radialGradient993" cx="16.968" cy="3.7659" r="13.696" gradientTransform="matrix(4.8886 0 0 1.8641 -65.724 -2.4383)" gradientUnits="userSpaceOnUse"/>
<linearGradient id="linearGradient1401" x1="6.947" x2="6.947" y1="7.5193" y2="49.584" gradientTransform="translate(-.11067 -.90159)" gradientUnits="userSpaceOnUse"/>
<linearGradient id="linearGradient4782" x1="2686" x2="2686" y1="1088.8" y2="1770.4" gradientTransform="matrix(.042779 0 0 .042779 -95.919 -44.867)" gradientUnits="userSpaceOnUse"/>
</defs>
<circle cx="17.203" cy="16.512" r="17.304" fill="url(#radialGradient898)" opacity=".30973" stroke-linecap="square" stroke-linejoin="round" stroke-width="3"/>
<circle cx="17.203" cy="16.512" r="15.118" fill="url(#linearGradient4782)" stroke="#b1aaaa" stroke-linecap="square" stroke-opacity=".99216" stroke-width=".057556"/>
<circle cx="17.203" cy="16.512" r="13.102" fill="url(#radialGradient993)"/>
<path d="m17.267 7.3594c-5.2827 0-10.431 4.4963-10.431 10.663 0 4.7489 4.224 9.0398 9.5615 9.0398 1.9401 0 4.1012-0.669 5.8571-1.9128 1.7559-1.2438 3.1249-3.1448 3.1249-5.5051 0-4.5117-3.5018-8.8078-8.1128-8.8078-3.7151 0-6.8404 2.937-6.9538 6.3449-0.04959 1.4892 0.28026 3.0713 1.2688 4.3235 0.9885 1.2522 2.6433 2.0803 4.8736 2.0803 2.3512 0 4.8679-1.8208 4.8679-4.7513 0-2.1916-1.795-3.941-3.9749-3.941-0.50361 0-1.1397 0.02749-1.7713 0.33615-0.63159 0.30865-1.2076 1.0686-1.2076 1.9818 0 1.4956 0.91606 2.4572 1.7554 2.748 0.83938 0.29088 1.6038 0.13695 1.6038 0.13695a0.86961 0.86961 0 1 0-0.29767-1.7136s-0.40563 0.04912-0.73681-0.06564c-0.33118-0.11477-0.58628-0.16757-0.58628-1.1058 0-0.35875 0.03205-0.32218 0.23202-0.4199 0.19996-0.09772 0.61964-0.15958 1.0084-0.15958 1.2832 0 2.2365 0.9309 2.2365 2.2025 0 1.9371-1.6563 3.0129-3.1295 3.0129-1.8261 0-2.8523-0.58672-3.5086-1.4182-0.65633-0.83144-0.93476-2.0019-0.89526-3.1883 0.07786-2.3382 2.4403-4.6653 5.2154-4.6653 3.5018 0 6.3744 3.4682 6.3744 7.0693 0 1.6961-0.95568 3.0696-2.3904 4.0858-1.4347 1.0162-3.3301 1.5936-4.8532 1.5936-4.3979 0-7.8231-3.6018-7.8231-7.3013 0-5.1915 4.4063-8.9243 8.6923-8.9243 5.0266 0 7.1695 2.0217 8.2611 4.036 1.0916 2.0143 1.0118 4.0372 1.0118 4.0372a0.86932 0.86932 0 1 0 1.7362 0.07922s0.12326-2.4682-1.219-4.9449c-1.3422-2.4767-4.2701-4.946-9.7902-4.946z" opacity=".1" stroke-width=".57949"/>
<path d="m17.267 6.7799c-5.2827 0-10.431 4.4963-10.431 10.663 0 4.7489 4.224 9.0398 9.5615 9.0398 1.9401 0 4.1012-0.669 5.8571-1.9128 1.7559-1.2438 3.1249-3.1448 3.1249-5.5051 0-4.5117-3.5018-8.8078-8.1128-8.8078-3.7151 0-6.8404 2.937-6.9538 6.3449-0.04959 1.4892 0.28026 3.0713 1.2688 4.3235 0.9885 1.2522 2.6433 2.0803 4.8736 2.0803 2.3512 0 4.8679-1.8208 4.8679-4.7513 0-2.1916-1.795-3.941-3.9749-3.941-0.50361 0-1.1397 0.02749-1.7713 0.33615-0.63159 0.30866-1.2076 1.0686-1.2076 1.9818 0 1.4956 0.91606 2.4572 1.7554 2.748 0.83938 0.29088 1.6038 0.13695 1.6038 0.13695a0.86961 0.86961 0 1 0-0.29767-1.7136s-0.40563 0.04912-0.73681-0.06564c-0.33118-0.11476-0.58628-0.16757-0.58628-1.1058 0-0.35875 0.03205-0.32218 0.23202-0.4199 0.19996-0.09772 0.61964-0.15958 1.0084-0.15958 1.2832 0 2.2365 0.9309 2.2365 2.2025 0 1.9371-1.6563 3.0129-3.1295 3.0129-1.8261 0-2.8523-0.58672-3.5086-1.4182-0.65633-0.83144-0.93476-2.0019-0.89526-3.1883 0.07786-2.3382 2.4403-4.6653 5.2154-4.6653 3.5018 0 6.3744 3.4682 6.3744 7.0693 0 1.6961-0.95568 3.0696-2.3904 4.0858-1.4347 1.0162-3.3301 1.5936-4.8532 1.5936-4.3979 0-7.8231-3.6018-7.8231-7.3013 0-5.1915 4.4063-8.9243 8.6923-8.9243 5.0266 0 7.1695 2.0217 8.2611 4.036 1.0916 2.0143 1.0118 4.0372 1.0118 4.0372a0.86932 0.86932 0 1 0 1.7362 0.07922s0.12326-2.4682-1.219-4.9449c-1.3422-2.4767-4.2701-4.946-9.7902-4.946z" fill="url(#linearGradient1401)" stroke-width=".57949"/>
</svg>
