<svg width="128" height="128" version="1.1" viewBox="0 0 33.867 33.867" xmlns="http://www.w3.org/2000/svg">
<defs>
<linearGradient id="linearGradient897" x1="2686" x2="2686" y1="1088.8" y2="1770.4" gradientTransform="matrix(.042779 0 0 .042779 -95.919 -44.867)" gradientUnits="userSpaceOnUse"/>
<radialGradient id="radialGradient898" cx="60.636" cy="20.456" r="17.304" gradientTransform="translate(-43.433 -3.9449)" gradientUnits="userSpaceOnUse"/>
<radialGradient id="radialGradient993" cx="16.787" cy="3.5457" r="13.696" gradientTransform="matrix(4.8886 0 0 1.5421 -65.724 -.93385)" gradientUnits="userSpaceOnUse"/>
<linearGradient id="linearGradient1161" x1="10.492" x2="10.492" y1="7.8554" y2="29.157" gradientTransform="matrix(.95924 0 0 .95924 2.5883 -.17145)" gradientUnits="userSpaceOnUse"/>
</defs>
<circle cx="17.203" cy="16.512" r="17.304" fill="url(#radialGradient898)" opacity=".30973" stroke-linecap="square" stroke-linejoin="round" stroke-width="3"/>
<circle cx="17.203" cy="16.512" r="15.118" fill="url(#linearGradient897)" stroke="#b1aaaa" stroke-linecap="square" stroke-opacity=".99216" stroke-width=".057556"/>
<circle cx="17.203" cy="16.512" r="13.102" fill="url(#radialGradient993)"/>
<g transform="matrix(.87305 0 0 .87305 4.0493 1.3009)" fill="#3d1c00" opacity=".39192" stroke-width=".81893">
<path d="m10.989 6.7764h5.3231l8.8715 9.7592-8.8715 11.533h-5.3231l8.8715-11.533" fill-opacity=".23067"/>
<path d="m12.156 7.4229h5.3231l8.8715 9.7592-8.8715 11.533h-5.3231l8.8715-11.533" fill-opacity=".093762"/>
<path d="m13.101 8.1632h5.3231l8.8715 9.7592-8.8715 11.533h-5.3231l8.8715-11.533" fill-opacity=".093762"/>
</g>
<path d="m12.652 6.9205h4.6473l7.7453 8.5203-7.7453 10.069h-4.6473l7.7453-10.069" fill="url(#linearGradient1161)" stroke-width=".71497"/>
</svg>
