<svg width="128" height="128" version="1.1" viewBox="0 0 33.867 33.867" xmlns="http://www.w3.org/2000/svg">
<defs>
<linearGradient id="linearGradient897" x1="2686" x2="2686" y1="1088.8" y2="1770.4" gradientTransform="matrix(.042779 0 0 .042779 -95.919 -44.867)" gradientUnits="userSpaceOnUse"/>
<radialGradient id="radialGradient898" cx="60.636" cy="20.456" r="17.304" gradientTransform="translate(-43.433 -3.9449)" gradientUnits="userSpaceOnUse"/>
<radialGradient id="radialGradient993" cx="16.968" cy="4.6709" r="13.696" gradientTransform="matrix(4.8886 0 0 1.8641 -65.724 -2.4383)" gradientUnits="userSpaceOnUse"/>
<linearGradient id="linearGradient1183" x1="15.73" x2="15.73" y1="6.447" y2="69.08" gradientTransform="matrix(.94276 0 0 .94276 .71119 -2.2955)" gradientUnits="userSpaceOnUse"/>
</defs>
<circle cx="17.203" cy="16.512" r="17.304" fill="url(#radialGradient898)" opacity=".30973" stroke-linecap="square" stroke-linejoin="round" stroke-width="3"/>
<circle cx="17.203" cy="16.512" r="15.118" fill="url(#linearGradient897)" stroke="#b1aaaa" stroke-linecap="square" stroke-opacity=".99216" stroke-width=".057556"/>
<circle cx="17.203" cy="16.512" r="13.102" fill="url(#radialGradient993)"/>
<path d="m9.9791 7.6451c-1.1759 0-2.1226 0.94668-2.1226 2.1226v7.4147c0 1.1759 0.94668 2.1225 2.1226 2.1225h7.0593c0.08009-0.99633 0.4503-1.9137 1.0247-2.6683h-3.2794c-0.4015 0-0.72471-0.32322-0.72471-0.72471 0-0.40149 0.32322-0.72471 0.72471-0.72471h3.6603c0.29419 0 0.545 0.17441 0.6588 0.42512 0.84573-0.62476 1.8887-0.99597 3.015-0.99597 1.1989 0 2.3037 0.42034 3.1766 1.1197v-5.9683c0-1.1759-0.94668-2.1226-2.1226-2.1226zm1.0644 2.6312a0.71255 0.71255 0 0 1 0.71255 0.71255 0.71255 0.71255 0 0 1-0.71255 0.71255 0.71255 0.71255 0 0 1-0.71255-0.71255 0.71255 0.71255 0 0 1 0.71255-0.71255zm3.7072 0a0.71255 0.71255 0 0 1 0.71246 0.71255 0.71255 0.71255 0 0 1-0.71246 0.71255 0.71255 0.71255 0 0 1-0.71255-0.71255 0.71255 0.71255 0 0 1 0.71255-0.71255zm3.7071 0a0.71255 0.71255 0 0 1 0.71255 0.71255 0.71255 0.71255 0 0 1-0.71255 0.71255 0.71255 0.71255 0 0 1-0.71255-0.71255 0.71255 0.71255 0 0 1 0.71255-0.71255zm3.7071 0a0.71255 0.71255 0 0 1 0.71255 0.71255 0.71255 0.71255 0 0 1-0.71255 0.71255 0.71255 0.71255 0 0 1-0.71255-0.71255 0.71255 0.71255 0 0 1 0.71255-0.71255zm-9.2477 2.4404a0.71255 0.71255 0 0 1 0.71255 0.71255 0.71255 0.71255 0 0 1-0.71255 0.71256 0.71255 0.71255 0 0 1-0.71255-0.71255 0.71255 0.71255 0 0 1 0.71255-0.71255zm3.6975 0a0.71255 0.71255 0 0 1 0.71255 0.71255 0.71255 0.71255 0 0 1-0.71255 0.71256 0.71255 0.71255 0 0 1-0.71255-0.71255 0.71255 0.71255 0 0 1 0.71255-0.71255zm3.6975 0a0.71255 0.71255 0 0 1 0.71255 0.71255 0.71255 0.71255 0 0 1-0.71255 0.71256 0.71255 0.71255 0 0 1-0.71255-0.71255 0.71255 0.71255 0 0 1 0.71255-0.71255zm1.8055 3.0699c-2.1756 0-3.9271 1.7515-3.9271 3.9271v0.07588h7.8542v-0.07588c0-2.1756-1.7515-3.9271-3.9271-3.9271zm0 1.844c0.37423 0 0.67553 0.3013 0.67553 0.67553v0.40939c0 0.37423-0.3013 0.67553-0.67553 0.67553-0.37423 0-0.67553-0.3013-0.67553-0.67553v-0.40939c0-0.37423 0.3013-0.67553 0.67553-0.67553zm-3.9271 3.7712v1.8595c0 2.1756 1.7515 3.9271 3.9271 3.9271s3.9271-1.7515 3.9271-3.9271v-1.8595z" fill="#1d0047" fill-opacity=".028682"/>
<path d="m10.045 7.7402c-1.1759 0-2.1226 0.94668-2.1226 2.1226v7.4147c0 1.1759 0.94668 2.1225 2.1226 2.1225h7.0593c0.08009-0.99633 0.4503-1.9137 1.0247-2.6683h-3.2794c-0.4015 0-0.72471-0.32322-0.72471-0.72471 0-0.4015 0.32322-0.72471 0.72471-0.72471h3.6603c0.29419 0 0.545 0.17441 0.6588 0.42512 0.84573-0.62476 1.8887-0.99597 3.015-0.99597 1.1989 0 2.3037 0.42034 3.1766 1.1197v-5.9683c0-1.1759-0.94668-2.1226-2.1226-2.1226zm1.0644 2.6312a0.71255 0.71255 0 0 1 0.71255 0.71255 0.71255 0.71255 0 0 1-0.71255 0.71255 0.71255 0.71255 0 0 1-0.71255-0.71255 0.71255 0.71255 0 0 1 0.71255-0.71255zm3.7072 0a0.71255 0.71255 0 0 1 0.71246 0.71255 0.71255 0.71255 0 0 1-0.71246 0.71255 0.71255 0.71255 0 0 1-0.71255-0.71255 0.71255 0.71255 0 0 1 0.71255-0.71255zm3.7071 0a0.71255 0.71255 0 0 1 0.71255 0.71255 0.71255 0.71255 0 0 1-0.71255 0.71255 0.71255 0.71255 0 0 1-0.71255-0.71255 0.71255 0.71255 0 0 1 0.71255-0.71255zm3.7071 0a0.71255 0.71255 0 0 1 0.71255 0.71255 0.71255 0.71255 0 0 1-0.71255 0.71255 0.71255 0.71255 0 0 1-0.71255-0.71255 0.71255 0.71255 0 0 1 0.71255-0.71255zm-9.2477 2.4404a0.71255 0.71255 0 0 1 0.71255 0.71255 0.71255 0.71255 0 0 1-0.71255 0.71255 0.71255 0.71255 0 0 1-0.71255-0.71255 0.71255 0.71255 0 0 1 0.71255-0.71255zm3.6975 0a0.71255 0.71255 0 0 1 0.71255 0.71255 0.71255 0.71255 0 0 1-0.71255 0.71255 0.71255 0.71255 0 0 1-0.71255-0.71255 0.71255 0.71255 0 0 1 0.71255-0.71255zm3.6975 0a0.71255 0.71255 0 0 1 0.71255 0.71255 0.71255 0.71255 0 0 1-0.71255 0.71255 0.71255 0.71255 0 0 1-0.71255-0.71255 0.71255 0.71255 0 0 1 0.71255-0.71255zm1.8055 3.0699c-2.1756 0-3.9271 1.7515-3.9271 3.9271v0.07588h7.8542v-0.07588c0-2.1756-1.7515-3.9271-3.9271-3.9271zm0 1.844c0.37423 0 0.67553 0.3013 0.67553 0.67553v0.40939c0 0.37423-0.3013 0.67553-0.67553 0.67553-0.37423 0-0.67553-0.3013-0.67553-0.67553v-0.40939c0-0.37423 0.3013-0.67553 0.67553-0.67553zm-3.9271 3.7712v1.8595c0 2.1756 1.7515 3.9271 3.9271 3.9271s3.9271-1.7515 3.9271-3.9271v-1.8595z" fill="#1d0047" fill-opacity=".028682"/>
<path d="m10.084 7.9149c-1.1759 0-2.1226 0.94668-2.1226 2.1226v7.4147c0 1.1759 0.94668 2.1225 2.1226 2.1225h7.0593c0.08009-0.99633 0.4503-1.9137 1.0247-2.6683h-3.2794c-0.4015 0-0.72471-0.32322-0.72471-0.72471s0.32322-0.72471 0.72471-0.72471h3.6603c0.29419 0 0.545 0.17441 0.6588 0.42512 0.84573-0.62476 1.8887-0.99596 3.015-0.99596 1.1989 0 2.3037 0.42034 3.1766 1.1197v-5.9683c0-1.1759-0.94668-2.1226-2.1226-2.1226zm1.0644 2.6312a0.71255 0.71255 0 0 1 0.71255 0.71255 0.71255 0.71255 0 0 1-0.71255 0.71255 0.71255 0.71255 0 0 1-0.71255-0.71255 0.71255 0.71255 0 0 1 0.71255-0.71255zm3.7072 0a0.71255 0.71255 0 0 1 0.71246 0.71255 0.71255 0.71255 0 0 1-0.71246 0.71255 0.71255 0.71255 0 0 1-0.71255-0.71255 0.71255 0.71255 0 0 1 0.71255-0.71255zm3.7071 0a0.71255 0.71255 0 0 1 0.71255 0.71255 0.71255 0.71255 0 0 1-0.71255 0.71255 0.71255 0.71255 0 0 1-0.71255-0.71255 0.71255 0.71255 0 0 1 0.71255-0.71255zm3.7071 0a0.71255 0.71255 0 0 1 0.71255 0.71255 0.71255 0.71255 0 0 1-0.71255 0.71255 0.71255 0.71255 0 0 1-0.71255-0.71255 0.71255 0.71255 0 0 1 0.71255-0.71255zm-9.2477 2.4404a0.71255 0.71255 0 0 1 0.71255 0.71255 0.71255 0.71255 0 0 1-0.71255 0.71256 0.71255 0.71255 0 0 1-0.71255-0.71256 0.71255 0.71255 0 0 1 0.71255-0.71255zm3.6975 0a0.71255 0.71255 0 0 1 0.71255 0.71255 0.71255 0.71255 0 0 1-0.71255 0.71256 0.71255 0.71255 0 0 1-0.71255-0.71256 0.71255 0.71255 0 0 1 0.71255-0.71255zm3.6975 0a0.71255 0.71255 0 0 1 0.71255 0.71255 0.71255 0.71255 0 0 1-0.71255 0.71256 0.71255 0.71255 0 0 1-0.71255-0.71256 0.71255 0.71255 0 0 1 0.71255-0.71255zm1.8055 3.0699c-2.1756 0-3.9271 1.7515-3.9271 3.9271v0.07588h7.8542v-0.07588c0-2.1756-1.7515-3.9271-3.9271-3.9271zm0 1.844c0.37423 0 0.67553 0.3013 0.67553 0.67553v0.40939c0 0.37423-0.3013 0.67553-0.67553 0.67553-0.37423 0-0.67553-0.3013-0.67553-0.67553v-0.40939c0-0.37423 0.3013-0.67553 0.67553-0.67553zm-3.9271 3.7712v1.8595c0 2.1756 1.7515 3.9271 3.9271 3.9271s3.9271-1.7515 3.9271-3.9271v-1.8595z" fill="#1d0047" fill-opacity=".028682"/>
<path d="m10.14 8.1378c-1.1759 0-2.1226 0.94668-2.1226 2.1226v7.4147c0 1.1759 0.94668 2.1225 2.1226 2.1225h7.0593c0.08009-0.99633 0.4503-1.9137 1.0247-2.6683h-3.2794c-0.4015 0-0.72471-0.32322-0.72471-0.72471 0-0.4015 0.32322-0.72471 0.72471-0.72471h3.6603c0.29419 0 0.545 0.17441 0.6588 0.42512 0.84573-0.62476 1.8887-0.99597 3.015-0.99597 1.1989 0 2.3037 0.42034 3.1766 1.1197v-5.9683c0-1.1759-0.94668-2.1226-2.1226-2.1226zm1.0644 2.6312a0.71255 0.71255 0 0 1 0.71255 0.71255 0.71255 0.71255 0 0 1-0.71255 0.71255 0.71255 0.71255 0 0 1-0.71255-0.71255 0.71255 0.71255 0 0 1 0.71255-0.71255zm3.7072 0a0.71255 0.71255 0 0 1 0.71246 0.71255 0.71255 0.71255 0 0 1-0.71246 0.71255 0.71255 0.71255 0 0 1-0.71255-0.71255 0.71255 0.71255 0 0 1 0.71255-0.71255zm3.7071 0a0.71255 0.71255 0 0 1 0.71255 0.71255 0.71255 0.71255 0 0 1-0.71255 0.71255 0.71255 0.71255 0 0 1-0.71255-0.71255 0.71255 0.71255 0 0 1 0.71255-0.71255zm3.7071 0a0.71255 0.71255 0 0 1 0.71255 0.71255 0.71255 0.71255 0 0 1-0.71255 0.71255 0.71255 0.71255 0 0 1-0.71255-0.71255 0.71255 0.71255 0 0 1 0.71255-0.71255zm-9.2477 2.4404a0.71255 0.71255 0 0 1 0.71255 0.71255 0.71255 0.71255 0 0 1-0.71255 0.71255 0.71255 0.71255 0 0 1-0.71255-0.71255 0.71255 0.71255 0 0 1 0.71255-0.71255zm3.6975 0a0.71255 0.71255 0 0 1 0.71255 0.71255 0.71255 0.71255 0 0 1-0.71255 0.71255 0.71255 0.71255 0 0 1-0.71255-0.71255 0.71255 0.71255 0 0 1 0.71255-0.71255zm3.6975 0a0.71255 0.71255 0 0 1 0.71255 0.71255 0.71255 0.71255 0 0 1-0.71255 0.71255 0.71255 0.71255 0 0 1-0.71255-0.71255 0.71255 0.71255 0 0 1 0.71255-0.71255zm1.8055 3.0699c-2.1756 0-3.9271 1.7515-3.9271 3.9271v0.07588h7.8542v-0.07588c0-2.1756-1.7515-3.9271-3.9271-3.9271zm0 1.844c0.37423 0 0.67553 0.3013 0.67553 0.67553v0.40939c0 0.37423-0.3013 0.67553-0.67553 0.67553-0.37423 0-0.67553-0.3013-0.67553-0.67553v-0.40939c0-0.37423 0.3013-0.67553 0.67553-0.67553zm-3.9271 3.7712v1.8595c0 2.1756 1.7515 3.9271 3.9271 3.9271s3.9271-1.7515 3.9271-3.9271v-1.8595z" fill="#1d0047" fill-opacity=".028682"/>
<path d="m10.271 8.4069c-1.1759 0-2.1226 0.94668-2.1226 2.1226v7.4147c0 1.1759 0.94668 2.1225 2.1226 2.1225h7.0593c0.08009-0.99633 0.4503-1.9137 1.0247-2.6683h-3.2794c-0.4015 0-0.72471-0.32322-0.72471-0.72471 0-0.4015 0.32322-0.72471 0.72471-0.72471h3.6603c0.29419 0 0.545 0.17441 0.6588 0.42512 0.84573-0.62476 1.8887-0.99597 3.015-0.99597 1.1989 0 2.3037 0.42034 3.1766 1.1197v-5.9683c0-1.1759-0.94668-2.1226-2.1226-2.1226zm1.0644 2.6312a0.71255 0.71255 0 0 1 0.71255 0.71255 0.71255 0.71255 0 0 1-0.71255 0.71255 0.71255 0.71255 0 0 1-0.71255-0.71255 0.71255 0.71255 0 0 1 0.71255-0.71255zm3.7072 0a0.71255 0.71255 0 0 1 0.71246 0.71255 0.71255 0.71255 0 0 1-0.71246 0.71255 0.71255 0.71255 0 0 1-0.71255-0.71255 0.71255 0.71255 0 0 1 0.71255-0.71255zm3.7071 0a0.71255 0.71255 0 0 1 0.71255 0.71255 0.71255 0.71255 0 0 1-0.71255 0.71255 0.71255 0.71255 0 0 1-0.71255-0.71255 0.71255 0.71255 0 0 1 0.71255-0.71255zm3.7071 0a0.71255 0.71255 0 0 1 0.71255 0.71255 0.71255 0.71255 0 0 1-0.71255 0.71255 0.71255 0.71255 0 0 1-0.71255-0.71255 0.71255 0.71255 0 0 1 0.71255-0.71255zm-9.2477 2.4404a0.71255 0.71255 0 0 1 0.71255 0.71255 0.71255 0.71255 0 0 1-0.71255 0.71255 0.71255 0.71255 0 0 1-0.71255-0.71255 0.71255 0.71255 0 0 1 0.71255-0.71255zm3.6975 0a0.71255 0.71255 0 0 1 0.71255 0.71255 0.71255 0.71255 0 0 1-0.71255 0.71255 0.71255 0.71255 0 0 1-0.71255-0.71255 0.71255 0.71255 0 0 1 0.71255-0.71255zm3.6975 0a0.71255 0.71255 0 0 1 0.71255 0.71255 0.71255 0.71255 0 0 1-0.71255 0.71255 0.71255 0.71255 0 0 1-0.71256-0.71255 0.71255 0.71255 0 0 1 0.71256-0.71255zm1.8055 3.0699c-2.1756 0-3.9271 1.7515-3.9271 3.9271v0.07588h7.8542v-0.07588c0-2.1756-1.7515-3.9271-3.9271-3.9271zm0 1.844c0.37423 0 0.67553 0.3013 0.67553 0.67553v0.40939c0 0.37423-0.3013 0.67553-0.67553 0.67553s-0.67553-0.3013-0.67553-0.67553v-0.40939c0-0.37423 0.3013-0.67553 0.67553-0.67553zm-3.9271 3.7712v1.8595c0 2.1756 1.7515 3.9271 3.9271 3.9271 2.1756 0 3.9271-1.7515 3.9271-3.9271v-1.8595z" fill="#1d0047" fill-opacity=".028682"/>
<path d="m9.9278 7.5491c-1.1759 0-2.1226 0.94668-2.1226 2.1226v7.4147c0 1.1759 0.94668 2.1225 2.1226 2.1225h7.0593c0.08009-0.99633 0.4503-1.9137 1.0247-2.6683h-3.2794c-0.4015 0-0.72471-0.32322-0.72471-0.72471 0-0.4015 0.32322-0.72471 0.72471-0.72471h3.6603c0.29419 0 0.545 0.17441 0.6588 0.42512 0.84573-0.62476 1.8887-0.99597 3.015-0.99597 1.1989 0 2.3037 0.42034 3.1766 1.1197v-5.9683c0-1.1759-0.94668-2.1226-2.1226-2.1226zm1.0643 2.6312a0.71255 0.71255 0 0 1 0.71255 0.71255 0.71255 0.71255 0 0 1-0.71255 0.71255 0.71255 0.71255 0 0 1-0.71255-0.71255 0.71255 0.71255 0 0 1 0.71255-0.71255zm3.7072 0a0.71255 0.71255 0 0 1 0.71246 0.71255 0.71255 0.71255 0 0 1-0.71246 0.71255 0.71255 0.71255 0 0 1-0.71255-0.71255 0.71255 0.71255 0 0 1 0.71255-0.71255zm3.7071 0a0.71255 0.71255 0 0 1 0.71255 0.71255 0.71255 0.71255 0 0 1-0.71255 0.71255 0.71255 0.71255 0 0 1-0.71255-0.71255 0.71255 0.71255 0 0 1 0.71255-0.71255zm3.7071 0a0.71255 0.71255 0 0 1 0.71255 0.71255 0.71255 0.71255 0 0 1-0.71255 0.71255 0.71255 0.71255 0 0 1-0.71255-0.71255 0.71255 0.71255 0 0 1 0.71255-0.71255zm-9.2477 2.4404a0.71255 0.71255 0 0 1 0.71255 0.71255 0.71255 0.71255 0 0 1-0.71255 0.71255 0.71255 0.71255 0 0 1-0.71255-0.71255 0.71255 0.71255 0 0 1 0.71255-0.71255zm3.6975 0a0.71255 0.71255 0 0 1 0.71255 0.71255 0.71255 0.71255 0 0 1-0.71255 0.71255 0.71255 0.71255 0 0 1-0.71255-0.71255 0.71255 0.71255 0 0 1 0.71255-0.71255zm3.6975 0a0.71255 0.71255 0 0 1 0.71255 0.71255 0.71255 0.71255 0 0 1-0.71255 0.71255 0.71255 0.71255 0 0 1-0.71255-0.71255 0.71255 0.71255 0 0 1 0.71255-0.71255zm1.8055 3.0699c-2.1756 0-3.9271 1.7515-3.9271 3.9271v0.07588h7.8542v-0.07588c0-2.1756-1.7515-3.9271-3.9271-3.9271zm0 1.844c0.37423 0 0.67553 0.3013 0.67553 0.67553v0.40939c0 0.37423-0.3013 0.67553-0.67553 0.67553-0.37423 0-0.67553-0.3013-0.67553-0.67553v-0.40939c0-0.37423 0.3013-0.67553 0.67553-0.67553zm-3.9271 3.7712v1.8595c0 2.1756 1.7515 3.9271 3.9271 3.9271 2.1756 0 3.9271-1.7515 3.9271-3.9271v-1.8595z" fill="url(#linearGradient1183)"/>
</svg>
