<svg width="128" height="128" version="1.1" viewBox="0 0 33.867 33.867" xmlns="http://www.w3.org/2000/svg">
<defs>
<linearGradient id="linearGradient897" x1="2686" x2="2686" y1="1088.8" y2="1770.4" gradientTransform="matrix(.042779 0 0 .042779 -95.919 -44.867)" gradientUnits="userSpaceOnUse"/>
<radialGradient id="radialGradient898" cx="60.636" cy="20.456" r="17.304" gradientTransform="translate(-43.433 -3.9449)" gradientUnits="userSpaceOnUse"/>
<radialGradient id="radialGradient993" cx="16.787" cy="3.5457" r="13.696" gradientTransform="matrix(4.8886 0 0 1.5421 -65.724 -.93385)" gradientUnits="userSpaceOnUse"/>
<radialGradient id="radialGradient2258" cx="17.378" cy="17.692" r="6.7195" gradientTransform="matrix(1.1581 0 0 1.1098 -2.128 -1.7311)" gradientUnits="userSpaceOnUse"/>
<radialGradient id="radialGradient12420" cx="17.049" cy="17.312" r="6.4381" gradientTransform="matrix(1.0144 0 0 1.0144 .21498 -.14399)" gradientUnits="userSpaceOnUse"/>
<radialGradient id="radialGradient11256" cx="17.45" cy="16.417" r="12.069" gradientTransform="matrix(.99586 0 0 .99586 .38632 1.4675)" gradientUnits="userSpaceOnUse"/>
</defs>
<circle cx="17.203" cy="16.512" r="17.304" fill="url(#radialGradient898)" opacity=".30973" stroke-linecap="square" stroke-linejoin="round" stroke-width="3"/>
<circle cx="17.203" cy="16.512" r="15.118" fill="url(#linearGradient897)" stroke="#b1aaaa" stroke-linecap="square" stroke-opacity=".99216" stroke-width=".057556"/>
<circle cx="17.203" cy="16.512" r="13.102" fill="url(#radialGradient993)"/>
<path d="m29.784 17.816a12.019 12.019 0 0 1-12.019 12.019 12.019 12.019 0 0 1-12.019-12.019 12.019 12.019 0 0 1 12.019-12.019 12.019 12.019 0 0 1 12.019 12.019z" fill="url(#radialGradient11256)" fill-rule="evenodd" stroke-linecap="round" stroke-linejoin="bevel" stroke-width=".15225"/>
<image x="6.3285" y="6.0189" width="21.322" height="21.322"/>
<circle cx="17.148" cy="16.769" r="5.9465" fill="url(#radialGradient2258)" fill-rule="evenodd" stroke-linecap="round" stroke-linejoin="bevel" stroke-width=".10107"/>
<path d="m18.293 10.934a5.9465 5.9465 0 0 1 4.8017 5.8351 5.9465 5.9465 0 0 1-5.9465 5.946 5.9465 5.9465 0 0 1-5.946-5.946 5.9465 5.9465 0 0 1 0.37964-2.0847 6.5309 6.5309 0 0 0-0.60288 2.7331 6.5309 6.5309 0 0 0 6.531 6.531 6.5309 6.5309 0 0 0 6.531-6.531 6.5309 6.5309 0 0 0-5.7479-6.4835z" fill="url(#radialGradient12420)" fill-rule="evenodd" opacity=".48583" stroke-linecap="round" stroke-linejoin="bevel" stroke-width=".111"/>
</svg>
