<svg width="128" height="128" version="1.1" viewBox="0 0 128 128" xmlns="http://www.w3.org/2000/svg">
<defs>
<linearGradient id="linearGradient825" x1="-741.83" x2="-741.83" y1="959.05" y2="93.836" gradientTransform="matrix(.13668 0 0 .13668 162.31 -5.9893)" gradientUnits="userSpaceOnUse"/>
<linearGradient id="linearGradient835" x1="-738.76" x2="-738.76" y1="931.43" y2="152.13" gradientTransform="matrix(.13668 0 0 .13668 162.31 -5.9893)" gradientUnits="userSpaceOnUse"/>
<clipPath>
<rect width="384" height="384"/>
</clipPath>
<clipPath>
<rect width="384" height="384"/>
</clipPath>
<clipPath>
<rect width="384" height="384"/>
</clipPath>
<clipPath>
<rect width="384" height="384"/>
</clipPath>
<clipPath>
<rect width="384" height="384"/>
</clipPath>
<clipPath>
<rect width="384" height="384"/>
</clipPath>
<clipPath>
<rect width="384" height="384"/>
</clipPath>
<clipPath>
<rect width="384" height="384"/>
</clipPath>
<clipPath>
<rect width="384" height="384"/>
</clipPath>
<clipPath>
<rect width="384" height="384"/>
</clipPath>
<clipPath>
<rect width="384" height="384"/>
</clipPath>
<clipPath>
<rect width="384" height="384"/>
</clipPath>
<clipPath>
<rect width="384" height="384"/>
</clipPath>
<clipPath>
<rect width="384" height="384"/>
</clipPath>
<linearGradient id="linearGradient948" x1="122.34" x2="84.091" y1="117.04" y2="71.02" gradientTransform="translate(-833.29 -293.54)" gradientUnits="userSpaceOnUse"/>
<clipPath>
<rect width="384" height="384"/>
</clipPath>
<clipPath>
<rect width="384" height="384"/>
</clipPath>
<linearGradient id="linearGradient1194" x1="122.34" x2="84.091" y1="117.04" y2="71.02" gradientTransform="translate(-988.32 -283.8)" gradientUnits="userSpaceOnUse"/>
<clipPath>
<rect width="384" height="384"/>
</clipPath>
<clipPath>
<rect width="384" height="384"/>
</clipPath>
<clipPath>
<rect width="384" height="384"/>
</clipPath>
<clipPath>
<rect width="384" height="384"/>
</clipPath>
<clipPath>
<rect width="384" height="384"/>
</clipPath>
<clipPath>
<rect width="384" height="384"/>
</clipPath>
<clipPath>
<rect width="384" height="384"/>
</clipPath>
<clipPath>
<rect width="384" height="384"/>
</clipPath>
<clipPath>
<rect width="384" height="384"/>
</clipPath>
<clipPath>
<rect width="384" height="384"/>
</clipPath>
<clipPath>
<rect width="384" height="384"/>
</clipPath>
<clipPath>
<rect width="384" height="384"/>
</clipPath>
<linearGradient id="linearGradient1486" x1="12.81" x2="15.925" y1="11.978" y2="15.252" gradientTransform="matrix(3.7795 0 0 3.7795 -.74507 -.035322)" gradientUnits="userSpaceOnUse"/>
</defs>
<circle cx="63.592" cy="64.286" r="61.38" fill="url(#linearGradient825)"/>
<circle cx="63.592" cy="64.286" r="55.09" fill="url(#linearGradient835)"/>
<style><![CDATA[.B{clip-path:url(#C)}.C{fill:#3e2723}.D{fill-opacity:.15}.E{fill-opacity:.2}]]></style>
<style><![CDATA[.B{clip-path:url(#C)}.C{fill:#3e2723}.D{fill-opacity:.15}.E{fill-opacity:.2}]]></style>
<style><![CDATA[.B{clip-path:url(#C)}.C{fill:#3e2723}.D{fill-opacity:.15}.E{fill-opacity:.2}]]></style>
<style><![CDATA[.B{clip-path:url(#C)}.C{fill:#3e2723}.D{fill-opacity:.15}.E{fill-opacity:.2}]]></style>
<style><![CDATA[.B{clip-path:url(#C)}.C{fill:#3e2723}.D{fill-opacity:.15}.E{fill-opacity:.2}]]></style>
<style><![CDATA[.B{clip-path:url(#C)}.C{fill:#3e2723}.D{fill-opacity:.15}.E{fill-opacity:.2}]]></style>
<style><![CDATA[.B{clip-path:url(#C)}.C{fill:#3e2723}.D{fill-opacity:.15}.E{fill-opacity:.2}]]></style>
<style><![CDATA[.B{clip-path:url(#C)}.C{fill:#3e2723}.D{fill-opacity:.15}.E{fill-opacity:.2}]]></style>
<style><![CDATA[.B{clip-path:url(#C)}.C{fill:#3e2723}.D{fill-opacity:.15}.E{fill-opacity:.2}]]></style>
<style><![CDATA[.B{clip-path:url(#C)}.C{fill:#3e2723}.D{fill-opacity:.15}.E{fill-opacity:.2}]]></style>
<style><![CDATA[.B{clip-path:url(#C)}.C{fill:#3e2723}.D{fill-opacity:.15}.E{fill-opacity:.2}]]></style>
<style><![CDATA[.B{clip-path:url(#C)}.C{fill:#3e2723}.D{fill-opacity:.15}.E{fill-opacity:.2}]]></style>
<style><![CDATA[.B{clip-path:url(#C)}.C{fill:#3e2723}.D{fill-opacity:.15}.E{fill-opacity:.2}]]></style>
<image x="6.4055" y=".032802" width="111" height="107" opacity=".523"/>
<image x="12.707" y="21.402" width="107" height="103" opacity=".269"/>
<path d="m67.601 23.18c-1.076-0.01621-1.9968 0.76898-2.1523 1.8341l-3.6765 23.951c-8.4454 0.25043-16.459 2.6365-22.503 6.6997-1.6017-1.5756-3.7578-2.4597-6.0046-2.4622-4.7362 0-8.5757 3.8395-8.5756 8.5757 2e-3 3.1985 1.7844 6.1299 4.6228 7.6042-0.2117 1.0322-0.32359 2.073-0.33501 3.1153-3e-5 13.025 15.358 23.583 34.303 23.583 18.945 0 34.303-10.558 34.303-23.583-0.0147-1.0398-0.12937-2.0777-0.34333-3.107 2.8443-1.4734 4.6304-4.4092 4.6312-7.6125 3e-5 -4.7362-3.8394-8.5757-8.5756-8.5757-2.2538 2.4e-4 -4.4169 0.88776-6.0214 2.4705-5.7131-3.8568-13.209-6.218-21.188-6.6746l3.2577-21.071 11.147 2.4789c0.39706 3.2194 3.1293 5.6393 6.3731 5.6445 3.5522 0 6.4317-2.8796 6.4317-6.4317 0-3.5522-2.8796-6.4317-6.4317-6.4317-2.2122 0.0019-4.2683 1.1407-5.4435 3.0149l-13.374-2.9646c-0.14554-0.03243-0.29431-0.05671-0.44385-0.05671zm-15.041 38.599c3.5521 0 6.4317 2.8796 6.4317 6.4317 0 3.5522-2.8796 6.4317-6.4317 6.4317-3.5522 0-6.4317-2.8796-6.4317-6.4317 0-3.5522 2.8796-6.4317 6.4317-6.4317zm21.439 0c3.5522 0 6.4317 2.8796 6.4317 6.4317 0 3.5522-2.8796 6.4317-6.4317 6.4317-3.5522 0-6.4317-2.8796-6.4317-6.4317 0-3.5522 2.8796-6.4317 6.4317-6.4317zm4.1706 19.219c1.9947-0.16852 3.1187 2.2391 1.7084 3.6597 0 0-1.4046 1.4901-4.0785 2.7218-2.6739 1.232-6.7814 2.3751-12.57 2.2779-5.7556-0.098-9.79-1.2368-12.436-2.4036-2.6464-1.166-4.0533-2.5375-4.0533-2.5375-1.3129-1.2877-0.50164-3.5223 1.3316-3.668 0.0697-6e-3 0.13954-8e-3 0.20931-8e-3 0.58046 7e-3 1.1335 0.2488 1.5326 0.67014 0 0 0.61118 0.68635 2.7218 1.6163 2.1106 0.93022 5.5636 1.9295 10.795 2.0267 5.198 0.0892 8.5779-0.90815 10.661-1.8675 2.0831-0.95892 2.6966-1.7084 2.6966-1.7084 0.36869-0.4489 0.90333-0.7301 1.4823-0.77871z" fill="#fff" stroke-width="8.103"/>
<image x="24.353" y="24.079" width="77" height="72" opacity=".257"/>
<path d="m67.601 23.18c-1.076-0.01621-1.9968 0.76898-2.1523 1.8341l-3.6765 23.951c-8.4454 0.25043-16.459 2.6365-22.503 6.6997-1.6017-1.5756-3.7578-2.4597-6.0046-2.4622-4.7362 0-8.5757 3.8395-8.5756 8.5757 2e-3 3.1985 1.7844 6.1299 4.6228 7.6042-0.2117 1.0322-0.32359 2.073-0.33501 3.1153-3e-5 13.025 15.358 23.583 34.303 23.583 18.945 0 34.303-10.558 34.303-23.583-0.0147-1.0398-0.12937-2.0777-0.34333-3.107 2.8443-1.4734 4.6304-4.4092 4.6312-7.6125 3e-5 -4.7362-3.8394-8.5757-8.5756-8.5757-2.2538 2.4e-4 -4.4169 0.88776-6.0214 2.4705-5.7131-3.8568-13.209-6.218-21.188-6.6746l3.2577-21.071 11.147 2.4789c0.39706 3.2194 3.1293 5.6393 6.3731 5.6445 3.5522 0 6.4317-2.8796 6.4317-6.4317 0-3.5522-2.8796-6.4317-6.4317-6.4317-2.2122 0.0019-4.2683 1.1407-5.4435 3.0149l-13.374-2.9646c-0.14554-0.03243-0.29431-0.05671-0.44385-0.05671zm-15.041 38.599c3.5521 0 6.4317 2.8796 6.4317 6.4317 0 3.5522-2.8796 6.4317-6.4317 6.4317-3.5522 0-6.4317-2.8796-6.4317-6.4317 0-3.5522 2.8796-6.4317 6.4317-6.4317zm21.439 0c3.5522 0 6.4317 2.8796 6.4317 6.4317 0 3.5522-2.8796 6.4317-6.4317 6.4317-3.5522 0-6.4317-2.8796-6.4317-6.4317 0-3.5522 2.8796-6.4317 6.4317-6.4317zm4.1706 19.219c1.9947-0.16852 3.1187 2.2391 1.7084 3.6597 0 0-1.4046 1.4901-4.0785 2.7218-2.6739 1.232-6.7814 2.3751-12.57 2.2779-5.7556-0.098-9.79-1.2368-12.436-2.4036-2.6464-1.166-4.0533-2.5375-4.0533-2.5375-1.3129-1.2877-0.50164-3.5223 1.3316-3.668 0.0697-6e-3 0.13954-8e-3 0.20931-8e-3 0.58046 7e-3 1.1335 0.2488 1.5326 0.67014 0 0 0.61118 0.68635 2.7218 1.6163 2.1106 0.93022 5.5636 1.9295 10.795 2.0267 5.198 0.0892 8.5779-0.90815 10.661-1.8675 2.0831-0.95892 2.6966-1.7084 2.6966-1.7084 0.36869-0.4489 0.90333-0.7301 1.4823-0.77871z" fill="url(#linearGradient1486)" stroke-width="8.103"/>
<style><![CDATA[.B{clip-path:url(#C)}.C{fill:#3e2723}.D{fill-opacity:.15}.E{fill-opacity:.2}]]></style>
<style><![CDATA[.B{clip-path:url(#C)}.C{fill:#3e2723}.D{fill-opacity:.15}.E{fill-opacity:.2}]]></style>
</svg>
