<svg width="128" height="128" version="1.1" viewBox="0 0 33.867 33.867" xmlns="http://www.w3.org/2000/svg">
<defs>
<linearGradient id="linearGradient897" x1="2686" x2="2686" y1="1088.8" y2="1770.4" gradientTransform="matrix(.042779 0 0 .042779 -95.919 -44.867)" gradientUnits="userSpaceOnUse"/>
<radialGradient id="radialGradient898" cx="60.636" cy="20.456" r="17.304" gradientTransform="translate(-43.433 -3.9449)" gradientUnits="userSpaceOnUse"/>
<radialGradient id="radialGradient993" cx="16.969" cy="4.4334" r="13.696" gradientTransform="matrix(4.8886 0 0 1.5421 -65.724 -.93385)" gradientUnits="userSpaceOnUse"/>
<linearGradient id="linearGradient933" x1="18.234" x2="21.574" y1="12.63" y2="22.939" gradientTransform="matrix(2.4485 0 0 2.4485 -29.137 -29.1)" gradientUnits="userSpaceOnUse"/>
</defs>
<circle cx="17.203" cy="16.512" r="17.304" fill="url(#radialGradient898)" opacity=".30973" stroke-linecap="square" stroke-linejoin="round" stroke-width="3"/>
<circle cx="17.203" cy="16.512" r="15.118" fill="url(#linearGradient897)" stroke="#b1aaaa" stroke-linecap="square" stroke-opacity=".99216" stroke-width=".057556"/>
<circle cx="17.203" cy="16.512" r="13.102" fill="url(#radialGradient993)"/>
<image x="4.1911" y="6.1144" width="29.104" height="23.019" opacity=".29285"/>
<path d="m10.337 7.2808c-0.13281 0-0.16324 0.1127-0.16324 0.24552v1.4446c0 0.13281 0.03044 0.23256 0.16324 0.23256h1.4562c0.13281 0 0.23905-0.10364 0.23775-0.23645-0.0039-0.48067-0.0047-0.96392-0.0051-1.4446 0-0.13281-0.10754-0.24164-0.24034-0.24164h-1.4485m11.686 0c-0.13281 0-0.31224 0.11013-0.31224 0.24292v1.455c0 0.13281 0.14316 0.23905 0.27596 0.23775 0.48066-0.0039 0.94514-0.0032 1.4258-0.0039 0.13281 0 0.22154-0.10884 0.22154-0.24162v-1.4472c0-0.13281-0.03303-0.24292-0.16584-0.24292h-1.4446m-9.7034 1.933c-0.13344-0.0013-0.22414 0.10494-0.22414 0.23775v1.488c0 0.13281-0.17103 0.18721-0.30382 0.18721h-1.475c-0.13281 0-0.14316 0.16065-0.14316 0.29345v1.4692c0 0.13281-0.20536 0.15935-0.3375 0.15935h-1.4711c-0.13281 0-0.35434 0.18851-0.35434 0.32131v1.4711c0 0.13281 0.0059 0.13021-0.12632 0.13021h-1.4485c-0.13281 0-0.34787 0.21638-0.34787 0.34916v5.3307c0 0.13281 0.21508 0.32908 0.34787 0.32908h1.4472c0.13281 0 0.12762-0.1963 0.12762-0.32908v-3.3919c0-0.13281 0.22024-0.12372 0.35305-0.12372h1.4867c0.13281 0 0.3239-0.0083 0.3239 0.12372v3.4139c0 0.13281 0.06542 0.24034 0.19887 0.24034 0.49297 0 0.99048 0 1.4653 0.0039 0.13281 0.0013 0.25782-0.10494 0.25782-0.23775v-1.4653c0-0.13281 0.03046-0.15678 0.16324-0.15678h9.2894c0.13281 0 0.24034 0.06609 0.24034 0.19887 0 0.49297 0 0.99113-0.0039 1.4711-0.0013 0.13281 0.10494 0.25329 0.23775 0.25329h1.4627c0.13214 0 0.14706-0.17619 0.14706-0.309v-3.4087c0-0.13281 0.20146-0.12762 0.33426-0.12762h1.4945c0.13281 0 0.33556-0.0051 0.33556 0.12762v3.388c0 0.13281 0.01298 0.32908 0.14576 0.32908h1.4297c0.13281 0 0.34787-0.1963 0.34787-0.32908v-5.3391c0-0.13281-0.21508-0.34009-0.34787-0.34009h-1.4614c-0.13281 0-0.35435-0.0078-0.35435-0.14057v-1.475c0-0.13281 6.49e-4 -0.3077-0.12632-0.3077h-1.4679c-0.13281 0-0.32908-0.04082-0.32908-0.1736v-1.4679c0-0.13281-0.01934-0.28114-0.15159-0.28114h-1.464c-0.13281 0-0.30641-0.06738-0.30641-0.20016v-1.4737c0-0.13281-0.07514-0.24034-0.20729-0.23905-0.47937 0.0039-0.97105 0.0051-1.4692 0.0051-0.13281 0-0.24681 0.10754-0.24681 0.24034v1.4614c0 0.13344-0.06089 0.20599-0.1937 0.20599h-5.3923c-0.13281 0-0.18202-0.07385-0.18202-0.20599v-1.4627c0-0.13281-0.13668-0.24034-0.26948-0.24034-0.49297 0-0.95485 0-1.4297-0.0039m-0.05184 3.835h1.4679c0.13281 0 0.28374 0.17296 0.28374 0.30641v1.4653c0 0.13281-0.15093 0.15159-0.28374 0.15159h-1.4679c-0.13281 0-0.17233-0.01934-0.17233-0.15159v-1.4653c0-0.13281 0.03888-0.30641 0.17233-0.30641m7.806 0h1.4653c0.13281 0 0.1736 0.17619 0.1736 0.309v1.4666c0 0.13281-0.04082 0.14836-0.1736 0.14836h-1.4653c-0.13281 0-0.28438-0.01494-0.28438-0.14836v-1.4666c0-0.13215 0.15222-0.309 0.28438-0.309m-7.806 7.872c-0.13281-6.3e-5 -0.24162 0.10754-0.24034 0.24032 0.0039 0.48066 0.0027 0.99178 0.0027 1.4724 0 0.13281 0.10624 0.26948 0.23905 0.26948h3.3996c0.13281 0 0.27726-0.16584 0.27726-0.29863v-1.4336c0-0.13281-0.12568-0.24098-0.25782-0.24034-0.36147 0-0.72748 0-1.0831-0.0013-0.77801-0.0027-1.5592-0.0059-2.3366-0.0091m9.3691 0.0039c-0.03756 0.0027-0.0583 0.03044-0.09588 0.03044-1.1447 6.6e-5 -2.2692 0.02527-3.4139 0.02527h-0.11013c-0.06023 0-0.14836 0.057-0.14836 0.18981v1.4388c0 0.13281 0.14769 0.29475 0.28114 0.29475h3.3958c0.13281 0 0.16843-0.16194 0.16843-0.29475v-1.4562c0-0.13281-0.0142-0.23256-0.07708-0.22803" fill="url(#linearGradient933)" stroke-width=".6478"/>
</svg>
