<svg width="128" height="128" version="1.1" viewBox="0 0 128 128" xmlns="http://www.w3.org/2000/svg">
<defs>
<linearGradient id="linearGradient945" x1="69.325" x2="67.338" y1="24.413" y2="125.94" gradientTransform="matrix(.93526 0 0 .93526 .9115 -.585)" gradientUnits="userSpaceOnUse"/>
<filter id="filter989" x="-.2664" y="-.2664" width="1.5328" height="1.5328" color-interpolation-filters="sRGB">
<feGaussianBlur stdDeviation="7.4530753"/>
</filter>
<filter id="filter3174-06" color-interpolation-filters="sRGB">
<feGaussianBlur stdDeviation="1.71"/>
</filter>
<filter id="filter3174-0-59" color-interpolation-filters="sRGB">
<feGaussianBlur stdDeviation="1.71"/>
</filter>
<linearGradient id="linearGradient952" x1="45.448" x2="45.448" y1="92.54" y2="7.0165" gradientTransform="scale(1.0059 .99417)" gradientUnits="userSpaceOnUse"/>
<linearGradient id="linearGradient1128" x1="25.842" x2="30.071" y1="7.5146" y2="24.429" gradientUnits="userSpaceOnUse"/>
<linearGradient id="linearGradient1130" x1="18.5" x2="31" y1="24.986" y2="24.986" gradientUnits="userSpaceOnUse"/>
<linearGradient id="linearGradient1132" x1="24.355" x2="24.773" y1="-.84958" y2="45.339" gradientUnits="userSpaceOnUse"/>
</defs>
<circle cx="64.614" cy="64.172" r="59.877" fill="url(#linearGradient945)" stroke="#fff" stroke-width="5.6116"/>
<path d="m41.17 30.599v5.318c-3.6825 0.24154-6.578 3.2772-6.5943 7.0189h-3.5342v6.2472h3.5336v11.865h-3.5336v6.2472h3.5336v11.864h-3.5336v6.2472h3.5342c0.0164 3.7417 2.9118 6.7774 6.5943 7.0189v5.3187h6.2472v-5.301h14.073v5.301h6.2472v-5.301h14.073v5.301h6.2472v-5.3187c3.6827-0.24134 6.578-3.2771 6.5943-7.0189h3.5342v-6.2472h-3.5336v-11.864h3.5336v-6.2472h-3.5336v-11.865h3.5336v-6.2472h-3.5342c-0.0164-3.7419-2.9116-6.7776-6.5943-7.0189v-5.318h-6.2472v5.301h-14.073v-5.301h-6.2472v5.301h-14.073v-5.301zm7.338 23.065c2.1698 0 3.8063 0.57959 4.9099 1.7393 1.113 1.1597 1.6885 2.8764 1.7259 5.1491l-0.0421 0.0842h-3.8441c0.0561-1.3374-0.12637-2.3007-0.54724-2.8899-0.42088-0.58922-1.1549-0.884-2.2024-0.884-0.89786 0-1.5851 0.35093-2.0621 1.0524-0.47699 0.70146-0.71562 1.763-0.71562 3.1846v6.1307c0 1.4403 0.25266 2.5112 0.75771 3.2127 0.5144 0.70146 1.2624 1.0518 2.2445 1.0518 0.96333 0 1.6324-0.27546 2.0065-0.82727 0.38346-0.56116 0.5513-1.5157 0.50454-2.8625h3.8441l0.0421 0.0842c0.0187 2.2446-0.5141 3.9379-1.599 5.0789-1.0849 1.141-2.6846 1.7113-4.7983 1.7113-2.1137 0-3.8022-0.6451-5.0649-1.9358-1.2626-1.3-1.8937-3.1377-1.8937-5.5133v-6.1026c0-2.3662 0.60767-4.1998 1.8235-5.4998 1.2252-1.3094 2.8623-1.9638 4.9105-1.9638zm9.0346 0.29467h7.0989c2.0389 0 3.6473 0.60299 4.8257 1.8095s1.768 2.7874 1.768 4.7421c0 1.9641-0.59424 3.549-1.782 4.7556-1.1784 1.1971-2.7821 1.7961-4.8117 1.7961h-3.1004v7.3228h-3.9984zm16.049 0h3.9844v13.902c0 1.2439 0.25735 2.161 0.77175 2.7502 0.5144 0.58923 1.239 0.8834 2.1743 0.8834 0.96332 0 1.6973-0.28014 2.2024-0.8413s0.75772-1.4923 0.75772-2.7923v-13.902h3.9704v13.902c0 2.1792-0.64103 3.863-1.9224 5.0508-1.272 1.1784-2.9412 1.7674-5.0081 1.7674-2.067 0-3.7414-0.59363-5.0228-1.7814-1.272-1.1878-1.9077-2.867-1.9077-5.0368zm-12.051 3.1986v6.706h3.1004c0.85109 0 1.5009-0.3135 1.9498-0.94013 0.44893-0.62663 0.67353-1.4215 0.67353-2.3848 0-0.97268-0.2246-1.7769-0.67353-2.4128-0.43957-0.64534-1.0894-0.96819-1.9498-0.96819z" fill-opacity=".45" filter="url(#filter989)" opacity=".594"/>
<path d="m41.17 30.599v5.318c-3.6825 0.24154-6.578 3.2772-6.5943 7.0189h-3.5342v6.2472h3.5336v11.865h-3.5336v6.2472h3.5336v11.864h-3.5336v6.2472h3.5342c0.0164 3.7417 2.9118 6.7774 6.5943 7.0189v5.3187h6.2472v-5.301h14.073v5.301h6.2472v-5.301h14.073v5.301h6.2472v-5.3187c3.6827-0.24134 6.578-3.2771 6.5943-7.0189h3.5342v-6.2472h-3.5336v-11.864h3.5336v-6.2472h-3.5336v-11.865h3.5336v-6.2472h-3.5342c-0.0164-3.7419-2.9116-6.7776-6.5943-7.0189v-5.318h-6.2472v5.301h-14.073v-5.301h-6.2472v5.301h-14.073v-5.301z" fill="#fff"/>
<g transform="matrix(10.59 0 0 10.59 -51.77 -436.04)" display="none">
<image x="-2.1485" y="-.078224" width="52.592" height="52.014"/>
</g>
<g transform="translate(49.19 -141.39)" display="none">
<rect x="5" y="7" width="86" height="85" rx="6" ry="6" fill="url(#linearGradient952)" filter="url(#filter3174-06)" opacity=".9"/>
</g>
<g transform="matrix(1.9516 0 0 1.9516 6.7208 -358.64)" display="none">
<rect x="5" y="7" width="86" height="85" rx="3.0744" ry="3.0744" fill="url(#linearGradient952)" filter="url(#filter3174-0-59)" opacity=".9"/>
</g>
<g transform="translate(-45.818 30.81)">
<path d="m22.5 23.486v3.5117c-1.8305 0.86827-2.998 2.7123-3 4.7383 0 2.8995 2.3505 5.25 5.25 5.25s5.25-2.3505 5.25-5.25c-0.0027-2.0253-1.1702-3.8684-3-4.7363v-3.5137z" fill="#fff" fill-opacity=".36861"/>
<path d="m24 12.986c-0.831 0-1.5 0.669-1.5 1.5v12.512a5.25 5.25 0 0 0-3 4.7383 5.25 5.25 0 0 0 5.25 5.25 5.25 5.25 0 0 0 5.25-5.25 5.25 5.25 0 0 0-3-4.7363v-12.514c0-0.831-0.669-1.5-1.5-1.5z" fill="none" stroke="#fff" stroke-linecap="round" stroke-linejoin="round" stroke-width="2"/>
</g>
<g transform="matrix(1.5563 0 0 1.5563 26.096 27.312)" fill="none" stroke-linecap="round" stroke-linejoin="round" stroke-width="2">
<path d="m22.5 23.486v3.5117c-1.8305 0.86827-2.998 2.7123-3 4.7383 0 2.8995 2.3505 5.25 5.25 5.25s5.25-2.3505 5.25-5.25c-0.0027-2.0253-1.1702-3.8684-3-4.7363v-3.5137z" stroke="url(#linearGradient1130)"/>
<path d="m24 12.986c-0.831 0-1.5 0.669-1.5 1.5v12.512a5.25 5.25 0 0 0-3 4.7383 5.25 5.25 0 0 0 5.25 5.25 5.25 5.25 0 0 0 5.25-5.25 5.25 5.25 0 0 0-3-4.7363v-12.514c0-0.831-0.669-1.5-1.5-1.5z" stroke="url(#linearGradient1132)"/>
</g>
</svg>
