<svg width="128" height="128" version="1.1" viewBox="0 0 33.867 33.867" xmlns="http://www.w3.org/2000/svg">
<defs>
<linearGradient id="linearGradient897" x1="2686" x2="2686" y1="1088.8" y2="1770.4" gradientTransform="matrix(.042779 0 0 .042779 -95.919 -44.867)" gradientUnits="userSpaceOnUse"/>
<radialGradient id="radialGradient898" cx="60.636" cy="20.456" r="17.304" gradientTransform="translate(-43.433 -3.9449)" gradientUnits="userSpaceOnUse"/>
<radialGradient id="radialGradient993" cx="16.968" cy="4.6709" r="13.696" gradientTransform="matrix(4.8886 0 0 1.8641 -65.724 -2.4383)" gradientUnits="userSpaceOnUse"/>
</defs>
<circle cx="17.203" cy="16.512" r="17.304" fill="url(#radialGradient898)" opacity=".30973" stroke-linecap="square" stroke-linejoin="round" stroke-width="3"/>
<circle cx="17.203" cy="16.512" r="15.118" fill="url(#linearGradient897)" stroke="#b1aaaa" stroke-linecap="square" stroke-opacity=".99216" stroke-width=".057556"/>
<circle cx="17.203" cy="16.512" r="13.102" fill="url(#radialGradient993)"/>
<path d="m11.993 6.9612a0.54764 0.35317 0 0 0-0.44591 0.17586l-3.1138 3.4781a0.54764 0.35317 0 0 0 0.4748 0.53006h1.0212v10.462c0 3.4772 2.7994 6.2766 6.2766 6.2766h2.0914c3.4773 0 6.2766-2.7994 6.2766-6.2766v-10.462h1.0212a0.54764 0.35317 0 0 0 0.4748-0.53006l-3.1138-3.4781a0.54764 0.35317 0 0 0-0.44842-0.17586 0.54764 0.35317 0 0 0-0.05401 0 0.54764 0.35317 0 0 0-0.44591 0.17586l-3.1138 3.4781a0.54764 0.35317 0 0 0 0.4748 0.53006h1.0212v11.508c0 1.7332-1.4057 3.1377-3.1389 3.1377-1.7332 0-3.1377-1.4045-3.1377-3.1377v-11.508h1.0212a0.54764 0.35317 0 0 0 0.47479-0.53006l-3.1138-3.4781a0.54764 0.35317 0 0 0-0.44842-0.17586 0.54764 0.35317 0 0 0-0.054 0z" fill="#190006" fill-opacity=".035989" stroke-width=".52305"/>
<path d="m12.097 7.134a0.54764 0.35317 0 0 0-0.44591 0.17586l-3.1138 3.4781a0.54764 0.35317 0 0 0 0.4748 0.53006h1.0212v10.462c0 3.4772 2.7994 6.2766 6.2766 6.2766h2.0914c3.4773 0 6.2766-2.7994 6.2766-6.2766v-10.462h1.0212a0.54764 0.35317 0 0 0 0.4748-0.53006l-3.1138-3.4781a0.54764 0.35317 0 0 0-0.44842-0.17586 0.54764 0.35317 0 0 0-0.05401 0 0.54764 0.35317 0 0 0-0.44591 0.17586l-3.1138 3.4781a0.54764 0.35317 0 0 0 0.4748 0.53006h1.0212v11.508c0 1.7332-1.4057 3.1377-3.1389 3.1377-1.7332 0-3.1377-1.4045-3.1377-3.1377v-11.508h1.0212a0.54764 0.35317 0 0 0 0.47479-0.53006l-3.1138-3.4781a0.54764 0.35317 0 0 0-0.44842-0.17586 0.54764 0.35317 0 0 0-0.054 0z" fill="#190006" fill-opacity=".035989" stroke-width=".52305"/>
<path d="m12.244 7.4491a0.54764 0.35317 0 0 0-0.44591 0.17586l-3.1138 3.4781a0.54764 0.35317 0 0 0 0.4748 0.53006h1.0212v10.462c0 3.4772 2.7994 6.2766 6.2766 6.2766h2.0914c3.4773 0 6.2766-2.7994 6.2766-6.2766v-10.462h1.0212a0.54764 0.35317 0 0 0 0.4748-0.53006l-3.1138-3.4781a0.54764 0.35317 0 0 0-0.44842-0.17586 0.54764 0.35317 0 0 0-0.05401 0 0.54764 0.35317 0 0 0-0.44591 0.17586l-3.1138 3.4781a0.54764 0.35317 0 0 0 0.4748 0.53006h1.0212v11.508c0 1.7332-1.4057 3.1377-3.1389 3.1377-1.7332 0-3.1377-1.4045-3.1377-3.1377v-11.508h1.0212a0.54764 0.35317 0 0 0 0.47479-0.53006l-3.1138-3.4781a0.54764 0.35317 0 0 0-0.44842-0.17586 0.54764 0.35317 0 0 0-0.054 0z" fill="#190006" fill-opacity=".035989" stroke-width=".52305"/>
<path d="m12.498 7.9684a0.54764 0.35317 0 0 0-0.44591 0.17586l-3.1138 3.4781a0.54764 0.35317 0 0 0 0.4748 0.53006h1.0212v10.462c0 3.4772 2.7994 6.2766 6.2766 6.2766h2.0914c3.4773 0 6.2766-2.7994 6.2766-6.2766v-10.462h1.0212a0.54764 0.35317 0 0 0 0.4748-0.53006l-3.1138-3.4781a0.54764 0.35317 0 0 0-0.44842-0.17586 0.54764 0.35317 0 0 0-0.05401 0 0.54764 0.35317 0 0 0-0.44591 0.17586l-3.1138 3.4781a0.54764 0.35317 0 0 0 0.4748 0.53006h1.0212v11.508c0 1.7332-1.4057 3.1377-3.1389 3.1377-1.7332 0-3.1377-1.4045-3.1377-3.1377v-11.508h1.0212a0.54764 0.35317 0 0 0 0.47479-0.53006l-3.1138-3.4781a0.54764 0.35317 0 0 0-0.44842-0.17586 0.54764 0.35317 0 0 0-0.054 0z" fill="#190006" fill-opacity=".035989" stroke-width=".52305"/>
<path d="m12.931 8.3625a0.54764 0.35317 0 0 0-0.44591 0.17586l-3.1138 3.4781a0.54764 0.35317 0 0 0 0.4748 0.53006h1.0212v10.462c0 3.4772 2.7994 6.2766 6.2766 6.2766h2.0914c3.4773 0 6.2766-2.7994 6.2766-6.2766v-10.462h1.0212a0.54764 0.35317 0 0 0 0.4748-0.53006l-3.1138-3.4781a0.54764 0.35317 0 0 0-0.44842-0.17586 0.54764 0.35317 0 0 0-0.05401 0 0.54764 0.35317 0 0 0-0.44591 0.17586l-3.1138 3.4781a0.54764 0.35317 0 0 0 0.4748 0.53006h1.0212v11.508c0 1.7332-1.4057 3.1377-3.1389 3.1377-1.7332 0-3.1377-1.4045-3.1377-3.1377v-11.508h1.0212a0.54764 0.35317 0 0 0 0.47479-0.53006l-3.1138-3.4781a0.54764 0.35317 0 0 0-0.44842-0.17586 0.54764 0.35317 0 0 0-0.054 0z" fill="#190006" fill-opacity=".035989" stroke-width=".52305"/>
<path d="m11.908 6.8336a0.54764 0.35317 0 0 0-0.44591 0.17586l-3.1138 3.4781a0.54764 0.35317 0 0 0 0.4748 0.53006h1.0212v10.462c0 3.4772 2.7994 6.2766 6.2766 6.2766h2.0914c3.4773 0 6.2766-2.7994 6.2766-6.2766v-10.462h1.0212a0.54764 0.35317 0 0 0 0.4748-0.53006l-3.1138-3.4781a0.54764 0.35317 0 0 0-0.44842-0.17586 0.54764 0.35317 0 0 0-0.05401 0 0.54764 0.35317 0 0 0-0.44591 0.17586l-3.1138 3.4781a0.54764 0.35317 0 0 0 0.4748 0.53006h1.0212v11.508c0 1.7332-1.4057 3.1377-3.1389 3.1377-1.7332 0-3.1377-1.4045-3.1377-3.1377v-11.508h1.0212a0.54764 0.35317 0 0 0 0.47479-0.53006l-3.1138-3.4781a0.54764 0.35317 0 0 0-0.44842-0.17586 0.54764 0.35317 0 0 0-0.054 0z" fill="#fff" stroke-width=".52305"/>
</svg>
