<svg width="128" height="128" version="1.1" viewBox="0 0 33.867 33.867" xmlns="http://www.w3.org/2000/svg">
<defs>
<linearGradient id="linearGradient897" x1="2686" x2="2686" y1="1088.8" y2="1770.4" gradientTransform="matrix(.042779 0 0 .042779 -95.919 -44.867)" gradientUnits="userSpaceOnUse"/>
<radialGradient id="radialGradient898" cx="60.636" cy="20.456" r="17.304" gradientTransform="translate(-43.433 -3.9449)" gradientUnits="userSpaceOnUse"/>
<linearGradient id="linearGradient1699" x1="28.421" x2="18.449" y1="12.577" y2="22.549" gradientTransform="matrix(.8925 0 0 .8925 1.9321 2.4528)" gradientUnits="userSpaceOnUse"/>
<linearGradient id="linearGradient3046" x1="17.867" x2="11.665" y1="24.078" y2="13.336" gradientTransform="matrix(.8925 0 0 .8925 1.9321 2.4528)" gradientUnits="userSpaceOnUse"/>
<radialGradient id="radialGradient1169" cx="16.968" cy="3.7659" r="13.696" gradientTransform="matrix(4.8886 0 0 1.8641 -65.724 -2.4383)" gradientUnits="userSpaceOnUse"/>
</defs>
<circle cx="17.203" cy="16.512" r="17.304" fill="url(#radialGradient898)" opacity=".30973" stroke-linecap="square" stroke-linejoin="round" stroke-width="3"/>
<circle cx="17.203" cy="16.512" r="15.118" fill="url(#linearGradient897)" stroke="#b1aaaa" stroke-linecap="square" stroke-opacity=".99216" stroke-width=".057556"/>
<circle cx="17.203" cy="16.512" r="13.102" fill="url(#radialGradient1169)"/>
<path d="m8.0722 11.365a0.74229 0.74294 0 0 0-0.66737 1.0663l7.0685 14.593a0.74229 0.74294 0 0 0 0.66737 0.41832h6.1858a0.74229 0.74294 0 0 0 0.7218-0.91412c0.02359-3.1815 0.63006-5.4964 1.2531-6.4357 0.36011-0.54295 0.63543-0.83003 1.0686-1.0336 0.4332-0.20354 1.1993-0.32977 2.3185-0.32977 0.40826-4e-5 0.73882-0.32345 0.73886-0.72272v-5.9183c-4.3e-5 -0.39927-0.33061-0.72314-0.73886-0.72318-4.0162 0-7.662 1.7331-9.6721 4.7357l-2.0911-4.3169a0.74229 0.74294 0 0 0-0.66829-0.41878z" fill="#030716" fill-opacity=".082637" fill-rule="evenodd" stroke-width=".33495"/>
<path d="m8.5798 12.197a0.74229 0.74294 0 0 0-0.66737 1.0663l7.0685 14.593a0.74229 0.74294 0 0 0 0.66737 0.41832h6.1858a0.74229 0.74294 0 0 0 0.7218-0.91412c0.02359-3.1815 0.63006-5.4964 1.2531-6.4357 0.36011-0.54295 0.63543-0.83003 1.0686-1.0336 0.4332-0.20354 1.1993-0.32976 2.3185-0.32976 0.40826-4.1e-5 0.73882-0.32345 0.73886-0.72272v-5.9183c-4.3e-5 -0.39927-0.33061-0.72314-0.73886-0.72318-4.0162 0-7.662 1.7331-9.6721 4.7357l-2.0911-4.3169a0.74229 0.74294 0 0 0-0.6683-0.41878z" fill="#030716" fill-opacity=".082637" fill-rule="evenodd" stroke-width=".33495"/>
<path d="m7.6897 10.946a0.74229 0.74294 0 0 0-0.66737 1.0663l7.0685 14.593a0.74229 0.74294 0 0 0 0.66737 0.41832h6.1858a0.74229 0.74294 0 0 0 0.7218-0.91412c0.02359-3.1815 0.63006-5.4964 1.2531-6.4357 0.36011-0.54295 0.63543-0.83003 1.0686-1.0336 0.4332-0.20354 1.1993-0.32977 2.3185-0.32977 0.40826-4e-5 0.73882-0.32345 0.73886-0.72272v-5.9183c-4.3e-5 -0.39927-0.33061-0.72314-0.73886-0.72318-4.0162 0-7.662 1.7331-9.6721 4.7357l-2.0911-4.3169a0.74229 0.74294 0 0 0-0.66829-0.41878z" fill="#030716" fill-opacity=".082637" fill-rule="evenodd" stroke-width=".33495"/>
<path d="m20.61 26.607c0.40826-3.9e-5 0.7392-0.3237 0.73924-0.72297 0-3.2804 0.61918-5.6688 1.2547-6.627 0.36011-0.54295 0.63524-0.83007 1.0684-1.0336 0.4332-0.20354 1.1992-0.32971 2.3184-0.32971 0.40826-4e-5 0.7392-0.3237 0.73924-0.72297v-5.9183c-4e-5 -0.39927-0.33099-0.72293-0.73924-0.72297-4.0312 0-7.6894 1.7458-9.6946 4.7692-1.9692 2.969-2.4856 6.5709-2.4856 10.585 4.2e-5 0.39927 0.33099 0.72293 0.73924 0.72297z" fill="url(#linearGradient1699)" fill-rule="evenodd" stroke-width=".33495"/>
<path d="m20.629 26.607a0.74229 0.74294 0 0 0 0.66756-1.0671l-7.0685-14.592a0.74229 0.74294 0 0 0-0.66829-0.41859h-6.1849a0.74229 0.74294 0 0 0-0.66756 1.0664l7.0685 14.593a0.74229 0.74294 0 0 0 0.66756 0.41859z" fill="url(#linearGradient3046)" stroke-width=".33495"/>
</svg>
