<svg width="128" height="128" version="1.1" viewBox="0 0 33.867 33.867" xmlns="http://www.w3.org/2000/svg">
<defs>
<linearGradient id="linearGradient897" x1="2686" x2="2686" y1="1088.8" y2="1770.4" gradientTransform="matrix(.042779 0 0 .042779 -95.919 -44.867)" gradientUnits="userSpaceOnUse"/>
<radialGradient id="radialGradient898" cx="60.636" cy="20.456" r="17.304" gradientTransform="translate(-43.433 -3.9449)" gradientUnits="userSpaceOnUse"/>
<radialGradient id="radialGradient993" cx="16.968" cy="4.6709" r="13.696" gradientTransform="matrix(4.8886 0 0 1.8641 -65.724 -2.4383)" gradientUnits="userSpaceOnUse"/>
<linearGradient id="linearGradient883" x1="8.0459" x2="8.0459" y1="13.475" y2="42.498" gradientTransform="translate(.37908 .39435)" gradientUnits="userSpaceOnUse"/>
</defs>
<circle cx="17.203" cy="16.512" r="17.304" fill="url(#radialGradient898)" opacity=".30973" stroke-linecap="square" stroke-linejoin="round" stroke-width="3"/>
<circle cx="17.203" cy="16.512" r="15.118" fill="url(#linearGradient897)" stroke="#b1aaaa" stroke-linecap="square" stroke-opacity=".99216" stroke-width=".057556"/>
<circle cx="17.203" cy="16.512" r="13.102" fill="url(#radialGradient993)"/>
<g transform="translate(.37908 .39435)" fill="#43283f" opacity=".59866" stroke-width=".6418">
<path d="m8.5009 8.8134 5.1286 13.506 1.4325-0.01286 2.4523-5.8769-1.1244 0.01019-3.1005-7.6708zm13.025-0.12002-3.1743 7.7285-0.01674 6.43e-4 -3.2225 7.8408-0.74192 7e-3 0.7278 1.9158 3.6146-0.03338 7.5989-17.502z" fill-opacity=".10544"/>
<path d="m8.6011 9.4341 5.1286 13.506 1.4325-0.01286 2.4523-5.8769-1.1244 0.01019-3.1005-7.6708zm13.025-0.12002-3.1743 7.7285-0.01674 6.43e-4 -3.2225 7.8408-0.74192 7e-3 0.7278 1.9158 3.6146-0.03338 7.5989-17.502z" fill-opacity=".067431"/>
<path d="m8.8083 9.9268 5.1286 13.506 1.4325-0.01286 2.4523-5.8769-1.1244 0.01019-3.1005-7.6708zm13.025-0.12002-3.1743 7.7285-0.01674 6.43e-4 -3.2225 7.8408-0.74192 7e-3 0.7278 1.9158 3.6146-0.03338 7.5989-17.502z" fill-opacity=".067431"/>
<path d="m8.9368 10.43 5.1286 13.506 1.4325-0.01286 2.4523-5.8769-1.1244 0.01019-3.1005-7.6708zm13.025-0.12002-3.1743 7.7285-0.01674 6.43e-4 -3.2225 7.8408-0.74192 7e-3 0.7278 1.9158 3.6146-0.03338 7.5989-17.502z" fill-opacity=".042645"/>
<path d="m9.0295 10.863 5.1286 13.506 1.4325-0.01286 2.4523-5.8769-1.1244 0.01019-3.1005-7.6708zm13.025-0.12002-3.1743 7.7285-0.01674 6.43e-4 -3.2225 7.8408-0.74192 7e-3 0.7278 1.9158 3.6146-0.03338 7.5989-17.502z" fill-opacity=".042645"/>
</g>
<path d="m8.425 8.8724 5.1286 13.506 1.4325-0.01286 2.4523-5.8769-1.1244 0.01019-3.1005-7.6708zm13.025-0.12002-3.1743 7.7285-0.01674 6.43e-4 -3.2225 7.8408-0.74192 7e-3 0.7278 1.9158 3.6146-0.03338 7.5989-17.502z" fill="url(#linearGradient883)" stroke-width=".6418"/>
</svg>
