<svg width="128" height="128" version="1.1" viewBox="0 0 33.867 33.867" xmlns="http://www.w3.org/2000/svg">
<defs>
<linearGradient id="linearGradient897" x1="2686" x2="2686" y1="1088.8" y2="1770.4" gradientTransform="matrix(.042779 0 0 .042779 -95.919 -44.867)" gradientUnits="userSpaceOnUse"/>
<radialGradient id="radialGradient898" cx="60.636" cy="20.456" r="17.304" gradientTransform="translate(-43.433 -3.9449)" gradientUnits="userSpaceOnUse"/>
<radialGradient id="radialGradient993" cx="16.968" cy="4.6709" r="13.696" gradientTransform="matrix(4.8886 0 0 1.8641 -65.724 -2.4383)" gradientUnits="userSpaceOnUse"/>
<linearGradient id="c" x1="-1.3559" x2="-1.3559" y1="-59.119" y2="196.88" gradientTransform="matrix(.053003 0 0 .053003 15.428 14.342)" gradientUnits="userSpaceOnUse">
<stop stop-color="#ffeb42" offset="0"/>
<stop stop-color="#ff9311" offset="1"/>
</linearGradient>
<linearGradient id="a-6" x1="62.644" x2="62.644" y1="-123.12" y2="132.88" gradientTransform="matrix(.053003 0 0 .053003 15.428 14.342)" gradientUnits="userSpaceOnUse">
<stop stop-color="#fff" offset="0"/>
<stop stop-color="#e8e8e8" offset="1"/>
</linearGradient>
</defs>
<circle cx="17.203" cy="16.512" r="17.304" fill="url(#radialGradient898)" opacity=".30973" stroke-linecap="square" stroke-linejoin="round" stroke-width="3"/>
<circle cx="17.203" cy="16.512" r="15.118" fill="url(#linearGradient897)" stroke="#b1aaaa" stroke-linecap="square" stroke-opacity=".99216" stroke-width=".057556"/>
<circle cx="17.203" cy="16.512" r="13.102" fill="url(#radialGradient993)"/>
<image x="6.2121" y="6.142" width="24.092" height="24.092" opacity=".49796"/>
<path d="m20.869 24.778c0.70478 0 1.2721-0.56729 1.2721-1.2721v-11.025c0-0.70478-0.56729-1.2721-1.2721-1.2721h-11.025c-0.70478 0-1.2721 0.56729-1.2721 1.2721v11.025c0 0.70478 0.56729 1.2721 1.2721 1.2721zm-2.1201-3.3922h-6.7844v-6.7844h6.7844z" fill="url(#c)" stroke-width=".053003"/>
<path d="m24.261 21.385c0.70478 0 1.2721-0.56729 1.2721-1.2721v-11.025c0-0.70478-0.56729-1.2721-1.2721-1.2721h-11.025c-0.70478 0-1.2721 0.56729-1.2721 1.2721v2.1201h10.177v6.7844h-6.7844v-3.3922h-3.3922v5.5123c0 0.70478 0.56729 1.2721 1.2721 1.2721z" fill="url(#a-6)" stroke-width=".053003"/>
</svg>
