<svg width="128" height="128" version="1.1" viewBox="0 0 128 128" xmlns="http://www.w3.org/2000/svg">
<defs>
<linearGradient id="linearGradient825" x1="-741.83" x2="-741.83" y1="959.05" y2="93.836" gradientTransform="matrix(.13668 0 0 .13668 162.31 -5.9893)" gradientUnits="userSpaceOnUse"/>
<linearGradient id="linearGradient835" x1="-738.76" x2="-738.76" y1="931.43" y2="152.13" gradientTransform="matrix(.13668 0 0 .13668 162.31 -5.9893)" gradientUnits="userSpaceOnUse"/>
</defs>
<circle cx="63.592" cy="64.286" r="61.38" fill="url(#linearGradient825)"/>
<circle cx="63.592" cy="64.286" r="55.09" fill="url(#linearGradient835)"/>
<image x="-4.2115" y="7.9496" width="121" height="113"/>
<path d="m89.56 23.324c-4.7564 0-8.6779 3.913-8.6779 8.6694 0 1.5971 0.44946 3.0936 1.2168 4.3839l-10.516 14.206c-1.7694-0.8306-3.7312-1.3096-5.803-1.3096-2.3089 0-4.4887 0.58092-6.4044 1.599 0.28225-0.65037 0.24964-1.4384-0.34847-2.1779l-2.7287-3.3779c-0.40847-0.52472-1.0352-0.83498-1.7002-0.84025-1.8533-0.01512-2.876 2.1457-1.6889 3.5689l2.7287 3.3891c0.4693 0.58028 1.0412 0.82686 1.6018 0.84024-2.9869 2.3813-4.9753 5.9706-5.2073 10.007l-21.166 2.5039c-1.1428-1.8102-3.1499-3.0322-5.4265-3.0322-3.5209 0-6.4157 2.9032-6.4157 6.4241 0 3.5209 2.8947 6.4157 6.4157 6.4157 2.3688 0 4.436-1.3246 5.5501-3.2542l22.231-2.6275c2.169 4.7893 6.9899 8.1552 12.559 8.1552 3.6721 0 7.0177-1.47 9.4984-3.8387l2.6837 3.3301c1.8268 2.2588 5.2131-0.48116 3.3863-2.7399l-2.7287-3.3778c-0.19782-0.25417-0.44804-0.45533-0.72784-0.59857 1.0711-1.9579 1.6833-4.1995 1.6833-6.573 0-2.9537-0.95237-5.6943-2.5545-7.9472l10.825-14.635c0.55474 0.1129 1.1284 0.17424 1.7142 0.17424 4.7564 0 8.6666-3.9102 8.6666-8.6666-1e-5 -4.7564-3.9102-8.6695-8.6666-8.6695zm-45.598 5.3647a6.156 6.156 0 0 0-6.1543 6.1543 6.156 6.156 0 0 0 6.1543 6.1571 6.156 6.156 0 0 0 2.383-0.48616l2.5882 3.212c1.8268 2.2588 5.2159-0.48116 3.3891-2.7399l-2.7315-3.3779c-0.0265-0.03439-0.0612-0.06009-0.0899-0.09271a6.156 6.156 0 0 0 0.61825-2.6725 6.156 6.156 0 0 0-6.1571-6.1543zm45.598 0.07586c1.8175 0 3.2289 1.4114 3.2289 3.2289 0 1.8175-1.4114 3.2289-3.2289 3.2289-1.8175 0-3.2402-1.4114-3.2402-3.2289 0-1.8175 1.4227-3.2289 3.2402-3.2289zm-23.78 27.582c3.7561 0 6.7332 2.9658 6.7332 6.722 0 3.7561-2.9771 6.7248-6.7332 6.7248s-6.7248-2.9687-6.7248-6.7248c0-3.7561 2.9687-6.722 6.7248-6.722zm-40.34 9.431c1.3454 0 2.3999 1.0545 2.3999 2.3999 0 1.3454-1.0545 2.3915-2.3999 2.3915-1.3454 0-2.3887-1.0461-2.3887-2.3915 0-1.3454 1.0433-2.3999 2.3887-2.3999zm33.711 10.156c-0.79232-0.0017-1.5872 0.41878-1.9784 1.259l-1.9025 3.9118c-1.2658 2.6148 2.6572 4.5145 3.923 1.8997l1.8913-3.909c0.30085-0.593 0.31514-1.2902 0.0363-1.8941-0.3877-0.84166-1.1776-1.2657-1.9699-1.2674zm24.777 1.4754c-1.8533-0.01512-2.876 2.1457-1.6889 3.5689l2.7287 3.3863c0.0774 0.09577 0.16191 0.16906 0.2445 0.24726a7.8076 7.8076 0 0 0-0.96109 3.7348 7.8076 7.8076 0 0 0 7.8095 7.8067 7.8076 7.8076 0 0 0 7.8067-7.8067 7.8076 7.8076 0 0 0-7.8067-7.8095 7.8076 7.8076 0 0 0-3.7882 0.98357l-2.6472-3.2739c-0.40846-0.52472-1.0324-0.83216-1.6974-0.83744zm-30.507 6.9327a4.9048 4.9048 0 0 0-4.9038 4.9038 4.9048 4.9048 0 0 0 4.9038 4.9066 4.9048 4.9048 0 0 0 4.9066-4.9066 4.9048 4.9048 0 0 0-4.9066-4.9038z" color="#000000" color-rendering="auto" dominant-baseline="auto" fill="#fff" image-rendering="auto" shape-rendering="auto" solid-color="#000000" style="font-feature-settings:normal;font-variant-alternates:normal;font-variant-caps:normal;font-variant-ligatures:normal;font-variant-numeric:normal;font-variant-position:normal;isolation:auto;mix-blend-mode:normal;shape-padding:0;text-decoration-color:#000000;text-decoration-line:none;text-decoration-style:solid;text-indent:0;text-orientation:mixed;text-transform:none;white-space:normal"/>
<style><![CDATA[.B{clip-path:url(#C)}.C{fill:#3e2723}.D{fill-opacity:.15}.E{fill-opacity:.2}]]></style>
</svg>
