<svg width="128" height="128" version="1.1" viewBox="0 0 33.867 33.867" xmlns="http://www.w3.org/2000/svg">
<defs>
<linearGradient id="linearGradient897" x1="2686" x2="2686" y1="1088.8" y2="1770.4" gradientTransform="matrix(.042779 0 0 .042779 -95.919 -44.867)" gradientUnits="userSpaceOnUse"/>
<radialGradient id="radialGradient898" cx="60.636" cy="20.456" r="17.304" gradientTransform="translate(-43.433 -3.9449)" gradientUnits="userSpaceOnUse"/>
<radialGradient id="radialGradient993" cx="16.968" cy="4.6709" r="13.696" gradientTransform="matrix(4.8886 0 0 1.8641 -65.724 -2.4383)" gradientUnits="userSpaceOnUse"/>
<linearGradient id="linearGradient1805" x1="22.457" x2="16.032" y1="19.917" y2="10.686" gradientTransform="matrix(1.0357 0 0 1.0357 -.16545 .65494)" gradientUnits="userSpaceOnUse"/>
</defs>
<circle cx="17.203" cy="16.512" r="17.304" fill="url(#radialGradient898)" opacity=".30973" stroke-linecap="square" stroke-linejoin="round" stroke-width="3"/>
<circle cx="17.203" cy="16.512" r="15.118" fill="url(#linearGradient897)" stroke="#b1aaaa" stroke-linecap="square" stroke-opacity=".99216" stroke-width=".057556"/>
<circle cx="17.203" cy="16.512" r="13.102" fill="url(#radialGradient993)"/>
<path d="m17.107 7.4146c-0.38464 4.233e-4 -0.76095 0.040655-1.125 0.11627 0.09999-0.00551 0.20058-0.00868 0.30179-0.00878 3.0799-2e-7 5.6141 2.5347 5.6141 5.6146-0.0013 0.34214-0.03426 0.6839-0.09767 1.0201 0.14201-0.0185 0.28456-0.02815 0.42788-0.02946 1.9927 0 3.6329 1.6401 3.6329 3.6329 0 1.6944-1.1873 3.1297-2.7673 3.5228 1.9734-0.02327 3.5905-1.6523 3.5905-3.6308 0-1.9927-1.6401-3.6329-3.6329-3.6329-0.14332 0.0013-0.28587 0.01147-0.42788 0.02997 0.06341-0.3362 0.09634-0.67847 0.09767-1.0206 0-3.0799-2.5342-5.6141-5.6141-5.6141zm0.16846 13.977s-0.15832 1.2864-1.8743 2.5275c-0.53186 0.38476-1.1572 0.60532-1.787 0.72709 0.88721-0.06249 1.8448-0.28092 2.6102-0.83458 1.506-1.0892 1.7971-2.1611 1.8495-2.42z" fill="#0075ff" fill-opacity=".09734" stroke-width=".6605"/>
<image x="4.5245" y="10.55" width="25.609" height="17.386" opacity=".757" preserveAspectRatio="none"/>
<path d="m7.7544 12.379v6.3985c0 1.5733 1.5199 3.1133 3.1825 3.1133h8.6121c0.89601 0.06436 1.1414-0.54942 1.1414-1.1414v-6.4331c0-1.6453-0.91433-3.0787-3.1479-3.0787h-8.6467c-0.6859 0-1.1414 0.48022-1.1414 1.1414zm17.744-0.47559-2.2828 1.3316c-1.086 0.62702-1.1414 0.78612-1.1414 1.9975v2.6633c0 1.2661 0.22371 1.4621 1.1414 1.9975l2.2828 1.3316c0.66965 0.39063 1.1414 0.07159 1.1414-0.66582v-7.9898c0.0091-0.73908-0.41329-1.0862-1.1414-0.66582z" fill="url(#linearGradient1805)" stroke-width=".27404"/>
</svg>
