<svg width="16" height="16" viewBox="0 0 16 16" xmlns="http://www.w3.org/2000/svg">
<defs>
<style id="current-color-scheme" type="text/css">.ColorScheme-Text { color:#5c616c; } .ColorScheme-Highlight { color:#5294e2; }</style>
</defs>
<path class="ColorScheme-Text" d="m8 1c-2.7614 0-5 2.0887-5 4.666 2e-3 0.5558 0.11081 1.1067 0.32031 1.627 0.1517 0.3912 0.45654 0.82415 0.64844 1.123l4.0312 6.584 4.0312-6.5801c0.317-0.368 0.45334-0.75875 0.65234-1.127 0.208-0.5204 0.31541-1.0714 0.31641-1.627 0-2.5773-2.239-4.666-5-4.666zm0 2c0.9153 0 1.7801 0.41787 2.3496 1.1348 0.124 0.1567 0.23322 0.32551 0.32422 0.50391 0.182 0.3576 0.29036 0.74824 0.31836 1.1484 5e-3 0.0709 0.007812 0.14189 0.007812 0.21289 0 0.3006-0.045766 0.59962-0.13477 0.88672-0.049 0.1559-0.11155 0.30742-0.18555 0.45312-0.009001 0.0184-0.016391 0.036487-0.025391 0.054687-0.518 0.9866-1.54 1.6048-2.6543 1.6055-1.1143-7e-4 -2.1363-0.61887-2.6543-1.6055-0.0445-0.0846-0.084894-0.17137-0.12109-0.25977l-0.0058594-0.013672c-0.033-0.0826-0.062291-0.16665-0.087891-0.25195-4e-3 -0.0117-0.0079188-0.023356-0.011719-0.035156-0.0222-0.0799-0.041141-0.16069-0.056641-0.24219-4e-3 -0.0169-0.0079187-0.033881-0.011719-0.050781-0.0154-0.0841-0.027156-0.16881-0.035156-0.25391-2e-3 -0.0143-0.0019063-0.028569-0.0039062-0.042969-7e-3 -0.0812-0.011019-0.16264-0.011719-0.24414 2e-4 -0.0998 0.005025-0.19953 0.015625-0.29883 0.0806-0.8068 0.48424-1.5465 1.1191-2.0508 0.1567-0.1246 0.32551-0.23322 0.50391-0.32422 0.4217-0.2146 0.88813-0.32637 1.3613-0.32617z" fill="currentColor"/>
</svg>
