<svg width="16" height="16" version="1.1" xmlns="http://www.w3.org/2000/svg">
<g transform="matrix(-1,0,0,1,16,0)">
<path d="m13.535 2.459-10.609 4.5 3.4375 1.7168c1.543-1.433 5.2527-4.2918 6.4707-5.5098-1.218 1.218-4.0807 4.9297-5.5117 6.4727l1.7207 3.4434 4.4941-10.623z" fill-opacity=".08"/>
<path d="m15.31 0.666-14.64 6.285 5.584 2.79 2.79 5.581 7e-3 6e-3 4e-3 4e-3 6.275-14.662-4e-3 -2e-3h-0.01c-0.0012-9.6008e-4 -0.0025-0.001644-4e-3 -2e-3zm-1.773 1.793-4.494 10.623-1.72-3.443c1.431-1.543 4.293-5.255 5.511-6.473-1.218 1.218-4.927 4.077-6.47 5.51l-3.439-1.717 10.611-4.5z" fill-opacity=".57983" overflow="visible"/>
</g>
</svg>
