<svg width="16" height="16" version="1.1" viewBox="0 0 16 16" xmlns="http://www.w3.org/2000/svg">
<defs>
<style id="current-color-scheme" type="text/css">.ColorScheme-Text { color:#5c616c; } .ColorScheme-Highlight { color:#5294e2; }</style>
</defs>
<path class="ColorScheme-Text" d="m8-8.5e-8a8 8 0 0 0-8 8 8 8 0 0 0 8 8 8 8 0 0 0 8-8 8 8 0 0 0-8-8zm1.5449 1.9102c0 5.7268 4.391 6.5536 3.2715 9.8164-0.6382 1.8601-2.1972 3.2734-4.9082 3.2734-0.0086 0-0.01729 4e-5 -0.02539 0 1.342-0.0075 2.1162-0.70975 2.4336-1.6348 0.5598-1.6314-1.6367-2.0467-1.6367-4.9102-2.0453 0.8181-3.2715 2.7363-3.2715 4.0918 0 1.1716 0.82156 2.1472 1.9199 2.3906-2.4335-0.29055-4.3281-2.334-4.3281-4.8457 0-2.711 2.4539-6.5456 6.5449-8.1816z" fill="currentColor"/>
</svg>
