<svg width="16" height="16" viewBox="0 0 16 16" xmlns="http://www.w3.org/2000/svg">
<defs>
<style id="current-color-scheme" type="text/css">.ColorScheme-Text { color:#5c616c; } .ColorScheme-Highlight { color:#5294e2; }</style>
</defs>
<path class="ColorScheme-Text" d="m10.029 1c-0.14738 3e-3 -0.29995 0.015009-0.45898 0.037109-0.56691 0.0788-1.2516 0.35437-2.0156 0.76172-1.5406-0.85315-2.7409-0.90508-3.748-0.64453-1.0688 0.27651-1.9377 0.72809-3.291 0.6875l-0.51562-0.015625v14.174h15v-14.156l-0.51758 0.017578c-1.5166 0.0552-2.2705-0.39668-3.25-0.68945-0.3673-0.1098-0.761-0.1809-1.2031-0.17188zm-4.8105 0.99414c0.49899 0.0386 1.0634 0.21935 1.7812 0.61523v8.7246c-1.1044-0.64176-2.2098-0.69002-3.1836-0.44726-0.6532 0.16282-1.2472 0.35093-1.8164 0.50195v-8.7266c0.8021-0.14793 1.4741-0.37909 2.0547-0.5293 0.23111-0.0598 0.45444-0.10883 0.68359-0.13281 0.15502-0.0162 0.31414-0.018659 0.48047-0.0058594zm5.1191 0.0078125c0.2059 0.0265 0.40468 0.077112 0.61133 0.13867 0.53443 0.15975 1.1934 0.41255 2.0508 0.56055v8.6836c-0.56984-0.1524-1.1625-0.34205-1.8105-0.50391-0.97984-0.24476-2.0914-0.18478-3.1895 0.48633v-8.6992c0.70328-0.38552 1.2454-0.5963 1.6797-0.66016 0.23926-0.0352 0.4523-0.032159 0.6582-0.0058594z" fill="currentColor"/>
</svg>
