<svg width="16" height="16" version="1.1" viewBox="0 0 4.2333 4.2333" xmlns="http://www.w3.org/2000/svg">
<g transform="translate(0 -292.77)" fill-opacity=".47451">
<path transform="matrix(.26458 0 0 .26458 0 292.77)" d="m2.5 3c-0.83101 0-1.5 0.66899-1.5 1.5v7c0 0.83101 0.66899 1.5 1.5 1.5h11c0.83101 0 1.5-0.66899 1.5-1.5v-7c0-0.83101-0.66899-1.5-1.5-1.5h-11zm0 1h11c0.277 0 0.5 0.223 0.5 0.5v7c0 0.277-0.223 0.5-0.5 0.5h-11c-0.277 0-0.5-0.223-0.5-0.5v-7c0-0.277 0.223-0.5 0.5-0.5z"/>
<path d="m1.4111 293.82v2.1167h0.26458v-2.1167z"/>
<path d="m2.5576 293.82v2.1167h0.26458v-2.1167z"/>
</g>
</svg>
