<svg width="16" height="16" viewBox="0 0 16 16" xmlns="http://www.w3.org/2000/svg">
<defs>
<style id="current-color-scheme" type="text/css">.ColorScheme-Text { color:#5c616c; } .ColorScheme-Highlight { color:#5294e2; }</style>
</defs>
<path class="ColorScheme-Text" d="m7 1-7 7h2v7h10v-7h2l-7-7zm0 5c1.1046 0 2 0.89547 2 2s-0.89543 2-2 2c2.9999-0.0018 3 2.4004 3 2.4004v0.59961h-6v-0.59961s-1e-4 -2.3984 3-2.4004c-1.1046 0-2-0.8955-2-2s0.8954-2 2-2zm7 5v2h-1l1.5 3 1.5-3h-1v-2h-1z" fill="currentColor"/>
</svg>
