<?xml version="1.0" encoding="UTF-8" standalone="no"?>
<svg
   width="36"
   height="36"
   version="1.1"
   id="svg4"
   sodipodi:docname="folder-new-symbolic.svg"
   xmlns:inkscape="http://www.inkscape.org/namespaces/inkscape"
   xmlns:sodipodi="http://sodipodi.sourceforge.net/DTD/sodipodi-0.dtd"
   xmlns="http://www.w3.org/2000/svg"
   xmlns:svg="http://www.w3.org/2000/svg">
  <defs
     id="defs4" />
  <sodipodi:namedview
     id="namedview4"
     pagecolor="#ffffff"
     bordercolor="#000000"
     borderopacity="0.25"
     inkscape:showpageshadow="2"
     inkscape:pageopacity="0.0"
     inkscape:pagecheckerboard="0"
     inkscape:deskcolor="#d1d1d1" />
  <g
     id="g4">
    <g
       id="g3">
      <path
         d="m -44.63,0.97 c -1.1752,0 -2.1211,0.94588 -2.1211,2.1211 v 3.0254 4 0.74805 17.01 c 0,1.1752 0.94588,2.1211 2.1211,2.1211 h 31.758 c 1.1752,0 2.1211,-0.94588 2.1211,-2.1211 v -17.758 -4 c 0,-1.1752 -0.94588,-2.1211 -2.1211,-2.1211 h -19.537 c -1.3047,-0.0511 -1.6297,-0.64731 -2.3413,-1.5894 -0.7116,-0.94209 -1.1674,-1.436 -2.1216,-1.436 z m 1.166,2 h 5.4258 c 1.3355,0 1.7571,1.0151 2.2718,1.5299 0.5147,0.5148 1.9584,1.4955 2.7711,1.4955 h 18.957 c 0.71285,0 1.2871,0.57426 1.2871,1.2871 v 0.72461 c -0.041,-0.002 -0.0795,-0.0117 -0.12109,-0.0117 h -31.758 c -0.0416,0 -0.0801,0.009 -0.12109,0.0117 v -3.75 c 0,-0.71285 0.57426,-1.2871 1.2871,-1.2871 z m 0,7.0254 h 29.426 c 0.71285,0 1.2871,0.57426 1.2871,1.2871 v 15.426 c 0,0.71285 -0.57426,1.2871 -1.2871,1.2871 h -29.426 c -0.71285,0 -1.2871,-0.57426 -1.2871,-1.2871 V 13.8865 11.283 c 0,-0.71285 0.57426,-1.2871 1.2871,-1.2871 z"
         opacity="0.75"
         id="path1" />
      <path
         d="m -43.46,10 h 29.426 c 0.71285,0 1.2871,0.57426 1.2871,1.2871 v 15.426 c 0,0.71285 -0.57426,1.2871 -1.2871,1.2871 H -43.46 c -0.71285,0 -1.2871,-0.57426 -1.2871,-1.2871 V 11.2871 C -44.7471,10.57425 -44.17284,10 -43.46,10 Z"
         fill-opacity="0.90196"
         opacity="0.2"
         id="path2" />
      <path
         d="m -44.75,26 v 0.71289 c 0,0.71285 0.57426,1.2871 1.2871,1.2871 h 29.426 c 0.71285,0 1.2871,-0.57426 1.2871,-1.2871 V 26 h -32 z"
         opacity="0.3"
         id="path3" />
    </g>
    <path
       d="m 16.5,12 v 4.5 H 12 v 3 h 4.5 V 24 h 3 V 19.5 H 24 v -3 H 19.5 V 12 Z"
       opacity="0.75"
       id="path4" />
  </g>
</svg>
