<svg xmlns="http://www.w3.org/2000/svg" width="36" height="36" version="1.1" viewBox="0 0 9.525 9.525">
<g>
<path d="m0.57048 2.3c-0.16579 0-0.29982 0.13413-0.29982 0.29982v1.7438c0-0.1658 0.13403-0.29982 0.29982-0.29982h8.3233c0.16579 0 0.2989 0.13402 0.2989 0.29982v-0.93075c0-0.16576-0.13312-0.29889-0.2989-0.29889h-4.5608l-0.97672-0.81394z" fill="none" />
<path d="m0.56956 2.1c-0.27145 0-0.49572 0.22426-0.49572 0.49571v6.1813c0 0.27143 0.22427 0.49571 0.49572 0.49571h8.3242c0.27145 0 0.49664-0.22428 0.49664-0.49571v-5.3683c0-0.27143-0.22519-0.49571-0.49664-0.49571h-4.489l-0.92246-0.76887a0.19689 0.19689 0 0 0-0.12692-0.0442zm0 0.39363h2.7149l0.92246 0.76703a0.19689 0.19689 0 0 0 0.12508 0.0469h4.5617c0.060137 0 0.10209 0.041 0.10209 0.10111v0.45526c-0.033955-7e-3 -0.066064-0.0203-0.10209-0.0203h-8.3242c-0.036023 0-0.06813 0.0128-0.10209 0.0203v-1.2683c0-0.0601 0.041956-0.10215 0.10209-0.10215zm0 1.7438h8.3242c0.060138 0 0.10209 0.0419 0.10209 0.10215v4.4376c0 0.0602-0.041946 0.10112-0.10209 0.10112h-8.3242c-0.060133 0-0.10209-0.041-0.10209-0.10112v-4.4376c0-0.0602 0.041956-0.10215 0.10209-0.10215z" color="#000000" color-rendering="auto" dominant-baseline="auto" fill="#d20707" fill-opacity=".65098" image-rendering="auto" shape-rendering="auto" solid-color="#000000" style="font-feature-settings:normal;font-variant-alternates:normal;font-variant-caps:normal;font-variant-ligatures:normal;font-variant-numeric:normal;font-variant-position:normal;isolation:auto;mix-blend-mode:normal;shape-padding:0;text-decoration-color:#000000;text-decoration-line:none;text-decoration-style:solid;text-indent:0;text-orientation:mixed;text-transform:none;white-space:normal" />
<path d="m0.56956 4.24c-0.060131 0-0.10209 0.0419-0.10209 0.10215v4.4376c0 0.0602 0.041954 0.10112 0.10209 0.10112h8.3242c0.060138 0 0.10209-0.041 0.10209-0.10112v-4.4376c0-0.0602-0.041946-0.10215-0.10209-0.10215z" fill="#d20707" fill-opacity=".22433" />
</g>
</svg>
