<?xml version="1.0" encoding="UTF-8" standalone="no"?>
<svg
   width="36"
   height="36"
   version="1.1"
   viewBox="0 0 9.525 9.525"
   id="svg3"
   sodipodi:docname="folder-symbolic.svg"
   inkscape:version="1.4.3 (0d15f75042, 2025-12-25)"
   xmlns:inkscape="http://www.inkscape.org/namespaces/inkscape"
   xmlns:sodipodi="http://sodipodi.sourceforge.net/DTD/sodipodi-0.dtd"
   xmlns="http://www.w3.org/2000/svg"
   xmlns:svg="http://www.w3.org/2000/svg">
  <defs
     id="defs3" />
  <sodipodi:namedview
     id="namedview3"
     pagecolor="#ffffff"
     bordercolor="#000000"
     borderopacity="0.25"
     inkscape:showpageshadow="2"
     inkscape:pageopacity="0.0"
     inkscape:pagecheckerboard="0"
     inkscape:deskcolor="#d1d1d1"
     inkscape:zoom="26.055556"
     inkscape:cx="18"
     inkscape:cy="18"
     inkscape:window-width="1920"
     inkscape:window-height="1168"
     inkscape:window-x="0"
     inkscape:window-y="0"
     inkscape:window-maximized="1"
     inkscape:current-layer="svg3" />
  <g
     id="g3"
     transform="translate(0,-0.92381645)">
    <path
       transform="scale(0.26458)"
       d="m 2.1523,9.4082 c -0.22727,0 -0.38477,0.15957 -0.38477,0.38672 v 4.793 c 0.12834,-0.02835 0.24862,-0.07617 0.38477,-0.07617 h 31.461 c 0.13614,0 0.25838,0.04971 0.38672,0.07617 v -1.7207 c 0,-0.22719 -0.15943,-0.38086 -0.38672,-0.38086 h -17.24 a 0.74415,0.74415 0 0 1 -0.47266,-0.17773 l -3.4863,-2.8984 h -10.262 v -0.00195 z"
       fill-opacity="0.017778"
       id="path1" />
    <path
       d="M 0.56956,2.1 C 0.29811,2.1 0.07384,2.32426 0.07384,2.59571 v 6.1813 c 0,0.27143 0.22427,0.49571 0.49572,0.49571 h 8.3242 c 0.27145,0 0.49664,-0.22428 0.49664,-0.49571 V 3.40871 C 9.3904,3.13728 9.16521,2.913 8.89376,2.913 h -4.489 L 3.4823,2.14413 A 0.19689,0.19689 0 0 0 3.35538,2.09993 Z m 0,0.39363 h 2.7149 L 4.20692,3.26066 A 0.19689,0.19689 0 0 0 4.332,3.30756 h 4.5617 c 0.060137,0 0.10209,0.041 0.10209,0.10111 V 3.86393 C 8.961835,3.85693 8.929726,3.84363 8.8937,3.84363 H 0.5695 c -0.036023,0 -0.06813,0.0128 -0.10209,0.0203 v -1.2683 c 0,-0.0601 0.041956,-0.10215 0.10209,-0.10215 z m 0,1.7438 h 8.3242 c 0.060138,0 0.10209,0.0419 0.10209,0.10215 v 4.4376 c 0,0.0602 -0.041946,0.10112 -0.10209,0.10112 h -8.3242 c -0.060133,0 -0.10209,-0.041 -0.10209,-0.10112 v -4.4376 c 0,-0.0602 0.041956,-0.10215 0.10209,-0.10215 z"
       color="#000000"
       color-rendering="auto"
       dominant-baseline="auto"
       fill-opacity="0.65098"
       image-rendering="auto"
       shape-rendering="auto"
       solid-color="#000000"
       style="font-variant-ligatures:normal;font-variant-position:normal;font-variant-caps:normal;font-variant-numeric:normal;font-variant-alternates:normal;font-feature-settings:normal;text-indent:0;text-decoration-line:none;text-decoration-style:solid;text-decoration-color:#000000;text-transform:none;text-orientation:mixed;white-space:normal;shape-padding:0;isolation:auto;mix-blend-mode:normal"
       id="path2" />
    <path
       d="m 0.56956,4.24 c -0.060131,0 -0.10209,0.0419 -0.10209,0.10215 v 4.4376 c 0,0.0602 0.041954,0.10112 0.10209,0.10112 h 8.3242 c 0.060138,0 0.10209,-0.041 0.10209,-0.10112 V 4.34215 C 8.99585,4.28195 8.953904,4.24 8.89376,4.24 Z"
       fill-opacity="0.18908"
       id="path3" />
  </g>
</svg>
