<svg width="36" height="36" version="1.1" xmlns="http://www.w3.org/2000/svg">
<path d="m18.137 2.3771c-0.21508 0.016646-0.42966 0.081702-0.62814 0.19629l-1.0992 0.62814c-0.70571 0.40744-0.93743 1.2965-0.52999 2.0022l9.5398 16.528 3.494-2.3359-9.4024-16.273c-0.25465-0.44107-0.68748-0.71301-1.1581-0.74591-0.0706-0.00503-0.14423-0.00565-0.21592 0zm-3.3762 5.6336c-0.47065 0.03291-0.9231 0.28521-1.1778 0.72628l-0.96183 1.6489 3.6314 2.1003 0.96183-1.6489c0.40744-0.70571 0.17572-1.5947-0.52999-2.0022l-1.0796-0.62814c-0.26464-0.15279-0.56167-0.21604-0.84406-0.19629zm-2.7481 3.4547-8.2246 14.27 3.6314 2.0807 8.2246-14.251zm-12.013 6.3991v4.2007h4.8683l2.4144-4.2007zm14.212 0-2.4144 4.2007h12.778l-2.434-4.2007zm14.859 0 2.434 4.2007h4.4954v-4.2007zm0.47142 2.6107-3.494 2.3358 1.747 3.0229 3.494-2.3358zm2.3751 4.1221-3.494 2.3358c0.10409 4.1765 3.2936 3.6564 4.5147 6.2618 2.3252-2.4754 1.6221-6.2819-1.0207-8.5976zm-28.757 2.2181-1.904 6.8114 5.5354-4.711z" opacity=".816"/>
</svg>
