<?xml version="1.0" encoding="UTF-8" standalone="no"?>
<svg
   width="22"
   height="22"
   version="1.1"
   id="svg3"
   sodipodi:docname="network-workgroup.svg"
   inkscape:version="1.4.3 (0d15f75042, 2025-12-25)"
   inkscape:export-filename="network-workgroup.svg"
   inkscape:export-xdpi="96"
   inkscape:export-ydpi="96"
   xmlns:inkscape="http://www.inkscape.org/namespaces/inkscape"
   xmlns:sodipodi="http://sodipodi.sourceforge.net/DTD/sodipodi-0.dtd"
   xmlns="http://www.w3.org/2000/svg"
   xmlns:svg="http://www.w3.org/2000/svg">
  <defs
     id="defs3" />
  <sodipodi:namedview
     id="namedview3"
     pagecolor="#ffffff"
     bordercolor="#000000"
     borderopacity="0.25"
     inkscape:showpageshadow="2"
     inkscape:pageopacity="0.0"
     inkscape:pagecheckerboard="0"
     inkscape:deskcolor="#d1d1d1"
     inkscape:zoom="25.361111"
     inkscape:cx="17.980285"
     inkscape:cy="18"
     inkscape:window-width="1920"
     inkscape:window-height="1168"
     inkscape:window-x="0"
     inkscape:window-y="0"
     inkscape:window-maximized="1"
     inkscape:current-layer="svg3" />
  <g
     id="g3"
     transform="matrix(0.60869565,0,0,0.60869565,0.0434783,0.0434783)">
    <path
       d="m 18,2.67 c -8.4684,0 -15.333,6.865 -15.333,15.333 1e-5,8.4684 6.865,15.333 15.333,15.333 8.468,0 15.333,-6.865 15.333,-15.333 C 33.33299,9.5346 26.468,2.67 18,2.67 Z"
       fill="#504f4f"
       fill-opacity="0.56395"
       id="path1" />
    <path
       d="M 15.141,2.9473 A 15.333,15.333 0 0 0 11.5629,4.1035 C 9.5286,6.5699 8.313,9.4208 7.6957,12.4258 a 1.9887,1.9887 0 0 0 -1.1836,1.125 C 5.495,13.503038 4.4633,13.40002 3.4242,13.2715 a 15.333,15.333 0 0 0 -0.44336,1.6504 c 1.216,0.15581 2.427,0.277 3.625,0.32422 a 1.9887,1.9887 0 0 0 0.60352,0.67969 c -0.00786,0.08528 -0.018591,0.1702 -0.023438,0.25586 -0.13457,2.3783 0.024866,4.7894 0.33984,7.1523 a 1.9887,1.9887 0 0 0 -0.17383,0.12891 c -1.5901,-0.85173 -3.0969,-1.8778 -4.4883,-3.0781 a 15.333,15.333 0 0 0 0.69336,2.7109 c 0.9872,0.7048 2.0133,1.3403 3.0723,1.9043 a 1.9887,1.9887 0 0 0 1.498,1.9219 c 0.23083,1.1616 0.49152,2.2876 0.76172,3.3887 a 15.333,15.333 0 0 0 2.0898,1.3066 c -0.42795,-1.5989 -0.84077,-3.2782 -1.1875,-5.0176 a 1.9887,1.9887 0 0 0 0.125,-0.10156 c 2.2252,0.83772 4.538,1.3749 6.8711,1.6406 a 1.9887,1.9887 0 0 0 0.78125,0.89258 c -0.05813,1.4049 -0.02264,2.8372 0.10742,4.2871 a 15.333,15.333 0 0 0 0.32422,0.01563 15.333,15.333 0 0 0 1.3945,-0.07617 c -0.12854,-1.3714 -0.1896,-2.7242 -0.14648,-4.041 a 1.9887,1.9887 0 0 0 1.0762,-0.88086 c 1.5475,-0.01373 3.0826,-0.15366 4.5898,-0.41406 a 1.9887,1.9887 0 0 0 1.4707,0.6543 1.9887,1.9887 0 0 0 0.38086,-0.03906 c 0.36155,0.3929 0.75014,0.77279 1.127,1.1582 a 15.333,15.333 0 0 0 1.2305,-1.168 c -0.32815,-0.33575 -0.66874,-0.66838 -0.98438,-1.0078 a 1.9887,1.9887 0 0 0 0.1582,-0.39453 c 0.90911,-0.27831 1.8,-0.60344 2.668,-0.97266 a 15.333,15.333 0 0 0 1.2754,-2.5039 c -1.3331,0.73442 -2.7553,1.3297 -4.2344,1.793 a 1.9887,1.9887 0 0 0 -1.6211,-0.84375 1.9887,1.9887 0 0 0 -0.60742,0.09766 c -1.2082,-1.6201 -2.2219,-3.3155 -2.9453,-5.1504 a 1.9887,1.9887 0 0 0 0.72266,-1.5312 1.9887,1.9887 0 0 0 -0.42383,-1.2285 c 1.9278,-2.7215 4.6005,-4.968 8.0547,-6.5762 a 15.333,15.333 0 0 0 -0.95117,-1.4297 c -3.5901,1.7215 -6.3897,4.1283 -8.4316,7.0195 -0.14321,-0.83984 -0.21079,-1.7233 -0.24219,-2.6289 a 1.9887,1.9887 0 0 0 1.332,-1.875 1.9887,1.9887 0 0 0 -0.002,-0.02734 c 1.9358,-1.1782 3.803,-2.6439 5.5918,-4.4336 a 15.333,15.333 0 0 0 -1.3047,-1.0938 c -1.619,1.6075 -3.2929,2.9369 -5.0195,4.0137 a 1.9887,1.9887 0 0 0 -0.42578,-0.26367 c 0.23164,-1.8331 0.6766,-3.7984 1.377,-5.9277 a 15.333,15.333 0 0 0 -1.6289,-0.47852 c -0.74881,2.2878 -1.2262,4.4257 -1.4609,6.4316 a 1.9887,1.9887 0 0 0 -1.1035,1.7793 1.9887,1.9887 0 0 0 0.0078,0.16797 c -2.7934,1.2183 -5.7112,1.8698 -8.7402,2.0645 a 1.9887,1.9887 0 0 0 -0.79297,-0.92188 c 0.77684,-3.697 2.5035,-7.0411 5.75,-9.6582 z m 4.6211,9.9746 a 1.9887,1.9887 0 0 0 0.07617,0.05078 c 0.02769,1.2469 0.15947,2.4372 0.38086,3.5801 a 1.9887,1.9887 0 0 0 -0.64062,1.4609 1.9887,1.9887 0 0 0 0.32422,1.0898 c -0.93307,1.9844 -1.5892,4.1198 -1.9668,6.3633 a 1.9887,1.9887 0 0 0 -1.0859,0.93945 c -2.1213,-0.25126 -4.2215,-0.74527 -6.2461,-1.4941 a 1.9887,1.9887 0 0 0 -1.3945,-1.8145 c -0.30338,-2.2777 -0.45285,-4.5813 -0.32617,-6.8203 0.00119,-0.02108 0.00449,-0.04148 0.00586,-0.0625 a 1.9887,1.9887 0 0 0 1.2266,-0.99805 c 3.3299,-0.20746 6.5595,-0.93255 9.6465,-2.2949 z m 1.4824,7.1992 c 0.8114,2.0753 1.9397,3.9721 3.2852,5.7539 a 1.9887,1.9887 0 0 0 -0.10742,0.4082 c -1.3015,0.20915 -2.6271,0.31954 -3.9629,0.33398 a 1.9887,1.9887 0 0 0 -0.84766,-0.99414 c 0.32737,-1.9385 0.86299,-3.7848 1.6328,-5.502 z m -20.223,0.83008 -0.041016,0.04297 c 0.017933,0.01684 0.036712,0.03205 0.054687,0.04883 A 17.25,17.25 0 0 1 1.0215,20.95118 Z"
       color="#000000"
       color-rendering="auto"
       fill="#e5e5e5"
       fill-opacity="0.63498"
       image-rendering="auto"
       shape-rendering="auto"
       solid-color="#000000"
       style="text-indent:0;text-decoration-line:none;text-decoration-style:solid;text-decoration-color:#000000;text-transform:none;white-space:normal;isolation:auto;mix-blend-mode:normal"
       id="path2" />
    <path
       d="M 18,0.75 A 17.25,17.25 0 0 0 0.75,18 17.25,17.25 0 0 0 18,35.25 17.25,17.25 0 0 0 35.25,18 17.25,17.25 0 0 0 18,0.75 Z m 0,1.9167 A 15.333,15.333 0 0 1 33.333,17.9997 15.333,15.333 0 0 1 18,33.3327 15.333,15.333 0 0 1 2.667,17.9997 15.333,15.333 0 0 1 18,2.6667 Z"
       fill="#656363"
       fill-opacity="0.75665"
       id="path3" />
  </g>
</svg>
