<svg width="22" height="22" version="1.1" xmlns="http://www.w3.org/2000/svg">
<path d="m11.022 1.0986-10.734 8.3823 1.3746 1.7584 0.63891-0.49842v10.643h17.448v-10.666l0.6529 0.50773 1.3641-1.7491zm0.0047 2.5165 7.5282 5.91v10.666h-5.5322v-5.7982h-3.9956v5.7982h-5.5322v-10.643z" fill="#1a1a1a" fill-opacity=".57778"/>
<path d="m15.953 2.3179c-0.11624 0-0.20986 0.093516-0.20986 0.20961v0.73947l3.1747 2.4758v-3.2153c0-0.1161-0.09363-0.20961-0.20986-0.20961z" fill="#1a1a1a" fill-opacity=".42222"/>
<path d="m11.027 3.6156-7.5311 5.9323v10.644h5.5327v-5.7983h3.9945v5.7983h5.5327v-10.667zm-2.0136 4.0167h4.0271v4.026h-4.0271z" fill="#1a1a1a" fill-opacity=".10556"/>
<path d="m9.0131 7.6323v4.026h4.0271v-4.026zm0.82034 0.82034h2.3865v2.3865h-2.3865z" opacity=".55"/>
</svg>
